<svg width="35" height="26" viewBox="0 0 35 26" fill="none" xmlns="http://www.w3.org/2000/svg">
<g id="Frame" clip-path="url(#clip0_1791_30929)">
<g id="Group">
<g id="Isolation Mode">
<g id="Group_2">
<g id="Vector" style="mix-blend-mode:multiply" opacity="0.35">
<path d="M24.2498 18.5898L21.3198 23.7198L13.7698 24.1998L8.00977 19.4998L24.2498 18.5898Z" fill="#7A1C0B"/>
</g>
<path id="Vector_2" d="M0 12.95C7.44 17.95 11.08 20.66 16.98 25.9C21.42 21.91 29.84 15.73 34.3 12.95C29.83 10.17 21.42 3.99 16.98 0C11.08 5.24 7.44 7.96 0 12.95Z" fill="url(#paint0_linear_1791_30929)"/>
<path id="Vector_3" d="M14.77 15.55L4.62 12.96H0C7.44 17.96 11.08 20.67 16.98 25.91V22.46L14.78 15.55H14.77Z" fill="url(#paint1_linear_1791_30929)"/>
<path id="Vector_4" d="M34.3002 12.9502H29.5802C23.1002 16.1202 16.9902 22.4602 16.9902 22.4602V25.9102C21.4202 21.9202 29.8302 15.7402 34.3002 12.9602V12.9502Z" fill="url(#paint2_linear_1791_30929)"/>
<g id="Vector_5" style="mix-blend-mode:screen" opacity="0.5">
<path d="M17.44 0.410156C16.69 0.600156 16.5 2.53016 16.99 3.45016C21.81 8.18016 29.58 12.9602 29.58 12.9602H34.3C29.98 10.2702 21.98 4.41016 17.44 0.410156Z" fill="#F9A346"/>
</g>
<path id="Vector_6" d="M16.9899 22.4604C12.6899 18.7204 9.41988 16.2504 4.62988 12.9504C9.42988 9.66043 12.6899 7.18043 16.9899 3.44043C20.6199 6.49043 25.6199 10.2304 29.5799 12.9504C25.6199 15.6704 20.6199 19.4004 16.9899 22.4604Z" fill="url(#paint3_linear_1791_30929)"/>
<g id="Vector_7" style="mix-blend-mode:screen">
<path d="M4.62988 12.9502H7.97988L17.0899 19.5402C17.0899 19.5402 17.0099 21.8002 16.9899 22.4602C10.5399 16.9002 4.62988 12.9502 4.62988 12.9502Z" fill="#F9A346"/>
</g>
<path id="Vector_8" d="M16.9902 3.4502L17.0102 5.8802L20.5002 10.2702L26.3402 12.9502H29.5802L16.9902 3.4502Z" fill="url(#paint4_linear_1791_30929)"/>
<path id="Vector_9" d="M13.5999 10.1302L17.0099 5.8802L16.9899 3.4502C12.6899 7.1902 9.41988 9.6602 4.62988 12.9602H7.68988L13.6099 10.1302H13.5999Z" fill="url(#paint5_linear_1791_30929)"/>
<g id="Group_3">
<path id="Vector_10" d="M26.3402 12.9499L17.0102 20.0299L7.68018 12.9499L17.0102 5.87988L26.3402 12.9499Z" fill="url(#paint6_radial_1791_30929)"/>
<g id="Vector_11" style="mix-blend-mode:multiply" opacity="0.3">
<path d="M17.0102 20.0295L7.68018 12.9495L13.9602 12.7195C13.9602 12.7195 18.6202 12.6695 21.4102 12.7195C24.7502 12.7795 26.3302 12.9495 26.3302 12.9495L17.0002 20.0295H17.0102Z" fill="#215870"/>
</g>
<path id="Vector_12" d="M21.42 12.7196C19.94 13.7596 18.73 14.6696 17.69 15.5496C16.65 14.6796 15.44 13.7596 13.96 12.7196C15.44 11.6796 16.65 10.7596 17.69 9.88965C18.73 10.7596 19.94 11.6796 21.42 12.7196Z" fill="url(#paint7_radial_1791_30929)"/>
<g id="Vector_13" style="mix-blend-mode:multiply" opacity="0.5">
<path d="M7.68018 12.9497L13.9602 12.7197L17.6902 15.5497L17.0102 20.0297L7.68018 12.9497Z" fill="#215B70"/>
</g>
<g id="Group_4" style="mix-blend-mode:screen">
<path id="Vector_14" d="M17.0103 5.87988L17.6903 9.89988L21.4203 12.7199L26.3403 12.9499L17.0103 5.87988Z" fill="url(#paint8_linear_1791_30929)"/>
</g>
<path id="Vector_15" d="M17.6899 9.89941L21.6799 12.0794L26.3399 12.9494L21.4199 12.7194L17.6899 9.89941Z" fill="#DCFFF2"/>
</g>
<g id="Vector_16" style="mix-blend-mode:screen">
<path d="M18.5898 4.65039L24.0698 8.10039L27.5498 11.4204L18.5898 4.65039Z" fill="#F9A346"/>
</g>
<g id="Vector_17" style="mix-blend-mode:screen">
<path d="M10.4502 17.1201L15.5302 20.6201L16.9902 22.4601L10.4502 17.1201Z" fill="#F9A346"/>
</g>
<path id="Vector_18" d="M19.69 3.36965C19.56 3.51965 18.98 3.24965 18.39 2.74965C17.81 2.25965 17.44 1.72965 17.57 1.56965C17.7 1.41965 18.28 1.68965 18.87 2.18965C19.45 2.67965 19.82 3.20965 19.69 3.36965Z" fill="url(#paint9_linear_1791_30929)"/>
<g id="Vector_19" style="mix-blend-mode:multiply" opacity="0.2">
<path d="M7.98 7.37988C5.53 9.14988 8.57 9.83988 12.26 7.37988C9.34 9.60988 4.63 12.9499 4.63 12.9499H0L7.98 7.37988Z" fill="#BC4408"/>
</g>
</g>
</g>
</g>
</g>
<defs>
<linearGradient id="paint0_linear_1791_30929" x1="17.15" y1="25.49" x2="17.15" y2="7.94" gradientUnits="userSpaceOnUse">
<stop stop-color="#ED480B"/>
<stop offset="0.99" stop-color="#F2B100"/>
</linearGradient>
<linearGradient id="paint1_linear_1791_30929" x1="6.42" y1="9.70996" x2="10.33" y2="24.78" gradientUnits="userSpaceOnUse">
<stop stop-color="#A32100"/>
<stop offset="1" stop-color="#D36C05"/>
</linearGradient>
<linearGradient id="paint2_linear_1791_30929" x1="18.2102" y1="22.6402" x2="28.0902" y2="16.0802" gradientUnits="userSpaceOnUse">
<stop stop-color="#7A1C0B"/>
<stop offset="0.94" stop-color="#BC4408"/>
</linearGradient>
<linearGradient id="paint3_linear_1791_30929" x1="17.0999" y1="3.96043" x2="17.0999" y2="16.0004" gradientUnits="userSpaceOnUse">
<stop stop-color="#ED480B"/>
<stop offset="0.99" stop-color="#F2B100"/>
</linearGradient>
<linearGradient id="paint4_linear_1791_30929" x1="16.9902" y1="8.2002" x2="29.5802" y2="8.2002" gradientUnits="userSpaceOnUse">
<stop stop-color="#7A1C0B"/>
<stop offset="0.94" stop-color="#BC4408"/>
</linearGradient>
<linearGradient id="paint5_linear_1791_30929" x1="16.5599" y1="5.9902" x2="9.13988" y2="10.6802" gradientUnits="userSpaceOnUse">
<stop stop-color="#A32100"/>
<stop offset="1" stop-color="#D36C05"/>
</linearGradient>
<radialGradient id="paint6_radial_1791_30929" cx="0" cy="0" r="1" gradientUnits="userSpaceOnUse" gradientTransform="translate(19.575 9.83988) scale(11.5192 9.52)">
<stop stop-color="#33FFA7"/>
<stop offset="1" stop-color="#00CED1"/>
</radialGradient>
<radialGradient id="paint7_radial_1791_30929" cx="0" cy="0" r="1" gradientUnits="userSpaceOnUse" gradientTransform="translate(13.9362 14.6096) scale(5.8564 4.84)">
<stop stop-color="#33FFA7"/>
<stop offset="1" stop-color="#00CED1"/>
</radialGradient>
<linearGradient id="paint8_linear_1791_30929" x1="17.0103" y1="9.40988" x2="26.3403" y2="9.40988" gradientUnits="userSpaceOnUse">
<stop stop-color="#400900"/>
<stop offset="1" stop-color="#ABFBD3"/>
</linearGradient>
<linearGradient id="paint9_linear_1791_30929" x1="18.1795" y1="2.06814" x2="20.2969" y2="3.85873" gradientUnits="userSpaceOnUse">
<stop stop-color="white"/>
<stop offset="1" stop-color="#FFF7C4"/>
</linearGradient>
<clipPath id="clip0_1791_30929">
<rect width="34.3" height="25.91" fill="white"/>
</clipPath>
</defs>
</svg>
