<svg width="24" height="20" viewBox="0 0 24 20" fill="none" xmlns="http://www.w3.org/2000/svg">
<g id="Frame" clip-path="url(#clip0_1791_30879)">
<g id="Group">
<g id="Isolation Mode">
<g id="Group_2">
<path id="Vector" d="M1.10201 13.1307L4.74146 19.2819C5.89793 19.7198 16.4217 20.3835 18.3197 19.6856C19.2653 18.3309 21.068 13.507 21.068 11.7554C19.9728 10.6538 17.7211 8.79271 16.5238 6.17896C17.0748 5.02261 17.8231 3.81837 18.17 3.01782C19.17 3.12046 21.068 4.17417 21.068 4.17417L20.517 5.07735L20.3197 4.37259L19.653 4.13311L18.585 4.67366C18.585 4.67366 17.8775 6.40475 18 6.76055L20.4081 8.15638C20.8843 8.07427 21.1972 8.02638 21.6734 7.94427C22.4421 6.48686 23.4013 4.56418 24.0068 3.26414C23.2177 2.31307 19.3673 -0.369109 17.4762 0.0414283C15.6802 0.958295 12.2857 4.82419 10.585 7.98532C11.7823 9.38799 13.8775 11.5023 13.8775 11.5023L13.0272 14.3555H6.62582C3.55779 11.9812 2.8231 11.5844 2.8231 11.5844L0.911531 11.687C0.911531 11.687 0.523776 12.5354 -0.00683594 13.7123C0.537382 13.4249 1.0952 13.1376 1.0952 13.1376L1.10201 13.1307Z" fill="url(#paint0_linear_1791_30879)"/>
<path id="Vector_2" d="M15.6666 17.1814C16.1087 16.7982 16.7278 15.9018 16.9387 15.3887C16.4965 16.7571 15.8774 17.5303 15.8774 17.5303C15.8774 17.5303 13.4217 17.8861 9.12915 17.4961C11.0747 17.5303 13.5441 17.544 15.6666 17.1814Z" fill="#FFE346"/>
<path id="Vector_3" d="M21.3402 6.60271L19.2926 5.62427L19.6463 4.12581L18.5783 4.66635C18.5783 4.66635 17.8708 6.39744 17.9932 6.75324L20.4014 8.14907C20.8776 8.06696 21.1905 8.01907 21.6667 7.93696C22.6395 6.11691 23.415 4.56371 24 3.25684L22.9864 3.7358L21.3402 6.59587V6.60271Z" fill="url(#paint1_linear_1791_30879)"/>
<g id="Vector_4" style="mix-blend-mode:multiply" opacity="0.15">
<path d="M13.8774 11.502L13.0271 14.3552C13.0271 14.3552 14.8502 15.7579 15.8706 17.53C16.6461 16.75 17.9659 13.6025 17.9659 11.7414C17.3604 11.7072 13.8706 11.5088 13.8706 11.5088L13.8774 11.502Z" fill="#7A1C0B"/>
</g>
<path id="Vector_5" d="M15.8776 17.5308C12.6191 17.7634 7.78912 17.4281 5.69388 17.2981C1.00001 13.6854 4.74831 19.2892 4.74831 19.2892C6.10205 19.6519 16.4286 20.3908 18.3265 19.6929C19.2721 18.3381 21.0748 13.5143 21.0748 11.7627L17.9796 11.749C17.8776 13.4596 16.6803 16.2034 15.8844 17.5376L15.8776 17.5308Z" fill="url(#paint2_linear_1791_30879)"/>
<path id="Vector_6" d="M5.69387 17.291L4.74829 19.2821C5.97958 19.7474 16.068 20.37 18.2245 19.72L18.3265 19.6858L15.8775 17.5237C12.619 17.7563 7.78911 17.421 5.69387 17.291Z" fill="url(#paint3_linear_1791_30879)"/>
<path id="Vector_7" opacity="0.5" d="M17.9727 11.7346C16.4761 10.3319 14.5782 7.41707 14.2788 6.28125L10.585 7.99182C11.7822 9.39449 13.8775 11.5088 13.8775 11.5088L17.9727 11.7414V11.7346Z" fill="url(#paint4_linear_1791_30879)"/>
<path id="Vector_8" d="M21.0679 4.16743L21.7346 3.33267C21.7346 3.33267 19.7074 2.12842 17.9727 1.59473C17.0747 2.19685 15.2448 4.87218 14.2788 6.28169L16.5237 6.17906C17.0747 5.02271 17.823 3.81847 18.17 3.01792C19.17 3.12056 21.0679 4.17427 21.0679 4.17427V4.16743Z" fill="url(#paint5_linear_1791_30879)"/>
<path id="Vector_9" d="M17.9932 6.76082L19.2925 5.625L21.3401 6.60345L21.6666 7.94453L20.4081 8.15665L17.9932 6.76082Z" fill="url(#paint6_linear_1791_30879)"/>
<path id="Vector_10" d="M21.7346 3.33267C21.7346 3.33267 19.7074 2.12842 17.9727 1.59473L18.1699 3.01792C19.1699 3.12056 21.0679 4.17427 21.0679 4.17427L21.7346 3.33951V3.33267Z" fill="url(#paint7_linear_1791_30879)"/>
<g id="Vector_11" style="mix-blend-mode:screen" opacity="0.5">
<path d="M23.9116 3.16858C23.1156 2.30645 20.4218 0.417981 18.4898 0.0621825C18.483 0.0621825 18.4694 0.0621825 18.4626 0.0621825C18.4354 0.0621825 18.4082 0.0553402 18.3809 0.0484979C17.9864 0.0142865 17.0408 0.520615 17.966 1.6017C18.8979 1.93697 21.3265 2.99068 21.7279 3.33964C22.2449 3.45596 22.8435 3.6407 23.9048 3.17542L23.9116 3.16858Z" fill="#F9A346"/>
</g>
<path id="Vector_12" d="M20.3604 1.01322C20.3196 1.10901 20.0067 1.06112 19.6529 0.91743C19.2992 0.7669 19.0475 0.575316 19.0883 0.479524C19.1291 0.383732 19.4421 0.431628 19.7958 0.575316C20.1495 0.725846 20.4012 0.91743 20.3604 1.01322Z" fill="url(#paint8_linear_1791_30879)"/>
<path id="Vector_13" d="M16.0885 9.50441C15.313 8.31385 14.7347 7.17803 14.4354 6.28169C15.0681 5.28956 16.5647 3.06582 16.9252 2.64844C15.5102 3.9211 14.4082 5.81642 14.1089 6.35696C14.3606 7.08224 15.4966 8.87492 16.0885 9.49757V9.50441Z" fill="#FFE346"/>
<g id="Vector_14" style="mix-blend-mode:multiply" opacity="0.35">
<path d="M0.693848 13.3156L1.69385 16.3878L2.27208 19.0426L4.02038 18.0505L2.85031 14.1983L1.09521 13.0898L0.693848 13.3156Z" fill="#7A1C0B"/>
</g>
<path id="Vector_15" style="mix-blend-mode:multiply" opacity="0.35" d="M2.82978 11.584L0.918213 11.6866C0.918213 11.6866 4.80257 16.2573 5.69372 17.2973C5.53726 15.0188 6.6325 14.362 6.6325 14.362C3.71413 12.1519 2.82978 11.5908 2.82978 11.5908V11.584Z" fill="url(#paint9_linear_1791_30879)"/>
<path id="Vector_16" d="M0.918367 11.6865L0 13.7118L1.10204 13.1371L4.7415 19.2883L5.68707 17.2972C2.17007 13.1987 0.918367 11.6865 0.918367 11.6865Z" fill="url(#paint10_linear_1791_30879)"/>
<g id="Vector_17" style="mix-blend-mode:screen" opacity="0.5">
<path d="M4.06107 15.3883C3.10869 14.0062 3.40121 11.8166 4.27195 12.5761C3.19032 11.8029 2.82298 11.584 2.82298 11.584L0.918213 11.6866C2.06107 13.0619 4.05427 15.3883 4.05427 15.3883H4.06107Z" fill="#F9A346"/>
</g>
<path id="Vector_18" d="M2.54406 11.5977C2.1427 11.6182 1.17672 11.6798 0.918213 11.6866C1.16311 11.9877 1.59848 12.5008 1.59848 12.5008C1.3876 12.0835 0.993043 11.7413 2.54406 11.5977Z" fill="#FFE346"/>
<path id="Vector_19" d="M4.5918 12.8096L6.63261 14.3559H12.0068L6.36731 14.527L4.5918 12.8096Z" fill="#FFE346"/>
<g id="Vector_20" style="mix-blend-mode:multiply" opacity="0.35">
<path d="M13.8775 11.5026L13.0272 14.3558H12.5918L13.3673 11.5026L12.1973 9.76465L13.7687 11.3931L13.8775 11.5026Z" fill="#7A1C0B"/>
</g>
<g id="Vector_21" style="mix-blend-mode:screen" opacity="0.5">
<path d="M16.5238 6.17872L14.2993 6.34293C14.6463 7.51981 16.5034 10.3525 17.9728 11.7347C18.6939 11.7347 21.068 11.7483 21.068 11.7483C19.9728 10.6467 17.7211 8.78563 16.5238 6.17188V6.17872Z" fill="#F9A346"/>
</g>
</g>
</g>
</g>
</g>
<defs>
<linearGradient id="paint0_linear_1791_30879" x1="12" y1="23.4831" x2="12" y2="11.0165" gradientUnits="userSpaceOnUse">
<stop stop-color="#ED480B"/>
<stop offset="0.99" stop-color="#F2B100"/>
</linearGradient>
<linearGradient id="paint1_linear_1791_30879" x1="20.8232" y1="8.00538" x2="21.0021" y2="4.84436" gradientUnits="userSpaceOnUse">
<stop stop-color="#A32100"/>
<stop offset="1" stop-color="#D36C05"/>
</linearGradient>
<linearGradient id="paint2_linear_1791_30879" x1="12.0068" y1="20.3019" x2="12.2339" y2="13.0286" gradientUnits="userSpaceOnUse">
<stop stop-color="#A32100"/>
<stop offset="1" stop-color="#D36C05"/>
</linearGradient>
<linearGradient id="paint3_linear_1791_30879" x1="1.25169" y1="18.6458" x2="14.8299" y2="18.6458" gradientUnits="userSpaceOnUse">
<stop offset="0.06" stop-color="#BC4408"/>
<stop offset="1" stop-color="#7A1C0B"/>
</linearGradient>
<linearGradient id="paint4_linear_1791_30879" x1="15.4761" y1="11.9809" x2="13.3693" y2="8.29654" gradientUnits="userSpaceOnUse">
<stop stop-color="#A32100"/>
<stop offset="1" stop-color="#D36C05"/>
</linearGradient>
<linearGradient id="paint5_linear_1791_30879" x1="18.9659" y1="3.23003" x2="17.3331" y2="5.88325" gradientUnits="userSpaceOnUse">
<stop stop-color="#A32100"/>
<stop offset="1" stop-color="#D36C05"/>
</linearGradient>
<linearGradient id="paint6_linear_1791_30879" x1="19.0544" y1="6.19975" x2="21.4253" y2="8.04067" gradientUnits="userSpaceOnUse">
<stop stop-color="#7A1C0B"/>
<stop offset="0.94" stop-color="#BC4408"/>
</linearGradient>
<linearGradient id="paint7_linear_1791_30879" x1="19.8502" y1="4.1948" x2="19.8502" y2="2.70318" gradientUnits="userSpaceOnUse">
<stop stop-color="#7A1C0B"/>
<stop offset="0.94" stop-color="#BC4408"/>
</linearGradient>
<linearGradient id="paint8_linear_1791_30879" x1="19.1043" y1="0.793342" x2="20.3382" y2="0.691616" gradientUnits="userSpaceOnUse">
<stop stop-color="white"/>
<stop offset="1" stop-color="#FFF7C4"/>
</linearGradient>
<linearGradient id="paint9_linear_1791_30879" x1="6.02025" y1="15.7099" x2="3.45053" y2="13.6171" gradientUnits="userSpaceOnUse">
<stop stop-color="#A32100"/>
<stop offset="1" stop-color="white"/>
</linearGradient>
<linearGradient id="paint10_linear_1791_30879" x1="0" y1="15.484" x2="5.69388" y2="15.484" gradientUnits="userSpaceOnUse">
<stop stop-color="#D36C05"/>
<stop offset="1" stop-color="#A32100"/>
</linearGradient>
<clipPath id="clip0_1791_30879">
<rect width="24" height="20" fill="white"/>
</clipPath>
</defs>
</svg>
