<svg width="33" height="36" viewBox="0 0 33 36" fill="none" xmlns="http://www.w3.org/2000/svg">
<path d="M29.8677 21.1457C29.6422 21.0184 29.4192 20.884 29.201 20.7496C27.261 19.5399 27.261 16.7457 29.201 15.5385C29.4192 15.4017 29.6422 15.2697 29.8677 15.1423C31.978 13.9445 32.7022 11.2894 31.484 9.21438C30.2657 7.13936 27.5655 6.42725 25.4552 7.6251C25.3473 7.68641 25.237 7.74772 25.1267 7.80667C23.0427 8.93614 20.4552 7.4907 20.4504 5.15395V5.10914C20.4504 2.71344 18.4744 0.770473 16.038 0.770473C13.6015 0.770473 11.6255 2.71344 11.6255 5.10914C11.6255 5.12329 11.6255 5.1398 11.6255 5.15395C11.6207 7.49306 9.03319 8.93614 6.94926 7.80667C6.83895 7.74772 6.73104 7.68641 6.62072 7.6251C4.51042 6.42725 1.81019 7.137 0.591965 9.21438C-0.626256 11.2894 0.0955638 13.9445 2.20827 15.1423C2.43369 15.2697 2.65671 15.4041 2.87493 15.5385C4.81497 16.7481 4.81497 19.5423 2.87493 20.7496C2.65671 20.8863 2.43369 21.0184 2.20827 21.1457C0.097962 22.3436 -0.626256 24.9963 0.591965 27.0737C1.81019 29.151 4.51042 29.8608 6.62072 28.6629C6.72864 28.6016 6.83895 28.5403 6.94926 28.4814C9.03319 27.3519 11.6207 28.7973 11.6255 31.1341C11.6255 31.1482 11.6255 31.1648 11.6255 31.1789C11.6255 33.5746 13.6015 35.5176 16.038 35.5176C18.4744 35.5176 20.4504 33.5746 20.4504 31.1789V31.1341C20.4552 28.795 23.0427 27.3519 25.1267 28.479C25.237 28.538 25.3449 28.5993 25.4552 28.6606C27.5655 29.8584 30.2657 29.1487 31.484 27.0713C32.7022 24.9963 31.9804 22.3412 29.8677 21.1434V21.1457ZM29.6135 26.0126C29.213 26.6964 28.4624 27.1208 27.6566 27.1208C27.2657 27.1208 26.8773 27.0171 26.5343 26.8237C23.3473 25.0152 19.719 24.0578 16.038 24.0578C12.3569 24.0578 8.72863 25.0152 5.54159 26.8237C5.19387 27.0218 4.81497 27.1208 4.41929 27.1208C3.61354 27.1208 2.86534 26.6964 2.46246 26.0126C1.84136 24.9538 2.21067 23.5957 3.2874 22.9849C9.7622 19.3089 13.7838 12.4589 13.7838 5.10914C13.7838 3.88771 14.7958 2.89265 16.038 2.89265C17.2802 2.89265 18.2922 3.88771 18.2922 5.10914C18.2922 12.4589 22.3137 19.3089 28.7885 22.9849C29.3089 23.282 29.683 23.7584 29.8389 24.3313C29.9948 24.9043 29.9156 25.5009 29.6135 26.0126Z" fill="url(#paint0_linear_1351_125)"/>
<defs>
<linearGradient id="paint0_linear_1351_125" x1="22.3362" y1="28.2349" x2="13.3346" y2="6.5899" gradientUnits="userSpaceOnUse">
<stop stop-color="#FFD569"/>
<stop offset="0.515056" stop-color="#FC8E4F"/>
<stop offset="1" stop-color="#FF697B"/>
</linearGradient>
</defs>
</svg>
