<svg width="77" height="26" viewBox="0 0 77 26" fill="none" xmlns="http://www.w3.org/2000/svg">
<path d="M21.2945 15.1401C21.1338 15.0493 20.9748 14.9535 20.8192 14.8576C19.436 13.9952 19.436 12.0031 20.8192 11.1423C20.9748 11.0448 21.1338 10.9507 21.2945 10.8599C22.7991 10.0059 23.3154 8.11288 22.4469 6.63347C21.5784 5.15406 19.6532 4.64635 18.1486 5.50038C18.0717 5.54409 17.993 5.5878 17.9144 5.62983C16.4286 6.4351 14.5838 5.40455 14.5804 3.73854V3.70659C14.5804 1.99855 13.1716 0.613281 11.4345 0.613281C9.69738 0.613281 8.28856 1.99855 8.28856 3.70659C8.28856 3.71668 8.28856 3.72845 8.28856 3.73854C8.28514 5.40623 6.44033 6.4351 4.95457 5.62983C4.87592 5.5878 4.79898 5.54409 4.72033 5.50038C3.21576 4.64635 1.2906 5.15238 0.422049 6.63347C-0.446498 8.11288 0.0681335 10.0059 1.57441 10.8599C1.73513 10.9507 1.89413 11.0465 2.04972 11.1423C3.4329 12.0047 3.4329 13.9969 2.04972 14.8576C1.89413 14.9552 1.73513 15.0493 1.57441 15.1401C0.0698432 15.9941 -0.446498 17.8854 0.422049 19.3665C1.2906 20.8476 3.21576 21.3536 4.72033 20.4996C4.79727 20.4559 4.87592 20.4122 4.95457 20.3701C6.44033 19.5649 8.28514 20.5954 8.28856 22.2614C8.28856 22.2715 8.28856 22.2833 8.28856 22.2934C8.28856 24.0014 9.69738 25.3867 11.4345 25.3867C13.1716 25.3867 14.5804 24.0014 14.5804 22.2934V22.2614C14.5838 20.5937 16.4286 19.5649 17.9144 20.3684C17.993 20.4105 18.07 20.4542 18.1486 20.4979C19.6532 21.3519 21.5784 20.8459 22.4469 19.3648C23.3154 17.8854 22.8008 15.9924 21.2945 15.1384V15.1401ZM21.1133 18.61C20.8278 19.0975 20.2926 19.4001 19.7182 19.4001C19.4395 19.4001 19.1625 19.3261 18.918 19.1883C16.6458 17.8988 14.0589 17.2163 11.4345 17.2163C8.81003 17.2163 6.22319 17.8988 3.95095 19.1883C3.70304 19.3295 3.4329 19.4001 3.15079 19.4001C2.57632 19.4001 2.04288 19.0975 1.75565 18.61C1.31282 17.8551 1.57612 16.8868 2.3438 16.4514C6.96009 13.8305 9.82732 8.94673 9.82732 3.70659C9.82732 2.83576 10.5488 2.12631 11.4345 2.12631C12.3201 2.12631 13.0416 2.83576 13.0416 3.70659C13.0416 8.94673 15.9089 13.8305 20.5252 16.4514C20.8962 16.6632 21.1629 17.0028 21.274 17.4113C21.3852 17.8198 21.3287 18.2452 21.1133 18.61Z" fill="url(#paint0_linear_150_899)"/>
<path d="M39.2897 20.3516L38.1663 17.1188H31.334L30.2105 20.3516H27.3446L33.1681 4.30252H36.3321L42.1327 20.3516H39.2897ZM32.2052 14.6427H37.295L34.7501 7.3977L32.2052 14.6427ZM51.2901 8.88796H53.7663V20.3516H51.2901V18.8842C50.5335 20.0764 49.2955 20.6496 47.7364 20.6496C45.1686 20.6496 43.3344 18.9071 43.3344 15.9266V8.88796H45.8105V15.6744C45.8105 17.4169 46.8193 18.334 48.3784 18.334C50.0062 18.334 51.2901 17.371 51.2901 15.0325V8.88796ZM59.1379 10.8138C59.8257 9.2548 61.2242 8.68162 62.6686 8.68162V11.3641C61.0408 11.2495 59.1379 12.0061 59.1379 14.5739V20.3516H56.6617V8.88796H59.1379V10.8138ZM73.04 8.88796H75.5161V20.3516H73.04V18.7008C72.1687 19.9159 70.816 20.6496 69.0277 20.6496C65.9096 20.6496 63.3188 18.013 63.3188 14.6198C63.3188 11.2036 65.9096 8.58991 69.0277 8.58991C70.816 8.58991 72.1687 9.32358 73.04 10.5158V8.88796ZM69.4175 18.2881C71.4809 18.2881 73.04 16.752 73.04 14.6198C73.04 12.4875 71.4809 10.9514 69.4175 10.9514C67.354 10.9514 65.795 12.4875 65.795 14.6198C65.795 16.752 67.354 18.2881 69.4175 18.2881Z" fill="#D4D1D1"/>
<defs>
<linearGradient id="paint0_linear_150_899" x1="15.9249" y1="20.1944" x2="9.50705" y2="4.76232" gradientUnits="userSpaceOnUse">
<stop stop-color="#FFD569"/>
<stop offset="0.515056" stop-color="#FC8E4F"/>
<stop offset="1" stop-color="#FF697B"/>
</linearGradient>
</defs>
</svg>
