<svg width="418" height="200" viewBox="0 0 418 200" fill="none" xmlns="http://www.w3.org/2000/svg">
<path d="M125.384 43.9319C124.146 47.538 124.315 48.503 130.729 48.503L130.166 49.9759H109.461L109.911 48.503C114.975 48.503 116.719 47.538 117.957 43.9319L123.246 28.5427L118.913 7.41432C118.126 3.55432 116.832 2.74169 113.231 2.74169L113.681 1.2688H132.586L132.023 2.74169C126.228 2.74169 125.721 3.85906 126.397 7.5159L129.772 25.0383H130.11L145.639 6.34774C148.115 3.35117 148.79 2.74169 142.376 2.74169L142.938 1.2688H157.736L157.342 2.74169C154.248 2.74169 151.884 3.09722 149.24 6.29696L130.673 28.3904L125.328 43.9827L125.384 43.9319Z" fill="white"/>
<path d="M161.891 36.9752H163.354C159.585 45.4062 154.183 50.7899 147.769 50.7899C142.424 50.7899 138.936 47.4378 138.936 41.3939C138.936 31.0328 148.726 16.7102 158.628 16.7102C162.623 16.7102 165.099 18.9449 165.099 22.2463C165.099 29.052 155.59 34.7912 146.25 36.061C145.856 37.8386 145.631 39.5147 145.631 40.9876C145.631 44.9491 147.657 46.8283 150.695 46.8283C154.69 46.8283 158.459 43.0699 161.835 36.8736L161.891 36.9752ZM146.813 34.1818C154.014 32.5565 160.429 27.5284 160.429 21.8907C160.429 20.1131 159.866 19.0973 158.178 19.0973C153.396 19.0973 148.782 27.0205 146.756 34.1818H146.813Z" fill="white"/>
<path d="M199.384 38.9065H200.959C198.54 44.3409 194.095 50.4865 188.637 50.4865C185.036 50.4865 183.855 48.7596 183.855 46.5757C183.855 45.1536 184.643 43.7315 185.655 41.2936L188.3 34.5894H187.681C184.417 40.938 178.228 50.5881 172.208 50.5881C167.932 50.5881 166.075 47.2867 166.075 42.6141C166.075 31.7959 176.934 16.813 186.33 16.813C190.832 16.813 192.688 19.8096 192.407 23.7204H192.632L194.601 18.8446C197.302 18.8446 199.44 17.7273 200.622 16.4575L201.691 17.0162L191.957 41.4967C191.394 42.9188 190.494 44.9504 190.494 45.8138C190.494 46.7281 190.775 47.2359 191.732 47.2359C194.207 47.2359 197.189 43.4267 199.496 38.9573L199.384 38.9065ZM188.637 29.9675C189.369 28.0375 189.931 26.0567 189.931 24.0759C189.931 21.4349 189.144 19.9112 186.893 19.9112C180.873 19.9112 172.714 33.2688 172.714 41.9031C172.714 44.6457 173.333 46.1694 174.965 46.1694C178.96 46.1694 186.105 36.6717 188.637 29.9675Z" fill="white"/>
<path d="M203.974 49.9258L212.526 26.6134C213.257 24.5818 214.158 22.0424 214.158 21.1789C214.158 20.3663 213.82 20.1631 213.257 20.1631C211.232 20.1631 208.25 23.4137 205.718 27.2229H204.086C207.181 21.7884 212.245 16.9126 217.196 16.9126C219.615 16.9126 220.797 18.4871 220.797 20.2647C220.797 21.8392 219.784 23.9724 218.659 26.6134L214.664 36.365H215.283C221.078 22.7026 226.873 16.7603 232.5 16.7603C234.131 16.7603 234.975 17.4713 234.975 18.8426C234.975 20.7218 233.231 22.7026 231.374 22.7026C230.024 22.7026 229.349 22.0424 227.942 22.0424C224.848 22.0424 219.109 27.5784 210.669 49.9766H203.974V49.9258Z" fill="white"/>
<path d="M245.632 40.3266C245.632 28.7466 255.366 16.7603 265.324 16.7603C271.345 16.7603 275.396 20.9758 275.396 27.3752C275.396 38.9044 265.662 50.84 255.647 50.84C249.683 50.84 245.688 46.8276 245.688 40.3773L245.632 40.3266ZM269.038 25.3945C269.038 21.6868 267.744 19.2997 264.874 19.2997C259.079 19.2997 252.046 32.505 252.046 42.2058C252.046 45.8626 253.284 48.1989 256.153 48.1989C261.949 48.1989 269.038 35.2476 269.038 25.3945Z" fill="white"/>
<path d="M310.216 2.3871C310.216 3.86 308.753 5.53605 306.84 5.53605C304.252 5.53605 302.507 2.69184 300.088 2.69184C298.794 2.69184 297.837 3.30132 297.05 6.09474C296.374 8.88816 295.924 12.545 294.63 16.2526L294.18 17.6747H301.832L301.157 19.6047H293.561L285.459 43.6789C281.802 54.4971 273.306 63.3345 263.516 63.3345C260.084 63.3345 259.184 62.2171 259.184 60.9474C259.184 59.0174 261.209 57.2397 263.347 57.2397C265.935 57.2397 267.117 59.576 269.311 59.576C272.743 59.576 274.488 55.9192 278.37 44.5931L286.809 19.6047H280.958L281.633 17.6747H287.485L288.104 15.8971C291.198 6.60263 295.812 0 305.377 0C308.809 0 310.328 0.711052 310.328 2.3871H310.216Z" fill="white"/>
<path d="M160.372 152.205C155.252 152.205 153.564 153.17 152.326 156.776L140.173 192.786C139.048 196.189 139.723 196.747 142.761 196.747H150.807C155.927 196.747 158.403 194.919 163.242 186.996L165.211 187.554L158.347 199.49H123.856L124.307 198.017C129.483 198.017 131.171 197.052 132.409 193.446L144.843 156.776C146.081 153.17 145.912 152.205 139.892 152.205L140.342 150.732H160.879L160.428 152.205H160.372Z" fill="white"/>
<path d="M176.056 176.078C176.843 174.047 177.8 171.558 177.8 170.695C177.8 169.882 177.462 169.679 176.9 169.679C174.874 169.679 171.892 172.929 169.36 176.739H167.729C170.823 171.304 175.887 166.428 180.838 166.428C183.258 166.428 184.439 168.003 184.439 169.78C184.439 171.355 183.539 173.488 182.47 176.18L176.618 190.96C176.056 192.28 175.212 194.413 175.212 195.277C175.212 196.191 175.493 196.699 176.45 196.699C178.925 196.699 181.963 192.89 184.214 188.42H185.789C183.37 193.855 178.981 200 173.468 200C169.867 200 168.685 198.273 168.685 196.089C168.685 194.667 169.416 193.245 170.373 190.807L176.168 176.078H176.056ZM180.332 156.423C180.332 154.086 182.076 152.664 184.664 152.664C187.252 152.664 188.997 154.137 188.997 156.423C188.997 158.708 187.252 160.181 184.664 160.181C182.076 160.181 180.332 158.657 180.332 156.423Z" fill="white"/>
<path d="M241.282 150.733H256.754L256.361 152.155C253.041 152.155 251.072 153.019 247.077 156.98L230.254 173.487L235.88 193.396C236.949 197.256 238.637 198.018 243.082 198.018L242.52 199.491H222.321L222.883 198.018C228.735 198.018 229.072 197.002 228.06 193.396L223.727 178.007L208.817 193.701C205.722 196.85 206.454 198.018 211.63 198.018L211.236 199.491H195.032L195.482 198.069C199.252 198.069 201.615 196.901 206.116 192.33L222.827 175.214L217.707 156.828C216.638 152.968 215.119 152.206 211.574 152.206L212.024 150.733H230.535L229.973 152.206C224.627 152.206 224.459 153.222 225.471 156.828L229.41 170.693L243.251 156.625C246.627 153.222 245.727 152.155 240.832 152.155L241.225 150.682L241.282 150.733Z" fill="white"/>
<path d="M255.055 176.078C255.842 174.047 256.799 171.558 256.799 170.695C256.799 169.882 256.461 169.679 255.899 169.679C253.873 169.679 250.891 172.929 248.359 176.739H246.728C249.822 171.304 254.886 166.428 259.837 166.428C262.257 166.428 263.438 168.003 263.438 169.78C263.438 171.355 262.538 173.488 261.469 176.18L255.617 190.96C255.055 192.28 254.211 194.413 254.211 195.277C254.211 196.191 254.492 196.699 255.449 196.699C257.924 196.699 260.962 192.89 263.213 188.42H264.788C262.369 193.855 257.98 200 252.467 200C248.866 200 247.684 198.273 247.684 196.089C247.684 194.667 248.415 193.245 249.372 190.807L255.167 176.078H255.055ZM259.331 156.423C259.331 154.086 261.075 152.664 263.663 152.664C266.251 152.664 267.996 154.137 267.996 156.423C267.996 158.708 266.251 160.181 263.663 160.181C261.075 160.181 259.331 158.657 259.331 156.423Z" fill="white"/>
<path fill-rule="evenodd" clip-rule="evenodd" d="M380.571 99.2591L374.495 97.5322L381.922 76.353L388.336 78.1307L380.571 99.2591ZM45.8014 123.84V123.738H53.7347V104.184C53.8472 100.02 57.3356 96.769 62.737 96.769C66.9568 96.769 69.6013 99.1561 69.6013 102.762V123.789H77.5908V102.407C77.5908 95.1437 72.5833 90.5219 64.9876 90.5219C60.3176 90.5219 56.2103 92.2995 53.7909 94.9914V78.1293H45.8014V123.738H45.7451L45.8014 123.84ZM15.8103 123.841V87.7806H0V81.178H39.6102V87.7806H23.9124V123.841H15.8103ZM101.038 90.6252C91.0788 90.6252 83.3143 97.177 83.3143 107.843C83.3143 117.696 90.7975 124.756 101.713 124.756C110.153 124.756 116.173 120.591 117.973 113.633H110.209C108.971 116.883 105.876 118.712 101.769 118.712C95.6925 118.712 91.8103 114.903 91.2476 109.214H118.086V107.487C117.917 97.0246 110.996 90.6252 101.038 90.6252ZM101.038 96.7199C105.708 96.7199 108.858 99.5133 109.871 104.135H91.5852C92.823 99.5133 96.3677 96.7199 101.038 96.7199ZM139.982 123.841V81.1781H156.973C170.983 81.1781 180.773 89.8123 180.773 102.256C180.773 114.699 170.983 123.841 156.973 123.841H139.982ZM148.027 117.289H157.48C166.257 117.289 172.39 111.144 172.39 102.306C172.39 93.977 166.257 87.8315 157.48 87.8315H148.027V117.289ZM187.657 91.5416V123.844H195.647V107.896C195.647 101.801 200.036 98.195 207.463 98.195H208.813V91.1861H207.463C201.499 91.1861 197.335 93.5224 195.028 97.8903L194.072 91.5416H187.657ZM211.681 114.902C211.738 107.335 220.065 105.76 226.985 105.049C227.451 105.001 227.906 104.956 228.349 104.912C233.046 104.446 236.387 104.115 236.438 101.748C236.382 98.5989 233.681 96.5166 229.067 96.5166C224.454 96.5166 220.965 98.8529 220.515 102.205H212.469C213.201 95.3992 219.952 90.625 229.18 90.625C238.407 90.625 244.146 95.3992 244.146 102.256V116.883C244.146 117.797 244.709 118.305 245.89 118.305H247.86V123.892H244.09C240.433 123.892 238.238 122.572 237.619 120.134L237.591 120.058L237.57 120.003L237.57 120.002C237.463 119.717 237.33 119.367 237.282 119.016C235.2 122.47 231.262 124.552 225.185 124.552C216.97 124.552 211.569 120.946 211.625 114.953L211.681 114.902ZM236.438 111.703V107.182C235.088 109.062 231.655 109.519 227.886 109.925C223.441 110.433 219.727 110.941 219.727 114.394C219.727 117.188 222.203 118.864 226.873 118.864C232.331 118.864 236.438 116.07 236.438 111.753V111.703ZM260.614 125.67H252.624L252.568 125.771C252.568 132.729 259.432 137.097 269.447 137.097C280.306 137.097 287.002 131.51 287.002 122.978V91.6406H280.644L279.969 96.618C277.718 93.0119 273.217 90.6248 267.591 90.6248C258.082 90.6248 251.218 97.4814 251.218 107.081C251.218 116.68 258.138 123.384 267.703 123.384C272.823 123.384 276.818 121.403 279.125 118.305V122.876C279.125 127.752 275.862 131.155 269.504 131.155C264.215 131.155 260.614 128.717 260.614 125.67ZM269.335 96.6688C275.13 96.6688 279.181 100.884 279.181 106.979C279.181 113.074 275.13 117.34 269.335 117.34C263.54 117.34 259.545 113.175 259.545 107.03C259.545 100.884 263.54 96.6688 269.335 96.6688ZM293.237 107.387C293.237 96.8225 301.114 90.5754 311.579 90.5754C323.114 90.5754 329.865 97.889 329.865 107.387C329.865 118.306 322.213 124.757 311.579 124.757C299.989 124.757 293.237 117.392 293.237 107.387ZM321.763 107.387C321.763 100.987 317.768 96.7209 311.579 96.7209C305.39 96.7209 301.339 100.987 301.339 107.387C301.339 114.446 305.728 118.611 311.579 118.611C317.993 118.611 321.763 113.837 321.763 107.387ZM336.131 123.792V123.842L336.075 123.792H336.131ZM336.131 123.792V91.5404H342.545L343.22 96.3146C345.471 92.9625 349.972 90.5754 355.317 90.5754C362.969 90.5754 367.92 95.1972 367.92 102.46V123.842H359.931V102.816C359.931 99.2096 357.286 96.8225 352.841 96.8225C347.665 96.8225 344.12 100.073 344.064 104.238V123.792H336.131ZM388.183 113.531H388.068L388.18 113.48C388.181 113.497 388.182 113.514 388.183 113.531ZM388.183 113.531C388.658 120.56 394.449 124.704 404.216 124.704C412.993 124.704 418 120.895 418 115.105C418 109.315 413.724 107.385 406.635 105.252L402.303 103.982C402.045 103.901 401.782 103.822 401.518 103.742C399.129 103.02 396.62 102.262 396.62 100.021C396.62 97.786 398.645 96.4654 402.134 96.4654C406.241 96.4654 409.167 98.1415 409.561 101.798H417.1C416.144 94.4846 410.799 90.5231 402.19 90.5231C393.582 90.5231 388.743 94.0783 388.743 100.021C388.743 105.963 393.863 107.791 399.827 109.569L404.553 110.991C404.746 111.048 404.936 111.104 405.122 111.158C407.926 111.976 409.955 112.568 409.955 114.902C409.955 117.391 407.816 118.813 403.765 118.813C399.377 118.813 396.057 116.984 395.776 113.531H388.183Z" fill="url(#paint0_linear_1_683)"/>
<circle cx="311.724" cy="90.856" r="69.8592" fill="url(#paint1_linear_1_683)" fill-opacity="0.02"/>
<circle cx="311.724" cy="90.856" r="69.7137" stroke="url(#paint2_linear_1_683)" stroke-opacity="0.04" stroke-width="0.29108"/>
<circle cx="311.725" cy="90.8557" r="46.2817" fill="url(#paint3_linear_1_683)" fill-opacity="0.03"/>
<circle cx="311.725" cy="90.8557" r="46.1362" stroke="url(#paint4_linear_1_683)" stroke-opacity="0.04" stroke-width="0.29108"/>
<circle cx="311.724" cy="90.8555" r="27.9437" fill="url(#paint5_linear_1_683)" fill-opacity="0.03"/>
<circle cx="311.724" cy="90.8555" r="27.7981" stroke="url(#paint6_linear_1_683)" stroke-opacity="0.04" stroke-width="0.29108"/>
<rect x="293.859" y="90.8591" width="36.2818" height="34.2818" rx="17.1409" fill="url(#paint7_linear_1_683)"/>
<rect x="293.859" y="90.8591" width="36.2818" height="34.2818" rx="17.1409" stroke="url(#paint8_linear_1_683)" stroke-width="0.28178"/>
<rect x="298.564" y="94.5645" width="27.0509" height="27.0509" rx="13.5254" stroke="white" stroke-opacity="0.12" stroke-width="1.12712"/>
<g filter="url(#filter0_d_1_683)">
<path d="M316.972 109.187C316.888 109.14 316.805 109.091 316.724 109.041C316.002 108.596 316.002 107.566 316.724 107.121C316.805 107.07 316.888 107.022 316.972 106.975C317.757 106.533 318.027 105.554 317.573 104.79C317.12 104.025 316.115 103.762 315.33 104.204C315.29 104.226 315.249 104.249 315.208 104.271C314.433 104.687 313.47 104.154 313.468 103.293V103.276C313.468 102.393 312.733 101.677 311.827 101.677C310.92 101.677 310.185 102.393 310.185 103.276C310.185 103.282 310.185 103.288 310.185 103.293C310.183 104.155 309.22 104.687 308.445 104.271C308.404 104.249 308.364 104.226 308.323 104.204C307.538 103.762 306.533 104.024 306.08 104.79C305.626 105.554 305.895 106.533 306.681 106.975C306.765 107.022 306.848 107.071 306.929 107.121C307.651 107.566 307.651 108.596 306.929 109.041C306.848 109.092 306.765 109.14 306.681 109.187C305.896 109.629 305.626 110.607 306.08 111.372C306.533 112.138 307.538 112.4 308.323 111.958C308.363 111.936 308.404 111.913 308.445 111.891C309.22 111.475 310.183 112.008 310.185 112.869C310.185 112.874 310.185 112.88 310.185 112.886C310.185 113.769 310.92 114.485 311.827 114.485C312.733 114.485 313.468 113.769 313.468 112.886V112.869C313.47 112.007 314.433 111.475 315.208 111.89C315.249 111.912 315.289 111.935 315.33 111.957C316.115 112.399 317.12 112.137 317.573 111.372C318.027 110.607 317.758 109.628 316.972 109.187V109.187ZM316.877 110.981C316.728 111.233 316.449 111.39 316.149 111.39C316.004 111.39 315.859 111.352 315.732 111.28C314.546 110.614 313.196 110.261 311.827 110.261C310.457 110.261 309.107 110.614 307.921 111.28C307.792 111.353 307.651 111.39 307.504 111.39C307.204 111.39 306.925 111.233 306.776 110.981C306.544 110.591 306.682 110.09 307.082 109.865C309.492 108.51 310.988 105.986 310.988 103.276C310.988 102.826 311.364 102.459 311.827 102.459C312.289 102.459 312.665 102.826 312.665 103.276C312.665 105.986 314.161 108.51 316.571 109.865C316.764 109.975 316.903 110.15 316.961 110.362C317.019 110.573 316.99 110.793 316.877 110.981Z" fill="white"/>
</g>
<defs>
<filter id="filter0_d_1_683" x="301.493" y="98.4754" width="20.667" height="21.54" filterUnits="userSpaceOnUse" color-interpolation-filters="sRGB">
<feFlood flood-opacity="0" result="BackgroundImageFix"/>
<feColorMatrix in="SourceAlpha" type="matrix" values="0 0 0 0 0 0 0 0 0 0 0 0 0 0 0 0 0 0 127 0" result="hardAlpha"/>
<feOffset dy="1.16432"/>
<feGaussianBlur stdDeviation="2.1831"/>
<feComposite in2="hardAlpha" operator="out"/>
<feColorMatrix type="matrix" values="0 0 0 0 0 0 0 0 0 0 0 0 0 0 0 0 0 0 0.25 0"/>
<feBlend mode="normal" in2="BackgroundImageFix" result="effect1_dropShadow_1_683"/>
<feBlend mode="normal" in="SourceGraphic" in2="effect1_dropShadow_1_683" result="shape"/>
</filter>
<linearGradient id="paint0_linear_1_683" x1="418" y1="135.422" x2="408.746" y2="39.619" gradientUnits="userSpaceOnUse">
<stop stop-color="#EDBA37"/>
<stop offset="0.515056" stop-color="#E8793A"/>
<stop offset="1" stop-color="#F64C60"/>
</linearGradient>
<linearGradient id="paint1_linear_1_683" x1="339.159" y1="131.432" x2="305.001" y2="42.4572" gradientUnits="userSpaceOnUse">
<stop stop-color="#FFD569"/>
<stop offset="0.515056" stop-color="#FC8E4F"/>
<stop offset="1" stop-color="#FF697B"/>
</linearGradient>
<linearGradient id="paint2_linear_1_683" x1="339.159" y1="131.432" x2="305.001" y2="42.4572" gradientUnits="userSpaceOnUse">
<stop stop-color="#FFD569"/>
<stop offset="0.515056" stop-color="#FC8E4F"/>
<stop offset="1" stop-color="#FF697B"/>
</linearGradient>
<linearGradient id="paint3_linear_1_683" x1="329.9" y1="117.737" x2="307.271" y2="58.7915" gradientUnits="userSpaceOnUse">
<stop stop-color="#FFD569"/>
<stop offset="0.515056" stop-color="#FC8E4F"/>
<stop offset="1" stop-color="#FF697B"/>
</linearGradient>
<linearGradient id="paint4_linear_1_683" x1="329.9" y1="117.737" x2="307.271" y2="58.7915" gradientUnits="userSpaceOnUse">
<stop stop-color="#FFD569"/>
<stop offset="0.515056" stop-color="#FC8E4F"/>
<stop offset="1" stop-color="#FF697B"/>
</linearGradient>
<linearGradient id="paint5_linear_1_683" x1="322.698" y1="107.086" x2="309.035" y2="71.496" gradientUnits="userSpaceOnUse">
<stop stop-color="#FFD569"/>
<stop offset="0.515056" stop-color="#FC8E4F"/>
<stop offset="1" stop-color="#FF697B"/>
</linearGradient>
<linearGradient id="paint6_linear_1_683" x1="322.698" y1="107.086" x2="309.035" y2="71.496" gradientUnits="userSpaceOnUse">
<stop stop-color="#FFD569"/>
<stop offset="0.515056" stop-color="#FC8E4F"/>
<stop offset="1" stop-color="#FF697B"/>
</linearGradient>
<linearGradient id="paint7_linear_1_683" x1="319.069" y1="117.874" x2="311.108" y2="95.9176" gradientUnits="userSpaceOnUse">
<stop stop-color="#FFD569"/>
<stop offset="0.515056" stop-color="#FC8E4F"/>
<stop offset="1" stop-color="#FF697B"/>
</linearGradient>
<linearGradient id="paint8_linear_1_683" x1="319.069" y1="117.874" x2="311.108" y2="95.9176" gradientUnits="userSpaceOnUse">
<stop stop-color="#FFD569"/>
<stop offset="0.515056" stop-color="#FC8E4F"/>
<stop offset="1" stop-color="#FF697B"/>
</linearGradient>
</defs>
</svg>
