<svg width="274" height="81" viewBox="0 0 274 81" fill="none" xmlns="http://www.w3.org/2000/svg">
<path d="M69.397 47.4974C68.8733 47.2005 68.3551 46.8872 67.848 46.5739C63.3404 43.7541 63.3404 37.2404 67.848 34.4261C68.3551 34.1073 68.8733 33.7995 69.397 33.5026C74.3003 30.7103 75.983 24.521 73.1525 19.6838C70.322 14.8467 64.048 13.1867 59.1448 15.979C58.894 16.1219 58.6377 16.2649 58.3814 16.4023C53.5394 19.0352 47.5274 15.6657 47.5162 10.2184V10.114C47.5162 4.52932 42.925 0 37.2639 0C31.6029 0 27.0117 4.52932 27.0117 10.114C27.0117 10.147 27.0117 10.1855 27.0117 10.2184C27.0005 15.6712 20.9885 19.0352 16.1465 16.4023C15.8902 16.2649 15.6395 16.1219 15.3831 15.979C10.4799 13.1867 4.20594 14.8412 1.37542 19.6838C-1.4551 24.521 0.222041 30.7103 5.13087 33.5026C5.65463 33.7995 6.17282 34.1128 6.67986 34.4261C11.1875 37.2459 11.1875 43.7596 6.67986 46.5739C6.17282 46.8927 5.65463 47.2005 5.13087 47.4974C0.227613 50.2897 -1.4551 56.4735 1.37542 61.3162C4.20594 66.1588 10.4799 67.8133 15.3831 65.021C15.6339 64.8781 15.8902 64.7351 16.1465 64.5977C20.9885 61.9648 27.0005 65.3343 27.0117 70.7816C27.0117 70.8145 27.0117 70.853 27.0117 70.886C27.0117 76.4707 31.6029 81 37.2639 81C42.925 81 47.5162 76.4707 47.5162 70.886V70.7816C47.5274 65.3288 53.5394 61.9648 58.3814 64.5922C58.6377 64.7296 58.8884 64.8726 59.1448 65.0155C64.048 67.8078 70.322 66.1533 73.1525 61.3107C75.983 56.4735 74.3059 50.2842 69.397 47.4919V47.4974ZM68.8064 58.8426C67.8759 60.4367 66.1319 61.4261 64.2597 61.4261C63.3515 61.4261 62.4489 61.1842 61.6521 60.7335C54.2471 56.5175 45.8168 54.2858 37.2639 54.2858C28.7111 54.2858 20.2808 56.5175 12.8758 60.7335C12.0679 61.1952 11.1875 61.4261 10.2682 61.4261C8.396 61.4261 6.65757 60.4367 5.72149 58.8426C4.27838 56.3746 5.13645 53.2085 7.63822 51.7848C22.6823 43.2154 32.0264 27.2474 32.0264 10.114C32.0264 7.26669 34.3777 4.94707 37.2639 4.94707C40.1502 4.94707 42.5015 7.26669 42.5015 10.114C42.5015 27.2474 51.8456 43.2154 66.8897 51.7848C68.0988 52.4774 68.968 53.5877 69.3302 54.9235C69.6923 56.2592 69.5085 57.6498 68.8064 58.8426Z" fill="url(#paint0_linear_1526_758)"/>
<path d="M265.695 28.485H274V66.8845H265.695V61.355C262.773 65.4253 258.236 67.8829 252.238 67.8829C241.78 67.8829 233.091 59.051 233.091 47.6847C233.091 36.2417 241.78 27.4866 252.238 27.4866C258.236 27.4866 262.773 29.9441 265.695 33.9377V28.485ZM253.546 59.9726C260.466 59.9726 265.695 54.8271 265.695 47.6847C265.695 40.5424 260.466 35.3969 253.546 35.3969C246.625 35.3969 241.396 40.5424 241.396 47.6847C241.396 54.8271 246.625 59.9726 253.546 59.9726Z" fill="white"/>
<path d="M219.067 34.936C221.374 29.7137 226.064 27.7937 230.909 27.7937V36.7792C225.449 36.3952 219.067 38.9296 219.067 47.5311V66.8845H210.762V28.4849H219.067V34.936Z" fill="white"/>
<path d="M192.746 28.4849H201.051V66.8844H192.746V61.9693C190.208 65.9629 186.056 67.8828 180.827 67.8828C172.214 67.8828 166.062 62.0461 166.062 52.0622V28.4849H174.367V51.2174C174.367 57.0541 177.751 60.1261 182.98 60.1261C188.44 60.1261 192.746 56.9006 192.746 49.067V28.4849Z" fill="white"/>
<path d="M152.496 66.8844L148.728 56.0557H125.813L122.045 66.8844H112.433L131.965 13.125H142.576L162.032 66.8844H152.496ZM128.735 47.7614H145.806L137.271 23.4929L128.735 47.7614Z" fill="white"/>
<defs>
<linearGradient id="paint0_linear_1526_758" x1="51.8979" y1="64.0233" x2="30.8652" y2="13.6148" gradientUnits="userSpaceOnUse">
<stop stop-color="#FFD569"/>
<stop offset="0.515056" stop-color="#FC8E4F"/>
<stop offset="1" stop-color="#FF697B"/>
</linearGradient>
</defs>
</svg>
