<svg width="48" height="53" viewBox="0 0 48 53" fill="none" xmlns="http://www.w3.org/2000/svg">
<path d="M44.6978 30.7802C44.3604 30.5896 44.0267 30.3885 43.7001 30.1873C40.7968 28.3771 40.7968 24.1955 43.7001 22.3887C44.0267 22.1841 44.3604 21.9865 44.6978 21.7959C47.8559 20.0033 48.9397 16.0299 47.1166 12.9246C45.2935 9.81924 41.2526 8.75355 38.0944 10.5462C37.9329 10.6379 37.7678 10.7297 37.6028 10.8179C34.4841 12.5082 30.6118 10.345 30.6046 6.84801V6.78097C30.6046 3.19573 27.6475 0.288025 24.0013 0.288025C20.3551 0.288025 17.3979 3.19573 17.3979 6.78097C17.3979 6.80214 17.3979 6.82684 17.3979 6.84801C17.3907 10.3486 13.5184 12.5082 10.3998 10.8179C10.2347 10.7297 10.0732 10.6379 9.9081 10.5462C6.74997 8.75355 2.709 9.81571 0.885893 12.9246C-0.93721 16.0299 0.143014 20.0033 3.30473 21.7959C3.64208 21.9865 3.97584 22.1876 4.30242 22.3887C7.20574 24.199 7.20574 28.3806 4.30242 30.1873C3.97584 30.392 3.64208 30.5896 3.30473 30.7802C0.146603 32.5728 -0.93721 36.5426 0.885893 39.6515C2.709 42.7603 6.74997 43.8225 9.9081 42.0299C10.0696 41.9381 10.2347 41.8464 10.3998 41.7582C13.5184 40.0679 17.3907 42.231 17.3979 45.728C17.3979 45.7492 17.3979 45.7739 17.3979 45.7951C17.3979 49.3803 20.3551 52.288 24.0013 52.288C27.6475 52.288 30.6046 49.3803 30.6046 45.7951V45.728C30.6118 42.2275 34.4841 40.0679 37.6028 41.7546C37.7678 41.8429 37.9293 41.9346 38.0944 42.0264C41.2526 43.819 45.2935 42.7568 47.1166 39.648C48.9397 36.5426 47.8595 32.5692 44.6978 30.7766V30.7802ZM44.3174 38.0635C43.7181 39.0869 42.5948 39.7221 41.3889 39.7221C40.804 39.7221 40.2226 39.5668 39.7094 39.2774C34.9399 36.5709 29.51 35.1382 24.0013 35.1382C18.4925 35.1382 13.0626 36.5709 8.29315 39.2774C7.77277 39.5739 7.20574 39.7221 6.61359 39.7221C5.40776 39.7221 4.28806 39.0869 3.68515 38.0635C2.75565 36.4791 3.30832 34.4466 4.91969 33.5326C14.6094 28.0312 20.6278 17.7802 20.6278 6.78097C20.6278 4.95306 22.1423 3.46392 24.0013 3.46392C25.8603 3.46392 27.3747 4.95306 27.3747 6.78097C27.3747 17.7802 33.3931 28.0312 43.0828 33.5326C43.8616 33.9772 44.4215 34.69 44.6547 35.5475C44.888 36.405 44.7696 37.2978 44.3174 38.0635Z" fill="url(#paint0_linear_239_941)"/>
<defs>
<linearGradient id="paint0_linear_239_941" x1="33.4268" y1="41.3894" x2="19.9555" y2="8.99695" gradientUnits="userSpaceOnUse">
<stop stop-color="#FFD569"/>
<stop offset="0.515056" stop-color="#FC8E4F"/>
<stop offset="1" stop-color="#FF697B"/>
</linearGradient>
</defs>
</svg>
