<svg width="32" height="32" viewBox="0 0 32 32" fill="none" xmlns="http://www.w3.org/2000/svg">
<g id="wallet-provider">
<path id="coin98 logo" d="M26.1694 0H5.82982C4.28282 0.00152381 2.79984 0.617143 1.70703 1.71124C0.612703 2.8061 0 4.28952 0 5.83619V26.1638C0 27.7105 0.613465 29.1947 1.70703 30.2888C2.79908 31.3829 4.28282 31.9985 5.82982 32H26.1694C27.7164 31.9985 29.2002 31.3829 30.293 30.2888C31.3865 29.1947 32 27.7112 32 26.1646V5.83543C32 4.28876 31.3865 2.80533 30.293 1.71124C29.2002 0.617143 27.7172 0.00152381 26.1702 0H26.1694ZM21.2312 7.99695C22.3652 7.99848 23.4526 8.44952 24.2551 9.25105C25.0568 10.0533 25.5087 11.1406 25.5102 12.2743C25.511 12.9905 25.3311 13.6937 24.9859 14.3208C24.4525 13.8857 23.8443 13.5505 23.1913 13.3303C23.3642 13.005 23.4557 12.643 23.4565 12.2743C23.461 11.9802 23.4062 11.6876 23.2964 11.4133C23.1867 11.139 23.0236 10.8907 22.8163 10.6804C22.609 10.4709 22.3621 10.304 22.0901 10.1897C21.818 10.0754 21.5261 10.0175 21.2312 10.0175C20.9363 10.0175 20.6444 10.0762 20.3716 10.1897C20.0995 10.304 19.8534 10.4709 19.6461 10.6804C19.4388 10.8907 19.2757 11.1398 19.166 11.4133C19.0555 11.6876 19.0014 11.9794 19.006 12.2743C19.0029 12.6438 19.0944 13.008 19.2719 13.3318C18.6188 13.552 18.0115 13.888 17.4773 14.3223C17.1321 13.696 16.9514 12.992 16.953 12.2766C16.953 11.1413 17.4033 10.0533 18.2058 9.25105C19.0075 8.44876 20.0957 7.99695 21.2312 7.99695ZM10.7695 24.0038C9.63483 24.0023 8.54735 23.5512 7.74566 22.749C6.9432 21.9474 6.49206 20.8594 6.49053 19.7257H8.54583C8.54583 20.0183 8.60299 20.307 8.71501 20.5775C8.82703 20.8472 8.99088 21.0926 9.1974 21.299C9.40392 21.5063 9.64931 21.6701 9.91908 21.7813C10.1896 21.8933 10.4792 21.9512 10.7711 21.9512C11.0637 21.9512 11.3533 21.8933 11.6231 21.7813C11.8928 21.6701 12.1382 21.5063 12.3447 21.299C12.552 21.0933 12.7159 20.8472 12.8279 20.5775C12.9392 20.307 12.9971 20.0183 12.9971 19.7257H15.0524C15.0524 20.288 14.9411 20.8442 14.7254 21.3638C14.5098 21.8819 14.1943 22.3543 13.7972 22.7512C13.3994 23.149 12.927 23.4636 12.408 23.6785C11.8883 23.8933 11.332 24.0038 10.7695 24.0038ZM10.7695 17.9954C9.78038 17.9947 8.81408 17.7006 7.99181 17.1505C7.1703 16.6004 6.53016 15.8194 6.15218 14.9051C5.77419 13.9916 5.67588 12.9867 5.87021 12.0175C6.06378 11.0469 6.54083 10.157 7.24041 9.45752C7.93999 8.75962 8.83161 8.28419 9.80172 8.09219C10.7718 7.90019 11.777 7.99924 12.69 8.37867C13.6044 8.75809 14.3848 9.39962 14.9335 10.2217C15.4822 11.0446 15.7748 12.0107 15.774 12.9996C15.774 13.6564 15.6437 14.3063 15.3915 14.912C15.14 15.5192 14.7712 16.0701 14.3063 16.5341C13.8414 16.9981 13.2905 17.3653 12.6831 17.616C12.0765 17.8674 11.4257 17.9962 10.7695 17.9954ZM21.2305 24.0038C20.2405 24.0038 19.2735 23.712 18.4504 23.1627C17.6274 22.6141 16.9857 21.8331 16.607 20.9189C16.2282 20.0046 16.1284 18.9996 16.3212 18.0297C16.514 17.059 16.9903 16.1676 17.6906 15.4682C18.3902 14.7688 19.2811 14.2926 20.2512 14.0998C21.2221 13.907 22.228 14.0069 23.1417 14.3855C24.0562 14.7642 24.8366 15.4057 25.386 16.2286C25.9347 17.0514 26.2281 18.019 26.2273 19.008C26.225 20.3322 25.6977 21.6015 24.7611 22.5379C23.8238 23.4743 22.5549 24.0008 21.2305 24.0038ZM24.1812 19.008C24.1812 19.5909 24.0082 20.1615 23.6835 20.6461C23.3597 21.1322 22.8986 21.5101 22.3591 21.7333C21.8203 21.9566 21.2266 22.0152 20.6543 21.901C20.082 21.7867 19.5562 21.5063 19.1432 21.0933C18.7309 20.6811 18.4497 20.1562 18.3354 19.5832C18.2218 19.011 18.2805 18.4175 18.5038 17.8789C18.7271 17.3394 19.1058 16.8785 19.5905 16.5547C20.0759 16.2301 20.6467 16.0571 21.2305 16.0571C21.6176 16.0571 22.0017 16.1333 22.3598 16.2811C22.718 16.4297 23.0434 16.6469 23.317 16.9211C23.5913 17.1954 23.8085 17.52 23.9571 17.8781C24.105 18.2362 24.1812 18.6202 24.1812 19.008ZM13.7203 12.9996C13.7203 13.5832 13.5473 14.1539 13.2234 14.6385C12.8988 15.1238 12.4385 15.5017 11.8989 15.7257C11.3594 15.949 10.7657 16.0076 10.1934 15.8933C9.62187 15.779 9.09604 15.4987 8.683 15.0857C8.26996 14.6735 7.98952 14.1478 7.87521 13.5756C7.7609 13.0027 7.81958 12.4099 8.04287 11.8705C8.26615 11.3318 8.6449 10.8709 9.12957 10.5463C9.61501 10.2225 10.1858 10.0495 10.7695 10.0495C11.5514 10.0503 12.3013 10.3619 12.8546 10.915C13.4078 11.4682 13.7195 12.2179 13.7203 12.9996Z" fill="url(#paint0_linear_1845_13929)"/>
</g>
<defs>
<linearGradient id="paint0_linear_1845_13929" x1="32.538" y1="4.84724" x2="-0.533587" y2="27.1593" gradientUnits="userSpaceOnUse">
<stop stop-color="#F1D961"/>
<stop offset="1" stop-color="#CDA146"/>
</linearGradient>
</defs>
</svg>
