<svg width="32" height="32" viewBox="0 0 32 32" fill="none" xmlns="http://www.w3.org/2000/svg">
<g id="wallet-provider" clip-path="url(#clip0_1845_13952)">
<path id="Vector" d="M32 24.2111V7.78888C32 3.4872 28.5128 0 24.2111 0L7.78888 0C3.4872 0 0 3.4872 0 7.78888V24.2111C0 28.5128 3.4872 32 7.78888 32H24.2111C28.5128 32 32 28.5128 32 24.2111Z" fill="url(#paint0_linear_1845_13952)"/>
<path id="Vector_2" opacity="0.9" d="M32 24.2111V7.78888C32 3.4872 28.5128 0 24.2111 0L7.78888 0C3.4872 0 0 3.4872 0 7.78888V24.2111C0 28.5128 3.4872 32 7.78888 32H24.2111C28.5128 32 32 28.5128 32 24.2111Z" fill="url(#paint1_linear_1845_13952)"/>
<path id="Vector_3" opacity="0.9" d="M24.2111 0.00012207H7.78888C3.4872 0.00012207 0 3.48732 0 7.789V24.2112C0 28.5129 3.4872 32.0001 7.78888 32.0001H24.2111C28.5128 32.0001 32 28.5129 32 24.2112V7.789C32 3.48732 28.5128 0.00012207 24.2111 0.00012207Z" fill="url(#paint2_linear_1845_13952)"/>
<path id="Vector_4" d="M13.0198 24.3566V16.9549L19.9769 24.3566H23.8473V24.1656L15.8454 15.7372L23.2299 7.73869V7.64319H19.3358L13.0198 14.7106V7.64319H9.8855V24.3566H13.0198Z" fill="url(#paint3_linear_1845_13952)"/>
</g>
<defs>
<linearGradient id="paint0_linear_1845_13952" x1="33.121" y1="17.5794" x2="-3.56686" y2="-0.968152" gradientUnits="userSpaceOnUse">
<stop offset="0.210712" stop-color="#457CD6"/>
<stop offset="0.681753" stop-color="#58ADE9"/>
<stop offset="0.943139" stop-color="#71C4FF"/>
</linearGradient>
<linearGradient id="paint1_linear_1845_13952" x1="13.707" y1="1.32484" x2="3.77071" y2="28.637" gradientUnits="userSpaceOnUse">
<stop stop-color="#457CD6" stop-opacity="0"/>
<stop offset="0.286458" stop-color="#58ADE9" stop-opacity="0"/>
<stop offset="0.570545" stop-color="#AF75EA" stop-opacity="0.3"/>
<stop offset="1" stop-color="#8557E8" stop-opacity="0.8"/>
</linearGradient>
<linearGradient id="paint2_linear_1845_13952" x1="-1.54784e-06" y1="-0.662297" x2="32" y2="30.8281" gradientUnits="userSpaceOnUse">
<stop offset="0.0688789" stop-color="#457CD6" stop-opacity="0"/>
<stop offset="0.286458" stop-color="#58ADE9" stop-opacity="0"/>
<stop offset="0.466157" stop-color="#B594FB" stop-opacity="0"/>
<stop offset="0.634398" stop-color="#D483FB" stop-opacity="0.2"/>
<stop offset="0.899464" stop-color="#BE6CFF" stop-opacity="0.8"/>
<stop offset="1" stop-color="#B969F8" stop-opacity="0.85"/>
</linearGradient>
<linearGradient id="paint3_linear_1845_13952" x1="16.8664" y1="7.64319" x2="16.8664" y2="24.3566" gradientUnits="userSpaceOnUse">
<stop stop-color="white"/>
</linearGradient>
<clipPath id="clip0_1845_13952">
<rect width="32" height="32" fill="white"/>
</clipPath>
</defs>
</svg>
