<svg width="20" height="24" viewBox="0 0 20 24" fill="none" xmlns="http://www.w3.org/2000/svg">
<path d="M6.85167 9.35384V7.9259C6.85167 7.20676 7.43113 6.62731 8.15027 6.62731H10.9544C11.6735 6.62731 12.253 7.20676 12.253 7.9259V9.35384H13.5361V7.9259C13.5361 6.50314 12.3772 5.34424 10.9544 5.34424H8.15027C6.72751 5.34424 5.5686 6.50314 5.5686 7.9259V9.35384H6.85167Z" fill="url(#paint0_linear_183_3930)"/>
<path d="M14.1132 19.4336C16.8636 16.9115 17.0487 12.6373 14.5267 9.88694C12.0046 7.13653 7.73046 6.95141 4.98005 9.47346C2.22965 11.9955 2.04453 16.2697 4.56658 19.0201C7.08863 21.7705 11.3628 21.9556 14.1132 19.4336Z" fill="url(#paint1_linear_183_3930)"/>
<path d="M13.8825 19.1869C16.4939 16.7923 16.6697 12.7341 14.2751 10.1227C11.8805 7.51128 7.82234 7.33552 5.21093 9.73012C2.59951 12.1247 2.42375 16.1829 4.81835 18.7943C7.21294 21.4057 11.2711 21.5815 13.8825 19.1869Z" fill="url(#paint2_linear_183_3930)"/>
<path d="M13.246 18.4823C15.4713 16.4403 15.6199 12.981 13.5779 10.7557C11.5359 8.5304 8.0766 8.38179 5.8513 10.4238C3.62599 12.4657 3.47737 15.9251 5.51935 18.1504C7.56133 20.3757 11.0206 20.5243 13.246 18.4823Z" fill="url(#paint3_linear_183_3930)"/>
<g style="mix-blend-mode:overlay" opacity="0.45">
<path d="M4.44065 14.8171C4.44065 11.7956 6.8878 9.34848 9.90922 9.34848C11.3268 9.34848 12.6151 9.89172 13.5877 10.7764C12.5892 9.6796 11.1509 8.98633 9.54707 8.98633C6.52564 8.98633 4.07849 11.4335 4.07849 14.4549C4.07849 16.0587 4.77176 17.497 5.86858 18.4955C4.98388 17.5229 4.44065 16.2346 4.44065 14.8171Z" fill="white"/>
</g>
<g style="mix-blend-mode:multiply" opacity="0.67">
<path d="M13.0135 10.2178C13.7895 11.1594 14.5087 12.6235 14.5087 13.9428C14.5087 16.9642 12.0615 19.4114 9.04011 19.4114C7.726 19.4114 6.26185 18.6871 5.31506 17.9162C6.31876 19.1424 7.83982 19.9236 9.54713 19.9236C12.5686 19.9236 15.0157 17.4764 15.0157 14.455C15.0157 12.7477 14.2345 11.2266 13.0083 10.2229L13.0135 10.2178Z" fill="#F44B16"/>
</g>
<g style="mix-blend-mode:multiply" opacity="0.67">
<path d="M10.6181 11.3716V17.5334H9.00911V12.6909H7.82434V11.3716H10.6181Z" fill="#CC3911"/>
</g>
<path d="M10.2766 0L7.83979 6.60678C7.71045 6.95342 7.96913 7.31558 8.33646 7.31558H8.84348L11.539 0H10.2766Z" fill="#1268C6"/>
<path d="M11.5388 0L8.83813 7.31558H10.1005L12.8012 0H11.5388Z" fill="white"/>
<path d="M12.8013 0L10.737 5.58757L10.1058 7.30523V7.31558H11.0009C11.125 7.31558 11.2389 7.27419 11.332 7.19658C11.4044 7.13967 11.4613 7.06724 11.4976 6.97411L14.0689 0H12.8013Z" fill="#EB3723"/>
<path style="mix-blend-mode:multiply" opacity="0.69" d="M12.165 5.16334L11.4976 6.96895C11.4614 7.06208 11.4045 7.13451 11.332 7.19142C11.2389 7.26902 11.1251 7.31041 11.0009 7.31041H8.33131C7.96398 7.31041 7.71047 6.94308 7.83464 6.60162L10.2663 0.0258789L12.165 5.16334Z" fill="url(#paint4_linear_183_3930)"/>
<path d="M8.67778 0H7.41541L10.1109 7.30523V7.31558H11.0059C11.1301 7.31558 11.2439 7.27419 11.3371 7.19658L10.7421 5.59274L8.67778 0Z" fill="#1268C6"/>
<path d="M6.14795 0L8.84861 7.31558H10.111L7.41033 0H6.14795Z" fill="white"/>
<path d="M4.88049 0L7.45181 6.96894C7.52941 7.17589 7.72601 7.31558 7.94848 7.31558H8.84353L6.14804 0H4.88567H4.88049Z" fill="#EB3723"/>
<defs>
<linearGradient id="paint0_linear_183_3930" x1="5.56343" y1="7.34645" x2="13.5309" y2="7.34645" gradientUnits="userSpaceOnUse">
<stop stop-color="#F78614"/>
<stop offset="1" stop-color="#FFBE06"/>
</linearGradient>
<linearGradient id="paint1_linear_183_3930" x1="12.7513" y1="17.6584" x2="5.66855" y2="10.5757" gradientUnits="userSpaceOnUse">
<stop stop-color="#F78614"/>
<stop offset="1" stop-color="#FFBE06"/>
</linearGradient>
<linearGradient id="paint2_linear_183_3930" x1="5.85354" y1="10.7582" x2="14.4263" y2="19.331" gradientUnits="userSpaceOnUse">
<stop stop-color="#F78614"/>
<stop offset="1" stop-color="#FFBE06"/>
</linearGradient>
<linearGradient id="paint3_linear_183_3930" x1="16.1926" y1="21.0973" x2="2.96865" y2="7.8734" gradientUnits="userSpaceOnUse">
<stop stop-color="#F78614"/>
<stop offset="1" stop-color="#FFBE06"/>
</linearGradient>
<linearGradient id="paint4_linear_183_3930" x1="11.0785" y1="3.48189" x2="9.81098" y2="4.09756" gradientUnits="userSpaceOnUse">
<stop stop-color="white"/>
<stop offset="1" stop-color="#121E3D"/>
</linearGradient>
</defs>
</svg>
