<svg width="18" height="24" viewBox="0 0 18 24" fill="none" xmlns="http://www.w3.org/2000/svg">
<path d="M5.7416 9.96302V8.44213C5.7416 7.67617 6.35878 7.05898 7.12474 7.05898H10.1114C10.8774 7.05898 11.4946 7.67617 11.4946 8.44213V9.96302H12.8612V8.44213C12.8612 6.92674 11.6268 5.69238 10.1114 5.69238H7.12474C5.60935 5.69238 4.375 6.92674 4.375 8.44213V9.96302H5.7416Z" fill="url(#paint0_linear_183_3974)"/>
<path d="M15.6302 16.982C16.5107 13.1061 14.0826 9.25029 10.2067 8.36972C6.33085 7.48914 2.47499 9.9173 1.59442 13.7932C0.713847 17.669 3.14201 21.5249 7.01787 22.4055C10.8937 23.286 14.7496 20.8579 15.6302 16.982Z" fill="url(#paint1_linear_183_3974)"/>
<path d="M15.2755 16.9016C16.1115 13.2216 13.8061 9.5606 10.1261 8.72453C6.44609 7.88845 2.7851 10.1939 1.94903 13.8739C1.11295 17.5539 3.4184 21.2149 7.09839 22.051C10.7784 22.887 14.4394 20.5816 15.2755 16.9016Z" fill="url(#paint2_linear_183_3974)"/>
<path d="M14.2901 16.6933C15.0033 13.5565 13.0386 10.4354 9.90187 9.72221C6.7651 9.00897 3.64406 10.9736 2.93083 14.1104C2.21759 17.2472 4.18226 20.3682 7.31903 21.0815C10.4558 21.7947 13.5768 19.83 14.2901 16.6933Z" fill="url(#paint3_linear_183_3974)"/>
<g style="mix-blend-mode:overlay" opacity="0.45">
<path d="M3.17382 15.7767C3.17382 12.5586 5.78029 9.95214 8.99842 9.95214C10.5083 9.95214 11.8804 10.5307 12.9164 11.473C11.8529 10.3048 10.3209 9.56641 8.61268 9.56641C5.39455 9.56641 2.78809 12.1729 2.78809 15.391C2.78809 17.0993 3.52649 18.6312 4.69472 19.6947C3.75242 18.6587 3.17382 17.2866 3.17382 15.7767Z" fill="white"/>
</g>
<g style="mix-blend-mode:multiply" opacity="0.67">
<path d="M12.3047 10.8833C13.1313 11.8862 13.8973 13.4457 13.8973 14.8509C13.8973 18.069 11.2908 20.6755 8.07266 20.6755C6.67299 20.6755 5.11352 19.904 4.1051 19.0829C5.17414 20.3889 6.79423 21.221 8.61269 21.221C11.8308 21.221 14.4373 18.6145 14.4373 15.3964C14.4373 13.5779 13.6052 11.9578 12.2992 10.8888L12.3047 10.8833Z" fill="#933116"/>
</g>
<path d="M9.38958 0L6.79414 7.03691C6.65638 7.40611 6.9319 7.79185 7.32315 7.79185H7.86317L10.7397 0H9.39509H9.38958Z" fill="#1268C6"/>
<path d="M10.734 0L7.85754 7.79185H9.20211L12.0786 0H10.734Z" fill="white"/>
<path d="M12.0787 0L9.88004 5.95134L9.20776 7.78082V7.79185H10.1611C10.2933 7.79185 10.4146 7.74776 10.5138 7.66511C10.5909 7.60449 10.6515 7.52734 10.6901 7.42815L13.4288 0.00551168H12.0787V0Z" fill="#EB3723"/>
<path style="mix-blend-mode:multiply" opacity="0.69" d="M11.4009 5.49941L10.6901 7.42257C10.6515 7.52176 10.5909 7.59891 10.5137 7.65952C10.4145 7.74218 10.2933 7.78627 10.161 7.78627H7.31763C6.92638 7.78627 6.65637 7.39502 6.78862 7.03132L9.37855 0.0219727L11.4009 5.4939V5.49941Z" fill="url(#paint4_linear_183_3974)"/>
<path d="M7.68673 0H6.34216L9.21313 7.78082V7.79185H10.1665C10.2987 7.79185 10.4199 7.74776 10.5191 7.66511L9.88541 5.95685L7.68673 0.00551168V0Z" fill="#1268C6"/>
<path d="M4.99219 0L7.86867 7.79185H9.21323L6.33675 0H4.99219Z" fill="white"/>
<path d="M3.64209 0L6.38081 7.42264C6.46347 7.64306 6.67286 7.79185 6.90982 7.79185H7.86313L4.98665 0H3.64209Z" fill="#EB3723"/>
<path d="M10.8719 16.3552C10.8719 17.5234 9.91312 18.3335 8.40875 18.3335C7.52707 18.3335 6.61233 18.0414 6.02271 17.5895L6.66192 16.3717C7.13583 16.8622 7.70892 17.1211 8.28752 17.1211C8.95429 17.1211 9.32349 16.8456 9.32349 16.3717C9.32349 15.8978 8.95429 15.6388 8.2765 15.6388H7.25706V14.7902L8.67326 13.4346H6.34231L6.33129 12.2168H10.5689V13.1315L8.93776 14.6524L9.24084 14.6965C10.1997 14.8453 10.8719 15.4294 10.8719 16.3552Z" fill="#6D2B07"/>
<defs>
<linearGradient id="paint0_linear_183_3974" x1="4.36949" y1="7.82495" x2="12.8557" y2="7.82495" gradientUnits="userSpaceOnUse">
<stop stop-color="#91410D"/>
<stop offset="1" stop-color="#CC8139"/>
</linearGradient>
<linearGradient id="paint1_linear_183_3974" x1="12.0259" y1="18.8049" x2="4.48207" y2="11.2555" gradientUnits="userSpaceOnUse">
<stop stop-color="#91410D"/>
<stop offset="1" stop-color="#CC8139"/>
</linearGradient>
<linearGradient id="paint2_linear_183_3974" x1="4.67488" y1="11.454" x2="13.8058" y2="20.5849" gradientUnits="userSpaceOnUse">
<stop stop-color="#91410D"/>
<stop offset="1" stop-color="#CC8139"/>
</linearGradient>
<linearGradient id="paint3_linear_183_3974" x1="15.6972" y1="22.4811" x2="1.61236" y2="8.3963" gradientUnits="userSpaceOnUse">
<stop stop-color="#91410D"/>
<stop offset="1" stop-color="#CC8139"/>
</linearGradient>
<linearGradient id="paint4_linear_183_3974" x1="1.41588" y1="3.7085" x2="8.89363" y2="4.36425" gradientUnits="userSpaceOnUse">
<stop stop-color="white"/>
<stop offset="1" stop-color="#121E3D"/>
</linearGradient>
</defs>
</svg>
