<svg width="18" height="24" viewBox="0 0 18 24" fill="none" xmlns="http://www.w3.org/2000/svg">
<path d="M5.73681 9.96117V8.44058C5.73681 7.67478 6.35386 7.05773 7.11966 7.05773H10.1057C10.8715 7.05773 11.4886 7.67478 11.4886 8.44058V9.96117H12.8549V8.44058C12.8549 6.92551 11.6208 5.69141 10.1057 5.69141H7.11966C5.60458 5.69141 4.37048 6.92551 4.37048 8.44058V9.96117H5.73681Z" fill="url(#paint0_linear_183_3952)"/>
<path d="M15.627 16.9838C16.5074 13.1087 14.0797 9.25363 10.2046 8.37323C6.32956 7.49284 2.47449 9.9205 1.5941 13.7956C0.713701 17.6706 3.14137 21.5257 7.01644 22.4061C10.8915 23.2865 14.7466 20.8588 15.627 16.9838Z" fill="url(#paint1_linear_183_3952)"/>
<path d="M15.2724 16.9028C16.1083 13.2236 13.8033 9.56333 10.1241 8.72743C6.44487 7.89152 2.78462 10.1965 1.94872 13.8757C1.11281 17.555 3.41779 21.2152 7.09704 22.0511C10.7763 22.887 14.4365 20.5821 15.2724 16.9028Z" fill="url(#paint2_linear_183_3952)"/>
<path d="M8.6071 21.2166C11.8233 21.2166 14.4305 18.6094 14.4305 15.3932C14.4305 12.1771 11.8233 9.56982 8.6071 9.56982C5.39092 9.56982 2.78369 12.1771 2.78369 15.3932C2.78369 18.6094 5.39092 21.2166 8.6071 21.2166Z" fill="url(#paint3_linear_183_3952)"/>
<g style="mix-blend-mode:overlay" opacity="0.45">
<path d="M3.16935 15.7789C3.16935 12.5614 5.77528 9.95548 8.99276 9.95548C10.5023 9.95548 11.8742 10.534 12.9099 11.4761C11.8466 10.3081 10.315 9.56982 8.6071 9.56982C5.38963 9.56982 2.78369 12.1758 2.78369 15.3932C2.78369 17.1011 3.52195 18.6327 4.68993 19.6961C3.74783 18.6603 3.16935 17.2885 3.16935 15.7789Z" fill="white"/>
</g>
<g style="mix-blend-mode:multiply" opacity="0.67">
<path d="M12.2984 10.8867C13.1248 11.8894 13.8906 13.4486 13.8906 14.8535C13.8906 18.0709 11.2847 20.6769 8.06721 20.6769C6.66783 20.6769 5.10868 19.9056 4.10046 19.0847C5.16928 20.3904 6.78904 21.2223 8.60713 21.2223C11.8246 21.2223 14.4305 18.6164 14.4305 15.3989C14.4305 13.5808 13.5986 11.961 12.2929 10.8922L12.2984 10.8867Z" fill="#93908F"/>
</g>
<g style="mix-blend-mode:multiply" opacity="0.67">
<path d="M8.93217 13.7241C8.93217 13.3936 8.68424 13.2062 8.24349 13.2062C7.75316 13.2062 7.1306 13.4982 6.56865 13.9776L5.97363 12.8096C6.75045 12.2366 7.5989 11.895 8.4804 11.895C9.70899 11.895 10.596 12.5341 10.596 13.4927C10.596 14.1484 10.0946 14.8315 9.4225 15.5147L8.17738 16.7598H10.7723V18.0325H6.15544L6.14442 16.9857L8.34817 14.7213C8.68425 14.3742 8.93768 13.9886 8.93768 13.7296L8.93217 13.7241Z" fill="#8E8A88"/>
</g>
<path d="M9.38404 0L6.78913 7.03547C6.65139 7.4046 6.92686 7.79025 7.31803 7.79025H7.85794L10.7338 0H9.38955H9.38404Z" fill="#1268C6"/>
<path d="M10.7282 0L7.85229 7.79025H9.19658L12.0725 0H10.7282Z" fill="white"/>
<path d="M12.0727 0L9.87441 5.95013L9.20227 7.77924V7.79025H10.1554C10.2876 7.79025 10.4088 7.74618 10.508 7.66354C10.5851 7.60294 10.6457 7.52581 10.6843 7.42664L13.4225 0.00551055H12.0727V0Z" fill="#EB3723"/>
<path style="mix-blend-mode:multiply" opacity="0.69" d="M11.395 5.49829L10.6842 7.42106C10.6457 7.52023 10.5851 7.59736 10.5079 7.65797C10.4088 7.74061 10.2876 7.78468 10.1553 7.78468H7.31251C6.92134 7.78468 6.65138 7.39352 6.78361 7.0299L9.37301 0.0219727L11.395 5.49278V5.49829Z" fill="url(#paint4_linear_183_3952)"/>
<path d="M7.68157 0H6.33728L9.20766 7.77924V7.79025H10.1608C10.293 7.79025 10.4142 7.74618 10.5134 7.66354L9.87981 5.95563L7.68157 0.00551055V0Z" fill="#1268C6"/>
<path d="M4.98755 0L7.86344 7.79025H9.20773L6.33184 0H4.98755Z" fill="white"/>
<path d="M3.6377 0L6.37585 7.42113C6.4585 7.6415 6.66785 7.79025 6.90475 7.79025H7.85788L4.98198 0H3.6377Z" fill="#EB3723"/>
<defs>
<linearGradient id="paint0_linear_183_3952" x1="4.36497" y1="7.82353" x2="12.8494" y2="7.82353" gradientUnits="userSpaceOnUse">
<stop stop-color="#BBBBBB"/>
<stop offset="1" stop-color="white"/>
</linearGradient>
<linearGradient id="paint1_linear_183_3952" x1="12.0233" y1="18.7988" x2="4.48096" y2="11.2565" gradientUnits="userSpaceOnUse">
<stop stop-color="#BBBBBB"/>
<stop offset="1" stop-color="white"/>
</linearGradient>
<linearGradient id="paint2_linear_183_3952" x1="4.67383" y1="11.4544" x2="13.8029" y2="20.5835" gradientUnits="userSpaceOnUse">
<stop stop-color="#BBBBBB"/>
<stop offset="1" stop-color="white"/>
</linearGradient>
<linearGradient id="paint3_linear_183_3952" x1="15.6866" y1="22.4728" x2="1.60468" y2="8.38531" gradientUnits="userSpaceOnUse">
<stop stop-color="#BBBBBB"/>
<stop offset="1" stop-color="white"/>
</linearGradient>
<linearGradient id="paint4_linear_183_3952" x1="10.238" y1="3.71325" x2="8.88819" y2="4.36887" gradientUnits="userSpaceOnUse">
<stop stop-color="white"/>
<stop offset="1" stop-color="#121E3D"/>
</linearGradient>
</defs>
</svg>
