<svg width="145" height="115" viewBox="0 0 145 115" fill="none" xmlns="http://www.w3.org/2000/svg">
<path d="M133.526 47.1367C133.422 44.2817 128.676 41.9619 122.889 41.9619H38.5302C32.7428 41.9619 27.9968 44.2817 27.894 47.1367C29.3532 48.4214 31.8681 49.4406 34.7113 49.7478L72.5612 54.7881C77.0433 55.2721 84.3769 55.2721 88.8591 54.7881L126.71 49.7478C129.552 49.4406 132.067 48.4214 133.526 47.1367H133.526Z" fill="#991724"/>
<path d="M35.8403 35.0007C31.4686 35.6481 27.8911 38.6634 27.8911 41.7016V50.6254C27.8911 53.6636 31.552 56.1497 36.0271 56.1497H125.393C129.867 56.1497 133.528 53.6636 133.528 50.6254V41.7016C133.528 38.6634 129.951 35.6481 125.579 35.0007L88.6582 28.2604C84.2865 27.6131 77.1326 27.6131 72.7603 28.2604L35.8398 35.0007H35.8403Z" fill="url(#paint0_linear_183_1850)"/>
<mask id="mask0_183_1850" style="mask-type:luminance" maskUnits="userSpaceOnUse" x="27" y="43" width="107" height="72">
<path d="M133.525 44.1642C132.066 45.9248 129.551 47.3229 126.708 47.7435L88.858 54.6536C84.3764 55.3168 77.0423 55.3168 72.5601 54.6536L34.7102 47.7435C31.867 47.3223 29.3522 45.9248 27.893 44.1636C27.8947 44.1026 27.8971 44.0415 27.9012 43.981C27.8947 44.0849 27.8906 44.1889 27.8906 44.2935V107.015C27.8906 110.988 32.6783 114.239 38.5297 114.239H122.889C128.74 114.239 133.527 110.988 133.527 107.015V44.2935C133.527 44.25 133.526 44.2071 133.525 44.1642H133.525Z" fill="white"/>
</mask>
<g mask="url(#mask0_183_1850)">
<path d="M122.89 37.0698H38.5307C32.6792 37.0698 27.8916 40.3207 27.8916 44.2936V107.015C27.8916 110.988 32.6792 114.239 38.5307 114.239H122.89C128.741 114.239 133.528 110.988 133.528 107.015V44.2936C133.528 40.3201 128.741 37.0698 122.89 37.0698Z" fill="url(#paint1_linear_183_1850)"/>
<g style="mix-blend-mode:multiply">
<path d="M122.89 37.0698H38.5307C32.6792 37.0698 27.8916 40.3207 27.8916 44.2936V107.015C27.8916 110.988 32.6792 114.239 38.5307 114.239H122.89C128.741 114.239 133.528 110.988 133.528 107.015V44.2936C133.528 40.3201 128.741 37.0698 122.89 37.0698Z" fill="#D8A4A7"/>
<path opacity="0.97" d="M122.617 37.3193H38.8037C32.9898 37.3193 28.2339 40.5491 28.2339 44.4967V106.812C28.2339 110.759 32.9904 113.989 38.8037 113.989H122.616C128.429 113.989 133.186 110.759 133.186 106.812V44.4967C133.186 40.5491 128.429 37.3193 122.616 37.3193H122.617Z" fill="#D9A5A8"/>
<path opacity="0.94" d="M122.343 37.5698H39.0772C33.3015 37.5698 28.5762 40.7784 28.5762 44.7002V106.609C28.5762 110.53 33.3015 113.739 39.0772 113.739H122.343C128.119 113.739 132.844 110.53 132.844 106.609V44.7002C132.844 40.7784 128.119 37.5698 122.343 37.5698Z" fill="#DAA7A9"/>
<path opacity="0.91" d="M122.07 37.8193H39.3508C33.6127 37.8193 28.9185 41.0068 28.9185 44.9027V106.405C28.9185 110.301 33.6127 113.488 39.3508 113.488H122.07C127.808 113.488 132.502 110.301 132.502 106.405V44.9033C132.502 41.0074 127.808 37.8199 122.07 37.8199L122.07 37.8193Z" fill="#DBA8AB"/>
<path opacity="0.88" d="M121.797 38.0698H39.6238C33.9238 38.0698 29.2607 41.2361 29.2607 45.1068V106.203C29.2607 110.073 33.9238 113.24 39.6238 113.24H121.797C127.496 113.24 132.16 110.073 132.16 106.203V45.1068C132.16 41.2367 127.496 38.0698 121.797 38.0698Z" fill="#DDA9AC"/>
<path opacity="0.85" d="M121.524 38.3193H39.8973C34.2356 38.3193 29.603 41.4651 29.603 45.3093V105.999C29.603 109.843 34.2356 112.989 39.8973 112.989H121.524C127.186 112.989 131.818 109.843 131.818 105.999V45.3099C131.818 41.4651 127.186 38.3199 121.524 38.3199V38.3193Z" fill="#DEABAD"/>
<path opacity="0.82" d="M121.251 38.5693H40.1704C34.5462 38.5693 29.9448 41.6939 29.9448 45.5123V105.795C29.9448 109.614 34.5462 112.738 40.1704 112.738H121.251C126.874 112.738 131.475 109.614 131.475 105.795V45.5123C131.475 41.6933 126.874 38.5693 121.251 38.5693Z" fill="#DFACAE"/>
<path opacity="0.79" d="M120.977 38.8193H40.4433C34.8574 38.8193 30.2871 41.9228 30.2871 45.7159V105.593C30.2871 109.386 34.8574 112.49 40.4433 112.49H120.977C126.563 112.49 131.133 109.386 131.133 105.593V45.7159C131.133 41.9228 126.563 38.8193 120.977 38.8193H120.977Z" fill="#E0ADB0"/>
<path opacity="0.76" d="M120.703 39.0693H40.7164C35.168 39.0693 30.6289 42.1516 30.6289 45.9189V105.389C30.6289 109.157 35.168 112.239 40.7164 112.239H120.703C126.251 112.239 130.791 109.157 130.791 105.389V45.9189C130.791 42.1516 126.252 39.0693 120.703 39.0693Z" fill="#E1AFB1"/>
<path opacity="0.74" d="M120.43 39.3198H40.9905C35.4803 39.3198 30.9717 42.381 30.9717 46.1224V105.186C30.9717 108.928 35.4797 111.989 40.9905 111.989H120.431C125.941 111.989 130.449 108.928 130.449 105.186V46.1224C130.449 42.381 125.941 39.3198 120.431 39.3198H120.43Z" fill="#E2B0B2"/>
<path opacity="0.71" d="M120.157 39.5693H41.2634C35.7908 39.5693 31.314 42.6093 31.314 46.3255V104.984C31.314 108.699 35.7914 111.74 41.2634 111.74H120.157C125.629 111.74 130.107 108.7 130.107 104.984V46.3255C130.107 42.6093 125.629 39.5693 120.157 39.5693Z" fill="#E3B1B3"/>
<path opacity="0.68" d="M119.884 39.8198H41.5365C36.1021 39.8198 31.6558 42.8387 31.6558 46.529V104.781C31.6558 108.471 36.1021 111.49 41.5365 111.49H119.884C125.318 111.49 129.765 108.471 129.765 104.781V46.529C129.765 42.8387 125.318 39.8198 119.884 39.8198Z" fill="#E5B3B5"/>
<path opacity="0.65" d="M119.611 40.0693H41.8096C36.4128 40.0693 31.9976 43.0676 31.9976 46.7315V104.577C31.9976 108.241 36.4128 111.239 41.8096 111.239H119.611C125.007 111.239 129.422 108.24 129.422 104.577V46.7315C129.422 43.067 125.007 40.0693 119.611 40.0693Z" fill="#E6B4B6"/>
<path opacity="0.62" d="M119.337 40.3193H42.083C36.7244 40.3193 32.3403 43.2965 32.3403 46.9351V104.374C32.3403 108.012 36.7244 110.989 42.083 110.989H119.337C124.696 110.989 129.08 108.012 129.08 104.374V46.9351C129.08 43.2965 124.696 40.3193 119.337 40.3193Z" fill="#E7B5B7"/>
<path opacity="0.59" d="M119.064 40.5693H42.3561C37.0351 40.5693 32.6821 43.5253 32.6821 47.1381V104.171C32.6821 107.784 37.0351 110.74 42.3561 110.74H119.064C124.384 110.74 128.738 107.784 128.738 104.171V47.1381C128.738 43.5253 124.384 40.5693 119.064 40.5693Z" fill="#E8B7B8"/>
<path opacity="0.56" d="M118.791 40.8193H42.6296C37.3468 40.8193 33.0244 43.7542 33.0244 47.3411V103.967C33.0244 107.554 37.3468 110.489 42.6296 110.489H118.791C124.074 110.489 128.396 107.554 128.396 103.967V47.3411C128.396 43.7542 124.074 40.8193 118.791 40.8193H118.791Z" fill="#E9B8BA"/>
<path opacity="0.53" d="M118.518 41.0693H42.9031C37.6584 41.0693 33.3672 43.983 33.3672 47.5447V103.764C33.3672 107.325 37.6584 110.24 42.9031 110.24H118.518C123.762 110.24 128.054 107.326 128.054 103.764V47.5447C128.054 43.983 123.762 41.0693 118.518 41.0693Z" fill="#EAB9BB"/>
<path opacity="0.5" d="M118.244 41.3193H43.1762C37.9691 41.3193 33.709 44.2119 33.709 47.7477V103.561C33.709 107.097 37.9691 109.99 43.1762 109.99H118.244C123.451 109.99 127.712 107.097 127.712 103.561V47.7477C127.712 44.2119 123.451 41.3193 118.244 41.3193Z" fill="#ECBBBC"/>
<path opacity="0.47" d="M117.971 41.5688H43.4492C38.2803 41.5688 34.0508 44.4403 34.0508 47.9502V103.357C34.0508 106.867 38.2798 109.739 43.4492 109.739H117.971C123.14 109.739 127.37 106.867 127.37 103.357V47.9502C127.37 44.4403 123.141 41.5688 117.971 41.5688Z" fill="#EDBCBD"/>
<path opacity="0.44" d="M117.698 41.8193H43.7227C38.5914 41.8193 34.3936 44.6702 34.3936 48.1543V103.155C34.3936 106.639 38.592 109.49 43.7227 109.49H117.698C122.829 109.49 127.027 106.639 127.027 103.155V48.1543C127.027 44.6702 122.828 41.8193 117.698 41.8193Z" fill="#EEBDBE"/>
<path opacity="0.41" d="M117.424 42.0688H43.9957C38.9026 42.0688 34.7354 44.8985 34.7354 48.3568V102.951C34.7354 106.409 38.9026 109.239 43.9957 109.239H117.424C122.518 109.239 126.685 106.409 126.685 102.951V48.3568C126.685 44.8985 122.518 42.0688 117.424 42.0688Z" fill="#EFBEC0"/>
<path opacity="0.38" d="M117.151 42.3193H44.2693C39.2138 42.3193 35.0776 45.1279 35.0776 48.5603V102.749C35.0776 106.181 39.2138 108.99 44.2693 108.99H117.152C122.207 108.99 126.343 106.181 126.343 102.749V48.5603C126.343 45.1273 122.207 42.3193 117.152 42.3193H117.151Z" fill="#F0C0C1"/>
<path opacity="0.35" d="M116.878 42.5688H44.5428C39.5254 42.5688 35.4204 45.3562 35.4204 48.7634V102.545C35.4204 105.952 39.5254 108.74 44.5428 108.74H116.878C121.896 108.74 126.001 105.952 126.001 102.545V48.7634C126.001 45.3562 121.896 42.5688 116.878 42.5688Z" fill="#F1C1C2"/>
<path opacity="0.32" d="M116.605 42.8193H44.8158C39.8361 42.8193 35.7622 45.5856 35.7622 48.9669V102.342C35.7622 105.724 39.8361 108.49 44.8158 108.49H116.605C121.585 108.49 125.659 105.724 125.659 102.342V48.9669C125.659 45.5856 121.585 42.8193 116.605 42.8193Z" fill="#F2C2C3"/>
<path opacity="0.29" d="M116.332 43.0688H45.0889C40.1473 43.0688 36.104 45.814 36.104 49.1694V102.139C36.104 105.494 40.1473 108.239 45.0889 108.239H116.332C121.273 108.239 125.317 105.494 125.317 102.139V49.1694C125.317 45.814 121.273 43.0688 116.332 43.0688Z" fill="#F4C4C5"/>
<path opacity="0.26" d="M116.058 43.3188H45.3619C40.4579 43.3188 36.4463 46.0434 36.4463 49.373V101.936C36.4463 105.265 40.4585 107.99 45.3619 107.99H116.058C120.962 107.99 124.974 105.265 124.974 101.936V49.373C124.974 46.0434 120.962 43.3188 116.058 43.3188Z" fill="#F5C5C6"/>
<path opacity="0.24" d="M115.785 43.5688H45.6354C40.7697 43.5688 36.7886 46.2722 36.7886 49.576V101.732C36.7886 105.036 40.7697 107.74 45.6354 107.74H115.785C120.651 107.74 124.632 105.036 124.632 101.732V49.576C124.632 46.2722 120.651 43.5688 115.785 43.5688Z" fill="#F6C6C7"/>
<path opacity="0.21" d="M115.512 43.8188H45.909C41.0808 43.8188 37.1309 46.5011 37.1309 49.779V101.529C37.1309 104.808 41.0808 107.49 45.909 107.49H115.512C120.34 107.49 124.29 104.807 124.29 101.529V49.779C124.29 46.5005 120.34 43.8188 115.512 43.8188H115.512Z" fill="#F7C8C8"/>
<path opacity="0.18" d="M115.238 44.0684H46.1819C41.392 44.0684 37.4731 46.7295 37.4731 49.9821V101.326C37.4731 104.579 41.392 107.24 46.1819 107.24H115.238C120.028 107.24 123.948 104.579 123.948 101.326V49.9821C123.948 46.7295 120.029 44.0684 115.238 44.0684Z" fill="#F8C9CA"/>
<path opacity="0.15" d="M114.966 44.3188H46.4555C41.7037 44.3188 37.8154 46.9588 37.8154 50.1856V101.123C37.8154 104.35 41.7037 106.99 46.4555 106.99H114.966C119.718 106.99 123.606 104.35 123.606 101.123V50.1856C123.606 46.9588 119.717 44.3188 114.966 44.3188Z" fill="#F9CACB"/>
<path opacity="0.12" d="M114.692 44.5684H46.7286C42.0144 44.5684 38.1572 47.1872 38.1572 50.3881V100.919C38.1572 104.12 42.0144 106.739 46.7286 106.739H114.692C119.406 106.739 123.263 104.12 123.263 100.919V50.3881C123.263 47.1872 119.406 44.5684 114.692 44.5684H114.692Z" fill="#FACCCC"/>
<path opacity="0.09" d="M114.418 44.8188H47.0015C42.3255 44.8188 38.4995 47.4165 38.4995 50.5922V100.717C38.4995 103.892 42.3255 106.491 47.0015 106.491H114.418C119.095 106.491 122.921 103.893 122.921 100.717V50.5922C122.921 47.4171 119.095 44.8188 114.418 44.8188Z" fill="#FCCDCD"/>
<path opacity="0.06" d="M114.145 45.0684H47.2746C42.6362 45.0684 38.8413 47.6455 38.8413 50.7947V100.513C38.8413 103.662 42.6362 106.24 47.2746 106.24H114.145C118.784 106.24 122.578 103.662 122.578 100.513V50.7947C122.578 47.6449 118.784 45.0684 114.145 45.0684Z" fill="#FDCECF"/>
<path opacity="0.03" d="M113.872 45.3188H47.5486C42.9484 45.3188 39.1841 47.8748 39.1841 50.9982V100.31C39.1841 103.434 42.9478 105.99 47.5486 105.99H113.872C118.473 105.99 122.237 103.434 122.237 100.31V50.9982C122.237 47.8742 118.473 45.3188 113.872 45.3188Z" fill="#FED0D0"/>
</g>
<path d="M27.8896 44.1639L27.892 47.5299C29.2337 48.4122 30.8339 49.059 32.5492 49.3357L72.1785 57.2132C76.8709 57.9693 84.5499 57.9693 89.2424 57.2132L128.871 49.3357C130.586 49.059 132.187 48.4122 133.528 47.5299L133.526 44.1639C133.526 43.043 27.8896 43.043 27.8896 44.1639Z" fill="url(#paint2_radial_183_1850)"/>
<g style="mix-blend-mode:overlay">
<path d="M133.47 44.2291C132.003 45.9591 129.517 47.3278 126.709 47.7438L88.859 54.6538C84.3774 55.317 77.0432 55.317 72.5611 54.6538L34.7112 47.7438C31.9032 47.3278 29.4172 45.9591 27.9498 44.2291C27.9186 44.4318 27.8998 44.6368 27.8945 44.8436C29.3537 46.6047 31.8686 48.0022 34.7112 48.4234L72.5611 55.3335C77.0432 55.9967 84.3774 55.9967 88.859 55.3335L126.709 48.4234C129.551 48.0028 132.066 46.6047 133.526 44.8436C133.52 44.6362 133.501 44.4312 133.47 44.2285L133.47 44.2291Z" fill="#FEF3C1"/>
</g>
</g>
<path d="M127.64 62.5483C127.123 61.8992 126.687 61.1772 126.299 60.4711C125.245 58.5508 124.464 56.4895 123.659 54.4569C122.863 52.4443 122.077 50.4089 121.009 48.5208C120.135 46.9729 119.031 45.5278 117.361 44.8C116.83 44.5685 116.262 44.4904 115.692 44.4088C114.324 44.2131 112.913 44.2178 111.535 44.1791C109.685 44.1274 107.816 44.1415 105.967 44.2355C104.5 44.3101 102.991 44.3682 101.552 44.6995C106.642 44.6995 108.334 48.2489 108.334 48.2489C108.459 48.4615 108.578 48.6747 108.693 48.8868C109.735 50.8101 110.512 52.8702 111.316 54.901C112.047 56.7485 112.775 58.6142 113.723 60.3642C115.07 62.4561 116.591 64.1485 118.194 64.7306C118.58 64.8364 118.978 64.8928 119.376 64.9486C125.28 64.9486 127.641 62.5477 127.641 62.5477L127.64 62.5483Z" fill="url(#paint3_linear_183_1850)"/>
<path d="M132.482 57.5734C131.007 59.3481 129.529 61.2091 127.641 62.5484C127.641 62.5484 125.28 64.9493 119.376 64.9493C120.748 65.142 122.16 65.1408 123.54 65.179C125.461 65.2319 127.385 65.1849 129.305 65.1279C131.724 65.0556 134.245 64.9287 136.589 64.2637C139.094 63.5529 141.105 62.0115 142.835 60.1135C143.584 59.2911 145.001 57.574 145.001 57.574C144.567 57.0101 140.853 59.1636 137.968 59.2558C134.77 59.358 132.593 57.5059 132.482 57.574V57.5734Z" fill="url(#paint4_linear_183_1850)"/>
<path d="M101.555 44.6993C100.904 44.8485 100.269 45.0535 99.6577 45.3408C97.4959 46.3582 95.9151 48.0824 94.3725 49.8553C92.965 51.4719 91.5222 53.1238 89.5995 54.1354C89.102 54.375 88.5856 54.5677 88.0516 54.711C87.93 54.7439 87.8073 54.7721 87.6839 54.7992C87.5306 54.808 87.3778 54.8168 87.2245 54.8268C87.2874 54.8227 85.3911 54.8879 85.3911 55.1264C85.3911 55.3649 87.2874 55.4295 87.2245 55.4254C88.696 55.5247 90.1764 55.5552 91.6509 55.5493C94.2086 55.5393 96.7827 55.517 99.3128 55.1093C99.9179 55.0118 100.511 54.8444 101.081 54.6218C102.198 54.1853 103.216 53.5321 104.123 52.7531C105.688 51.4096 106.923 49.7419 108.335 48.248C108.335 48.248 106.644 44.6999 101.556 44.6987L101.555 44.6993Z" fill="url(#paint5_linear_183_1850)"/>
<path d="M62.445 51.5101C62.2917 51.4995 62.1384 51.4907 61.9851 51.4819C61.8864 51.4601 61.7877 51.4372 61.6896 51.4125C61.1315 51.2727 60.5905 51.0689 60.0724 50.8192C58.0868 49.7753 56.6147 48.05 55.162 46.3829C53.6111 44.6029 52.0062 42.9217 49.8204 41.9354C49.5507 41.8138 49.2746 41.708 48.9938 41.6152C49.0502 41.634 49.106 41.6528 49.1619 41.6722C42.7964 40.9814 40.4766 44.0807 40.4766 44.0807C41.3624 44.9061 42.1637 45.8325 42.9579 46.7447C44.4988 48.5141 46.0907 50.1924 48.2666 51.1693C48.8623 51.4366 49.4902 51.6264 50.1305 51.7521C52.71 52.2585 55.4052 52.222 58.0193 52.2326C59.4937 52.2385 60.9741 52.2079 62.4456 52.1087C62.3828 52.1128 64.279 52.0476 64.279 51.8097C64.279 51.5717 62.3828 51.5059 62.4456 51.5106L62.445 51.5101Z" fill="url(#paint6_linear_183_1850)"/>
<path d="M13.5625 70.1794C12.9821 69.4833 12.5321 66.9597 12.5198 66.0403C12.5168 65.8001 8.78718 67.8773 5.92929 67.8773C3.56191 67.8773 -0.0355682 65.8065 0.000265646 66.0403C0.826793 71.4495 4.83078 72.9992 6.46915 73.455C8.11633 73.9126 9.87101 73.9861 11.5664 74.0571C13.8215 74.1517 16.0955 74.1617 18.3513 74.0583C19.2025 74.0195 20.1107 74.0013 20.9566 73.868C21.843 73.7287 22.5697 73.529 23.3357 73.0456C17.9841 75.561 13.5619 70.1789 13.5619 70.1789L13.5625 70.1794Z" fill="url(#paint7_linear_183_1850)"/>
<path d="M49.1597 41.6724C49.1044 41.653 49.0498 41.6336 48.994 41.6154C49.0504 41.6342 49.1062 41.653 49.162 41.6724C49.1614 41.6724 49.1603 41.6724 49.1597 41.6724C49.3083 41.7247 49.4551 41.7805 49.6002 41.8404C47.6846 41.0438 45.4794 40.9781 43.4468 40.907C40.2611 40.7954 37.0296 40.7519 33.8551 41.0908C33.2888 41.1514 32.7166 41.2459 32.1674 41.4022C30.5449 41.8639 29.1286 42.9025 27.9555 44.0868C26.5685 45.4867 25.443 47.1356 24.4273 48.8163C23.2595 50.7489 22.2391 52.7691 21.2639 54.8046C19.3189 58.8638 17.6112 63.0452 15.4777 67.0122C14.8937 68.0972 14.2716 69.1699 13.562 70.1791C13.562 70.1791 17.9843 75.5612 23.3358 73.0458C24.5812 72.2604 25.5199 71.0232 26.33 69.8184C27.4244 68.19 28.3296 66.4359 29.192 64.6759C31.2169 60.5451 32.9716 56.2855 35.0764 52.1929C36.0627 50.2749 37.1254 48.3857 38.376 46.6251C39.0099 45.7322 39.7013 44.8628 40.4767 44.0809C40.4767 44.0809 42.7959 40.9822 49.1597 41.6724Z" fill="url(#paint8_linear_183_1850)"/>
<path d="M49.6206 41.8491C49.6876 41.8773 49.7545 41.9061 49.8203 41.9361C49.754 41.9061 49.6876 41.8773 49.6206 41.8491Z" fill="url(#paint9_linear_183_1850)"/>
<path opacity="0.02" d="M46.0481 24.8798C43.4734 21.8498 42.0712 22.762 40.8933 22.5606C39.7155 22.3591 37.5896 19.5781 37.5896 19.5781C37.5896 19.5781 35.9459 23.3154 35.5253 24.0409C35.1047 24.7664 34.9038 26.9846 34.9038 26.9846C37.458 30.6942 39.8759 30.6531 41.6529 31.7828C43.4534 32.9271 44.1008 34.1061 44.1008 34.1061C44.0144 33.3724 46.0469 24.8798 46.0469 24.8798H46.0481Z" fill="url(#paint10_linear_183_1850)"/>
<path opacity="0.04" d="M46.0353 24.9178C43.4605 21.8878 42.0642 22.7918 40.8864 22.5903C39.7085 22.3888 37.5826 19.6079 37.5826 19.6079C37.5826 19.6079 35.9648 23.2994 35.5442 24.0249C35.1271 24.7445 34.915 26.9315 34.915 26.9315C37.4692 30.6412 39.8871 30.6001 41.6641 31.7297C43.4411 32.8594 44.112 34.053 44.112 34.053C44.0256 33.3193 46.0347 24.9172 46.0347 24.9172L46.0353 24.9178Z" fill="url(#paint11_linear_183_1850)"/>
<path opacity="0.05" d="M46.022 24.9553C43.4473 21.9253 42.0568 22.8211 40.879 22.6196C39.7012 22.4181 37.5752 19.6372 37.5752 19.6372C37.5752 19.6372 35.9833 23.2829 35.5627 24.0083C35.1456 24.728 34.9253 26.8786 34.9253 26.8786C37.4795 30.5883 39.8974 30.5471 41.6744 31.6768C43.4743 32.8211 44.1222 34.0001 44.1222 34.0001C44.0359 33.2664 46.0214 24.9553 46.0214 24.9553H46.022Z" fill="url(#paint12_linear_183_1850)"/>
<path opacity="0.07" d="M46.0098 24.9928C43.435 21.9628 42.0504 22.8504 40.8726 22.6489C39.6948 22.4474 37.5688 19.6665 37.5688 19.6665C37.5688 19.6665 36.0027 23.2663 35.5821 23.9918C35.165 24.7114 34.9365 26.825 34.9365 26.825C37.4907 30.5347 39.9086 30.4936 41.6856 31.6232C43.4626 32.7529 44.1335 33.9466 44.1335 33.9466C44.0471 33.2129 46.0086 24.9928 46.0086 24.9928H46.0098Z" fill="url(#paint13_linear_183_1850)"/>
<path opacity="0.09" d="M45.997 25.0302C43.4223 22.0002 42.0435 22.8796 40.8657 22.6787C39.7067 22.4808 37.562 19.6963 37.562 19.6963C37.562 19.6963 36.0217 23.2503 35.6011 23.9758C35.184 24.6954 34.9473 26.772 34.9473 26.772C37.5015 30.4817 39.9193 30.4406 41.6964 31.5702C43.4734 32.6998 44.1442 33.8935 44.1442 33.8935C44.0579 33.1598 45.9958 25.0308 45.9958 25.0308L45.997 25.0302Z" fill="url(#paint14_linear_183_1850)"/>
<path opacity="0.11" d="M45.984 25.0678C43.4093 22.0377 42.037 22.9089 40.8592 22.708C39.7002 22.51 37.5555 19.7256 37.5555 19.7256C37.5555 19.7256 36.041 23.2332 35.6204 23.9593C35.2034 24.6789 34.959 26.7185 34.959 26.7185C37.5132 30.4281 39.9311 30.387 41.7081 31.5167C43.4851 32.6463 44.1559 33.84 44.1559 33.84C44.0696 33.1063 45.984 25.0683 45.984 25.0683V25.0678Z" fill="url(#paint15_linear_183_1850)"/>
<path opacity="0.13" d="M45.9718 25.1053C43.397 22.0753 42.0306 22.9382 40.8528 22.7373C39.675 22.5364 37.5491 19.7549 37.5491 19.7549C37.5491 19.7549 36.0611 23.2167 35.6399 23.9427C35.2228 24.6623 34.9702 26.6649 34.9702 26.6649C37.5244 30.3746 39.9423 30.3335 41.7193 31.4631C43.5192 32.6075 44.1672 33.7865 44.1672 33.7865C44.0808 33.0527 45.9712 25.1053 45.9712 25.1053H45.9718Z" fill="url(#paint16_linear_183_1850)"/>
<path opacity="0.14" d="M45.9585 25.1438C43.3838 22.1138 42.0233 22.9691 40.8455 22.7676C39.6864 22.5696 37.5417 19.7852 37.5417 19.7852C37.5417 19.7852 36.0796 23.2011 35.6584 23.9266C35.2372 24.6521 34.9805 26.6124 34.9805 26.6124C37.5347 30.3221 39.9526 30.2809 41.7296 31.4106C43.5295 32.5549 44.1774 33.7339 44.1774 33.7339C44.0911 33.0002 45.958 25.1438 45.958 25.1438H45.9585Z" fill="url(#paint17_linear_183_1850)"/>
<path opacity="0.16" d="M45.9457 25.1813C43.3709 22.1513 42.0163 22.9984 40.8385 22.7969C39.6795 22.5989 37.5347 19.8145 37.5347 19.8145C37.5347 19.8145 36.0984 23.1846 35.6772 23.9101C35.256 24.6356 34.9917 26.5588 34.9917 26.5588C37.5459 30.2685 39.9638 30.2274 41.7408 31.357C43.5407 32.5014 44.1886 33.6804 44.1886 33.6804C44.1023 32.9467 45.9457 25.1813 45.9457 25.1813Z" fill="url(#paint18_linear_183_1850)"/>
<path opacity="0.18" d="M45.9334 25.2188C43.3587 22.1888 42.0099 23.0277 40.8321 22.8262C39.6731 22.6282 37.5283 19.8438 37.5283 19.8438C37.5283 19.8438 36.1179 23.1681 35.6967 23.8936C35.2755 24.619 35.0029 26.5053 35.0029 26.5053C37.5571 30.215 39.975 30.1739 41.752 31.3035C43.5519 32.4478 44.1999 33.6268 44.1999 33.6268C44.1135 32.8931 45.9328 25.2188 45.9328 25.2188H45.9334Z" fill="url(#paint19_linear_183_1850)"/>
<path opacity="0.2" d="M45.9207 25.2563C43.3459 22.2263 42.003 23.057 40.8252 22.8555C39.6662 22.6575 37.5214 19.873 37.5214 19.873C37.5214 19.873 36.1369 23.1515 35.7157 23.877C35.2986 24.5966 35.0137 26.4518 35.0137 26.4518C37.5679 30.1615 39.9858 30.1198 41.7628 31.25C43.5627 32.3943 44.2106 33.5733 44.2106 33.5733C44.1243 32.8396 45.9201 25.2558 45.9201 25.2558L45.9207 25.2563Z" fill="url(#paint20_linear_183_1850)"/>
<path opacity="0.21" d="M45.9074 25.2943C43.3327 22.2642 41.9957 23.0867 40.8178 22.8857C39.64 22.6848 37.5141 19.9033 37.5141 19.9033C37.5141 19.9033 36.1553 23.136 35.7341 23.8615C35.3129 24.587 35.0239 26.3998 35.0239 26.3998C37.5781 30.1095 39.996 30.0678 41.773 31.198C43.5729 32.3423 44.2209 33.5213 44.2209 33.5213C44.1345 32.7876 45.9068 25.2948 45.9068 25.2948L45.9074 25.2943Z" fill="url(#paint21_linear_183_1850)"/>
<path opacity="0.23" d="M45.8946 25.3318C43.3198 22.3018 41.9887 23.116 40.8109 22.915C39.6518 22.7171 37.5071 19.9326 37.5071 19.9326C37.5071 19.9326 36.1742 23.1195 35.753 23.845C35.3318 24.5705 35.0352 26.3463 35.0352 26.3463C37.5893 30.056 40.0072 30.0142 41.7842 31.1445C43.5842 32.2888 44.2321 33.4678 44.2321 33.4678C44.1458 32.7341 45.894 25.3324 45.894 25.3324L45.8946 25.3318Z" fill="url(#paint22_linear_183_1850)"/>
<path opacity="0.25" d="M45.8823 25.3698C43.3075 22.3398 41.9823 23.1457 40.8045 22.9448C39.6454 22.7469 37.5007 19.9624 37.5007 19.9624C37.5007 19.9624 36.1937 23.1034 35.7725 23.8289C35.3513 24.5544 35.0464 26.2932 35.0464 26.2932C37.6006 30.0029 40.0185 29.9612 41.7955 31.0914C43.5954 32.2358 44.2433 33.4148 44.2433 33.4148C44.157 32.6811 45.8817 25.3704 45.8817 25.3704L45.8823 25.3698Z" fill="url(#paint23_linear_183_1850)"/>
<path opacity="0.27" d="M45.8695 25.4073C43.2948 22.3773 41.9754 23.175 40.7976 22.9741C39.6386 22.7762 37.4938 19.9917 37.4938 19.9917C37.4938 19.9917 36.2126 23.0863 35.7914 23.8124C35.3743 24.532 35.0571 26.2397 35.0571 26.2397C37.6113 29.9494 40.0292 29.9077 41.8062 31.0379C43.6061 32.1822 44.2541 33.3612 44.2541 33.3612C44.1677 32.6275 45.8689 25.4073 45.8689 25.4073H45.8695Z" fill="url(#paint24_linear_183_1850)"/>
<path opacity="0.29" d="M45.8567 25.4448C43.2819 22.4148 41.9684 23.2049 40.7906 23.0034C39.6316 22.8055 37.4868 20.021 37.4868 20.021C37.4868 20.021 36.2315 23.0698 35.8103 23.7959C35.3891 24.522 35.0684 26.1862 35.0684 26.1862C37.6225 29.8959 40.0404 29.8541 41.8174 30.9844C43.6174 32.1287 44.2653 33.3077 44.2653 33.3077C44.179 32.574 45.8561 25.4448 45.8561 25.4448H45.8567Z" fill="url(#paint25_linear_183_1850)"/>
<path opacity="0.3" d="M45.8444 25.4828C43.2697 22.4528 41.962 23.2347 40.7842 23.0332C39.6252 22.8352 37.4805 20.0508 37.4805 20.0508C37.4805 20.0508 36.2509 23.0538 35.8297 23.7793C35.4127 24.4989 35.0796 26.1331 35.0796 26.1331C37.6338 29.8428 40.0517 29.8011 41.8287 30.9313C43.6286 32.0757 44.2765 33.2547 44.2765 33.2547C44.1902 32.5209 45.8438 25.4828 45.8438 25.4828H45.8444Z" fill="url(#paint26_linear_183_1850)"/>
<path opacity="0.32" d="M45.8312 25.5204C43.2564 22.4903 41.9547 23.264 40.7768 23.0625C39.6178 22.8645 37.4731 20.0801 37.4731 20.0801C37.4731 20.0801 36.2694 23.0372 35.8482 23.7627C35.4311 24.4823 35.0898 26.0796 35.0898 26.0796C37.644 29.7893 40.0619 29.7476 41.8389 30.8778C43.6388 32.0221 44.2868 33.2011 44.2868 33.2011C44.2004 32.4674 45.8306 25.5204 45.8306 25.5204H45.8312Z" fill="url(#paint27_linear_183_1850)"/>
<path opacity="0.34" d="M45.8184 25.5579C43.2437 22.5279 41.9478 23.2933 40.77 23.0918C39.6109 22.8938 37.4662 20.1094 37.4662 20.1094C37.4662 20.1094 36.2884 23.0207 35.8672 23.7462C35.4501 24.4658 35.1006 26.0261 35.1006 26.0261C37.6548 29.7357 40.0727 29.694 41.8497 30.8243C43.6496 31.9686 44.2975 33.1476 44.2975 33.1476C44.2112 32.4139 45.8172 25.5573 45.8172 25.5573L45.8184 25.5579Z" fill="url(#paint28_linear_183_1850)"/>
<path opacity="0.36" d="M45.806 25.5958C43.2313 22.5658 41.9413 23.323 40.7635 23.1221C39.6045 22.9241 37.4597 20.1396 37.4597 20.1396C37.4597 20.1396 36.3077 23.0052 35.8865 23.7307C35.4695 24.4503 35.1123 25.9735 35.1123 25.9735C37.6665 29.6832 40.0844 29.6415 41.8614 30.7717C43.6613 31.916 44.3093 33.095 44.3093 33.095C44.2229 32.3613 45.8055 25.5958 45.8055 25.5958H45.806Z" fill="url(#paint29_linear_183_1850)"/>
<path opacity="0.38" d="M45.7933 25.6338C43.2185 22.6038 41.9344 23.3528 40.7566 23.1519C39.5976 22.9539 37.4528 20.1694 37.4528 20.1694C37.4528 20.1694 36.3267 22.9891 35.9055 23.7146C35.4884 24.4342 35.123 25.9205 35.123 25.9205C37.6772 29.6301 40.0951 29.5884 41.8721 30.7187C43.6721 31.863 44.32 33.042 44.32 33.042C44.2336 32.3083 45.7927 25.6338 45.7927 25.6338H45.7933Z" fill="url(#paint30_linear_183_1850)"/>
<path opacity="0.39" d="M45.7801 25.6713C43.2053 22.6413 41.927 23.3821 40.7492 23.1812C39.5902 22.9832 37.4455 20.1987 37.4455 20.1987C37.4455 20.1987 36.3452 22.9726 35.924 23.6981C35.5028 24.4236 35.1333 25.8675 35.1333 25.8675C37.6875 29.5772 40.1054 29.5355 41.8824 30.6657C43.6823 31.8101 44.3303 32.989 44.3303 32.989C44.2439 32.2553 45.7789 25.6719 45.7789 25.6719L45.7801 25.6713Z" fill="url(#paint31_linear_183_1850)"/>
<path opacity="0.41" d="M45.7677 25.7088C43.1929 22.6788 41.9205 23.4119 40.7427 23.2105C39.5837 23.0125 37.439 20.228 37.439 20.228C37.439 20.228 36.3645 22.9561 35.9433 23.6816C35.5263 24.4012 35.145 25.814 35.145 25.814C37.6992 29.5237 40.1171 29.482 41.8941 30.6122C43.694 31.7565 44.342 32.9355 44.342 32.9355C44.2556 32.2018 45.7671 25.7094 45.7671 25.7094L45.7677 25.7088Z" fill="url(#paint32_linear_183_1850)"/>
<path opacity="0.43" d="M45.7549 25.7464C43.1802 22.7163 41.9137 23.4412 40.7358 23.2398C39.5768 23.0418 37.4321 20.2573 37.4321 20.2573C37.4321 20.2573 36.3835 22.939 35.9623 23.6651C35.5452 24.3847 35.1558 25.7605 35.1558 25.7605C37.7099 29.4701 40.1278 29.4284 41.9049 30.5587C43.7048 31.703 44.3527 32.882 44.3527 32.882C44.2664 32.1483 45.7543 25.7464 45.7543 25.7464H45.7549Z" fill="url(#paint33_linear_183_1850)"/>
<path opacity="0.45" d="M45.7422 25.7839C43.1674 22.7539 41.9068 23.4705 40.729 23.269C39.5512 23.0676 37.4252 20.2866 37.4252 20.2866C37.4252 20.2866 36.4025 22.9225 35.9813 23.6485C35.5642 24.3682 35.1665 25.7069 35.1665 25.7069C37.7207 29.4166 40.1386 29.3749 41.9156 30.5051C43.7155 31.6495 44.3635 32.8285 44.3635 32.8285C44.2771 32.0947 45.741 25.7839 45.741 25.7839H45.7422Z" fill="url(#paint34_linear_183_1850)"/>
<path opacity="0.46" d="M45.7294 25.8214C43.1547 22.7914 41.8999 23.4998 40.7221 23.2983C39.5631 23.1004 37.4183 20.3159 37.4183 20.3159C37.4183 20.3159 36.4214 22.9059 36.0002 23.6314C35.5832 24.351 35.1772 25.6528 35.1772 25.6528C37.7314 29.3625 40.1493 29.3208 41.9263 30.451C43.7263 31.5953 44.3742 32.7743 44.3742 32.7743C44.2878 32.0406 45.7282 25.8208 45.7282 25.8208L45.7294 25.8214Z" fill="url(#paint35_linear_183_1850)"/>
<path opacity="0.48" d="M45.7166 25.8598C43.1418 22.8298 41.8929 23.53 40.7151 23.3291C39.5561 23.1311 37.4113 20.3467 37.4113 20.3467C37.4113 20.3467 36.4403 22.8909 36.0191 23.6164C35.5979 24.3419 35.1885 25.6013 35.1885 25.6013C37.7427 29.311 40.1606 29.2693 41.9376 30.3995C43.7146 31.5298 44.3854 32.7229 44.3854 32.7229C44.2991 31.9891 45.716 25.8604 45.716 25.8604L45.7166 25.8598Z" fill="url(#paint36_linear_183_1850)"/>
<path opacity="0.5" d="M45.7038 25.8973C43.1291 22.8673 41.886 23.5593 40.7082 23.3584C39.5492 23.1604 37.4045 20.376 37.4045 20.376C37.4045 20.376 36.4593 22.8744 36.0381 23.5998C35.621 24.3195 35.1992 25.5478 35.1992 25.5478C37.7534 29.2575 40.1713 29.2158 41.9483 30.346C43.7482 31.4903 44.3962 32.6693 44.3962 32.6693C44.3098 31.9356 45.7026 25.8973 45.7026 25.8973H45.7038Z" fill="url(#paint37_linear_183_1850)"/>
<path opacity="0.52" d="M45.6911 25.9348C43.1163 22.9048 41.8792 23.5886 40.7013 23.3877C39.5235 23.1868 37.3976 20.4053 37.3976 20.4053C37.3976 20.4053 36.4782 22.8578 36.057 23.5833C35.6359 24.3088 35.21 25.4943 35.21 25.4943C37.7641 29.2039 40.182 29.1622 41.9591 30.2925C43.759 31.4368 44.4069 32.6158 44.4069 32.6158C44.3206 31.8821 45.6899 25.9348 45.6899 25.9348H45.6911Z" fill="url(#paint38_linear_183_1850)"/>
<path opacity="0.54" d="M45.6787 25.9724C43.1039 22.9423 41.8727 23.6179 40.6949 23.417C39.5358 23.219 37.3911 20.4346 37.3911 20.4346C37.3911 20.4346 36.4976 22.8413 36.0764 23.5668C35.6593 24.2864 35.2217 25.4407 35.2217 25.4407C37.7759 29.1504 40.1938 29.1087 41.9708 30.2389C43.7707 31.3833 44.4186 32.5623 44.4186 32.5623C44.3323 31.8285 45.6781 25.9724 45.6781 25.9724H45.6787Z" fill="url(#paint39_linear_183_1850)"/>
<path opacity="0.55" d="M45.6654 26.0104C43.0907 22.9804 41.8653 23.6483 40.6875 23.4468C39.5285 23.2488 37.3837 20.4644 37.3837 20.4644C37.3837 20.4644 36.5161 22.8253 36.0949 23.5508C35.6778 24.2704 35.2319 25.3877 35.2319 25.3877C37.7861 29.0974 40.204 29.0557 41.981 30.1859C43.7809 31.3302 44.4289 32.5092 44.4289 32.5092C44.3425 31.7755 45.6643 26.0104 45.6643 26.0104H45.6654Z" fill="url(#paint40_linear_183_1850)"/>
<path opacity="0.57" d="M45.6527 26.0479C43.0779 23.0179 41.8584 23.6776 40.6806 23.4761C39.5216 23.2781 37.3768 20.4937 37.3768 20.4937C37.3768 20.4937 36.535 22.8088 36.1138 23.5342C35.6968 24.2539 35.2427 25.3347 35.2427 25.3347C37.7969 29.0444 40.2148 29.0027 41.9918 30.1329C43.7917 31.2773 44.4396 32.4563 44.4396 32.4563C44.3533 31.7226 45.6515 26.0479 45.6515 26.0479H45.6527Z" fill="url(#paint41_linear_183_1850)"/>
<path opacity="0.59" d="M45.6404 26.0859C43.0657 23.0559 41.852 23.7074 40.6742 23.5059C39.4964 23.3044 37.3705 20.5234 37.3705 20.5234C37.3705 20.5234 36.5545 22.7921 36.1333 23.5182C35.7121 24.2443 35.2539 25.2817 35.2539 25.2817C37.8081 28.9914 40.226 28.9497 42.003 30.0799C43.8029 31.2242 44.4509 32.4032 44.4509 32.4032C44.3645 31.6695 45.6392 26.0859 45.6392 26.0859H45.6404Z" fill="url(#paint42_linear_183_1850)"/>
<path opacity="0.61" d="M45.6276 26.1233C43.0528 23.0933 41.8456 23.7366 40.6672 23.5357C39.5082 23.3377 37.3635 20.5532 37.3635 20.5532C37.3635 20.5532 36.5734 22.7761 36.1522 23.5022C35.7351 24.2218 35.2651 25.2287 35.2651 25.2287C37.8193 28.9383 40.2372 28.8966 42.0142 30.0269C43.8141 31.1712 44.4621 32.3502 44.4621 32.3502C44.3757 31.6165 45.6264 26.1239 45.6264 26.1239L45.6276 26.1233Z" fill="url(#paint43_linear_183_1850)"/>
<path opacity="0.62" d="M45.6143 26.1613C43.0396 23.1313 41.8383 23.7663 40.6599 23.5654C39.4815 23.3645 37.3561 20.583 37.3561 20.583C37.3561 20.583 36.5918 22.7601 36.1706 23.4855C35.7536 24.2052 35.2754 25.175 35.2754 25.175C37.8296 28.8847 40.2475 28.843 42.0245 29.9732C43.8244 31.1176 44.4723 32.2965 44.4723 32.2965C44.386 31.5628 45.6131 26.1613 45.6131 26.1613H45.6143Z" fill="url(#paint44_linear_183_1850)"/>
<path opacity="0.64" d="M45.6023 26.1989C43.0276 23.1688 41.8322 23.7956 40.6543 23.5947C39.4953 23.3968 37.3506 20.6123 37.3506 20.6123C37.3506 20.6123 36.6122 22.7435 36.1916 23.469C35.771 24.1945 35.2881 25.1215 35.2881 25.1215C37.8423 28.8312 40.2602 28.7895 42.0372 29.9197C43.8371 31.064 44.485 32.243 44.485 32.243C44.3987 31.5093 45.6023 26.1983 45.6023 26.1983V26.1989Z" fill="url(#paint45_linear_183_1850)"/>
<path opacity="0.66" d="M45.5895 26.2364C43.0147 23.2064 41.8252 23.8249 40.6474 23.624C39.4883 23.4261 37.3436 20.6416 37.3436 20.6416C37.3436 20.6416 36.631 22.727 36.2104 23.4525C35.7934 24.1721 35.2993 25.0685 35.2993 25.0685C37.8535 28.7782 40.2714 28.7365 42.0484 29.8667C43.8483 31.0111 44.4963 32.1901 44.4963 32.1901C44.4099 31.4564 45.5895 26.2364 45.5895 26.2364Z" fill="url(#paint46_linear_183_1850)"/>
<path opacity="0.68" d="M45.5762 26.2739C43.0015 23.2439 41.8178 23.8548 40.64 23.6533C39.481 23.4554 37.3362 20.6709 37.3362 20.6709C37.3362 20.6709 36.6495 22.7105 36.2289 23.436C35.8118 24.1556 35.3096 25.015 35.3096 25.015C37.8638 28.7247 40.2817 28.683 42.0587 29.8132C43.8586 30.9575 44.5065 32.1365 44.5065 32.1365C44.4202 31.4028 45.5762 26.2739 45.5762 26.2739Z" fill="url(#paint47_linear_183_1850)"/>
<path opacity="0.7" d="M45.564 26.3119C42.9892 23.2819 41.8114 23.8846 40.6336 23.6831C39.4746 23.4851 37.3298 20.7007 37.3298 20.7007C37.3298 20.7007 36.669 22.6945 36.2484 23.4199C35.8313 24.1396 35.3208 24.962 35.3208 24.962C37.875 28.6716 40.2929 28.6299 42.0699 29.7602C43.8698 30.9045 44.5178 32.0835 44.5178 32.0835C44.4314 31.3498 45.564 26.3119 45.564 26.3119Z" fill="url(#paint48_linear_183_1850)"/>
<path opacity="0.71" d="M45.5511 26.3499C42.9764 23.3199 41.8044 23.9144 40.6266 23.7129C39.4676 23.5149 37.3229 20.7305 37.3229 20.7305C37.3229 20.7305 36.6878 22.6784 36.2672 23.4039C35.8466 24.1294 35.332 24.9089 35.332 24.9089C37.8862 28.6186 40.3041 28.5769 42.0811 29.7071C43.881 30.8515 44.529 32.0305 44.529 32.0305C44.4426 31.2967 45.5511 26.3499 45.5511 26.3499Z" fill="url(#paint49_linear_183_1850)"/>
<path opacity="0.73" d="M45.5384 26.3874C42.9636 23.3574 41.7976 23.9437 40.6197 23.7422C39.4607 23.5442 37.316 20.7598 37.316 20.7598C37.316 20.7598 36.7068 22.6619 36.2862 23.3874C35.8691 24.107 35.3428 24.8554 35.3428 24.8554C37.897 28.5651 40.3149 28.5234 42.0919 29.6536C43.8918 30.7979 44.5397 31.9769 44.5397 31.9769C44.4534 31.2432 45.5384 26.3868 45.5384 26.3868V26.3874Z" fill="url(#paint50_linear_183_1850)"/>
<path opacity="0.75" d="M45.5256 26.4249C42.9509 23.3948 41.7907 23.9729 40.6129 23.772C39.435 23.5711 37.3091 20.7896 37.3091 20.7896C37.3091 20.7896 36.7258 22.6453 36.3052 23.3713C35.8881 24.091 35.3535 24.8029 35.3535 24.8029C37.9077 28.5126 40.3256 28.4709 42.1026 29.6011C43.9025 30.7455 44.5505 31.9245 44.5505 31.9245C44.4641 31.1908 45.5256 26.4254 45.5256 26.4254V26.4249Z" fill="url(#paint51_linear_183_1850)"/>
<path opacity="0.77" d="M45.5129 26.4624C42.9381 23.4324 41.7838 24.0022 40.606 23.8013C39.447 23.6033 37.3022 20.8188 37.3022 20.8188C37.3022 20.8188 36.7447 22.6287 36.3241 23.3548C35.9071 24.0744 35.3643 24.7494 35.3643 24.7494C37.9184 28.4591 40.3363 28.4174 42.1133 29.5476C43.9133 30.6919 44.5612 31.8709 44.5612 31.8709C44.4749 31.1372 45.5123 26.463 45.5123 26.463L45.5129 26.4624Z" fill="url(#paint52_linear_183_1850)"/>
<path opacity="0.79" d="M45.5 26.4999C42.9253 23.4699 41.7768 24.0315 40.599 23.8306C39.44 23.6326 37.2952 20.8481 37.2952 20.8481C37.2952 20.8481 36.7636 22.6122 36.343 23.3377C35.9259 24.0573 35.3755 24.6953 35.3755 24.6953C37.9297 28.405 40.3476 28.3633 42.1246 29.4935C43.9245 30.6378 44.5724 31.8168 44.5724 31.8168C44.4861 31.0831 45.5 26.4999 45.5 26.4999Z" fill="url(#paint53_linear_183_1850)"/>
<path opacity="0.8" d="M45.4877 26.5379C42.913 23.5079 41.7704 24.0619 40.5926 23.8604C39.4336 23.6624 37.2888 20.8779 37.2888 20.8779C37.2888 20.8779 36.7831 22.5962 36.3625 23.3217C35.9454 24.0413 35.3867 24.6422 35.3867 24.6422C37.9409 28.3519 40.3588 28.3102 42.1358 29.4404C43.9357 30.5848 44.5837 31.7638 44.5837 31.7638C44.4973 31.0301 45.4877 26.5373 45.4877 26.5373V26.5379Z" fill="url(#paint54_linear_183_1850)"/>
<path opacity="0.82" d="M45.4745 26.5759C42.8997 23.5459 41.7631 24.0916 40.5852 23.8901C39.4262 23.6922 37.2815 20.9077 37.2815 20.9077C37.2815 20.9077 36.8015 22.5802 36.3809 23.3056C35.9603 24.0311 35.397 24.5898 35.397 24.5898C37.9512 28.2995 40.3691 28.2578 42.1461 29.388C43.946 30.5323 44.5939 31.7113 44.5939 31.7113C44.5076 30.9776 45.4739 26.5759 45.4739 26.5759H45.4745Z" fill="url(#paint55_linear_183_1850)"/>
<path opacity="0.84" d="M45.4616 26.6134C42.8869 23.5834 41.7561 24.1209 40.5783 23.9194C39.4192 23.7215 37.2745 20.937 37.2745 20.937C37.2745 20.937 36.8204 22.5636 36.3998 23.2891C35.9792 24.0146 35.4082 24.5363 35.4082 24.5363C37.9624 28.2459 40.3803 28.2042 42.1573 29.3345C43.9572 30.4788 44.6052 31.6578 44.6052 31.6578C44.5188 30.9241 45.4616 26.6134 45.4616 26.6134Z" fill="url(#paint56_linear_183_1850)"/>
<path opacity="0.86" d="M45.4489 26.651C42.8741 23.6209 41.7492 24.1502 40.5714 23.9487C39.4124 23.7508 37.2676 20.9663 37.2676 20.9663C37.2676 20.9663 36.8394 22.5471 36.4188 23.2726C36.0017 23.9922 35.4189 24.4827 35.4189 24.4827C37.9731 28.1924 40.391 28.1507 42.168 29.2809C43.9679 30.4253 44.6159 31.6042 44.6159 31.6042C44.5295 30.8705 45.4489 26.651 45.4489 26.651Z" fill="url(#paint57_linear_183_1850)"/>
<path opacity="0.87" d="M45.4366 26.6889C42.8619 23.6589 41.7428 24.1799 40.565 23.979C39.406 23.781 37.2612 20.9966 37.2612 20.9966C37.2612 20.9966 36.8588 22.5316 36.4382 23.257C36.0211 23.9767 35.4302 24.4302 35.4302 24.4302C37.9844 28.1398 40.4023 28.0981 42.1793 29.2284C43.9792 30.3727 44.6271 31.5517 44.6271 31.5517C44.5408 30.818 45.436 26.6889 45.436 26.6889H45.4366Z" fill="url(#paint58_linear_183_1850)"/>
<path opacity="0.89" d="M45.4234 26.7264C42.8486 23.6964 41.7354 24.2092 40.5576 24.0083C39.3986 23.8103 37.2539 21.0259 37.2539 21.0259C37.2539 21.0259 36.8773 22.515 36.4567 23.2405C36.0396 23.9601 35.4404 24.3766 35.4404 24.3766C37.9946 28.0863 40.4125 28.0446 42.1895 29.1748C43.9894 30.3192 44.6374 31.4982 44.6374 31.4982C44.551 30.7644 45.4228 26.7264 45.4228 26.7264H45.4234Z" fill="url(#paint59_linear_183_1850)"/>
<path opacity="0.91" d="M45.4105 26.7639C42.8358 23.7339 41.7284 24.2385 40.5506 24.0376C39.3728 23.8367 37.2469 21.0552 37.2469 21.0552C37.2469 21.0552 36.8962 22.4979 36.4756 23.224C36.0585 23.9436 35.4517 24.3237 35.4517 24.3237C38.0058 28.0334 40.4237 27.9917 42.2008 29.1219C43.9778 30.2521 44.6486 31.4452 44.6486 31.4452C44.5623 30.7115 45.4105 26.7645 45.4105 26.7645V26.7639Z" fill="url(#paint60_linear_183_1850)"/>
<path opacity="0.93" d="M45.3983 26.8019C42.8235 23.7719 41.7221 24.2683 40.5442 24.0674C39.3852 23.8694 37.2405 21.085 37.2405 21.085C37.2405 21.085 36.9156 22.4819 36.495 23.208C36.0744 23.934 35.4629 24.2706 35.4629 24.2706C38.0171 27.9803 40.435 27.9386 42.212 29.0688C44.0119 30.2132 44.6598 31.3922 44.6598 31.3922C44.5735 30.6585 45.3977 26.8025 45.3977 26.8025L45.3983 26.8019Z" fill="url(#paint61_linear_183_1850)"/>
<path opacity="0.95" d="M45.3855 26.8394C42.8108 23.8094 41.7152 24.2982 40.5374 24.0967C39.3783 23.8987 37.2336 21.1143 37.2336 21.1143C37.2336 21.1143 36.9346 22.4654 36.514 23.1909C36.0969 23.9105 35.4736 24.2165 35.4736 24.2165C38.0278 27.9262 40.4457 27.8845 42.2227 29.0147C44.0226 30.1591 44.6706 31.338 44.6706 31.338C44.5842 30.6043 45.3849 26.8394 45.3849 26.8394H45.3855Z" fill="url(#paint62_linear_183_1850)"/>
<path opacity="0.96" d="M45.3726 26.8775C42.7979 23.8474 41.7082 24.328 40.5304 24.1265C39.3714 23.9285 37.2266 21.144 37.2266 21.144C37.2266 21.144 36.9535 22.4493 36.5329 23.1748C36.1158 23.8944 35.4849 24.1635 35.4849 24.1635C38.039 27.8732 40.457 27.8315 42.234 28.9617C44.0339 30.106 44.6818 31.285 44.6818 31.285C44.5955 30.5513 45.3726 26.8769 45.3726 26.8769V26.8775Z" fill="url(#paint63_linear_183_1850)"/>
<path opacity="0.98" d="M45.3604 26.915C42.7856 23.885 41.7018 24.3573 40.524 24.1558C39.365 23.9578 37.2202 21.1733 37.2202 21.1733C37.2202 21.1733 36.9729 22.4328 36.5523 23.1583C36.1352 23.8779 35.4961 24.11 35.4961 24.11C38.0503 27.8196 40.4682 27.7779 42.2452 28.9082C44.0451 30.0525 44.693 31.2315 44.693 31.2315C44.6067 30.4978 45.3598 26.9144 45.3598 26.9144L45.3604 26.915Z" fill="url(#paint64_linear_183_1850)"/>
<path d="M45.3471 26.9524C42.7724 23.9224 41.6933 24.3929 40.5166 24.1856C39.3564 23.994 37.2129 21.2031 37.2129 21.2031C37.2129 21.2031 37.0055 22.425 36.5708 23.1423C36.1678 23.8701 35.5063 24.0575 35.5063 24.0575C38.0605 27.7672 40.4814 27.7214 42.2554 28.8557C44.0583 29.9959 44.7033 31.179 44.7033 31.179C44.6169 30.4453 45.3465 26.953 45.3465 26.953L45.3471 26.9524Z" fill="url(#paint65_linear_183_1850)"/>
<path d="M72.1771 29.8342C72.1771 29.8342 71.6542 31.8574 74.5732 34.5249C77.427 37.1602 81.2395 37.1531 81.2395 37.1531C81.2395 37.1531 78.9191 39.2808 78.1866 40.5756C77.2878 42.0853 77.323 43.7219 77.323 43.7219C77.323 43.7219 68.3945 39.1669 67.6591 35.6904C66.9289 32.2128 71.6161 29.7702 72.1771 29.8342Z" fill="url(#paint66_linear_183_1850)"/>
<path d="M72.1772 29.8345C72.1772 29.8345 70.7903 30.4636 71.0758 31.192C71.3789 31.9187 72.6572 32.8545 72.6572 32.8545C72.6572 32.8545 69.1455 33.2557 68.2878 33.9965C67.4472 34.7425 67.6587 35.6907 67.6587 35.6907C67.6587 35.6907 66.0873 31.6267 72.1767 29.8345H72.1772Z" fill="url(#paint67_linear_183_1850)"/>
<path d="M85.3906 7.75244C85.3906 7.75244 86.7629 7.55388 87.6558 4.97502C88.5458 2.4461 87.5736 0 87.5736 0C87.5736 0 89.4663 0.928154 90.4455 1.0568C91.5987 1.2348 92.5926 0.780119 92.5926 0.780119C92.5926 0.780119 92.0692 7.7166 90.126 9.10707C88.181 10.4946 85.4946 8.13016 85.3912 7.75244H85.3906Z" fill="url(#paint68_linear_183_1850)"/>
<path d="M85.3906 7.75224C85.3906 7.75224 86.1285 8.47656 86.5021 8.10059C86.8704 7.71406 87.1189 6.64551 87.1189 6.64551C87.1189 6.64551 88.2562 8.79495 88.9276 9.14976C89.5979 9.49224 90.1254 9.10629 90.1254 9.10629C90.1254 9.10629 88.0353 11.1888 85.3906 7.75166V7.75224Z" fill="url(#paint69_linear_183_1850)"/>
<path d="M104.301 25.1995C104.301 25.1995 112.566 22.6424 115.197 24.0928C115.197 24.0928 118.039 18.8922 119.453 18.2871C119.453 18.2871 106.384 18.9756 104.301 25.1995Z" fill="url(#paint70_linear_183_1850)"/>
<path d="M104.301 25.1994C104.547 25.8561 106.696 27.132 106.696 27.132C106.696 27.132 108.912 21.0797 113.893 19.1035C113.893 19.1035 102.91 21.4744 104.301 25.1988V25.1994Z" fill="url(#paint71_linear_183_1850)"/>
<path d="M97.5905 69.1222C97.9865 78.4495 90.7463 86.3318 81.4189 86.7277C72.0915 87.1237 64.2093 79.8835 63.8133 70.5561C63.4174 61.2287 70.6576 53.3465 79.985 52.9506C89.3123 52.5546 97.1946 59.7948 97.5905 69.1222Z" fill="url(#paint72_linear_183_1850)"/>
<path d="M97.6071 69.5968C98.0031 78.9241 90.7629 86.8064 81.4355 87.2023C72.1081 87.5983 64.2259 80.3581 63.8299 71.0307C63.434 61.7034 70.6742 53.8211 80.0016 53.4252C89.3289 53.0292 97.2112 60.2694 97.6071 69.5968Z" fill="url(#paint73_linear_183_1850)"/>
<g style="mix-blend-mode:multiply">
<path d="M81.3404 84.9638C79.3354 85.049 77.3734 84.7389 75.5089 84.0422C73.7084 83.3689 72.0747 82.3656 70.6525 81.0591C69.2303 79.7533 68.0924 78.2101 67.2688 76.473C66.4165 74.6743 65.9412 72.7457 65.8561 70.7408C65.7709 68.7358 66.081 66.7738 66.7777 64.9093C67.451 63.1087 68.4543 61.4751 69.7608 60.0529C71.0666 58.6307 72.6098 57.4928 74.3469 56.6692C76.1456 55.8169 78.0742 55.3416 80.0791 55.2565C82.0841 55.1713 84.0461 55.4814 85.9101 56.1781C87.7106 56.8513 89.3448 57.8547 90.7664 59.1606C92.1886 60.467 93.3265 62.0097 94.1501 63.7467C95.0024 65.5455 95.4777 67.474 95.5629 69.4789C95.648 71.4839 95.3379 73.4459 94.6412 75.3105C93.968 77.111 92.9646 78.7446 91.6587 80.1668C90.3529 81.589 88.8097 82.7269 87.0726 83.5505C85.2739 84.4028 83.3453 84.8781 81.3404 84.9633V84.9638ZM80.1079 55.9355C72.292 56.2674 66.2026 62.8961 66.5345 70.7126C66.8665 78.529 73.4951 84.6178 81.3116 84.2859C89.1275 83.954 95.2169 77.3254 94.885 69.5089C94.5531 61.693 87.9244 55.6036 80.1079 55.9355Z" fill="#804143"/>
<path d="M81.21 81.8945C79.6192 81.9621 78.0631 81.7159 76.5833 81.1632C75.1547 80.6292 73.8588 79.8332 72.7303 78.7969C71.6024 77.7607 70.6995 76.5365 70.0463 75.1583C69.3702 73.7315 68.993 72.2012 68.9255 70.6104C68.8579 69.0196 69.104 67.4635 69.6568 65.9843C70.1908 64.5557 70.9868 63.2598 72.023 62.1313C73.0593 61.0034 74.2835 60.0999 75.6616 59.4467C77.0885 58.7706 78.6188 58.3934 80.2096 58.3259C81.8004 58.2583 83.3571 58.5044 84.8363 59.0572C86.2643 59.5912 87.5608 60.3872 88.6887 61.4234C89.8172 62.4597 90.72 63.6839 91.3733 65.062C92.0494 66.4889 92.4266 68.0192 92.4941 69.61C92.5617 71.2008 92.3155 72.7575 91.7628 74.2367C91.2288 75.6653 90.4328 76.9612 89.3966 78.0897C88.3603 79.2175 87.1361 80.121 85.7579 80.7743C84.3311 81.4504 82.8008 81.8275 81.21 81.8951V81.8945ZM80.2384 59.0044C74.1149 59.2646 69.3443 64.4576 69.604 70.5816C69.8642 76.7051 75.0572 81.4757 81.1812 81.216C87.3053 80.9564 92.0759 75.7628 91.8156 69.6388C91.5554 63.5147 86.3618 58.7447 80.2384 59.0044Z" fill="#804143"/>
<path d="M81.0797 78.8256C78.7517 78.9243 76.5247 78.1107 74.8088 76.5346C73.0929 74.9585 72.093 72.8085 71.9944 70.4805C71.8957 68.1525 72.7093 65.9255 74.2854 64.2096C75.8615 62.4937 78.0115 61.4944 80.3395 61.3957C82.6675 61.297 84.8945 62.1106 86.6104 63.6867C88.3263 65.2628 89.3262 67.4129 89.4249 69.7409C89.5235 72.0689 88.7099 74.2959 87.1338 76.0118C85.5577 77.7277 83.4077 78.7269 81.0797 78.8262V78.8256ZM80.3683 62.0742C75.9367 62.2622 72.4849 66.0206 72.6728 70.4517C72.8608 74.8833 76.6193 78.3351 81.0509 78.1471C85.4825 77.9592 88.9343 74.2007 88.7464 69.7691C88.5584 65.3374 84.7999 61.8857 80.3683 62.0736V62.0742Z" fill="#804143"/>
</g>
<path d="M81.3482 85.1674C79.3433 85.2525 77.3812 84.9424 75.5167 84.2457C73.7162 83.5725 72.0825 82.5691 70.6603 81.2632C69.2381 79.9574 68.1003 78.4142 67.2767 76.6771C66.4243 74.8784 65.9491 72.9498 65.8639 70.9449C65.7787 68.9399 66.0889 66.9779 66.7856 65.1134C67.4588 63.3129 68.4621 61.6786 69.768 60.257C71.0739 58.8354 72.6171 57.6969 74.3541 56.8733C76.1529 56.021 78.0814 55.5457 80.0864 55.4606C82.0913 55.3754 84.0533 55.6855 85.9179 56.3828C87.7184 57.056 89.3526 58.0594 90.7742 59.3653C92.1964 60.6711 93.3343 62.2143 94.1579 63.9514C95.0103 65.7501 95.4855 67.6787 95.5707 69.6836C95.6559 71.6886 95.3457 73.6506 94.649 75.5151C93.9758 77.3156 92.9724 78.9493 91.6666 80.3715C90.3601 81.7937 88.8175 82.9316 87.0804 83.7552C85.2817 84.6075 83.3531 85.0828 81.3482 85.1679V85.1674ZM80.1157 56.139C72.2999 56.4709 66.2105 63.0996 66.5424 70.9155C66.8743 78.7314 73.5029 84.8208 81.3188 84.4889C89.1347 84.157 95.2241 77.5283 94.8922 69.7124C94.5603 61.8965 87.9316 55.8071 80.1152 56.139H80.1157Z" fill="#B81E25"/>
<path d="M81.2183 82.0981C79.6275 82.1657 78.0708 81.9195 76.5922 81.3668C75.1636 80.8328 73.8677 80.0368 72.7392 79.0006C71.6113 77.9643 70.7078 76.7401 70.0546 75.362C69.3785 73.9351 69.0013 72.4048 68.9338 70.814C68.8662 69.2232 69.1124 67.6665 69.6651 66.1873C70.1991 64.7587 70.9951 63.4628 72.0313 62.3349C73.0676 61.2064 74.2918 60.3035 75.6699 59.6503C77.0968 58.9742 78.6271 58.597 80.2173 58.5295C81.8081 58.4619 83.3648 58.7081 84.844 59.2608C86.2726 59.7948 87.5685 60.5908 88.697 61.627C89.8249 62.6633 90.7284 63.8875 91.381 65.2656C92.0571 66.6925 92.4343 68.2228 92.5018 69.8136C92.5694 71.4044 92.3233 72.9611 91.7705 74.4397C91.2365 75.8683 90.4405 77.1642 89.4043 78.2927C88.368 79.4206 87.1438 80.3241 85.7657 80.9767C84.3388 81.6528 82.8085 82.03 81.2177 82.0975L81.2183 82.0981ZM80.2467 59.208C74.1226 59.4682 69.3526 64.6618 69.6123 70.7852C69.8725 76.9087 75.0661 81.6793 81.1895 81.4196C87.3136 81.16 92.0842 75.9664 91.8239 69.8424C91.5637 63.7183 86.3707 58.9483 80.2467 59.208Z" fill="#B81E25"/>
<path d="M81.088 79.0284C78.76 79.1271 76.533 78.3135 74.8171 76.7374C73.1012 75.1613 72.1013 73.0112 72.0027 70.6832C71.904 68.3552 72.7176 66.1282 74.2937 64.4123C75.8698 62.6964 78.0198 61.6972 80.3478 61.5979C82.6758 61.4992 84.9028 62.3128 86.6187 63.8889C88.3347 65.465 89.3339 67.615 89.4326 69.943C89.5313 72.2711 88.7177 74.498 87.1416 76.214C85.5655 77.9299 83.4154 78.9291 81.0874 79.0284H81.088ZM80.3772 62.277C75.9456 62.4649 72.4938 66.2234 72.6817 70.6544C72.8697 75.0861 76.6282 78.5385 81.0598 78.3499C85.4914 78.1619 88.9432 74.4035 88.7553 69.9718C88.5673 65.5402 84.8088 62.0884 80.3772 62.2764V62.277Z" fill="#B81E25"/>
<defs>
<linearGradient id="paint0_linear_183_1850" x1="80.7095" y1="56.1497" x2="80.7095" y2="27.7752" gradientUnits="userSpaceOnUse">
<stop stop-color="#991724"/>
<stop offset="0.22" stop-color="#9E1B24"/>
<stop offset="0.5" stop-color="#AE2825"/>
<stop offset="0.81" stop-color="#C73D28"/>
<stop offset="1" stop-color="#DB4D2A"/>
</linearGradient>
<linearGradient id="paint1_linear_183_1850" x1="80.71" y1="114.239" x2="80.71" y2="37.0698" gradientUnits="userSpaceOnUse">
<stop stop-color="#DB1A32"/>
<stop offset="1" stop-color="#ED482F"/>
</linearGradient>
<radialGradient id="paint2_radial_183_1850" cx="0" cy="0" r="1" gradientUnits="userSpaceOnUse" gradientTransform="translate(80.5369 50.5517) scale(46.6724 31.7499)">
<stop stop-color="#EAA200"/>
<stop offset="0.43" stop-color="#FDC324"/>
<stop offset="0.57" stop-color="#FCC82E"/>
<stop offset="0.82" stop-color="#FCD54B"/>
<stop offset="1" stop-color="#FCE163"/>
</radialGradient>
<linearGradient id="paint3_linear_183_1850" x1="114.597" y1="64.9492" x2="114.597" y2="44.1497" gradientUnits="userSpaceOnUse">
<stop stop-color="#EAA200"/>
<stop offset="0.55" stop-color="#FFC629"/>
<stop offset="0.59" stop-color="#FEC933"/>
<stop offset="0.65" stop-color="#FDD450"/>
<stop offset="0.73" stop-color="#FCE57C"/>
<stop offset="0.77" stop-color="#FBE379"/>
<stop offset="0.81" stop-color="#FADE70"/>
<stop offset="0.84" stop-color="#F8D660"/>
<stop offset="0.86" stop-color="#F4CA4A"/>
<stop offset="0.89" stop-color="#F0BB2E"/>
<stop offset="0.91" stop-color="#EBA80C"/>
<stop offset="0.92" stop-color="#EAA200"/>
<stop offset="1" stop-color="#FFC629"/>
</linearGradient>
<linearGradient id="paint4_linear_183_1850" x1="132.189" y1="65.2019" x2="132.189" y2="57.4794" gradientUnits="userSpaceOnUse">
<stop stop-color="#8C5F15"/>
<stop offset="0.23" stop-color="#A7720E"/>
<stop offset="0.7" stop-color="#EAA200"/>
<stop offset="1" stop-color="#FFDB3B"/>
</linearGradient>
<linearGradient id="paint5_linear_183_1850" x1="96.8626" y1="55.5511" x2="96.8626" y2="44.6993" gradientUnits="userSpaceOnUse">
<stop stop-color="#8C5F15"/>
<stop offset="0.13" stop-color="#EAA200"/>
<stop offset="0.16" stop-color="#F5C120"/>
<stop offset="0.18" stop-color="#FCD433"/>
<stop offset="0.2" stop-color="#FFDB3B"/>
<stop offset="0.38" stop-color="#EAA200"/>
<stop offset="0.55" stop-color="#C68807"/>
<stop offset="0.73" stop-color="#A6720F"/>
<stop offset="0.89" stop-color="#936413"/>
<stop offset="1" stop-color="#8C5F15"/>
</linearGradient>
<linearGradient id="paint6_linear_183_1850" x1="52.3775" y1="52.2332" x2="52.3775" y2="41.5723" gradientUnits="userSpaceOnUse">
<stop stop-color="#8C5F15"/>
<stop offset="0.13" stop-color="#EAA200"/>
<stop offset="0.16" stop-color="#F5C120"/>
<stop offset="0.18" stop-color="#FCD433"/>
<stop offset="0.2" stop-color="#FFDB3B"/>
<stop offset="0.38" stop-color="#EAA200"/>
<stop offset="0.55" stop-color="#C68807"/>
<stop offset="0.73" stop-color="#A6720F"/>
<stop offset="0.89" stop-color="#936413"/>
<stop offset="1" stop-color="#8C5F15"/>
</linearGradient>
<linearGradient id="paint7_linear_183_1850" x1="11.668" y1="74.2704" x2="11.668" y2="66.982" gradientUnits="userSpaceOnUse">
<stop stop-color="#8C5F15"/>
<stop offset="0.23" stop-color="#A7720E"/>
<stop offset="0.7" stop-color="#EAA200"/>
<stop offset="1" stop-color="#FFDB3B"/>
</linearGradient>
<linearGradient id="paint8_linear_183_1850" x1="31.5817" y1="73.7155" x2="31.5817" y2="40.8259" gradientUnits="userSpaceOnUse">
<stop stop-color="#EAA200"/>
<stop offset="0.46" stop-color="#FFC629"/>
<stop offset="0.5" stop-color="#FFC933"/>
<stop offset="0.58" stop-color="#FFD450"/>
<stop offset="0.68" stop-color="#FFE47E"/>
<stop offset="0.73" stop-color="#FFED96"/>
<stop offset="0.75" stop-color="#FEEA90"/>
<stop offset="0.79" stop-color="#FBE17F"/>
<stop offset="0.82" stop-color="#F8D464"/>
<stop offset="0.86" stop-color="#F2C13F"/>
<stop offset="0.9" stop-color="#ECA90F"/>
<stop offset="0.92" stop-color="#EAA200"/>
<stop offset="1" stop-color="#FFC629"/>
</linearGradient>
<linearGradient id="paint9_linear_183_1850" x1="49.7205" y1="41.9361" x2="49.7205" y2="41.8491" gradientUnits="userSpaceOnUse">
<stop stop-color="#EAA200"/>
<stop offset="0.46" stop-color="#FFC629"/>
<stop offset="0.5" stop-color="#FFC933"/>
<stop offset="0.58" stop-color="#FFD450"/>
<stop offset="0.68" stop-color="#FFE47E"/>
<stop offset="0.73" stop-color="#FFED96"/>
<stop offset="0.75" stop-color="#FEEA90"/>
<stop offset="0.79" stop-color="#FBE17F"/>
<stop offset="0.82" stop-color="#F8D464"/>
<stop offset="0.86" stop-color="#F2C13F"/>
<stop offset="0.9" stop-color="#ECA90F"/>
<stop offset="0.92" stop-color="#EAA200"/>
<stop offset="1" stop-color="#FFC629"/>
</linearGradient>
<linearGradient id="paint10_linear_183_1850" x1="34.1027" y1="25.1576" x2="43.8505" y2="28.0286" gradientUnits="userSpaceOnUse">
<stop stop-color="#FFC629"/>
<stop offset="0.08" stop-color="#EAA200"/>
<stop offset="0.09" stop-color="#EBA80C"/>
<stop offset="0.11" stop-color="#F0BB2E"/>
<stop offset="0.14" stop-color="#F4CA4A"/>
<stop offset="0.16" stop-color="#F8D660"/>
<stop offset="0.19" stop-color="#FADE70"/>
<stop offset="0.23" stop-color="#FBE379"/>
<stop offset="0.27" stop-color="#FCE57C"/>
<stop offset="0.48" stop-color="#FDD450"/>
<stop offset="0.64" stop-color="#FEC933"/>
<stop offset="0.74" stop-color="#FFC629"/>
<stop offset="1" stop-color="#EAA200"/>
</linearGradient>
<linearGradient id="paint11_linear_183_1850" x1="34.1131" y1="25.158" x2="43.8456" y2="28.0245" gradientUnits="userSpaceOnUse">
<stop stop-color="#FFC629"/>
<stop offset="0.08" stop-color="#EAA200"/>
<stop offset="0.09" stop-color="#EBA80C"/>
<stop offset="0.11" stop-color="#F0BB2E"/>
<stop offset="0.14" stop-color="#F4CA4A"/>
<stop offset="0.16" stop-color="#F8D660"/>
<stop offset="0.19" stop-color="#FADE70"/>
<stop offset="0.23" stop-color="#FBE379"/>
<stop offset="0.27" stop-color="#FCE57C"/>
<stop offset="0.48" stop-color="#FDD450"/>
<stop offset="0.64" stop-color="#FEC933"/>
<stop offset="0.74" stop-color="#FFC629"/>
<stop offset="1" stop-color="#EAA200"/>
</linearGradient>
<linearGradient id="paint12_linear_183_1850" x1="34.123" y1="25.1578" x2="43.8405" y2="28.0199" gradientUnits="userSpaceOnUse">
<stop stop-color="#FFC629"/>
<stop offset="0.08" stop-color="#EAA200"/>
<stop offset="0.09" stop-color="#EBA80C"/>
<stop offset="0.11" stop-color="#F0BB2E"/>
<stop offset="0.14" stop-color="#F4CA4A"/>
<stop offset="0.16" stop-color="#F8D660"/>
<stop offset="0.19" stop-color="#FADE70"/>
<stop offset="0.23" stop-color="#FBE379"/>
<stop offset="0.27" stop-color="#FCE57C"/>
<stop offset="0.48" stop-color="#FDD450"/>
<stop offset="0.64" stop-color="#FEC933"/>
<stop offset="0.74" stop-color="#FFC629"/>
<stop offset="1" stop-color="#EAA200"/>
</linearGradient>
<linearGradient id="paint13_linear_183_1850" x1="34.1332" y1="25.1575" x2="43.8357" y2="28.0152" gradientUnits="userSpaceOnUse">
<stop stop-color="#FFC629"/>
<stop offset="0.08" stop-color="#EAA200"/>
<stop offset="0.09" stop-color="#EBA80C"/>
<stop offset="0.11" stop-color="#F0BB2E"/>
<stop offset="0.14" stop-color="#F4CA4A"/>
<stop offset="0.16" stop-color="#F8D660"/>
<stop offset="0.19" stop-color="#FADE70"/>
<stop offset="0.23" stop-color="#FBE379"/>
<stop offset="0.27" stop-color="#FCE57C"/>
<stop offset="0.48" stop-color="#FDD450"/>
<stop offset="0.64" stop-color="#FEC933"/>
<stop offset="0.74" stop-color="#FFC629"/>
<stop offset="1" stop-color="#EAA200"/>
</linearGradient>
<linearGradient id="paint14_linear_183_1850" x1="34.1435" y1="25.1571" x2="43.831" y2="28.0104" gradientUnits="userSpaceOnUse">
<stop stop-color="#FFC629"/>
<stop offset="0.08" stop-color="#EAA200"/>
<stop offset="0.09" stop-color="#EBA80C"/>
<stop offset="0.11" stop-color="#F0BB2E"/>
<stop offset="0.14" stop-color="#F4CA4A"/>
<stop offset="0.16" stop-color="#F8D660"/>
<stop offset="0.19" stop-color="#FADE70"/>
<stop offset="0.23" stop-color="#FBE379"/>
<stop offset="0.27" stop-color="#FCE57C"/>
<stop offset="0.48" stop-color="#FDD450"/>
<stop offset="0.64" stop-color="#FEC933"/>
<stop offset="0.74" stop-color="#FFC629"/>
<stop offset="1" stop-color="#EAA200"/>
</linearGradient>
<linearGradient id="paint15_linear_183_1850" x1="34.1535" y1="25.1567" x2="43.8261" y2="28.0056" gradientUnits="userSpaceOnUse">
<stop stop-color="#FFC629"/>
<stop offset="0.08" stop-color="#EAA200"/>
<stop offset="0.09" stop-color="#EBA80C"/>
<stop offset="0.11" stop-color="#F0BB2E"/>
<stop offset="0.14" stop-color="#F4CA4A"/>
<stop offset="0.16" stop-color="#F8D660"/>
<stop offset="0.19" stop-color="#FADE70"/>
<stop offset="0.23" stop-color="#FBE379"/>
<stop offset="0.27" stop-color="#FCE57C"/>
<stop offset="0.48" stop-color="#FDD450"/>
<stop offset="0.64" stop-color="#FEC933"/>
<stop offset="0.74" stop-color="#FFC629"/>
<stop offset="1" stop-color="#EAA200"/>
</linearGradient>
<linearGradient id="paint16_linear_183_1850" x1="34.1635" y1="25.1563" x2="43.8213" y2="28.0008" gradientUnits="userSpaceOnUse">
<stop stop-color="#FFC629"/>
<stop offset="0.08" stop-color="#EAA200"/>
<stop offset="0.09" stop-color="#EBA80C"/>
<stop offset="0.11" stop-color="#F0BB2E"/>
<stop offset="0.14" stop-color="#F4CA4A"/>
<stop offset="0.16" stop-color="#F8D660"/>
<stop offset="0.19" stop-color="#FADE70"/>
<stop offset="0.23" stop-color="#FBE379"/>
<stop offset="0.27" stop-color="#FCE57C"/>
<stop offset="0.48" stop-color="#FDD450"/>
<stop offset="0.64" stop-color="#FEC933"/>
<stop offset="0.74" stop-color="#FFC629"/>
<stop offset="1" stop-color="#EAA200"/>
</linearGradient>
<linearGradient id="paint17_linear_183_1850" x1="34.1729" y1="25.1561" x2="43.8162" y2="27.9963" gradientUnits="userSpaceOnUse">
<stop stop-color="#FFC629"/>
<stop offset="0.08" stop-color="#EAA200"/>
<stop offset="0.09" stop-color="#EBA80C"/>
<stop offset="0.11" stop-color="#F0BB2E"/>
<stop offset="0.14" stop-color="#F4CA4A"/>
<stop offset="0.16" stop-color="#F8D660"/>
<stop offset="0.19" stop-color="#FADE70"/>
<stop offset="0.23" stop-color="#FBE379"/>
<stop offset="0.27" stop-color="#FCE57C"/>
<stop offset="0.48" stop-color="#FDD450"/>
<stop offset="0.64" stop-color="#FEC933"/>
<stop offset="0.74" stop-color="#FFC629"/>
<stop offset="1" stop-color="#EAA200"/>
</linearGradient>
<linearGradient id="paint18_linear_183_1850" x1="34.1826" y1="25.1554" x2="43.8115" y2="27.9914" gradientUnits="userSpaceOnUse">
<stop stop-color="#FFC629"/>
<stop offset="0.08" stop-color="#EAA200"/>
<stop offset="0.09" stop-color="#EBA80C"/>
<stop offset="0.11" stop-color="#F0BB2E"/>
<stop offset="0.14" stop-color="#F4CA4A"/>
<stop offset="0.16" stop-color="#F8D660"/>
<stop offset="0.19" stop-color="#FADE70"/>
<stop offset="0.23" stop-color="#FBE379"/>
<stop offset="0.27" stop-color="#FCE57C"/>
<stop offset="0.48" stop-color="#FDD450"/>
<stop offset="0.64" stop-color="#FEC933"/>
<stop offset="0.74" stop-color="#FFC629"/>
<stop offset="1" stop-color="#EAA200"/>
</linearGradient>
<linearGradient id="paint19_linear_183_1850" x1="34.1923" y1="25.1547" x2="43.8068" y2="27.9864" gradientUnits="userSpaceOnUse">
<stop stop-color="#FFC629"/>
<stop offset="0.08" stop-color="#EAA200"/>
<stop offset="0.09" stop-color="#EBA80C"/>
<stop offset="0.11" stop-color="#F0BB2E"/>
<stop offset="0.14" stop-color="#F4CA4A"/>
<stop offset="0.16" stop-color="#F8D660"/>
<stop offset="0.19" stop-color="#FADE70"/>
<stop offset="0.23" stop-color="#FBE379"/>
<stop offset="0.27" stop-color="#FCE57C"/>
<stop offset="0.48" stop-color="#FDD450"/>
<stop offset="0.64" stop-color="#FEC933"/>
<stop offset="0.74" stop-color="#FFC629"/>
<stop offset="1" stop-color="#EAA200"/>
</linearGradient>
<linearGradient id="paint20_linear_183_1850" x1="34.2018" y1="25.1538" x2="43.8022" y2="27.9814" gradientUnits="userSpaceOnUse">
<stop stop-color="#FFC629"/>
<stop offset="0.08" stop-color="#EAA200"/>
<stop offset="0.09" stop-color="#EBA80C"/>
<stop offset="0.11" stop-color="#F0BB2E"/>
<stop offset="0.14" stop-color="#F4CA4A"/>
<stop offset="0.16" stop-color="#F8D660"/>
<stop offset="0.19" stop-color="#FADE70"/>
<stop offset="0.23" stop-color="#FBE379"/>
<stop offset="0.27" stop-color="#FCE57C"/>
<stop offset="0.48" stop-color="#FDD450"/>
<stop offset="0.64" stop-color="#FEC933"/>
<stop offset="0.74" stop-color="#FFC629"/>
<stop offset="1" stop-color="#EAA200"/>
</linearGradient>
<linearGradient id="paint21_linear_183_1850" x1="34.2107" y1="25.1532" x2="43.7972" y2="27.9766" gradientUnits="userSpaceOnUse">
<stop stop-color="#FFC629"/>
<stop offset="0.08" stop-color="#EAA200"/>
<stop offset="0.09" stop-color="#EBA80C"/>
<stop offset="0.11" stop-color="#F0BB2E"/>
<stop offset="0.14" stop-color="#F4CA4A"/>
<stop offset="0.16" stop-color="#F8D660"/>
<stop offset="0.19" stop-color="#FADE70"/>
<stop offset="0.23" stop-color="#FBE379"/>
<stop offset="0.27" stop-color="#FCE57C"/>
<stop offset="0.48" stop-color="#FDD450"/>
<stop offset="0.64" stop-color="#FEC933"/>
<stop offset="0.74" stop-color="#FFC629"/>
<stop offset="1" stop-color="#EAA200"/>
</linearGradient>
<linearGradient id="paint22_linear_183_1850" x1="34.2198" y1="25.152" x2="43.7926" y2="27.9714" gradientUnits="userSpaceOnUse">
<stop stop-color="#FFC629"/>
<stop offset="0.08" stop-color="#EAA200"/>
<stop offset="0.09" stop-color="#EBA80C"/>
<stop offset="0.11" stop-color="#F0BB2E"/>
<stop offset="0.14" stop-color="#F4CA4A"/>
<stop offset="0.16" stop-color="#F8D660"/>
<stop offset="0.19" stop-color="#FADE70"/>
<stop offset="0.23" stop-color="#FBE379"/>
<stop offset="0.27" stop-color="#FCE57C"/>
<stop offset="0.48" stop-color="#FDD450"/>
<stop offset="0.64" stop-color="#FEC933"/>
<stop offset="0.74" stop-color="#FFC629"/>
<stop offset="1" stop-color="#EAA200"/>
</linearGradient>
<linearGradient id="paint23_linear_183_1850" x1="34.2286" y1="25.1505" x2="43.788" y2="27.966" gradientUnits="userSpaceOnUse">
<stop stop-color="#FFC629"/>
<stop offset="0.08" stop-color="#EAA200"/>
<stop offset="0.09" stop-color="#EBA80C"/>
<stop offset="0.11" stop-color="#F0BB2E"/>
<stop offset="0.14" stop-color="#F4CA4A"/>
<stop offset="0.16" stop-color="#F8D660"/>
<stop offset="0.19" stop-color="#FADE70"/>
<stop offset="0.23" stop-color="#FBE379"/>
<stop offset="0.27" stop-color="#FCE57C"/>
<stop offset="0.48" stop-color="#FDD450"/>
<stop offset="0.64" stop-color="#FEC933"/>
<stop offset="0.74" stop-color="#FFC629"/>
<stop offset="1" stop-color="#EAA200"/>
</linearGradient>
<linearGradient id="paint24_linear_183_1850" x1="34.2372" y1="25.1489" x2="43.7835" y2="27.9606" gradientUnits="userSpaceOnUse">
<stop stop-color="#FFC629"/>
<stop offset="0.08" stop-color="#EAA200"/>
<stop offset="0.09" stop-color="#EBA80C"/>
<stop offset="0.11" stop-color="#F0BB2E"/>
<stop offset="0.14" stop-color="#F4CA4A"/>
<stop offset="0.16" stop-color="#F8D660"/>
<stop offset="0.19" stop-color="#FADE70"/>
<stop offset="0.23" stop-color="#FBE379"/>
<stop offset="0.27" stop-color="#FCE57C"/>
<stop offset="0.48" stop-color="#FDD450"/>
<stop offset="0.64" stop-color="#FEC933"/>
<stop offset="0.74" stop-color="#FFC629"/>
<stop offset="1" stop-color="#EAA200"/>
</linearGradient>
<linearGradient id="paint25_linear_183_1850" x1="34.2454" y1="25.147" x2="43.779" y2="27.9549" gradientUnits="userSpaceOnUse">
<stop stop-color="#FFC629"/>
<stop offset="0.08" stop-color="#EAA200"/>
<stop offset="0.09" stop-color="#EBA80C"/>
<stop offset="0.11" stop-color="#F0BB2E"/>
<stop offset="0.14" stop-color="#F4CA4A"/>
<stop offset="0.16" stop-color="#F8D660"/>
<stop offset="0.19" stop-color="#FADE70"/>
<stop offset="0.23" stop-color="#FBE379"/>
<stop offset="0.27" stop-color="#FCE57C"/>
<stop offset="0.48" stop-color="#FDD450"/>
<stop offset="0.64" stop-color="#FEC933"/>
<stop offset="0.74" stop-color="#FFC629"/>
<stop offset="1" stop-color="#EAA200"/>
</linearGradient>
<linearGradient id="paint26_linear_183_1850" x1="34.2533" y1="25.1454" x2="43.7746" y2="27.9497" gradientUnits="userSpaceOnUse">
<stop stop-color="#FFC629"/>
<stop offset="0.08" stop-color="#EAA200"/>
<stop offset="0.09" stop-color="#EBA80C"/>
<stop offset="0.11" stop-color="#F0BB2E"/>
<stop offset="0.14" stop-color="#F4CA4A"/>
<stop offset="0.16" stop-color="#F8D660"/>
<stop offset="0.19" stop-color="#FADE70"/>
<stop offset="0.23" stop-color="#FBE379"/>
<stop offset="0.27" stop-color="#FCE57C"/>
<stop offset="0.48" stop-color="#FDD450"/>
<stop offset="0.64" stop-color="#FEC933"/>
<stop offset="0.74" stop-color="#FFC629"/>
<stop offset="1" stop-color="#EAA200"/>
</linearGradient>
<linearGradient id="paint27_linear_183_1850" x1="34.2602" y1="25.1429" x2="43.7698" y2="27.9437" gradientUnits="userSpaceOnUse">
<stop stop-color="#FFC629"/>
<stop offset="0.08" stop-color="#EAA200"/>
<stop offset="0.09" stop-color="#EBA80C"/>
<stop offset="0.11" stop-color="#F0BB2E"/>
<stop offset="0.14" stop-color="#F4CA4A"/>
<stop offset="0.16" stop-color="#F8D660"/>
<stop offset="0.19" stop-color="#FADE70"/>
<stop offset="0.23" stop-color="#FBE379"/>
<stop offset="0.27" stop-color="#FCE57C"/>
<stop offset="0.48" stop-color="#FDD450"/>
<stop offset="0.64" stop-color="#FEC933"/>
<stop offset="0.74" stop-color="#FFC629"/>
<stop offset="1" stop-color="#EAA200"/>
</linearGradient>
<linearGradient id="paint28_linear_183_1850" x1="34.2672" y1="25.14" x2="43.7657" y2="27.9376" gradientUnits="userSpaceOnUse">
<stop stop-color="#FFC629"/>
<stop offset="0.08" stop-color="#EAA200"/>
<stop offset="0.09" stop-color="#EBA80C"/>
<stop offset="0.11" stop-color="#F0BB2E"/>
<stop offset="0.14" stop-color="#F4CA4A"/>
<stop offset="0.16" stop-color="#F8D660"/>
<stop offset="0.19" stop-color="#FADE70"/>
<stop offset="0.23" stop-color="#FBE379"/>
<stop offset="0.27" stop-color="#FCE57C"/>
<stop offset="0.48" stop-color="#FDD450"/>
<stop offset="0.64" stop-color="#FEC933"/>
<stop offset="0.74" stop-color="#FFC629"/>
<stop offset="1" stop-color="#EAA200"/>
</linearGradient>
<linearGradient id="paint29_linear_183_1850" x1="34.2733" y1="25.1364" x2="43.7613" y2="27.9309" gradientUnits="userSpaceOnUse">
<stop stop-color="#FFC629"/>
<stop offset="0.08" stop-color="#EAA200"/>
<stop offset="0.09" stop-color="#EBA80C"/>
<stop offset="0.11" stop-color="#F0BB2E"/>
<stop offset="0.14" stop-color="#F4CA4A"/>
<stop offset="0.16" stop-color="#F8D660"/>
<stop offset="0.19" stop-color="#FADE70"/>
<stop offset="0.23" stop-color="#FBE379"/>
<stop offset="0.27" stop-color="#FCE57C"/>
<stop offset="0.48" stop-color="#FDD450"/>
<stop offset="0.64" stop-color="#FEC933"/>
<stop offset="0.74" stop-color="#FFC629"/>
<stop offset="1" stop-color="#EAA200"/>
</linearGradient>
<linearGradient id="paint30_linear_183_1850" x1="34.2788" y1="25.1328" x2="43.7574" y2="27.9246" gradientUnits="userSpaceOnUse">
<stop stop-color="#FFC629"/>
<stop offset="0.08" stop-color="#EAA200"/>
<stop offset="0.09" stop-color="#EBA80C"/>
<stop offset="0.11" stop-color="#F0BB2E"/>
<stop offset="0.14" stop-color="#F4CA4A"/>
<stop offset="0.16" stop-color="#F8D660"/>
<stop offset="0.19" stop-color="#FADE70"/>
<stop offset="0.23" stop-color="#FBE379"/>
<stop offset="0.27" stop-color="#FCE57C"/>
<stop offset="0.48" stop-color="#FDD450"/>
<stop offset="0.64" stop-color="#FEC933"/>
<stop offset="0.74" stop-color="#FFC629"/>
<stop offset="1" stop-color="#EAA200"/>
</linearGradient>
<linearGradient id="paint31_linear_183_1850" x1="34.2828" y1="25.1281" x2="43.753" y2="27.9174" gradientUnits="userSpaceOnUse">
<stop stop-color="#FFC629"/>
<stop offset="0.08" stop-color="#EAA200"/>
<stop offset="0.09" stop-color="#EBA80C"/>
<stop offset="0.11" stop-color="#F0BB2E"/>
<stop offset="0.14" stop-color="#F4CA4A"/>
<stop offset="0.16" stop-color="#F8D660"/>
<stop offset="0.19" stop-color="#FADE70"/>
<stop offset="0.23" stop-color="#FBE379"/>
<stop offset="0.27" stop-color="#FCE57C"/>
<stop offset="0.48" stop-color="#FDD450"/>
<stop offset="0.64" stop-color="#FEC933"/>
<stop offset="0.74" stop-color="#FFC629"/>
<stop offset="1" stop-color="#EAA200"/>
</linearGradient>
<linearGradient id="paint32_linear_183_1850" x1="34.2859" y1="25.1224" x2="43.7491" y2="27.9096" gradientUnits="userSpaceOnUse">
<stop stop-color="#FFC629"/>
<stop offset="0.08" stop-color="#EAA200"/>
<stop offset="0.09" stop-color="#EBA80C"/>
<stop offset="0.11" stop-color="#F0BB2E"/>
<stop offset="0.14" stop-color="#F4CA4A"/>
<stop offset="0.16" stop-color="#F8D660"/>
<stop offset="0.19" stop-color="#FADE70"/>
<stop offset="0.23" stop-color="#FBE379"/>
<stop offset="0.27" stop-color="#FCE57C"/>
<stop offset="0.48" stop-color="#FDD450"/>
<stop offset="0.64" stop-color="#FEC933"/>
<stop offset="0.74" stop-color="#FFC629"/>
<stop offset="1" stop-color="#EAA200"/>
</linearGradient>
<linearGradient id="paint33_linear_183_1850" x1="34.2877" y1="25.1156" x2="43.7456" y2="27.9012" gradientUnits="userSpaceOnUse">
<stop stop-color="#FFC629"/>
<stop offset="0.08" stop-color="#EAA200"/>
<stop offset="0.09" stop-color="#EBA80C"/>
<stop offset="0.11" stop-color="#F0BB2E"/>
<stop offset="0.14" stop-color="#F4CA4A"/>
<stop offset="0.16" stop-color="#F8D660"/>
<stop offset="0.19" stop-color="#FADE70"/>
<stop offset="0.23" stop-color="#FBE379"/>
<stop offset="0.27" stop-color="#FCE57C"/>
<stop offset="0.48" stop-color="#FDD450"/>
<stop offset="0.64" stop-color="#FEC933"/>
<stop offset="0.74" stop-color="#FFC629"/>
<stop offset="1" stop-color="#EAA200"/>
</linearGradient>
<linearGradient id="paint34_linear_183_1850" x1="34.2878" y1="25.1075" x2="43.7424" y2="27.8922" gradientUnits="userSpaceOnUse">
<stop stop-color="#FFC629"/>
<stop offset="0.08" stop-color="#EAA200"/>
<stop offset="0.09" stop-color="#EBA80C"/>
<stop offset="0.11" stop-color="#F0BB2E"/>
<stop offset="0.14" stop-color="#F4CA4A"/>
<stop offset="0.16" stop-color="#F8D660"/>
<stop offset="0.19" stop-color="#FADE70"/>
<stop offset="0.23" stop-color="#FBE379"/>
<stop offset="0.27" stop-color="#FCE57C"/>
<stop offset="0.48" stop-color="#FDD450"/>
<stop offset="0.64" stop-color="#FEC933"/>
<stop offset="0.74" stop-color="#FFC629"/>
<stop offset="1" stop-color="#EAA200"/>
</linearGradient>
<linearGradient id="paint35_linear_183_1850" x1="34.2854" y1="25.098" x2="43.7388" y2="27.8823" gradientUnits="userSpaceOnUse">
<stop stop-color="#FFC629"/>
<stop offset="0.08" stop-color="#EAA200"/>
<stop offset="0.09" stop-color="#EBA80C"/>
<stop offset="0.11" stop-color="#F0BB2E"/>
<stop offset="0.14" stop-color="#F4CA4A"/>
<stop offset="0.16" stop-color="#F8D660"/>
<stop offset="0.19" stop-color="#FADE70"/>
<stop offset="0.23" stop-color="#FBE379"/>
<stop offset="0.27" stop-color="#FCE57C"/>
<stop offset="0.48" stop-color="#FDD450"/>
<stop offset="0.64" stop-color="#FEC933"/>
<stop offset="0.74" stop-color="#FFC629"/>
<stop offset="1" stop-color="#EAA200"/>
</linearGradient>
<linearGradient id="paint36_linear_183_1850" x1="34.2825" y1="25.088" x2="43.7359" y2="27.8723" gradientUnits="userSpaceOnUse">
<stop stop-color="#FFC629"/>
<stop offset="0.08" stop-color="#EAA200"/>
<stop offset="0.09" stop-color="#EBA80C"/>
<stop offset="0.11" stop-color="#F0BB2E"/>
<stop offset="0.14" stop-color="#F4CA4A"/>
<stop offset="0.16" stop-color="#F8D660"/>
<stop offset="0.19" stop-color="#FADE70"/>
<stop offset="0.23" stop-color="#FBE379"/>
<stop offset="0.27" stop-color="#FCE57C"/>
<stop offset="0.48" stop-color="#FDD450"/>
<stop offset="0.64" stop-color="#FEC933"/>
<stop offset="0.74" stop-color="#FFC629"/>
<stop offset="1" stop-color="#EAA200"/>
</linearGradient>
<linearGradient id="paint37_linear_183_1850" x1="34.2797" y1="25.0777" x2="43.7331" y2="27.862" gradientUnits="userSpaceOnUse">
<stop stop-color="#FFC629"/>
<stop offset="0.08" stop-color="#EAA200"/>
<stop offset="0.09" stop-color="#EBA80C"/>
<stop offset="0.11" stop-color="#F0BB2E"/>
<stop offset="0.14" stop-color="#F4CA4A"/>
<stop offset="0.16" stop-color="#F8D660"/>
<stop offset="0.19" stop-color="#FADE70"/>
<stop offset="0.23" stop-color="#FBE379"/>
<stop offset="0.27" stop-color="#FCE57C"/>
<stop offset="0.48" stop-color="#FDD450"/>
<stop offset="0.64" stop-color="#FEC933"/>
<stop offset="0.74" stop-color="#FFC629"/>
<stop offset="1" stop-color="#EAA200"/>
</linearGradient>
<linearGradient id="paint38_linear_183_1850" x1="34.2769" y1="25.0674" x2="43.7303" y2="27.8517" gradientUnits="userSpaceOnUse">
<stop stop-color="#FFC629"/>
<stop offset="0.08" stop-color="#EAA200"/>
<stop offset="0.09" stop-color="#EBA80C"/>
<stop offset="0.11" stop-color="#F0BB2E"/>
<stop offset="0.14" stop-color="#F4CA4A"/>
<stop offset="0.16" stop-color="#F8D660"/>
<stop offset="0.19" stop-color="#FADE70"/>
<stop offset="0.23" stop-color="#FBE379"/>
<stop offset="0.27" stop-color="#FCE57C"/>
<stop offset="0.48" stop-color="#FDD450"/>
<stop offset="0.64" stop-color="#FEC933"/>
<stop offset="0.74" stop-color="#FFC629"/>
<stop offset="1" stop-color="#EAA200"/>
</linearGradient>
<linearGradient id="paint39_linear_183_1850" x1="34.2738" y1="25.0571" x2="43.7273" y2="27.8413" gradientUnits="userSpaceOnUse">
<stop stop-color="#FFC629"/>
<stop offset="0.08" stop-color="#EAA200"/>
<stop offset="0.09" stop-color="#EBA80C"/>
<stop offset="0.11" stop-color="#F0BB2E"/>
<stop offset="0.14" stop-color="#F4CA4A"/>
<stop offset="0.16" stop-color="#F8D660"/>
<stop offset="0.19" stop-color="#FADE70"/>
<stop offset="0.23" stop-color="#FBE379"/>
<stop offset="0.27" stop-color="#FCE57C"/>
<stop offset="0.48" stop-color="#FDD450"/>
<stop offset="0.64" stop-color="#FEC933"/>
<stop offset="0.74" stop-color="#FFC629"/>
<stop offset="1" stop-color="#EAA200"/>
</linearGradient>
<linearGradient id="paint40_linear_183_1850" x1="34.2705" y1="25.0472" x2="43.724" y2="27.8315" gradientUnits="userSpaceOnUse">
<stop stop-color="#FFC629"/>
<stop offset="0.08" stop-color="#EAA200"/>
<stop offset="0.09" stop-color="#EBA80C"/>
<stop offset="0.11" stop-color="#F0BB2E"/>
<stop offset="0.14" stop-color="#F4CA4A"/>
<stop offset="0.16" stop-color="#F8D660"/>
<stop offset="0.19" stop-color="#FADE70"/>
<stop offset="0.23" stop-color="#FBE379"/>
<stop offset="0.27" stop-color="#FCE57C"/>
<stop offset="0.48" stop-color="#FDD450"/>
<stop offset="0.64" stop-color="#FEC933"/>
<stop offset="0.74" stop-color="#FFC629"/>
<stop offset="1" stop-color="#EAA200"/>
</linearGradient>
<linearGradient id="paint41_linear_183_1850" x1="34.2677" y1="25.0369" x2="43.7211" y2="27.8212" gradientUnits="userSpaceOnUse">
<stop stop-color="#FFC629"/>
<stop offset="0.08" stop-color="#EAA200"/>
<stop offset="0.09" stop-color="#EBA80C"/>
<stop offset="0.11" stop-color="#F0BB2E"/>
<stop offset="0.14" stop-color="#F4CA4A"/>
<stop offset="0.16" stop-color="#F8D660"/>
<stop offset="0.19" stop-color="#FADE70"/>
<stop offset="0.23" stop-color="#FBE379"/>
<stop offset="0.27" stop-color="#FCE57C"/>
<stop offset="0.48" stop-color="#FDD450"/>
<stop offset="0.64" stop-color="#FEC933"/>
<stop offset="0.74" stop-color="#FFC629"/>
<stop offset="1" stop-color="#EAA200"/>
</linearGradient>
<linearGradient id="paint42_linear_183_1850" x1="34.2648" y1="25.0265" x2="43.7182" y2="27.8107" gradientUnits="userSpaceOnUse">
<stop stop-color="#FFC629"/>
<stop offset="0.08" stop-color="#EAA200"/>
<stop offset="0.09" stop-color="#EBA80C"/>
<stop offset="0.11" stop-color="#F0BB2E"/>
<stop offset="0.14" stop-color="#F4CA4A"/>
<stop offset="0.16" stop-color="#F8D660"/>
<stop offset="0.19" stop-color="#FADE70"/>
<stop offset="0.23" stop-color="#FBE379"/>
<stop offset="0.27" stop-color="#FCE57C"/>
<stop offset="0.48" stop-color="#FDD450"/>
<stop offset="0.64" stop-color="#FEC933"/>
<stop offset="0.74" stop-color="#FFC629"/>
<stop offset="1" stop-color="#EAA200"/>
</linearGradient>
<linearGradient id="paint43_linear_183_1850" x1="34.2619" y1="25.016" x2="43.7153" y2="27.8003" gradientUnits="userSpaceOnUse">
<stop stop-color="#FFC629"/>
<stop offset="0.08" stop-color="#EAA200"/>
<stop offset="0.09" stop-color="#EBA80C"/>
<stop offset="0.11" stop-color="#F0BB2E"/>
<stop offset="0.14" stop-color="#F4CA4A"/>
<stop offset="0.16" stop-color="#F8D660"/>
<stop offset="0.19" stop-color="#FADE70"/>
<stop offset="0.23" stop-color="#FBE379"/>
<stop offset="0.27" stop-color="#FCE57C"/>
<stop offset="0.48" stop-color="#FDD450"/>
<stop offset="0.64" stop-color="#FEC933"/>
<stop offset="0.74" stop-color="#FFC629"/>
<stop offset="1" stop-color="#EAA200"/>
</linearGradient>
<linearGradient id="paint44_linear_183_1850" x1="34.2586" y1="25.0061" x2="43.7121" y2="27.7904" gradientUnits="userSpaceOnUse">
<stop stop-color="#FFC629"/>
<stop offset="0.08" stop-color="#EAA200"/>
<stop offset="0.09" stop-color="#EBA80C"/>
<stop offset="0.11" stop-color="#F0BB2E"/>
<stop offset="0.14" stop-color="#F4CA4A"/>
<stop offset="0.16" stop-color="#F8D660"/>
<stop offset="0.19" stop-color="#FADE70"/>
<stop offset="0.23" stop-color="#FBE379"/>
<stop offset="0.27" stop-color="#FCE57C"/>
<stop offset="0.48" stop-color="#FDD450"/>
<stop offset="0.64" stop-color="#FEC933"/>
<stop offset="0.74" stop-color="#FFC629"/>
<stop offset="1" stop-color="#EAA200"/>
</linearGradient>
<linearGradient id="paint45_linear_183_1850" x1="34.256" y1="24.9957" x2="43.7094" y2="27.78" gradientUnits="userSpaceOnUse">
<stop stop-color="#FFC629"/>
<stop offset="0.08" stop-color="#EAA200"/>
<stop offset="0.09" stop-color="#EBA80C"/>
<stop offset="0.11" stop-color="#F0BB2E"/>
<stop offset="0.14" stop-color="#F4CA4A"/>
<stop offset="0.16" stop-color="#F8D660"/>
<stop offset="0.19" stop-color="#FADE70"/>
<stop offset="0.23" stop-color="#FBE379"/>
<stop offset="0.27" stop-color="#FCE57C"/>
<stop offset="0.48" stop-color="#FDD450"/>
<stop offset="0.64" stop-color="#FEC933"/>
<stop offset="0.74" stop-color="#FFC629"/>
<stop offset="1" stop-color="#EAA200"/>
</linearGradient>
<linearGradient id="paint46_linear_183_1850" x1="34.2531" y1="24.9854" x2="43.7065" y2="27.7697" gradientUnits="userSpaceOnUse">
<stop stop-color="#FFC629"/>
<stop offset="0.08" stop-color="#EAA200"/>
<stop offset="0.09" stop-color="#EBA80C"/>
<stop offset="0.11" stop-color="#F0BB2E"/>
<stop offset="0.14" stop-color="#F4CA4A"/>
<stop offset="0.16" stop-color="#F8D660"/>
<stop offset="0.19" stop-color="#FADE70"/>
<stop offset="0.23" stop-color="#FBE379"/>
<stop offset="0.27" stop-color="#FCE57C"/>
<stop offset="0.48" stop-color="#FDD450"/>
<stop offset="0.64" stop-color="#FEC933"/>
<stop offset="0.74" stop-color="#FFC629"/>
<stop offset="1" stop-color="#EAA200"/>
</linearGradient>
<linearGradient id="paint47_linear_183_1850" x1="34.2497" y1="24.975" x2="43.7032" y2="27.7592" gradientUnits="userSpaceOnUse">
<stop stop-color="#FFC629"/>
<stop offset="0.08" stop-color="#EAA200"/>
<stop offset="0.09" stop-color="#EBA80C"/>
<stop offset="0.11" stop-color="#F0BB2E"/>
<stop offset="0.14" stop-color="#F4CA4A"/>
<stop offset="0.16" stop-color="#F8D660"/>
<stop offset="0.19" stop-color="#FADE70"/>
<stop offset="0.23" stop-color="#FBE379"/>
<stop offset="0.27" stop-color="#FCE57C"/>
<stop offset="0.48" stop-color="#FDD450"/>
<stop offset="0.64" stop-color="#FEC933"/>
<stop offset="0.74" stop-color="#FFC629"/>
<stop offset="1" stop-color="#EAA200"/>
</linearGradient>
<linearGradient id="paint48_linear_183_1850" x1="34.2469" y1="24.9645" x2="43.7003" y2="27.7488" gradientUnits="userSpaceOnUse">
<stop stop-color="#FFC629"/>
<stop offset="0.08" stop-color="#EAA200"/>
<stop offset="0.09" stop-color="#EBA80C"/>
<stop offset="0.11" stop-color="#F0BB2E"/>
<stop offset="0.14" stop-color="#F4CA4A"/>
<stop offset="0.16" stop-color="#F8D660"/>
<stop offset="0.19" stop-color="#FADE70"/>
<stop offset="0.23" stop-color="#FBE379"/>
<stop offset="0.27" stop-color="#FCE57C"/>
<stop offset="0.48" stop-color="#FDD450"/>
<stop offset="0.64" stop-color="#FEC933"/>
<stop offset="0.74" stop-color="#FFC629"/>
<stop offset="1" stop-color="#EAA200"/>
</linearGradient>
<linearGradient id="paint49_linear_183_1850" x1="34.2439" y1="24.9545" x2="43.6974" y2="27.7388" gradientUnits="userSpaceOnUse">
<stop stop-color="#FFC629"/>
<stop offset="0.08" stop-color="#EAA200"/>
<stop offset="0.09" stop-color="#EBA80C"/>
<stop offset="0.11" stop-color="#F0BB2E"/>
<stop offset="0.14" stop-color="#F4CA4A"/>
<stop offset="0.16" stop-color="#F8D660"/>
<stop offset="0.19" stop-color="#FADE70"/>
<stop offset="0.23" stop-color="#FBE379"/>
<stop offset="0.27" stop-color="#FCE57C"/>
<stop offset="0.48" stop-color="#FDD450"/>
<stop offset="0.64" stop-color="#FEC933"/>
<stop offset="0.74" stop-color="#FFC629"/>
<stop offset="1" stop-color="#EAA200"/>
</linearGradient>
<linearGradient id="paint50_linear_183_1850" x1="34.2412" y1="24.9441" x2="43.6946" y2="27.7285" gradientUnits="userSpaceOnUse">
<stop stop-color="#FFC629"/>
<stop offset="0.08" stop-color="#EAA200"/>
<stop offset="0.09" stop-color="#EBA80C"/>
<stop offset="0.11" stop-color="#F0BB2E"/>
<stop offset="0.14" stop-color="#F4CA4A"/>
<stop offset="0.16" stop-color="#F8D660"/>
<stop offset="0.19" stop-color="#FADE70"/>
<stop offset="0.23" stop-color="#FBE379"/>
<stop offset="0.27" stop-color="#FCE57C"/>
<stop offset="0.48" stop-color="#FDD450"/>
<stop offset="0.64" stop-color="#FEC933"/>
<stop offset="0.74" stop-color="#FFC629"/>
<stop offset="1" stop-color="#EAA200"/>
</linearGradient>
<linearGradient id="paint51_linear_183_1850" x1="34.2378" y1="24.9336" x2="43.6912" y2="27.7179" gradientUnits="userSpaceOnUse">
<stop stop-color="#FFC629"/>
<stop offset="0.08" stop-color="#EAA200"/>
<stop offset="0.09" stop-color="#EBA80C"/>
<stop offset="0.11" stop-color="#F0BB2E"/>
<stop offset="0.14" stop-color="#F4CA4A"/>
<stop offset="0.16" stop-color="#F8D660"/>
<stop offset="0.19" stop-color="#FADE70"/>
<stop offset="0.23" stop-color="#FBE379"/>
<stop offset="0.27" stop-color="#FCE57C"/>
<stop offset="0.48" stop-color="#FDD450"/>
<stop offset="0.64" stop-color="#FEC933"/>
<stop offset="0.74" stop-color="#FFC629"/>
<stop offset="1" stop-color="#EAA200"/>
</linearGradient>
<linearGradient id="paint52_linear_183_1850" x1="34.235" y1="24.9232" x2="43.6885" y2="27.7075" gradientUnits="userSpaceOnUse">
<stop stop-color="#FFC629"/>
<stop offset="0.08" stop-color="#EAA200"/>
<stop offset="0.09" stop-color="#EBA80C"/>
<stop offset="0.11" stop-color="#F0BB2E"/>
<stop offset="0.14" stop-color="#F4CA4A"/>
<stop offset="0.16" stop-color="#F8D660"/>
<stop offset="0.19" stop-color="#FADE70"/>
<stop offset="0.23" stop-color="#FBE379"/>
<stop offset="0.27" stop-color="#FCE57C"/>
<stop offset="0.48" stop-color="#FDD450"/>
<stop offset="0.64" stop-color="#FEC933"/>
<stop offset="0.74" stop-color="#FFC629"/>
<stop offset="1" stop-color="#EAA200"/>
</linearGradient>
<linearGradient id="paint53_linear_183_1850" x1="34.2321" y1="24.9128" x2="43.6856" y2="27.697" gradientUnits="userSpaceOnUse">
<stop stop-color="#FFC629"/>
<stop offset="0.08" stop-color="#EAA200"/>
<stop offset="0.09" stop-color="#EBA80C"/>
<stop offset="0.11" stop-color="#F0BB2E"/>
<stop offset="0.14" stop-color="#F4CA4A"/>
<stop offset="0.16" stop-color="#F8D660"/>
<stop offset="0.19" stop-color="#FADE70"/>
<stop offset="0.23" stop-color="#FBE379"/>
<stop offset="0.27" stop-color="#FCE57C"/>
<stop offset="0.48" stop-color="#FDD450"/>
<stop offset="0.64" stop-color="#FEC933"/>
<stop offset="0.74" stop-color="#FFC629"/>
<stop offset="1" stop-color="#EAA200"/>
</linearGradient>
<linearGradient id="paint54_linear_183_1850" x1="34.2292" y1="24.9028" x2="43.6827" y2="27.6871" gradientUnits="userSpaceOnUse">
<stop stop-color="#FFC629"/>
<stop offset="0.08" stop-color="#EAA200"/>
<stop offset="0.09" stop-color="#EBA80C"/>
<stop offset="0.11" stop-color="#F0BB2E"/>
<stop offset="0.14" stop-color="#F4CA4A"/>
<stop offset="0.16" stop-color="#F8D660"/>
<stop offset="0.19" stop-color="#FADE70"/>
<stop offset="0.23" stop-color="#FBE379"/>
<stop offset="0.27" stop-color="#FCE57C"/>
<stop offset="0.48" stop-color="#FDD450"/>
<stop offset="0.64" stop-color="#FEC933"/>
<stop offset="0.74" stop-color="#FFC629"/>
<stop offset="1" stop-color="#EAA200"/>
</linearGradient>
<linearGradient id="paint55_linear_183_1850" x1="34.226" y1="24.8922" x2="43.6794" y2="27.6766" gradientUnits="userSpaceOnUse">
<stop stop-color="#FFC629"/>
<stop offset="0.08" stop-color="#EAA200"/>
<stop offset="0.09" stop-color="#EBA80C"/>
<stop offset="0.11" stop-color="#F0BB2E"/>
<stop offset="0.14" stop-color="#F4CA4A"/>
<stop offset="0.16" stop-color="#F8D660"/>
<stop offset="0.19" stop-color="#FADE70"/>
<stop offset="0.23" stop-color="#FBE379"/>
<stop offset="0.27" stop-color="#FCE57C"/>
<stop offset="0.48" stop-color="#FDD450"/>
<stop offset="0.64" stop-color="#FEC933"/>
<stop offset="0.74" stop-color="#FFC629"/>
<stop offset="1" stop-color="#EAA200"/>
</linearGradient>
<linearGradient id="paint56_linear_183_1850" x1="34.2231" y1="24.8818" x2="43.6765" y2="27.6661" gradientUnits="userSpaceOnUse">
<stop stop-color="#FFC629"/>
<stop offset="0.08" stop-color="#EAA200"/>
<stop offset="0.09" stop-color="#EBA80C"/>
<stop offset="0.11" stop-color="#F0BB2E"/>
<stop offset="0.14" stop-color="#F4CA4A"/>
<stop offset="0.16" stop-color="#F8D660"/>
<stop offset="0.19" stop-color="#FADE70"/>
<stop offset="0.23" stop-color="#FBE379"/>
<stop offset="0.27" stop-color="#FCE57C"/>
<stop offset="0.48" stop-color="#FDD450"/>
<stop offset="0.64" stop-color="#FEC933"/>
<stop offset="0.74" stop-color="#FFC629"/>
<stop offset="1" stop-color="#EAA200"/>
</linearGradient>
<linearGradient id="paint57_linear_183_1850" x1="34.2203" y1="24.8713" x2="43.6738" y2="27.6556" gradientUnits="userSpaceOnUse">
<stop stop-color="#FFC629"/>
<stop offset="0.08" stop-color="#EAA200"/>
<stop offset="0.09" stop-color="#EBA80C"/>
<stop offset="0.11" stop-color="#F0BB2E"/>
<stop offset="0.14" stop-color="#F4CA4A"/>
<stop offset="0.16" stop-color="#F8D660"/>
<stop offset="0.19" stop-color="#FADE70"/>
<stop offset="0.23" stop-color="#FBE379"/>
<stop offset="0.27" stop-color="#FCE57C"/>
<stop offset="0.48" stop-color="#FDD450"/>
<stop offset="0.64" stop-color="#FEC933"/>
<stop offset="0.74" stop-color="#FFC629"/>
<stop offset="1" stop-color="#EAA200"/>
</linearGradient>
<linearGradient id="paint58_linear_183_1850" x1="34.2174" y1="24.8612" x2="43.6709" y2="27.6455" gradientUnits="userSpaceOnUse">
<stop stop-color="#FFC629"/>
<stop offset="0.08" stop-color="#EAA200"/>
<stop offset="0.09" stop-color="#EBA80C"/>
<stop offset="0.11" stop-color="#F0BB2E"/>
<stop offset="0.14" stop-color="#F4CA4A"/>
<stop offset="0.16" stop-color="#F8D660"/>
<stop offset="0.19" stop-color="#FADE70"/>
<stop offset="0.23" stop-color="#FBE379"/>
<stop offset="0.27" stop-color="#FCE57C"/>
<stop offset="0.48" stop-color="#FDD450"/>
<stop offset="0.64" stop-color="#FEC933"/>
<stop offset="0.74" stop-color="#FFC629"/>
<stop offset="1" stop-color="#EAA200"/>
</linearGradient>
<linearGradient id="paint59_linear_183_1850" x1="34.2142" y1="24.8507" x2="43.6676" y2="27.6349" gradientUnits="userSpaceOnUse">
<stop stop-color="#FFC629"/>
<stop offset="0.08" stop-color="#EAA200"/>
<stop offset="0.09" stop-color="#EBA80C"/>
<stop offset="0.11" stop-color="#F0BB2E"/>
<stop offset="0.14" stop-color="#F4CA4A"/>
<stop offset="0.16" stop-color="#F8D660"/>
<stop offset="0.19" stop-color="#FADE70"/>
<stop offset="0.23" stop-color="#FBE379"/>
<stop offset="0.27" stop-color="#FCE57C"/>
<stop offset="0.48" stop-color="#FDD450"/>
<stop offset="0.64" stop-color="#FEC933"/>
<stop offset="0.74" stop-color="#FFC629"/>
<stop offset="1" stop-color="#EAA200"/>
</linearGradient>
<linearGradient id="paint60_linear_183_1850" x1="34.2113" y1="24.8402" x2="43.6647" y2="27.6245" gradientUnits="userSpaceOnUse">
<stop stop-color="#FFC629"/>
<stop offset="0.08" stop-color="#EAA200"/>
<stop offset="0.09" stop-color="#EBA80C"/>
<stop offset="0.11" stop-color="#F0BB2E"/>
<stop offset="0.14" stop-color="#F4CA4A"/>
<stop offset="0.16" stop-color="#F8D660"/>
<stop offset="0.19" stop-color="#FADE70"/>
<stop offset="0.23" stop-color="#FBE379"/>
<stop offset="0.27" stop-color="#FCE57C"/>
<stop offset="0.48" stop-color="#FDD450"/>
<stop offset="0.64" stop-color="#FEC933"/>
<stop offset="0.74" stop-color="#FFC629"/>
<stop offset="1" stop-color="#EAA200"/>
</linearGradient>
<linearGradient id="paint61_linear_183_1850" x1="34.2084" y1="24.8296" x2="43.6619" y2="27.6139" gradientUnits="userSpaceOnUse">
<stop stop-color="#FFC629"/>
<stop offset="0.08" stop-color="#EAA200"/>
<stop offset="0.09" stop-color="#EBA80C"/>
<stop offset="0.11" stop-color="#F0BB2E"/>
<stop offset="0.14" stop-color="#F4CA4A"/>
<stop offset="0.16" stop-color="#F8D660"/>
<stop offset="0.19" stop-color="#FADE70"/>
<stop offset="0.23" stop-color="#FBE379"/>
<stop offset="0.27" stop-color="#FCE57C"/>
<stop offset="0.48" stop-color="#FDD450"/>
<stop offset="0.64" stop-color="#FEC933"/>
<stop offset="0.74" stop-color="#FFC629"/>
<stop offset="1" stop-color="#EAA200"/>
</linearGradient>
<linearGradient id="paint62_linear_183_1850" x1="34.2057" y1="24.8191" x2="43.6591" y2="27.6033" gradientUnits="userSpaceOnUse">
<stop stop-color="#FFC629"/>
<stop offset="0.08" stop-color="#EAA200"/>
<stop offset="0.09" stop-color="#EBA80C"/>
<stop offset="0.11" stop-color="#F0BB2E"/>
<stop offset="0.14" stop-color="#F4CA4A"/>
<stop offset="0.16" stop-color="#F8D660"/>
<stop offset="0.19" stop-color="#FADE70"/>
<stop offset="0.23" stop-color="#FBE379"/>
<stop offset="0.27" stop-color="#FCE57C"/>
<stop offset="0.48" stop-color="#FDD450"/>
<stop offset="0.64" stop-color="#FEC933"/>
<stop offset="0.74" stop-color="#FFC629"/>
<stop offset="1" stop-color="#EAA200"/>
</linearGradient>
<linearGradient id="paint63_linear_183_1850" x1="34.2028" y1="24.809" x2="43.6563" y2="27.5933" gradientUnits="userSpaceOnUse">
<stop stop-color="#FFC629"/>
<stop offset="0.08" stop-color="#EAA200"/>
<stop offset="0.09" stop-color="#EBA80C"/>
<stop offset="0.11" stop-color="#F0BB2E"/>
<stop offset="0.14" stop-color="#F4CA4A"/>
<stop offset="0.16" stop-color="#F8D660"/>
<stop offset="0.19" stop-color="#FADE70"/>
<stop offset="0.23" stop-color="#FBE379"/>
<stop offset="0.27" stop-color="#FCE57C"/>
<stop offset="0.48" stop-color="#FDD450"/>
<stop offset="0.64" stop-color="#FEC933"/>
<stop offset="0.74" stop-color="#FFC629"/>
<stop offset="1" stop-color="#EAA200"/>
</linearGradient>
<linearGradient id="paint64_linear_183_1850" x1="34.2" y1="24.7985" x2="43.6534" y2="27.5827" gradientUnits="userSpaceOnUse">
<stop stop-color="#FFC629"/>
<stop offset="0.08" stop-color="#EAA200"/>
<stop offset="0.09" stop-color="#EBA80C"/>
<stop offset="0.11" stop-color="#F0BB2E"/>
<stop offset="0.14" stop-color="#F4CA4A"/>
<stop offset="0.16" stop-color="#F8D660"/>
<stop offset="0.19" stop-color="#FADE70"/>
<stop offset="0.23" stop-color="#FBE379"/>
<stop offset="0.27" stop-color="#FCE57C"/>
<stop offset="0.48" stop-color="#FDD450"/>
<stop offset="0.64" stop-color="#FEC933"/>
<stop offset="0.74" stop-color="#FFC629"/>
<stop offset="1" stop-color="#EAA200"/>
</linearGradient>
<linearGradient id="paint65_linear_183_1850" x1="34.1967" y1="24.7878" x2="43.6502" y2="27.5721" gradientUnits="userSpaceOnUse">
<stop stop-color="#FFC629"/>
<stop offset="0.08" stop-color="#EAA200"/>
<stop offset="0.09" stop-color="#EBA80C"/>
<stop offset="0.11" stop-color="#F0BB2E"/>
<stop offset="0.14" stop-color="#F4CA4A"/>
<stop offset="0.16" stop-color="#F8D660"/>
<stop offset="0.19" stop-color="#FADE70"/>
<stop offset="0.23" stop-color="#FBE379"/>
<stop offset="0.27" stop-color="#FCE57C"/>
<stop offset="0.48" stop-color="#FDD450"/>
<stop offset="0.64" stop-color="#FEC933"/>
<stop offset="0.74" stop-color="#FFC629"/>
<stop offset="1" stop-color="#EAA200"/>
</linearGradient>
<linearGradient id="paint66_linear_183_1850" x1="42.3044" y1="53.1944" x2="32.4709" y2="44.9475" gradientUnits="userSpaceOnUse">
<stop stop-color="#FFC629"/>
<stop offset="0.08" stop-color="#EAA200"/>
<stop offset="0.09" stop-color="#EBA80C"/>
<stop offset="0.11" stop-color="#F0BB2E"/>
<stop offset="0.14" stop-color="#F4CA4A"/>
<stop offset="0.16" stop-color="#F8D660"/>
<stop offset="0.19" stop-color="#FADE70"/>
<stop offset="0.23" stop-color="#FBE379"/>
<stop offset="0.27" stop-color="#FCE57C"/>
<stop offset="0.35" stop-color="#FDD450"/>
<stop offset="0.41" stop-color="#FEC933"/>
<stop offset="0.45" stop-color="#FFC629"/>
<stop offset="1" stop-color="#EAA200"/>
</linearGradient>
<linearGradient id="paint67_linear_183_1850" x1="64.426" y1="31.9854" x2="68.5739" y2="33.5601" gradientUnits="userSpaceOnUse">
<stop stop-color="#8C5F15"/>
<stop offset="0.33" stop-color="#A7720E"/>
<stop offset="1" stop-color="#EAA200"/>
</linearGradient>
<linearGradient id="paint68_linear_183_1850" x1="115.11" y1="28.2696" x2="112.288" y2="36.5313" gradientUnits="userSpaceOnUse">
<stop stop-color="#FFC629"/>
<stop offset="0.08" stop-color="#EAA200"/>
<stop offset="0.09" stop-color="#EBA80C"/>
<stop offset="0.11" stop-color="#F0BB2E"/>
<stop offset="0.14" stop-color="#F4CA4A"/>
<stop offset="0.16" stop-color="#F8D660"/>
<stop offset="0.19" stop-color="#FADE70"/>
<stop offset="0.23" stop-color="#FBE379"/>
<stop offset="0.27" stop-color="#FCE57C"/>
<stop offset="0.35" stop-color="#FDD450"/>
<stop offset="0.41" stop-color="#FEC933"/>
<stop offset="0.45" stop-color="#FFC629"/>
<stop offset="1" stop-color="#EAA200"/>
</linearGradient>
<linearGradient id="paint69_linear_183_1850" x1="69.0104" y1="10.1903" x2="68.9194" y2="7.06945" gradientUnits="userSpaceOnUse">
<stop stop-color="#8C5F15"/>
<stop offset="0.33" stop-color="#A7720E"/>
<stop offset="1" stop-color="#EAA200"/>
</linearGradient>
<linearGradient id="paint70_linear_183_1850" x1="107.61" y1="25.5248" x2="117.248" y2="15.6098" gradientUnits="userSpaceOnUse">
<stop stop-color="#8C5F15"/>
<stop offset="0.33" stop-color="#A7720E"/>
<stop offset="1" stop-color="#EAA200"/>
</linearGradient>
<linearGradient id="paint71_linear_183_1850" x1="113.633" y1="18.5481" x2="105.426" y2="28.8582" gradientUnits="userSpaceOnUse">
<stop stop-color="#EAA200"/>
<stop offset="0.73" stop-color="#FCE57C"/>
<stop offset="0.77" stop-color="#FBE379"/>
<stop offset="0.81" stop-color="#FADE70"/>
<stop offset="0.84" stop-color="#F8D660"/>
<stop offset="0.86" stop-color="#F4CA4A"/>
<stop offset="0.89" stop-color="#F0BB2E"/>
<stop offset="0.91" stop-color="#EBA80C"/>
<stop offset="0.92" stop-color="#EAA200"/>
<stop offset="1" stop-color="#FFC629"/>
</linearGradient>
<linearGradient id="paint72_linear_183_1850" x1="63.7975" y1="69.8394" x2="97.6058" y2="69.8394" gradientUnits="userSpaceOnUse">
<stop stop-color="#EB422C"/>
<stop offset="0.06" stop-color="#EA5636"/>
<stop offset="0.19" stop-color="#E97F4A"/>
<stop offset="0.32" stop-color="#E89D59"/>
<stop offset="0.42" stop-color="#E8AF62"/>
<stop offset="0.49" stop-color="#E8B666"/>
<stop offset="0.59" stop-color="#E8B264"/>
<stop offset="0.68" stop-color="#E8A65E"/>
<stop offset="0.78" stop-color="#E89254"/>
<stop offset="0.87" stop-color="#E97646"/>
<stop offset="0.96" stop-color="#EA5334"/>
<stop offset="1" stop-color="#EB422C"/>
</linearGradient>
<linearGradient id="paint73_linear_183_1850" x1="81.4346" y1="87.2027" x2="80.0012" y2="53.4254" gradientUnits="userSpaceOnUse">
<stop stop-color="#D1222A"/>
<stop offset="0.25" stop-color="#D4262C"/>
<stop offset="0.53" stop-color="#DE3332"/>
<stop offset="0.82" stop-color="#EF493B"/>
<stop offset="1" stop-color="#FD5C44"/>
</linearGradient>
</defs>
</svg>
