<svg width="444" height="458" viewBox="0 0 444 458" fill="none" xmlns="http://www.w3.org/2000/svg">
<g clip-path="url(#clip0_1898_83269)">
<path d="M222 0C221.504 0 221.095 0.383084 221.051 0.86194C220.999 1.42786 221.443 1.90672 222 1.90672C225.169 1.90672 228.321 1.97637 231.499 2.10696C232.848 2.10696 232.735 0.200249 231.569 0.200249C228.373 0.0696517 225.204 0.00870646 222 0ZM215.61 2.00249C216.794 2.00249 216.881 0.0957711 215.549 0.0957711C212.362 0.182836 209.167 0.339552 205.989 0.574627C204.7 0.696517 204.918 2.58582 206.137 2.47264C209.28 2.23756 212.467 2.08955 215.618 2.00249H215.61ZM196.682 3.35199C197.866 3.24751 197.779 1.3408 196.455 1.46269C193.278 1.83706 190.134 2.26368 186.974 2.75995C185.685 2.99502 186.086 4.85821 187.279 4.64054C190.413 4.15298 193.539 3.72637 196.69 3.36069L196.682 3.35199ZM177.928 6.32089C179.112 6.10323 178.833 4.22263 177.545 4.449C174.419 5.07587 171.302 5.7985 168.203 6.55597C166.94 6.89552 167.498 8.72387 168.664 8.40174C171.729 7.64427 174.82 6.93034 177.919 6.31218L177.928 6.32089ZM159.514 10.9092C160.689 10.5522 160.21 8.74129 158.974 9.08084C155.909 9.97761 152.871 10.9614 149.85 11.9975C148.579 12.5025 149.414 14.2264 150.468 13.7997C153.463 12.7724 156.475 11.7973 159.514 10.9092ZM141.561 17.0734C142.736 16.6032 142.014 14.8358 140.865 15.2973C137.896 16.4552 134.953 17.7002 132.028 18.9888C130.948 19.4241 131.549 21.2264 132.802 20.7301C135.693 19.4502 138.618 18.2139 141.561 17.0647V17.0734ZM124.209 24.7786C125.341 24.2127 124.479 22.5149 123.356 23.0721C120.518 24.4477 117.636 25.9888 114.876 27.5211C113.848 28.0348 114.58 29.7935 115.807 29.1841C118.541 27.6691 121.397 26.1368 124.209 24.7786ZM107.597 33.9465C108.712 33.1977 107.571 31.6741 106.596 32.3271C103.871 33.99 101.181 35.7052 98.5338 37.49C97.5064 38.1778 98.5425 39.7711 99.6047 39.0659C102.234 37.2985 104.898 35.6007 107.597 33.9465ZM91.8298 44.5161C92.8049 43.7587 91.7776 42.2612 90.698 42.9838C88.1209 44.8731 85.596 46.8234 83.1059 48.8171C82.1482 49.5659 83.2801 51.0982 84.2987 50.3059C86.7714 48.3296 89.2701 46.3967 91.8298 44.5248V44.5161ZM77.0288 56.4005C77.9691 55.5733 76.7154 54.1368 75.7751 54.9639C73.3808 57.0534 70.9953 59.2301 68.7055 61.4328C67.7826 62.3557 69.1669 63.6616 70.0288 62.8084C72.3012 60.6318 74.652 58.4726 77.0288 56.4005ZM63.3075 69.5037C64.152 68.6592 62.8547 67.2574 61.9318 68.189C59.7204 70.4962 57.5612 72.8383 55.4455 75.2325C54.6184 76.1815 56.055 77.4353 56.8821 76.4863C58.9803 74.1094 61.1221 71.7935 63.3162 69.5037H63.3075ZM50.7527 83.7387C51.545 82.7114 50.0127 81.5795 49.2639 82.546C47.2527 85.0273 45.3112 87.5522 43.4045 90.1206C42.6818 91.2002 44.1794 92.2275 44.9368 91.2524C46.8261 88.7101 48.7502 86.2027 50.744 83.7387H50.7527ZM39.4692 98.9925C40.1657 97.9477 38.5811 96.8942 37.8846 97.939C36.1085 100.586 34.3672 103.267 32.7042 105.984C32.06 106.95 33.5836 108.099 34.3324 106.976C35.9866 104.277 37.7105 101.622 39.4692 98.9925ZM29.5351 115.169C30.1445 113.959 28.3858 113.21 27.8635 114.246C26.3137 117.041 24.8249 119.853 23.397 122.709C22.8398 123.832 24.5376 124.685 25.1035 123.562C26.5227 120.733 28.0028 117.938 29.5351 115.169ZM21.0376 132.138C21.5339 130.884 19.7316 130.283 19.2963 131.363C17.9903 134.28 16.754 137.214 15.5786 140.183C15.1172 141.341 16.8846 142.063 17.3547 140.879C18.5301 137.936 19.749 135.02 21.0463 132.129L21.0376 132.138ZM14.0463 149.777C14.4729 148.715 12.749 147.879 12.2441 149.159C11.1906 152.18 10.2242 155.21 9.30127 158.275C8.96172 159.511 10.7727 159.999 11.1296 158.815C12.0438 155.785 13.0015 152.772 14.0463 149.777ZM8.60476 167.965C8.9269 166.798 7.09854 166.241 6.75899 167.504C5.9754 170.603 5.27018 173.711 4.6172 176.837C4.38212 178.126 6.27142 178.404 6.48909 177.22C7.13336 174.121 7.82988 171.038 8.61346 167.965H8.60476ZM4.76521 186.553C4.98287 185.369 3.11969 184.969 2.88461 186.257C2.37093 189.409 1.93561 192.57 1.56123 195.739C1.43934 197.045 3.34605 197.149 3.45924 195.956C3.82491 192.813 4.26894 189.679 4.77391 186.553H4.76521ZM2.54506 205.403C2.65824 204.201 0.760234 203.966 0.64705 205.272C0.411976 208.468 0.263966 211.637 0.142075 214.832C0.142075 216.147 2.04879 216.077 2.04879 214.884C2.24904 211.732 2.31869 208.581 2.55377 205.403H2.54506ZM1.94431 224.374C1.94431 223.147 0.0375977 223.112 0.0375977 224.4C0.063717 227.587 0.168195 230.791 0.342324 233.969C0.464214 235.301 2.35352 235.031 2.24904 233.856C2.07491 230.704 1.97043 227.526 1.94431 224.374ZM2.95426 243.328C2.84108 242.101 0.94307 242.249 1.05625 243.52C1.36969 246.689 1.71794 249.875 2.17939 253.027C2.42317 254.342 4.27764 253.907 4.06869 252.749C3.55501 249.736 3.25899 246.375 2.95426 243.319V243.328ZM5.58361 262.125C5.35725 260.898 3.48536 261.229 3.71172 262.474C4.27764 265.608 4.94804 268.742 5.65327 271.851C5.85351 272.974 7.76023 272.765 7.50774 271.424C6.81122 268.342 6.14083 265.242 5.58361 262.134V262.125ZM9.83237 280.618C9.50152 279.416 7.66446 279.904 7.9953 281.132C8.83983 284.205 9.76272 287.27 10.7465 290.308C11.0948 291.458 12.9406 290.97 12.5575 289.716C11.5911 286.704 10.6682 283.674 9.83237 280.627V280.618ZM15.6744 298.675C15.1868 297.456 13.4368 298.222 13.8896 299.346C14.9953 302.341 16.1881 305.301 17.4244 308.244C17.8771 309.367 19.662 308.714 19.1831 307.504C17.9642 304.587 16.7714 301.653 15.6831 298.684L15.6744 298.675ZM23.0575 316.158C22.4829 315 20.7938 315.897 21.3423 316.985C22.7179 319.858 24.1284 322.731 25.6346 325.543C26.1657 326.605 27.907 325.831 27.3149 324.647C25.8261 321.852 24.4244 319.013 23.0575 316.158ZM31.9294 332.935C31.1632 331.777 29.657 332.961 30.2838 333.902C31.9032 336.653 33.5662 339.378 35.2988 342.059C36.0127 343.13 37.5799 342.042 36.9008 341.023C35.1769 338.368 33.5314 335.669 31.9294 332.935ZM42.2117 348.885C41.5587 347.902 39.9219 348.885 40.6532 349.991C42.499 352.603 44.397 355.154 46.3473 357.688C47.1221 358.68 48.6197 357.505 47.8535 356.521C45.9207 354.013 44.0313 351.48 42.203 348.894L42.2117 348.885ZM53.8261 363.895C52.9729 362.92 51.5711 364.209 52.3721 365.123C54.4095 367.561 56.5512 369.972 58.7104 372.306C59.494 373.194 60.9828 372.01 60.1035 371.008C57.9704 368.727 55.8286 366.298 53.8261 363.895ZM66.6856 377.852C65.8062 376.972 64.448 378.313 65.3448 379.21C67.6085 381.465 69.9157 383.659 72.2664 385.818C73.2415 386.671 74.4604 385.209 73.5463 384.408C71.2129 382.266 68.9231 380.089 66.6769 377.852H66.6856ZM80.6943 390.659C79.7888 389.867 78.4828 391.26 79.4754 392.122C81.9219 394.176 84.4119 396.161 86.9455 398.112C87.9206 398.869 89.1134 397.38 88.1035 396.597C85.596 394.664 83.1234 392.688 80.703 390.659H80.6943ZM95.7477 402.212C94.6681 401.49 93.6495 403.109 94.6594 403.78C97.2801 405.608 99.9181 407.393 102.617 409.108C103.618 409.77 104.724 408.229 103.636 407.497C100.963 405.791 98.351 404.023 95.7477 402.212ZM111.741 412.434C110.531 411.833 109.765 413.513 110.792 414.088C113.561 415.69 116.347 417.231 119.177 418.711C120.335 419.286 121.144 417.562 120.056 417.022C117.253 415.551 114.484 414.027 111.741 412.443V412.434ZM128.554 421.236C127.483 420.705 126.569 422.377 127.744 422.96C130.635 424.318 133.551 425.607 136.494 426.843C137.687 427.322 138.357 425.537 137.225 425.084C134.309 423.857 131.418 422.586 128.545 421.236H128.554ZM146.062 428.549C144.957 428.105 144.173 429.847 145.409 430.343C148.404 431.449 151.426 432.476 154.464 433.451C155.7 433.826 156.214 431.98 155.039 431.632C152.026 430.665 149.031 429.646 146.062 428.549ZM164.146 434.313C162.935 433.982 162.431 435.819 163.649 436.15C166.732 436.986 169.831 437.752 172.939 438.457C174.271 438.701 174.498 436.803 173.357 436.594C170.266 435.889 167.202 435.14 164.146 434.304V434.313ZM182.664 438.492C181.437 438.266 181.088 440.146 182.325 440.373C185.468 440.939 188.62 441.435 191.78 441.87C193.13 441.992 193.182 440.086 192.032 439.981C188.898 439.554 185.773 439.058 182.656 438.501L182.664 438.492ZM201.47 441.052C200.225 440.939 200.042 442.837 201.305 442.95C204.483 443.237 207.669 443.464 210.856 443.629C212.118 443.629 212.205 441.836 210.943 441.722C207.782 441.574 204.622 441.339 201.479 441.052H201.47ZM220.433 441.992C219.162 441.992 219.179 443.899 220.424 443.899C223.611 443.925 226.815 443.873 230.001 443.76C231.168 443.76 231.273 441.853 229.932 441.853C226.771 441.966 223.602 442.018 220.442 441.992H220.433ZM239.396 441.322C238.125 441.435 238.325 443.333 239.552 443.22C242.73 442.967 245.917 442.663 249.086 442.271C250.253 442.166 250.183 440.26 248.842 440.382C245.717 440.782 242.539 441.078 239.396 441.322ZM258.236 439.032C256.983 439.258 257.348 441.13 258.559 440.913C261.71 440.382 264.827 439.798 267.962 439.145C269.128 438.936 268.867 437.038 267.57 437.282C264.462 437.926 261.371 438.51 258.236 439.041V439.032ZM276.816 435.114C275.571 435.454 276.111 437.282 277.295 436.96C280.386 436.185 283.468 435.297 286.515 434.383C287.708 434.026 287.168 432.197 285.958 432.554C282.937 433.469 279.881 434.348 276.816 435.114ZM294.978 429.603C293.724 430.108 294.534 431.832 295.613 431.396C298.626 430.343 301.612 429.202 304.572 428.027C305.739 427.566 305.034 425.79 303.858 426.26C300.924 427.435 297.964 428.558 294.978 429.603ZM312.591 422.542C311.398 423.143 312.33 424.797 313.383 424.275C316.282 422.951 319.182 421.593 322.02 420.139C323.117 419.591 322.299 417.867 321.149 418.441C318.328 419.878 315.464 421.227 312.591 422.542ZM329.525 413.975C328.515 414.48 329.229 416.247 330.465 415.629C333.251 414.062 335.994 412.443 338.71 410.762C339.816 410.022 338.684 408.49 337.7 409.143C335.01 410.814 332.285 412.416 329.525 413.966V413.975ZM345.658 403.98C344.639 404.659 345.667 406.261 346.738 405.556C349.376 403.762 351.97 401.908 354.53 400.001C355.557 399.2 354.347 397.729 353.389 398.477C350.847 400.367 348.279 402.204 345.658 403.989V403.98ZM360.877 392.635C359.919 393.48 361.095 394.882 362.078 394.115C364.542 392.122 367.015 390.023 369.374 387.908C370.297 387.098 369.07 385.644 368.103 386.489C365.753 388.587 363.323 390.659 360.877 392.635ZM375.06 380.028C374.154 380.934 375.521 382.266 376.392 381.395C378.682 379.175 380.928 376.911 383.122 374.587C383.958 373.629 382.626 372.393 381.738 373.281C379.561 375.579 377.332 377.826 375.06 380.028ZM388.119 366.246C387.301 367.186 388.729 368.449 389.565 367.491C391.663 365.079 393.692 362.624 395.685 360.134C396.469 359.124 394.945 357.975 394.197 358.95C392.22 361.423 390.2 363.86 388.119 366.246ZM399.943 351.401C399.203 352.516 400.84 353.491 401.493 352.516C403.364 349.93 405.202 347.318 406.96 344.654C407.648 343.618 406.072 342.547 405.367 343.609C403.608 346.247 401.806 348.833 399.943 351.401ZM410.452 335.591C409.816 336.54 411.331 337.715 412.088 336.574C413.743 333.841 415.327 331.072 416.859 328.277C417.46 327.084 415.71 326.318 415.188 327.372C413.673 330.149 412.088 332.892 410.452 335.599V335.591ZM419.558 318.935C419.001 320.041 420.699 320.911 421.274 319.771C422.684 316.906 424.025 314.007 425.313 311.091C425.81 309.854 424.007 309.227 423.563 310.324C422.284 313.224 420.96 316.097 419.558 318.935ZM427.194 301.557C426.741 302.698 428.5 303.438 428.97 302.245C430.128 299.276 431.208 296.263 432.244 293.251C432.601 292.058 430.92 291.44 430.442 292.642C429.414 295.637 428.352 298.614 427.203 301.566L427.194 301.557ZM433.289 283.587C432.949 284.841 434.803 285.293 435.117 284.118C436.014 281.053 436.832 277.971 437.59 274.872C437.903 273.722 436.083 273.148 435.735 274.419C434.978 277.492 434.168 280.548 433.28 283.587H433.289ZM437.799 265.155C437.563 266.426 439.453 266.722 439.67 265.53C440.297 262.395 440.846 259.252 441.333 256.101C441.542 254.925 439.688 254.507 439.453 255.813C438.965 258.939 438.425 262.056 437.799 265.164V265.155ZM440.698 246.402C440.576 247.69 442.483 247.821 442.596 246.611C442.944 243.441 443.231 240.255 443.44 237.068C443.545 235.884 441.655 235.632 441.534 236.946C441.325 240.098 441.037 243.259 440.689 246.402H440.698ZM441.978 227.465C441.978 228.762 443.884 228.71 443.884 227.5C443.954 224.305 443.971 221.127 443.919 217.931C443.919 216.721 442.012 216.669 442.012 217.966C442.065 221.135 442.047 224.287 441.978 227.465ZM441.638 208.485C441.76 209.8 443.649 209.547 443.545 208.363C443.353 205.176 443.101 201.99 442.761 198.821C442.648 197.611 440.75 197.732 440.863 199.03C441.194 202.173 441.447 205.333 441.638 208.485ZM439.688 189.609C439.923 190.907 441.786 190.489 441.568 189.322C441.098 186.179 440.593 182.992 439.966 179.884C439.749 178.683 437.868 178.979 438.095 180.259C438.713 183.349 439.218 186.501 439.679 189.618L439.688 189.609ZM436.109 170.96C436.432 172.162 438.199 171.796 437.964 170.516C437.25 167.417 436.414 164.317 435.552 161.252C435.23 160.068 433.384 160.538 433.715 161.775C434.568 164.813 435.396 167.887 436.109 170.96ZM430.929 152.703C431.269 153.843 433.123 153.373 432.74 152.102C431.756 149.072 430.659 146.06 429.536 143.082C429.057 141.88 427.299 142.629 427.751 143.761C428.866 146.713 429.954 149.699 430.929 152.703ZM424.19 134.968C424.626 136.065 426.428 135.438 425.94 134.201C424.669 131.276 423.363 128.359 421.961 125.495C421.387 124.354 419.698 125.225 420.246 126.331C421.631 129.178 422.928 132.06 424.19 134.968ZM415.937 117.877C416.459 118.93 418.209 118.164 417.608 116.971C416.093 114.159 414.526 111.382 412.889 108.639C412.132 107.499 410.617 108.665 411.253 109.623C412.872 112.348 414.422 115.099 415.928 117.885L415.937 117.877ZM406.238 101.561C406.943 102.614 408.519 101.543 407.831 100.516C406.081 97.8432 404.279 95.2139 402.415 92.6193C401.762 91.6442 400.126 92.6193 400.866 93.7338C402.711 96.3109 404.505 98.9141 406.238 101.561ZM395.163 86.1417C395.929 87.1256 397.444 85.9676 396.66 84.9664C394.719 82.4589 392.655 79.9689 390.583 77.5572C389.748 76.5994 388.32 77.8706 389.138 78.8022C391.184 81.1878 393.23 83.6517 395.154 86.133L395.163 86.1417ZM382.817 71.7325C383.705 72.6206 385.046 71.3843 384.202 70.4266C382.016 68.0932 379.796 65.8121 377.515 63.5746C376.644 62.7039 375.277 64.0273 376.183 64.9415C378.447 67.1616 380.649 69.4253 382.809 71.7325H382.817ZM369.279 58.4291C370.245 59.2736 371.473 57.8196 370.55 57.0099C368.182 54.8681 365.761 52.796 363.306 50.7587C362.409 49.9751 361.095 51.3594 362.096 52.2301C364.534 54.25 366.928 56.3134 369.279 58.4291ZM354.652 46.3358C355.61 47.0845 356.82 45.6044 355.792 44.8122C353.241 42.8967 350.664 41.0161 348.035 39.2052C346.973 38.4913 345.937 40.0933 346.955 40.7811C349.559 42.5746 352.118 44.4378 354.643 46.3445L354.652 46.3358ZM339.032 35.5398C340.016 36.2015 341.148 34.6604 340.042 33.9204C337.335 32.2226 334.601 30.5858 331.832 29.0012C330.596 28.3831 329.882 30.1505 330.892 30.6642C333.643 32.2313 336.351 33.8594 339.032 35.5485V35.5398ZM322.542 26.1368C323.683 26.7114 324.51 24.9875 323.413 24.439C320.575 22.9764 317.702 21.5833 314.811 20.2425C313.758 19.7201 312.817 21.3831 314.019 21.9751C316.892 23.3072 319.739 24.6828 322.551 26.1368H322.542ZM305.304 18.1878C306.488 18.6579 307.167 16.8818 306.026 16.4204C303.075 15.2015 300.088 14.0783 297.093 12.99C296.005 12.5547 295.204 14.2873 296.449 14.7836C299.427 15.8632 302.387 16.9863 305.312 18.1878H305.304ZM287.438 11.7711C288.666 12.1368 289.179 10.2997 288.004 9.95149C284.93 9.03731 281.909 8.13184 278.801 7.30472C277.608 6.98258 277.086 8.81094 278.314 9.15049C281.387 9.97761 284.382 10.8657 287.438 11.7711ZM269.085 6.92164C270.399 7.16542 270.643 5.26741 269.494 5.05845C266.377 4.37064 263.234 3.7699 260.1 3.22139C258.889 3.00373 258.515 4.87562 259.777 5.10199C262.894 5.65049 266.003 6.24253 269.093 6.92164H269.085ZM250.383 3.68283C251.715 3.80472 251.794 1.89801 250.627 1.79353C247.458 1.38433 244.289 1.04478 241.102 0.774875C239.866 0.661691 239.674 2.5597 240.945 2.67288C244.097 2.94278 247.249 3.27363 250.383 3.68283Z" fill="#E6B862" fill-opacity="0.16"/>
<path d="M345.04 69.3984C345.467 68.3275 343.743 67.5091 343.238 68.7715C342.184 71.7492 341.044 74.6832 339.781 77.5825C339.285 78.8188 341.087 79.4457 341.531 78.3399C342.811 75.3972 343.969 72.4283 345.04 69.3984ZM341.618 370.781C342.088 371.957 343.856 371.234 343.394 370.085C342.228 367.098 340.948 364.173 339.564 361.283C338.989 360.125 337.3 361.021 337.848 362.11C339.215 364.957 340.478 367.847 341.627 370.781H341.618ZM335.271 357.043C335.794 358.096 337.544 357.33 336.952 356.137C335.437 353.316 333.826 350.547 332.102 347.848C331.38 346.76 329.821 347.866 330.491 348.876C332.189 351.54 333.774 354.265 335.271 357.043ZM327.348 344.148C328.019 345.149 329.638 344.148 328.907 343.051C327.087 340.431 325.137 337.862 323.117 335.39C322.238 334.388 320.862 335.712 321.646 336.6C323.631 339.038 325.555 341.571 327.348 344.148ZM317.963 332.273C318.773 333.204 320.227 331.968 319.382 331.001C317.266 328.625 315.037 326.274 312.739 324.062C311.886 323.209 310.493 324.515 311.416 325.438C313.679 327.632 315.865 329.913 317.963 332.273ZM307.254 321.572C308.203 322.408 309.457 320.963 308.516 320.145C306.148 318.038 303.641 315.939 301.107 314.033C300.141 313.284 298.939 314.764 299.958 315.556C302.457 317.463 304.903 319.483 307.254 321.572ZM295.37 312.204C296.449 312.927 297.468 311.307 296.458 310.637C293.82 308.8 291.147 307.085 288.387 305.439C287.447 304.812 286.263 306.31 287.412 307.076C290.128 308.696 292.766 310.393 295.37 312.204ZM282.467 304.29C283.642 304.873 284.434 303.141 283.363 302.61C280.534 301.104 277.669 299.702 274.735 298.396C273.49 297.9 272.872 299.702 273.969 300.146C276.86 301.434 279.681 302.81 282.475 304.299L282.467 304.29ZM268.719 297.952C269.868 298.413 270.6 296.654 269.407 296.176C266.421 295 263.399 293.964 260.344 293.015C259.125 292.65 258.593 294.478 259.786 294.835C262.799 295.766 265.785 296.794 268.719 297.952ZM254.319 293.294C255.503 293.616 256.034 291.788 254.797 291.448C251.663 290.664 248.598 289.968 245.421 289.385C244.184 289.158 243.845 291.039 245.081 291.256C248.215 291.831 251.237 292.519 254.319 293.294ZM239.474 290.368C240.832 290.49 240.876 288.584 239.727 288.479C236.549 288.044 233.371 287.739 230.167 287.539C228.992 287.434 228.73 289.324 230.054 289.446C233.205 289.655 236.331 289.951 239.465 290.377L239.474 290.368ZM224.386 289.21C225.674 289.21 225.64 287.304 224.412 287.304C221.208 287.251 218.021 287.304 214.817 287.478C213.485 287.6 213.755 289.489 214.922 289.385C218.082 289.219 221.225 289.158 224.386 289.219V289.21ZM209.263 289.811C210.49 289.698 210.342 287.8 209.071 287.913C205.893 288.227 202.698 288.653 199.555 289.202C198.31 289.428 198.658 291.3 199.886 291.082C202.977 290.534 206.137 290.116 209.263 289.811ZM194.314 292.179C195.463 291.97 195.228 290.072 193.896 290.316C190.77 291.004 187.662 291.805 184.597 292.719C183.396 293.076 183.944 294.904 185.146 294.548C188.176 293.642 191.223 292.858 194.305 292.179H194.314ZM179.756 296.298C181.019 295.793 180.201 294.069 179.13 294.495C176.108 295.54 173.122 296.715 170.188 297.987C169.082 298.431 169.718 300.224 170.946 299.737C173.845 298.483 176.779 297.325 179.756 296.298ZM165.783 302.113C166.923 301.548 166.053 299.85 164.938 300.407C162.065 301.809 159.235 303.315 156.467 304.934C155.378 305.657 156.362 307.172 157.433 306.58C160.167 304.987 162.944 303.506 165.783 302.122V302.113ZM152.592 309.54C153.663 308.826 152.575 307.259 151.556 307.938C148.866 309.653 146.228 311.508 143.677 313.423C142.658 314.215 143.86 315.696 144.826 314.947C147.334 313.057 149.946 311.229 152.592 309.54ZM140.368 318.464C141.361 317.594 140.046 316.209 139.15 316.993C136.686 319.021 134.265 321.154 131.967 323.366C131.044 324.289 132.437 325.595 133.29 324.742C135.571 322.565 137.931 320.467 140.368 318.464ZM129.276 328.755C130.13 327.902 128.824 326.509 127.892 327.441C125.672 329.756 123.556 332.142 121.51 334.606C120.727 335.503 122.111 336.817 122.982 335.825C125.002 333.396 127.091 331.045 129.276 328.755ZM119.456 340.274C120.204 339.316 118.724 338.106 117.932 339.125C115.999 341.684 114.171 344.296 112.429 346.987C111.75 348.005 113.317 349.094 114.031 348.023C115.755 345.367 117.549 342.79 119.456 340.265V340.274ZM111.054 352.863C111.637 351.81 110.14 350.809 109.4 351.906C107.789 354.674 106.265 357.487 104.864 360.368C104.315 361.474 106.004 362.353 106.579 361.204C107.972 358.366 109.461 355.597 111.054 352.863ZM104.193 366.358C104.689 365.131 102.887 364.495 102.443 365.601C101.163 368.544 100.005 371.513 98.9344 374.534C98.5078 375.605 100.232 376.423 100.737 375.161C101.79 372.183 102.931 369.249 104.193 366.35V366.358ZM102.356 73.1509C101.886 71.9755 100.118 72.6982 100.58 73.8474C101.755 76.8337 103.026 79.7591 104.411 82.6496C104.985 83.8076 106.674 82.9108 106.126 81.8225C104.759 78.9668 103.505 76.0937 102.347 73.1509H102.356ZM108.703 86.8897C108.172 85.8362 106.431 86.6024 107.023 87.7952C108.538 90.6161 110.148 93.376 111.863 96.0837C112.586 97.172 114.145 96.0663 113.474 95.0564C111.776 92.3922 110.192 89.6671 108.694 86.8897H108.703ZM116.626 99.784C115.956 98.7827 114.336 99.784 115.067 100.881C116.887 103.502 118.837 106.079 120.857 108.543C121.737 109.544 123.112 108.221 122.329 107.332C120.344 104.912 118.411 102.352 116.626 99.784ZM126.011 111.66C125.202 110.728 123.748 111.964 124.592 112.931C126.708 115.316 128.946 117.65 131.235 119.861C132.097 120.723 133.482 119.408 132.559 118.485C130.304 116.309 128.101 114.002 126.011 111.651V111.66ZM136.72 122.351C135.771 121.515 134.518 122.961 135.458 123.779C137.844 125.903 140.325 127.949 142.867 129.891C143.834 130.648 145.035 129.16 144.016 128.376C141.509 126.417 139.097 124.467 136.72 122.36V122.351ZM148.605 131.719C147.525 130.997 146.507 132.616 147.516 133.286C150.155 135.123 152.827 136.839 155.587 138.484C156.528 139.111 157.712 137.614 156.562 136.847C153.846 135.228 151.208 133.53 148.605 131.719ZM161.508 139.633C160.332 139.05 159.54 140.783 160.62 141.323C163.449 142.829 166.314 144.239 169.248 145.536C170.493 146.033 171.111 144.23 170.014 143.786C167.123 142.507 164.294 141.122 161.508 139.633ZM175.255 145.972C174.106 145.51 173.375 147.278 174.567 147.748C177.554 148.915 180.566 149.959 183.631 150.908C184.85 151.274 185.381 149.437 184.188 149.089C181.167 148.157 178.198 147.121 175.255 145.972ZM189.656 150.638C188.472 150.316 187.932 152.145 189.177 152.484C192.346 153.216 195.341 153.956 198.554 154.548C199.79 154.774 200.13 152.893 198.893 152.676C195.733 152.092 192.773 151.361 189.656 150.638ZM204.5 153.564C203.142 153.442 203.099 155.349 204.248 155.453C207.426 155.888 210.603 156.193 213.807 156.402C214.983 156.507 215.244 154.617 213.921 154.495C210.769 154.286 207.643 153.99 204.509 153.564H204.5ZM219.589 154.722C218.3 154.722 218.335 156.628 219.562 156.628C222.775 156.681 225.953 156.628 229.157 156.454C230.489 156.332 230.219 154.443 229.052 154.548C225.892 154.713 222.749 154.774 219.589 154.722ZM234.712 154.121C233.484 154.234 233.632 156.132 234.903 156.019C238.081 155.714 241.276 155.279 244.419 154.73C245.664 154.504 245.316 152.632 244.089 152.85C240.998 153.398 237.837 153.816 234.712 154.121ZM249.661 151.753C248.511 151.962 248.746 153.86 250.079 153.616C253.195 152.928 256.312 152.136 259.377 151.213C260.579 150.856 260.03 149.028 258.829 149.385C255.807 150.29 252.751 151.074 249.669 151.753H249.661ZM264.227 147.635C262.964 148.14 263.783 149.864 264.853 149.437C267.875 148.392 270.861 147.217 273.795 145.946C274.901 145.502 274.265 143.699 273.038 144.196C270.138 145.449 267.204 146.599 264.227 147.635ZM278.192 141.827C277.06 142.393 277.922 144.091 279.036 143.534C281.918 142.123 284.73 140.626 287.508 139.007C288.596 138.284 287.612 136.769 286.541 137.361C283.807 138.954 281.03 140.426 278.192 141.819V141.827ZM291.382 134.401C290.311 135.115 291.399 136.682 292.418 136.003C295.1 134.288 297.755 132.433 300.297 130.509C301.307 129.717 300.115 128.237 299.148 128.994C296.632 130.883 294.038 132.703 291.391 134.401H291.382ZM303.606 125.477C302.613 126.347 303.928 127.732 304.825 126.948C307.289 124.92 309.709 122.786 312.008 120.575C312.931 119.652 311.546 118.346 310.684 119.199C308.36 121.376 306.061 123.457 303.606 125.477ZM314.698 115.186C313.853 116.039 315.151 117.432 316.082 116.5C318.302 114.184 320.418 111.799 322.464 109.335C323.248 108.438 321.863 107.124 320.993 108.116C318.973 110.545 316.883 112.905 314.698 115.186ZM324.51 103.667C323.761 104.625 325.241 105.835 326.034 104.808C327.967 102.248 329.786 99.6359 331.536 96.9457C332.215 95.927 330.648 94.8387 329.934 95.9096C328.21 98.5651 326.417 101.133 324.51 103.667ZM332.912 91.0775C332.32 92.1397 333.826 93.1322 334.557 92.0352C336.168 89.2666 337.683 86.4544 339.102 83.5725C339.651 82.4668 337.962 81.5875 337.387 82.7367C336.003 85.575 334.505 88.3524 332.912 91.0775Z" fill="#E6B862" fill-opacity="0.16"/>
<path d="M222 91.6091C220.424 91.6091 218.84 91.6352 217.264 91.6962C216.097 91.6962 215.993 93.6029 217.333 93.6029C222.052 93.4375 226.754 93.5245 231.455 93.8641C232.657 93.9773 232.892 92.0793 231.586 91.9661C228.382 91.731 225.204 91.6265 221.991 91.6178L222 91.6091ZM211.666 93.925C212.937 93.8119 212.736 91.9139 211.509 92.027C208.34 92.2708 205.11 92.6365 201.967 93.1415C200.678 93.3765 201.078 95.2397 202.263 95.0221C205.362 94.5345 208.531 94.1688 211.657 93.925H211.666ZM196.682 96.0059C197.866 95.7882 197.587 93.9076 196.299 94.134C193.173 94.7609 190.021 95.4922 186.957 96.3629C185.773 96.685 186.243 98.5308 187.479 98.1999C190.518 97.3467 193.591 96.624 196.682 96.0059ZM182.046 99.8454C183.187 99.5059 182.717 97.6514 181.445 98.0345C178.407 99.027 175.394 100.133 172.434 101.36C171.302 101.813 171.973 103.598 173.166 103.119C176.082 101.918 179.042 100.829 182.046 99.8454ZM167.968 105.391C169.143 104.799 168.229 103.128 167.158 103.668C164.25 105.017 161.412 106.48 158.608 108.03C157.581 108.543 158.312 110.302 159.54 109.692C162.3 108.16 165.103 106.724 167.968 105.391ZM154.647 112.566C155.753 111.826 154.621 110.293 153.637 110.946C150.912 112.635 148.256 114.403 145.662 116.283C144.695 116.928 145.662 118.573 146.785 117.824C149.345 115.97 151.965 114.229 154.647 112.566ZM142.258 121.255C143.233 120.497 142.084 118.974 141.074 119.766C138.505 121.794 136.241 123.928 133.769 126.008C132.881 126.792 134.065 128.281 135.066 127.401C137.121 125.347 139.95 123.074 142.258 121.255ZM130.974 131.337C131.853 130.457 130.513 129.099 129.616 129.996C127.352 132.277 125.193 134.61 123.095 137.039C122.285 137.962 123.695 139.242 124.54 138.276C126.603 135.881 128.736 133.574 130.965 131.328L130.974 131.337ZM120.944 142.664C121.71 141.671 120.213 140.505 119.438 141.497C117.462 144.022 115.581 146.599 113.788 149.263C113.091 150.308 114.676 151.37 115.372 150.317C117.14 147.696 118.994 145.163 120.944 142.664ZM112.307 155.097C112.952 154.13 111.428 152.981 110.679 154.104C109.008 156.838 107.458 159.633 105.978 162.48C105.403 163.62 107.127 164.447 107.676 163.35C109.13 160.547 110.662 157.796 112.307 155.097ZM105.194 168.452C105.664 167.268 104.019 166.537 103.453 167.669C102.13 170.577 100.876 173.537 99.7788 176.541C99.3348 177.646 101.076 178.43 101.572 177.194C102.678 174.233 103.888 171.334 105.194 168.452ZM99.7092 182.557C100.084 181.321 98.2378 180.816 97.8895 181.982C96.9057 185.038 96.0437 188.112 95.2863 191.228C95.0512 192.5 96.8186 192.865 97.1407 191.672C97.8808 188.608 98.7427 185.569 99.7004 182.566L99.7092 182.557ZM95.9306 197.21C96.1569 195.956 94.2763 195.643 94.0587 196.853C93.4492 200.005 92.9529 203.156 92.5699 206.343C92.448 207.649 94.3547 207.753 94.4679 206.561C94.8335 203.435 95.3385 200.309 95.9393 197.219L95.9306 197.21ZM93.9107 212.202C94.0238 211.001 92.1258 210.766 92.0126 212.072C91.7776 215.276 91.6644 218.445 91.647 221.666C91.647 222.163 92.0301 222.572 92.5089 222.615C93.0748 222.676 93.5537 222.223 93.5537 221.666C93.5624 218.497 93.6843 215.363 93.9194 212.211L93.9107 212.202ZM93.6582 227.334C93.545 226.072 91.7515 226.15 91.7515 227.421C91.8733 230.573 92.1084 233.864 92.5002 236.998C92.6047 238.182 94.5114 238.095 94.3895 236.772C94.0325 233.646 93.7801 230.486 93.6582 227.343V227.334ZM95.1644 242.388C94.9293 241.117 93.0661 241.5 93.2838 242.701C93.7975 245.879 94.4156 248.987 95.147 252.113C95.4691 253.314 97.2365 252.94 97.0014 251.669C96.2788 248.578 95.6694 245.513 95.1644 242.379V242.388ZM98.438 257.163C98.1159 255.987 96.2701 256.44 96.6097 257.694C97.489 260.767 98.4728 263.823 99.5786 266.827C100.066 268.046 101.816 267.279 101.363 266.156C100.249 263.266 99.2912 260.14 98.438 257.163ZM103.436 271.45C102.983 270.327 101.198 270.98 101.677 272.19C102.913 275.141 104.254 278.049 105.708 280.905C106.256 282.002 107.98 281.184 107.406 280.034C105.978 277.214 104.654 274.358 103.436 271.45ZM110.087 285.041C109.582 284.031 107.806 284.745 108.433 285.981C110.009 288.776 111.689 291.492 113.457 294.156C114.153 295.201 115.738 294.148 115.041 293.094C113.3 290.456 111.637 287.783 110.087 285.032V285.041ZM118.297 297.752C117.54 296.777 116.042 297.804 116.765 298.884C118.663 301.47 120.639 303.968 122.72 306.415C123.565 307.381 124.984 306.102 124.166 305.179C122.12 302.776 120.169 300.303 118.297 297.752ZM127.944 309.419C127.161 308.531 125.672 309.715 126.551 310.716C128.719 313.058 131 315.339 133.351 317.507C134.343 318.369 135.545 316.889 134.639 316.105C132.332 313.963 130.086 311.726 127.944 309.419ZM138.88 319.875C137.965 319.074 136.677 320.476 137.652 321.329C140.098 323.41 142.606 325.369 145.192 327.276C146.324 328.024 147.281 326.379 146.315 325.735C143.764 323.863 141.291 321.921 138.88 319.875ZM150.964 328.982C149.928 328.294 148.857 329.87 149.919 330.575C152.592 332.343 155.309 334.023 158.103 335.59C159.322 336.2 160.062 334.441 159.035 333.927C156.284 332.378 153.602 330.723 150.964 328.982ZM164.041 336.609C162.909 336.043 162.065 337.75 163.179 338.315C166.035 339.769 168.943 341.093 171.903 342.338C173.096 342.817 173.766 341.032 172.634 340.579C169.718 339.36 166.853 338.046 164.041 336.618V336.609ZM177.919 342.634C176.831 342.199 176.03 343.931 177.275 344.427C180.296 345.524 183.317 346.5 186.408 347.388C187.636 347.718 188.115 345.881 186.922 345.551C183.883 344.697 180.88 343.713 177.919 342.634ZM192.416 346.97C191.066 346.726 190.857 348.624 191.989 348.824C195.132 349.555 198.231 350.156 201.409 350.679C202.576 350.888 203.003 349.033 201.697 348.798C198.571 348.293 195.498 347.692 192.416 346.97ZM207.321 349.564C206.032 349.451 205.902 351.349 207.121 351.462C210.316 351.819 213.485 352.063 216.689 352.194C218.039 352.194 217.926 350.287 216.759 350.287C213.59 350.156 210.473 349.912 207.321 349.564ZM222.435 350.391C221.19 350.391 221.173 352.298 222.444 352.298C225.561 352.298 228.948 352.22 232.039 351.915C233.31 351.802 233.11 349.904 231.882 350.017C228.73 350.252 225.596 350.383 222.427 350.391H222.435ZM237.541 349.46C236.357 349.564 236.444 351.471 237.768 351.349C240.893 351.018 244.167 350.452 247.258 349.843C248.459 349.625 248.163 347.745 246.883 347.971C243.845 348.563 240.615 349.129 237.541 349.451V349.46ZM252.429 346.761C251.158 347.109 251.733 348.929 252.882 348.615C255.99 347.866 259.081 346.978 262.12 346.003C263.269 345.655 262.781 343.809 261.527 344.192C258.532 345.159 255.485 346.029 252.421 346.769L252.429 346.761ZM266.891 342.32C265.689 342.799 266.438 344.558 267.57 344.105C270.539 342.991 273.569 341.772 276.433 340.414C277.617 339.822 276.694 338.15 275.623 338.69C272.776 340.022 269.825 341.215 266.891 342.32ZM280.734 336.2C279.646 336.748 280.455 338.472 281.613 337.889C284.46 336.417 287.246 334.859 289.98 333.179C291.095 332.43 289.954 330.906 288.979 331.559C286.289 333.213 283.537 334.755 280.734 336.2ZM293.759 328.486C292.731 329.174 293.767 330.767 294.83 330.062C297.476 328.294 300.097 326.37 302.587 324.403C303.562 323.645 302.413 322.121 301.403 322.914C298.93 324.855 296.379 326.736 293.759 328.486ZM305.782 319.301C304.825 320.136 306.096 321.564 307.027 320.746C309.457 318.648 311.79 316.48 314.062 314.216C314.95 313.328 313.601 311.978 312.713 312.866C310.466 315.095 308.168 317.237 305.774 319.301H305.782ZM316.648 308.774C315.795 309.75 317.258 310.968 318.059 310.054C320.226 307.686 322.29 305.266 324.284 302.75C325.059 301.748 323.544 300.59 322.786 301.574C320.827 304.056 318.781 306.441 316.648 308.774ZM326.216 297.038C325.468 298.153 327.113 299.128 327.766 298.153C329.629 295.584 331.458 292.876 333.095 290.16C333.739 289.194 332.215 288.044 331.466 289.167C329.865 291.832 328.036 294.513 326.216 297.029V297.038ZM334.34 284.274C333.739 285.485 335.489 286.233 336.011 285.197C337.57 282.385 339.006 279.556 340.365 276.639C340.887 275.585 339.233 274.645 338.632 275.847C337.3 278.72 335.872 281.514 334.34 284.283V284.274ZM340.904 270.631C340.425 271.815 342.21 272.495 342.672 271.354C343.891 268.394 344.988 265.381 345.98 262.343C346.355 261.089 344.509 260.602 344.169 261.751C343.185 264.746 342.114 267.715 340.904 270.631ZM345.806 256.318C345.475 257.528 347.312 258.033 347.643 256.814C348.496 253.715 349.219 250.633 349.863 247.472C350.098 246.201 348.209 245.905 347.991 247.098C347.365 250.206 346.642 253.245 345.806 256.309V256.318ZM348.975 241.517C348.766 242.692 350.621 243.11 350.856 241.804C351.274 238.583 351.692 235.51 351.953 232.262C352.066 231.043 350.168 230.834 350.055 232.114C349.802 235.318 349.384 238.339 348.975 241.508V241.517ZM350.377 226.455C350.377 227.787 352.284 227.7 352.284 226.516C352.397 223.312 352.379 220.117 352.266 216.921C352.266 215.755 350.359 215.65 350.359 216.991C350.473 220.151 350.481 223.294 350.377 226.455ZM350.02 211.323C350.133 212.594 352.031 212.394 351.918 211.166C351.674 207.988 351.274 204.776 350.786 201.633C350.551 200.344 348.688 200.745 348.906 201.929C349.393 205.028 349.776 208.197 350.02 211.323ZM347.904 196.339C348.122 197.523 350.003 197.245 349.776 195.956C349.149 192.822 348.392 189.696 347.521 186.623C347.199 185.439 345.353 185.909 345.684 187.145C346.537 190.175 347.286 193.257 347.904 196.339ZM344.03 181.712C344.369 182.853 346.224 182.383 345.841 181.112C344.848 178.073 343.716 175.061 342.498 172.109C342.045 170.969 340.26 171.648 340.739 172.84C341.94 175.748 343.055 178.717 344.03 181.712ZM338.449 167.651C339.032 168.818 340.713 167.913 340.173 166.833C338.806 163.934 337.361 161.087 335.794 158.292C335.289 157.273 333.521 157.996 334.139 159.232C335.689 161.983 337.117 164.796 338.458 167.651H338.449ZM331.24 154.339C331.98 155.445 333.513 154.313 332.86 153.329C331.179 150.604 329.386 147.949 327.505 145.363C326.861 144.396 325.215 145.363 325.964 146.486C327.818 149.046 329.586 151.658 331.24 154.339ZM322.525 141.967C323.274 142.925 324.806 141.793 324.014 140.775C322.011 138.267 319.939 135.847 317.763 133.487C316.979 132.599 315.49 133.783 316.369 134.784C318.511 137.092 320.566 139.503 322.534 141.967H322.525ZM312.417 130.701C313.296 131.58 314.654 130.24 313.758 129.343C311.52 127.123 309.108 124.85 306.688 122.831C305.774 122.03 304.485 123.431 305.46 124.284C307.855 126.383 310.153 128.455 312.417 130.692V130.701ZM301.064 120.697C302.056 121.464 303.223 119.966 302.23 119.191C299.697 117.224 297.119 115.352 294.455 113.558C293.411 112.862 292.357 114.446 293.402 115.143C296.031 116.901 298.573 118.747 301.064 120.697ZM288.613 112.087C289.58 112.731 290.729 111.207 289.606 110.459C286.994 108.796 283.981 107.185 281.213 105.775C280.081 105.209 279.236 106.915 280.351 107.481C283.076 108.865 286.036 110.45 288.605 112.087H288.613ZM275.24 105.008C276.424 105.479 277.156 103.833 276.024 103.267C273.107 101.944 270.147 100.716 267.143 99.6104C266.037 99.1663 265.254 100.908 266.49 101.404C269.45 102.501 272.358 103.694 275.24 105.008ZM261.118 99.5581C262.355 99.9325 262.86 98.0867 261.693 97.7385C258.637 96.7634 255.555 95.9101 252.447 95.1614C251.175 94.9263 250.81 96.6937 252.011 97.0158C255.076 97.7559 258.115 98.5917 261.127 99.5581H261.118ZM246.457 95.8144C247.71 96.0407 248.024 94.1601 246.814 93.9425C243.671 93.333 240.501 92.8454 237.324 92.4711C236.018 92.3492 235.913 94.2559 237.106 94.3691C240.231 94.7347 243.357 95.2136 246.457 95.8144Z" fill="#E6B862" fill-opacity="0.16"/>
<path d="M222 99.428C255.842 99.428 286.471 113.141 308.647 135.316C330.822 157.491 344.535 188.129 344.535 221.963C344.535 255.796 330.822 286.434 308.647 308.609C286.471 330.785 255.833 344.497 222 344.497C188.167 344.497 157.529 330.785 135.353 308.609C113.178 286.434 99.4653 255.796 99.4653 221.963C99.4653 188.129 113.178 157.491 135.353 135.316C157.529 113.141 188.167 99.428 222 99.428ZM222 104.164L119.403 279.808H324.597L222 104.164ZM115.572 278.807L219.214 101.37C187.009 102.101 157.921 115.448 136.694 136.666C114.867 158.493 101.363 188.652 101.363 221.963C101.363 242.51 106.509 261.864 115.572 278.799V278.807ZM224.777 101.37C259.333 160.513 293.881 219.656 328.419 278.807C337.483 261.873 342.628 242.519 342.628 221.971C342.628 188.661 329.124 158.501 307.297 136.674C286.08 115.457 256.991 102.101 224.777 101.378V101.37ZM325.703 283.622H118.289C123.434 292.259 129.625 300.199 136.694 307.269C158.521 329.096 188.68 342.599 221.991 342.599C255.302 342.599 285.461 329.096 307.289 307.269C314.358 300.199 320.549 292.259 325.694 283.622H325.703Z" fill="#E6B862" fill-opacity="0.16"/>
<path fill-rule="evenodd" clip-rule="evenodd" d="M280.551 54.7109L282.728 61.4497L289.806 61.4323L284.069 65.5853L286.271 72.3154L280.551 68.145L274.831 72.3154L277.034 65.5853L271.296 61.4323L278.375 61.4497L280.551 54.7109ZM99.0129 319.474L101.189 326.213L108.268 326.196L102.53 330.349L104.733 337.079L99.0129 332.909L93.2927 337.079L95.4955 330.349L89.7579 326.196L96.8363 326.213L99.0129 319.474ZM385.516 203.339L387.693 210.078L394.771 210.06L389.034 214.213L391.237 220.943L385.516 216.773L379.796 220.943L381.999 214.213L376.261 210.06L383.34 210.078L385.516 203.339ZM58.9806 152.458L61.1572 159.197L68.2355 159.18L62.498 163.333L64.7007 170.063L58.9806 165.892L53.2604 170.063L55.4631 163.333L49.7256 159.18L56.8039 159.197L58.9806 152.458Z" fill="#E6B862" fill-opacity="0.16"/>
<path d="M400.187 329.818C400.187 325.709 398.524 321.991 395.833 319.301C393.143 316.611 389.425 314.948 385.316 314.948C381.206 314.948 377.489 316.611 374.798 319.301C372.108 321.991 370.445 325.709 370.445 329.818C370.445 333.928 372.108 337.645 374.798 340.336C377.489 343.026 381.206 344.689 385.316 344.689C389.425 344.689 393.143 343.026 395.833 340.336C398.524 337.645 400.187 333.928 400.187 329.818ZM224.238 6.7998C231.011 6.7998 237.01 10.0996 240.719 15.1841C238.516 13.7824 235.896 12.964 233.083 12.964C225.848 12.964 219.884 18.362 218.979 25.3446C219.989 25.3272 220.99 25.3184 222 25.3184C260.352 25.3184 296.144 36.306 326.399 55.2861C327.662 53.8408 329.525 52.9179 331.606 52.9179C335.419 52.9179 338.51 56.0087 338.51 59.8222C338.51 60.954 338.24 62.0249 337.753 62.9652C346.032 69.0075 353.825 75.6679 361.051 82.903C396.634 118.486 418.644 167.652 418.644 221.945C418.644 255.987 409.99 288.001 394.771 315.931C395.642 316.523 396.443 317.194 397.183 317.934C400.221 320.973 402.102 325.169 402.102 329.801C402.102 334.433 400.221 338.629 397.183 341.668C394.144 344.706 389.956 346.587 385.316 346.587C381.981 346.587 378.864 345.612 376.252 343.931C371.516 349.913 366.44 355.616 361.051 361.005C327.679 394.377 282.353 415.812 232.056 418.346C230.35 422.203 226.493 424.902 222 424.902C217.508 424.902 213.651 422.211 211.944 418.346C180.087 416.744 150.233 407.55 124.139 392.557C122.825 394.203 120.805 395.256 118.533 395.256C114.571 395.256 111.358 392.043 111.358 388.082C111.358 386.985 111.602 385.94 112.046 385.017C101.59 377.948 91.8472 369.903 82.9492 361.013C47.3659 325.43 25.356 276.265 25.356 221.971C25.356 187.18 34.3933 154.505 50.2477 126.157C49.7079 125.765 49.1943 125.338 48.7241 124.868C46.5475 122.692 45.2067 119.688 45.2067 116.371C45.2067 115.831 45.2415 115.3 45.3112 114.786C45.1457 114.595 44.9803 114.403 44.8236 114.22C42.3684 111.303 41.4107 108.509 42.5164 106.532C43.239 105.244 44.7017 104.53 46.6694 104.347C48.4194 104.19 50.6047 104.451 53.0251 105.104C54.3311 104.617 55.7502 104.347 57.2303 104.347C59.4156 104.347 61.4617 104.93 63.2291 105.949C69.2104 97.7736 75.8099 90.0771 82.9579 82.9291C114.536 51.3508 156.815 30.464 203.882 26.163C204.422 15.3844 213.337 6.81722 224.246 6.81722L224.238 6.7998ZM218.857 27.2513C218.892 35.0784 225.248 41.4167 233.083 41.4167C235.896 41.4167 238.516 40.5983 240.719 39.1965C237.01 44.2811 231.011 47.5809 224.238 47.5809C213.268 47.5809 204.326 38.9179 203.865 28.0697C157.329 32.362 115.529 53.0398 84.2987 84.2699C77.2291 91.3396 70.7079 98.9403 64.7875 107.029C65.1097 107.29 65.4231 107.568 65.7191 107.864C67.2427 109.388 68.3572 111.321 68.8883 113.471C71.2912 115.465 73.1283 117.502 74.2166 119.357C75.4181 121.412 75.7141 123.301 74.887 124.764C73.7726 126.74 70.882 127.358 67.1209 126.775C66.2067 126.636 65.2315 126.418 64.2129 126.139C62.2452 127.55 59.8335 128.386 57.2216 128.386C55.3062 128.386 53.4865 127.933 51.8758 127.141C36.1955 155.201 27.2627 187.546 27.2627 221.971C27.2627 275.742 49.0636 324.429 84.2987 359.673C93.1009 368.475 102.739 376.433 113.082 383.424C114.397 381.892 116.356 380.916 118.533 380.916C122.494 380.916 125.707 384.129 125.707 388.091C125.707 389.101 125.498 390.067 125.123 390.938C150.746 405.66 180.044 414.724 211.291 416.421C211.108 415.62 211.004 414.793 211.004 413.931C211.004 407.863 215.923 402.944 221.991 402.944C228.06 402.944 232.979 407.863 232.979 413.931C232.979 414.785 232.883 415.62 232.692 416.421C282.205 413.74 326.8 392.566 359.684 359.673C365.004 354.353 370.019 348.729 374.694 342.826C374.259 342.469 373.832 342.086 373.432 341.685C370.393 338.647 368.521 334.45 368.521 329.818C368.521 325.186 370.402 320.99 373.432 317.951C376.47 314.913 380.667 313.032 385.298 313.032C388.119 313.032 390.784 313.729 393.117 314.965C408.17 287.331 416.72 255.648 416.72 221.963C416.72 168.191 394.919 119.505 359.684 84.2612C352.536 77.1132 344.831 70.5137 336.638 64.5411C335.376 65.8993 333.582 66.7438 331.58 66.7438C327.766 66.7438 324.675 63.653 324.675 59.8396C324.675 58.7861 324.91 57.7848 325.337 56.8881C295.387 38.0995 259.952 27.2252 221.983 27.2252C220.929 27.2252 219.884 27.2339 218.84 27.2513H218.857ZM69.2452 116.31V116.353C69.2452 119.548 67.9915 122.456 65.9542 124.616C66.4592 124.729 66.9467 124.825 67.4169 124.894C70.3771 125.356 72.5537 125.034 73.2328 123.832C73.6942 123.014 73.4243 121.769 72.5711 120.306C71.8398 119.052 70.7079 117.694 69.2452 116.31ZM45.851 112.461C46.4517 110.711 47.4443 109.144 48.7241 107.864C49.2378 107.351 49.8037 106.881 50.4132 106.463C49.0637 106.219 47.8535 106.141 46.8348 106.236C45.5114 106.358 44.5711 106.759 44.1793 107.455C43.5525 108.57 44.2316 110.389 45.8597 112.47L45.851 112.461ZM47.3485 114.168C49.4642 116.345 52.4243 118.599 55.9243 120.576L55.9592 120.602C58.6756 122.126 61.3572 123.292 63.8037 124.05C64.0039 123.884 64.1868 123.701 64.3783 123.519C66.2067 121.69 67.3385 119.165 67.3385 116.362C67.3385 113.558 66.2067 111.034 64.3783 109.205C62.55 107.377 60.0164 106.245 57.2216 106.245C54.4268 106.245 51.902 107.377 50.0736 109.205C48.7328 110.546 47.7751 112.252 47.3485 114.168ZM61.8186 125.373C59.6333 124.59 57.3174 123.536 55.0015 122.23L54.9666 122.204C51.902 120.471 49.2291 118.53 47.1221 116.58C47.1831 119.279 48.3062 121.716 50.0823 123.501C51.9107 125.33 54.4442 126.461 57.2303 126.461C58.8845 126.461 60.443 126.07 61.8186 125.364V125.373Z" fill="#E6B862" fill-opacity="0.5"/>
<path d="M223.028 399.862C223.028 400.123 222.81 400.34 222.549 400.34C222.288 400.34 222.07 400.123 222.07 399.862V389.292C222.07 389.031 222.288 388.813 222.549 388.813C222.81 388.813 223.028 389.031 223.028 389.292V399.862ZM225.561 426.338C225.492 426.085 225.649 425.824 225.901 425.755C226.154 425.685 226.415 425.833 226.484 426.094L229.218 436.298C229.288 436.551 229.131 436.812 228.879 436.881C228.626 436.951 228.365 436.794 228.295 436.542L225.561 426.338ZM219.545 400.192C219.615 400.445 219.458 400.706 219.206 400.776C218.953 400.845 218.692 400.689 218.622 400.436L215.889 390.232C215.819 389.98 215.976 389.719 216.228 389.649C216.481 389.579 216.742 389.736 216.811 389.988L219.545 400.192ZM216.367 388.325C216.437 388.578 216.28 388.839 216.028 388.909C215.775 388.978 215.514 388.822 215.445 388.569L214.844 386.323C214.774 386.07 214.931 385.809 215.183 385.74C215.436 385.67 215.697 385.827 215.767 386.079L216.367 388.325ZM214.974 383.11C215.044 383.363 214.887 383.624 214.635 383.694C214.382 383.763 214.121 383.607 214.052 383.354L210.726 370.947C210.656 370.695 210.813 370.434 211.065 370.364C211.318 370.294 211.579 370.451 211.649 370.704L214.974 383.11ZM228.757 438.214C228.687 437.961 228.844 437.7 229.096 437.63C229.349 437.561 229.61 437.717 229.68 437.97L230.28 440.216C230.35 440.468 230.193 440.73 229.941 440.799C229.688 440.869 229.427 440.712 229.357 440.46L228.757 438.214ZM230.15 443.429C230.08 443.176 230.237 442.915 230.489 442.845C230.742 442.776 231.003 442.932 231.073 443.185L234.399 455.592C234.468 455.844 234.311 456.105 234.059 456.175C233.806 456.245 233.545 456.088 233.476 455.835L230.15 443.429ZM228.852 425.119C228.722 424.893 228.8 424.597 229.027 424.475C229.253 424.344 229.54 424.422 229.671 424.649L234.956 433.799C235.086 434.026 235.008 434.322 234.782 434.452C234.555 434.583 234.259 434.505 234.129 434.278L228.844 425.128L228.852 425.119ZM216.272 401.429C216.402 401.655 216.324 401.942 216.098 402.082C215.871 402.212 215.575 402.134 215.453 401.908L210.168 392.757C210.038 392.531 210.116 392.235 210.343 392.104C210.569 391.973 210.865 392.052 210.996 392.278L216.28 401.429H216.272ZM210.125 390.781C210.255 391.007 210.177 391.303 209.951 391.434C209.724 391.564 209.428 391.486 209.298 391.26L208.131 389.24C208.001 389.013 208.079 388.717 208.305 388.587C208.532 388.456 208.828 388.534 208.958 388.761L210.125 390.772V390.781ZM207.426 386.105C207.557 386.332 207.478 386.628 207.252 386.75C207.025 386.88 206.729 386.802 206.607 386.575L200.182 375.449C200.052 375.222 200.13 374.926 200.356 374.796C200.583 374.665 200.879 374.743 201.001 374.97L207.426 386.097V386.105ZM234.999 435.758C234.869 435.532 234.947 435.236 235.173 435.105C235.4 434.975 235.687 435.053 235.826 435.279L236.993 437.291C237.124 437.517 237.045 437.813 236.819 437.944C236.593 438.074 236.297 437.996 236.166 437.769L234.999 435.75V435.758ZM237.698 440.434C237.568 440.207 237.646 439.911 237.872 439.789C238.099 439.659 238.386 439.737 238.517 439.963L244.942 451.09C245.073 451.317 244.994 451.604 244.768 451.735C244.542 451.865 244.254 451.787 244.115 451.561L237.69 440.434H237.698ZM231.708 423.082C231.525 422.899 231.525 422.594 231.708 422.411C231.891 422.228 232.196 422.228 232.379 422.411L239.849 429.881C240.032 430.064 240.032 430.369 239.849 430.552C239.666 430.735 239.361 430.743 239.178 430.552L231.708 423.082ZM213.425 403.449C213.607 403.631 213.607 403.936 213.425 404.119C213.242 404.302 212.937 404.302 212.754 404.119L205.284 396.649C205.101 396.466 205.101 396.161 205.284 395.978C205.467 395.796 205.772 395.796 205.955 395.978L213.425 403.449ZM204.736 394.76C204.918 394.942 204.918 395.247 204.736 395.43C204.553 395.613 204.248 395.613 204.065 395.43L202.42 393.784C202.237 393.602 202.237 393.297 202.42 393.114C202.603 392.931 202.907 392.931 203.09 393.114L204.736 394.76ZM200.913 390.937C201.096 391.12 201.096 391.425 200.913 391.608C200.731 391.791 200.426 391.791 200.243 391.608L191.162 382.527C190.979 382.344 190.979 382.039 191.162 381.857C191.345 381.674 191.65 381.674 191.841 381.857L200.922 390.937H200.913ZM240.397 431.762C240.214 431.579 240.214 431.274 240.397 431.092C240.58 430.909 240.885 430.909 241.068 431.092L242.713 432.737C242.896 432.92 242.896 433.225 242.713 433.408C242.53 433.59 242.226 433.59 242.043 433.408L240.397 431.762ZM244.219 435.584C244.037 435.401 244.037 435.097 244.219 434.905C244.402 434.722 244.707 434.722 244.89 434.905L253.971 443.986C254.153 444.169 254.153 444.473 253.971 444.656C253.788 444.839 253.483 444.839 253.3 444.656L244.219 435.575V435.584ZM233.946 420.374C233.719 420.243 233.641 419.947 233.772 419.721C233.902 419.495 234.198 419.416 234.425 419.547L243.575 424.832C243.801 424.962 243.88 425.25 243.749 425.476C243.619 425.702 243.331 425.781 243.105 425.65L233.954 420.365L233.946 420.374ZM211.205 406.148C211.431 406.278 211.509 406.574 211.379 406.801C211.248 407.027 210.952 407.105 210.726 406.975L201.575 401.69C201.349 401.559 201.27 401.272 201.401 401.046C201.532 400.819 201.819 400.741 202.045 400.871L211.196 406.156L211.205 406.148ZM200.565 400.001C200.792 400.131 200.87 400.427 200.739 400.654C200.609 400.88 200.313 400.959 200.086 400.828L198.066 399.661C197.84 399.531 197.762 399.235 197.892 399.008C198.023 398.782 198.319 398.704 198.545 398.834L200.565 400.001ZM195.89 397.302C196.116 397.432 196.195 397.72 196.064 397.955C195.933 398.181 195.646 398.26 195.411 398.129L184.284 391.704C184.058 391.573 183.979 391.286 184.11 391.059C184.241 390.833 184.528 390.755 184.754 390.885L195.881 397.311L195.89 397.302ZM244.594 426.521C244.367 426.39 244.289 426.094 244.42 425.868C244.55 425.641 244.846 425.563 245.073 425.694L247.084 426.86C247.31 426.991 247.389 427.287 247.258 427.513C247.127 427.74 246.831 427.818 246.605 427.687L244.594 426.521ZM249.269 429.22C249.043 429.089 248.964 428.802 249.095 428.575C249.226 428.349 249.513 428.271 249.739 428.401L260.866 434.827C261.093 434.957 261.171 435.245 261.04 435.471C260.91 435.697 260.622 435.776 260.387 435.645L249.26 429.22H249.269ZM235.4 417.187C235.147 417.118 234.999 416.857 235.06 416.604C235.13 416.352 235.391 416.195 235.644 416.264L245.848 418.998C246.1 419.068 246.257 419.329 246.187 419.582C246.117 419.834 245.856 419.982 245.604 419.921L235.4 417.187ZM209.751 409.325C210.003 409.395 210.16 409.656 210.09 409.909C210.02 410.161 209.759 410.309 209.507 410.248L199.303 407.515C199.05 407.445 198.902 407.184 198.963 406.931C199.033 406.679 199.294 406.531 199.547 406.592L209.751 409.325ZM197.884 406.148C198.136 406.217 198.293 406.478 198.223 406.731C198.154 406.983 197.892 407.14 197.64 407.07L195.394 406.47C195.141 406.4 194.984 406.139 195.054 405.886C195.124 405.634 195.385 405.486 195.637 405.547L197.884 406.148ZM192.668 404.746C192.921 404.816 193.069 405.077 193.008 405.329C192.938 405.582 192.677 405.738 192.425 405.669L180.018 402.343C179.765 402.273 179.609 402.012 179.678 401.76C179.748 401.507 180.009 401.35 180.262 401.42L192.668 404.746ZM247.275 420.365C247.023 420.296 246.866 420.034 246.936 419.782C247.005 419.529 247.267 419.381 247.519 419.442L249.765 420.043C250.018 420.113 250.166 420.374 250.105 420.626C250.035 420.879 249.774 421.027 249.522 420.966L247.275 420.365ZM252.491 421.767C252.238 421.697 252.09 421.436 252.151 421.184C252.221 420.931 252.482 420.774 252.734 420.844L265.141 424.17C265.394 424.24 265.542 424.501 265.481 424.753C265.411 425.006 265.15 425.163 264.897 425.093L252.491 421.767ZM235.983 413.731C235.722 413.731 235.504 413.522 235.504 413.252C235.504 412.982 235.713 412.773 235.983 412.773H246.553C246.814 412.773 247.023 412.982 247.023 413.252C247.023 413.522 246.814 413.731 246.553 413.731H235.983ZM209.167 412.782C209.428 412.782 209.637 412.991 209.637 413.261C209.637 413.531 209.428 413.74 209.167 413.74H198.598C198.336 413.74 198.119 413.531 198.119 413.261C198.119 412.991 198.328 412.782 198.598 412.782H209.167ZM196.882 412.782C197.144 412.782 197.361 413 197.361 413.261C197.361 413.522 197.144 413.74 196.882 413.74H194.558C194.297 413.74 194.079 413.522 194.079 413.261C194.079 413 194.297 412.782 194.558 412.782H196.882ZM191.484 412.782C191.746 412.782 191.963 413 191.963 413.261C191.963 413.522 191.746 413.74 191.484 413.74H178.634C178.372 413.74 178.155 413.522 178.155 413.261C178.155 413 178.372 412.782 178.634 412.782H191.484ZM248.277 413.731C248.015 413.731 247.798 413.522 247.798 413.252C247.798 412.982 248.015 412.773 248.277 412.773H250.601C250.862 412.773 251.08 412.982 251.08 413.252C251.08 413.522 250.862 413.731 250.601 413.731H248.277ZM253.675 413.731C253.413 413.731 253.196 413.513 253.196 413.252C253.196 412.991 253.413 412.773 253.675 412.773H266.525C266.787 412.773 267.004 412.991 267.004 413.252C267.004 413.513 266.787 413.731 266.525 413.731H253.675ZM235.652 410.24C235.4 410.309 235.139 410.153 235.069 409.9C234.999 409.648 235.156 409.386 235.408 409.317L245.612 406.583C245.865 406.513 246.126 406.67 246.196 406.922C246.265 407.175 246.109 407.436 245.856 407.506L235.652 410.24ZM209.507 416.264C209.759 416.195 210.02 416.352 210.09 416.604C210.16 416.857 210.003 417.118 209.751 417.187L199.547 419.921C199.294 419.991 199.033 419.834 198.963 419.582C198.894 419.329 199.05 419.068 199.303 418.998L209.507 416.264ZM197.64 419.442C197.892 419.373 198.154 419.529 198.223 419.782C198.293 420.034 198.136 420.296 197.884 420.365L195.637 420.966C195.385 421.036 195.124 420.879 195.054 420.626C194.984 420.374 195.141 420.113 195.394 420.043L197.64 419.442ZM192.425 420.835C192.677 420.766 192.938 420.922 193.008 421.175C193.078 421.427 192.921 421.689 192.668 421.758L180.262 425.084C180.009 425.154 179.748 424.997 179.678 424.745C179.609 424.492 179.765 424.231 180.018 424.161L192.425 420.835ZM247.528 407.053C247.275 407.123 247.014 406.966 246.945 406.714C246.875 406.461 247.023 406.2 247.284 406.13L249.53 405.529C249.783 405.46 250.044 405.617 250.114 405.869C250.183 406.121 250.027 406.383 249.774 406.452L247.528 407.053ZM252.743 405.66C252.491 405.73 252.229 405.573 252.16 405.32C252.09 405.068 252.247 404.807 252.499 404.737L264.906 401.411C265.158 401.342 265.42 401.498 265.489 401.751C265.559 402.003 265.402 402.265 265.15 402.334L252.743 405.66ZM234.433 406.957C234.207 407.088 233.911 407.01 233.789 406.783C233.658 406.557 233.737 406.261 233.963 406.139L243.114 400.854C243.34 400.723 243.636 400.802 243.767 401.028C243.897 401.255 243.819 401.551 243.593 401.681L234.442 406.966L234.433 406.957ZM210.743 419.538C210.969 419.408 211.265 419.486 211.387 419.712C211.518 419.939 211.44 420.235 211.213 420.357L202.063 425.641C201.836 425.772 201.549 425.694 201.41 425.467C201.279 425.241 201.357 424.945 201.584 424.814L210.734 419.529L210.743 419.538ZM200.095 425.685C200.321 425.554 200.617 425.633 200.748 425.859C200.879 426.085 200.8 426.373 200.574 426.512L198.563 427.679C198.336 427.809 198.04 427.731 197.91 427.505C197.779 427.278 197.858 426.982 198.084 426.852L200.095 425.685ZM195.42 428.384C195.646 428.253 195.942 428.332 196.073 428.558C196.203 428.784 196.125 429.072 195.899 429.202L184.772 435.628C184.545 435.758 184.249 435.68 184.127 435.454C183.997 435.227 184.075 434.931 184.302 434.809L195.428 428.384H195.42ZM245.073 400.811C244.846 400.941 244.55 400.863 244.42 400.636C244.289 400.41 244.367 400.114 244.594 399.983L246.605 398.817C246.831 398.686 247.127 398.765 247.258 398.991C247.389 399.217 247.31 399.513 247.084 399.644L245.064 400.811H245.073ZM249.748 398.112C249.522 398.242 249.234 398.164 249.104 397.937C248.973 397.711 249.052 397.415 249.278 397.284L260.405 390.859C260.631 390.728 260.927 390.807 261.049 391.033C261.18 391.26 261.101 391.556 260.875 391.677L249.748 398.103V398.112ZM232.396 404.102C232.213 404.284 231.908 404.284 231.726 404.102C231.543 403.919 231.543 403.614 231.726 403.431L239.196 395.961C239.379 395.778 239.683 395.778 239.866 395.961C240.049 396.144 240.049 396.449 239.866 396.631L232.396 404.102ZM212.763 422.385C212.946 422.202 213.251 422.202 213.433 422.385C213.616 422.568 213.616 422.873 213.433 423.064L205.963 430.534C205.78 430.717 205.476 430.726 205.293 430.534C205.11 430.352 205.11 430.047 205.293 429.864L212.763 422.394V422.385ZM204.074 431.074C204.257 430.891 204.561 430.891 204.744 431.074C204.927 431.257 204.927 431.562 204.744 431.745L203.099 433.39C202.916 433.573 202.611 433.573 202.428 433.39C202.246 433.207 202.246 432.903 202.428 432.72L204.074 431.074ZM200.252 434.896C200.435 434.714 200.739 434.714 200.922 434.896C201.105 435.079 201.105 435.384 200.922 435.575L191.841 444.656C191.658 444.839 191.354 444.839 191.162 444.656C190.979 444.473 190.979 444.169 191.162 443.986L200.243 434.905L200.252 434.896ZM241.085 395.413C240.902 395.595 240.598 395.595 240.415 395.413C240.232 395.23 240.232 394.925 240.415 394.742L242.06 393.097C242.243 392.914 242.548 392.914 242.731 393.097C242.913 393.279 242.913 393.584 242.731 393.767L241.085 395.413ZM244.907 391.59C244.724 391.773 244.42 391.773 244.237 391.59C244.054 391.408 244.054 391.103 244.237 390.92L253.318 381.839C253.5 381.656 253.805 381.656 253.988 381.839C254.171 382.022 254.171 382.327 253.988 382.51L244.907 391.59ZM229.697 401.864C229.566 402.09 229.27 402.169 229.044 402.038C228.818 401.908 228.739 401.612 228.87 401.385L234.155 392.235C234.285 392.008 234.573 391.93 234.799 392.061C235.025 392.191 235.104 392.478 234.973 392.705L229.688 401.855L229.697 401.864ZM215.471 424.605C215.601 424.379 215.897 424.301 216.124 424.431C216.35 424.562 216.428 424.858 216.298 425.084L211.013 434.235C210.882 434.461 210.595 434.539 210.369 434.409C210.142 434.278 210.064 433.991 210.195 433.764L215.479 424.614L215.471 424.605ZM209.324 435.245C209.455 435.018 209.751 434.94 209.977 435.07C210.203 435.201 210.282 435.497 210.151 435.723L208.984 437.743C208.854 437.97 208.558 438.048 208.331 437.917C208.105 437.787 208.027 437.491 208.157 437.265L209.324 435.253V435.245ZM206.625 439.92C206.756 439.694 207.043 439.615 207.269 439.746C207.496 439.876 207.574 440.164 207.443 440.39L201.018 451.517C200.887 451.743 200.6 451.822 200.374 451.691C200.147 451.56 200.069 451.273 200.2 451.047L206.625 439.92ZM235.844 391.216C235.713 391.442 235.417 391.521 235.191 391.39C234.964 391.26 234.886 390.964 235.017 390.737L236.183 388.726C236.314 388.5 236.61 388.421 236.836 388.552C237.063 388.682 237.141 388.978 237.01 389.205L235.844 391.225V391.216ZM238.543 386.541C238.412 386.767 238.125 386.845 237.899 386.715C237.672 386.584 237.594 386.297 237.724 386.07L244.15 374.944C244.28 374.717 244.568 374.639 244.803 374.77C245.029 374.9 245.107 375.187 244.977 375.414L238.552 386.541H238.543ZM226.51 400.41C226.441 400.663 226.18 400.811 225.927 400.75C225.675 400.68 225.518 400.419 225.588 400.166L228.321 389.962C228.391 389.71 228.652 389.562 228.905 389.623C229.157 389.692 229.314 389.954 229.244 390.206L226.51 400.41ZM218.649 426.059C218.718 425.807 218.979 425.659 219.232 425.72C219.484 425.789 219.641 426.051 219.571 426.303L216.838 436.507C216.768 436.76 216.507 436.908 216.254 436.847C216.002 436.777 215.845 436.516 215.915 436.263L218.649 426.059ZM215.471 437.926C215.54 437.674 215.802 437.526 216.054 437.587C216.306 437.656 216.455 437.917 216.394 438.17L215.793 440.416C215.723 440.669 215.462 440.817 215.209 440.756C214.957 440.686 214.8 440.425 214.87 440.172L215.471 437.926ZM214.069 443.141C214.139 442.889 214.4 442.732 214.652 442.802C214.905 442.871 215.053 443.133 214.992 443.385L211.666 455.792C211.596 456.044 211.335 456.201 211.083 456.131C210.83 456.062 210.682 455.801 210.743 455.548L214.069 443.141ZM229.688 388.534C229.619 388.787 229.357 388.935 229.105 388.874C228.853 388.804 228.696 388.543 228.765 388.291L229.366 386.044C229.436 385.792 229.697 385.644 229.95 385.705C230.202 385.774 230.35 386.036 230.289 386.288L229.688 388.534ZM231.081 383.319C231.012 383.572 230.751 383.728 230.498 383.659C230.246 383.589 230.098 383.328 230.158 383.075L233.484 370.669C233.554 370.416 233.815 370.26 234.068 370.329C234.32 370.399 234.468 370.66 234.407 370.913L231.081 383.319ZM222.096 426.634C222.096 426.373 222.314 426.155 222.575 426.155C222.836 426.155 223.054 426.373 223.054 426.634V437.204C223.054 437.465 222.836 437.682 222.575 437.682C222.314 437.682 222.096 437.465 222.096 437.204V426.634ZM222.096 438.919C222.096 438.658 222.314 438.44 222.575 438.44C222.836 438.44 223.054 438.658 223.054 438.919V441.243C223.054 441.505 222.836 441.722 222.575 441.722C222.314 441.722 222.096 441.505 222.096 441.243V438.919ZM222.096 444.317C222.096 444.056 222.314 443.838 222.575 443.838C222.836 443.838 223.054 444.056 223.054 444.317V457.167C223.054 457.429 222.836 457.646 222.575 457.646C222.314 457.646 222.096 457.429 222.096 457.167V444.317ZM223.054 387.524C223.054 387.786 222.836 388.003 222.575 388.003C222.314 388.003 222.096 387.794 222.096 387.524V385.2C222.096 384.939 222.314 384.721 222.575 384.721C222.836 384.721 223.054 384.939 223.054 385.2V387.524ZM223.054 382.126C223.054 382.388 222.836 382.605 222.575 382.605C222.314 382.605 222.096 382.388 222.096 382.126V369.276C222.096 369.015 222.314 368.797 222.575 368.797C222.836 368.797 223.054 369.015 223.054 369.276V382.126Z" fill="#E6B862" fill-opacity="0.16"/>
<path d="M115.616 280.879C114.597 281.393 115.32 283.151 116.556 282.542L124.862 277.858C125.881 277.353 125.158 275.585 123.922 276.195L115.616 280.879ZM222.958 105.653C222.958 105.156 222.575 104.747 222.096 104.704C221.53 104.643 221.051 105.096 221.051 105.653V115.186C221.051 115.683 221.434 116.092 221.913 116.135C222.479 116.196 222.958 115.744 222.958 115.186V105.653ZM222.958 120.906C222.958 120.41 222.575 120.001 222.096 119.957C221.53 119.905 221.051 120.349 221.051 120.906V130.44C221.051 130.936 221.434 131.346 221.913 131.389C222.479 131.441 222.958 130.997 222.958 130.44V120.906ZM222.958 136.16C222.958 135.664 222.575 135.255 222.096 135.211C221.53 135.159 221.051 135.603 221.051 136.16V145.694C221.051 146.19 221.434 146.599 221.913 146.643C222.479 146.704 222.958 146.251 222.958 145.694V136.16ZM222.958 151.414C222.958 150.918 222.575 150.508 222.096 150.465C221.53 150.404 221.051 150.857 221.051 151.414V160.948C221.051 161.444 221.434 161.853 221.913 161.897C222.479 161.949 222.958 161.505 222.958 160.948V151.414ZM222.958 166.668C222.958 166.171 222.575 165.762 222.096 165.719C221.53 165.666 221.051 166.11 221.051 166.668V176.201C221.051 176.697 221.434 177.107 221.913 177.15C222.479 177.211 222.958 176.758 222.958 176.201V166.668ZM222.958 181.921C222.958 181.425 222.575 181.016 222.096 180.972C221.53 180.911 221.051 181.364 221.051 181.921V191.455C221.051 191.951 221.434 192.36 221.913 192.404C222.479 192.456 222.958 192.012 222.958 191.455V181.921ZM222.958 197.175C222.958 196.679 222.575 196.27 222.096 196.226C221.53 196.174 221.051 196.618 221.051 197.175V206.709C221.051 207.205 221.434 207.614 221.913 207.658C222.479 207.71 222.958 207.266 222.958 206.709V197.175ZM222.958 212.429C222.958 211.933 222.575 211.523 222.096 211.48C221.53 211.419 221.051 211.872 221.051 212.429V221.962C221.051 222.389 221.33 222.746 221.713 222.868C221.774 222.92 221.835 222.964 221.913 222.998L230.219 227.683C231.447 228.301 232.178 226.533 231.159 226.02L222.967 221.396V212.42L222.958 212.429ZM323.222 280.148C324.449 280.766 325.181 278.998 324.162 278.485L315.856 273.801C314.628 273.183 313.897 274.95 314.916 275.464L323.222 280.148ZM309.936 272.651C311.163 273.27 311.895 271.502 310.876 270.988L302.57 266.304C301.342 265.686 300.611 267.454 301.63 267.967L309.936 272.651ZM296.65 265.155C297.877 265.773 298.608 264.006 297.59 263.492L289.284 258.808C288.056 258.19 287.325 259.957 288.344 260.471L296.65 265.155ZM283.363 257.659C284.591 258.277 285.322 256.51 284.304 255.996L275.998 251.312C274.77 250.694 274.039 252.461 275.057 252.975L283.363 257.659ZM270.077 250.163C271.305 250.781 272.036 249.013 271.018 248.5L262.712 243.816C261.484 243.197 260.753 244.965 261.771 245.479L270.077 250.163ZM256.791 242.666C258.019 243.285 258.75 241.517 257.732 241.003L249.426 236.319C248.198 235.701 247.467 237.469 248.485 237.982L256.791 242.666ZM243.505 235.17C244.733 235.788 245.464 234.021 244.446 233.507L236.14 228.823C234.912 228.205 234.181 229.972 235.199 230.486L243.505 235.17ZM217.865 225.384C218.883 224.87 218.161 223.112 216.924 223.721L208.618 228.405C207.6 228.919 208.322 230.678 209.559 230.068L217.865 225.384ZM204.579 232.88C205.597 232.367 204.875 230.608 203.638 231.217L195.332 235.901C194.314 236.415 195.036 238.174 196.273 237.564L204.579 232.88ZM191.293 240.377C192.311 239.863 191.589 238.104 190.352 238.714L182.046 243.398C181.028 243.911 181.75 245.67 182.987 245.061L191.293 240.377ZM178.007 247.873C179.025 247.359 178.303 245.6 177.066 246.21L168.76 250.894C167.742 251.408 168.464 253.166 169.701 252.557L178.007 247.873ZM164.72 255.369C165.739 254.855 165.016 253.097 163.78 253.706L155.474 258.39C154.456 258.904 155.178 260.663 156.415 260.053L164.72 255.369ZM151.434 262.865C152.453 262.352 151.73 260.593 150.494 261.202L142.188 265.887C141.169 266.4 141.892 268.159 143.128 267.549L151.434 262.865ZM138.148 270.362C139.167 269.848 138.444 268.089 137.208 268.699L128.902 273.383C127.883 273.896 128.606 275.655 129.842 275.046L138.148 270.362Z" fill="#E6B862" fill-opacity="0.16"/>
<path fill-rule="evenodd" clip-rule="evenodd" d="M221.043 336.757L208.688 356.198H222H235.313L222.949 336.757V222.519L320.462 167.39H331.85H345.162L331.85 146.442L319.617 165.692L222 220.874L124.384 165.692L112.151 146.442L98.8389 167.39H112.151H123.53L221.043 222.519V336.757Z" fill="#E6B862" fill-opacity="0.16"/>
</g>
<defs>
<clipPath id="clip0_1898_83269">
<rect width="443.908" height="457.69" fill="white" transform="translate(0.0463867)"/>
</clipPath>
</defs>
</svg>
