<svg width="157" height="170" viewBox="0 0 157 170" fill="none" xmlns="http://www.w3.org/2000/svg">
<g clip-path="url(#clip0_1765_37597)">
<g filter="url(#filter0_i_1765_37597)">
<ellipse cx="78" cy="83.8418" rx="68" ry="68.7826" fill="black" fill-opacity="0.4"/>
</g>
<path d="M78.4467 8.09694C36.4497 8.09694 2.40039 42.378 2.40039 84.6609C2.40039 126.944 36.4497 161.234 78.4467 161.234C120.444 161.234 154.502 126.953 154.502 84.6609C154.502 42.369 120.453 8.09694 78.4467 8.09694ZM78.4467 154.199C40.308 154.199 9.38805 123.068 9.38805 84.6698C9.38805 46.2715 40.308 15.1322 78.4467 15.1322C116.585 15.1322 147.505 46.2625 147.505 84.6698C147.505 123.077 116.585 154.199 78.4467 154.199Z" fill="url(#paint0_linear_1765_37597)"/>
<path d="M78.5 6.15372C35.1428 6.15372 0 41.5357 0 85.188C0 128.84 35.1428 164.222 78.5 164.222C121.857 164.222 157 128.84 157 85.188C157 41.5357 121.848 6.15372 78.5 6.15372ZM78.5 159.792C58.7105 159.792 40.1035 152.032 26.1015 137.943C12.1084 123.855 4.40062 105.112 4.40062 85.188C4.40062 65.2639 12.1084 46.5301 26.1015 32.4328C40.0946 18.3445 58.7016 10.5843 78.5 10.5843C98.2984 10.5843 116.897 18.3445 130.899 32.4328C144.892 46.5212 152.599 65.2549 152.599 85.188C152.599 105.121 144.892 123.855 130.899 137.943C116.905 152.032 98.2984 159.792 78.5 159.792Z" fill="url(#paint1_linear_1765_37597)"/>
<path style="mix-blend-mode:multiply" opacity="0.5" d="M78.5 162.057C43.055 162.057 13.0508 138.804 2.96045 106.751C12.2773 139.923 42.5749 164.224 78.5 164.224C114.425 164.224 144.714 139.923 154.04 106.751C143.949 138.813 113.945 162.057 78.5 162.057Z" fill="url(#paint2_linear_1765_37597)"/>
<path d="M132.383 30.9382C117.99 16.4471 98.8493 8.4631 78.4998 8.4631C58.1502 8.4631 39.0098 16.4471 24.6166 30.9382C10.2235 45.4293 2.29346 64.7001 2.29346 85.1881C2.29346 105.676 10.2235 124.947 24.6077 139.438C39.0009 153.929 58.1414 161.904 78.4909 161.904C98.8404 161.904 117.981 153.92 132.374 139.438C146.767 124.947 154.688 105.685 154.688 85.1881C154.688 64.6911 146.758 45.4293 132.374 30.9382H132.383ZM130.898 137.943C116.905 152.032 98.2981 159.792 78.4998 159.792C58.7014 159.792 40.1032 152.032 26.1013 137.943C12.1082 123.855 4.40042 105.112 4.40042 85.1881C4.40042 65.264 12.1082 46.5303 26.1013 32.433C40.0944 18.3446 58.7014 10.5844 78.4998 10.5844C98.2981 10.5844 116.896 18.3446 130.898 32.433C144.891 46.5213 152.599 65.255 152.599 85.1881C152.599 105.121 144.891 123.855 130.898 137.943Z" fill="url(#paint3_linear_1765_37597)"/>
<path style="mix-blend-mode:color-dodge" opacity="0.5" d="M154.04 63.626C144.714 30.4549 114.425 6.15385 78.5 6.15385C42.5749 6.15385 12.2773 30.4549 2.96045 63.626C13.0508 31.5648 43.055 8.54368 78.5 8.54368C113.945 8.54368 143.949 31.5737 154.04 63.626Z" fill="url(#paint4_linear_1765_37597)"/>
<path d="M128.907 34.4375C115.439 20.8772 97.5339 13.4124 78.5 13.4124C59.4662 13.4124 41.5526 20.8772 28.0929 34.4375C14.6243 47.9977 7.20996 66.0154 7.20996 85.1877C7.20996 104.36 14.6243 122.387 28.0929 135.938C41.5526 149.489 59.4574 156.954 78.5 156.954C97.5427 156.954 115.447 149.489 128.907 135.938C142.367 122.378 149.781 104.351 149.781 85.1877C149.781 66.0243 142.367 47.9887 128.907 34.4375ZM78.5 152.577C60.622 152.577 43.8107 145.569 31.1689 132.841C18.5271 120.113 11.5661 103.196 11.5661 85.1966C11.5661 67.1969 18.5271 50.2712 31.1689 37.5523C43.8107 24.8244 60.622 17.8161 78.5 17.8161C96.3781 17.8161 113.189 24.8244 125.831 37.5523C138.473 50.2801 145.434 67.2058 145.434 85.1966C145.434 103.187 138.473 120.122 125.831 132.841C113.189 145.569 96.3781 152.577 78.5 152.577Z" fill="url(#paint5_linear_1765_37597)"/>
<path style="mix-blend-mode:multiply" opacity="0.5" d="M129.912 133.602C116.176 147.153 97.916 154.618 78.4999 154.618C59.0838 154.618 40.8235 147.153 27.0882 133.602C22.2608 128.831 18.1891 123.515 14.9531 117.786C18.3136 124.41 22.7231 130.532 28.0928 135.938C41.5525 149.499 59.4572 156.963 78.4999 156.963C97.5426 156.963 115.447 149.499 128.907 135.938C134.277 130.532 138.686 124.401 142.047 117.786C138.802 123.515 134.739 128.84 129.912 133.602Z" fill="url(#paint6_linear_1765_37597)"/>
<path style="mix-blend-mode:color-dodge" opacity="0.5" d="M142.055 52.5892C138.695 45.9657 134.285 39.8435 128.916 34.4373C115.447 20.877 97.5425 13.4211 78.5087 13.4211C59.4749 13.4211 41.5612 20.886 28.1016 34.4373C22.7319 39.8524 18.3224 45.9747 14.9619 52.5892C18.2068 46.8608 22.2696 41.5441 27.097 36.7734C40.8322 23.2221 59.0926 15.7572 78.5087 15.7572C97.9248 15.7572 116.185 23.2221 129.92 36.7734C134.748 41.5441 138.811 46.8608 142.055 52.5892Z" fill="url(#paint7_linear_1765_37597)"/>
<path d="M127.298 36.0583C114.265 22.9366 96.9293 15.7045 78.5001 15.7045C60.0708 15.7045 42.735 22.9276 29.702 36.0583C16.6691 49.1799 9.48584 66.6337 9.48584 85.1884C9.48584 103.743 16.6691 121.197 29.702 134.319C42.735 147.44 60.0708 154.672 78.5001 154.672C96.9293 154.672 114.265 147.44 127.298 134.319C140.331 121.197 147.514 103.752 147.514 85.1884C147.514 66.6248 140.331 49.1799 127.298 36.0583ZM125.822 132.842C113.181 145.57 96.3692 152.578 78.4912 152.578C60.6131 152.578 43.8018 145.57 31.16 132.842C18.5182 120.114 11.5572 103.197 11.5572 85.1974C11.5572 67.1976 18.5182 50.2719 31.16 37.553C43.8018 24.8252 60.6131 17.8168 78.4912 17.8168C96.3692 17.8168 113.181 24.8252 125.822 37.553C138.464 50.2808 145.425 67.2065 145.425 85.1974C145.425 103.188 138.464 120.123 125.822 132.842Z" fill="url(#paint8_linear_1765_37597)"/>
<path style="mix-blend-mode:multiply" opacity="0.5" d="M132.632 27.9575C128.498 28.9332 123.315 26.4091 123.315 26.4091L121.315 27.7785C118.746 28.1366 118.541 31.1708 118.541 31.1708C107.046 22.4887 93.1241 17.7985 78.4998 17.7985C63.8755 17.7985 49.7847 22.5513 38.2452 31.3319C36.9206 28.3782 32.9823 29.9267 32.9823 29.9267L31.3554 27.8233C28.8306 26.3285 24.6878 27.7517 24.4922 27.8233C24.5544 27.7606 24.6167 27.698 24.6789 27.6353C24.7411 27.5727 24.8033 27.519 24.8656 27.4563C25.1945 27.143 25.5234 26.8387 25.8613 26.5344C25.9235 26.4807 25.9946 26.418 26.0569 26.3554C26.3947 26.0421 26.7414 25.7378 27.0881 25.4335C27.0881 25.4335 27.097 25.4245 27.1059 25.4156C27.4615 25.1112 27.8082 24.8069 28.1727 24.5026C28.2438 24.4399 28.315 24.3862 28.3772 24.3236C28.7239 24.0372 29.0706 23.7507 29.4262 23.4643C29.4973 23.4106 29.5596 23.3569 29.6307 23.3032C29.9774 23.0168 30.333 22.7393 30.6886 22.4708C30.7064 22.4529 30.7242 22.4439 30.742 22.426C31.1065 22.1396 31.4798 21.8621 31.8532 21.5847C31.9244 21.531 32.0044 21.4773 32.0755 21.4236C32.44 21.155 32.8045 20.8865 33.169 20.627C33.2401 20.5733 33.3023 20.5285 33.3734 20.4837C33.7379 20.2242 34.0935 19.9736 34.458 19.7229C34.4847 19.705 34.5203 19.6782 34.5469 19.6603C34.9292 19.4007 35.3115 19.1411 35.7027 18.8905C35.7827 18.8368 35.8627 18.7831 35.9427 18.7294C36.325 18.4877 36.7073 18.2371 37.0895 17.9955C37.1607 17.9507 37.2229 17.906 37.294 17.8702C37.6674 17.6374 38.0408 17.4047 38.4231 17.181C38.4586 17.1631 38.4942 17.1362 38.5386 17.1093C38.9298 16.8766 39.3298 16.6439 39.7388 16.4112C39.8188 16.3664 39.8988 16.3127 39.9877 16.268C40.3878 16.0442 40.7789 15.8205 41.1879 15.6056C41.2501 15.5698 41.3212 15.534 41.3835 15.4982C41.7657 15.2834 42.1569 15.0865 42.5481 14.8806C42.5925 14.8627 42.637 14.8359 42.6814 14.809C43.0904 14.5942 43.5082 14.3883 43.9172 14.1825C43.9972 14.1377 44.0861 14.1019 44.175 14.0572C44.5928 13.8513 45.0018 13.6544 45.4196 13.4664C45.4818 13.4396 45.5441 13.4038 45.6063 13.3769C46.0063 13.189 46.4064 13.0099 46.8065 12.8309C46.8598 12.813 46.9131 12.7862 46.9665 12.7593C47.3932 12.5714 47.8199 12.3924 48.2467 12.2044C48.3356 12.1686 48.4156 12.1328 48.5045 12.097C48.9312 11.918 49.3668 11.739 49.8024 11.5689C49.8558 11.551 49.918 11.5241 49.9714 11.5062C50.3892 11.3451 50.7981 11.184 51.216 11.0319C51.2693 11.005 51.3315 10.9871 51.3849 10.9692C51.8205 10.8081 52.265 10.647 52.7095 10.4948C52.7984 10.468 52.8784 10.4322 52.9673 10.4053C53.4118 10.2531 53.8563 10.101 54.3097 9.94882C54.3542 9.93092 54.3986 9.92197 54.452 9.90407C54.8787 9.76086 55.3143 9.6266 55.7499 9.49234C55.8122 9.47444 55.8744 9.45653 55.9366 9.43863C56.39 9.30437 56.8434 9.17011 57.2968 9.0448C57.3857 9.01795 57.4657 8.9911 57.5546 8.9732C58.0169 8.84789 58.4792 8.72258 58.9415 8.59727C58.9771 8.58832 59.0215 8.57937 59.0571 8.57042C59.5016 8.45406 59.955 8.34665 60.4084 8.23924C60.4795 8.22134 60.5417 8.21239 60.604 8.19449C61.0663 8.08708 61.5285 7.97968 61.9997 7.88122C62.0886 7.86332 62.1686 7.84542 62.2575 7.82751C62.7287 7.72906 63.2088 7.6306 63.6889 7.54109C63.7155 7.54109 63.7422 7.53214 63.7689 7.52319C64.2312 7.43369 64.7023 7.35313 65.1735 7.27257C65.2446 7.26362 65.3158 7.24572 65.3869 7.23677C65.858 7.15622 66.3381 7.08461 66.8093 7.013C66.8982 6.9951 66.9782 6.98615 67.0671 6.9772C67.5561 6.9056 68.045 6.83399 68.534 6.77134C68.5429 6.77134 68.5606 6.77134 68.5784 6.77134C69.0585 6.70868 69.5475 6.65498 70.0364 6.60127C70.1075 6.59232 70.1875 6.58337 70.2587 6.57442C70.7387 6.52072 71.2277 6.47597 71.7078 6.43121C71.7967 6.43121 71.8767 6.42226 71.9567 6.41331C72.9613 6.33275 73.9659 6.26115 74.9793 6.2164C75.0593 6.2164 75.1394 6.2164 75.2194 6.20745C75.7083 6.18954 76.2062 6.17164 76.704 6.16269C76.784 6.16269 76.864 6.16269 76.9529 6.16269C77.4597 6.16269 77.9753 6.14479 78.4821 6.14479C78.9888 6.14479 79.5044 6.14479 80.0112 6.16269C80.0912 6.16269 80.1712 6.16269 80.2601 6.16269C80.7579 6.17164 81.2469 6.18954 81.7358 6.20745C81.8159 6.20745 81.8959 6.2164 81.9759 6.2164C82.9894 6.26115 83.9939 6.3238 84.9985 6.41331C85.0785 6.41331 85.1674 6.43121 85.2564 6.43121C85.7364 6.47597 86.2254 6.52072 86.7054 6.57442C86.7766 6.58337 86.8566 6.59232 86.9277 6.60127C87.4166 6.65498 87.9056 6.70868 88.3857 6.77134C88.4035 6.77134 88.4123 6.77134 88.4301 6.77134C88.9191 6.83399 89.4081 6.9056 89.897 6.9772C89.977 6.98615 90.0659 7.00405 90.1548 7.013C90.6349 7.08461 91.1061 7.15622 91.5772 7.23677C91.6484 7.24572 91.7195 7.26362 91.7906 7.27257C92.2618 7.35313 92.733 7.43369 93.1953 7.52319C93.2219 7.52319 93.2486 7.53214 93.2753 7.54109C93.7553 7.6306 94.2265 7.72906 94.7066 7.82751C94.7955 7.84542 94.8755 7.86332 94.9644 7.88122C95.4267 7.97968 95.8979 8.08708 96.3601 8.19449C96.4224 8.21239 96.4935 8.22134 96.5557 8.23924C97.0091 8.34665 97.4625 8.46301 97.907 8.57042C97.9426 8.57937 97.9781 8.58832 98.0137 8.59727C98.476 8.71363 98.9383 8.83894 99.4006 8.9732C99.4895 9.00005 99.5695 9.01795 99.6584 9.0448C100.112 9.17011 100.574 9.30437 101.019 9.43863C101.081 9.45653 101.143 9.47444 101.196 9.49234C101.632 9.6266 102.068 9.76086 102.503 9.90407C102.548 9.92197 102.592 9.93092 102.637 9.94882C103.09 10.092 103.534 10.2442 103.979 10.4053C104.059 10.4322 104.148 10.459 104.228 10.4948C104.672 10.647 105.117 10.8081 105.553 10.9692C105.606 10.9871 105.659 11.005 105.713 11.0319C106.13 11.193 106.557 11.3451 106.975 11.5152C107.028 11.5331 107.082 11.5599 107.126 11.5778C107.562 11.7479 107.997 11.9269 108.433 12.1059C108.513 12.1417 108.593 12.1775 108.682 12.2044C109.109 12.3834 109.544 12.5714 109.971 12.7593C110.015 12.7862 110.069 12.8041 110.113 12.822C110.522 13.001 110.922 13.189 111.331 13.3769C111.393 13.4038 111.447 13.4306 111.5 13.4575C111.918 13.6544 112.336 13.8513 112.754 14.0572C112.834 14.093 112.914 14.1377 112.994 14.1735C113.411 14.3794 113.829 14.5942 114.247 14.8001C114.283 14.8269 114.327 14.8448 114.363 14.8627C114.763 15.0686 115.154 15.2745 115.545 15.4893C115.607 15.5251 115.67 15.5519 115.732 15.5877C116.132 15.8115 116.541 16.0353 116.932 16.259C117.012 16.3038 117.092 16.3485 117.172 16.3933C117.572 16.626 117.981 16.8587 118.381 17.1004C118.417 17.1183 118.443 17.1452 118.479 17.1631C118.861 17.3958 119.243 17.6285 119.626 17.8612C119.688 17.906 119.75 17.9418 119.812 17.9776C120.204 18.2192 120.586 18.4698 120.968 18.7205C121.039 18.7742 121.119 18.8189 121.19 18.8726C121.581 19.1232 121.973 19.3828 122.355 19.6513C122.382 19.6692 122.399 19.6782 122.426 19.6961C122.799 19.9467 123.164 20.2152 123.537 20.4748C123.6 20.5195 123.662 20.5643 123.724 20.6091C124.097 20.8776 124.462 21.1461 124.835 21.4146C124.906 21.4683 124.978 21.522 125.049 21.5757C125.422 21.8532 125.795 22.1396 126.169 22.426C126.178 22.435 126.187 22.4439 126.204 22.4529C126.569 22.7393 126.933 23.0257 127.289 23.3122C127.351 23.3659 127.413 23.4106 127.476 23.4643C127.831 23.7507 128.187 24.0372 128.534 24.3325C128.596 24.3862 128.667 24.4399 128.729 24.4936C129.449 25.1023 130.16 25.7288 130.863 26.3554C130.925 26.4091 130.987 26.4628 131.041 26.5165C131.378 26.8208 131.716 27.1341 132.045 27.4474C132.107 27.5011 132.161 27.5548 132.223 27.6174C132.33 27.7248 132.445 27.8322 132.552 27.9307L132.632 27.9575Z" fill="url(#paint9_linear_1765_37597)"/>
<path d="M81.656 19.31C81.4959 19.7575 81.2737 20.0708 81.0425 20.2856C80.598 20.6974 80.1446 20.7421 80.1446 20.7421C79.4334 22.4964 78.4911 22.7381 78.4911 22.7381C78.4911 22.7381 77.5487 22.4964 76.8375 20.7421C76.8375 20.7421 76.3841 20.6974 75.9396 20.2856C75.7084 20.0708 75.4862 19.7665 75.3262 19.31C75.3262 19.31 75.7973 17.6989 76.4819 16.231C77.0597 14.9868 77.7799 13.8501 78.4911 13.8501C79.2467 13.8501 80.0113 15.1301 80.598 16.4548C81.2203 17.86 81.656 19.319 81.656 19.319V19.31Z" fill="url(#paint10_linear_1765_37597)"/>
<path d="M76.8462 20.7334C76.8462 20.7334 76.3928 20.6887 75.9482 20.277C76.535 20.3038 76.9262 18.9702 76.9617 18.8627C76.9439 18.9612 76.7573 19.901 76.8462 20.7334Z" fill="url(#paint11_linear_1765_37597)"/>
<path d="M80.1532 20.7334C80.2421 19.901 80.0554 18.9612 80.0376 18.8627C80.0732 18.9702 80.4643 20.3038 81.0511 20.277C80.6066 20.6887 80.1532 20.7334 80.1532 20.7334Z" fill="url(#paint12_linear_1765_37597)"/>
<path style="mix-blend-mode:multiply" opacity="0.5" d="M80.6069 16.4458C79.8601 17.3767 78.7488 18.1464 78.4999 18.0748C78.2243 17.9943 77.6642 18.0927 76.4907 16.231C77.0686 14.9868 77.7887 13.8501 78.4999 13.8501C79.2556 13.8501 80.0201 15.1301 80.6069 16.4548V16.4458Z" fill="url(#paint13_linear_1765_37597)"/>
<path d="M85.292 8.68613C85.1942 7.03921 81.656 6.69014 81.656 6.69014C81.656 6.69014 81.896 5.74137 81.4515 4.7926C81.007 3.84383 78.8733 1.81203 78.4911 1.81203C78.1088 1.81203 75.9752 3.83488 75.5306 4.7926C75.0861 5.74137 75.3262 6.69014 75.3262 6.69014C75.3262 6.69014 71.7879 7.03921 71.6901 8.68613C71.5923 10.3331 75.9396 14.1639 75.9396 14.1639L78.4911 14.1281L81.0425 14.1639C81.0425 14.1639 85.3809 10.3331 85.292 8.68613Z" fill="url(#paint14_linear_1765_37597)"/>
<path d="M72.419 10.377C71.9745 9.73259 71.6722 9.12394 71.6989 8.68536C71.7078 8.48845 71.77 8.30943 71.8678 8.14832C72.0901 7.99616 72.4101 7.93351 72.8279 7.98721C74.1259 8.16622 75.7973 10.6993 76.624 14.1542H75.9395C75.9395 14.1542 73.6281 12.1224 72.4101 10.377H72.419Z" fill="url(#paint15_linear_1765_37597)"/>
<path d="M76.6329 14.1543H75.9484C75.9484 14.1543 73.6369 12.1225 72.419 10.3771C72.4101 10.2608 71.7433 8.76603 72.419 8.38115C73.0946 8.00522 75.4238 9.66109 76.6329 14.1543Z" fill="url(#paint16_linear_1765_37597)"/>
<path d="M85.2919 8.83771C85.2475 9.35685 84.8474 10.0371 84.314 10.7352C83.0605 12.3911 81.0513 14.1634 81.0513 14.1634H80.1445C80.9713 10.6994 82.6427 8.16641 83.9406 7.9874C84.803 7.87104 85.2475 8.27382 85.3008 8.83771H85.2919Z" fill="url(#paint17_linear_1765_37597)"/>
<path d="M84.3408 10.3773C84.3408 10.3773 84.3319 10.5115 84.3052 10.7442C83.0517 12.4001 81.0425 14.1723 81.0425 14.1723H80.1357C81.3359 9.66121 83.674 8.00534 84.3408 8.39022C85.0164 8.76614 84.3497 10.2699 84.3408 10.3862V10.3773Z" fill="url(#paint18_linear_1765_37597)"/>
<path style="mix-blend-mode:multiply" opacity="0.5" d="M79.8688 13.2332C81.1668 10.736 81.8335 9.24126 81.2823 8.62366C80.74 8.00607 76.3839 7.86286 75.6015 8.5252C74.8192 9.18755 76.9617 13.2332 76.9617 13.2332H79.8599H79.8688Z" fill="url(#paint19_linear_1765_37597)"/>
<path d="M81.6559 6.69102C81.6559 6.69102 81.6559 6.69102 81.6381 6.70892C81.6381 6.70892 81.6381 6.70892 81.6292 6.71787C81.6292 6.71787 81.6204 6.72682 81.6115 6.73577C81.4248 6.90584 80.7313 7.54133 79.9579 8.12312C79.9579 8.12312 79.9401 8.13208 79.9312 8.14103C79.4512 8.49905 78.9355 8.84813 78.4999 9.04504C78.4999 9.04504 78.4999 9.04504 78.491 9.04504C78.491 9.04504 78.491 9.04504 78.4821 9.04504C78.2599 8.92868 76.7663 8.09627 75.3528 6.69997C75.3528 6.69997 75.1128 5.7512 75.5573 4.80243C75.5928 4.73083 75.6373 4.65027 75.6906 4.56076C75.8151 4.36385 75.984 4.14008 76.1796 3.90736C76.4374 5.52743 78.9444 6.01972 79.629 5.7154C80.3135 5.41108 80.9625 4.22959 80.5891 3.60304C80.9892 4.04162 81.327 4.48916 81.4692 4.80243C81.9137 5.7512 81.6737 6.69997 81.6737 6.69997L81.6559 6.69102Z" fill="url(#paint20_linear_1765_37597)"/>
<path style="mix-blend-mode:multiply" opacity="0.5" d="M81.6559 6.69025C81.6559 6.69025 81.6559 6.69025 81.6381 6.70816C81.6381 6.70816 81.6381 6.70816 81.6292 6.71711C81.6292 6.71711 81.6204 6.72606 81.6115 6.73501C81.4337 6.90507 80.7847 7.51371 79.9579 8.12236C79.9579 8.12236 79.9401 8.13131 79.9312 8.14026C79.4956 8.46249 78.9978 8.78471 78.4999 9.04428C78.4999 9.04428 78.4999 9.04428 78.491 9.04428C78.491 9.04428 78.491 9.04428 78.4821 9.04428C78.2599 8.92792 76.7397 8.14026 75.3528 6.6992C75.3528 6.6992 75.1128 5.75044 75.5573 4.80167C75.5928 4.73006 75.6373 4.6495 75.6906 4.56C75.5662 6.61865 78.5177 8.84736 78.5177 8.84736C78.5177 8.84736 80.518 7.3347 81.4781 4.80167C81.9226 5.75044 81.6826 6.6992 81.6826 6.6992L81.6559 6.69025Z" fill="url(#paint21_linear_1765_37597)"/>
<path d="M78.4556 2.46468C78.3044 2.65264 78.7223 3.60141 79.0956 3.56561C79.4601 3.52981 79.6379 3.22548 79.5224 3.01067C79.4068 2.8048 78.6422 2.24091 78.4644 2.45573L78.4556 2.46468Z" fill="url(#paint22_linear_1765_37597)"/>
<path d="M81.656 7.45995C81.9227 7.86273 83.1228 7.96118 82.9984 7.57631C82.8828 7.20038 82.1983 7.07507 81.9582 7.14667C81.7182 7.21828 81.5671 7.32569 81.6471 7.45995H81.656Z" fill="url(#paint23_linear_1765_37597)"/>
<path style="mix-blend-mode:multiply" opacity="0.5" d="M81.656 19.3107C81.4959 19.7582 81.2737 20.0715 81.0425 20.2863C80.598 20.698 80.1446 20.7428 80.1446 20.7428C79.4334 22.4971 78.4911 22.7388 78.4911 22.7388C78.4911 22.7388 77.5487 22.4971 76.8375 20.7428C76.8375 20.7428 76.3841 20.698 75.9396 20.2863C75.7084 20.0715 75.4862 19.7671 75.3262 19.3107C75.3262 19.3107 75.6462 18.2276 76.1352 17.0193C76.0907 17.6279 76.0018 19.257 76.153 19.5613C76.3308 19.9372 76.8286 19.8746 76.8286 19.8746C77.2375 20.9486 78.4022 21.9959 78.6422 21.9332C78.8822 21.8706 79.9402 20.1431 80.118 19.4091C80.118 19.4091 80.3491 19.8746 80.8736 19.7134C81.3893 19.5523 80.8025 16.9029 80.8025 16.9029C81.3181 18.1471 81.656 19.3017 81.656 19.3017V19.3107Z" fill="url(#paint24_linear_1765_37597)"/>
<path d="M81.1313 13.8513C81.1313 15.2655 79.9933 16.4202 78.5798 16.4202C77.1663 16.4202 76.0283 15.2745 76.0283 13.8513C76.0283 12.4282 77.1663 11.2825 78.5798 11.2825C79.9933 11.2825 81.1313 12.4282 81.1313 13.8513Z" fill="url(#paint25_radial_1765_37597)"/>
<path style="mix-blend-mode:multiply" opacity="0.5" d="M81.1313 13.8511C81.1313 15.2653 79.9933 16.4199 78.5798 16.4199C77.1663 16.4199 76.0283 15.2742 76.0283 13.8511C76.0283 13.1887 76.2772 12.5891 76.6862 12.1326C76.5262 12.4279 76.4373 12.777 76.4373 13.135C76.4373 14.2986 77.3796 15.2474 78.5353 15.2474C79.6911 15.2474 80.6334 14.2986 80.6334 13.135C80.6334 12.6696 80.4823 12.24 80.2334 11.8909C80.7846 12.3563 81.1313 13.0634 81.1313 13.8421V13.8511Z" fill="url(#paint26_linear_1765_37597)"/>
<path d="M78.8463 11.8916C78.1707 12.1959 78.1885 12.9388 78.2151 13.0641C78.2507 13.1894 79.7087 13.6191 79.8509 13.3147C79.9931 13.0104 79.8865 12.178 79.7442 12.0616C79.602 11.9542 78.9797 11.82 78.8463 11.8826V11.8916Z" fill="url(#paint27_linear_1765_37597)"/>
<path d="M73.1747 15.4629C72.5702 14.6574 71.2011 15.6688 71.1566 16.8592C71.1122 18.0497 72.7924 19.5892 73.9748 20.0278C74.2771 20.1352 75.984 19.5355 76.8019 17.7453C77.6198 15.9552 76.8374 14.4425 75.8328 14.1651C74.8283 13.8966 73.1747 15.4629 73.1747 15.4629Z" fill="url(#paint28_linear_1765_37597)"/>
<path d="M72.5616 16.4122C72.5616 16.4122 73.1928 16.3674 73.1928 15.6961C73.1928 15.0248 72.8638 12.5634 68.2854 12.6081C68.2854 12.6081 64.0893 13.5122 56.346 18.5514C56.346 18.5514 52.3809 20.8785 48.656 20.1177C44.931 19.3569 41.4372 14.8906 41.5261 8.61614C41.5261 8.61614 43.1263 3.43371 47.0024 1.24975C47.0024 1.24975 51.0119 -0.227107 55.7325 1.49142C55.7325 1.49142 60.311 5.76983 54.5057 10.2362C54.5057 10.2362 52.1943 11.5699 50.3095 11.5162C50.3095 11.5162 49.4561 13.5122 50.3095 15.0338C50.3095 15.0338 53.0033 15.6514 54.5057 15.1322C54.5057 15.1322 58.7996 10.7643 64.0359 9.57386C69.2722 8.38343 75.0508 10.4063 75.9576 14.6489C76.3221 16.3495 75.5309 18.2113 73.6462 17.9875C72.3215 17.8264 72.5616 16.4211 72.5616 16.4211V16.4122Z" fill="url(#paint29_linear_1765_37597)"/>
<path d="M54.4965 10.237C54.4965 10.237 52.185 11.5707 50.3003 11.517C50.3003 11.517 49.4469 13.513 50.3003 15.0346C50.3003 15.0346 52.994 15.6522 54.4965 15.133C52.4695 16.4667 50.9048 17.7466 48.3356 18.033C48.3356 18.033 46.9843 18.1583 45.2329 18.3016C43.0459 16.3056 41.4546 12.8775 41.5257 8.62589C41.5257 8.62589 43.126 3.44346 47.0021 1.2595C47.0021 1.2595 51.0115 -0.217357 55.7322 1.50117C55.7322 1.50117 60.3106 5.77958 54.5053 10.246L54.4965 10.237Z" fill="url(#paint30_linear_1765_37597)"/>
<path d="M54.4965 10.2362C54.4965 10.2362 52.185 11.5699 50.3003 11.5162C50.3003 11.5162 49.4469 13.5122 50.3003 15.0338C47.1354 15.1322 46.3531 16.8239 47.0732 17.6116C47.2243 17.7727 47.171 17.9517 47.011 18.1396C46.5131 18.1844 45.8997 18.2381 45.2329 18.2918C43.0459 16.2958 41.4546 12.8677 41.5257 8.61614C41.5257 8.61614 43.126 3.43371 47.0021 1.24975C47.0021 1.24975 51.0115 -0.227107 55.7322 1.49142C55.7322 1.49142 60.3106 5.76983 54.5053 10.2362H54.4965Z" fill="url(#paint31_linear_1765_37597)"/>
<path style="mix-blend-mode:multiply" opacity="0.5" d="M51.136 7.52372C51.136 7.52372 50.3981 10.1821 48.7979 11.3188C45.6686 11.2024 43.5438 8.93793 43.5438 8.93793C42.9126 9.53762 42.4326 10.7639 42.4326 10.7639C42.4326 10.7639 42.0858 10.4685 41.5524 10.012C41.5169 9.55552 41.508 9.09009 41.5169 8.6157C41.5169 8.6157 43.1171 3.43327 46.9932 1.24931C46.9932 1.24931 51.545 3.28111 51.136 7.51477V7.52372Z" fill="url(#paint32_linear_1765_37597)"/>
<path d="M48.1755 7.73059C48.1755 7.73059 47.6688 7.26515 47.0198 7.73059C46.3708 8.19602 46.9576 9.86979 47.8288 10.38C48.1489 10.5679 49.429 9.57442 49.7758 8.41084L48.1755 7.73059Z" fill="url(#paint33_linear_1765_37597)"/>
<path d="M49.7756 7.12994C49.7756 7.22839 49.7578 7.34475 49.7311 7.47901C49.7311 7.49691 49.7311 7.51482 49.7222 7.53272C49.6778 7.70278 49.6155 7.89074 49.5355 8.08766C49.5266 8.12346 49.5088 8.15031 49.4911 8.18611C49.4822 8.21297 49.4644 8.23982 49.4555 8.26667C49.4555 8.28457 49.4377 8.30247 49.4288 8.32933C49.3844 8.42778 49.331 8.52624 49.2866 8.6247C49.2688 8.6605 49.2421 8.70525 49.2244 8.74106C49.2155 8.75896 49.2066 8.77686 49.1888 8.79476C49.1799 8.81266 49.171 8.83056 49.1532 8.84846C49.1088 8.92007 49.0643 9.00062 49.0199 9.07223C48.6109 9.13488 47.8286 8.95587 47.8286 8.95587C47.8286 8.95587 48.6198 7.88179 47.8642 6.99568L49.7756 6.92407C49.7756 6.92407 49.7756 6.94197 49.7756 6.95092C49.7756 6.97778 49.7756 7.00463 49.7756 7.03148C49.7756 7.05833 49.7756 7.08518 49.7756 7.11204V7.12994Z" fill="url(#paint34_linear_1765_37597)"/>
<path d="M73.1746 15.463C73.0857 14.5858 72.4189 12.6972 68.2761 12.742C68.2761 12.742 64.08 13.5117 56.3367 18.5509C56.3367 18.5509 52.3717 20.8781 48.6467 20.1173C44.9217 19.3565 41.4279 14.8901 41.5168 8.61571C41.5168 8.61571 43.117 3.43327 46.9931 1.24931C50.1847 1.32987 51.9805 4.72217 52.0072 6.36909C52.0427 8.01601 48.9845 11.1845 48.3533 11.2024C47.7221 11.2203 46.0597 8.81262 46.4064 7.9265C46.7531 7.04039 47.8555 7.00459 47.8555 7.00459C48.6111 7.8907 47.8199 8.96478 47.8199 8.96478C47.8199 8.96478 47.9177 8.30243 47.8555 7.98021C47.7932 7.66694 47.3221 7.79224 47.0642 8.20397C46.8153 8.61571 47.4376 9.91355 48.0422 9.9762C48.6378 10.0389 49.7757 7.95336 49.7757 7.12095C49.7757 6.28853 49.2068 4.61476 47.6332 4.23883C46.0597 3.86291 42.8503 6.58391 42.2814 8.41879C41.7124 10.2537 43.9794 16.2148 47.0642 17.6022C50.1491 18.9985 53.7319 17.4142 53.7319 17.4142C60.3372 13.1089 66.6315 10.1284 69.9653 10.9518C73.2991 11.7753 73.1657 15.4451 73.1657 15.4451L73.1746 15.463Z" fill="url(#paint35_linear_1765_37597)"/>
<path d="M54.4965 10.2368C54.4965 10.2368 52.1851 11.5704 50.3004 11.5167C50.3004 11.5167 49.5625 11.5346 48.3623 11.2035C48.9935 11.1856 52.0428 8.01704 52.0162 6.37011C52.0073 5.73462 51.7317 4.8485 51.216 3.98029C51.216 3.98029 52.1139 4.74109 52.7985 6.8087C52.9585 7.28308 55.5811 6.99666 56.5146 6.14635C57.448 5.29604 56.7635 2.87041 56.7635 2.87041C57.6614 4.49048 58.2837 7.31888 54.5054 10.2278L54.4965 10.2368Z" fill="url(#paint36_linear_1765_37597)"/>
<path style="mix-blend-mode:color-dodge" opacity="0.5" d="M55.0122 1.25852C55.0122 1.25852 54.7366 3.32612 53.3941 3.68414C52.0517 4.04217 51.2161 3.98847 51.2161 3.98847L50.8516 3.43353C52.7007 4.13168 54.4787 2.53846 52.5851 0.757278C53.3497 0.846785 54.1676 0.998946 55.0122 1.25852Z" fill="url(#paint37_linear_1765_37597)"/>
<path d="M49.3047 0.766202C50.1137 0.667745 51.1005 0.622991 52.2029 0.721449C52.3718 1.4554 49.7492 1.41065 49.3047 0.766202Z" fill="url(#paint38_linear_1765_37597)"/>
<path d="M53.3852 6.79924C53.2785 7.04986 54.4609 6.9335 54.781 6.73658C55.0921 6.54862 54.6387 6.46806 54.212 6.46806C53.7853 6.46806 53.4652 6.61127 53.3852 6.79924Z" fill="url(#paint39_linear_1765_37597)"/>
<path style="mix-blend-mode:color-dodge" opacity="0.5" d="M62.2128 12.0171C62.3817 11.5427 61.1282 10.9967 57.9277 12.3572C58.47 11.9902 59.0568 11.6322 59.6791 11.2831C61.1637 11.0235 62.0883 11.3099 62.5595 11.8291C62.9773 12.2945 63.6885 12.035 63.8397 11.9633L61.1726 13.1359C61.226 13.1001 62.0439 12.4825 62.2039 12.0171H62.2128Z" fill="url(#paint40_linear_1765_37597)"/>
<path d="M67.3336 10.9525C67.3336 10.9525 63.8398 11.051 58.6479 14.4522C58.6479 14.4522 62.7107 12.0803 67.3336 10.9525Z" fill="url(#paint41_linear_1765_37597)"/>
<path d="M65.1736 10.8184C64.9158 10.9079 64.3557 11.2838 64.738 11.248C65.1825 11.2122 65.9648 11.0869 65.9648 10.9527C65.9648 10.7737 65.387 10.7379 65.1736 10.8184Z" fill="url(#paint42_linear_1765_37597)"/>
<path style="mix-blend-mode:multiply" opacity="0.5" d="M73.6455 17.9778C72.3209 17.8167 72.5609 16.4114 72.5609 16.4114C72.5609 16.4114 73.1921 16.3667 73.1921 15.6954C73.1921 15.6327 73.1921 15.5522 73.1832 15.4537C73.1832 15.4537 73.2277 14.2454 72.6409 13.0639C73.69 15.0509 75.0413 14.0574 75.0413 13.7262C75.0413 13.1355 74.4101 11.8645 74.3923 11.8197C75.1835 12.5985 75.7436 13.5472 75.9747 14.6392C76.3392 16.3398 75.548 18.2016 73.6633 17.9778H73.6455Z" fill="url(#paint43_linear_1765_37597)"/>
<path d="M83.8251 15.4629C84.4296 14.6574 85.7987 15.6688 85.8431 16.8592C85.8876 18.0497 84.2074 19.5892 83.025 20.0278C82.7227 20.1352 81.0158 19.5355 80.1979 17.7453C79.3889 15.9552 80.1623 14.4425 81.1669 14.1651C82.1715 13.8966 83.8251 15.4629 83.8251 15.4629Z" fill="url(#paint44_linear_1765_37597)"/>
<path d="M84.4386 16.4122C84.4386 16.4122 83.8073 16.3674 83.8073 15.6961C83.8073 15.0248 84.1363 12.5634 88.7147 12.6081C88.7147 12.6081 92.9109 13.5122 100.654 18.5514C100.654 18.5514 104.619 20.8785 108.344 20.1177C112.069 19.3569 115.563 14.8906 115.474 8.61614C115.474 8.61614 113.874 3.43371 109.998 1.24975C109.998 1.24975 105.988 -0.227107 101.268 1.49142C101.268 1.49142 96.6892 5.76983 102.494 10.2362C102.494 10.2362 104.806 11.5699 106.691 11.5162C106.691 11.5162 107.544 13.5122 106.691 15.0338C106.691 15.0338 103.997 15.6514 102.494 15.1322C102.494 15.1322 98.2005 10.7643 92.9642 9.57386C87.7279 8.38343 81.9493 10.4063 81.0425 14.6489C80.678 16.3495 81.4692 18.2113 83.354 17.9875C84.6786 17.8264 84.4386 16.4211 84.4386 16.4211V16.4122Z" fill="url(#paint45_linear_1765_37597)"/>
<path d="M102.495 10.237C102.495 10.237 104.806 11.5706 106.691 11.5169C106.691 11.5169 107.544 13.5129 106.691 15.0345C106.691 15.0345 103.997 15.6521 102.495 15.133C104.521 16.4666 106.086 17.7466 108.655 18.033C108.655 18.033 110.007 18.1583 111.758 18.3015C113.945 16.3055 115.536 12.8774 115.465 8.62585C115.465 8.62585 113.865 3.44342 109.989 1.25946C109.989 1.25946 105.979 -0.217402 101.259 1.50112C101.259 1.50112 96.6804 5.77954 102.486 10.2459L102.495 10.237Z" fill="url(#paint46_linear_1765_37597)"/>
<path d="M102.495 10.2362C102.495 10.2362 104.806 11.5699 106.691 11.5162C106.691 11.5162 107.544 13.5122 106.691 15.0338C109.856 15.1322 110.638 16.8239 109.918 17.6116C109.767 17.7727 109.82 17.9517 109.98 18.1396C110.478 18.1844 111.091 18.2381 111.758 18.2918C113.945 16.2958 115.536 12.8677 115.465 8.61614C115.465 8.61614 113.865 3.43371 109.989 1.24975C109.989 1.24975 105.979 -0.227107 101.259 1.49142C101.259 1.49142 96.6804 5.76983 102.486 10.2362H102.495Z" fill="url(#paint47_linear_1765_37597)"/>
<path style="mix-blend-mode:multiply" opacity="0.5" d="M106.557 7.47002C106.557 7.47002 106.717 9.58238 108.637 10.7639C112.256 8.76787 113.447 8.93793 113.447 8.93793C114.078 9.53762 114.558 10.7639 114.558 10.7639C114.558 10.7639 114.905 10.4685 115.438 10.012C115.474 9.55552 115.483 9.09009 115.474 8.61571C115.474 8.61571 113.874 3.43327 109.997 1.24931C109.997 1.24931 106.237 3.97926 106.548 7.46107L106.557 7.47002Z" fill="url(#paint48_linear_1765_37597)"/>
<path d="M108.816 7.73059C108.816 7.73059 109.322 7.26515 109.971 7.73059C110.62 8.19602 110.034 9.86979 109.162 10.38C108.842 10.5679 107.562 9.57442 107.215 8.41084L108.816 7.73059Z" fill="url(#paint49_linear_1765_37597)"/>
<path d="M107.215 7.12994C107.215 7.22839 107.233 7.34475 107.26 7.47901C107.26 7.49691 107.26 7.51482 107.269 7.53272C107.313 7.70278 107.375 7.89074 107.455 8.08766C107.464 8.12346 107.482 8.15031 107.5 8.18611C107.509 8.21297 107.526 8.23982 107.535 8.26667C107.535 8.28457 107.553 8.30247 107.562 8.32933C107.606 8.42778 107.66 8.52624 107.704 8.6247C107.722 8.6605 107.749 8.70525 107.767 8.74106C107.775 8.75896 107.784 8.77686 107.802 8.79476C107.811 8.81266 107.82 8.83056 107.838 8.84846C107.882 8.92007 107.927 9.00063 107.971 9.07223C108.38 9.13489 109.162 8.95587 109.162 8.95587C109.162 8.95587 108.371 7.88179 109.127 6.99568L107.215 6.92407C107.215 6.92407 107.215 6.94197 107.215 6.95092C107.215 6.97778 107.215 7.00463 107.215 7.03148C107.215 7.05833 107.215 7.08518 107.215 7.11204V7.12994Z" fill="url(#paint50_linear_1765_37597)"/>
<path d="M83.8252 15.463C83.9141 14.5858 84.5809 12.6972 88.7237 12.742C88.7237 12.742 92.9198 13.5117 100.663 18.5509C100.663 18.5509 104.628 20.8781 108.353 20.1173C112.078 19.3565 115.572 14.8901 115.483 8.61571C115.483 8.61571 113.883 3.43327 110.007 1.24931C106.815 1.32987 105.019 4.72217 104.993 6.36909C104.957 8.01601 108.015 11.1845 108.646 11.2024C109.278 11.2203 110.94 8.81262 110.593 7.9265C110.247 7.04039 109.144 7.00459 109.144 7.00459C108.389 7.8907 109.18 8.96478 109.18 8.96478C109.18 8.96478 109.082 8.30243 109.144 7.98021C109.207 7.66694 109.678 7.79224 109.936 8.20397C110.184 8.61571 109.562 9.91355 108.958 9.9762C108.362 10.0389 107.224 7.95336 107.224 7.12095C107.224 6.28853 107.793 4.61476 109.367 4.23883C110.94 3.86291 114.149 6.58391 114.718 8.41879C115.287 10.2537 113.02 16.2148 109.936 17.6022C106.851 18.9985 103.268 17.4142 103.268 17.4142C96.6626 13.1089 90.3683 10.1284 87.0345 10.9518C83.7007 11.7753 83.8341 15.4451 83.8341 15.4451L83.8252 15.463Z" fill="url(#paint51_linear_1765_37597)"/>
<path d="M102.495 10.2368C102.495 10.2368 104.806 11.5704 106.691 11.5167C106.691 11.5167 107.429 11.5346 108.629 11.2035C107.998 11.1856 104.948 8.01704 104.975 6.37011C104.984 5.73462 105.26 4.8485 105.775 3.98029C105.775 3.98029 104.877 4.74109 104.193 6.8087C104.033 7.28308 101.41 6.99666 100.477 6.14635C99.5521 5.28708 100.228 2.87041 100.228 2.87041C99.3298 4.49048 98.7075 7.31888 102.486 10.2278L102.495 10.2368Z" fill="url(#paint52_linear_1765_37597)"/>
<path style="mix-blend-mode:color-dodge" opacity="0.5" d="M101.988 1.25852C101.988 1.25852 102.263 3.32612 103.606 3.68414C104.948 4.04217 105.784 3.98847 105.784 3.98847L106.148 3.43353C104.299 4.13168 102.521 2.53846 104.415 0.757278C103.65 0.846785 102.832 0.998946 101.988 1.25852Z" fill="url(#paint53_linear_1765_37597)"/>
<path d="M107.695 0.766202C106.886 0.667745 105.899 0.622991 104.797 0.721449C104.628 1.4554 107.251 1.41065 107.695 0.766202Z" fill="url(#paint54_linear_1765_37597)"/>
<path d="M103.606 6.79924C103.713 7.04986 102.53 6.9335 102.21 6.73658C101.89 6.53967 102.352 6.46806 102.779 6.46806C103.206 6.46806 103.526 6.61127 103.606 6.79924Z" fill="url(#paint55_linear_1765_37597)"/>
<path style="mix-blend-mode:color-dodge" opacity="0.5" d="M94.7866 12.0171C94.6177 11.5427 95.8712 10.9967 99.0716 12.3572C98.5293 11.9902 97.9426 11.6322 97.3203 11.2831C95.8356 11.0235 94.911 11.3099 94.4399 11.8291C94.022 12.2945 93.3108 12.035 93.1597 11.9633L95.8267 13.1359C95.7734 13.1001 94.9555 12.4825 94.7955 12.0171H94.7866Z" fill="url(#paint56_linear_1765_37597)"/>
<path d="M89.666 10.9525C89.666 10.9525 93.1598 11.051 98.3517 14.4522C98.3517 14.4522 94.2889 12.0803 89.666 10.9525Z" fill="url(#paint57_linear_1765_37597)"/>
<path d="M91.8171 10.8184C92.0749 10.9079 92.635 11.2838 92.2527 11.248C91.8082 11.2122 91.0259 11.0869 91.0259 10.9527C91.0259 10.7737 91.6037 10.7379 91.8171 10.8184Z" fill="url(#paint58_linear_1765_37597)"/>
<path style="mix-blend-mode:multiply" opacity="0.5" d="M83.3537 17.9778C84.6783 17.8167 84.4383 16.4114 84.4383 16.4114C84.4383 16.4114 83.8071 16.3667 83.8071 15.6954C83.8071 15.6327 83.8071 15.5522 83.816 15.4537C83.816 15.4537 83.7715 14.2454 84.3583 13.0639C83.3092 15.0509 81.9579 14.0574 81.9579 13.7262C81.9579 13.1355 82.5891 11.8645 82.6069 11.8197C81.8157 12.5985 81.2556 13.5472 81.0245 14.6392C80.66 16.3398 81.4512 18.2016 83.3359 17.9778H83.3537Z" fill="url(#paint59_linear_1765_37597)"/>
<path d="M44.9311 155.154C46.8158 155.234 47.2692 159.548 46.8869 160.381C46.8869 160.381 49.5984 162.395 51.4031 161.84C51.4031 161.84 53.4567 160.345 54.6213 158.403L59.342 160.891C57.9907 163.352 56.1593 166.056 54.4702 167.255C51.2697 169.519 46.9936 169.761 44.7888 168.83C42.5841 167.89 38.5568 163.782 38.459 160.963C38.3612 158.143 43.0375 155.091 44.9222 155.172L44.9311 155.154Z" fill="url(#paint60_linear_1765_37597)"/>
<path d="M44.051 157.919C44.051 157.919 43.1975 158.169 43.1886 158.545C43.1708 158.921 43.8376 160.828 44.3888 161.132C44.94 161.436 45.989 161.857 46.8958 160.389C46.8958 160.389 49.6073 162.403 51.412 161.848C51.412 161.848 53.4656 160.353 54.6302 158.411L56.7728 159.539C55.9726 161.033 55.0214 162.51 54.328 163.235C52.87 164.775 50.4785 165.375 49.874 165.204C42.8063 163.226 42.0596 158.59 42.0596 158.59C42.6552 157.766 44.0421 157.919 44.0421 157.919H44.051Z" fill="url(#paint61_linear_1765_37597)"/>
<path d="M42.1662 156.138C40.2993 157.248 38.4146 159.146 38.4679 160.954C38.5657 163.773 42.5929 167.89 44.7977 168.821C46.1134 169.385 48.1759 169.519 50.3007 169.054C47.198 169.099 43.3753 166.619 40.1926 160.864C39.5347 159.683 39.9526 157.66 42.1573 156.138H42.1662Z" fill="url(#paint62_linear_1765_37597)"/>
<path style="mix-blend-mode:multiply" opacity="0.5" d="M39.0543 162.968C39.0543 162.968 39.081 163.022 39.0899 163.049C39.0988 163.067 39.1077 163.093 39.1254 163.111C39.1966 163.237 39.2944 163.416 39.4188 163.639C40.7612 165.904 43.2416 168.15 44.7974 168.822C46.1131 169.386 48.1756 169.52 50.3004 169.055C47.1977 169.099 43.3749 166.62 40.1923 160.865C39.2588 160.542 38.5743 161.957 39.0454 162.977L39.0543 162.968Z" fill="url(#paint63_linear_1765_37597)"/>
<path d="M44.0507 157.92C44.0507 157.92 43.1972 158.171 43.1883 158.547C43.1706 158.923 43.8373 160.829 44.3885 161.134C44.1751 159.326 44.0862 158.341 44.913 158.09C44.913 158.09 44.5574 157.929 44.0507 157.929V157.92Z" fill="url(#paint64_linear_1765_37597)"/>
<path style="mix-blend-mode:color-dodge" opacity="0.5" d="M53.439 163.988C52.9056 164.4 51.5898 164.919 51.5898 164.919C53.2256 164.99 58.0619 162.672 56.2927 165.483C56.8973 164.767 57.484 163.934 58.0441 163.066C56.6483 162.198 53.439 163.979 53.439 163.979V163.988Z" fill="url(#paint65_linear_1765_37597)"/>
<path style="mix-blend-mode:multiply" opacity="0.5" d="M51.4117 161.76C50.825 161.939 50.1582 161.849 49.5003 161.652C50.336 163.621 49.8737 165.116 49.8737 165.116C48.5224 166.709 48.069 168.589 48.069 168.589L47.1533 169.233C49.3847 169.359 52.194 168.777 54.4699 167.166C56.159 165.966 57.9904 163.263 59.3417 160.802L54.621 158.314C53.4564 160.265 51.4028 161.751 51.4028 161.751L51.4117 161.76Z" fill="url(#paint66_linear_1765_37597)"/>
<path d="M59.12 162.054C59.0489 161.956 58.9778 161.866 58.9066 161.768C58.9066 161.768 57.4576 163.997 54.8972 164.202C54.8972 164.202 53.8748 163.925 52.7369 163.406C52.0257 163.084 51.27 162.672 50.6922 162.18C49.2075 160.9 50.1854 151.689 51.9101 150.275C52.3813 149.89 55.1106 152.746 58.9867 157.382C59.0844 157.615 59.1645 157.856 59.2267 158.098C59.5378 159.342 59.4401 160.765 59.1111 162.045L59.12 162.054Z" fill="url(#paint67_linear_1765_37597)"/>
<path d="M50.4433 153.989C49.8032 157.202 49.7321 161.355 50.6922 162.179C52.1769 163.459 54.8973 164.193 54.8973 164.193C57.4043 163.987 58.8445 161.848 58.9067 161.758C56.8087 162.617 52.7192 161.248 51.679 160.433C51.0301 159.923 50.2388 158.088 50.4433 153.98V153.989Z" fill="url(#paint68_linear_1765_37597)"/>
<path d="M58.9064 161.767C58.8175 161.615 59.2798 160.326 59.0753 159.753C58.8709 159.18 54.5503 154.848 54.0613 154.839C54.008 154.839 53.9635 154.866 53.9191 154.929C53.5101 155.439 53.2523 158.07 53.2167 158.366C53.1812 158.697 54.7281 160.084 55.1103 159.744C55.4926 159.404 55.2437 157.211 55.2437 157.211C55.2437 157.211 56.0616 159.377 55.8038 159.816C55.5459 160.245 54.8081 160.487 54.4347 160.478C54.0613 160.46 52.7989 159.225 52.4611 158.661C52.2922 158.384 52.4077 157.059 52.6033 155.779V155.734C52.8078 154.463 53.0923 153.237 53.279 153.148C53.6435 152.96 58.9242 158.545 59.2887 159.153C59.6532 159.762 58.9064 161.776 58.9064 161.776V161.767Z" fill="url(#paint69_linear_1765_37597)"/>
<path d="M54.4347 160.47C54.0613 160.453 52.7989 159.217 52.4611 158.654C52.2922 158.376 52.4077 157.051 52.6033 155.771V155.727L53.9191 154.93C53.5101 155.44 53.2523 158.072 53.2167 158.367C53.1812 158.698 54.7281 160.086 55.1103 159.745C55.4926 159.405 55.2437 157.212 55.2437 157.212C55.2437 157.212 56.0616 159.379 55.8038 159.817C55.5459 160.247 54.8081 160.488 54.4347 160.479V160.47Z" fill="url(#paint70_linear_1765_37597)"/>
<path style="mix-blend-mode:multiply" opacity="0.5" d="M59.1201 162.054C59.0489 161.956 58.9778 161.866 58.9067 161.768C58.9067 161.768 57.4576 163.997 54.8972 164.202C54.8972 164.202 53.8749 163.925 52.7369 163.406C49.2787 162.421 49.9988 159.727 49.9988 159.727C54.5861 158.752 58.0888 158.546 58.0888 158.546L58.2666 157.937L59.2356 158.107C59.5468 159.351 59.449 160.765 59.1201 162.054Z" fill="url(#paint71_linear_1765_37597)"/>
<path d="M114.133 155.154C112.248 155.234 111.794 159.548 112.177 160.381C112.177 160.381 109.465 162.395 107.661 161.84C107.661 161.84 105.607 160.345 104.442 158.403L99.7217 160.891C101.073 163.352 102.904 166.056 104.593 167.255C107.794 169.519 112.07 169.761 114.275 168.83C116.48 167.89 120.507 163.782 120.605 160.963C120.702 158.143 116.026 155.091 114.141 155.172L114.133 155.154Z" fill="url(#paint72_linear_1765_37597)"/>
<path d="M115.013 157.919C115.013 157.919 115.866 158.169 115.875 158.545C115.884 158.921 115.226 160.828 114.675 161.132C114.124 161.436 113.075 161.857 112.168 160.389C112.168 160.389 109.456 162.403 107.652 161.848C107.652 161.848 105.598 160.353 104.434 158.411L102.291 159.539C103.091 161.034 104.042 162.51 104.736 163.235C106.194 164.775 108.585 165.375 109.19 165.205C116.257 163.226 117.004 158.59 117.004 158.59C116.409 157.767 115.022 157.919 115.022 157.919H115.013Z" fill="url(#paint73_linear_1765_37597)"/>
<path d="M116.906 156.138C118.773 157.248 120.658 159.146 120.605 160.954C120.507 163.773 116.48 167.89 114.275 168.821C112.959 169.385 110.897 169.52 108.772 169.054C111.875 169.099 115.697 166.619 118.88 160.864C119.538 159.683 119.12 157.66 116.915 156.138H116.906Z" fill="url(#paint74_linear_1765_37597)"/>
<path style="mix-blend-mode:multiply" opacity="0.5" d="M120.018 162.968C120.018 162.968 119.991 163.022 119.982 163.049C119.974 163.067 119.965 163.093 119.947 163.111C119.876 163.237 119.778 163.416 119.654 163.639C118.311 165.904 115.831 168.151 114.275 168.822C112.959 169.386 110.897 169.52 108.772 169.055C111.875 169.099 115.697 166.62 118.88 160.865C119.814 160.542 120.498 161.957 120.027 162.977L120.018 162.968Z" fill="url(#paint75_linear_1765_37597)"/>
<path d="M115.013 157.92C115.013 157.92 115.866 158.171 115.875 158.547C115.884 158.923 115.226 160.829 114.675 161.134C114.888 159.326 114.977 158.341 114.15 158.09C114.15 158.09 114.506 157.929 115.013 157.929V157.92Z" fill="url(#paint76_linear_1765_37597)"/>
<path style="mix-blend-mode:color-dodge" opacity="0.5" d="M105.625 163.988C106.158 164.4 107.474 164.919 107.474 164.919C105.838 164.99 101.002 162.672 102.771 165.483C102.166 164.767 101.58 163.934 101.02 163.066C102.415 162.198 105.625 163.979 105.625 163.979V163.988Z" fill="url(#paint77_linear_1765_37597)"/>
<path style="mix-blend-mode:multiply" opacity="0.5" d="M107.66 161.76C108.247 161.939 108.914 161.849 109.572 161.652C108.736 163.621 109.198 165.116 109.198 165.116C110.55 166.709 111.003 168.589 111.003 168.589L111.919 169.233C109.687 169.359 106.878 168.777 104.602 167.166C102.913 165.966 101.082 163.263 99.7305 160.802L104.451 158.314C105.616 160.265 107.669 161.751 107.669 161.751L107.66 161.76Z" fill="url(#paint78_linear_1765_37597)"/>
<path d="M99.9522 162.054C100.023 161.956 100.094 161.866 100.166 161.768C100.166 161.768 101.615 163.997 104.175 164.202C104.175 164.202 105.197 163.925 106.335 163.406C107.047 163.084 107.802 162.672 108.38 162.18C109.865 160.9 108.887 151.689 107.162 150.275C106.691 149.89 103.962 152.746 100.086 157.382C99.9878 157.615 99.9078 157.856 99.8456 158.098C99.5344 159.342 99.6322 160.765 99.9611 162.045L99.9522 162.054Z" fill="url(#paint79_linear_1765_37597)"/>
<path d="M108.629 153.989C109.27 157.202 109.341 161.355 108.381 162.179C106.896 163.459 104.175 164.193 104.175 164.193C101.668 163.987 100.228 161.848 100.166 161.758C102.264 162.617 106.354 161.248 107.394 160.433C108.043 159.923 108.834 158.088 108.629 153.98V153.989Z" fill="url(#paint80_linear_1765_37597)"/>
<path d="M100.166 161.767C100.255 161.615 99.7922 160.326 99.9967 159.753C100.201 159.18 104.522 154.848 105.011 154.839C105.064 154.839 105.109 154.866 105.153 154.929C105.562 155.439 105.82 158.07 105.855 158.366C105.891 158.697 104.344 160.084 103.962 159.744C103.579 159.404 103.828 157.211 103.828 157.211C103.828 157.211 103.01 159.377 103.268 159.816C103.526 160.245 104.264 160.487 104.637 160.478C105.011 160.46 106.273 159.225 106.611 158.661C106.78 158.384 106.664 157.059 106.469 155.779V155.734C106.264 154.463 105.98 153.237 105.793 153.148C105.429 152.96 100.148 158.545 99.7833 159.153C99.4189 159.762 100.166 161.776 100.166 161.776V161.767Z" fill="url(#paint81_linear_1765_37597)"/>
<path d="M104.638 160.47C105.011 160.453 106.273 159.217 106.611 158.654C106.78 158.376 106.665 157.051 106.469 155.771V155.727L105.153 154.93C105.562 155.44 105.82 158.072 105.856 158.367C105.891 158.698 104.344 160.086 103.962 159.745C103.58 159.405 103.829 157.212 103.829 157.212C103.829 157.212 103.011 159.379 103.269 159.817C103.526 160.247 104.264 160.488 104.638 160.479V160.47Z" fill="url(#paint82_linear_1765_37597)"/>
<path style="mix-blend-mode:multiply" opacity="0.5" d="M99.9523 162.054C100.023 161.956 100.095 161.866 100.166 161.768C100.166 161.768 101.615 163.997 104.175 164.202C104.175 164.202 105.198 163.925 106.335 163.406C109.794 162.421 109.074 159.727 109.074 159.727C104.486 158.752 100.984 158.546 100.984 158.546L100.806 157.937L99.8368 158.107C99.5256 159.351 99.6234 160.765 99.9523 162.054Z" fill="url(#paint83_linear_1765_37597)"/>
</g>
<defs>
<filter id="filter0_i_1765_37597" x="10" y="15.0591" width="139.416" height="146.96" filterUnits="userSpaceOnUse" color-interpolation-filters="sRGB">
<feFlood flood-opacity="0" result="BackgroundImageFix"/>
<feBlend mode="normal" in="SourceGraphic" in2="BackgroundImageFix" result="shape"/>
<feColorMatrix in="SourceAlpha" type="matrix" values="0 0 0 0 0 0 0 0 0 0 0 0 0 0 0 0 0 0 127 0" result="hardAlpha"/>
<feOffset dx="3.4163" dy="9.39483"/>
<feGaussianBlur stdDeviation="6.36286"/>
<feComposite in2="hardAlpha" operator="arithmetic" k2="-1" k3="1"/>
<feColorMatrix type="matrix" values="0 0 0 0 1 0 0 0 0 1 0 0 0 0 1 0 0 0 0.55 0"/>
<feBlend mode="normal" in2="shape" result="effect1_innerShadow_1765_37597"/>
</filter>
<linearGradient id="paint0_linear_1765_37597" x1="78.4467" y1="161.234" x2="78.4467" y2="8.09694" gradientUnits="userSpaceOnUse">
<stop stop-color="#D16509"/>
<stop offset="1" stop-color="#8D2C1B"/>
</linearGradient>
<linearGradient id="paint1_linear_1765_37597" x1="78.5" y1="164.213" x2="78.5" y2="6.15372" gradientUnits="userSpaceOnUse">
<stop stop-color="#CA6B34"/>
<stop offset="0.74" stop-color="#FFBD2B"/>
<stop offset="1" stop-color="#FFA933"/>
</linearGradient>
<linearGradient id="paint2_linear_1765_37597" x1="78.5" y1="106.751" x2="78.5" y2="164.215" gradientUnits="userSpaceOnUse">
<stop stop-color="#F08D1D"/>
<stop offset="1" stop-color="#8D2C1B"/>
</linearGradient>
<linearGradient id="paint3_linear_1765_37597" x1="78.4998" y1="8.4631" x2="78.4998" y2="161.904" gradientUnits="userSpaceOnUse">
<stop stop-color="#CA6B34"/>
<stop offset="0.17" stop-color="#CB6D33"/>
<stop offset="0.29" stop-color="#D17632"/>
<stop offset="0.39" stop-color="#DB8531"/>
<stop offset="0.48" stop-color="#E99B2E"/>
<stop offset="0.57" stop-color="#FBB62B"/>
<stop offset="0.59" stop-color="#FFBD2B"/>
<stop offset="1" stop-color="#FFA933"/>
</linearGradient>
<linearGradient id="paint4_linear_1765_37597" x1="78.5" y1="63.626" x2="78.5" y2="6.15385" gradientUnits="userSpaceOnUse">
<stop stop-color="#EBBD38"/>
<stop offset="1" stop-color="#FFF29E"/>
</linearGradient>
<linearGradient id="paint5_linear_1765_37597" x1="78.5" y1="105.049" x2="78.5" y2="-38.5015" gradientUnits="userSpaceOnUse">
<stop stop-color="#CA6B34"/>
<stop offset="0.74" stop-color="#FFBD2B"/>
<stop offset="1" stop-color="#FFA933"/>
</linearGradient>
<linearGradient id="paint6_linear_1765_37597" x1="78.4999" y1="113.875" x2="78.4999" y2="158.011" gradientUnits="userSpaceOnUse">
<stop stop-color="#F08D1D"/>
<stop offset="1" stop-color="#8D2C1B"/>
</linearGradient>
<linearGradient id="paint7_linear_1765_37597" x1="78.4998" y1="52.5892" x2="78.4998" y2="13.4122" gradientUnits="userSpaceOnUse">
<stop stop-color="#EBBD38"/>
<stop offset="1" stop-color="#FFF29E"/>
</linearGradient>
<linearGradient id="paint8_linear_1765_37597" x1="78.5" y1="15.7045" x2="78.5" y2="154.672" gradientUnits="userSpaceOnUse">
<stop stop-color="#CA6B34"/>
<stop offset="0.17" stop-color="#CB6D33"/>
<stop offset="0.29" stop-color="#D17632"/>
<stop offset="0.39" stop-color="#DB8531"/>
<stop offset="0.48" stop-color="#E99B2E"/>
<stop offset="0.57" stop-color="#FBB62B"/>
<stop offset="0.59" stop-color="#FFBD2B"/>
<stop offset="1" stop-color="#FFA933"/>
</linearGradient>
<linearGradient id="paint9_linear_1765_37597" x1="78.5621" y1="35.1628" x2="78.5621" y2="19.1053" gradientUnits="userSpaceOnUse">
<stop stop-color="#F08D1D"/>
<stop offset="1" stop-color="#8D2C1B"/>
</linearGradient>
<linearGradient id="paint10_linear_1765_37597" x1="78.5" y1="23.3915" x2="78.5" y2="16.0609" gradientUnits="userSpaceOnUse">
<stop stop-color="#CA6B34"/>
<stop offset="0.74" stop-color="#FFBD2B"/>
<stop offset="1" stop-color="#FFA933"/>
</linearGradient>
<linearGradient id="paint11_linear_1765_37597" x1="76.455" y1="21.2884" x2="76.455" y2="18.7732" gradientUnits="userSpaceOnUse">
<stop stop-color="#B75014"/>
<stop offset="0.39" stop-color="#CA6B34"/>
<stop offset="1" stop-color="#FFA933"/>
</linearGradient>
<linearGradient id="paint12_linear_1765_37597" x1="80.5354" y1="0.666059" x2="80.5354" y2="0.666059" gradientUnits="userSpaceOnUse">
<stop stop-color="#B75014"/>
<stop offset="0.39" stop-color="#CA6B34"/>
<stop offset="1" stop-color="#FFA933"/>
</linearGradient>
<linearGradient id="paint13_linear_1765_37597" x1="76.4907" y1="15.9625" x2="80.6069" y2="15.9625" gradientUnits="userSpaceOnUse">
<stop stop-color="#F08D1D"/>
<stop offset="1" stop-color="#8D2C1B"/>
</linearGradient>
<linearGradient id="paint14_linear_1765_37597" x1="79.1223" y1="21.2708" x2="78.3022" y2="4.96321" gradientUnits="userSpaceOnUse">
<stop stop-color="#CA6B34"/>
<stop offset="0.74" stop-color="#FFBD2B"/>
<stop offset="1" stop-color="#FFA933"/>
</linearGradient>
<linearGradient id="paint15_linear_1765_37597" x1="71.6989" y1="11.0662" x2="76.6329" y2="11.0662" gradientUnits="userSpaceOnUse">
<stop stop-color="#D16509"/>
<stop offset="1" stop-color="#8D2C1B"/>
</linearGradient>
<linearGradient id="paint16_linear_1765_37597" x1="74.3748" y1="13.9306" x2="74.3748" y2="10.7352" gradientUnits="userSpaceOnUse">
<stop stop-color="#B53E1C"/>
<stop offset="1" stop-color="#440000"/>
</linearGradient>
<linearGradient id="paint17_linear_1765_37597" x1="80.1356" y1="11.0664" x2="85.2919" y2="11.0664" gradientUnits="userSpaceOnUse">
<stop stop-color="#D16509"/>
<stop offset="1" stop-color="#8D2C1B"/>
</linearGradient>
<linearGradient id="paint18_linear_1765_37597" x1="82.3938" y1="13.9307" x2="82.3938" y2="10.7353" gradientUnits="userSpaceOnUse">
<stop stop-color="#B53E1C"/>
<stop offset="1" stop-color="#440000"/>
</linearGradient>
<linearGradient id="paint19_linear_1765_37597" x1="78.6153" y1="13.7703" x2="78.3269" y2="5.57162" gradientUnits="userSpaceOnUse">
<stop stop-color="#D33A22"/>
<stop offset="1" stop-color="white"/>
</linearGradient>
<linearGradient id="paint20_linear_1765_37597" x1="78.5799" y1="8.79442" x2="78.4357" y2="3.86267" gradientUnits="userSpaceOnUse">
<stop stop-color="#B75014"/>
<stop offset="0.39" stop-color="#CA6B34"/>
<stop offset="1" stop-color="#FFA933"/>
</linearGradient>
<linearGradient id="paint21_linear_1765_37597" x1="78.091" y1="9.14273" x2="78.7487" y2="4.20313" gradientUnits="userSpaceOnUse">
<stop stop-color="#D33A22"/>
<stop offset="1" stop-color="white"/>
</linearGradient>
<linearGradient id="paint22_linear_1765_37597" x1="78.42" y1="2.99277" x2="79.549" y2="2.99277" gradientUnits="userSpaceOnUse">
<stop stop-color="white"/>
<stop offset="1" stop-color="#FFF7C4"/>
</linearGradient>
<linearGradient id="paint23_linear_1765_37597" x1="81.6382" y1="7.4689" x2="83.0161" y2="7.4689" gradientUnits="userSpaceOnUse">
<stop stop-color="white"/>
<stop offset="1" stop-color="#FFF7C4"/>
</linearGradient>
<linearGradient id="paint24_linear_1765_37597" x1="75.3351" y1="19.8209" x2="81.656" y2="19.8209" gradientUnits="userSpaceOnUse">
<stop stop-color="#F08D1D"/>
<stop offset="1" stop-color="#8D2C1B"/>
</linearGradient>
<radialGradient id="paint25_radial_1765_37597" cx="0" cy="0" r="1" gradientUnits="userSpaceOnUse" gradientTransform="translate(78.7754 12.3476) scale(2.55148 2.56884)">
<stop stop-color="#FFA933"/>
<stop offset="0.26" stop-color="#FFBD2B"/>
<stop offset="1" stop-color="#CA6B34"/>
</radialGradient>
<linearGradient id="paint26_linear_1765_37597" x1="78.5798" y1="15.9634" x2="78.5798" y2="10.2977" gradientUnits="userSpaceOnUse">
<stop stop-color="#D33A22"/>
<stop offset="1" stop-color="white"/>
</linearGradient>
<linearGradient id="paint27_linear_1765_37597" x1="78.2062" y1="12.6524" x2="79.922" y2="12.6524" gradientUnits="userSpaceOnUse">
<stop stop-color="white"/>
<stop offset="1" stop-color="#FFF7C4"/>
</linearGradient>
<linearGradient id="paint28_linear_1765_37597" x1="74.1437" y1="20.0815" x2="74.1437" y2="14.6932" gradientUnits="userSpaceOnUse">
<stop stop-color="#CA6B34"/>
<stop offset="0.74" stop-color="#FFBD2B"/>
<stop offset="1" stop-color="#FFA933"/>
</linearGradient>
<linearGradient id="paint29_linear_1765_37597" x1="58.0795" y1="16.3764" x2="59.1785" y2="9.91644" gradientUnits="userSpaceOnUse">
<stop stop-color="#CA6B34"/>
<stop offset="0.74" stop-color="#FFBD2B"/>
<stop offset="1" stop-color="#FFA933"/>
</linearGradient>
<linearGradient id="paint30_linear_1765_37597" x1="48.4512" y1="7.69503" x2="54.0395" y2="13.7527" gradientUnits="userSpaceOnUse">
<stop stop-color="#CA6B34"/>
<stop offset="0.74" stop-color="#FFBD2B"/>
<stop offset="1" stop-color="#FFA933"/>
</linearGradient>
<linearGradient id="paint31_linear_1765_37597" x1="42.8148" y1="11.8652" x2="60.9305" y2="2.62954" gradientUnits="userSpaceOnUse">
<stop stop-color="#CE5719"/>
<stop offset="0.74" stop-color="#FFBD2B"/>
<stop offset="1" stop-color="#FFA933"/>
</linearGradient>
<linearGradient id="paint32_linear_1765_37597" x1="42.2459" y1="7.99811" x2="48.7874" y2="6.04449" gradientUnits="userSpaceOnUse">
<stop stop-color="#D33A22"/>
<stop offset="1" stop-color="white"/>
</linearGradient>
<linearGradient id="paint33_linear_1765_37597" x1="48.9579" y1="11.5078" x2="48.2194" y2="8.39517" gradientUnits="userSpaceOnUse">
<stop stop-color="#B53E1C"/>
<stop offset="1" stop-color="#440000"/>
</linearGradient>
<linearGradient id="paint34_linear_1765_37597" x1="48.0153" y1="8.01605" x2="50.7624" y2="8.01605" gradientUnits="userSpaceOnUse">
<stop stop-color="#D16509"/>
<stop offset="1" stop-color="#8D2C1B"/>
</linearGradient>
<linearGradient id="paint35_linear_1765_37597" x1="60.0083" y1="26.7408" x2="56.0631" y2="6.13725" gradientUnits="userSpaceOnUse">
<stop stop-color="#D16509"/>
<stop offset="1" stop-color="#8D2C1B"/>
</linearGradient>
<linearGradient id="paint36_linear_1765_37597" x1="54.3187" y1="1.84108" x2="51.1035" y2="16.7798" gradientUnits="userSpaceOnUse">
<stop stop-color="#B75014"/>
<stop offset="0.39" stop-color="#CA6B34"/>
<stop offset="1" stop-color="#FFA933"/>
</linearGradient>
<linearGradient id="paint37_linear_1765_37597" x1="50.8427" y1="2.37735" x2="55.0122" y2="2.37735" gradientUnits="userSpaceOnUse">
<stop stop-color="#EBBD38"/>
<stop offset="1" stop-color="#FFF29E"/>
</linearGradient>
<linearGradient id="paint38_linear_1765_37597" x1="49.3047" y1="0.963116" x2="52.2118" y2="0.963116" gradientUnits="userSpaceOnUse">
<stop stop-color="white"/>
<stop offset="1" stop-color="#FFF7C4"/>
</linearGradient>
<linearGradient id="paint39_linear_1765_37597" x1="53.3852" y1="6.70078" x2="54.8876" y2="6.70078" gradientUnits="userSpaceOnUse">
<stop stop-color="white"/>
<stop offset="1" stop-color="#FFF7C4"/>
</linearGradient>
<linearGradient id="paint40_linear_1765_37597" x1="57.9277" y1="12.1603" x2="63.8486" y2="12.1603" gradientUnits="userSpaceOnUse">
<stop stop-color="#EBBD38"/>
<stop offset="1" stop-color="#FFF29E"/>
</linearGradient>
<linearGradient id="paint41_linear_1765_37597" x1="62.9863" y1="16.7883" x2="62.9863" y2="12.4562" gradientUnits="userSpaceOnUse">
<stop stop-color="#E39330"/>
<stop offset="1" stop-color="#FFCD61"/>
</linearGradient>
<linearGradient id="paint42_linear_1765_37597" x1="64.6135" y1="11.0153" x2="65.9648" y2="11.0153" gradientUnits="userSpaceOnUse">
<stop stop-color="white"/>
<stop offset="1" stop-color="#FFF7C4"/>
</linearGradient>
<linearGradient id="paint43_linear_1765_37597" x1="74.2945" y1="17.2707" x2="74.2945" y2="11.7392" gradientUnits="userSpaceOnUse">
<stop stop-color="#D33A22"/>
<stop offset="1" stop-color="white"/>
</linearGradient>
<linearGradient id="paint44_linear_1765_37597" x1="82.8472" y1="20.0815" x2="82.8472" y2="14.6932" gradientUnits="userSpaceOnUse">
<stop stop-color="#CA6B34"/>
<stop offset="0.74" stop-color="#FFBD2B"/>
<stop offset="1" stop-color="#FFA933"/>
</linearGradient>
<linearGradient id="paint45_linear_1765_37597" x1="80.9536" y1="10.4689" x2="115.474" y2="10.4689" gradientUnits="userSpaceOnUse">
<stop stop-color="#CA6B34"/>
<stop offset="0.74" stop-color="#FFBD2B"/>
<stop offset="1" stop-color="#FFA933"/>
</linearGradient>
<linearGradient id="paint46_linear_1765_37597" x1="99.5608" y1="9.48511" x2="115.474" y2="9.48511" gradientUnits="userSpaceOnUse">
<stop stop-color="#CA6B34"/>
<stop offset="0.74" stop-color="#FFBD2B"/>
<stop offset="1" stop-color="#FFA933"/>
</linearGradient>
<linearGradient id="paint47_linear_1765_37597" x1="114.594" y1="15.8572" x2="102.897" y2="1.48845" gradientUnits="userSpaceOnUse">
<stop stop-color="#CE5719"/>
<stop offset="0.74" stop-color="#FFBD2B"/>
<stop offset="1" stop-color="#FFA933"/>
</linearGradient>
<linearGradient id="paint48_linear_1765_37597" x1="114.38" y1="11.104" x2="109.734" y2="6.33794" gradientUnits="userSpaceOnUse">
<stop stop-color="#D33A22"/>
<stop offset="1" stop-color="white"/>
</linearGradient>
<linearGradient id="paint49_linear_1765_37597" x1="108.398" y1="10.9439" x2="108.686" y2="8.84099" gradientUnits="userSpaceOnUse">
<stop stop-color="#B53E1C"/>
<stop offset="1" stop-color="#440000"/>
</linearGradient>
<linearGradient id="paint50_linear_1765_37597" x1="109.171" y1="8.14136" x2="105.996" y2="7.66439" gradientUnits="userSpaceOnUse">
<stop stop-color="#D16509"/>
<stop offset="1" stop-color="#8D2C1B"/>
</linearGradient>
<linearGradient id="paint51_linear_1765_37597" x1="97.2938" y1="25.7115" x2="100.951" y2="5.6886" gradientUnits="userSpaceOnUse">
<stop stop-color="#D16509"/>
<stop offset="1" stop-color="#8D2C1B"/>
</linearGradient>
<linearGradient id="paint52_linear_1765_37597" x1="99.5609" y1="7.20253" x2="108.638" y2="7.20253" gradientUnits="userSpaceOnUse">
<stop stop-color="#B75014"/>
<stop offset="0.39" stop-color="#CA6B34"/>
<stop offset="1" stop-color="#FFA933"/>
</linearGradient>
<linearGradient id="paint53_linear_1765_37597" x1="101.988" y1="2.37735" x2="106.148" y2="2.37735" gradientUnits="userSpaceOnUse">
<stop stop-color="#EBBD38"/>
<stop offset="1" stop-color="#FFF29E"/>
</linearGradient>
<linearGradient id="paint54_linear_1765_37597" x1="104.788" y1="0.963116" x2="107.695" y2="0.963116" gradientUnits="userSpaceOnUse">
<stop stop-color="white"/>
<stop offset="1" stop-color="#FFF7C4"/>
</linearGradient>
<linearGradient id="paint55_linear_1765_37597" x1="102.112" y1="6.70078" x2="103.615" y2="6.70078" gradientUnits="userSpaceOnUse">
<stop stop-color="white"/>
<stop offset="1" stop-color="#FFF7C4"/>
</linearGradient>
<linearGradient id="paint56_linear_1765_37597" x1="93.1419" y1="12.1603" x2="99.0627" y2="12.1603" gradientUnits="userSpaceOnUse">
<stop stop-color="#EBBD38"/>
<stop offset="1" stop-color="#FFF29E"/>
</linearGradient>
<linearGradient id="paint57_linear_1765_37597" x1="94.0044" y1="0.668196" x2="94.0044" y2="0.668196" gradientUnits="userSpaceOnUse">
<stop stop-color="#E39330"/>
<stop offset="1" stop-color="#FFCD61"/>
</linearGradient>
<linearGradient id="paint58_linear_1765_37597" x1="91.0259" y1="11.0153" x2="92.3861" y2="11.0153" gradientUnits="userSpaceOnUse">
<stop stop-color="white"/>
<stop offset="1" stop-color="#FFF7C4"/>
</linearGradient>
<linearGradient id="paint59_linear_1765_37597" x1="82.7047" y1="17.2707" x2="82.7047" y2="11.7392" gradientUnits="userSpaceOnUse">
<stop stop-color="#D33A22"/>
<stop offset="1" stop-color="white"/>
</linearGradient>
<linearGradient id="paint60_linear_1765_37597" x1="50.5351" y1="162.254" x2="41.7161" y2="162.284" gradientUnits="userSpaceOnUse">
<stop stop-color="#CA6B34"/>
<stop offset="0.74" stop-color="#FFBD2B"/>
<stop offset="1" stop-color="#FFA933"/>
</linearGradient>
<linearGradient id="paint61_linear_1765_37597" x1="31.6336" y1="157.272" x2="60.8883" y2="163.78" gradientUnits="userSpaceOnUse">
<stop stop-color="#D16509"/>
<stop offset="1" stop-color="#8D2C1B"/>
</linearGradient>
<linearGradient id="paint62_linear_1765_37597" x1="44.5207" y1="156.318" x2="43.9856" y2="169.268" gradientUnits="userSpaceOnUse">
<stop stop-color="#D16509"/>
<stop offset="1" stop-color="#8D2C1B"/>
</linearGradient>
<linearGradient id="paint63_linear_1765_37597" x1="44.5662" y1="161.087" x2="44.2278" y2="169.278" gradientUnits="userSpaceOnUse">
<stop stop-color="#D33A22"/>
<stop offset="1" stop-color="white"/>
</linearGradient>
<linearGradient id="paint64_linear_1765_37597" x1="42.4313" y1="159.987" x2="45.0221" y2="159.349" gradientUnits="userSpaceOnUse">
<stop stop-color="#B53E1C"/>
<stop offset="1" stop-color="#440000"/>
</linearGradient>
<linearGradient id="paint65_linear_1765_37597" x1="54.6574" y1="162.811" x2="54.5466" y2="165.494" gradientUnits="userSpaceOnUse">
<stop stop-color="#EBBD38"/>
<stop offset="1" stop-color="#FFF29E"/>
</linearGradient>
<linearGradient id="paint66_linear_1765_37597" x1="45.2242" y1="163.817" x2="53.0119" y2="163.79" gradientUnits="userSpaceOnUse">
<stop stop-color="#F08D1D"/>
<stop offset="1" stop-color="#8D2C1B"/>
</linearGradient>
<linearGradient id="paint67_linear_1765_37597" x1="52.3208" y1="161.871" x2="57.0636" y2="153.538" gradientUnits="userSpaceOnUse">
<stop stop-color="#CA6B34"/>
<stop offset="0.74" stop-color="#FFBD2B"/>
<stop offset="1" stop-color="#FFA933"/>
</linearGradient>
<linearGradient id="paint68_linear_1765_37597" x1="50.0913" y1="154.203" x2="56.0898" y2="164.075" gradientUnits="userSpaceOnUse">
<stop stop-color="#D16509"/>
<stop offset="1" stop-color="#8D2C1B"/>
</linearGradient>
<linearGradient id="paint69_linear_1765_37597" x1="57.0304" y1="156.876" x2="52.2865" y2="159.719" gradientUnits="userSpaceOnUse">
<stop stop-color="#D16509"/>
<stop offset="1" stop-color="#8D2C1B"/>
</linearGradient>
<linearGradient id="paint70_linear_1765_37597" x1="52.5588" y1="155.757" x2="55.2866" y2="160.247" gradientUnits="userSpaceOnUse">
<stop stop-color="#D16509"/>
<stop offset="1" stop-color="#8D2C1B"/>
</linearGradient>
<linearGradient id="paint71_linear_1765_37597" x1="51.0481" y1="157.99" x2="58.9757" y2="162.442" gradientUnits="userSpaceOnUse">
<stop stop-color="#F08D1D"/>
<stop offset="1" stop-color="#8D2C1B"/>
</linearGradient>
<linearGradient id="paint72_linear_1765_37597" x1="108.518" y1="162.225" x2="117.337" y2="162.256" gradientUnits="userSpaceOnUse">
<stop stop-color="#CA6B34"/>
<stop offset="0.74" stop-color="#FFBD2B"/>
<stop offset="1" stop-color="#FFA933"/>
</linearGradient>
<linearGradient id="paint73_linear_1765_37597" x1="127.323" y1="157.256" x2="98.0688" y2="163.764" gradientUnits="userSpaceOnUse">
<stop stop-color="#D16509"/>
<stop offset="1" stop-color="#8D2C1B"/>
</linearGradient>
<linearGradient id="paint74_linear_1765_37597" x1="114.436" y1="156.302" x2="114.972" y2="169.261" gradientUnits="userSpaceOnUse">
<stop stop-color="#D16509"/>
<stop offset="1" stop-color="#8D2C1B"/>
</linearGradient>
<linearGradient id="paint75_linear_1765_37597" x1="114.391" y1="161.071" x2="114.729" y2="169.271" gradientUnits="userSpaceOnUse">
<stop stop-color="#D33A22"/>
<stop offset="1" stop-color="white"/>
</linearGradient>
<linearGradient id="paint76_linear_1765_37597" x1="116.525" y1="159.971" x2="113.935" y2="159.333" gradientUnits="userSpaceOnUse">
<stop stop-color="#B53E1C"/>
<stop offset="1" stop-color="#440000"/>
</linearGradient>
<linearGradient id="paint77_linear_1765_37597" x1="104.308" y1="162.795" x2="104.419" y2="165.477" gradientUnits="userSpaceOnUse">
<stop stop-color="#EBBD38"/>
<stop offset="1" stop-color="#FFF29E"/>
</linearGradient>
<linearGradient id="paint78_linear_1765_37597" x1="113.829" y1="163.798" x2="106.041" y2="163.771" gradientUnits="userSpaceOnUse">
<stop stop-color="#F08D1D"/>
<stop offset="1" stop-color="#8D2C1B"/>
</linearGradient>
<linearGradient id="paint79_linear_1765_37597" x1="106.598" y1="161.732" x2="101.855" y2="153.399" gradientUnits="userSpaceOnUse">
<stop stop-color="#CA6B34"/>
<stop offset="0.74" stop-color="#FFBD2B"/>
<stop offset="1" stop-color="#FFA933"/>
</linearGradient>
<linearGradient id="paint80_linear_1765_37597" x1="108.902" y1="154.196" x2="102.903" y2="164.069" gradientUnits="userSpaceOnUse">
<stop stop-color="#D16509"/>
<stop offset="1" stop-color="#8D2C1B"/>
</linearGradient>
<linearGradient id="paint81_linear_1765_37597" x1="101.954" y1="156.865" x2="106.706" y2="159.713" gradientUnits="userSpaceOnUse">
<stop stop-color="#D16509"/>
<stop offset="1" stop-color="#8D2C1B"/>
</linearGradient>
<linearGradient id="paint82_linear_1765_37597" x1="106.434" y1="155.751" x2="103.706" y2="160.241" gradientUnits="userSpaceOnUse">
<stop stop-color="#D16509"/>
<stop offset="1" stop-color="#8D2C1B"/>
</linearGradient>
<linearGradient id="paint83_linear_1765_37597" x1="107.883" y1="157.854" x2="99.9554" y2="162.306" gradientUnits="userSpaceOnUse">
<stop stop-color="#F08D1D"/>
<stop offset="1" stop-color="#8D2C1B"/>
</linearGradient>
<clipPath id="clip0_1765_37597">
<rect width="157" height="168.666" fill="white" transform="translate(0 0.66626)"/>
</clipPath>
</defs>
</svg>
