<svg width="157" height="169" viewBox="0 0 157 169" fill="none" xmlns="http://www.w3.org/2000/svg">
<g clip-path="url(#clip0_1765_38050)">
<g filter="url(#filter0_i_1765_38050)">
<ellipse cx="77.9209" cy="83.4579" rx="66.6236" ry="67.1163" fill="black" fill-opacity="0.4"/>
</g>
<path d="M78.4467 7.43066C36.4496 7.43066 2.40036 41.7117 2.40036 83.9946C2.40036 126.278 36.4496 160.567 78.4467 160.567C120.444 160.567 154.502 126.286 154.502 83.9946C154.502 41.7027 120.453 7.43066 78.4467 7.43066ZM78.4467 153.532C40.308 153.532 9.38802 122.402 9.38802 84.0035C9.38802 45.6052 40.308 14.4659 78.4467 14.4659C116.585 14.4659 147.505 45.5963 147.505 84.0035C147.505 122.411 116.585 153.532 78.4467 153.532Z" fill="url(#paint0_linear_1765_38050)"/>
<path d="M78.4998 5.48743C35.1426 5.48743 -0.000152588 40.8694 -0.000152588 84.5217C-0.000152588 128.174 35.1426 163.556 78.4998 163.556C121.857 163.556 157 128.174 157 84.5217C157 40.8694 121.848 5.48743 78.4998 5.48743ZM78.4998 159.125C58.7104 159.125 40.1033 151.365 26.1013 137.277C12.1082 123.189 4.40047 104.446 4.40047 84.5217C4.40047 64.5976 12.1082 45.8638 26.1013 31.7666C40.0944 17.6782 58.7015 9.918 78.4998 9.918C98.2982 9.918 116.896 17.6782 130.898 31.7666C144.891 45.8549 152.599 64.5886 152.599 84.5217C152.599 104.455 144.891 123.189 130.898 137.277C116.905 151.365 98.2982 159.125 78.4998 159.125Z" fill="url(#paint1_linear_1765_38050)"/>
<path style="mix-blend-mode:multiply" opacity="0.5" d="M78.4999 161.391C43.0549 161.391 13.0506 138.137 2.96033 106.085C12.2772 139.256 42.5748 163.557 78.4999 163.557C114.425 163.557 144.714 139.256 154.039 106.085C143.949 138.146 113.945 161.391 78.4999 161.391Z" fill="url(#paint2_linear_1765_38050)"/>
<path d="M132.383 30.272C117.99 15.7809 98.8494 7.79688 78.4998 7.79688C58.1503 7.79688 39.0098 15.7809 24.6167 30.272C10.2235 44.7631 2.29352 64.0339 2.29352 84.5219C2.29352 105.01 10.2235 124.281 24.6078 138.772C39.0009 153.263 58.1414 161.238 78.491 161.238C98.8405 161.238 117.981 153.254 132.374 138.772C146.767 124.281 154.688 105.019 154.688 84.5219C154.688 64.0249 146.758 44.7631 132.374 30.272H132.383ZM130.898 137.277C116.905 151.365 98.2982 159.126 78.4998 159.126C58.7015 159.126 40.1033 151.365 26.1013 137.277C12.1082 123.189 4.40048 104.446 4.40048 84.5219C4.40048 64.5978 12.1082 45.864 26.1013 31.7667C40.0944 17.6784 58.7015 9.91818 78.4998 9.91818C98.2982 9.91818 116.896 17.6784 130.898 31.7667C144.891 45.8551 152.599 64.5888 152.599 84.5219C152.599 104.455 144.891 123.189 130.898 137.277Z" fill="url(#paint3_linear_1765_38050)"/>
<path style="mix-blend-mode:color-dodge" opacity="0.5" d="M154.039 62.9597C144.714 29.7886 114.425 5.48755 78.4999 5.48755C42.5748 5.48755 12.2772 29.7886 2.96033 62.9597C13.0506 30.8985 43.0549 7.87737 78.4999 7.87737C113.945 7.87737 143.949 30.9074 154.039 62.9597Z" fill="url(#paint4_linear_1765_38050)"/>
<path d="M128.907 33.7712C115.438 20.2109 97.5336 12.7461 78.4998 12.7461C59.466 12.7461 41.5524 20.2109 28.0927 33.7712C14.6241 47.3314 7.20972 65.3491 7.20972 84.5214C7.20972 103.694 14.6241 121.72 28.0927 135.272C41.5524 148.823 59.4571 156.288 78.4998 156.288C97.5425 156.288 115.447 148.823 128.907 135.272C142.367 121.711 149.781 103.685 149.781 84.5214C149.781 65.3581 142.367 47.3225 128.907 33.7712ZM78.4998 151.911C60.6217 151.911 43.8105 144.903 31.1687 132.175C18.5269 119.447 11.5659 102.53 11.5659 84.5304C11.5659 66.5306 18.5269 49.6049 31.1687 36.886C43.8105 24.1582 60.6217 17.1498 78.4998 17.1498C96.3779 17.1498 113.189 24.1582 125.831 36.886C138.473 49.6139 145.434 66.5396 145.434 84.5304C145.434 102.521 138.473 119.456 125.831 132.175C113.189 144.903 96.3779 151.911 78.4998 151.911Z" fill="url(#paint5_linear_1765_38050)"/>
<path style="mix-blend-mode:multiply" opacity="0.5" d="M129.911 132.936C116.176 146.487 97.9157 153.952 78.4997 153.952C59.0836 153.952 40.8232 146.487 27.0879 132.936C22.2606 128.165 18.1889 122.849 14.9529 117.12C18.3134 123.744 22.7229 129.866 28.0925 135.272C41.5522 148.832 59.457 156.297 78.4997 156.297C97.5424 156.297 115.447 148.832 128.907 135.272C134.276 129.866 138.686 123.735 142.046 117.12C138.802 122.849 134.739 128.174 129.911 132.936Z" fill="url(#paint6_linear_1765_38050)"/>
<path style="mix-blend-mode:color-dodge" opacity="0.5" d="M142.055 51.923C138.695 45.2995 134.285 39.1772 128.916 33.771C115.447 20.2108 97.5424 12.7549 78.5086 12.7549C59.4748 12.7549 41.5611 20.2197 28.1014 33.771C22.7318 39.1862 18.3223 45.3084 14.9618 51.923C18.2067 46.1945 22.2695 40.8779 27.0968 36.1072C40.8321 22.5559 59.0925 15.091 78.5086 15.091C97.9246 15.091 116.185 22.5559 129.92 36.1072C134.748 40.8779 138.81 46.1945 142.055 51.923Z" fill="url(#paint7_linear_1765_38050)"/>
<path d="M127.298 35.392C114.265 22.2703 96.9289 15.0382 78.4997 15.0382C60.0704 15.0382 42.7346 22.2614 29.7016 35.392C16.6687 48.5137 9.48544 65.9675 9.48544 84.5222C9.48544 103.077 16.6687 120.531 29.7016 133.652C42.7346 146.774 60.0704 154.006 78.4997 154.006C96.9289 154.006 114.265 146.774 127.298 133.652C140.331 120.531 147.514 103.086 147.514 84.5222C147.514 65.9585 140.331 48.5137 127.298 35.392ZM125.822 132.175C113.18 144.903 96.3689 151.912 78.4908 151.912C60.6127 151.912 43.8014 144.903 31.1596 132.175C18.5178 119.448 11.5568 102.531 11.5568 84.5311C11.5568 66.5313 18.5178 49.6057 31.1596 36.8868C43.8014 24.1589 60.6127 17.1506 78.4908 17.1506C96.3689 17.1506 113.18 24.1589 125.822 36.8868C138.464 49.6146 145.425 66.5403 145.425 84.5311C145.425 102.522 138.464 119.457 125.822 132.175Z" fill="url(#paint8_linear_1765_38050)"/>
<path style="mix-blend-mode:multiply" opacity="0.5" d="M132.632 27.2913C128.498 28.2669 123.315 25.7428 123.315 25.7428L121.315 27.1123C118.746 27.4703 118.541 30.5046 118.541 30.5046C107.046 21.8224 93.1242 17.1323 78.4999 17.1323C63.8756 17.1323 49.7847 21.8851 38.2453 30.6657C36.9206 27.712 32.9823 29.2604 32.9823 29.2604L31.3554 27.157C28.8306 25.6623 24.6878 27.0854 24.4922 27.157C24.5544 27.0944 24.6167 27.0317 24.6789 26.969C24.7411 26.9064 24.8034 26.8527 24.8656 26.79C25.1945 26.4768 25.5235 26.1724 25.8613 25.8681C25.9235 25.8144 25.9947 25.7518 26.0569 25.6891C26.3947 25.3758 26.7414 25.0715 27.0881 24.7672C27.0881 24.7672 27.097 24.7582 27.1059 24.7493C27.4615 24.445 27.8082 24.1406 28.1727 23.8363C28.2439 23.7737 28.315 23.72 28.3772 23.6573C28.7239 23.3709 29.0706 23.0845 29.4262 22.798C29.4974 22.7443 29.5596 22.6906 29.6307 22.6369C29.9774 22.3505 30.333 22.073 30.6887 21.8045C30.7064 21.7866 30.7242 21.7777 30.742 21.7598C31.1065 21.4733 31.4799 21.1959 31.8533 20.9184C31.9244 20.8647 32.0044 20.811 32.0755 20.7573C32.44 20.4888 32.8045 20.2203 33.169 19.9607C33.2401 19.907 33.3024 19.8622 33.3735 19.8175C33.738 19.5579 34.0936 19.3073 34.4581 19.0567C34.4847 19.0388 34.5203 19.0119 34.547 18.994C34.9293 18.7344 35.3115 18.4749 35.7027 18.2243C35.7827 18.1706 35.8627 18.1168 35.9427 18.0631C36.325 17.8215 36.7073 17.5709 37.0896 17.3292C37.1607 17.2844 37.2229 17.2397 37.294 17.2039C37.6674 16.9712 38.0408 16.7384 38.4231 16.5147C38.4586 16.4968 38.4942 16.4699 38.5387 16.4431C38.9298 16.2104 39.3299 15.9776 39.7388 15.7449C39.8188 15.7002 39.8988 15.6465 39.9877 15.6017C40.3878 15.3779 40.779 15.1542 41.1879 14.9394C41.2501 14.9036 41.3213 14.8678 41.3835 14.832C41.7658 14.6171 42.1569 14.4202 42.5481 14.2144C42.5926 14.1965 42.637 14.1696 42.6815 14.1428C43.0904 13.9279 43.5082 13.7221 43.9172 13.5162C43.9972 13.4715 44.0861 13.4357 44.175 13.3909C44.5928 13.185 45.0018 12.9881 45.4196 12.8002C45.4819 12.7733 45.5441 12.7375 45.6063 12.7106C46.0064 12.5227 46.4064 12.3437 46.8065 12.1647C46.8598 12.1468 46.9132 12.1199 46.9665 12.0931C47.3932 11.9051 47.82 11.7261 48.2467 11.5381C48.3356 11.5023 48.4156 11.4665 48.5045 11.4307C48.9312 11.2517 49.3669 11.0727 49.8025 10.9026C49.8558 10.8847 49.918 10.8579 49.9714 10.84C50.3892 10.6788 50.7982 10.5177 51.216 10.3656C51.2693 10.3387 51.3316 10.3208 51.3849 10.3029C51.8205 10.1418 52.265 9.9807 52.7095 9.82854C52.7985 9.80168 52.8785 9.76588 52.9674 9.73903C53.4119 9.58687 53.8564 9.43471 54.3098 9.28255C54.3542 9.26464 54.3987 9.25569 54.452 9.23779C54.8787 9.09458 55.3144 8.96032 55.75 8.82606C55.8122 8.80816 55.8744 8.79026 55.9367 8.77236C56.3901 8.6381 56.8435 8.50384 57.2969 8.37853C57.3858 8.35168 57.4658 8.32482 57.5547 8.30692C58.017 8.18161 58.4793 8.05631 58.9415 7.931C58.9771 7.92205 59.0216 7.91309 59.0571 7.90414C59.5016 7.78779 59.955 7.68038 60.4084 7.57297C60.4795 7.55507 60.5418 7.54612 60.604 7.52822C61.0663 7.42081 61.5286 7.3134 61.9998 7.21494C62.0887 7.19704 62.1687 7.17914 62.2576 7.16124C62.7287 7.06278 63.2088 6.96432 63.6889 6.87482C63.7155 6.87482 63.7422 6.86587 63.7689 6.85692C64.2312 6.76741 64.7024 6.68685 65.1735 6.6063C65.2447 6.59735 65.3158 6.57945 65.3869 6.5705C65.8581 6.48994 66.3381 6.41834 66.8093 6.34673C66.8982 6.32883 66.9782 6.31988 67.0671 6.31093C67.5561 6.23932 68.045 6.16772 68.534 6.10506C68.5429 6.10506 68.5607 6.10506 68.5785 6.10506C69.0585 6.04241 69.5475 5.9887 70.0364 5.935C70.1076 5.92605 70.1876 5.9171 70.2587 5.90815C70.7388 5.85444 71.2277 5.80969 71.7078 5.76494C71.7967 5.76494 71.8767 5.75599 71.9567 5.74704C72.9613 5.66648 73.9659 5.59487 74.9794 5.55012C75.0594 5.55012 75.1394 5.55012 75.2194 5.54117C75.7084 5.52327 76.2062 5.50537 76.7041 5.49642C76.7841 5.49642 76.8641 5.49642 76.953 5.49642C77.4597 5.49642 77.9753 5.47852 78.4821 5.47852C78.9888 5.47852 79.5045 5.47852 80.0112 5.49642C80.0912 5.49642 80.1712 5.49642 80.2601 5.49642C80.758 5.50537 81.2469 5.52327 81.7359 5.54117C81.8159 5.54117 81.8959 5.55012 81.9759 5.55012C82.9894 5.59487 83.994 5.65753 84.9986 5.74704C85.0786 5.74704 85.1675 5.76494 85.2564 5.76494C85.7365 5.80969 86.2254 5.85444 86.7055 5.90815C86.7766 5.9171 86.8566 5.92605 86.9277 5.935C87.4167 5.9887 87.9056 6.04241 88.3857 6.10506C88.4035 6.10506 88.4124 6.10506 88.4302 6.10506C88.9191 6.16772 89.4081 6.23932 89.897 6.31093C89.9771 6.31988 90.0659 6.33778 90.1549 6.34673C90.6349 6.41834 91.1061 6.48994 91.5773 6.5705C91.6484 6.57945 91.7195 6.59735 91.7906 6.6063C92.2618 6.68685 92.733 6.76741 93.1953 6.85692C93.2219 6.85692 93.2486 6.86587 93.2753 6.87482C93.7554 6.96432 94.2265 7.06278 94.7066 7.16124C94.7955 7.17914 94.8755 7.19704 94.9644 7.21494C95.4267 7.3134 95.8979 7.42081 96.3602 7.52822C96.4224 7.54612 96.4935 7.55507 96.5558 7.57297C97.0092 7.68038 97.4626 7.79674 97.9071 7.90414C97.9426 7.91309 97.9782 7.92205 98.0137 7.931C98.476 8.04735 98.9383 8.17266 99.4006 8.30692C99.4895 8.33378 99.5695 8.35168 99.6584 8.37853C100.112 8.50384 100.574 8.6381 101.019 8.77236C101.081 8.79026 101.143 8.80816 101.196 8.82606C101.632 8.96032 102.068 9.09458 102.503 9.23779C102.548 9.25569 102.592 9.26464 102.637 9.28255C103.09 9.42576 103.535 9.57792 103.979 9.73903C104.059 9.76588 104.148 9.79273 104.228 9.82854C104.672 9.9807 105.117 10.1418 105.553 10.3029C105.606 10.3208 105.659 10.3387 105.713 10.3656C106.13 10.5267 106.557 10.6788 106.975 10.8489C107.028 10.8668 107.082 10.8937 107.126 10.9116C107.562 11.0816 107.997 11.2606 108.433 11.4397C108.513 11.4755 108.593 11.5113 108.682 11.5381C109.109 11.7171 109.544 11.9051 109.971 12.0931C110.015 12.1199 110.069 12.1378 110.113 12.1557C110.522 12.3347 110.922 12.5227 111.331 12.7106C111.393 12.7375 111.447 12.7644 111.5 12.7912C111.918 12.9881 112.336 13.185 112.754 13.3909C112.834 13.4267 112.914 13.4715 112.994 13.5073C113.411 13.7131 113.829 13.9279 114.247 14.1338C114.283 14.1607 114.327 14.1786 114.363 14.1965C114.763 14.4023 115.154 14.6082 115.545 14.823C115.607 14.8588 115.67 14.8857 115.732 14.9215C116.132 15.1452 116.541 15.369 116.932 15.5928C117.012 15.6375 117.092 15.6823 117.172 15.727C117.572 15.9597 117.981 16.1925 118.381 16.4341C118.417 16.452 118.443 16.4789 118.479 16.4968C118.861 16.7295 119.243 16.9622 119.626 17.1949C119.688 17.2397 119.75 17.2755 119.812 17.3113C120.204 17.553 120.586 17.8036 120.968 18.0542C121.039 18.1079 121.119 18.1526 121.19 18.2064C121.582 18.457 121.973 18.7165 122.355 18.9851C122.382 19.003 122.399 19.0119 122.426 19.0298C122.799 19.2804 123.164 19.5489 123.537 19.8085C123.6 19.8533 123.662 19.898 123.724 19.9428C124.097 20.2113 124.462 20.4798 124.835 20.7483C124.906 20.802 124.978 20.8557 125.049 20.9095C125.422 21.1869 125.795 21.4733 126.169 21.7598C126.178 21.7687 126.187 21.7777 126.204 21.7866C126.569 22.073 126.933 22.3595 127.289 22.6459C127.351 22.6996 127.413 22.7443 127.476 22.798C127.831 23.0845 128.187 23.3709 128.534 23.6663C128.596 23.72 128.667 23.7737 128.729 23.8274C129.449 24.436 130.161 25.0626 130.863 25.6891C130.925 25.7428 130.987 25.7965 131.041 25.8502C131.378 26.1545 131.716 26.4678 132.045 26.7811C132.107 26.8348 132.161 26.8885 132.223 26.9511C132.33 27.0586 132.445 27.166 132.552 27.2644L132.632 27.2913Z" fill="url(#paint9_linear_1765_38050)"/>
<path d="M81.6557 18.6437C81.4957 19.0913 81.2734 19.4045 81.0423 19.6194C80.5978 20.0311 80.1444 20.0758 80.1444 20.0758C79.4332 21.8302 78.4908 22.0718 78.4908 22.0718C78.4908 22.0718 77.5485 21.8302 76.8372 20.0758C76.8372 20.0758 76.3839 20.0311 75.9393 19.6194C75.7082 19.4045 75.486 19.1002 75.3259 18.6437C75.3259 18.6437 75.7971 17.0326 76.4816 15.5647C77.0595 14.3206 77.7796 13.1838 78.4908 13.1838C79.2465 13.1838 80.011 14.4638 80.5978 15.7885C81.2201 17.1937 81.6557 18.6527 81.6557 18.6527V18.6437Z" fill="url(#paint10_linear_1765_38050)"/>
<path d="M76.8462 20.0672C76.8462 20.0672 76.3928 20.0225 75.9483 19.6107C76.535 19.6376 76.9262 18.3039 76.9618 18.1965C76.944 18.295 76.7573 19.2348 76.8462 20.0672Z" fill="url(#paint11_linear_1765_38050)"/>
<path d="M80.1532 20.0672C80.2421 19.2348 80.0554 18.295 80.0376 18.1965C80.0732 18.3039 80.4644 19.6376 81.0511 19.6107C80.6066 20.0225 80.1532 20.0672 80.1532 20.0672Z" fill="url(#paint12_linear_1765_38050)"/>
<path style="mix-blend-mode:multiply" opacity="0.5" d="M80.6068 15.7795C79.86 16.7104 78.7487 17.4802 78.4998 17.4085C78.2242 17.328 77.6641 17.4264 76.4906 15.5647C77.0685 14.3206 77.7886 13.1838 78.4998 13.1838C79.2555 13.1838 80.02 14.4638 80.6068 15.7885V15.7795Z" fill="url(#paint13_linear_1765_38050)"/>
<path d="M85.2918 8.01986C85.1941 6.37294 81.6558 6.02386 81.6558 6.02386C81.6558 6.02386 81.8958 5.07509 81.4513 4.12632C81.0068 3.17755 78.8732 1.14575 78.4909 1.14575C78.1086 1.14575 75.975 3.1686 75.5305 4.12632C75.086 5.07509 75.326 6.02386 75.326 6.02386C75.326 6.02386 71.7877 6.37294 71.6899 8.01986C71.5921 9.66678 75.9394 13.4977 75.9394 13.4977L78.4909 13.4619L81.0424 13.4977C81.0424 13.4977 85.3807 9.66678 85.2918 8.01986Z" fill="url(#paint14_linear_1765_38050)"/>
<path d="M72.4189 9.71076C71.9744 9.06631 71.6721 8.45767 71.6988 8.01909C71.7077 7.82217 71.7699 7.64316 71.8677 7.48205C72.09 7.32989 72.41 7.26723 72.8279 7.32094C74.1258 7.49995 75.7972 10.033 76.624 13.4879H75.9394C75.9394 13.4879 73.628 11.4561 72.41 9.71076H72.4189Z" fill="url(#paint15_linear_1765_38050)"/>
<path d="M76.6327 13.488H75.9482C75.9482 13.488 73.6367 11.4563 72.4188 9.71087C72.4099 9.59451 71.7431 8.09975 72.4188 7.71488C73.0944 7.33895 75.4237 8.99482 76.6327 13.488Z" fill="url(#paint16_linear_1765_38050)"/>
<path d="M85.2917 8.17143C85.2473 8.69057 84.8472 9.37082 84.3138 10.069C83.0603 11.7248 81.0511 13.4971 81.0511 13.4971H80.1443C80.9711 10.0332 82.6424 7.50013 83.9404 7.32112C84.8028 7.20476 85.2473 7.60754 85.3006 8.17143H85.2917Z" fill="url(#paint17_linear_1765_38050)"/>
<path d="M84.3405 9.71099C84.3405 9.71099 84.3316 9.84525 84.3049 10.078C83.0514 11.7338 81.0422 13.5061 81.0422 13.5061H80.1354C81.3356 8.99494 83.6737 7.33906 84.3405 7.72394C85.0161 8.09987 84.3494 9.60358 84.3405 9.71994V9.71099Z" fill="url(#paint18_linear_1765_38050)"/>
<path style="mix-blend-mode:multiply" opacity="0.5" d="M79.8688 12.567C81.1667 10.0698 81.8335 8.575 81.2823 7.9574C80.74 7.33981 76.3838 7.1966 75.6015 7.85894C74.8192 8.52129 76.9617 12.567 76.9617 12.567H79.8599H79.8688Z" fill="url(#paint19_linear_1765_38050)"/>
<path d="M81.6556 6.02474C81.6556 6.02474 81.6556 6.02474 81.6379 6.04265C81.6379 6.04265 81.6379 6.04265 81.629 6.0516C81.629 6.0516 81.6201 6.06055 81.6112 6.0695C81.4245 6.23956 80.7311 6.87506 79.9576 7.45685C79.9576 7.45685 79.9398 7.4658 79.931 7.47475C79.4509 7.83278 78.9353 8.18185 78.4996 8.37877C78.4996 8.37877 78.4996 8.37877 78.4907 8.37877C78.4907 8.37877 78.4907 8.37877 78.4819 8.37877C78.2596 8.26241 76.7661 7.43 75.3525 6.03369C75.3525 6.03369 75.1125 5.08493 75.557 4.13616C75.5926 4.06455 75.637 3.98399 75.6903 3.89449C75.8148 3.69757 75.9837 3.47381 76.1793 3.24109C76.4371 4.86116 78.9441 5.35345 79.6287 5.04912C80.3132 4.7448 80.9622 3.56331 80.5888 2.93677C80.9889 3.37535 81.3267 3.82288 81.4689 4.13616C81.9135 5.08493 81.6734 6.03369 81.6734 6.03369L81.6556 6.02474Z" fill="url(#paint20_linear_1765_38050)"/>
<path style="mix-blend-mode:multiply" opacity="0.5" d="M81.6556 6.02393C81.6556 6.02393 81.6556 6.02393 81.6379 6.04183C81.6379 6.04183 81.6379 6.04184 81.629 6.05079C81.629 6.05079 81.6201 6.05974 81.6112 6.06869C81.4334 6.23875 80.7844 6.84739 79.9576 7.45604C79.9576 7.45604 79.9398 7.46499 79.931 7.47394C79.4953 7.79616 78.9975 8.11839 78.4996 8.37796C78.4996 8.37796 78.4996 8.37796 78.4907 8.37796C78.4907 8.37796 78.4907 8.37796 78.4819 8.37796C78.2596 8.2616 76.7394 7.47394 75.3525 6.03288C75.3525 6.03288 75.1125 5.08411 75.557 4.13534C75.5926 4.06374 75.637 3.98318 75.6903 3.89368C75.5659 5.95233 78.5174 8.18104 78.5174 8.18104C78.5174 8.18104 80.5177 6.66838 81.4778 4.13534C81.9223 5.08411 81.6823 6.03288 81.6823 6.03288L81.6556 6.02393Z" fill="url(#paint21_linear_1765_38050)"/>
<path d="M78.4552 1.7984C78.3041 1.98637 78.7219 2.93514 79.0953 2.89933C79.4598 2.86353 79.6376 2.55921 79.522 2.34439C79.4065 2.13853 78.6419 1.57464 78.4641 1.78945L78.4552 1.7984Z" fill="url(#paint22_linear_1765_38050)"/>
<path d="M81.6557 6.79367C81.9224 7.19645 83.1226 7.29491 82.9981 6.91003C82.8825 6.5341 82.198 6.40879 81.958 6.4804C81.7179 6.552 81.5668 6.65941 81.6468 6.79367H81.6557Z" fill="url(#paint23_linear_1765_38050)"/>
<path style="mix-blend-mode:multiply" opacity="0.5" d="M81.6557 18.6444C81.4957 19.092 81.2734 19.4052 81.0423 19.62C80.5978 20.0318 80.1444 20.0765 80.1444 20.0765C79.4332 21.8309 78.4908 22.0725 78.4908 22.0725C78.4908 22.0725 77.5485 21.8309 76.8372 20.0765C76.8372 20.0765 76.3839 20.0318 75.9393 19.62C75.7082 19.4052 75.486 19.1009 75.3259 18.6444C75.3259 18.6444 75.646 17.5614 76.1349 16.3531C76.0905 16.9617 76.0016 18.5907 76.1527 18.895C76.3305 19.271 76.8284 19.2083 76.8284 19.2083C77.2373 20.2824 78.4019 21.3296 78.6419 21.267C78.882 21.2043 79.9399 19.4768 80.1177 18.7429C80.1177 18.7429 80.3489 19.2083 80.8734 19.0472C81.389 18.8861 80.8023 16.2367 80.8023 16.2367C81.3179 17.4808 81.6557 18.6355 81.6557 18.6355V18.6444Z" fill="url(#paint24_linear_1765_38050)"/>
<path d="M81.1312 13.185C81.1312 14.5993 79.9933 15.7539 78.5797 15.7539C77.1662 15.7539 76.0283 14.6082 76.0283 13.185C76.0283 11.7619 77.1662 10.6162 78.5797 10.6162C79.9933 10.6162 81.1312 11.7619 81.1312 13.185Z" fill="url(#paint25_radial_1765_38050)"/>
<path style="mix-blend-mode:multiply" opacity="0.5" d="M81.1312 13.1848C81.1312 14.599 79.9933 15.7536 78.5797 15.7536C77.1662 15.7536 76.0283 14.608 76.0283 13.1848C76.0283 12.5225 76.2772 11.9228 76.6861 11.4663C76.5261 11.7616 76.4372 12.1107 76.4372 12.4688C76.4372 13.6323 77.3796 14.5811 78.5353 14.5811C79.691 14.5811 80.6334 13.6323 80.6334 12.4688C80.6334 12.0033 80.4822 11.5737 80.2333 11.2246C80.7845 11.69 81.1312 12.3971 81.1312 13.1759V13.1848Z" fill="url(#paint26_linear_1765_38050)"/>
<path d="M78.8464 11.2253C78.1708 11.5296 78.1886 12.2725 78.2152 12.3978C78.2508 12.5231 79.7088 12.9527 79.851 12.6484C79.9933 12.3441 79.8866 11.5117 79.7443 11.3953C79.6021 11.2879 78.9798 11.1537 78.8464 11.2163V11.2253Z" fill="url(#paint27_linear_1765_38050)"/>
<path d="M73.1745 14.7966C72.57 13.991 71.2009 15.0024 71.1564 16.1929C71.112 17.3833 72.7922 18.9228 73.9746 19.3614C74.2769 19.4688 75.9838 18.8691 76.8017 17.079C77.6196 15.2889 76.8372 13.7762 75.8327 13.4987C74.8281 13.2302 73.1745 14.7966 73.1745 14.7966Z" fill="url(#paint28_linear_1765_38050)"/>
<path d="M72.5613 15.7458C72.5613 15.7458 73.1925 15.7011 73.1925 15.0298C73.1925 14.3585 72.8636 11.897 68.2851 11.9418C68.2851 11.9418 64.089 12.8458 56.3457 17.885C56.3457 17.885 52.3807 20.2122 48.6557 19.4514C44.9307 18.6906 41.4369 14.2242 41.5258 7.94979C41.5258 7.94979 43.126 2.76736 47.0021 0.5834C47.0021 0.5834 51.0116 -0.893458 55.7323 0.825068C55.7323 0.825068 60.3107 5.10348 54.5054 9.56986C54.5054 9.56986 52.194 10.9035 50.3093 10.8498C50.3093 10.8498 49.4558 12.8458 50.3093 14.3674C50.3093 14.3674 53.003 14.985 54.5054 14.4659C54.5054 14.4659 58.7994 10.0979 64.0357 8.90751C69.272 7.71707 75.0506 9.73992 75.9573 13.9825C76.3218 15.6832 75.5306 17.5449 73.6459 17.3211C72.3213 17.16 72.5613 15.7548 72.5613 15.7548V15.7458Z" fill="url(#paint29_linear_1765_38050)"/>
<path d="M54.4963 9.57068C54.4963 9.57068 52.1849 10.9043 50.3002 10.8506C50.3002 10.8506 49.4467 12.8466 50.3002 14.3682C50.3002 14.3682 52.9939 14.9858 54.4963 14.4667C52.4693 15.8003 50.9047 17.0803 48.3354 17.3667C48.3354 17.3667 46.9841 17.492 45.2328 17.6352C43.0458 15.6392 41.4545 12.2111 41.5256 7.95956C41.5256 7.95956 43.1258 2.77713 47.0019 0.593166C47.0019 0.593166 51.0114 -0.883693 55.732 0.834834C55.732 0.834834 60.3105 5.11325 54.5052 9.57963L54.4963 9.57068Z" fill="url(#paint30_linear_1765_38050)"/>
<path d="M54.4965 9.56986C54.4965 9.56986 52.1851 10.9035 50.3004 10.8498C50.3004 10.8498 49.4469 12.8458 50.3004 14.3674C47.1355 14.4659 46.3531 16.1575 47.0732 16.9452C47.2244 17.1063 47.171 17.2853 47.011 17.4733C46.5132 17.518 45.8997 17.5717 45.233 17.6255C43.046 15.6295 41.4547 12.2014 41.5258 7.94979C41.5258 7.94979 43.126 2.76736 47.0021 0.5834C47.0021 0.5834 51.0116 -0.893458 55.7322 0.825068C55.7322 0.825068 60.3107 5.10348 54.5054 9.56986H54.4965Z" fill="url(#paint31_linear_1765_38050)"/>
<path style="mix-blend-mode:multiply" opacity="0.5" d="M51.1359 6.85742C51.1359 6.85742 50.398 9.51576 48.7978 10.6525C45.6684 10.5361 43.5437 8.27162 43.5437 8.27162C42.9125 8.87132 42.4324 10.0976 42.4324 10.0976C42.4324 10.0976 42.0857 9.80218 41.5523 9.3457C41.5167 8.88922 41.5078 8.42378 41.5167 7.9494C41.5167 7.9494 43.117 2.76697 46.9931 0.583008C46.9931 0.583008 51.5448 2.61481 51.1359 6.84847V6.85742Z" fill="url(#paint32_linear_1765_38050)"/>
<path d="M48.1753 7.06428C48.1753 7.06428 47.6686 6.59885 47.0196 7.06428C46.3706 7.52972 46.9574 9.20349 47.8286 9.71368C48.1486 9.90164 49.4288 8.90812 49.7755 7.74453L48.1753 7.06428Z" fill="url(#paint33_linear_1765_38050)"/>
<path d="M49.7757 6.46356C49.7757 6.56201 49.7579 6.67837 49.7313 6.81263C49.7313 6.83053 49.7313 6.84843 49.7224 6.86634C49.6779 7.0364 49.6157 7.22436 49.5357 7.42128C49.5268 7.45708 49.509 7.48393 49.4912 7.51973C49.4823 7.54658 49.4646 7.57344 49.4557 7.60029C49.4557 7.61819 49.4379 7.63609 49.429 7.66294C49.3845 7.7614 49.3312 7.85986 49.2867 7.95832C49.269 7.99412 49.2423 8.03887 49.2245 8.07467C49.2156 8.09258 49.2067 8.11048 49.189 8.12838C49.1801 8.14628 49.1712 8.16418 49.1534 8.18208C49.1089 8.25369 49.0645 8.33424 49.02 8.40585C48.6111 8.4685 47.8288 8.28949 47.8288 8.28949C47.8288 8.28949 48.62 7.21541 47.8643 6.3293L49.7757 6.25769C49.7757 6.25769 49.7757 6.27559 49.7757 6.28454C49.7757 6.31139 49.7757 6.33825 49.7757 6.3651C49.7757 6.39195 49.7757 6.4188 49.7757 6.44565V6.46356Z" fill="url(#paint34_linear_1765_38050)"/>
<path d="M73.1745 14.7967C73.0856 13.9195 72.4188 12.0309 68.276 12.0757C68.276 12.0757 64.0799 12.8454 56.3365 17.8846C56.3365 17.8846 52.3715 20.2118 48.6466 19.451C44.9216 18.6902 41.4278 14.2238 41.5167 7.9494C41.5167 7.9494 43.1169 2.76697 46.993 0.583008C50.1846 0.663564 51.9804 4.05586 52.007 5.70278C52.0426 7.34971 48.9844 10.5182 48.3532 10.5361C47.722 10.554 46.0595 8.14631 46.4063 7.2602C46.753 6.37408 47.8554 6.33828 47.8554 6.33828C48.611 7.2244 47.8198 8.29848 47.8198 8.29848C47.8198 8.29848 47.9176 7.63613 47.8554 7.3139C47.7931 7.00063 47.3219 7.12594 47.0641 7.53767C46.8152 7.9494 47.4375 9.24724 48.042 9.3099C48.6377 9.37255 49.7756 7.28705 49.7756 6.45464C49.7756 5.62223 49.2067 3.94846 47.6331 3.57253C46.0595 3.1966 42.8502 5.9176 42.2812 7.75249C41.7123 9.58737 43.9792 15.5485 47.0641 16.9359C50.149 18.3322 53.7317 16.7479 53.7317 16.7479C60.3371 12.4426 66.6313 9.46206 69.9651 10.2855C73.2989 11.109 73.1656 14.7788 73.1656 14.7788L73.1745 14.7967Z" fill="url(#paint35_linear_1765_38050)"/>
<path d="M54.4964 9.57049C54.4964 9.57049 52.185 10.9041 50.3003 10.8504C50.3003 10.8504 49.5624 10.8683 48.3622 10.5372C48.9934 10.5193 52.0427 7.35073 52.0161 5.70381C52.0072 5.06831 51.7316 4.1822 51.2159 3.31398C51.2159 3.31398 52.1139 4.07479 52.7984 6.14239C52.9584 6.61678 55.581 6.33036 56.5145 5.48004C57.4479 4.62973 56.7634 2.2041 56.7634 2.2041C57.6613 3.82417 58.2836 6.65258 54.5053 9.56154L54.4964 9.57049Z" fill="url(#paint36_linear_1765_38050)"/>
<path style="mix-blend-mode:color-dodge" opacity="0.5" d="M55.012 0.592179C55.012 0.592179 54.7364 2.65978 53.394 3.01781C52.0516 3.37583 51.2159 3.32213 51.2159 3.32213L50.8514 2.76719C52.7006 3.46534 54.4786 1.87212 52.585 0.0909424C53.3496 0.180449 54.1675 0.33261 55.012 0.592179Z" fill="url(#paint37_linear_1765_38050)"/>
<path d="M49.3044 0.0999117C50.1134 0.00145443 51.1003 -0.0432989 52.2026 0.0551584C52.3715 0.789112 49.749 0.744359 49.3044 0.0999117Z" fill="url(#paint38_linear_1765_38050)"/>
<path d="M53.3851 6.13293C53.2784 6.38355 54.4608 6.26719 54.7809 6.07028C55.092 5.88231 54.6386 5.80176 54.2119 5.80176C53.7852 5.80176 53.4651 5.94497 53.3851 6.13293Z" fill="url(#paint39_linear_1765_38050)"/>
<path style="mix-blend-mode:color-dodge" opacity="0.5" d="M62.213 11.3507C62.3819 10.8764 61.1284 10.3304 57.9279 11.6909C58.4702 11.3239 59.057 10.9659 59.6793 10.6168C61.1639 10.3572 62.0885 10.6436 62.5597 11.1628C62.9775 11.6282 63.6887 11.3686 63.8399 11.297L61.1728 12.4696C61.2262 12.4338 62.0441 11.8162 62.2041 11.3507H62.213Z" fill="url(#paint40_linear_1765_38050)"/>
<path d="M67.3337 10.2861C67.3337 10.2861 63.8399 10.3846 58.6481 13.7858C58.6481 13.7858 62.7109 11.4139 67.3337 10.2861Z" fill="url(#paint41_linear_1765_38050)"/>
<path d="M65.1733 10.1521C64.9155 10.2416 64.3555 10.6175 64.7377 10.5817C65.1822 10.5459 65.9646 10.4206 65.9646 10.2864C65.9646 10.1073 65.3867 10.0715 65.1733 10.1521Z" fill="url(#paint42_linear_1765_38050)"/>
<path style="mix-blend-mode:multiply" opacity="0.5" d="M73.6456 17.3115C72.321 17.1504 72.561 15.7451 72.561 15.7451C72.561 15.7451 73.1922 15.7004 73.1922 15.0291C73.1922 14.9664 73.1922 14.8859 73.1833 14.7874C73.1833 14.7874 73.2278 13.5791 72.641 12.3976C73.6901 14.3846 75.0414 13.3911 75.0414 13.0599C75.0414 12.4692 74.4102 11.1982 74.3924 11.1534C75.1836 11.9321 75.7437 12.8809 75.9748 13.9729C76.3393 15.6735 75.5481 17.5353 73.6634 17.3115H73.6456Z" fill="url(#paint43_linear_1765_38050)"/>
<path d="M83.8253 14.7966C84.4298 13.991 85.7989 15.0024 85.8433 16.1929C85.8878 17.3833 84.2075 18.9228 83.0252 19.3614C82.7229 19.4688 81.016 18.8691 80.1981 17.079C79.3891 15.2889 80.1625 13.7762 81.1671 13.4987C82.1717 13.2302 83.8253 14.7966 83.8253 14.7966Z" fill="url(#paint44_linear_1765_38050)"/>
<path d="M84.4385 15.7458C84.4385 15.7458 83.8073 15.7011 83.8073 15.0298C83.8073 14.3585 84.1362 11.897 88.7146 11.9418C88.7146 11.9418 92.9108 12.8458 100.654 17.885C100.654 17.885 104.619 20.2122 108.344 19.4514C112.069 18.6906 115.563 14.2242 115.474 7.94979C115.474 7.94979 113.874 2.76736 109.998 0.5834C109.998 0.5834 105.988 -0.893458 101.268 0.825068C101.268 0.825068 96.6891 5.10348 102.494 9.56986C102.494 9.56986 104.806 10.9035 106.691 10.8498C106.691 10.8498 107.544 12.8458 106.691 14.3674C106.691 14.3674 103.997 14.985 102.494 14.4659C102.494 14.4659 98.2004 10.0979 92.9641 8.90751C87.7278 7.71707 81.9493 9.73992 81.0425 13.9825C80.678 15.6832 81.4692 17.5449 83.3539 17.3211C84.6785 17.16 84.4385 15.7548 84.4385 15.7548V15.7458Z" fill="url(#paint45_linear_1765_38050)"/>
<path d="M102.495 9.57067C102.495 9.57067 104.806 10.9043 106.691 10.8506C106.691 10.8506 107.544 12.8466 106.691 14.3682C106.691 14.3682 103.997 14.9858 102.495 14.4667C104.522 15.8003 106.086 17.0803 108.655 17.3667C108.655 17.3667 110.007 17.492 111.758 17.6352C113.945 15.6392 115.536 12.2111 115.465 7.95956C115.465 7.95956 113.865 2.77713 109.989 0.593166C109.989 0.593166 105.98 -0.883693 101.259 0.834833C101.259 0.834833 96.6804 5.11325 102.486 9.57963L102.495 9.57067Z" fill="url(#paint46_linear_1765_38050)"/>
<path d="M102.495 9.56986C102.495 9.56986 104.806 10.9035 106.691 10.8498C106.691 10.8498 107.544 12.8458 106.691 14.3674C109.856 14.4659 110.638 16.1575 109.918 16.9452C109.767 17.1063 109.82 17.2853 109.98 17.4733C110.478 17.518 111.091 17.5717 111.758 17.6255C113.945 15.6295 115.536 12.2014 115.465 7.94979C115.465 7.94979 113.865 2.76736 109.989 0.5834C109.989 0.5834 105.98 -0.893458 101.259 0.825068C101.259 0.825068 96.6804 5.10348 102.486 9.56986H102.495Z" fill="url(#paint47_linear_1765_38050)"/>
<path style="mix-blend-mode:multiply" opacity="0.5" d="M106.557 6.80372C106.557 6.80372 106.717 8.91607 108.637 10.0976C112.256 8.10156 113.447 8.27162 113.447 8.27162C114.078 8.87132 114.558 10.0976 114.558 10.0976C114.558 10.0976 114.905 9.80219 115.438 9.3457C115.474 8.88922 115.483 8.42379 115.474 7.9494C115.474 7.9494 113.874 2.76697 109.998 0.583008C109.998 0.583008 106.237 3.31296 106.548 6.79476L106.557 6.80372Z" fill="url(#paint48_linear_1765_38050)"/>
<path d="M108.816 7.06428C108.816 7.06428 109.322 6.59885 109.971 7.06428C110.62 7.52972 110.033 9.20349 109.162 9.71368C108.842 9.90164 107.562 8.90812 107.215 7.74453L108.816 7.06428Z" fill="url(#paint49_linear_1765_38050)"/>
<path d="M107.215 6.46356C107.215 6.56201 107.233 6.67837 107.26 6.81263C107.26 6.83053 107.26 6.84843 107.269 6.86634C107.313 7.0364 107.375 7.22436 107.455 7.42128C107.464 7.45708 107.482 7.48393 107.5 7.51973C107.509 7.54658 107.526 7.57344 107.535 7.60029C107.535 7.61819 107.553 7.63609 107.562 7.66294C107.606 7.7614 107.66 7.85986 107.704 7.95832C107.722 7.99412 107.749 8.03887 107.767 8.07467C107.775 8.09258 107.784 8.11048 107.802 8.12838C107.811 8.14628 107.82 8.16418 107.838 8.18208C107.882 8.25369 107.927 8.33424 107.971 8.40585C108.38 8.4685 109.162 8.28949 109.162 8.28949C109.162 8.28949 108.371 7.21541 109.127 6.3293L107.215 6.25769C107.215 6.25769 107.215 6.27559 107.215 6.28454C107.215 6.31139 107.215 6.33825 107.215 6.3651C107.215 6.39195 107.215 6.4188 107.215 6.44565V6.46356Z" fill="url(#paint50_linear_1765_38050)"/>
<path d="M83.8252 14.7967C83.9141 13.9195 84.5809 12.0309 88.7237 12.0757C88.7237 12.0757 92.9198 12.8454 100.663 17.8846C100.663 17.8846 104.628 20.2118 108.353 19.451C112.078 18.6902 115.572 14.2238 115.483 7.9494C115.483 7.9494 113.883 2.76697 110.007 0.583008C106.815 0.663564 105.019 4.05586 104.993 5.70278C104.957 7.34971 108.015 10.5182 108.647 10.5361C109.278 10.554 110.94 8.14631 110.593 7.2602C110.247 6.37408 109.144 6.33828 109.144 6.33828C108.389 7.2244 109.18 8.29848 109.18 8.29848C109.18 8.29848 109.082 7.63613 109.144 7.3139C109.207 7.00063 109.678 7.12594 109.936 7.53767C110.185 7.9494 109.562 9.24724 108.958 9.3099C108.362 9.37255 107.224 7.28705 107.224 6.45464C107.224 5.62223 107.793 3.94846 109.367 3.57253C110.94 3.1966 114.15 5.9176 114.718 7.75249C115.287 9.58737 113.02 15.5485 109.936 16.9359C106.851 18.3322 103.268 16.7479 103.268 16.7479C96.6626 12.4426 90.3684 9.46206 87.0346 10.2855C83.7008 11.109 83.8341 14.7788 83.8341 14.7788L83.8252 14.7967Z" fill="url(#paint51_linear_1765_38050)"/>
<path d="M102.495 9.57049C102.495 9.57049 104.806 10.9041 106.691 10.8504C106.691 10.8504 107.429 10.8683 108.629 10.5372C107.998 10.5193 104.948 7.35073 104.975 5.70381C104.984 5.06831 105.259 4.1822 105.775 3.31398C105.775 3.31398 104.877 4.07479 104.193 6.14239C104.033 6.61678 101.41 6.33036 100.477 5.48004C99.552 4.62078 100.228 2.2041 100.228 2.2041C99.3297 3.82417 98.7074 6.65258 102.486 9.56154L102.495 9.57049Z" fill="url(#paint52_linear_1765_38050)"/>
<path style="mix-blend-mode:color-dodge" opacity="0.5" d="M101.988 0.592179C101.988 0.592179 102.263 2.65978 103.606 3.01781C104.948 3.37583 105.784 3.32213 105.784 3.32213L106.148 2.76719C104.299 3.46534 102.521 1.87212 104.415 0.0909424C103.65 0.180449 102.832 0.33261 101.988 0.592179Z" fill="url(#paint53_linear_1765_38050)"/>
<path d="M107.695 0.0999117C106.886 0.00145443 105.9 -0.0432989 104.797 0.0551584C104.628 0.789112 107.251 0.744359 107.695 0.0999117Z" fill="url(#paint54_linear_1765_38050)"/>
<path d="M103.606 6.13293C103.713 6.38355 102.53 6.26719 102.21 6.07028C101.89 5.87336 102.352 5.80176 102.779 5.80176C103.206 5.80176 103.526 5.94497 103.606 6.13293Z" fill="url(#paint55_linear_1765_38050)"/>
<path style="mix-blend-mode:color-dodge" opacity="0.5" d="M94.7868 11.3507C94.6179 10.8764 95.8714 10.3304 99.0719 11.6909C98.5296 11.3239 97.9428 10.9659 97.3205 10.6168C95.8359 10.3572 94.9113 10.6436 94.4401 11.1628C94.0223 11.6282 93.3111 11.3686 93.1599 11.297L95.827 12.4696C95.7736 12.4338 94.9557 11.8162 94.7957 11.3507H94.7868Z" fill="url(#paint56_linear_1765_38050)"/>
<path d="M89.666 10.2861C89.666 10.2861 93.1599 10.3846 98.3517 13.7858C98.3517 13.7858 94.2889 11.4139 89.666 10.2861Z" fill="url(#paint57_linear_1765_38050)"/>
<path d="M91.8174 10.1521C92.0752 10.2416 92.6353 10.6175 92.253 10.5817C91.8085 10.5459 91.0262 10.4206 91.0262 10.2864C91.0262 10.1073 91.604 10.0715 91.8174 10.1521Z" fill="url(#paint58_linear_1765_38050)"/>
<path style="mix-blend-mode:multiply" opacity="0.5" d="M83.3539 17.3115C84.6785 17.1504 84.4385 15.7451 84.4385 15.7451C84.4385 15.7451 83.8073 15.7004 83.8073 15.0291C83.8073 14.9664 83.8073 14.8859 83.8162 14.7874C83.8162 14.7874 83.7717 13.5791 84.3585 12.3976C83.3095 14.3846 81.9582 13.3911 81.9582 13.0599C81.9582 12.4692 82.5894 11.1982 82.6071 11.1534C81.8159 11.9321 81.2558 12.8809 81.0247 13.9729C80.6602 15.6735 81.4514 17.5353 83.3361 17.3115H83.3539Z" fill="url(#paint59_linear_1765_38050)"/>
<path d="M44.9311 154.487C46.8158 154.568 47.2692 158.882 46.8869 159.714C46.8869 159.714 49.5984 161.728 51.4031 161.173C51.4031 161.173 53.4567 159.679 54.6213 157.736L59.342 160.225C57.9907 162.686 56.1593 165.389 54.4702 166.589C51.2697 168.853 46.9936 169.095 44.7888 168.164C42.5841 167.224 38.5568 163.116 38.459 160.296C38.3612 157.477 43.0375 154.425 44.9222 154.505L44.9311 154.487Z" fill="url(#paint60_linear_1765_38050)"/>
<path d="M44.051 157.252C44.051 157.252 43.1975 157.503 43.1886 157.879C43.1708 158.255 43.8376 160.161 44.3888 160.466C44.94 160.77 45.989 161.191 46.8958 159.723C46.8958 159.723 49.6073 161.737 51.412 161.182C51.412 161.182 53.4656 159.687 54.6302 157.745L56.7728 158.872C55.9726 160.367 55.0214 161.844 54.328 162.569C52.87 164.108 50.4785 164.708 49.874 164.538C42.8063 162.56 42.0596 157.924 42.0596 157.924C42.6552 157.1 44.0421 157.252 44.0421 157.252H44.051Z" fill="url(#paint61_linear_1765_38050)"/>
<path d="M42.1662 155.472C40.2993 156.582 38.4146 158.479 38.4679 160.287C38.5657 163.107 42.593 167.224 44.7977 168.155C46.1135 168.719 48.176 168.853 50.3007 168.388C47.1981 168.432 43.3753 165.953 40.1926 160.198C39.5347 159.016 39.9526 156.994 42.1573 155.472H42.1662Z" fill="url(#paint62_linear_1765_38050)"/>
<path style="mix-blend-mode:multiply" opacity="0.5" d="M39.0545 162.302C39.0545 162.302 39.0812 162.355 39.0901 162.382C39.099 162.4 39.1078 162.427 39.1256 162.445C39.1967 162.57 39.2945 162.749 39.419 162.973C40.7614 165.238 43.2418 167.484 44.7975 168.155C46.1133 168.719 48.1758 168.854 50.3005 168.388C47.1979 168.433 43.3751 165.954 40.1924 160.198C39.259 159.876 38.5744 161.29 39.0456 162.311L39.0545 162.302Z" fill="url(#paint63_linear_1765_38050)"/>
<path d="M44.0508 157.254C44.0508 157.254 43.1973 157.505 43.1884 157.881C43.1706 158.256 43.8374 160.163 44.3886 160.467C44.1752 158.659 44.0863 157.675 44.9131 157.424C44.9131 157.424 44.5575 157.263 44.0508 157.263V157.254Z" fill="url(#paint64_linear_1765_38050)"/>
<path style="mix-blend-mode:color-dodge" opacity="0.5" d="M53.4389 163.322C52.9055 163.733 51.5897 164.252 51.5897 164.252C53.2255 164.324 58.0617 162.006 56.2926 164.816C56.8971 164.1 57.4839 163.268 58.044 162.4C56.6482 161.531 53.4389 163.313 53.4389 163.313V163.322Z" fill="url(#paint65_linear_1765_38050)"/>
<path style="mix-blend-mode:multiply" opacity="0.5" d="M51.4119 161.093C50.8252 161.272 50.1584 161.183 49.5006 160.986C50.3362 162.955 49.8739 164.45 49.8739 164.45C48.5226 166.043 48.0692 167.923 48.0692 167.923L47.1536 168.567C49.385 168.692 52.1943 168.111 54.4702 166.499C56.1593 165.3 57.9907 162.597 59.342 160.135L54.6213 157.647C53.4567 159.598 51.4031 161.084 51.4031 161.084L51.4119 161.093Z" fill="url(#paint66_linear_1765_38050)"/>
<path d="M59.1196 161.388C59.0485 161.29 58.9774 161.2 58.9063 161.102C58.9063 161.102 57.4572 163.33 54.8968 163.536C54.8968 163.536 53.8745 163.259 52.7365 162.74C52.0253 162.417 51.2696 162.006 50.6918 161.513C49.2071 160.233 50.185 151.023 51.9097 149.609C52.3809 149.224 55.1102 152.079 58.9863 156.716C59.0841 156.948 59.1641 157.19 59.2263 157.432C59.5375 158.676 59.4397 160.099 59.1108 161.379L59.1196 161.388Z" fill="url(#paint67_linear_1765_38050)"/>
<path d="M50.443 153.323C49.8029 156.536 49.7318 160.689 50.6919 161.513C52.1766 162.792 54.897 163.526 54.897 163.526C57.404 163.321 58.8442 161.181 58.9064 161.092C56.8083 161.951 52.7189 160.582 51.6787 159.767C51.0297 159.257 50.2385 157.422 50.443 153.314V153.323Z" fill="url(#paint68_linear_1765_38050)"/>
<path d="M58.9064 161.101C58.8175 160.949 59.2798 159.66 59.0753 159.087C58.8709 158.514 54.5503 154.182 54.0613 154.173C54.008 154.173 53.9635 154.2 53.9191 154.263C53.5101 154.773 53.2523 157.404 53.2167 157.7C53.1812 158.031 54.7281 159.418 55.1103 159.078C55.4926 158.738 55.2437 156.545 55.2437 156.545C55.2437 156.545 56.0616 158.711 55.8038 159.15C55.5459 159.579 54.8081 159.821 54.4347 159.812C54.0613 159.794 52.7989 158.559 52.4611 157.995C52.2922 157.717 52.4077 156.393 52.6033 155.113V155.068C52.8078 153.797 53.0923 152.571 53.279 152.481C53.6435 152.293 58.9242 157.879 59.2887 158.487C59.6532 159.096 58.9064 161.11 58.9064 161.11V161.101Z" fill="url(#paint69_linear_1765_38050)"/>
<path d="M54.4347 159.804C54.0613 159.786 52.7989 158.551 52.4611 157.987C52.2922 157.71 52.4077 156.385 52.6033 155.105V155.06L53.9191 154.264C53.5101 154.774 53.2523 157.405 53.2167 157.701C53.1812 158.032 54.7281 159.419 55.1103 159.079C55.4926 158.739 55.2437 156.546 55.2437 156.546C55.2437 156.546 56.0616 158.712 55.8038 159.151C55.5459 159.58 54.8081 159.822 54.4347 159.813V159.804Z" fill="url(#paint70_linear_1765_38050)"/>
<path style="mix-blend-mode:multiply" opacity="0.5" d="M59.1198 161.388C59.0487 161.29 58.9776 161.2 58.9065 161.102C58.9065 161.102 57.4574 163.33 54.897 163.536C54.897 163.536 53.8747 163.259 52.7367 162.74C49.2785 161.755 49.9986 159.061 49.9986 159.061C54.5859 158.085 58.0886 157.879 58.0886 157.879L58.2664 157.271L59.2354 157.441C59.5466 158.685 59.4488 160.099 59.1198 161.388Z" fill="url(#paint71_linear_1765_38050)"/>
<path d="M114.132 154.487C112.247 154.568 111.794 158.882 112.176 159.715C112.176 159.715 109.465 161.729 107.66 161.174C107.66 161.174 105.607 159.679 104.442 157.737L99.7213 160.225C101.073 162.686 102.904 165.389 104.593 166.589C107.794 168.853 112.07 169.095 114.274 168.164C116.479 167.224 120.506 163.116 120.604 160.296C120.702 157.477 116.026 154.425 114.141 154.505L114.132 154.487Z" fill="url(#paint72_linear_1765_38050)"/>
<path d="M115.012 157.252C115.012 157.252 115.866 157.503 115.875 157.879C115.884 158.255 115.226 160.161 114.675 160.466C114.123 160.77 113.074 161.191 112.167 159.723C112.167 159.723 109.456 161.737 107.651 161.182C107.651 161.182 105.598 159.687 104.433 157.745L102.291 158.872C103.091 160.367 104.042 161.844 104.735 162.569C106.193 164.109 108.585 164.708 109.189 164.538C116.257 162.56 117.004 157.924 117.004 157.924C116.408 157.1 115.021 157.252 115.021 157.252H115.012Z" fill="url(#paint73_linear_1765_38050)"/>
<path d="M116.906 155.472C118.773 156.582 120.658 158.479 120.604 160.288C120.506 163.107 116.479 167.224 114.274 168.155C112.959 168.719 110.896 168.853 108.771 168.388C111.874 168.433 115.697 165.953 118.88 160.198C119.537 159.017 119.12 156.994 116.915 155.472H116.906Z" fill="url(#paint74_linear_1765_38050)"/>
<path style="mix-blend-mode:multiply" opacity="0.5" d="M120.018 162.302C120.018 162.302 119.991 162.356 119.982 162.382C119.973 162.4 119.964 162.427 119.946 162.445C119.875 162.57 119.777 162.749 119.653 162.973C118.311 165.238 115.83 167.484 114.274 168.156C112.959 168.719 110.896 168.854 108.771 168.388C111.874 168.433 115.697 165.954 118.88 160.198C119.813 159.876 120.498 161.29 120.026 162.311L120.018 162.302Z" fill="url(#paint75_linear_1765_38050)"/>
<path d="M115.012 157.254C115.012 157.254 115.866 157.505 115.875 157.881C115.884 158.257 115.226 160.163 114.675 160.467C114.888 158.659 114.977 157.675 114.15 157.424C114.15 157.424 114.506 157.263 115.012 157.263V157.254Z" fill="url(#paint76_linear_1765_38050)"/>
<path style="mix-blend-mode:color-dodge" opacity="0.5" d="M105.624 163.322C106.158 163.733 107.473 164.253 107.473 164.253C105.838 164.324 101.001 162.006 102.77 164.816C102.166 164.1 101.579 163.268 101.019 162.4C102.415 161.532 105.624 163.313 105.624 163.313V163.322Z" fill="url(#paint77_linear_1765_38050)"/>
<path style="mix-blend-mode:multiply" opacity="0.5" d="M107.66 161.093C108.247 161.272 108.914 161.183 109.571 160.986C108.736 162.955 109.198 164.45 109.198 164.45C110.549 166.043 111.003 167.923 111.003 167.923L111.918 168.567C109.687 168.692 106.878 168.111 104.602 166.5C102.913 165.3 101.081 162.597 99.7301 160.136L104.451 157.647C105.615 159.599 107.669 161.084 107.669 161.084L107.66 161.093Z" fill="url(#paint78_linear_1765_38050)"/>
<path d="M99.9521 161.388C100.023 161.29 100.094 161.2 100.165 161.102C100.165 161.102 101.615 163.33 104.175 163.536C104.175 163.536 105.197 163.259 106.335 162.74C107.046 162.417 107.802 162.006 108.38 161.513C109.865 160.233 108.887 151.023 107.162 149.609C106.691 149.224 103.962 152.079 100.085 156.716C99.9876 156.949 99.9076 157.19 99.8454 157.432C99.5342 158.676 99.632 160.099 99.9609 161.379L99.9521 161.388Z" fill="url(#paint79_linear_1765_38050)"/>
<path d="M108.629 153.323C109.269 156.536 109.34 160.689 108.38 161.513C106.895 162.792 104.175 163.526 104.175 163.526C101.668 163.321 100.228 161.181 100.166 161.092C102.264 161.951 106.353 160.582 107.393 159.767C108.042 159.257 108.834 157.422 108.629 153.314V153.323Z" fill="url(#paint80_linear_1765_38050)"/>
<path d="M100.165 161.101C100.254 160.949 99.7919 159.66 99.9964 159.087C100.201 158.514 104.521 154.182 105.01 154.173C105.064 154.173 105.108 154.2 105.153 154.263C105.562 154.773 105.819 157.404 105.855 157.7C105.891 158.031 104.344 159.418 103.961 159.078C103.579 158.738 103.828 156.545 103.828 156.545C103.828 156.545 103.01 158.711 103.268 159.15C103.526 159.579 104.264 159.821 104.637 159.812C105.01 159.794 106.273 158.559 106.611 157.995C106.78 157.717 106.664 156.393 106.468 155.113V155.068C106.264 153.797 105.979 152.571 105.793 152.481C105.428 152.293 100.148 157.879 99.783 158.487C99.4185 159.096 100.165 161.11 100.165 161.11V161.101Z" fill="url(#paint81_linear_1765_38050)"/>
<path d="M104.637 159.804C105.01 159.786 106.273 158.551 106.611 157.987C106.78 157.71 106.664 156.385 106.468 155.105V155.06L105.153 154.264C105.562 154.774 105.82 157.405 105.855 157.701C105.891 158.032 104.344 159.419 103.961 159.079C103.579 158.739 103.828 156.546 103.828 156.546C103.828 156.546 103.01 158.712 103.268 159.151C103.526 159.58 104.264 159.822 104.637 159.813V159.804Z" fill="url(#paint82_linear_1765_38050)"/>
<path style="mix-blend-mode:multiply" opacity="0.5" d="M99.952 161.388C100.023 161.29 100.094 161.2 100.165 161.102C100.165 161.102 101.614 163.33 104.175 163.536C104.175 163.536 105.197 163.259 106.335 162.74C109.793 161.755 109.073 159.061 109.073 159.061C104.486 158.085 100.983 157.879 100.983 157.879L100.805 157.271L99.8365 157.441C99.5253 158.685 99.6231 160.099 99.952 161.388Z" fill="url(#paint83_linear_1765_38050)"/>
<path d="M90.2004 82.2217V88.1045H66.8098V82.2217H90.2004ZM81.7161 72.9639V97.8076H75.3176V72.9639H81.7161Z" fill="url(#paint84_linear_1765_38050)"/>
</g>
<defs>
<filter id="filter0_i_1765_38050" x="11.2973" y="16.3416" width="136.664" height="143.627" filterUnits="userSpaceOnUse" color-interpolation-filters="sRGB">
<feFlood flood-opacity="0" result="BackgroundImageFix"/>
<feBlend mode="normal" in="SourceGraphic" in2="BackgroundImageFix" result="shape"/>
<feColorMatrix in="SourceAlpha" type="matrix" values="0 0 0 0 0 0 0 0 0 0 0 0 0 0 0 0 0 0 127 0" result="hardAlpha"/>
<feOffset dx="3.4163" dy="9.39483"/>
<feGaussianBlur stdDeviation="6.36286"/>
<feComposite in2="hardAlpha" operator="arithmetic" k2="-1" k3="1"/>
<feColorMatrix type="matrix" values="0 0 0 0 1 0 0 0 0 1 0 0 0 0 1 0 0 0 0.55 0"/>
<feBlend mode="normal" in2="shape" result="effect1_innerShadow_1765_38050"/>
</filter>
<linearGradient id="paint0_linear_1765_38050" x1="78.4467" y1="160.567" x2="78.4467" y2="7.43066" gradientUnits="userSpaceOnUse">
<stop stop-color="#D16509"/>
<stop offset="1" stop-color="#8D2C1B"/>
</linearGradient>
<linearGradient id="paint1_linear_1765_38050" x1="78.4998" y1="163.547" x2="78.4998" y2="5.48743" gradientUnits="userSpaceOnUse">
<stop stop-color="#CA6B34"/>
<stop offset="0.74" stop-color="#FFBD2B"/>
<stop offset="1" stop-color="#FFA933"/>
</linearGradient>
<linearGradient id="paint2_linear_1765_38050" x1="78.4999" y1="106.085" x2="78.4999" y2="163.548" gradientUnits="userSpaceOnUse">
<stop stop-color="#F08D1D"/>
<stop offset="1" stop-color="#8D2C1B"/>
</linearGradient>
<linearGradient id="paint3_linear_1765_38050" x1="78.4999" y1="7.79688" x2="78.4999" y2="161.238" gradientUnits="userSpaceOnUse">
<stop stop-color="#CA6B34"/>
<stop offset="0.17" stop-color="#CB6D33"/>
<stop offset="0.29" stop-color="#D17632"/>
<stop offset="0.39" stop-color="#DB8531"/>
<stop offset="0.48" stop-color="#E99B2E"/>
<stop offset="0.57" stop-color="#FBB62B"/>
<stop offset="0.59" stop-color="#FFBD2B"/>
<stop offset="1" stop-color="#FFA933"/>
</linearGradient>
<linearGradient id="paint4_linear_1765_38050" x1="78.4999" y1="62.9597" x2="78.4999" y2="5.48755" gradientUnits="userSpaceOnUse">
<stop stop-color="#EBBD38"/>
<stop offset="1" stop-color="#FFF29E"/>
</linearGradient>
<linearGradient id="paint5_linear_1765_38050" x1="78.4998" y1="104.383" x2="78.4998" y2="-39.1677" gradientUnits="userSpaceOnUse">
<stop stop-color="#CA6B34"/>
<stop offset="0.74" stop-color="#FFBD2B"/>
<stop offset="1" stop-color="#FFA933"/>
</linearGradient>
<linearGradient id="paint6_linear_1765_38050" x1="78.4997" y1="113.209" x2="78.4997" y2="157.344" gradientUnits="userSpaceOnUse">
<stop stop-color="#F08D1D"/>
<stop offset="1" stop-color="#8D2C1B"/>
</linearGradient>
<linearGradient id="paint7_linear_1765_38050" x1="78.4997" y1="51.923" x2="78.4997" y2="12.7459" gradientUnits="userSpaceOnUse">
<stop stop-color="#EBBD38"/>
<stop offset="1" stop-color="#FFF29E"/>
</linearGradient>
<linearGradient id="paint8_linear_1765_38050" x1="78.4996" y1="15.0382" x2="78.4996" y2="154.006" gradientUnits="userSpaceOnUse">
<stop stop-color="#CA6B34"/>
<stop offset="0.17" stop-color="#CB6D33"/>
<stop offset="0.29" stop-color="#D17632"/>
<stop offset="0.39" stop-color="#DB8531"/>
<stop offset="0.48" stop-color="#E99B2E"/>
<stop offset="0.57" stop-color="#FBB62B"/>
<stop offset="0.59" stop-color="#FFBD2B"/>
<stop offset="1" stop-color="#FFA933"/>
</linearGradient>
<linearGradient id="paint9_linear_1765_38050" x1="78.5621" y1="34.4965" x2="78.5621" y2="18.4391" gradientUnits="userSpaceOnUse">
<stop stop-color="#F08D1D"/>
<stop offset="1" stop-color="#8D2C1B"/>
</linearGradient>
<linearGradient id="paint10_linear_1765_38050" x1="78.4997" y1="22.7252" x2="78.4997" y2="15.3947" gradientUnits="userSpaceOnUse">
<stop stop-color="#CA6B34"/>
<stop offset="0.74" stop-color="#FFBD2B"/>
<stop offset="1" stop-color="#FFA933"/>
</linearGradient>
<linearGradient id="paint11_linear_1765_38050" x1="76.455" y1="20.6222" x2="76.455" y2="18.107" gradientUnits="userSpaceOnUse">
<stop stop-color="#B75014"/>
<stop offset="0.39" stop-color="#CA6B34"/>
<stop offset="1" stop-color="#FFA933"/>
</linearGradient>
<linearGradient id="paint12_linear_1765_38050" x1="80.5355" y1="-0.000154635" x2="80.5355" y2="-0.000154635" gradientUnits="userSpaceOnUse">
<stop stop-color="#B75014"/>
<stop offset="0.39" stop-color="#CA6B34"/>
<stop offset="1" stop-color="#FFA933"/>
</linearGradient>
<linearGradient id="paint13_linear_1765_38050" x1="76.4906" y1="15.2962" x2="80.6068" y2="15.2962" gradientUnits="userSpaceOnUse">
<stop stop-color="#F08D1D"/>
<stop offset="1" stop-color="#8D2C1B"/>
</linearGradient>
<linearGradient id="paint14_linear_1765_38050" x1="79.1221" y1="20.6045" x2="78.3021" y2="4.29694" gradientUnits="userSpaceOnUse">
<stop stop-color="#CA6B34"/>
<stop offset="0.74" stop-color="#FFBD2B"/>
<stop offset="1" stop-color="#FFA933"/>
</linearGradient>
<linearGradient id="paint15_linear_1765_38050" x1="71.6988" y1="10.4" x2="76.6328" y2="10.4" gradientUnits="userSpaceOnUse">
<stop stop-color="#D16509"/>
<stop offset="1" stop-color="#8D2C1B"/>
</linearGradient>
<linearGradient id="paint16_linear_1765_38050" x1="74.3746" y1="13.2643" x2="74.3746" y2="10.0689" gradientUnits="userSpaceOnUse">
<stop stop-color="#B53E1C"/>
<stop offset="1" stop-color="#440000"/>
</linearGradient>
<linearGradient id="paint17_linear_1765_38050" x1="80.1354" y1="10.4001" x2="85.2917" y2="10.4001" gradientUnits="userSpaceOnUse">
<stop stop-color="#D16509"/>
<stop offset="1" stop-color="#8D2C1B"/>
</linearGradient>
<linearGradient id="paint18_linear_1765_38050" x1="82.3935" y1="13.2644" x2="82.3935" y2="10.069" gradientUnits="userSpaceOnUse">
<stop stop-color="#B53E1C"/>
<stop offset="1" stop-color="#440000"/>
</linearGradient>
<linearGradient id="paint19_linear_1765_38050" x1="78.6153" y1="13.104" x2="78.3269" y2="4.90536" gradientUnits="userSpaceOnUse">
<stop stop-color="#D33A22"/>
<stop offset="1" stop-color="white"/>
</linearGradient>
<linearGradient id="paint20_linear_1765_38050" x1="78.5797" y1="8.12815" x2="78.4355" y2="3.19639" gradientUnits="userSpaceOnUse">
<stop stop-color="#B75014"/>
<stop offset="0.39" stop-color="#CA6B34"/>
<stop offset="1" stop-color="#FFA933"/>
</linearGradient>
<linearGradient id="paint21_linear_1765_38050" x1="78.0907" y1="8.47641" x2="78.7484" y2="3.53681" gradientUnits="userSpaceOnUse">
<stop stop-color="#D33A22"/>
<stop offset="1" stop-color="white"/>
</linearGradient>
<linearGradient id="paint22_linear_1765_38050" x1="78.4197" y1="2.32649" x2="79.5487" y2="2.32649" gradientUnits="userSpaceOnUse">
<stop stop-color="white"/>
<stop offset="1" stop-color="#FFF7C4"/>
</linearGradient>
<linearGradient id="paint23_linear_1765_38050" x1="81.6379" y1="6.80262" x2="83.0159" y2="6.80262" gradientUnits="userSpaceOnUse">
<stop stop-color="white"/>
<stop offset="1" stop-color="#FFF7C4"/>
</linearGradient>
<linearGradient id="paint24_linear_1765_38050" x1="75.3348" y1="19.1546" x2="81.6557" y2="19.1546" gradientUnits="userSpaceOnUse">
<stop stop-color="#F08D1D"/>
<stop offset="1" stop-color="#8D2C1B"/>
</linearGradient>
<radialGradient id="paint25_radial_1765_38050" cx="0" cy="0" r="1" gradientUnits="userSpaceOnUse" gradientTransform="translate(78.7753 11.6813) scale(2.55148 2.56884)">
<stop stop-color="#FFA933"/>
<stop offset="0.26" stop-color="#FFBD2B"/>
<stop offset="1" stop-color="#CA6B34"/>
</radialGradient>
<linearGradient id="paint26_linear_1765_38050" x1="78.5797" y1="15.2972" x2="78.5797" y2="9.63139" gradientUnits="userSpaceOnUse">
<stop stop-color="#D33A22"/>
<stop offset="1" stop-color="white"/>
</linearGradient>
<linearGradient id="paint27_linear_1765_38050" x1="78.2064" y1="11.9861" x2="79.9221" y2="11.9861" gradientUnits="userSpaceOnUse">
<stop stop-color="white"/>
<stop offset="1" stop-color="#FFF7C4"/>
</linearGradient>
<linearGradient id="paint28_linear_1765_38050" x1="74.1435" y1="19.4151" x2="74.1435" y2="14.0268" gradientUnits="userSpaceOnUse">
<stop stop-color="#CA6B34"/>
<stop offset="0.74" stop-color="#FFBD2B"/>
<stop offset="1" stop-color="#FFA933"/>
</linearGradient>
<linearGradient id="paint29_linear_1765_38050" x1="58.0793" y1="15.71" x2="59.1783" y2="9.25009" gradientUnits="userSpaceOnUse">
<stop stop-color="#CA6B34"/>
<stop offset="0.74" stop-color="#FFBD2B"/>
<stop offset="1" stop-color="#FFA933"/>
</linearGradient>
<linearGradient id="paint30_linear_1765_38050" x1="48.451" y1="7.02869" x2="54.0394" y2="13.0863" gradientUnits="userSpaceOnUse">
<stop stop-color="#CA6B34"/>
<stop offset="0.74" stop-color="#FFBD2B"/>
<stop offset="1" stop-color="#FFA933"/>
</linearGradient>
<linearGradient id="paint31_linear_1765_38050" x1="42.8149" y1="11.1989" x2="60.9305" y2="1.96319" gradientUnits="userSpaceOnUse">
<stop stop-color="#CE5719"/>
<stop offset="0.74" stop-color="#FFBD2B"/>
<stop offset="1" stop-color="#FFA933"/>
</linearGradient>
<linearGradient id="paint32_linear_1765_38050" x1="42.2457" y1="7.3318" x2="48.7873" y2="5.37818" gradientUnits="userSpaceOnUse">
<stop stop-color="#D33A22"/>
<stop offset="1" stop-color="white"/>
</linearGradient>
<linearGradient id="paint33_linear_1765_38050" x1="48.9576" y1="10.8415" x2="48.2192" y2="7.72887" gradientUnits="userSpaceOnUse">
<stop stop-color="#B53E1C"/>
<stop offset="1" stop-color="#440000"/>
</linearGradient>
<linearGradient id="paint34_linear_1765_38050" x1="48.0155" y1="7.34967" x2="50.7625" y2="7.34967" gradientUnits="userSpaceOnUse">
<stop stop-color="#D16509"/>
<stop offset="1" stop-color="#8D2C1B"/>
</linearGradient>
<linearGradient id="paint35_linear_1765_38050" x1="60.0082" y1="26.0745" x2="56.063" y2="5.47094" gradientUnits="userSpaceOnUse">
<stop stop-color="#D16509"/>
<stop offset="1" stop-color="#8D2C1B"/>
</linearGradient>
<linearGradient id="paint36_linear_1765_38050" x1="54.3186" y1="1.17478" x2="51.1034" y2="16.1135" gradientUnits="userSpaceOnUse">
<stop stop-color="#B75014"/>
<stop offset="0.39" stop-color="#CA6B34"/>
<stop offset="1" stop-color="#FFA933"/>
</linearGradient>
<linearGradient id="paint37_linear_1765_38050" x1="50.8426" y1="1.71101" x2="55.012" y2="1.71101" gradientUnits="userSpaceOnUse">
<stop stop-color="#EBBD38"/>
<stop offset="1" stop-color="#FFF29E"/>
</linearGradient>
<linearGradient id="paint38_linear_1765_38050" x1="49.3044" y1="0.296826" x2="52.2115" y2="0.296826" gradientUnits="userSpaceOnUse">
<stop stop-color="white"/>
<stop offset="1" stop-color="#FFF7C4"/>
</linearGradient>
<linearGradient id="paint39_linear_1765_38050" x1="53.3851" y1="6.03447" x2="54.8875" y2="6.03447" gradientUnits="userSpaceOnUse">
<stop stop-color="white"/>
<stop offset="1" stop-color="#FFF7C4"/>
</linearGradient>
<linearGradient id="paint40_linear_1765_38050" x1="57.9279" y1="11.494" x2="63.8487" y2="11.494" gradientUnits="userSpaceOnUse">
<stop stop-color="#EBBD38"/>
<stop offset="1" stop-color="#FFF29E"/>
</linearGradient>
<linearGradient id="paint41_linear_1765_38050" x1="62.9865" y1="16.122" x2="62.9865" y2="11.7898" gradientUnits="userSpaceOnUse">
<stop stop-color="#E39330"/>
<stop offset="1" stop-color="#FFCD61"/>
</linearGradient>
<linearGradient id="paint42_linear_1765_38050" x1="64.6133" y1="10.349" x2="65.9646" y2="10.349" gradientUnits="userSpaceOnUse">
<stop stop-color="white"/>
<stop offset="1" stop-color="#FFF7C4"/>
</linearGradient>
<linearGradient id="paint43_linear_1765_38050" x1="74.2946" y1="16.6044" x2="74.2946" y2="11.0729" gradientUnits="userSpaceOnUse">
<stop stop-color="#D33A22"/>
<stop offset="1" stop-color="white"/>
</linearGradient>
<linearGradient id="paint44_linear_1765_38050" x1="82.8474" y1="19.4151" x2="82.8474" y2="14.0268" gradientUnits="userSpaceOnUse">
<stop stop-color="#CA6B34"/>
<stop offset="0.74" stop-color="#FFBD2B"/>
<stop offset="1" stop-color="#FFA933"/>
</linearGradient>
<linearGradient id="paint45_linear_1765_38050" x1="80.9536" y1="9.80258" x2="115.474" y2="9.80258" gradientUnits="userSpaceOnUse">
<stop stop-color="#CA6B34"/>
<stop offset="0.74" stop-color="#FFBD2B"/>
<stop offset="1" stop-color="#FFA933"/>
</linearGradient>
<linearGradient id="paint46_linear_1765_38050" x1="99.5608" y1="8.81882" x2="115.474" y2="8.81882" gradientUnits="userSpaceOnUse">
<stop stop-color="#CA6B34"/>
<stop offset="0.74" stop-color="#FFBD2B"/>
<stop offset="1" stop-color="#FFA933"/>
</linearGradient>
<linearGradient id="paint47_linear_1765_38050" x1="114.594" y1="15.1909" x2="102.897" y2="0.822098" gradientUnits="userSpaceOnUse">
<stop stop-color="#CE5719"/>
<stop offset="0.74" stop-color="#FFBD2B"/>
<stop offset="1" stop-color="#FFA933"/>
</linearGradient>
<linearGradient id="paint48_linear_1765_38050" x1="114.38" y1="10.4377" x2="109.734" y2="5.67163" gradientUnits="userSpaceOnUse">
<stop stop-color="#D33A22"/>
<stop offset="1" stop-color="white"/>
</linearGradient>
<linearGradient id="paint49_linear_1765_38050" x1="108.398" y1="10.2776" x2="108.686" y2="8.17469" gradientUnits="userSpaceOnUse">
<stop stop-color="#B53E1C"/>
<stop offset="1" stop-color="#440000"/>
</linearGradient>
<linearGradient id="paint50_linear_1765_38050" x1="109.171" y1="7.47498" x2="105.996" y2="6.99801" gradientUnits="userSpaceOnUse">
<stop stop-color="#D16509"/>
<stop offset="1" stop-color="#8D2C1B"/>
</linearGradient>
<linearGradient id="paint51_linear_1765_38050" x1="97.2938" y1="25.0452" x2="100.951" y2="5.0223" gradientUnits="userSpaceOnUse">
<stop stop-color="#D16509"/>
<stop offset="1" stop-color="#8D2C1B"/>
</linearGradient>
<linearGradient id="paint52_linear_1765_38050" x1="99.5609" y1="6.53622" x2="108.638" y2="6.53622" gradientUnits="userSpaceOnUse">
<stop stop-color="#B75014"/>
<stop offset="0.39" stop-color="#CA6B34"/>
<stop offset="1" stop-color="#FFA933"/>
</linearGradient>
<linearGradient id="paint53_linear_1765_38050" x1="101.988" y1="1.71101" x2="106.148" y2="1.71101" gradientUnits="userSpaceOnUse">
<stop stop-color="#EBBD38"/>
<stop offset="1" stop-color="#FFF29E"/>
</linearGradient>
<linearGradient id="paint54_linear_1765_38050" x1="104.788" y1="0.296826" x2="107.695" y2="0.296826" gradientUnits="userSpaceOnUse">
<stop stop-color="white"/>
<stop offset="1" stop-color="#FFF7C4"/>
</linearGradient>
<linearGradient id="paint55_linear_1765_38050" x1="102.112" y1="6.03447" x2="103.615" y2="6.03447" gradientUnits="userSpaceOnUse">
<stop stop-color="white"/>
<stop offset="1" stop-color="#FFF7C4"/>
</linearGradient>
<linearGradient id="paint56_linear_1765_38050" x1="93.1422" y1="11.494" x2="99.063" y2="11.494" gradientUnits="userSpaceOnUse">
<stop stop-color="#EBBD38"/>
<stop offset="1" stop-color="#FFF29E"/>
</linearGradient>
<linearGradient id="paint57_linear_1765_38050" x1="94.0044" y1="0.00182983" x2="94.0044" y2="0.00182983" gradientUnits="userSpaceOnUse">
<stop stop-color="#E39330"/>
<stop offset="1" stop-color="#FFCD61"/>
</linearGradient>
<linearGradient id="paint58_linear_1765_38050" x1="91.0262" y1="10.349" x2="92.3864" y2="10.349" gradientUnits="userSpaceOnUse">
<stop stop-color="white"/>
<stop offset="1" stop-color="#FFF7C4"/>
</linearGradient>
<linearGradient id="paint59_linear_1765_38050" x1="82.7049" y1="16.6044" x2="82.7049" y2="11.0729" gradientUnits="userSpaceOnUse">
<stop stop-color="#D33A22"/>
<stop offset="1" stop-color="white"/>
</linearGradient>
<linearGradient id="paint60_linear_1765_38050" x1="50.5351" y1="161.587" x2="41.7161" y2="161.618" gradientUnits="userSpaceOnUse">
<stop stop-color="#CA6B34"/>
<stop offset="0.74" stop-color="#FFBD2B"/>
<stop offset="1" stop-color="#FFA933"/>
</linearGradient>
<linearGradient id="paint61_linear_1765_38050" x1="31.6336" y1="156.606" x2="60.8883" y2="163.113" gradientUnits="userSpaceOnUse">
<stop stop-color="#D16509"/>
<stop offset="1" stop-color="#8D2C1B"/>
</linearGradient>
<linearGradient id="paint62_linear_1765_38050" x1="44.5207" y1="155.652" x2="43.9857" y2="168.602" gradientUnits="userSpaceOnUse">
<stop stop-color="#D16509"/>
<stop offset="1" stop-color="#8D2C1B"/>
</linearGradient>
<linearGradient id="paint63_linear_1765_38050" x1="44.5664" y1="160.42" x2="44.228" y2="168.612" gradientUnits="userSpaceOnUse">
<stop stop-color="#D33A22"/>
<stop offset="1" stop-color="white"/>
</linearGradient>
<linearGradient id="paint64_linear_1765_38050" x1="42.4314" y1="159.32" x2="45.0222" y2="158.683" gradientUnits="userSpaceOnUse">
<stop stop-color="#B53E1C"/>
<stop offset="1" stop-color="#440000"/>
</linearGradient>
<linearGradient id="paint65_linear_1765_38050" x1="54.6573" y1="162.145" x2="54.5465" y2="164.827" gradientUnits="userSpaceOnUse">
<stop stop-color="#EBBD38"/>
<stop offset="1" stop-color="#FFF29E"/>
</linearGradient>
<linearGradient id="paint66_linear_1765_38050" x1="45.2245" y1="163.15" x2="53.0122" y2="163.123" gradientUnits="userSpaceOnUse">
<stop stop-color="#F08D1D"/>
<stop offset="1" stop-color="#8D2C1B"/>
</linearGradient>
<linearGradient id="paint67_linear_1765_38050" x1="52.3204" y1="161.205" x2="57.0633" y2="152.872" gradientUnits="userSpaceOnUse">
<stop stop-color="#CA6B34"/>
<stop offset="0.74" stop-color="#FFBD2B"/>
<stop offset="1" stop-color="#FFA933"/>
</linearGradient>
<linearGradient id="paint68_linear_1765_38050" x1="50.091" y1="153.536" x2="56.0895" y2="163.409" gradientUnits="userSpaceOnUse">
<stop stop-color="#D16509"/>
<stop offset="1" stop-color="#8D2C1B"/>
</linearGradient>
<linearGradient id="paint69_linear_1765_38050" x1="57.0304" y1="156.21" x2="52.2865" y2="159.053" gradientUnits="userSpaceOnUse">
<stop stop-color="#D16509"/>
<stop offset="1" stop-color="#8D2C1B"/>
</linearGradient>
<linearGradient id="paint70_linear_1765_38050" x1="52.5588" y1="155.091" x2="55.2866" y2="159.581" gradientUnits="userSpaceOnUse">
<stop stop-color="#D16509"/>
<stop offset="1" stop-color="#8D2C1B"/>
</linearGradient>
<linearGradient id="paint71_linear_1765_38050" x1="51.0479" y1="157.324" x2="58.9754" y2="161.775" gradientUnits="userSpaceOnUse">
<stop stop-color="#F08D1D"/>
<stop offset="1" stop-color="#8D2C1B"/>
</linearGradient>
<linearGradient id="paint72_linear_1765_38050" x1="108.518" y1="161.559" x2="117.337" y2="161.59" gradientUnits="userSpaceOnUse">
<stop stop-color="#CA6B34"/>
<stop offset="0.74" stop-color="#FFBD2B"/>
<stop offset="1" stop-color="#FFA933"/>
</linearGradient>
<linearGradient id="paint73_linear_1765_38050" x1="127.323" y1="156.59" x2="98.0683" y2="163.097" gradientUnits="userSpaceOnUse">
<stop stop-color="#D16509"/>
<stop offset="1" stop-color="#8D2C1B"/>
</linearGradient>
<linearGradient id="paint74_linear_1765_38050" x1="114.436" y1="155.636" x2="114.971" y2="168.595" gradientUnits="userSpaceOnUse">
<stop stop-color="#D16509"/>
<stop offset="1" stop-color="#8D2C1B"/>
</linearGradient>
<linearGradient id="paint75_linear_1765_38050" x1="114.39" y1="160.404" x2="114.729" y2="168.605" gradientUnits="userSpaceOnUse">
<stop stop-color="#D33A22"/>
<stop offset="1" stop-color="white"/>
</linearGradient>
<linearGradient id="paint76_linear_1765_38050" x1="116.525" y1="159.304" x2="113.934" y2="158.667" gradientUnits="userSpaceOnUse">
<stop stop-color="#B53E1C"/>
<stop offset="1" stop-color="#440000"/>
</linearGradient>
<linearGradient id="paint77_linear_1765_38050" x1="104.308" y1="162.128" x2="104.419" y2="164.811" gradientUnits="userSpaceOnUse">
<stop stop-color="#EBBD38"/>
<stop offset="1" stop-color="#FFF29E"/>
</linearGradient>
<linearGradient id="paint78_linear_1765_38050" x1="113.828" y1="163.131" x2="106.04" y2="163.104" gradientUnits="userSpaceOnUse">
<stop stop-color="#F08D1D"/>
<stop offset="1" stop-color="#8D2C1B"/>
</linearGradient>
<linearGradient id="paint79_linear_1765_38050" x1="106.598" y1="161.066" x2="101.855" y2="152.733" gradientUnits="userSpaceOnUse">
<stop stop-color="#CA6B34"/>
<stop offset="0.74" stop-color="#FFBD2B"/>
<stop offset="1" stop-color="#FFA933"/>
</linearGradient>
<linearGradient id="paint80_linear_1765_38050" x1="108.901" y1="153.53" x2="102.903" y2="163.403" gradientUnits="userSpaceOnUse">
<stop stop-color="#D16509"/>
<stop offset="1" stop-color="#8D2C1B"/>
</linearGradient>
<linearGradient id="paint81_linear_1765_38050" x1="101.954" y1="156.199" x2="106.705" y2="159.047" gradientUnits="userSpaceOnUse">
<stop stop-color="#D16509"/>
<stop offset="1" stop-color="#8D2C1B"/>
</linearGradient>
<linearGradient id="paint82_linear_1765_38050" x1="106.433" y1="155.085" x2="103.705" y2="159.574" gradientUnits="userSpaceOnUse">
<stop stop-color="#D16509"/>
<stop offset="1" stop-color="#8D2C1B"/>
</linearGradient>
<linearGradient id="paint83_linear_1765_38050" x1="107.883" y1="157.188" x2="99.9551" y2="161.639" gradientUnits="userSpaceOnUse">
<stop stop-color="#F08D1D"/>
<stop offset="1" stop-color="#8D2C1B"/>
</linearGradient>
<linearGradient id="paint84_linear_1765_38050" x1="78.9973" y1="76.2295" x2="78.9973" y2="94.2295" gradientUnits="userSpaceOnUse">
<stop stop-color="#F3DBA9"/>
<stop offset="1" stop-color="#FFA031"/>
</linearGradient>
<clipPath id="clip0_1765_38050">
<rect width="157" height="168.666" fill="white"/>
</clipPath>
</defs>
</svg>
