<svg width="157" height="169" viewBox="0 0 157 169" fill="none" xmlns="http://www.w3.org/2000/svg">
<g clip-path="url(#clip0_1793_31450)">
<g filter="url(#filter0_i_1793_31450)">
<ellipse cx="78" cy="83.508" rx="68" ry="68.7826" fill="black" fill-opacity="0.4"/>
</g>
<path d="M78.4467 7.76315C36.4497 7.76315 2.40039 42.0442 2.40039 84.3271C2.40039 126.61 36.4497 160.9 78.4467 160.9C120.444 160.9 154.502 126.619 154.502 84.3271C154.502 42.0352 120.453 7.76315 78.4467 7.76315ZM78.4467 153.865C40.308 153.865 9.38805 122.734 9.38805 84.336C9.38805 45.9377 40.308 14.7984 78.4467 14.7984C116.585 14.7984 147.505 45.9288 147.505 84.336C147.505 122.743 116.585 153.865 78.4467 153.865Z" fill="url(#paint0_linear_1793_31450)"/>
<path d="M78.5 5.81992C35.1428 5.81992 0 41.2019 0 84.8542C0 128.507 35.1428 163.889 78.5 163.889C121.857 163.889 157 128.507 157 84.8542C157 41.2019 121.848 5.81992 78.5 5.81992ZM78.5 159.458C58.7105 159.458 40.1035 151.698 26.1015 137.609C12.1084 123.521 4.40062 104.778 4.40062 84.8542C4.40062 64.9301 12.1084 46.1963 26.1015 32.099C40.0946 18.0107 58.7016 10.2505 78.5 10.2505C98.2984 10.2505 116.897 18.0107 130.899 32.099C144.892 46.1874 152.599 64.9211 152.599 84.8542C152.599 104.787 144.892 123.521 130.899 137.609C116.905 151.698 98.2984 159.458 78.5 159.458Z" fill="url(#paint1_linear_1793_31450)"/>
<path style="mix-blend-mode:multiply" opacity="0.5" d="M78.5 161.724C43.055 161.724 13.0508 138.47 2.96045 106.418C12.2773 139.589 42.5749 163.89 78.5 163.89C114.425 163.89 144.714 139.589 154.04 106.418C143.949 138.479 113.945 161.724 78.5 161.724Z" fill="url(#paint2_linear_1793_31450)"/>
<path d="M132.383 30.6044C117.99 16.1133 98.8493 8.1293 78.4998 8.1293C58.1502 8.1293 39.0098 16.1133 24.6166 30.6044C10.2235 45.0955 2.29346 64.3663 2.29346 84.8543C2.29346 105.342 10.2235 124.613 24.6077 139.104C39.0009 153.595 58.1414 161.57 78.4909 161.57C98.8404 161.57 117.981 153.586 132.374 139.104C146.767 124.613 154.688 105.351 154.688 84.8543C154.688 64.3573 146.758 45.0955 132.374 30.6044H132.383ZM130.898 137.61C116.905 151.698 98.2981 159.458 78.4998 159.458C58.7014 159.458 40.1032 151.698 26.1013 137.61C12.1082 123.521 4.40042 104.779 4.40042 84.8543C4.40042 64.9302 12.1082 46.1965 26.1013 32.0992C40.0944 18.0108 58.7014 10.2506 78.4998 10.2506C98.2981 10.2506 116.896 18.0108 130.898 32.0992C144.891 46.1875 152.599 64.9212 152.599 84.8543C152.599 104.787 144.891 123.521 130.898 137.61Z" fill="url(#paint3_linear_1793_31450)"/>
<path style="mix-blend-mode:color-dodge" opacity="0.5" d="M154.04 63.2922C144.714 30.1211 114.425 5.82004 78.5 5.82004C42.5749 5.82004 12.2773 30.1211 2.96045 63.2922C13.0508 31.231 43.055 8.20986 78.5 8.20986C113.945 8.20986 143.949 31.2399 154.04 63.2922Z" fill="url(#paint4_linear_1793_31450)"/>
<path d="M128.907 34.1036C115.439 20.5434 97.5339 13.0786 78.5 13.0786C59.4662 13.0786 41.5526 20.5434 28.0929 34.1036C14.6243 47.6639 7.20996 65.6816 7.20996 84.8539C7.20996 104.026 14.6243 122.053 28.0929 135.604C41.5526 149.155 59.4574 156.62 78.5 156.62C97.5427 156.62 115.447 149.155 128.907 135.604C142.367 122.044 149.781 104.017 149.781 84.8539C149.781 65.6905 142.367 47.6549 128.907 34.1036ZM78.5 152.243C60.622 152.243 43.8107 145.235 31.1689 132.507C18.5271 119.779 11.5661 102.863 11.5661 84.8628C11.5661 66.8631 18.5271 49.9374 31.1689 37.2185C43.8107 24.4906 60.622 17.4823 78.5 17.4823C96.3781 17.4823 113.189 24.4906 125.831 37.2185C138.473 49.9463 145.434 66.872 145.434 84.8628C145.434 102.854 138.473 119.788 125.831 132.507C113.189 145.235 96.3781 152.243 78.5 152.243Z" fill="url(#paint5_linear_1793_31450)"/>
<path style="mix-blend-mode:multiply" opacity="0.5" d="M129.912 133.268C116.176 146.82 97.916 154.285 78.4999 154.285C59.0838 154.285 40.8235 146.82 27.0882 133.268C22.2608 128.498 18.1891 123.181 14.9531 117.453C18.3136 124.076 22.7231 130.198 28.0928 135.605C41.5525 149.165 59.4572 156.63 78.4999 156.63C97.5426 156.63 115.447 149.165 128.907 135.605C134.277 130.198 138.686 124.067 142.047 117.453C138.802 123.181 134.739 128.507 129.912 133.268Z" fill="url(#paint6_linear_1793_31450)"/>
<path style="mix-blend-mode:color-dodge" opacity="0.5" d="M142.055 52.2554C138.695 45.6319 134.285 39.5097 128.916 34.1035C115.447 20.5432 97.5425 13.0873 78.5087 13.0873C59.4749 13.0873 41.5612 20.5522 28.1016 34.1035C22.7319 39.5186 18.3224 45.6409 14.9619 52.2554C18.2068 46.527 22.2696 41.2103 27.097 36.4396C40.8322 22.8883 59.0926 15.4234 78.5087 15.4234C97.9248 15.4234 116.185 22.8883 129.92 36.4396C134.748 41.2103 138.811 46.527 142.055 52.2554Z" fill="url(#paint7_linear_1793_31450)"/>
<path d="M127.298 35.7244C114.265 22.6028 96.9293 15.3706 78.5001 15.3706C60.0708 15.3706 42.735 22.5938 29.702 35.7244C16.6691 48.8461 9.48584 66.2999 9.48584 84.8546C9.48584 103.409 16.6691 120.863 29.702 133.985C42.735 147.106 60.0708 154.339 78.5001 154.339C96.9293 154.339 114.265 147.106 127.298 133.985C140.331 120.863 147.514 103.418 147.514 84.8546C147.514 66.2909 140.331 48.8461 127.298 35.7244ZM125.822 132.508C113.181 145.236 96.3692 152.244 78.4912 152.244C60.6131 152.244 43.8018 145.236 31.16 132.508C18.5182 119.78 11.5572 102.863 11.5572 84.8636C11.5572 66.8638 18.5182 49.9381 31.16 37.2192C43.8018 24.4914 60.6131 17.483 78.4912 17.483C96.3692 17.483 113.181 24.4914 125.822 37.2192C138.464 49.947 145.425 66.8727 145.425 84.8636C145.425 102.854 138.464 119.789 125.822 132.508Z" fill="url(#paint8_linear_1793_31450)"/>
<path style="mix-blend-mode:multiply" opacity="0.5" d="M132.632 27.6238C128.498 28.5994 123.315 26.0753 123.315 26.0753L121.315 27.4447C118.746 27.8028 118.541 30.837 118.541 30.837C107.046 22.1549 93.1241 17.4648 78.4998 17.4648C63.8755 17.4648 49.7847 22.2176 38.2452 30.9982C36.9206 28.0444 32.9823 29.5929 32.9823 29.5929L31.3554 27.4895C28.8306 25.9947 24.6878 27.4179 24.4922 27.4895C24.5544 27.4268 24.6167 27.3642 24.6789 27.3015C24.7411 27.2389 24.8033 27.1852 24.8656 27.1225C25.1945 26.8092 25.5234 26.5049 25.8613 26.2006C25.9235 26.1469 25.9946 26.0842 26.0569 26.0216C26.3947 25.7083 26.7414 25.404 27.0881 25.0997C27.0881 25.0997 27.097 25.0907 27.1059 25.0818C27.4615 24.7774 27.8082 24.4731 28.1727 24.1688C28.2438 24.1061 28.315 24.0524 28.3772 23.9898C28.7239 23.7034 29.0706 23.4169 29.4262 23.1305C29.4973 23.0768 29.5596 23.0231 29.6307 22.9694C29.9774 22.683 30.333 22.4055 30.6886 22.137C30.7064 22.1191 30.7242 22.1102 30.742 22.0923C31.1065 21.8058 31.4798 21.5284 31.8532 21.2509C31.9244 21.1972 32.0044 21.1435 32.0755 21.0898C32.44 20.8213 32.8045 20.5527 33.169 20.2932C33.2401 20.2395 33.3023 20.1947 33.3734 20.15C33.7379 19.8904 34.0935 19.6398 34.458 19.3892C34.4847 19.3713 34.5203 19.3444 34.5469 19.3265C34.9292 19.0669 35.3115 18.8074 35.7027 18.5567C35.7827 18.503 35.8627 18.4493 35.9427 18.3956C36.325 18.154 36.7073 17.9033 37.0895 17.6617C37.1607 17.6169 37.2229 17.5722 37.294 17.5364C37.6674 17.3036 38.0408 17.0709 38.4231 16.8472C38.4586 16.8293 38.4942 16.8024 38.5386 16.7756C38.9298 16.5428 39.3298 16.3101 39.7388 16.0774C39.8188 16.0327 39.8988 15.979 39.9877 15.9342C40.3878 15.7104 40.7789 15.4867 41.1879 15.2719C41.2501 15.236 41.3212 15.2002 41.3835 15.1644C41.7657 14.9496 42.1569 14.7527 42.5481 14.5468C42.5925 14.5289 42.637 14.5021 42.6814 14.4752C43.0904 14.2604 43.5082 14.0546 43.9172 13.8487C43.9972 13.8039 44.0861 13.7681 44.175 13.7234C44.5928 13.5175 45.0018 13.3206 45.4196 13.1326C45.4818 13.1058 45.5441 13.07 45.6063 13.0431C46.0063 12.8552 46.4064 12.6762 46.8065 12.4971C46.8598 12.4792 46.9131 12.4524 46.9665 12.4255C47.3932 12.2376 47.8199 12.0586 48.2467 11.8706C48.3356 11.8348 48.4156 11.799 48.5045 11.7632C48.9312 11.5842 49.3668 11.4052 49.8024 11.2351C49.8558 11.2172 49.918 11.1904 49.9714 11.1724C50.3892 11.0113 50.7981 10.8502 51.216 10.6981C51.2693 10.6712 51.3315 10.6533 51.3849 10.6354C51.8205 10.4743 52.265 10.3132 52.7095 10.161C52.7984 10.1342 52.8784 10.0984 52.9673 10.0715C53.4118 9.91936 53.8563 9.7672 54.3097 9.61503C54.3542 9.59713 54.3986 9.58818 54.452 9.57028C54.8787 9.42707 55.3143 9.29281 55.7499 9.15855C55.8122 9.14065 55.8744 9.12275 55.9366 9.10485C56.39 8.97059 56.8434 8.83633 57.2968 8.71102C57.3857 8.68417 57.4657 8.65731 57.5546 8.63941C58.0169 8.5141 58.4792 8.38879 58.9415 8.26348C58.9771 8.25453 59.0215 8.24558 59.0571 8.23663C59.5016 8.12027 59.955 8.01287 60.4084 7.90546C60.4795 7.88756 60.5417 7.87861 60.604 7.86071C61.0663 7.7533 61.5285 7.64589 61.9997 7.54743C62.0886 7.52953 62.1686 7.51163 62.2575 7.49373C62.7287 7.39527 63.2088 7.29681 63.6889 7.20731C63.7155 7.20731 63.7422 7.19836 63.7689 7.18941C64.2312 7.0999 64.7023 7.01934 65.1735 6.93879C65.2446 6.92984 65.3158 6.91194 65.3869 6.90299C65.858 6.82243 66.3381 6.75082 66.8093 6.67922C66.8982 6.66132 66.9782 6.65237 67.0671 6.64342C67.5561 6.57181 68.045 6.50021 68.534 6.43755C68.5429 6.43755 68.5606 6.43755 68.5784 6.43755C69.0585 6.3749 69.5475 6.32119 70.0364 6.26749C70.1075 6.25854 70.1875 6.24959 70.2587 6.24064C70.7387 6.18693 71.2277 6.14218 71.7078 6.09743C71.7967 6.09743 71.8767 6.08848 71.9567 6.07952C72.9613 5.99897 73.9659 5.92736 74.9793 5.88261C75.0593 5.88261 75.1394 5.88261 75.2194 5.87366C75.7083 5.85576 76.2062 5.83786 76.704 5.82891C76.784 5.82891 76.864 5.82891 76.9529 5.82891C77.4597 5.82891 77.9753 5.811 78.4821 5.811C78.9888 5.811 79.5044 5.811 80.0112 5.82891C80.0912 5.82891 80.1712 5.82891 80.2601 5.82891C80.7579 5.83786 81.2469 5.85576 81.7358 5.87366C81.8159 5.87366 81.8959 5.88261 81.9759 5.88261C82.9894 5.92736 83.9939 5.99002 84.9985 6.07952C85.0785 6.07952 85.1674 6.09743 85.2564 6.09743C85.7364 6.14218 86.2254 6.18693 86.7054 6.24064C86.7766 6.24959 86.8566 6.25854 86.9277 6.26749C87.4166 6.32119 87.9056 6.3749 88.3857 6.43755C88.4035 6.43755 88.4123 6.43755 88.4301 6.43755C88.9191 6.50021 89.4081 6.57181 89.897 6.64342C89.977 6.65237 90.0659 6.67027 90.1548 6.67922C90.6349 6.75082 91.1061 6.82243 91.5772 6.90299C91.6484 6.91194 91.7195 6.92984 91.7906 6.93879C92.2618 7.01934 92.733 7.0999 93.1953 7.18941C93.2219 7.18941 93.2486 7.19836 93.2753 7.20731C93.7553 7.29681 94.2265 7.39527 94.7066 7.49373C94.7955 7.51163 94.8755 7.52953 94.9644 7.54743C95.4267 7.64589 95.8979 7.7533 96.3601 7.86071C96.4224 7.87861 96.4935 7.88756 96.5557 7.90546C97.0091 8.01287 97.4625 8.12923 97.907 8.23663C97.9426 8.24558 97.9781 8.25453 98.0137 8.26348C98.476 8.37984 98.9383 8.50515 99.4006 8.63941C99.4895 8.66626 99.5695 8.68417 99.6584 8.71102C100.112 8.83633 100.574 8.97059 101.019 9.10485C101.081 9.12275 101.143 9.14065 101.196 9.15855C101.632 9.29281 102.068 9.42707 102.503 9.57028C102.548 9.58818 102.592 9.59713 102.637 9.61503C103.09 9.75824 103.534 9.91041 103.979 10.0715C104.059 10.0984 104.148 10.1252 104.228 10.161C104.672 10.3132 105.117 10.4743 105.553 10.6354C105.606 10.6533 105.659 10.6712 105.713 10.6981C106.13 10.8592 106.557 11.0113 106.975 11.1814C107.028 11.1993 107.082 11.2262 107.126 11.2441C107.562 11.4141 107.997 11.5931 108.433 11.7721C108.513 11.8079 108.593 11.8437 108.682 11.8706C109.109 12.0496 109.544 12.2376 109.971 12.4255C110.015 12.4524 110.069 12.4703 110.113 12.4882C110.522 12.6672 110.922 12.8552 111.331 13.0431C111.393 13.07 111.447 13.0968 111.5 13.1237C111.918 13.3206 112.336 13.5175 112.754 13.7234C112.834 13.7592 112.914 13.8039 112.994 13.8397C113.411 14.0456 113.829 14.2604 114.247 14.4663C114.283 14.4931 114.327 14.511 114.363 14.5289C114.763 14.7348 115.154 14.9407 115.545 15.1555C115.607 15.1913 115.67 15.2181 115.732 15.2539C116.132 15.4777 116.541 15.7015 116.932 15.9252C117.012 15.97 117.092 16.0148 117.172 16.0595C117.572 16.2922 117.981 16.5249 118.381 16.7666C118.417 16.7845 118.443 16.8114 118.479 16.8293C118.861 17.062 119.243 17.2947 119.626 17.5274C119.688 17.5722 119.75 17.608 119.812 17.6438C120.204 17.8854 120.586 18.1361 120.968 18.3867C121.039 18.4404 121.119 18.4851 121.19 18.5388C121.581 18.7895 121.973 19.049 122.355 19.3175C122.382 19.3354 122.399 19.3444 122.426 19.3623C122.799 19.6129 123.164 19.8814 123.537 20.141C123.6 20.1858 123.662 20.2305 123.724 20.2753C124.097 20.5438 124.462 20.8123 124.835 21.0808C124.906 21.1345 124.978 21.1882 125.049 21.2419C125.422 21.5194 125.795 21.8058 126.169 22.0923C126.178 22.1012 126.187 22.1102 126.204 22.1191C126.569 22.4055 126.933 22.6919 127.289 22.9784C127.351 23.0321 127.413 23.0768 127.476 23.1305C127.831 23.4169 128.187 23.7034 128.534 23.9987C128.596 24.0524 128.667 24.1061 128.729 24.1599C129.449 24.7685 130.16 25.395 130.863 26.0216C130.925 26.0753 130.987 26.129 131.041 26.1827C131.378 26.487 131.716 26.8003 132.045 27.1136C132.107 27.1673 132.161 27.221 132.223 27.2836C132.33 27.391 132.445 27.4984 132.552 27.5969L132.632 27.6238Z" fill="url(#paint9_linear_1793_31450)"/>
<path d="M81.656 18.9763C81.4959 19.4238 81.2737 19.7371 81.0425 19.9519C80.598 20.3636 80.1446 20.4084 80.1446 20.4084C79.4334 22.1627 78.4911 22.4044 78.4911 22.4044C78.4911 22.4044 77.5487 22.1627 76.8375 20.4084C76.8375 20.4084 76.3841 20.3636 75.9396 19.9519C75.7084 19.7371 75.4862 19.4327 75.3262 18.9763C75.3262 18.9763 75.7973 17.3651 76.4819 15.8972C77.0597 14.6531 77.7799 13.5164 78.4911 13.5164C79.2467 13.5164 80.0113 14.7963 80.598 16.121C81.2203 17.5263 81.656 18.9852 81.656 18.9852V18.9763Z" fill="url(#paint10_linear_1793_31450)"/>
<path d="M76.8462 20.3997C76.8462 20.3997 76.3928 20.3549 75.9482 19.9432C76.535 19.97 76.9262 18.6364 76.9617 18.529C76.9439 18.6274 76.7573 19.5673 76.8462 20.3997Z" fill="url(#paint11_linear_1793_31450)"/>
<path d="M80.1532 20.3997C80.2421 19.5673 80.0554 18.6274 80.0376 18.529C80.0732 18.6364 80.4643 19.97 81.0511 19.9432C80.6066 20.3549 80.1532 20.3997 80.1532 20.3997Z" fill="url(#paint12_linear_1793_31450)"/>
<path style="mix-blend-mode:multiply" opacity="0.5" d="M80.6069 16.112C79.8601 17.0429 78.7488 17.8127 78.4999 17.7411C78.2243 17.6605 77.6642 17.759 76.4907 15.8972C77.0686 14.6531 77.7887 13.5164 78.4999 13.5164C79.2556 13.5164 80.0201 14.7963 80.6069 16.121V16.112Z" fill="url(#paint13_linear_1793_31450)"/>
<path d="M85.292 8.35238C85.1942 6.70546 81.656 6.35638 81.656 6.35638C81.656 6.35638 81.896 5.40761 81.4515 4.45884C81.007 3.51007 78.8733 1.47827 78.4911 1.47827C78.1088 1.47827 75.9752 3.50112 75.5306 4.45884C75.0861 5.40761 75.3262 6.35638 75.3262 6.35638C75.3262 6.35638 71.7879 6.70546 71.6901 8.35238C71.5923 9.9993 75.9396 13.8302 75.9396 13.8302L78.4911 13.7944L81.0425 13.8302C81.0425 13.8302 85.3809 9.9993 85.292 8.35238Z" fill="url(#paint14_linear_1793_31450)"/>
<path d="M72.419 10.0433C71.9745 9.39883 71.6722 8.79019 71.6989 8.35161C71.7078 8.15469 71.77 7.97568 71.8678 7.81457C72.0901 7.66241 72.4101 7.59975 72.8279 7.65346C74.1259 7.83247 75.7973 10.3655 76.624 13.8205H75.9395C75.9395 13.8205 73.6281 11.7887 72.4101 10.0433H72.419Z" fill="url(#paint15_linear_1793_31450)"/>
<path d="M76.6329 13.8206H75.9484C75.9484 13.8206 73.6369 11.7888 72.419 10.0434C72.4101 9.92703 71.7433 8.43227 72.419 8.04739C73.0946 7.67147 75.4238 9.32734 76.6329 13.8206Z" fill="url(#paint16_linear_1793_31450)"/>
<path d="M85.2919 8.50395C85.2475 9.02309 84.8474 9.70334 84.314 10.4015C83.0605 12.0574 81.0513 13.8296 81.0513 13.8296H80.1445C80.9713 10.3657 82.6427 7.83265 83.9406 7.65364C84.803 7.53728 85.2475 7.94006 85.3008 8.50395H85.2919Z" fill="url(#paint17_linear_1793_31450)"/>
<path d="M84.3408 10.0435C84.3408 10.0435 84.3319 10.1778 84.3052 10.4105C83.0517 12.0664 81.0425 13.8386 81.0425 13.8386H80.1357C81.3359 9.32745 83.674 7.67158 84.3408 8.05646C85.0164 8.43239 84.3497 9.9361 84.3408 10.0525V10.0435Z" fill="url(#paint18_linear_1793_31450)"/>
<path style="mix-blend-mode:multiply" opacity="0.5" d="M79.8688 12.8995C81.1668 10.4022 81.8335 8.90749 81.2823 8.28989C80.74 7.6723 76.3839 7.52908 75.6015 8.19143C74.8192 8.85378 76.9617 12.8995 76.9617 12.8995H79.8599H79.8688Z" fill="url(#paint19_linear_1793_31450)"/>
<path d="M81.6559 6.35726C81.6559 6.35726 81.6559 6.35726 81.6381 6.37517C81.6381 6.37517 81.6381 6.37517 81.6292 6.38412C81.6292 6.38412 81.6204 6.39307 81.6115 6.40202C81.4248 6.57208 80.7313 7.20758 79.9579 7.78937C79.9579 7.78937 79.9401 7.79832 79.9312 7.80727C79.4512 8.1653 78.9355 8.51437 78.4999 8.71129C78.4999 8.71129 78.4999 8.71129 78.491 8.71129C78.491 8.71129 78.491 8.71129 78.4821 8.71129C78.2599 8.59493 76.7663 7.76252 75.3528 6.36621C75.3528 6.36621 75.1128 5.41744 75.5573 4.46868C75.5928 4.39707 75.6373 4.31651 75.6906 4.22701C75.8151 4.03009 75.984 3.80633 76.1796 3.57361C76.4374 5.19368 78.9444 5.68596 79.629 5.38164C80.3135 5.07732 80.9625 3.89583 80.5891 3.26929C80.9892 3.70787 81.327 4.1554 81.4692 4.46868C81.9137 5.41744 81.6737 6.36621 81.6737 6.36621L81.6559 6.35726Z" fill="url(#paint20_linear_1793_31450)"/>
<path style="mix-blend-mode:multiply" opacity="0.5" d="M81.6559 6.35651C81.6559 6.35651 81.6559 6.35651 81.6381 6.37442C81.6381 6.37442 81.6381 6.37442 81.6292 6.38337C81.6292 6.38337 81.6204 6.39232 81.6115 6.40127C81.4337 6.57133 80.7847 7.17997 79.9579 7.78862C79.9579 7.78862 79.9401 7.79757 79.9312 7.80652C79.4956 8.12874 78.9978 8.45097 78.4999 8.71054C78.4999 8.71054 78.4999 8.71054 78.491 8.71054C78.491 8.71054 78.491 8.71054 78.4821 8.71054C78.2599 8.59418 76.7397 7.80652 75.3528 6.36546C75.3528 6.36546 75.1128 5.41669 75.5573 4.46793C75.5928 4.39632 75.6373 4.31576 75.6906 4.22626C75.5662 6.28491 78.5177 8.51362 78.5177 8.51362C78.5177 8.51362 80.518 7.00096 81.4781 4.46793C81.9226 5.41669 81.6826 6.36546 81.6826 6.36546L81.6559 6.35651Z" fill="url(#paint21_linear_1793_31450)"/>
<path d="M78.4556 2.13092C78.3044 2.31889 78.7223 3.26766 79.0956 3.23185C79.4601 3.19605 79.6379 2.89173 79.5224 2.67691C79.4068 2.47105 78.6422 1.90716 78.4644 2.12197L78.4556 2.13092Z" fill="url(#paint22_linear_1793_31450)"/>
<path d="M81.656 7.12619C81.9227 7.52897 83.1228 7.62743 82.9984 7.24255C82.8828 6.86662 82.1983 6.74131 81.9582 6.81292C81.7182 6.88452 81.5671 6.99193 81.6471 7.12619H81.656Z" fill="url(#paint23_linear_1793_31450)"/>
<path style="mix-blend-mode:multiply" opacity="0.5" d="M81.656 18.9769C81.4959 19.4244 81.2737 19.7377 81.0425 19.9525C80.598 20.3643 80.1446 20.409 80.1446 20.409C79.4334 22.1633 78.4911 22.405 78.4911 22.405C78.4911 22.405 77.5487 22.1633 76.8375 20.409C76.8375 20.409 76.3841 20.3643 75.9396 19.9525C75.7084 19.7377 75.4862 19.4334 75.3262 18.9769C75.3262 18.9769 75.6462 17.8939 76.1352 16.6855C76.0907 17.2942 76.0018 18.9232 76.153 19.2275C76.3308 19.6035 76.8286 19.5408 76.8286 19.5408C77.2375 20.6149 78.4022 21.6621 78.6422 21.5995C78.8822 21.5368 79.9402 19.8093 80.118 19.0754C80.118 19.0754 80.3491 19.5408 80.8736 19.3797C81.3893 19.2186 80.8025 16.5692 80.8025 16.5692C81.3181 17.8133 81.656 18.968 81.656 18.968V18.9769Z" fill="url(#paint24_linear_1793_31450)"/>
<path d="M81.1313 13.5176C81.1313 14.9318 79.9933 16.0864 78.5798 16.0864C77.1663 16.0864 76.0283 14.9407 76.0283 13.5176C76.0283 12.0944 77.1663 10.9487 78.5798 10.9487C79.9933 10.9487 81.1313 12.0944 81.1313 13.5176Z" fill="url(#paint25_radial_1793_31450)"/>
<path style="mix-blend-mode:multiply" opacity="0.5" d="M81.1313 13.5173C81.1313 14.9315 79.9933 16.0862 78.5798 16.0862C77.1663 16.0862 76.0283 14.9405 76.0283 13.5173C76.0283 12.855 76.2772 12.2553 76.6862 11.7988C76.5262 12.0942 76.4373 12.4432 76.4373 12.8013C76.4373 13.9649 77.3796 14.9136 78.5353 14.9136C79.6911 14.9136 80.6334 13.9649 80.6334 12.8013C80.6334 12.3358 80.4823 11.9062 80.2334 11.5571C80.7846 12.0226 81.1313 12.7297 81.1313 13.5084V13.5173Z" fill="url(#paint26_linear_1793_31450)"/>
<path d="M78.8463 11.5578C78.1707 11.8621 78.1885 12.605 78.2151 12.7303C78.2507 12.8556 79.7087 13.2853 79.8509 12.9809C79.9931 12.6766 79.8865 11.8442 79.7442 11.7279C79.602 11.6204 78.9797 11.4862 78.8463 11.5488V11.5578Z" fill="url(#paint27_linear_1793_31450)"/>
<path d="M73.1747 15.1292C72.5702 14.3236 71.2011 15.335 71.1566 16.5255C71.1122 17.7159 72.7924 19.2554 73.9748 19.694C74.2771 19.8014 75.984 19.2017 76.8019 17.4116C77.6198 15.6214 76.8374 14.1088 75.8328 13.8313C74.8283 13.5628 73.1747 15.1292 73.1747 15.1292Z" fill="url(#paint28_linear_1793_31450)"/>
<path d="M72.5616 16.0784C72.5616 16.0784 73.1928 16.0337 73.1928 15.3624C73.1928 14.6911 72.8638 12.2296 68.2854 12.2744C68.2854 12.2744 64.0893 13.1784 56.346 18.2176C56.346 18.2176 52.3809 20.5448 48.656 19.784C44.931 19.0232 41.4372 14.5568 41.5261 8.2824C41.5261 8.2824 43.1263 3.09997 47.0024 0.916011C47.0024 0.916011 51.0119 -0.560847 55.7325 1.15768C55.7325 1.15768 60.311 5.43609 54.5057 9.90247C54.5057 9.90247 52.1943 11.2361 50.3095 11.1824C50.3095 11.1824 49.4561 13.1784 50.3095 14.7C50.3095 14.7 53.0033 15.3176 54.5057 14.7985C54.5057 14.7985 58.7996 10.4306 64.0359 9.24012C69.2722 8.04969 75.0508 10.0725 75.9576 14.3151C76.3221 16.0158 75.5309 17.8775 73.6462 17.6537C72.3215 17.4926 72.5616 16.0874 72.5616 16.0874V16.0784Z" fill="url(#paint29_linear_1793_31450)"/>
<path d="M54.4965 9.90326C54.4965 9.90326 52.185 11.2369 50.3003 11.1832C50.3003 11.1832 49.4469 13.1792 50.3003 14.7008C50.3003 14.7008 52.994 15.3184 54.4965 14.7993C52.4695 16.1329 50.9048 17.4129 48.3356 17.6993C48.3356 17.6993 46.9843 17.8246 45.2329 17.9678C43.0459 15.9718 41.4546 12.5437 41.5257 8.29214C41.5257 8.29214 43.126 3.10971 47.0021 0.925746C47.0021 0.925746 51.0115 -0.551112 55.7322 1.16741C55.7322 1.16741 60.3106 5.44583 54.5053 9.91221L54.4965 9.90326Z" fill="url(#paint30_linear_1793_31450)"/>
<path d="M54.4965 9.90247C54.4965 9.90247 52.185 11.2361 50.3003 11.1824C50.3003 11.1824 49.4469 13.1784 50.3003 14.7C47.1354 14.7985 46.3531 16.4902 47.0732 17.2778C47.2243 17.4389 47.171 17.6179 47.011 17.8059C46.5131 17.8507 45.8997 17.9044 45.2329 17.9581C43.0459 15.9621 41.4546 12.534 41.5257 8.2824C41.5257 8.2824 43.126 3.09997 47.0021 0.916011C47.0021 0.916011 51.0115 -0.560847 55.7322 1.15768C55.7322 1.15768 60.3106 5.43609 54.5053 9.90247H54.4965Z" fill="url(#paint31_linear_1793_31450)"/>
<path style="mix-blend-mode:multiply" opacity="0.5" d="M51.136 7.18997C51.136 7.18997 50.3981 9.84831 48.7979 10.985C45.6686 10.8687 43.5438 8.60417 43.5438 8.60417C42.9126 9.20387 42.4326 10.4301 42.4326 10.4301C42.4326 10.4301 42.0858 10.1347 41.5524 9.67825C41.5169 9.22177 41.508 8.75633 41.5169 8.28195C41.5169 8.28195 43.1171 3.09952 46.9932 0.915558C46.9932 0.915558 51.545 2.94736 51.136 7.18102V7.18997Z" fill="url(#paint32_linear_1793_31450)"/>
<path d="M48.1755 7.39683C48.1755 7.39683 47.6688 6.9314 47.0198 7.39683C46.3708 7.86227 46.9576 9.53604 47.8288 10.0462C48.1489 10.2342 49.429 9.24067 49.7758 8.07708L48.1755 7.39683Z" fill="url(#paint33_linear_1793_31450)"/>
<path d="M49.7756 6.79617C49.7756 6.89462 49.7578 7.01098 49.7311 7.14524C49.7311 7.16314 49.7311 7.18104 49.7222 7.19895C49.6778 7.36901 49.6155 7.55697 49.5355 7.75389C49.5266 7.78969 49.5088 7.81654 49.4911 7.85234C49.4822 7.8792 49.4644 7.90605 49.4555 7.9329C49.4555 7.9508 49.4377 7.9687 49.4288 7.99555C49.3844 8.09401 49.331 8.19247 49.2866 8.29093C49.2688 8.32673 49.2421 8.37148 49.2244 8.40729C49.2155 8.42519 49.2066 8.44309 49.1888 8.46099C49.1799 8.47889 49.171 8.49679 49.1532 8.51469C49.1088 8.5863 49.0643 8.66685 49.0199 8.73846C48.6109 8.80111 47.8286 8.6221 47.8286 8.6221C47.8286 8.6221 48.6198 7.54802 47.8642 6.66191L49.7756 6.5903C49.7756 6.5903 49.7756 6.6082 49.7756 6.61715C49.7756 6.64401 49.7756 6.67086 49.7756 6.69771C49.7756 6.72456 49.7756 6.75141 49.7756 6.77827V6.79617Z" fill="url(#paint34_linear_1793_31450)"/>
<path d="M73.1746 15.1292C73.0857 14.252 72.4189 12.3635 68.2761 12.4082C68.2761 12.4082 64.08 13.178 56.3367 18.2172C56.3367 18.2172 52.3717 20.5444 48.6467 19.7835C44.9217 19.0227 41.4279 14.5564 41.5168 8.28195C41.5168 8.28195 43.117 3.09952 46.9931 0.915558C50.1847 0.996114 51.9805 4.38841 52.0072 6.03533C52.0427 7.68226 48.9845 10.8508 48.3533 10.8687C47.7221 10.8866 46.0597 8.47886 46.4064 7.59275C46.7531 6.70663 47.8555 6.67083 47.8555 6.67083C48.6111 7.55695 47.8199 8.63103 47.8199 8.63103C47.8199 8.63103 47.9177 7.96868 47.8555 7.64645C47.7932 7.33318 47.3221 7.45849 47.0642 7.87022C46.8153 8.28195 47.4376 9.57979 48.0422 9.64245C48.6378 9.7051 49.7757 7.6196 49.7757 6.78719C49.7757 5.95478 49.2068 4.28101 47.6332 3.90508C46.0597 3.52915 42.8503 6.25015 42.2814 8.08504C41.7124 9.91992 43.9794 15.8811 47.0642 17.2684C50.1491 18.6647 53.7319 17.0804 53.7319 17.0804C60.3372 12.7752 66.6315 9.79461 69.9653 10.6181C73.2991 11.4415 73.1657 15.1113 73.1657 15.1113L73.1746 15.1292Z" fill="url(#paint35_linear_1793_31450)"/>
<path d="M54.4965 9.90304C54.4965 9.90304 52.1851 11.2367 50.3004 11.183C50.3004 11.183 49.5625 11.2009 48.3623 10.8697C48.9935 10.8518 52.0428 7.68328 52.0162 6.03636C52.0073 5.40086 51.7317 4.51475 51.216 3.64653C51.216 3.64653 52.1139 4.40734 52.7985 6.47494C52.9585 6.94933 55.5811 6.66291 56.5146 5.81259C57.448 4.96228 56.7635 2.53665 56.7635 2.53665C57.6614 4.15672 58.2837 6.98513 54.5054 9.89409L54.4965 9.90304Z" fill="url(#paint36_linear_1793_31450)"/>
<path style="mix-blend-mode:color-dodge" opacity="0.5" d="M55.0122 0.92476C55.0122 0.92476 54.7366 2.99236 53.3941 3.35039C52.0517 3.70841 51.2161 3.65471 51.2161 3.65471L50.8516 3.09977C52.7007 3.79792 54.4787 2.2047 52.5851 0.423523C53.3497 0.51303 54.1676 0.665191 55.0122 0.92476Z" fill="url(#paint37_linear_1793_31450)"/>
<path d="M49.3047 0.432462C50.1137 0.334004 51.1005 0.289251 52.2029 0.387708C52.3718 1.12166 49.7492 1.07691 49.3047 0.432462Z" fill="url(#paint38_linear_1793_31450)"/>
<path d="M53.3852 6.46548C53.2785 6.7161 54.4609 6.59974 54.781 6.40283C55.0921 6.21486 54.6387 6.13431 54.212 6.13431C53.7853 6.13431 53.4652 6.27752 53.3852 6.46548Z" fill="url(#paint39_linear_1793_31450)"/>
<path style="mix-blend-mode:color-dodge" opacity="0.5" d="M62.2128 11.6833C62.3817 11.2089 61.1282 10.6629 57.9277 12.0234C58.47 11.6564 59.0568 11.2984 59.6791 10.9493C61.1637 10.6898 62.0883 10.9762 62.5595 11.4953C62.9773 11.9608 63.6885 11.7012 63.8397 11.6296L61.1726 12.8021C61.226 12.7663 62.0439 12.1487 62.2039 11.6833H62.2128Z" fill="url(#paint40_linear_1793_31450)"/>
<path d="M67.3336 10.6187C67.3336 10.6187 63.8398 10.7172 58.6479 14.1185C58.6479 14.1185 62.7107 11.7465 67.3336 10.6187Z" fill="url(#paint41_linear_1793_31450)"/>
<path d="M65.1736 10.4847C64.9158 10.5742 64.3557 10.9501 64.738 10.9143C65.1825 10.8785 65.9648 10.7532 65.9648 10.6189C65.9648 10.4399 65.387 10.4041 65.1736 10.4847Z" fill="url(#paint42_linear_1793_31450)"/>
<path style="mix-blend-mode:multiply" opacity="0.5" d="M73.6455 17.644C72.3209 17.4829 72.5609 16.0777 72.5609 16.0777C72.5609 16.0777 73.1921 16.0329 73.1921 15.3616C73.1921 15.299 73.1921 15.2184 73.1832 15.12C73.1832 15.12 73.2277 13.9116 72.6409 12.7301C73.69 14.7172 75.0413 13.7237 75.0413 13.3925C75.0413 12.8017 74.4101 11.5307 74.3923 11.486C75.1835 12.2647 75.7436 13.2135 75.9747 14.3054C76.3392 16.0061 75.548 17.8678 73.6633 17.644H73.6455Z" fill="url(#paint43_linear_1793_31450)"/>
<path d="M83.8251 15.1292C84.4296 14.3236 85.7987 15.335 85.8431 16.5255C85.8876 17.7159 84.2074 19.2554 83.025 19.694C82.7227 19.8014 81.0158 19.2017 80.1979 17.4116C79.3889 15.6214 80.1623 14.1088 81.1669 13.8313C82.1715 13.5628 83.8251 15.1292 83.8251 15.1292Z" fill="url(#paint44_linear_1793_31450)"/>
<path d="M84.4386 16.0784C84.4386 16.0784 83.8073 16.0337 83.8073 15.3624C83.8073 14.6911 84.1363 12.2296 88.7147 12.2744C88.7147 12.2744 92.9109 13.1784 100.654 18.2176C100.654 18.2176 104.619 20.5448 108.344 19.784C112.069 19.0232 115.563 14.5568 115.474 8.2824C115.474 8.2824 113.874 3.09997 109.998 0.916011C109.998 0.916011 105.988 -0.560847 101.268 1.15768C101.268 1.15768 96.6892 5.43609 102.494 9.90247C102.494 9.90247 104.806 11.2361 106.691 11.1824C106.691 11.1824 107.544 13.1784 106.691 14.7C106.691 14.7 103.997 15.3176 102.494 14.7985C102.494 14.7985 98.2005 10.4306 92.9642 9.24012C87.7279 8.04969 81.9493 10.0725 81.0425 14.3151C80.678 16.0158 81.4692 17.8775 83.354 17.6537C84.6786 17.4926 84.4386 16.0874 84.4386 16.0874V16.0784Z" fill="url(#paint45_linear_1793_31450)"/>
<path d="M102.495 9.90322C102.495 9.90322 104.806 11.2369 106.691 11.1832C106.691 11.1832 107.544 13.1792 106.691 14.7008C106.691 14.7008 103.997 15.3184 102.495 14.7992C104.521 16.1329 106.086 17.4128 108.655 17.6992C108.655 17.6992 110.007 17.8246 111.758 17.9678C113.945 15.9718 115.536 12.5437 115.465 8.29211C115.465 8.29211 113.865 3.10968 109.989 0.925716C109.989 0.925716 105.979 -0.551143 101.259 1.16738C101.259 1.16738 96.6804 5.4458 102.486 9.91218L102.495 9.90322Z" fill="url(#paint46_linear_1793_31450)"/>
<path d="M102.495 9.90247C102.495 9.90247 104.806 11.2361 106.691 11.1824C106.691 11.1824 107.544 13.1784 106.691 14.7C109.856 14.7985 110.638 16.4902 109.918 17.2778C109.767 17.4389 109.82 17.6179 109.98 17.8059C110.478 17.8507 111.091 17.9044 111.758 17.9581C113.945 15.9621 115.536 12.534 115.465 8.2824C115.465 8.2824 113.865 3.09997 109.989 0.916011C109.989 0.916011 105.979 -0.560847 101.259 1.15768C101.259 1.15768 96.6804 5.43609 102.486 9.90247H102.495Z" fill="url(#paint47_linear_1793_31450)"/>
<path style="mix-blend-mode:multiply" opacity="0.5" d="M106.557 7.13627C106.557 7.13627 106.717 9.24862 108.637 10.4301C112.256 8.43411 113.447 8.60417 113.447 8.60417C114.078 9.20387 114.558 10.4301 114.558 10.4301C114.558 10.4301 114.905 10.1347 115.438 9.67825C115.474 9.22177 115.483 8.75634 115.474 8.28195C115.474 8.28195 113.874 3.09952 109.997 0.915558C109.997 0.915558 106.237 3.64551 106.548 7.12732L106.557 7.13627Z" fill="url(#paint48_linear_1793_31450)"/>
<path d="M108.816 7.39683C108.816 7.39683 109.322 6.9314 109.971 7.39683C110.62 7.86227 110.034 9.53604 109.162 10.0462C108.842 10.2342 107.562 9.24067 107.215 8.07708L108.816 7.39683Z" fill="url(#paint49_linear_1793_31450)"/>
<path d="M107.215 6.79617C107.215 6.89462 107.233 7.01098 107.26 7.14524C107.26 7.16314 107.26 7.18105 107.269 7.19895C107.313 7.36901 107.375 7.55697 107.455 7.75389C107.464 7.78969 107.482 7.81654 107.5 7.85234C107.509 7.8792 107.526 7.90605 107.535 7.9329C107.535 7.9508 107.553 7.9687 107.562 7.99556C107.606 8.09401 107.66 8.19247 107.704 8.29093C107.722 8.32673 107.749 8.37148 107.767 8.40729C107.775 8.42519 107.784 8.44309 107.802 8.46099C107.811 8.47889 107.82 8.49679 107.838 8.51469C107.882 8.5863 107.927 8.66685 107.971 8.73846C108.38 8.80111 109.162 8.6221 109.162 8.6221C109.162 8.6221 108.371 7.54802 109.127 6.66191L107.215 6.5903C107.215 6.5903 107.215 6.6082 107.215 6.61715C107.215 6.64401 107.215 6.67086 107.215 6.69771C107.215 6.72456 107.215 6.75141 107.215 6.77827V6.79617Z" fill="url(#paint50_linear_1793_31450)"/>
<path d="M83.8252 15.1292C83.9141 14.252 84.5809 12.3635 88.7237 12.4082C88.7237 12.4082 92.9198 13.178 100.663 18.2172C100.663 18.2172 104.628 20.5444 108.353 19.7835C112.078 19.0227 115.572 14.5564 115.483 8.28195C115.483 8.28195 113.883 3.09952 110.007 0.915558C106.815 0.996114 105.019 4.38841 104.993 6.03533C104.957 7.68226 108.015 10.8508 108.646 10.8687C109.278 10.8866 110.94 8.47886 110.593 7.59275C110.247 6.70663 109.144 6.67083 109.144 6.67083C108.389 7.55695 109.18 8.63103 109.18 8.63103C109.18 8.63103 109.082 7.96868 109.144 7.64645C109.207 7.33318 109.678 7.45849 109.936 7.87022C110.184 8.28195 109.562 9.57979 108.958 9.64245C108.362 9.7051 107.224 7.6196 107.224 6.78719C107.224 5.95478 107.793 4.28101 109.367 3.90508C110.94 3.52915 114.149 6.25015 114.718 8.08504C115.287 9.91992 113.02 15.8811 109.936 17.2684C106.851 18.6647 103.268 17.0804 103.268 17.0804C96.6626 12.7752 90.3683 9.79461 87.0345 10.6181C83.7007 11.4415 83.8341 15.1113 83.8341 15.1113L83.8252 15.1292Z" fill="url(#paint51_linear_1793_31450)"/>
<path d="M102.495 9.90304C102.495 9.90304 104.806 11.2367 106.691 11.183C106.691 11.183 107.429 11.2009 108.629 10.8697C107.998 10.8518 104.948 7.68328 104.975 6.03636C104.984 5.40086 105.26 4.51475 105.775 3.64653C105.775 3.64653 104.877 4.40734 104.193 6.47494C104.033 6.94933 101.41 6.66291 100.477 5.81259C99.5521 4.95333 100.228 2.53665 100.228 2.53665C99.3298 4.15672 98.7075 6.98513 102.486 9.89409L102.495 9.90304Z" fill="url(#paint52_linear_1793_31450)"/>
<path style="mix-blend-mode:color-dodge" opacity="0.5" d="M101.988 0.92476C101.988 0.92476 102.263 2.99236 103.606 3.35039C104.948 3.70841 105.784 3.65471 105.784 3.65471L106.148 3.09977C104.299 3.79792 102.521 2.2047 104.415 0.423523C103.65 0.51303 102.832 0.665191 101.988 0.92476Z" fill="url(#paint53_linear_1793_31450)"/>
<path d="M107.695 0.432462C106.886 0.334004 105.899 0.289251 104.797 0.387708C104.628 1.12166 107.251 1.07691 107.695 0.432462Z" fill="url(#paint54_linear_1793_31450)"/>
<path d="M103.606 6.46548C103.713 6.7161 102.53 6.59974 102.21 6.40283C101.89 6.20591 102.352 6.13431 102.779 6.13431C103.206 6.13431 103.526 6.27752 103.606 6.46548Z" fill="url(#paint55_linear_1793_31450)"/>
<path style="mix-blend-mode:color-dodge" opacity="0.5" d="M94.7866 11.6833C94.6177 11.2089 95.8712 10.6629 99.0716 12.0234C98.5293 11.6564 97.9426 11.2984 97.3203 10.9493C95.8356 10.6898 94.911 10.9762 94.4399 11.4953C94.022 11.9608 93.3108 11.7012 93.1597 11.6296L95.8267 12.8021C95.7734 12.7663 94.9555 12.1487 94.7955 11.6833H94.7866Z" fill="url(#paint56_linear_1793_31450)"/>
<path d="M89.666 10.6187C89.666 10.6187 93.1598 10.7172 98.3517 14.1185C98.3517 14.1185 94.2889 11.7465 89.666 10.6187Z" fill="url(#paint57_linear_1793_31450)"/>
<path d="M91.8171 10.4847C92.0749 10.5742 92.635 10.9501 92.2527 10.9143C91.8082 10.8785 91.0259 10.7532 91.0259 10.6189C91.0259 10.4399 91.6037 10.4041 91.8171 10.4847Z" fill="url(#paint58_linear_1793_31450)"/>
<path style="mix-blend-mode:multiply" opacity="0.5" d="M83.3537 17.644C84.6783 17.4829 84.4383 16.0777 84.4383 16.0777C84.4383 16.0777 83.8071 16.0329 83.8071 15.3616C83.8071 15.299 83.8071 15.2184 83.816 15.12C83.816 15.12 83.7715 13.9116 84.3583 12.7301C83.3092 14.7172 81.9579 13.7237 81.9579 13.3925C81.9579 12.8017 82.5891 11.5307 82.6069 11.486C81.8157 12.2647 81.2556 13.2135 81.0245 14.3054C80.66 16.0061 81.4512 17.8678 83.3359 17.644H83.3537Z" fill="url(#paint59_linear_1793_31450)"/>
<path d="M44.9311 154.82C46.8158 154.9 47.2692 159.215 46.8869 160.047C46.8869 160.047 49.5984 162.061 51.4031 161.506C51.4031 161.506 53.4567 160.011 54.6213 158.069L59.342 160.557C57.9907 163.019 56.1593 165.722 54.4702 166.921C51.2697 169.186 46.9936 169.427 44.7888 168.496C42.5841 167.557 38.5568 163.448 38.459 160.629C38.3612 157.809 43.0375 154.757 44.9222 154.838L44.9311 154.82Z" fill="url(#paint60_linear_1793_31450)"/>
<path d="M44.051 157.585C44.051 157.585 43.1975 157.835 43.1886 158.211C43.1708 158.587 43.8376 160.494 44.3888 160.798C44.94 161.102 45.989 161.523 46.8958 160.055C46.8958 160.055 49.6073 162.069 51.412 161.514C51.412 161.514 53.4656 160.019 54.6302 158.077L56.7728 159.205C55.9726 160.7 55.0214 162.176 54.328 162.901C52.87 164.441 50.4785 165.041 49.874 164.871C42.8063 162.893 42.0596 158.256 42.0596 158.256C42.6552 157.433 44.0421 157.585 44.0421 157.585H44.051Z" fill="url(#paint61_linear_1793_31450)"/>
<path d="M42.1662 155.804C40.2993 156.914 38.4146 158.812 38.4679 160.62C38.5657 163.439 42.5929 167.557 44.7977 168.488C46.1134 169.051 48.1759 169.186 50.3007 168.72C47.198 168.765 43.3753 166.286 40.1926 160.53C39.5347 159.349 39.9526 157.326 42.1573 155.804H42.1662Z" fill="url(#paint62_linear_1793_31450)"/>
<path style="mix-blend-mode:multiply" opacity="0.5" d="M39.0543 162.634C39.0543 162.634 39.081 162.688 39.0899 162.715C39.0988 162.733 39.1077 162.76 39.1254 162.777C39.1966 162.903 39.2944 163.082 39.4188 163.306C40.7612 165.57 43.2416 167.817 44.7974 168.488C46.1131 169.052 48.1756 169.186 50.3004 168.721C47.1977 168.765 43.3749 166.286 40.1923 160.531C39.2588 160.209 38.5743 161.623 39.0454 162.643L39.0543 162.634Z" fill="url(#paint63_linear_1793_31450)"/>
<path d="M44.0507 157.587C44.0507 157.587 43.1972 157.837 43.1883 158.213C43.1706 158.589 43.8373 160.495 44.3885 160.8C44.1751 158.992 44.0862 158.007 44.913 157.757C44.913 157.757 44.5574 157.595 44.0507 157.595V157.587Z" fill="url(#paint64_linear_1793_31450)"/>
<path style="mix-blend-mode:color-dodge" opacity="0.5" d="M53.439 163.654C52.9056 164.066 51.5898 164.585 51.5898 164.585C53.2256 164.657 58.0619 162.338 56.2927 165.149C56.8973 164.433 57.484 163.6 58.0441 162.732C56.6483 161.864 53.439 163.645 53.439 163.645V163.654Z" fill="url(#paint65_linear_1793_31450)"/>
<path style="mix-blend-mode:multiply" opacity="0.5" d="M51.4117 161.426C50.825 161.605 50.1582 161.515 49.5003 161.318C50.336 163.288 49.8737 164.782 49.8737 164.782C48.5224 166.376 48.069 168.255 48.069 168.255L47.1533 168.9C49.3847 169.025 52.194 168.443 54.4699 166.832C56.159 165.633 57.9904 162.93 59.3417 160.468L54.621 157.98C53.4564 159.931 51.4028 161.417 51.4028 161.417L51.4117 161.426Z" fill="url(#paint66_linear_1793_31450)"/>
<path d="M59.12 161.721C59.0489 161.622 58.9778 161.533 58.9066 161.434C58.9066 161.434 57.4576 163.663 54.8972 163.869C54.8972 163.869 53.8748 163.591 52.7369 163.072C52.0257 162.75 51.27 162.338 50.6922 161.846C49.2075 160.566 50.1854 151.356 51.9101 149.941C52.3813 149.557 55.1106 152.412 58.9867 157.048C59.0844 157.281 59.1645 157.523 59.2267 157.764C59.5378 159.008 59.4401 160.432 59.1111 161.712L59.12 161.721Z" fill="url(#paint67_linear_1793_31450)"/>
<path d="M50.4433 153.655C49.8032 156.868 49.7321 161.022 50.6922 161.845C52.1769 163.125 54.8973 163.859 54.8973 163.859C57.4043 163.653 58.8445 161.514 58.9067 161.424C56.8087 162.284 52.7192 160.914 51.679 160.1C51.0301 159.589 50.2388 157.755 50.4433 153.646V153.655Z" fill="url(#paint68_linear_1793_31450)"/>
<path d="M58.9064 161.433C58.8175 161.281 59.2798 159.992 59.0753 159.419C58.8709 158.847 54.5503 154.514 54.0613 154.505C54.008 154.505 53.9635 154.532 53.9191 154.595C53.5101 155.105 53.2523 157.737 53.2167 158.032C53.1812 158.363 54.7281 159.751 55.1103 159.41C55.4926 159.07 55.2437 156.877 55.2437 156.877C55.2437 156.877 56.0616 159.043 55.8038 159.482C55.5459 159.912 54.8081 160.153 54.4347 160.144C54.0613 160.126 52.7989 158.891 52.4611 158.327C52.2922 158.05 52.4077 156.725 52.6033 155.445V155.401C52.8078 154.13 53.0923 152.903 53.279 152.814C53.6435 152.626 58.9242 158.211 59.2887 158.82C59.6532 159.428 58.9064 161.442 58.9064 161.442V161.433Z" fill="url(#paint69_linear_1793_31450)"/>
<path d="M54.4347 160.137C54.0613 160.119 52.7989 158.884 52.4611 158.32C52.2922 158.042 52.4077 156.718 52.6033 155.438V155.393L53.9191 154.596C53.5101 155.106 53.2523 157.738 53.2167 158.033C53.1812 158.364 54.7281 159.752 55.1103 159.412C55.4926 159.072 55.2437 156.879 55.2437 156.879C55.2437 156.879 56.0616 159.045 55.8038 159.483C55.5459 159.913 54.8081 160.155 54.4347 160.146V160.137Z" fill="url(#paint70_linear_1793_31450)"/>
<path style="mix-blend-mode:multiply" opacity="0.5" d="M59.1201 161.721C59.0489 161.622 58.9778 161.533 58.9067 161.434C58.9067 161.434 57.4576 163.663 54.8972 163.869C54.8972 163.869 53.8749 163.591 52.7369 163.072C49.2787 162.087 49.9988 159.393 49.9988 159.393C54.5861 158.418 58.0888 158.212 58.0888 158.212L58.2666 157.603L59.2356 157.773C59.5468 159.017 59.449 160.432 59.1201 161.721Z" fill="url(#paint71_linear_1793_31450)"/>
<path d="M114.133 154.82C112.248 154.9 111.794 159.215 112.177 160.047C112.177 160.047 109.465 162.061 107.661 161.506C107.661 161.506 105.607 160.011 104.442 158.069L99.7217 160.557C101.073 163.019 102.904 165.722 104.593 166.921C107.794 169.186 112.07 169.427 114.275 168.496C116.48 167.557 120.507 163.448 120.605 160.629C120.702 157.809 116.026 154.757 114.141 154.838L114.133 154.82Z" fill="url(#paint72_linear_1793_31450)"/>
<path d="M115.013 157.585C115.013 157.585 115.866 157.835 115.875 158.211C115.884 158.587 115.226 160.494 114.675 160.798C114.124 161.102 113.075 161.523 112.168 160.055C112.168 160.055 109.456 162.069 107.652 161.514C107.652 161.514 105.598 160.019 104.434 158.077L102.291 159.205C103.091 160.7 104.042 162.177 104.736 162.902C106.194 164.441 108.585 165.041 109.19 164.871C116.257 162.893 117.004 158.256 117.004 158.256C116.409 157.433 115.022 157.585 115.022 157.585H115.013Z" fill="url(#paint73_linear_1793_31450)"/>
<path d="M116.906 155.804C118.773 156.914 120.658 158.812 120.605 160.62C120.507 163.439 116.48 167.557 114.275 168.488C112.959 169.051 110.897 169.186 108.772 168.72C111.875 168.765 115.697 166.286 118.88 160.53C119.538 159.349 119.12 157.326 116.915 155.804H116.906Z" fill="url(#paint74_linear_1793_31450)"/>
<path style="mix-blend-mode:multiply" opacity="0.5" d="M120.018 162.634C120.018 162.634 119.991 162.688 119.982 162.715C119.974 162.733 119.965 162.76 119.947 162.778C119.876 162.903 119.778 163.082 119.654 163.306C118.311 165.57 115.831 167.817 114.275 168.488C112.959 169.052 110.897 169.186 108.772 168.721C111.875 168.766 115.697 166.286 118.88 160.531C119.814 160.209 120.498 161.623 120.027 162.643L120.018 162.634Z" fill="url(#paint75_linear_1793_31450)"/>
<path d="M115.013 157.587C115.013 157.587 115.866 157.837 115.875 158.213C115.884 158.589 115.226 160.496 114.675 160.8C114.888 158.992 114.977 158.007 114.15 157.757C114.15 157.757 114.506 157.595 115.013 157.595V157.587Z" fill="url(#paint76_linear_1793_31450)"/>
<path style="mix-blend-mode:color-dodge" opacity="0.5" d="M105.625 163.654C106.158 164.066 107.474 164.585 107.474 164.585C105.838 164.657 101.002 162.338 102.771 165.149C102.166 164.433 101.58 163.6 101.02 162.732C102.415 161.864 105.625 163.645 105.625 163.645V163.654Z" fill="url(#paint77_linear_1793_31450)"/>
<path style="mix-blend-mode:multiply" opacity="0.5" d="M107.66 161.426C108.247 161.605 108.914 161.515 109.572 161.318C108.736 163.288 109.198 164.782 109.198 164.782C110.55 166.376 111.003 168.255 111.003 168.255L111.919 168.9C109.687 169.025 106.878 168.443 104.602 166.832C102.913 165.633 101.082 162.93 99.7305 160.468L104.451 157.98C105.616 159.931 107.669 161.417 107.669 161.417L107.66 161.426Z" fill="url(#paint78_linear_1793_31450)"/>
<path d="M99.9522 161.721C100.023 161.622 100.094 161.533 100.166 161.434C100.166 161.434 101.615 163.663 104.175 163.869C104.175 163.869 105.197 163.591 106.335 163.072C107.047 162.75 107.802 162.338 108.38 161.846C109.865 160.566 108.887 151.356 107.162 149.941C106.691 149.557 103.962 152.412 100.086 157.048C99.9878 157.281 99.9078 157.523 99.8456 157.764C99.5344 159.008 99.6322 160.432 99.9611 161.712L99.9522 161.721Z" fill="url(#paint79_linear_1793_31450)"/>
<path d="M108.629 153.655C109.27 156.868 109.341 161.022 108.381 161.845C106.896 163.125 104.175 163.859 104.175 163.859C101.668 163.653 100.228 161.514 100.166 161.424C102.264 162.284 106.354 160.914 107.394 160.1C108.043 159.589 108.834 157.755 108.629 153.646V153.655Z" fill="url(#paint80_linear_1793_31450)"/>
<path d="M100.166 161.433C100.255 161.281 99.7922 159.992 99.9967 159.419C100.201 158.847 104.522 154.514 105.011 154.505C105.064 154.505 105.109 154.532 105.153 154.595C105.562 155.105 105.82 157.737 105.855 158.032C105.891 158.363 104.344 159.751 103.962 159.41C103.579 159.07 103.828 156.877 103.828 156.877C103.828 156.877 103.01 159.043 103.268 159.482C103.526 159.912 104.264 160.153 104.637 160.144C105.011 160.126 106.273 158.891 106.611 158.327C106.78 158.05 106.664 156.725 106.469 155.445V155.401C106.264 154.13 105.98 152.903 105.793 152.814C105.429 152.626 100.148 158.211 99.7833 158.82C99.4189 159.428 100.166 161.442 100.166 161.442V161.433Z" fill="url(#paint81_linear_1793_31450)"/>
<path d="M104.638 160.137C105.011 160.119 106.273 158.884 106.611 158.32C106.78 158.042 106.665 156.718 106.469 155.438V155.393L105.153 154.596C105.562 155.106 105.82 157.738 105.856 158.033C105.891 158.364 104.344 159.752 103.962 159.412C103.58 159.072 103.829 156.879 103.829 156.879C103.829 156.879 103.011 159.045 103.269 159.483C103.526 159.913 104.264 160.155 104.638 160.146V160.137Z" fill="url(#paint82_linear_1793_31450)"/>
<path style="mix-blend-mode:multiply" opacity="0.5" d="M99.9523 161.721C100.023 161.622 100.095 161.533 100.166 161.434C100.166 161.434 101.615 163.663 104.175 163.869C104.175 163.869 105.198 163.591 106.335 163.072C109.794 162.087 109.074 159.393 109.074 159.393C104.486 158.418 100.984 158.212 100.984 158.212L100.806 157.603L99.8368 157.773C99.5256 159.017 99.6234 160.432 99.9523 161.721Z" fill="url(#paint83_linear_1793_31450)"/>
</g>
<defs>
<filter id="filter0_i_1793_31450" x="10" y="1.99962" width="139.416" height="150.291" filterUnits="userSpaceOnUse" color-interpolation-filters="sRGB">
<feFlood flood-opacity="0" result="BackgroundImageFix"/>
<feBlend mode="normal" in="SourceGraphic" in2="BackgroundImageFix" result="shape"/>
<feColorMatrix in="SourceAlpha" type="matrix" values="0 0 0 0 0 0 0 0 0 0 0 0 0 0 0 0 0 0 127 0" result="hardAlpha"/>
<feOffset dx="3.4163" dy="-16"/>
<feGaussianBlur stdDeviation="6.36286"/>
<feComposite in2="hardAlpha" operator="arithmetic" k2="-1" k3="1"/>
<feColorMatrix type="matrix" values="0 0 0 0 1 0 0 0 0 0.968627 0 0 0 0 0.768627 0 0 0 1 0"/>
<feBlend mode="normal" in2="shape" result="effect1_innerShadow_1793_31450"/>
</filter>
<linearGradient id="paint0_linear_1793_31450" x1="78.4467" y1="160.9" x2="78.4467" y2="7.76315" gradientUnits="userSpaceOnUse">
<stop stop-color="#D16509"/>
<stop offset="1" stop-color="#8D2C1B"/>
</linearGradient>
<linearGradient id="paint1_linear_1793_31450" x1="78.5" y1="163.88" x2="78.5" y2="5.81992" gradientUnits="userSpaceOnUse">
<stop stop-color="#CA6B34"/>
<stop offset="0.74" stop-color="#FFBD2B"/>
<stop offset="1" stop-color="#FFA933"/>
</linearGradient>
<linearGradient id="paint2_linear_1793_31450" x1="78.5" y1="106.418" x2="78.5" y2="163.881" gradientUnits="userSpaceOnUse">
<stop stop-color="#F08D1D"/>
<stop offset="1" stop-color="#8D2C1B"/>
</linearGradient>
<linearGradient id="paint3_linear_1793_31450" x1="78.4998" y1="8.1293" x2="78.4998" y2="161.57" gradientUnits="userSpaceOnUse">
<stop stop-color="#CA6B34"/>
<stop offset="0.17" stop-color="#CB6D33"/>
<stop offset="0.29" stop-color="#D17632"/>
<stop offset="0.39" stop-color="#DB8531"/>
<stop offset="0.48" stop-color="#E99B2E"/>
<stop offset="0.57" stop-color="#FBB62B"/>
<stop offset="0.59" stop-color="#FFBD2B"/>
<stop offset="1" stop-color="#FFA933"/>
</linearGradient>
<linearGradient id="paint4_linear_1793_31450" x1="78.5" y1="63.2922" x2="78.5" y2="5.82004" gradientUnits="userSpaceOnUse">
<stop stop-color="#EBBD38"/>
<stop offset="1" stop-color="#FFF29E"/>
</linearGradient>
<linearGradient id="paint5_linear_1793_31450" x1="78.5" y1="104.715" x2="78.5" y2="-38.8353" gradientUnits="userSpaceOnUse">
<stop stop-color="#CA6B34"/>
<stop offset="0.74" stop-color="#FFBD2B"/>
<stop offset="1" stop-color="#FFA933"/>
</linearGradient>
<linearGradient id="paint6_linear_1793_31450" x1="78.4999" y1="113.541" x2="78.4999" y2="157.677" gradientUnits="userSpaceOnUse">
<stop stop-color="#F08D1D"/>
<stop offset="1" stop-color="#8D2C1B"/>
</linearGradient>
<linearGradient id="paint7_linear_1793_31450" x1="78.4998" y1="52.2554" x2="78.4998" y2="13.0784" gradientUnits="userSpaceOnUse">
<stop stop-color="#EBBD38"/>
<stop offset="1" stop-color="#FFF29E"/>
</linearGradient>
<linearGradient id="paint8_linear_1793_31450" x1="78.5" y1="15.3706" x2="78.5" y2="154.339" gradientUnits="userSpaceOnUse">
<stop stop-color="#CA6B34"/>
<stop offset="0.17" stop-color="#CB6D33"/>
<stop offset="0.29" stop-color="#D17632"/>
<stop offset="0.39" stop-color="#DB8531"/>
<stop offset="0.48" stop-color="#E99B2E"/>
<stop offset="0.57" stop-color="#FBB62B"/>
<stop offset="0.59" stop-color="#FFBD2B"/>
<stop offset="1" stop-color="#FFA933"/>
</linearGradient>
<linearGradient id="paint9_linear_1793_31450" x1="78.5621" y1="34.829" x2="78.5621" y2="18.7716" gradientUnits="userSpaceOnUse">
<stop stop-color="#F08D1D"/>
<stop offset="1" stop-color="#8D2C1B"/>
</linearGradient>
<linearGradient id="paint10_linear_1793_31450" x1="78.5" y1="23.0578" x2="78.5" y2="15.7272" gradientUnits="userSpaceOnUse">
<stop stop-color="#CA6B34"/>
<stop offset="0.74" stop-color="#FFBD2B"/>
<stop offset="1" stop-color="#FFA933"/>
</linearGradient>
<linearGradient id="paint11_linear_1793_31450" x1="76.455" y1="20.9546" x2="76.455" y2="18.4395" gradientUnits="userSpaceOnUse">
<stop stop-color="#B75014"/>
<stop offset="0.39" stop-color="#CA6B34"/>
<stop offset="1" stop-color="#FFA933"/>
</linearGradient>
<linearGradient id="paint12_linear_1793_31450" x1="80.5354" y1="0.332304" x2="80.5354" y2="0.332304" gradientUnits="userSpaceOnUse">
<stop stop-color="#B75014"/>
<stop offset="0.39" stop-color="#CA6B34"/>
<stop offset="1" stop-color="#FFA933"/>
</linearGradient>
<linearGradient id="paint13_linear_1793_31450" x1="76.4907" y1="15.6287" x2="80.6069" y2="15.6287" gradientUnits="userSpaceOnUse">
<stop stop-color="#F08D1D"/>
<stop offset="1" stop-color="#8D2C1B"/>
</linearGradient>
<linearGradient id="paint14_linear_1793_31450" x1="79.1223" y1="20.937" x2="78.3022" y2="4.62946" gradientUnits="userSpaceOnUse">
<stop stop-color="#CA6B34"/>
<stop offset="0.74" stop-color="#FFBD2B"/>
<stop offset="1" stop-color="#FFA933"/>
</linearGradient>
<linearGradient id="paint15_linear_1793_31450" x1="71.6989" y1="10.7325" x2="76.6329" y2="10.7325" gradientUnits="userSpaceOnUse">
<stop stop-color="#D16509"/>
<stop offset="1" stop-color="#8D2C1B"/>
</linearGradient>
<linearGradient id="paint16_linear_1793_31450" x1="74.3748" y1="13.5968" x2="74.3748" y2="10.4014" gradientUnits="userSpaceOnUse">
<stop stop-color="#B53E1C"/>
<stop offset="1" stop-color="#440000"/>
</linearGradient>
<linearGradient id="paint17_linear_1793_31450" x1="80.1356" y1="10.7327" x2="85.2919" y2="10.7327" gradientUnits="userSpaceOnUse">
<stop stop-color="#D16509"/>
<stop offset="1" stop-color="#8D2C1B"/>
</linearGradient>
<linearGradient id="paint18_linear_1793_31450" x1="82.3938" y1="13.5969" x2="82.3938" y2="10.4015" gradientUnits="userSpaceOnUse">
<stop stop-color="#B53E1C"/>
<stop offset="1" stop-color="#440000"/>
</linearGradient>
<linearGradient id="paint19_linear_1793_31450" x1="78.6153" y1="13.4365" x2="78.3269" y2="5.23785" gradientUnits="userSpaceOnUse">
<stop stop-color="#D33A22"/>
<stop offset="1" stop-color="white"/>
</linearGradient>
<linearGradient id="paint20_linear_1793_31450" x1="78.5799" y1="8.46067" x2="78.4357" y2="3.52891" gradientUnits="userSpaceOnUse">
<stop stop-color="#B75014"/>
<stop offset="0.39" stop-color="#CA6B34"/>
<stop offset="1" stop-color="#FFA933"/>
</linearGradient>
<linearGradient id="paint21_linear_1793_31450" x1="78.091" y1="8.80899" x2="78.7487" y2="3.86939" gradientUnits="userSpaceOnUse">
<stop stop-color="#D33A22"/>
<stop offset="1" stop-color="white"/>
</linearGradient>
<linearGradient id="paint22_linear_1793_31450" x1="78.42" y1="2.65901" x2="79.549" y2="2.65901" gradientUnits="userSpaceOnUse">
<stop stop-color="white"/>
<stop offset="1" stop-color="#FFF7C4"/>
</linearGradient>
<linearGradient id="paint23_linear_1793_31450" x1="81.6382" y1="7.13514" x2="83.0161" y2="7.13514" gradientUnits="userSpaceOnUse">
<stop stop-color="white"/>
<stop offset="1" stop-color="#FFF7C4"/>
</linearGradient>
<linearGradient id="paint24_linear_1793_31450" x1="75.3351" y1="19.4871" x2="81.656" y2="19.4871" gradientUnits="userSpaceOnUse">
<stop stop-color="#F08D1D"/>
<stop offset="1" stop-color="#8D2C1B"/>
</linearGradient>
<radialGradient id="paint25_radial_1793_31450" cx="0" cy="0" r="1" gradientUnits="userSpaceOnUse" gradientTransform="translate(78.7754 12.0139) scale(2.55148 2.56884)">
<stop stop-color="#FFA933"/>
<stop offset="0.26" stop-color="#FFBD2B"/>
<stop offset="1" stop-color="#CA6B34"/>
</radialGradient>
<linearGradient id="paint26_linear_1793_31450" x1="78.5798" y1="15.6297" x2="78.5798" y2="9.96391" gradientUnits="userSpaceOnUse">
<stop stop-color="#D33A22"/>
<stop offset="1" stop-color="white"/>
</linearGradient>
<linearGradient id="paint27_linear_1793_31450" x1="78.2062" y1="12.3186" x2="79.922" y2="12.3186" gradientUnits="userSpaceOnUse">
<stop stop-color="white"/>
<stop offset="1" stop-color="#FFF7C4"/>
</linearGradient>
<linearGradient id="paint28_linear_1793_31450" x1="74.1437" y1="19.7477" x2="74.1437" y2="14.3594" gradientUnits="userSpaceOnUse">
<stop stop-color="#CA6B34"/>
<stop offset="0.74" stop-color="#FFBD2B"/>
<stop offset="1" stop-color="#FFA933"/>
</linearGradient>
<linearGradient id="paint29_linear_1793_31450" x1="58.0795" y1="16.0426" x2="59.1785" y2="9.5827" gradientUnits="userSpaceOnUse">
<stop stop-color="#CA6B34"/>
<stop offset="0.74" stop-color="#FFBD2B"/>
<stop offset="1" stop-color="#FFA933"/>
</linearGradient>
<linearGradient id="paint30_linear_1793_31450" x1="48.4512" y1="7.36127" x2="54.0395" y2="13.4189" gradientUnits="userSpaceOnUse">
<stop stop-color="#CA6B34"/>
<stop offset="0.74" stop-color="#FFBD2B"/>
<stop offset="1" stop-color="#FFA933"/>
</linearGradient>
<linearGradient id="paint31_linear_1793_31450" x1="42.8148" y1="11.5315" x2="60.9305" y2="2.2958" gradientUnits="userSpaceOnUse">
<stop stop-color="#CE5719"/>
<stop offset="0.74" stop-color="#FFBD2B"/>
<stop offset="1" stop-color="#FFA933"/>
</linearGradient>
<linearGradient id="paint32_linear_1793_31450" x1="42.2459" y1="7.66435" x2="48.7874" y2="5.71073" gradientUnits="userSpaceOnUse">
<stop stop-color="#D33A22"/>
<stop offset="1" stop-color="white"/>
</linearGradient>
<linearGradient id="paint33_linear_1793_31450" x1="48.9579" y1="11.174" x2="48.2194" y2="8.06142" gradientUnits="userSpaceOnUse">
<stop stop-color="#B53E1C"/>
<stop offset="1" stop-color="#440000"/>
</linearGradient>
<linearGradient id="paint34_linear_1793_31450" x1="48.0153" y1="7.68228" x2="50.7624" y2="7.68228" gradientUnits="userSpaceOnUse">
<stop stop-color="#D16509"/>
<stop offset="1" stop-color="#8D2C1B"/>
</linearGradient>
<linearGradient id="paint35_linear_1793_31450" x1="60.0083" y1="26.407" x2="56.0631" y2="5.80349" gradientUnits="userSpaceOnUse">
<stop stop-color="#D16509"/>
<stop offset="1" stop-color="#8D2C1B"/>
</linearGradient>
<linearGradient id="paint36_linear_1793_31450" x1="54.3187" y1="1.50733" x2="51.1035" y2="16.446" gradientUnits="userSpaceOnUse">
<stop stop-color="#B75014"/>
<stop offset="0.39" stop-color="#CA6B34"/>
<stop offset="1" stop-color="#FFA933"/>
</linearGradient>
<linearGradient id="paint37_linear_1793_31450" x1="50.8427" y1="2.04359" x2="55.0122" y2="2.04359" gradientUnits="userSpaceOnUse">
<stop stop-color="#EBBD38"/>
<stop offset="1" stop-color="#FFF29E"/>
</linearGradient>
<linearGradient id="paint38_linear_1793_31450" x1="49.3047" y1="0.629376" x2="52.2118" y2="0.629376" gradientUnits="userSpaceOnUse">
<stop stop-color="white"/>
<stop offset="1" stop-color="#FFF7C4"/>
</linearGradient>
<linearGradient id="paint39_linear_1793_31450" x1="53.3852" y1="6.36703" x2="54.8876" y2="6.36703" gradientUnits="userSpaceOnUse">
<stop stop-color="white"/>
<stop offset="1" stop-color="#FFF7C4"/>
</linearGradient>
<linearGradient id="paint40_linear_1793_31450" x1="57.9277" y1="11.8265" x2="63.8486" y2="11.8265" gradientUnits="userSpaceOnUse">
<stop stop-color="#EBBD38"/>
<stop offset="1" stop-color="#FFF29E"/>
</linearGradient>
<linearGradient id="paint41_linear_1793_31450" x1="62.9863" y1="16.4546" x2="62.9863" y2="12.1225" gradientUnits="userSpaceOnUse">
<stop stop-color="#E39330"/>
<stop offset="1" stop-color="#FFCD61"/>
</linearGradient>
<linearGradient id="paint42_linear_1793_31450" x1="64.6135" y1="10.6816" x2="65.9648" y2="10.6816" gradientUnits="userSpaceOnUse">
<stop stop-color="white"/>
<stop offset="1" stop-color="#FFF7C4"/>
</linearGradient>
<linearGradient id="paint43_linear_1793_31450" x1="74.2945" y1="16.9369" x2="74.2945" y2="11.4054" gradientUnits="userSpaceOnUse">
<stop stop-color="#D33A22"/>
<stop offset="1" stop-color="white"/>
</linearGradient>
<linearGradient id="paint44_linear_1793_31450" x1="82.8472" y1="19.7477" x2="82.8472" y2="14.3594" gradientUnits="userSpaceOnUse">
<stop stop-color="#CA6B34"/>
<stop offset="0.74" stop-color="#FFBD2B"/>
<stop offset="1" stop-color="#FFA933"/>
</linearGradient>
<linearGradient id="paint45_linear_1793_31450" x1="80.9536" y1="10.1352" x2="115.474" y2="10.1352" gradientUnits="userSpaceOnUse">
<stop stop-color="#CA6B34"/>
<stop offset="0.74" stop-color="#FFBD2B"/>
<stop offset="1" stop-color="#FFA933"/>
</linearGradient>
<linearGradient id="paint46_linear_1793_31450" x1="99.5608" y1="9.15137" x2="115.474" y2="9.15137" gradientUnits="userSpaceOnUse">
<stop stop-color="#CA6B34"/>
<stop offset="0.74" stop-color="#FFBD2B"/>
<stop offset="1" stop-color="#FFA933"/>
</linearGradient>
<linearGradient id="paint47_linear_1793_31450" x1="114.594" y1="15.5235" x2="102.897" y2="1.15471" gradientUnits="userSpaceOnUse">
<stop stop-color="#CE5719"/>
<stop offset="0.74" stop-color="#FFBD2B"/>
<stop offset="1" stop-color="#FFA933"/>
</linearGradient>
<linearGradient id="paint48_linear_1793_31450" x1="114.38" y1="10.7702" x2="109.734" y2="6.00418" gradientUnits="userSpaceOnUse">
<stop stop-color="#D33A22"/>
<stop offset="1" stop-color="white"/>
</linearGradient>
<linearGradient id="paint49_linear_1793_31450" x1="108.398" y1="10.6101" x2="108.686" y2="8.50724" gradientUnits="userSpaceOnUse">
<stop stop-color="#B53E1C"/>
<stop offset="1" stop-color="#440000"/>
</linearGradient>
<linearGradient id="paint50_linear_1793_31450" x1="109.171" y1="7.80759" x2="105.996" y2="7.33062" gradientUnits="userSpaceOnUse">
<stop stop-color="#D16509"/>
<stop offset="1" stop-color="#8D2C1B"/>
</linearGradient>
<linearGradient id="paint51_linear_1793_31450" x1="97.2938" y1="25.3777" x2="100.951" y2="5.35485" gradientUnits="userSpaceOnUse">
<stop stop-color="#D16509"/>
<stop offset="1" stop-color="#8D2C1B"/>
</linearGradient>
<linearGradient id="paint52_linear_1793_31450" x1="99.5609" y1="6.86877" x2="108.638" y2="6.86877" gradientUnits="userSpaceOnUse">
<stop stop-color="#B75014"/>
<stop offset="0.39" stop-color="#CA6B34"/>
<stop offset="1" stop-color="#FFA933"/>
</linearGradient>
<linearGradient id="paint53_linear_1793_31450" x1="101.988" y1="2.04359" x2="106.148" y2="2.04359" gradientUnits="userSpaceOnUse">
<stop stop-color="#EBBD38"/>
<stop offset="1" stop-color="#FFF29E"/>
</linearGradient>
<linearGradient id="paint54_linear_1793_31450" x1="104.788" y1="0.629376" x2="107.695" y2="0.629376" gradientUnits="userSpaceOnUse">
<stop stop-color="white"/>
<stop offset="1" stop-color="#FFF7C4"/>
</linearGradient>
<linearGradient id="paint55_linear_1793_31450" x1="102.112" y1="6.36702" x2="103.615" y2="6.36702" gradientUnits="userSpaceOnUse">
<stop stop-color="white"/>
<stop offset="1" stop-color="#FFF7C4"/>
</linearGradient>
<linearGradient id="paint56_linear_1793_31450" x1="93.1419" y1="11.8265" x2="99.0627" y2="11.8265" gradientUnits="userSpaceOnUse">
<stop stop-color="#EBBD38"/>
<stop offset="1" stop-color="#FFF29E"/>
</linearGradient>
<linearGradient id="paint57_linear_1793_31450" x1="94.0044" y1="0.334441" x2="94.0044" y2="0.334441" gradientUnits="userSpaceOnUse">
<stop stop-color="#E39330"/>
<stop offset="1" stop-color="#FFCD61"/>
</linearGradient>
<linearGradient id="paint58_linear_1793_31450" x1="91.0259" y1="10.6816" x2="92.3861" y2="10.6816" gradientUnits="userSpaceOnUse">
<stop stop-color="white"/>
<stop offset="1" stop-color="#FFF7C4"/>
</linearGradient>
<linearGradient id="paint59_linear_1793_31450" x1="82.7047" y1="16.9369" x2="82.7047" y2="11.4054" gradientUnits="userSpaceOnUse">
<stop stop-color="#D33A22"/>
<stop offset="1" stop-color="white"/>
</linearGradient>
<linearGradient id="paint60_linear_1793_31450" x1="50.5351" y1="161.92" x2="41.7161" y2="161.95" gradientUnits="userSpaceOnUse">
<stop stop-color="#CA6B34"/>
<stop offset="0.74" stop-color="#FFBD2B"/>
<stop offset="1" stop-color="#FFA933"/>
</linearGradient>
<linearGradient id="paint61_linear_1793_31450" x1="31.6336" y1="156.938" x2="60.8883" y2="163.446" gradientUnits="userSpaceOnUse">
<stop stop-color="#D16509"/>
<stop offset="1" stop-color="#8D2C1B"/>
</linearGradient>
<linearGradient id="paint62_linear_1793_31450" x1="44.5207" y1="155.985" x2="43.9856" y2="168.934" gradientUnits="userSpaceOnUse">
<stop stop-color="#D16509"/>
<stop offset="1" stop-color="#8D2C1B"/>
</linearGradient>
<linearGradient id="paint63_linear_1793_31450" x1="44.5662" y1="160.753" x2="44.2278" y2="168.945" gradientUnits="userSpaceOnUse">
<stop stop-color="#D33A22"/>
<stop offset="1" stop-color="white"/>
</linearGradient>
<linearGradient id="paint64_linear_1793_31450" x1="42.4313" y1="159.653" x2="45.0221" y2="159.015" gradientUnits="userSpaceOnUse">
<stop stop-color="#B53E1C"/>
<stop offset="1" stop-color="#440000"/>
</linearGradient>
<linearGradient id="paint65_linear_1793_31450" x1="54.6574" y1="162.477" x2="54.5466" y2="165.16" gradientUnits="userSpaceOnUse">
<stop stop-color="#EBBD38"/>
<stop offset="1" stop-color="#FFF29E"/>
</linearGradient>
<linearGradient id="paint66_linear_1793_31450" x1="45.2242" y1="163.483" x2="53.0119" y2="163.456" gradientUnits="userSpaceOnUse">
<stop stop-color="#F08D1D"/>
<stop offset="1" stop-color="#8D2C1B"/>
</linearGradient>
<linearGradient id="paint67_linear_1793_31450" x1="52.3208" y1="161.538" x2="57.0636" y2="153.204" gradientUnits="userSpaceOnUse">
<stop stop-color="#CA6B34"/>
<stop offset="0.74" stop-color="#FFBD2B"/>
<stop offset="1" stop-color="#FFA933"/>
</linearGradient>
<linearGradient id="paint68_linear_1793_31450" x1="50.0913" y1="153.869" x2="56.0898" y2="163.742" gradientUnits="userSpaceOnUse">
<stop stop-color="#D16509"/>
<stop offset="1" stop-color="#8D2C1B"/>
</linearGradient>
<linearGradient id="paint69_linear_1793_31450" x1="57.0304" y1="156.542" x2="52.2865" y2="159.385" gradientUnits="userSpaceOnUse">
<stop stop-color="#D16509"/>
<stop offset="1" stop-color="#8D2C1B"/>
</linearGradient>
<linearGradient id="paint70_linear_1793_31450" x1="52.5588" y1="155.423" x2="55.2866" y2="159.913" gradientUnits="userSpaceOnUse">
<stop stop-color="#D16509"/>
<stop offset="1" stop-color="#8D2C1B"/>
</linearGradient>
<linearGradient id="paint71_linear_1793_31450" x1="51.0481" y1="157.657" x2="58.9757" y2="162.108" gradientUnits="userSpaceOnUse">
<stop stop-color="#F08D1D"/>
<stop offset="1" stop-color="#8D2C1B"/>
</linearGradient>
<linearGradient id="paint72_linear_1793_31450" x1="108.518" y1="161.892" x2="117.337" y2="161.922" gradientUnits="userSpaceOnUse">
<stop stop-color="#CA6B34"/>
<stop offset="0.74" stop-color="#FFBD2B"/>
<stop offset="1" stop-color="#FFA933"/>
</linearGradient>
<linearGradient id="paint73_linear_1793_31450" x1="127.323" y1="156.922" x2="98.0688" y2="163.43" gradientUnits="userSpaceOnUse">
<stop stop-color="#D16509"/>
<stop offset="1" stop-color="#8D2C1B"/>
</linearGradient>
<linearGradient id="paint74_linear_1793_31450" x1="114.436" y1="155.969" x2="114.972" y2="168.927" gradientUnits="userSpaceOnUse">
<stop stop-color="#D16509"/>
<stop offset="1" stop-color="#8D2C1B"/>
</linearGradient>
<linearGradient id="paint75_linear_1793_31450" x1="114.391" y1="160.737" x2="114.729" y2="168.937" gradientUnits="userSpaceOnUse">
<stop stop-color="#D33A22"/>
<stop offset="1" stop-color="white"/>
</linearGradient>
<linearGradient id="paint76_linear_1793_31450" x1="116.525" y1="159.637" x2="113.935" y2="158.999" gradientUnits="userSpaceOnUse">
<stop stop-color="#B53E1C"/>
<stop offset="1" stop-color="#440000"/>
</linearGradient>
<linearGradient id="paint77_linear_1793_31450" x1="104.308" y1="162.461" x2="104.419" y2="165.144" gradientUnits="userSpaceOnUse">
<stop stop-color="#EBBD38"/>
<stop offset="1" stop-color="#FFF29E"/>
</linearGradient>
<linearGradient id="paint78_linear_1793_31450" x1="113.829" y1="163.464" x2="106.041" y2="163.437" gradientUnits="userSpaceOnUse">
<stop stop-color="#F08D1D"/>
<stop offset="1" stop-color="#8D2C1B"/>
</linearGradient>
<linearGradient id="paint79_linear_1793_31450" x1="106.598" y1="161.398" x2="101.855" y2="153.065" gradientUnits="userSpaceOnUse">
<stop stop-color="#CA6B34"/>
<stop offset="0.74" stop-color="#FFBD2B"/>
<stop offset="1" stop-color="#FFA933"/>
</linearGradient>
<linearGradient id="paint80_linear_1793_31450" x1="108.902" y1="153.863" x2="102.903" y2="163.735" gradientUnits="userSpaceOnUse">
<stop stop-color="#D16509"/>
<stop offset="1" stop-color="#8D2C1B"/>
</linearGradient>
<linearGradient id="paint81_linear_1793_31450" x1="101.954" y1="156.531" x2="106.706" y2="159.379" gradientUnits="userSpaceOnUse">
<stop stop-color="#D16509"/>
<stop offset="1" stop-color="#8D2C1B"/>
</linearGradient>
<linearGradient id="paint82_linear_1793_31450" x1="106.434" y1="155.417" x2="103.706" y2="159.907" gradientUnits="userSpaceOnUse">
<stop stop-color="#D16509"/>
<stop offset="1" stop-color="#8D2C1B"/>
</linearGradient>
<linearGradient id="paint83_linear_1793_31450" x1="107.883" y1="157.521" x2="99.9554" y2="161.972" gradientUnits="userSpaceOnUse">
<stop stop-color="#F08D1D"/>
<stop offset="1" stop-color="#8D2C1B"/>
</linearGradient>
<clipPath id="clip0_1793_31450">
<rect width="157" height="168.666" fill="white" transform="translate(0 0.332458)"/>
</clipPath>
</defs>
</svg>
