<svg width="112" height="100" viewBox="0 0 112 100" fill="none" xmlns="http://www.w3.org/2000/svg">
<g clip-path="url(#clip0_1685_11459)">
<g filter="url(#filter0_i_1685_11459)">
<ellipse cx="56" cy="50" rx="38.1656" ry="38.4892" fill="url(#paint0_radial_1685_11459)"/>
</g>
<path d="M107.513 41.2425C105.713 39.7464 103.342 38.7763 100.591 38.6535C100.591 38.6535 100.591 38.6535 100.585 38.6535C95.579 18.4092 77.5198 3.41888 56 3.39551C34.4802 3.41304 16.4211 18.4092 11.4146 38.6477C11.4146 38.6477 11.4146 38.6477 11.4088 38.6477C8.65755 38.7704 6.28697 39.7405 4.4874 41.2367C-1.34389 46.0873 -1.06126 53.0536 2.88394 57.6939C4.96037 60.1368 8.05193 61.1654 11.2704 60.9258C11.2819 60.9199 11.2935 60.9082 11.305 60.9024C16.1442 81.3746 34.3187 96.5987 56.0058 96.6162C77.6929 96.5987 95.8616 81.3746 100.707 60.9024C100.718 60.9082 100.73 60.9199 100.741 60.9258C103.954 61.1712 107.045 60.1368 109.128 57.6939C113.073 53.0536 113.355 46.0873 107.524 41.2367L107.513 41.2425ZM99.9395 54.129C99.1147 53.1471 99.2185 50.7744 100.407 50.7335C101.255 51.8965 104.202 51.4523 103.412 48.7231C102.904 46.964 100.297 46.0406 97.5804 47.3263C92.8681 49.5646 92.3144 56.379 96.0692 59.342C91.8875 77.8622 75.5415 91.6837 56 91.7013C36.4586 91.6837 20.1125 77.8622 15.9308 59.342C19.6857 56.379 19.132 49.5646 14.4196 47.3263C11.703 46.0347 9.09591 46.964 8.58834 48.7231C7.79815 51.4523 10.7455 51.8965 11.5934 50.7335C12.7758 50.7685 12.8796 53.1471 12.0606 54.129C9.39584 57.3024 4.55662 53.7199 6.1197 47.9692C7.22713 43.9133 10.3879 42.8847 13.2199 43.1711C13.2545 42.9665 13.2949 42.762 13.3295 42.5633L15.3713 43.6152C18.4052 23.6398 35.4377 8.3397 56 8.31632C76.5624 8.33385 93.5948 23.6398 96.6287 43.6152L98.6705 42.5633C98.7051 42.762 98.7397 42.9607 98.7801 43.1711C101.618 42.8789 104.773 43.9075 105.88 47.9692C107.449 53.714 102.61 57.3024 99.9395 54.129Z" fill="url(#paint1_linear_1685_11459)"/>
<path style="mix-blend-mode:multiply" opacity="0.6" d="M56 96.6221C66.5033 96.6104 76.1875 93.0338 83.9279 87.0201L78.3966 84.9629C71.9539 89.2175 64.2653 91.6954 56 91.7013C46.9906 91.6954 38.6561 88.75 31.8847 83.759L26.1687 85.448C34.1976 92.4026 44.6143 96.6046 56.0058 96.6163L56 96.6221Z" fill="url(#paint2_radial_1685_11459)"/>
<path style="mix-blend-mode:multiply" opacity="0.6" d="M2.88395 57.6997C0.403778 54.7835 -0.628666 50.9438 0.39801 47.2912C1.62079 50.3652 3.80681 52.0192 6.21777 52.7555C7.3771 55.3679 10.2437 56.2854 12.0548 54.1289C12.3086 53.825 12.4759 53.3925 12.5451 52.9367C14.6907 52.4867 17.4708 50.2484 17.4708 50.2484C19.3396 53.8133 18.2437 57.6179 15.925 59.3536L11.2646 60.9374C8.05194 61.1828 4.96038 60.1484 2.87818 57.7056L2.88395 57.6997Z" fill="url(#paint3_linear_1685_11459)"/>
<path d="M13.5025 41.6048L15.3713 43.6152C13.2084 42.8146 7.60779 42.3646 6.05047 48.0802C4.48162 53.825 9.43619 57.3023 12.1009 54.1289C12.9257 53.1471 12.8219 50.7744 11.6337 50.7335C11.7318 50.4822 11.8183 50.2133 11.801 49.7984C15.0368 50.2484 14.4311 55.5608 10.6994 56.4257C8.24225 56.9984 6.3504 55.7419 4.92574 54.0939C1.39582 50.0146 4.78731 40.3542 13.491 41.6107L13.5025 41.6048Z" fill="url(#paint4_linear_1685_11459)"/>
<path d="M17.1074 49.6406C19.3454 52.6912 18.4052 57.7815 15.925 59.3419C15.925 59.3419 14.8291 59.7802 13.8428 60.0491C15.9885 58.8452 19.3165 53.6029 17.1074 49.6406Z" fill="url(#paint5_linear_1685_11459)"/>
<path style="mix-blend-mode:multiply" opacity="0.6" d="M11.8818 54.316C11.9394 54.2517 11.9971 54.1874 12.0548 54.1232C12.8796 53.1413 12.7758 50.7686 11.5876 50.7277C11.6856 50.4764 11.7722 50.2075 11.7549 49.7926C14.0274 50.1082 14.4023 52.8141 13.1391 54.7017L11.8818 54.316Z" fill="url(#paint6_linear_1685_11459)"/>
<path style="mix-blend-mode:multiply" opacity="0.6" d="M7.31939 45.386L6.01009 43.9308C8.08075 41.7918 11.3454 41.2366 13.5083 41.6048L15.3771 43.6152C14.0735 43.0542 9.64384 42.5048 7.32516 45.386H7.31939Z" fill="url(#paint7_linear_1685_11459)"/>
<g style="mix-blend-mode:screen" opacity="0.5">
<path d="M1.48233 44.7256C2.20331 43.4925 3.18961 42.312 4.48161 41.2366C5.14491 40.6873 5.8832 40.2139 6.69069 39.8223C3.98558 42.3061 3.81831 44.6555 7.65392 42.6275C5.19682 44.0009 4.44123 46.1399 4.01441 47.2854C4.56236 42.5749 3.79524 41.3243 1.48233 44.7256Z" fill="#F9A346"/>
</g>
<g style="mix-blend-mode:screen" opacity="0.5">
<path d="M10.0418 49.062C10.7167 48.349 11.8183 49.062 11.7606 49.7925C11.7837 50.149 11.7145 50.4705 11.6164 50.7334C11.6107 50.7334 11.5991 50.7334 11.5934 50.7334C10.7455 51.8964 7.79813 51.4523 8.58832 48.723C9.09589 46.9639 11.8991 45.9237 14.4196 47.3263C14.6273 47.4432 14.8234 47.5659 15.0137 47.6945C13.0757 46.7302 10.1514 47.0107 10.0418 49.062Z" fill="#F9A346"/>
</g>
<path d="M9.50541 47.8406C9.56309 47.9399 9.84571 47.8815 10.1399 47.712C10.434 47.5425 10.6244 47.3204 10.5667 47.2211C10.509 47.1217 10.2264 47.1802 9.93223 47.3497C9.63807 47.5191 9.44773 47.7412 9.50541 47.8406Z" fill="url(#paint8_linear_1685_11459)"/>
<path style="mix-blend-mode:multiply" opacity="0.6" d="M109.116 57.6997C111.596 54.7835 112.629 50.9438 111.602 47.2912C110.379 50.3652 108.193 52.0192 105.782 52.7555C104.623 55.3679 101.756 56.2854 99.9452 54.1289C99.6914 53.825 99.5241 53.3925 99.4549 52.9367C97.3093 52.4867 94.5292 50.2484 94.5292 50.2484C92.6604 53.8133 93.7563 57.6179 96.075 59.3536L100.735 60.9374C103.948 61.1828 107.04 60.1484 109.122 57.7056L109.116 57.6997Z" fill="url(#paint9_linear_1685_11459)"/>
<path d="M98.4917 41.6048L96.6229 43.6152C98.7859 42.8146 104.386 42.3646 105.944 48.0802C107.513 53.825 102.558 57.3023 99.8933 54.1289C99.0685 53.1471 99.1723 50.7744 100.36 50.7335C100.262 50.4822 100.176 50.2133 100.193 49.7984C96.9575 50.2484 97.5631 55.5608 101.295 56.4257C103.752 56.9984 105.644 55.7419 107.068 54.0939C110.598 50.0146 107.207 40.3542 98.5032 41.6107L98.4917 41.6048Z" fill="url(#paint10_linear_1685_11459)"/>
<path d="M94.8926 49.6406C92.6546 52.6912 93.5948 57.7815 96.075 59.3419C96.075 59.3419 97.1709 59.7802 98.1572 60.0491C96.0115 58.8452 92.6835 53.6029 94.8926 49.6406Z" fill="url(#paint11_linear_1685_11459)"/>
<path style="mix-blend-mode:multiply" opacity="0.6" d="M100.112 54.316C100.055 54.2517 99.9971 54.1874 99.9395 54.1232C99.1147 53.1413 99.2185 50.7686 100.407 50.7277C100.309 50.4764 100.222 50.2075 100.239 49.7926C97.9669 50.1082 97.5919 52.8141 98.8551 54.7017L100.112 54.316Z" fill="url(#paint12_linear_1685_11459)"/>
<path style="mix-blend-mode:multiply" opacity="0.6" d="M104.681 45.386L105.99 43.9308C103.919 41.7918 100.655 41.2366 98.4917 41.6048L96.6229 43.6152C97.9265 43.0542 102.356 42.5048 104.675 45.386H104.681Z" fill="url(#paint13_linear_1685_11459)"/>
<g style="mix-blend-mode:screen" opacity="0.5">
<path d="M110.512 44.7256C109.791 43.4925 108.805 42.312 107.513 41.2366C106.849 40.6873 106.111 40.2139 105.304 39.8223C108.009 42.3061 108.176 44.6555 104.34 42.6275C106.797 44.0009 107.553 46.1399 107.98 47.2854C107.432 42.5749 108.199 41.3243 110.512 44.7256Z" fill="#F9A346"/>
</g>
<g style="mix-blend-mode:screen" opacity="0.5">
<path d="M101.958 49.062C101.283 48.349 100.182 49.062 100.239 49.7925C100.216 50.149 100.286 50.4705 100.384 50.7334C100.389 50.7334 100.401 50.7334 100.407 50.7334C101.255 51.8964 104.202 51.4523 103.412 48.723C102.904 46.9639 100.101 45.9237 97.5804 47.3263C97.3727 47.4432 97.1766 47.5659 96.9863 47.6945C98.9243 46.7302 101.849 47.0107 101.958 49.062Z" fill="#F9A346"/>
</g>
<path d="M102.495 47.8406C102.437 47.9399 102.154 47.8815 101.86 47.712C101.566 47.5425 101.376 47.3204 101.433 47.2211C101.491 47.1217 101.774 47.1802 102.068 47.3497C102.362 47.5191 102.552 47.7412 102.495 47.8406Z" fill="url(#paint14_linear_1685_11459)"/>
<path style="mix-blend-mode:multiply" opacity="0.8" d="M20.2855 70.6563C18.3187 67.1674 16.8363 63.3686 15.9308 59.342L11.305 60.9082C12.372 65.4258 14.0908 69.6862 16.3518 73.5843L20.2913 70.6563H20.2855Z" fill="url(#paint15_linear_1685_11459)"/>
<path style="mix-blend-mode:multiply" opacity="0.8" d="M91.7895 70.6563C93.7563 67.1674 95.2386 63.3686 96.1442 59.342L100.77 60.9082C99.703 65.4258 97.9841 69.6862 95.7231 73.5843L91.7837 70.6563H91.7895Z" fill="url(#paint16_linear_1685_11459)"/>
<g style="mix-blend-mode:screen" opacity="0.5">
<path d="M84.5451 13.4884C85.2141 17.0008 90.5898 25.7963 97.1305 29.2034C94.1082 23.0729 89.7938 17.7138 84.5451 13.4884Z" fill="#F9A346"/>
</g>
<path d="M56 6.10716C34.9243 6.1247 17.3727 21.3956 13.5025 41.6106L15.3713 43.621C18.4052 23.6397 35.4376 8.33964 56 8.31627C76.5624 8.3338 93.5948 23.6397 96.6287 43.6152L98.4975 41.6048C94.6273 21.3897 77.0757 6.11885 56 6.10132V6.10716Z" fill="url(#paint17_linear_1685_11459)"/>
<path d="M56 91.7071C36.4585 91.6895 20.1067 77.868 15.925 59.3478C15.2963 59.5991 14.5869 59.8679 13.8428 60.0491C18.3187 79.4518 35.4895 93.8986 56 93.9162C76.5047 93.8986 93.6756 79.446 98.1572 60.0491C97.4131 59.8679 96.7037 59.5991 96.075 59.3478C91.8933 77.868 75.5415 91.6895 56 91.7071Z" fill="url(#paint18_linear_1685_11459)"/>
<path style="mix-blend-mode:multiply" opacity="0.6" d="M19.7606 69.6979C18.0534 66.4777 16.7498 63.0004 15.925 59.342C15.2963 59.5933 14.5869 59.8621 13.8428 60.0433C14.7022 63.766 16.0288 67.3018 17.7534 70.5921L19.7606 69.6979Z" fill="url(#paint19_linear_1685_11459)"/>
<path style="mix-blend-mode:multiply" opacity="0.6" d="M92.2336 69.6979C93.9409 66.4777 95.2444 63.0004 96.0692 59.342C96.6979 59.5933 97.4074 59.8621 98.1514 60.0433C97.292 63.766 95.9654 67.3018 94.2408 70.5921L92.2336 69.6979Z" fill="url(#paint20_linear_1685_11459)"/>
<path style="mix-blend-mode:multiply" opacity="0.6" d="M71.6366 9.06432C66.7859 7.15912 61.5141 6.10716 56 6.10132C50.509 6.10132 45.2603 7.14743 40.4268 9.04095L41.938 10.8293C46.3273 9.20459 51.0627 8.31627 56.0058 8.31042C60.9719 8.31042 65.7246 9.21043 70.1312 10.8468L71.6424 9.05848L71.6366 9.06432Z" fill="url(#paint21_radial_1685_11459)"/>
<path d="M61.7909 6.48706L56 12.9741L50.2091 6.48706L56 0L61.7909 6.48706Z" fill="url(#paint22_linear_1685_11459)"/>
<path d="M56 0L59.7837 3.55911L59.1319 3.50652L56 0Z" fill="url(#paint23_linear_1685_11459)"/>
<path d="M56 0L52.2105 3.55911L52.868 3.50652L56 0Z" fill="url(#paint24_linear_1685_11459)"/>
<path d="M50.1975 8.73701L50.2091 6.487L56 12.9741L50.1975 8.73701Z" fill="url(#paint25_linear_1685_11459)"/>
<path d="M61.8024 8.73701L61.7909 6.487L56 12.9741L61.8024 8.73701Z" fill="url(#paint26_linear_1685_11459)"/>
<g style="mix-blend-mode:screen">
<path d="M53.9524 2.29092L56 0L59.8529 4.31886L55.9712 0.549354L53.9524 2.29092Z" fill="#F9A346"/>
</g>
<path d="M59.6222 6.48708C59.6222 6.48708 57.0094 9.2923 56 10.543C54.9906 9.2923 53.814 7.97735 52.3778 6.48708C53.814 5.00266 56 2.43121 56 2.43121L59.6222 6.48708Z" fill="#BC4408"/>
<path d="M56 2.43121V2.91044L59.1954 6.48708H59.6222L56 2.43121Z" fill="url(#paint27_linear_1685_11459)"/>
<g style="mix-blend-mode:screen">
<path d="M52.3778 6.487H52.8046L56 10.0636V10.5429L52.3778 6.487Z" fill="#F9A346"/>
</g>
<path d="M59.1954 6.48699C59.1954 6.48699 56.894 8.95908 56 10.0636C55.1117 8.95908 54.0735 7.79609 52.8046 6.48699C54.0678 5.17789 56 2.91034 56 2.91034L59.1954 6.48699Z" fill="url(#paint28_radial_1685_11459)"/>
<g style="mix-blend-mode:multiply" opacity="0.3">
<path d="M56 10.0636L52.8046 6.48699L54.956 6.3701C54.956 6.3701 56.5537 6.34088 57.5054 6.3701C58.6474 6.39932 59.1896 6.48699 59.1896 6.48699L55.9942 10.0636H56Z" fill="#622170"/>
</g>
<path d="M57.5054 6.3702C56.9978 6.89617 56.5883 7.35787 56.2307 7.79618C55.8731 7.35787 55.4578 6.89033 54.956 6.3702C55.4636 5.84422 55.8731 5.38253 56.2307 4.94421C56.5883 5.38253 57.0036 5.85006 57.5054 6.3702Z" fill="url(#paint29_radial_1685_11459)"/>
<g style="mix-blend-mode:multiply" opacity="0.5">
<path d="M52.8046 6.487L54.956 6.37012L56.2307 7.7961L56 10.0636L52.8046 6.487Z" fill="#217021"/>
</g>
<g style="mix-blend-mode:screen">
<path d="M56 2.91034L56.2307 4.93827L57.5054 6.3701L59.1954 6.48699L56 2.91034Z" fill="url(#paint30_linear_1685_11459)"/>
</g>
<path d="M56.2307 4.93829L57.5977 6.04285L59.1954 6.48701L57.5054 6.37012L56.2307 4.93829Z" fill="#ECFC1D"/>
<path d="M61.7909 93.5129L56 99.9999L50.2091 93.5129L56 87.0258L61.7909 93.5129Z" fill="url(#paint31_linear_1685_11459)"/>
<path d="M56 87.0259L60.6892 91.4324L60.0029 91.5084L56 87.0259Z" fill="url(#paint32_linear_1685_11459)"/>
<path d="M56 87.0259L51.3107 91.4324L51.9971 91.5084L56 87.0259Z" fill="url(#paint33_linear_1685_11459)"/>
<path d="M50.1975 96.2539L50.2091 93.5129L56 100L50.1975 96.2539Z" fill="url(#paint34_linear_1685_11459)"/>
<path d="M61.8024 96.2539L61.7909 93.5129L56 100L61.8024 96.2539Z" fill="url(#paint35_linear_1685_11459)"/>
<g style="mix-blend-mode:screen">
<path d="M53.9524 89.311L56 87.0259L59.8529 91.3389L55.9712 87.5752L53.9524 89.311Z" fill="#F9A346"/>
</g>
<path d="M59.6222 93.513C59.6222 93.513 57.0094 96.3182 56 97.5688C54.9906 96.3182 53.814 95.0032 52.3778 93.513C53.814 92.0285 56 89.4571 56 89.4571L59.6222 93.513Z" fill="#BC4408"/>
<path d="M56 89.4571V89.9363L59.1954 93.513H59.6222L56 89.4571Z" fill="url(#paint36_linear_1685_11459)"/>
<g style="mix-blend-mode:screen">
<path d="M52.3778 93.5129H52.8046L56 97.0896V97.5688L52.3778 93.5129Z" fill="#F9A346"/>
</g>
<path d="M59.1954 93.5129C59.1954 93.5129 56.894 95.985 56 97.0896C55.1117 95.985 54.0735 94.822 52.8046 93.5129C54.0678 92.2038 56 89.9363 56 89.9363L59.1954 93.5129Z" fill="url(#paint37_radial_1685_11459)"/>
<g style="mix-blend-mode:multiply" opacity="0.3">
<path d="M56 97.0896L52.8046 93.5129L54.956 93.396C54.956 93.396 56.5537 93.3668 57.5054 93.396C58.6474 93.4253 59.1896 93.5129 59.1896 93.5129L55.9942 97.0896H56Z" fill="#622170"/>
</g>
<path d="M57.5054 93.3961C56.9978 93.9221 56.5883 94.3837 56.2307 94.8221C55.8731 94.3837 55.4578 93.9162 54.956 93.3961C55.4636 92.8701 55.8731 92.4084 56.2307 91.9701C56.5883 92.4084 57.0036 92.8759 57.5054 93.3961Z" fill="url(#paint38_radial_1685_11459)"/>
<g style="mix-blend-mode:multiply" opacity="0.5">
<path d="M52.8046 93.5129L54.956 93.3961L56.2307 94.822L56 97.0896L52.8046 93.5129Z" fill="#217021"/>
</g>
<g style="mix-blend-mode:screen">
<path d="M56 89.9363L56.2307 91.9642L57.5054 93.396L59.1954 93.5129L56 89.9363Z" fill="url(#paint39_linear_1685_11459)"/>
</g>
<path d="M56.2307 91.9642L57.5977 93.0688L59.1954 93.5129L57.5054 93.3961L56.2307 91.9642Z" fill="#ECFC1D"/>
<g style="mix-blend-mode:screen" opacity="0.5">
<path d="M27.6972 80.2408C29.4852 84.4369 32.9286 87.7915 40.9517 88.9077C40.9517 88.8727 40.9517 88.8434 40.9459 88.8084C35.9856 86.8272 31.4982 83.8992 27.703 80.2408H27.6972Z" fill="#F9A346"/>
</g>
<path d="M81.9726 89.5915L74.013 90.3863L66.9243 97.4286L60.943 90.7721L60.0087 90.7662L59.2185 90.0415L60.695 87.4993L67.2242 92.6597L72.9344 87.1603L81.9726 89.5915Z" fill="url(#paint40_linear_1685_11459)"/>
<path d="M81.9726 89.5915L73.7304 88.5688L67.1723 94.9623L60.845 88.9078L59.2646 90.0766L60.0087 90.7662L60.943 90.7721L66.9243 97.4286L74.013 90.3863L81.9726 89.5915Z" fill="url(#paint41_linear_1685_11459)"/>
<path d="M60.845 88.9078L60.943 90.7721L59.9914 90.7779L59.2646 90.0766L60.845 88.9078Z" fill="url(#paint42_linear_1685_11459)"/>
<path d="M66.9243 97.4286L67.1723 94.9624L60.845 88.9078L60.943 90.7721L66.9243 97.4286Z" fill="url(#paint43_linear_1685_11459)"/>
<path d="M73.7304 88.5688L74.013 90.3863L81.9726 89.5915L73.7304 88.5688Z" fill="url(#paint44_linear_1685_11459)"/>
<g style="mix-blend-mode:screen" opacity="0.5">
<path d="M71.8616 88.2006C73.3901 87.1253 73.367 88.5746 70.8926 90.8597C68.9892 92.6247 67.7145 92.198 68.4182 91.5201C69.1218 90.8422 71.8673 88.2006 71.8673 88.2006H71.8616Z" fill="#F9A346"/>
</g>
<path d="M71.0829 89.2C71.1406 89.2643 71.4059 89.1181 71.6655 88.8727C71.9308 88.6272 72.0923 88.3759 72.0346 88.3058C71.9769 88.2415 71.7116 88.3876 71.4521 88.6331C71.1925 88.8785 71.0252 89.1298 71.0829 89.2Z" fill="url(#paint45_linear_1685_11459)"/>
<path d="M70.6503 89.6441C70.6965 89.6909 70.8176 89.6558 70.9214 89.5565C71.0252 89.4571 71.0714 89.3402 71.031 89.2935C70.9849 89.2467 70.8637 89.2818 70.7599 89.3811C70.6561 89.4805 70.6099 89.5974 70.6503 89.6441Z" fill="url(#paint46_linear_1685_11459)"/>
<path style="mix-blend-mode:multiply" opacity="0.2" d="M72.9344 87.1603C74.0995 87.622 74.0591 88.1013 73.7304 88.5688C76.1298 88.8844 81.9726 89.5915 81.9726 89.5915L72.9344 87.1603Z" fill="url(#paint47_linear_1685_11459)"/>
<g style="mix-blend-mode:screen">
<path d="M70.4427 91.7772L67.1723 94.6818C67.1723 94.6818 64.098 92.0227 64.1846 92.1045C64.2711 92.1863 67.1723 94.9623 67.1723 94.9623L70.4427 91.7772Z" fill="#F9A346"/>
</g>
<g style="mix-blend-mode:screen" opacity="0.8">
<path d="M62.2812 88.7557C63.6251 90.3863 63.4521 91.409 62.5004 90.4973C63.5213 91.4733 64.2826 92.198 64.2826 92.198C63.4809 90.8187 63.3367 89.5856 66.3994 92.011C65.3958 91.2045 62.2812 88.7557 62.2812 88.7557Z" fill="#F9A346"/>
</g>
<g style="mix-blend-mode:multiply" opacity="0.35">
<path d="M63.2502 96.0435L62.8176 93.3669L61.4506 91.3389L65.3324 95.6578L63.2502 96.0435Z" fill="#7A1C0B"/>
</g>
<g style="mix-blend-mode:multiply" opacity="0.35">
<path d="M74.013 90.3863L72.0865 92.5895L71.9712 93.7233L69.9409 94.4305L74.013 90.3863Z" fill="#7A1C0B"/>
</g>
<path d="M30.1024 89.5915L38.0678 90.3863L45.1507 97.4286L51.1377 90.7721L52.0721 90.7662L52.8623 90.0415L51.3857 87.4993L44.8508 92.6597L39.1406 87.1603L30.1024 89.5915Z" fill="url(#paint48_linear_1685_11459)"/>
<path d="M30.1024 89.5915L38.3446 88.5688L44.9027 94.9623L51.2358 88.9078L52.8162 90.0766L52.0721 90.7662L51.1377 90.7721L45.1507 97.4286L38.0678 90.3863L30.1024 89.5915Z" fill="url(#paint49_linear_1685_11459)"/>
<path d="M51.2358 88.9078L51.1377 90.7721L52.0894 90.7779L52.8162 90.0766L51.2358 88.9078Z" fill="url(#paint50_linear_1685_11459)"/>
<path d="M45.1507 97.4286L44.9027 94.9624L51.2358 88.9078L51.1377 90.7721L45.1507 97.4286Z" fill="url(#paint51_linear_1685_11459)"/>
<path d="M38.3446 88.5688L38.0678 90.3863L30.1024 89.5915L38.3446 88.5688Z" fill="url(#paint52_linear_1685_11459)"/>
<g style="mix-blend-mode:screen" opacity="0.5">
<path d="M40.2192 88.2006C38.6907 87.1253 38.7138 88.5746 41.1882 90.8597C43.0916 92.6247 44.3663 92.198 43.6626 91.5201C42.9589 90.8422 40.2134 88.2006 40.2134 88.2006H40.2192Z" fill="#F9A346"/>
</g>
<path d="M40.9978 89.2C40.9402 89.2642 40.6748 89.1181 40.4153 88.8727C40.15 88.6272 39.9885 88.3759 40.0461 88.3058C40.1038 88.2357 40.3691 88.3876 40.6287 88.6331C40.894 88.8785 41.0555 89.1298 40.9978 89.2Z" fill="url(#paint53_linear_1685_11459)"/>
<path d="M41.4304 89.6441C41.3843 89.6909 41.2632 89.6558 41.1593 89.5565C41.0555 89.4571 41.0094 89.3402 41.0498 89.2935C41.0959 89.2467 41.217 89.2818 41.3208 89.3811C41.4247 89.4805 41.4708 89.5974 41.4304 89.6441Z" fill="url(#paint54_linear_1685_11459)"/>
<path style="mix-blend-mode:multiply" opacity="0.2" d="M39.1406 87.1603C37.9755 87.622 38.0159 88.1013 38.3446 88.5688C35.9452 88.8844 30.1024 89.5915 30.1024 89.5915L39.1406 87.1603Z" fill="url(#paint55_linear_1685_11459)"/>
<g style="mix-blend-mode:screen">
<path d="M41.6323 91.7772L44.9027 94.6818C44.9027 94.6818 47.9769 92.0227 47.8904 92.1045C47.8039 92.1863 44.9027 94.9623 44.9027 94.9623L41.6323 91.7772Z" fill="#F9A346"/>
</g>
<g style="mix-blend-mode:screen" opacity="0.8">
<path d="M49.7938 88.7557C48.4499 90.3863 48.6229 91.409 49.5746 90.4973C48.5537 91.4733 47.7924 92.198 47.7924 92.198C48.5941 90.8187 48.7383 89.5856 45.6756 92.011C46.6792 91.2045 49.7938 88.7557 49.7938 88.7557Z" fill="#F9A346"/>
</g>
<g style="mix-blend-mode:multiply" opacity="0.35">
<path d="M48.8248 96.0435L49.2574 93.3669L50.6301 91.3389L46.7426 95.6578L48.8248 96.0435Z" fill="#7A1C0B"/>
</g>
<g style="mix-blend-mode:multiply" opacity="0.35">
<path d="M38.0678 90.3863L39.9942 92.5895L40.1096 93.7233L42.1341 94.4305L38.0678 90.3863Z" fill="#7A1C0B"/>
</g>
<g style="mix-blend-mode:multiply" opacity="0.35">
<path d="M46.4427 9.47926L43.8068 7.29938L43.0397 8.06497L43.0916 8.10003C42.8089 8.18769 42.5321 8.2812 42.2552 8.37471L38.858 12.0682L38.9214 12.0858C39.6482 11.7468 40.3922 11.4312 41.142 11.1332L43.7318 8.55004L45.3814 9.70719L46.4427 9.47342V9.47926Z" fill="#7A1C0B"/>
</g>
<g style="mix-blend-mode:multiply" opacity="0.35">
<path d="M65.5804 9.46757L68.199 7.29938C68.199 7.29938 69.4737 8.2812 69.7506 8.37471L73.1478 12.0682L73.0844 12.0858C72.3576 11.7468 71.6136 11.4312 70.8637 11.1332L68.274 8.55004L66.6013 9.72472L65.5862 9.46173L65.5804 9.46757Z" fill="#7A1C0B"/>
</g>
<path d="M82.7455 9.71311L74.6994 9.49103L67.8933 2.72345L61.8428 9.45012L60.8335 9.42674L59.9856 10.0813L61.5891 12.7579L68.1932 7.29945L73.6092 12.7579L82.7455 9.71311Z" fill="url(#paint56_radial_1685_11459)"/>
<g style="mix-blend-mode:screen" opacity="0.8">
<path d="M70.3965 5.20728C71.3252 6.26507 72.075 7.4982 70.1024 7.12417C71.1464 8.12937 72.8883 9.83588 72.8883 9.83588C71.5097 8.3573 71.4175 6.21832 72.7729 7.56249C72.0519 6.84949 70.4023 5.20728 70.4023 5.20728H70.3965Z" fill="#F9A346"/>
</g>
<path d="M82.7455 9.7131L74.411 11.3319L68.1413 5.21307L61.739 11.3378L59.9856 10.0813L59.1896 10.654L61.5891 12.7579L68.1932 7.29945L73.6092 12.7579L82.7455 9.7131Z" fill="url(#paint57_linear_1685_11459)"/>
<path d="M61.739 11.3378L61.5891 12.7579L59.1896 10.654L59.9856 10.0813L61.739 11.3378Z" fill="url(#paint58_linear_1685_11459)"/>
<path d="M68.1932 7.29945L68.1413 5.21307L61.739 11.3378L61.5891 12.7579L68.1932 7.29945Z" fill="url(#paint59_linear_1685_11459)"/>
<path style="mix-blend-mode:multiply" opacity="0.2" d="M64.4268 8.77215C62.9387 9.97605 62.5061 9.00592 63.1752 7.9715C61.9351 9.38579 61.8428 9.45008 61.8428 9.45008L60.8335 9.43254L59.9856 10.0813L61.7448 11.3378L64.4268 8.77215Z" fill="url(#paint60_linear_1685_11459)"/>
<g style="mix-blend-mode:multiply" opacity="0.15">
<path d="M61.8428 9.45014L60.5566 10.4904L59.9856 10.0813L60.8335 9.42676L61.8428 9.45014Z" fill="#7A1C0B"/>
</g>
<g style="mix-blend-mode:multiply" opacity="0.15">
<path d="M60.5566 10.4904L59.2992 10.7651L59.1839 10.654C59.1839 10.654 59.8183 10.2157 59.9798 10.0813C60.0433 10.1281 60.5508 10.4904 60.5508 10.4904H60.5566Z" fill="#7A1C0B"/>
</g>
<path d="M76.672 10.993L74.411 11.3319L73.0498 10.0053C74.0649 10.993 74.8666 11.2677 76.672 10.993Z" fill="#F9A346"/>
<path d="M74.411 11.3319L73.6093 12.7579L82.7455 9.71307L74.411 11.3319Z" fill="url(#paint61_linear_1685_11459)"/>
<g style="mix-blend-mode:screen" opacity="0.5">
<path d="M67.8933 2.72345C67.8414 4.04424 66.9185 5.68061 65.2574 7.39881C64.2711 8.42154 62.6503 8.55596 63.6943 7.39881C64.7383 6.24165 67.8933 2.72929 67.8933 2.72929V2.72345Z" fill="#F9A346"/>
</g>
<path d="M66.6417 4.51758C66.7109 4.57603 66.5667 4.8507 66.3302 5.12538C66.0937 5.40006 65.8457 5.57538 65.7765 5.51694C65.7073 5.4585 65.8515 5.18382 66.088 4.90914C66.3245 4.63447 66.5725 4.45914 66.6417 4.51758Z" fill="url(#paint62_linear_1685_11459)"/>
<path d="M29.2487 9.71305L37.3007 9.49096L44.1067 2.72339L50.1572 9.45006L51.1666 9.42668L52.0144 10.0812L50.411 12.7579L43.8068 7.29939L38.3908 12.7579L29.2487 9.71305Z" fill="url(#paint63_radial_1685_11459)"/>
<g style="mix-blend-mode:screen" opacity="0.8">
<path d="M41.6035 5.20728C40.6749 6.26507 39.925 7.4982 41.8976 7.12417C40.8537 8.12937 39.1118 9.83588 39.1118 9.83588C40.4903 8.3573 40.5826 6.21832 39.2271 7.56249C39.9481 6.84949 41.5977 5.20728 41.5977 5.20728H41.6035Z" fill="#F9A346"/>
</g>
<path d="M29.2487 9.7131L37.5833 11.3319L43.8587 5.21307L50.261 11.3378L52.0144 10.0813L52.8104 10.654L50.411 12.7579L43.8068 7.29945L38.3908 12.7579L29.2487 9.7131Z" fill="url(#paint64_linear_1685_11459)"/>
<path d="M50.261 11.3378L50.411 12.7579L52.8104 10.654L52.0144 10.0813L50.261 11.3378Z" fill="url(#paint65_linear_1685_11459)"/>
<path d="M43.8068 7.29945L43.8587 5.21307L50.261 11.3378L50.411 12.7579L43.8068 7.29945Z" fill="url(#paint66_linear_1685_11459)"/>
<path style="mix-blend-mode:multiply" opacity="0.2" d="M47.5732 8.77215C49.0613 9.97605 49.4939 9.00592 48.8248 7.9715C50.0649 9.38579 50.1572 9.45008 50.1572 9.45008L51.1666 9.43254L52.0144 10.0813L50.2552 11.3378L47.5732 8.77215Z" fill="url(#paint67_linear_1685_11459)"/>
<g style="mix-blend-mode:multiply" opacity="0.15">
<path d="M50.1572 9.45014L51.4434 10.4904L52.0144 10.0813L51.1666 9.42676L50.1572 9.45014Z" fill="#7A1C0B"/>
</g>
<g style="mix-blend-mode:multiply" opacity="0.15">
<path d="M51.4434 10.4904L52.7008 10.7651L52.8162 10.654C52.8162 10.654 52.1817 10.2157 52.0202 10.0813C51.9568 10.1281 51.4492 10.4904 51.4492 10.4904H51.4434Z" fill="#7A1C0B"/>
</g>
<path d="M35.3281 10.993L37.5891 11.3319L38.9503 10.0053C37.9351 10.993 37.1334 11.2677 35.3281 10.993Z" fill="#F9A346"/>
<path d="M37.5833 11.3319L38.3908 12.7579L29.2487 9.71307L37.5833 11.3319Z" fill="url(#paint68_linear_1685_11459)"/>
<g style="mix-blend-mode:screen" opacity="0.5">
<path d="M44.1067 2.72345C44.1586 4.04424 45.0815 5.68061 46.7426 7.39881C47.7289 8.42154 49.3497 8.55596 48.3057 7.39881C47.2617 6.24165 44.1067 2.72929 44.1067 2.72929V2.72345Z" fill="#F9A346"/>
</g>
<path d="M45.3526 4.51758C45.2834 4.57603 45.4275 4.8507 45.664 5.12538C45.9005 5.40006 46.1485 5.57538 46.2177 5.51694C46.287 5.4585 46.1428 5.18382 45.9063 4.90914C45.6698 4.63447 45.4218 4.45914 45.3526 4.51758Z" fill="url(#paint69_linear_1685_11459)"/>
<g style="mix-blend-mode:multiply" opacity="0.35">
<path d="M74.809 12.9391L77.0065 11.6241L74.1168 12.5884L74.809 12.9391Z" fill="#7A1C0B"/>
</g>
<g style="mix-blend-mode:multiply" opacity="0.35">
<path d="M37.1968 12.9391L34.9993 11.6241L37.889 12.5884L37.1968 12.9391Z" fill="#7A1C0B"/>
</g>
<path d="M91.6683 21.8398C91.0512 21.0567 90.6417 20.3554 90.7513 20.2677C90.8608 20.18 91.4492 20.7411 92.0663 21.5242C92.6835 22.3073 93.093 23.0086 92.9834 23.0963C92.8738 23.1839 92.2855 22.6229 91.6683 21.8398Z" fill="url(#paint70_linear_1685_11459)"/>
<path d="M33.1017 85.4129C32.6402 85.0856 32.3288 84.7233 32.4095 84.6064C32.4903 84.4895 32.9286 84.659 33.3901 84.9921C33.8515 85.3194 34.1629 85.6817 34.0822 85.7986C34.0014 85.9155 33.5631 85.746 33.1017 85.4129Z" fill="url(#paint71_linear_1685_11459)"/>
<path style="mix-blend-mode:color-dodge" opacity="0.6" d="M42.4052 1.5896C41.8457 2.15648 42.907 4.14935 44.7758 6.04287C46.6446 7.93639 48.6114 9.01172 49.1709 8.44484C49.7304 7.87795 48.6691 5.88508 46.8003 3.99156C44.9315 2.09804 42.9647 1.02271 42.4052 1.5896Z" fill="url(#paint72_radial_1685_11459)"/>
<path style="mix-blend-mode:color-dodge" opacity="0.6" d="M62.8291 8.44484C63.3886 9.01172 65.3554 7.93639 67.2242 6.04287C69.093 4.14935 70.1543 2.15648 69.5948 1.5896C69.0353 1.02271 67.0685 2.09804 65.1997 3.99156C63.3309 5.88508 62.2696 7.87795 62.8291 8.44484Z" fill="url(#paint73_radial_1685_11459)"/>
<path style="mix-blend-mode:color-dodge" opacity="0.6" d="M88.4787 18.2514C87.9192 18.8183 88.9805 20.8112 90.8493 22.7047C92.7181 24.5982 94.6849 25.6735 95.2444 25.1066C95.8039 24.5398 94.7426 22.5469 92.8738 20.6534C91.005 18.7598 89.0382 17.6845 88.4787 18.2514Z" fill="url(#paint74_radial_1685_11459)"/>
<path style="mix-blend-mode:color-dodge" opacity="0.6" d="M29.1045 82.7771C28.7066 83.4726 30.2466 85.1207 32.5306 86.459C34.8205 87.7973 36.995 88.3233 37.3929 87.6278C37.7909 86.9324 36.2509 85.2843 33.9668 83.946C31.677 82.6077 29.5025 82.0817 29.1045 82.7771Z" fill="url(#paint75_radial_1685_11459)"/>
<path style="mix-blend-mode:color-dodge" opacity="0.6" d="M36.995 85.8161C36.4932 86.4356 37.7332 88.3175 39.7693 90.024C41.8053 91.7305 43.8645 92.6129 44.372 91.9935C44.8738 91.374 43.6337 89.4921 41.5977 87.7856C39.5616 86.0791 37.5025 85.1967 36.995 85.8161Z" fill="url(#paint76_radial_1685_11459)"/>
<path style="mix-blend-mode:color-dodge" opacity="0.6" d="M67.8702 91.9935C67.3684 91.374 68.6085 89.4921 70.6446 87.7856C72.6806 86.0791 74.7397 85.1967 75.2473 85.8161C75.7549 86.4356 74.509 88.3175 72.473 90.024C70.4369 91.7305 68.3778 92.6129 67.8702 91.9935Z" fill="url(#paint77_radial_1685_11459)"/>
<path style="mix-blend-mode:color-dodge" opacity="0.6" d="M10.036 50.26C11.5237 50.26 12.7296 49.0381 12.7296 47.5308C12.7296 46.0235 11.5237 44.8016 10.036 44.8016C8.54842 44.8016 7.34246 46.0235 7.34246 47.5308C7.34246 49.0381 8.54842 50.26 10.036 50.26Z" fill="url(#paint78_radial_1685_11459)"/>
<path style="mix-blend-mode:color-dodge" opacity="0.6" d="M104.652 47.5308C104.652 49.0386 103.446 50.26 101.958 50.26C100.47 50.26 99.2646 49.0386 99.2646 47.5308C99.2646 46.023 100.47 44.8016 101.958 44.8016C103.446 44.8016 104.652 46.023 104.652 47.5308Z" fill="url(#paint79_radial_1685_11459)"/>
<path d="M34.5922 49.2939H37.3949V48.3711C37.3949 47.5462 37.1192 47.1338 36.5678 47.1338V46.7852H41.018V47.1338C40.7582 47.1338 40.5668 47.2386 40.4438 47.4482C40.3253 47.6579 40.266 47.8766 40.266 48.1045V54.5029C40.266 55.2686 40.5167 55.6514 41.018 55.6514V56H36.5678V55.6514C37.1192 55.6514 37.3949 55.2207 37.3949 54.3594V50.2305H34.5922V54.3594C34.5922 55.2207 34.8679 55.6514 35.4194 55.6514V56H30.9692V55.6514C31.3064 55.6514 31.516 55.526 31.5981 55.2754C31.6391 55.1523 31.671 55.0042 31.6938 54.8311C31.7166 54.6579 31.7279 54.4551 31.7279 54.2227V48.4258C31.7279 48.043 31.6778 47.7331 31.5776 47.4961C31.4819 47.2546 31.2791 47.1338 30.9692 47.1338V46.7852H35.4194V47.1338C35.1095 47.1338 34.893 47.2591 34.7699 47.5098C34.6515 47.7604 34.5922 48.0361 34.5922 48.3369V49.2939ZM42.2517 46.9971C42.2517 46.6097 42.3999 46.3066 42.6961 46.0879C42.9969 45.8646 43.3478 45.7529 43.7488 45.7529C44.0724 45.7529 44.3754 45.86 44.658 46.0742C44.9451 46.2884 45.0887 46.5869 45.0887 46.9697C45.0887 47.3981 44.9405 47.7194 44.6443 47.9336C44.3481 48.1478 43.9926 48.2549 43.5779 48.2549C43.2543 48.2549 42.9513 48.1455 42.6687 47.9268C42.3907 47.7035 42.2517 47.3936 42.2517 46.9971ZM41.6502 49.1914L45.0066 48.9727V54.3594C45.0066 54.7012 45.0545 54.9997 45.1502 55.2549C45.2003 55.387 45.2755 55.4919 45.3758 55.5693C45.4806 55.6423 45.615 55.6787 45.7791 55.6787V56H41.6502V55.6787C42.1424 55.6787 42.3885 55.3187 42.3885 54.5986V50.6611C42.3885 50.4834 42.3793 50.3376 42.3611 50.2236C42.3429 50.1097 42.3064 49.9935 42.2517 49.875C42.156 49.6562 41.9555 49.5469 41.6502 49.5469V49.1914ZM52.8097 48.9727L52.8781 51.0029L52.6115 51.0303C52.5021 50.7568 52.3357 50.5312 52.1124 50.3535C51.8891 50.1758 51.6362 50.0436 51.3537 49.957C51.0757 49.8704 50.7954 49.8271 50.5128 49.8271C50.2257 49.8271 49.9774 49.8682 49.7677 49.9502C49.5581 50.0322 49.4373 50.1439 49.4054 50.2852C49.4054 50.4993 49.533 50.6589 49.7882 50.7637C49.9477 50.8229 50.1277 50.8844 50.3283 50.9482C50.5333 51.012 50.8296 51.0986 51.2169 51.208C51.9233 51.3994 52.4793 51.6113 52.8849 51.8438C53.2905 52.0762 53.5548 52.3929 53.6779 52.7939C53.7143 52.9899 53.7326 53.1562 53.7326 53.293C53.7326 53.7214 53.6004 54.1611 53.3361 54.6123C53.0718 55.0635 52.6411 55.4463 52.0441 55.7607C51.7479 55.9157 51.4152 56.0319 51.046 56.1094C50.6769 56.1868 50.2622 56.2256 49.8019 56.2256C49.5057 56.2256 49.0818 56.1686 48.5304 56.0547C47.979 55.9408 47.6098 55.8838 47.423 55.8838C47.1131 55.8838 46.9126 55.9704 46.8214 56.1436L46.6232 53.3545L46.9035 53.293C47.0402 53.7533 47.2293 54.1292 47.4708 54.4209C47.7169 54.708 47.9927 54.9176 48.298 55.0498C48.4621 55.1182 48.6193 55.1706 48.7697 55.207C48.9246 55.2389 49.0864 55.2549 49.255 55.2549C49.4647 55.2549 49.6583 55.2344 49.8361 55.1934C50.0184 55.1478 50.2075 55.0771 50.4035 54.9814C50.7589 54.8128 50.9594 54.6328 51.005 54.4414L51.0324 54.2363C51.0324 53.9355 50.9002 53.7396 50.6359 53.6484C50.3716 53.5527 49.8361 53.4137 49.0294 53.2314C48.2274 53.0446 47.6303 52.8145 47.2384 52.541C46.8465 52.263 46.6505 51.8392 46.6505 51.2695C46.6688 51.2194 46.6779 51.1624 46.6779 51.0986C46.6779 50.9209 46.7121 50.7477 46.7804 50.5791C46.8533 50.4059 46.9627 50.2282 47.1085 50.0459C47.3774 49.7087 47.7693 49.4352 48.2843 49.2256C48.8038 49.016 49.4077 48.9111 50.0958 48.9111C50.4604 48.9111 50.8934 48.9453 51.3947 49.0137L52.2355 49.1094C52.5135 49.082 52.7049 49.0365 52.8097 48.9727ZM54.2759 49.7383C54.5994 49.679 54.8752 49.4945 55.103 49.1846C55.3354 48.8747 55.4517 48.5055 55.4517 48.0771C55.4517 47.9176 55.4129 47.6693 55.3354 47.332C56.2332 47.168 57.0832 46.833 57.8853 46.3271V49.2256H59.061C59.4074 49.2256 59.6603 49.1777 59.8198 49.082L59.3823 50.1758C59.2638 50.0983 59.1203 50.0596 58.9517 50.0596H57.8853V53.6211C57.8853 54.0221 57.9604 54.332 58.1108 54.5508C58.2658 54.7695 58.4618 54.8789 58.6987 54.8789C58.9585 54.8789 59.2274 54.7604 59.5054 54.5234C59.7697 54.3092 59.9771 54.0085 60.1274 53.6211L60.394 53.7305L59.6899 55.7197C58.8104 56.0387 58.0493 56.1982 57.4067 56.1982C56.7596 56.1982 56.2378 56.0251 55.8413 55.6787C55.4494 55.3278 55.2534 54.7673 55.2534 53.9971V50.0596H54.2759V49.7383ZM63.6717 52.4727C63.6717 52.7552 63.69 53.0081 63.7264 53.2314C63.7674 53.4502 63.829 53.6735 63.911 53.9014C64.0523 54.2979 64.2346 54.6009 64.4579 54.8105C64.6857 55.0156 64.9182 55.1182 65.1551 55.1182C65.5288 55.1182 65.841 54.8857 66.0917 54.4209C66.3469 53.9561 66.4745 53.3158 66.4745 52.5C66.4745 52.2174 66.4562 51.9668 66.4198 51.748C66.3833 51.5293 66.3264 51.3174 66.2489 51.1123C66.1122 50.7386 65.9322 50.4561 65.7088 50.2646C65.4901 50.0732 65.26 49.9775 65.0184 49.9775C64.7906 49.9775 64.5718 50.071 64.3622 50.2578C64.1525 50.4447 63.9839 50.7318 63.8563 51.1191C63.7333 51.502 63.6717 51.9531 63.6717 52.4727ZM60.8895 52.7256C60.8895 51.9007 61.0923 51.2035 61.4979 50.6338C61.9035 50.0596 62.4367 49.6289 63.0975 49.3418C63.7583 49.0547 64.4533 48.9111 65.1825 48.9111C65.7749 48.9111 66.3218 48.9909 66.8231 49.1504C67.3244 49.3053 67.7551 49.5423 68.1151 49.8613C68.4797 50.1758 68.76 50.5745 68.9559 51.0576C69.1564 51.5361 69.2567 52.0921 69.2567 52.7256C69.2567 53.2725 69.145 53.7624 68.9217 54.1953C68.8124 54.4095 68.6802 54.6077 68.5253 54.79C68.3703 54.9723 68.1903 55.141 67.9852 55.2959C67.5978 55.583 67.1376 55.8063 66.6044 55.9658C66.3491 56.0387 66.078 56.0957 65.7909 56.1367C65.5083 56.1777 65.2235 56.1982 64.9364 56.1982C64.3758 56.1982 63.854 56.1299 63.371 55.9932C62.8924 55.8519 62.4641 55.6377 62.0858 55.3506C61.7075 55.0635 61.4136 54.7012 61.204 54.2637C60.9943 53.8262 60.8895 53.3135 60.8895 52.7256ZM73.3069 50.5244C73.5165 50.1143 73.8127 49.7588 74.1955 49.458C74.5829 49.1527 75.025 49 75.5217 49C75.7541 49 75.9729 49.0273 76.1779 49.082L75.6858 51.0029C75.4032 50.7204 75.0682 50.5791 74.6809 50.5791C74.3117 50.5791 73.9904 50.7295 73.717 51.0303C73.4436 51.3265 73.3069 51.7503 73.3069 52.3018V54.5439C73.3069 54.8083 73.3638 55.0566 73.4778 55.2891C73.5324 55.4076 73.6168 55.5033 73.7307 55.5762C73.8446 55.6445 73.9791 55.6787 74.134 55.6787V56.0273H69.9231V55.6787C70.4335 55.6787 70.6887 55.3005 70.6887 54.5439V50.6338C70.6887 50.2874 70.6226 50.0208 70.4904 49.834C70.3628 49.6426 70.1737 49.5469 69.9231 49.5469V49.1914L72.8762 49C72.9947 49.1641 73.0927 49.3965 73.1701 49.6973C73.2157 49.8613 73.2499 50.0094 73.2727 50.1416C73.2955 50.2738 73.3069 50.4014 73.3069 50.5244ZM76.9537 56.5742L77.2476 56.6904C77.2476 57.3786 77.496 57.7227 77.9928 57.7227C78.3345 57.7227 78.6422 57.5814 78.9156 57.2988C79.1936 57.0163 79.3326 56.6312 79.3326 56.1436C79.3326 55.779 79.2392 55.3939 79.0523 54.9883L77.0836 50.6064C77.0198 50.4606 76.9514 50.3239 76.8785 50.1963C76.8101 50.0687 76.7509 49.9684 76.7008 49.8955C76.5868 49.7223 76.4706 49.6061 76.3521 49.5469C76.2382 49.4876 76.0878 49.458 75.901 49.458V49.1094H80.4537V49.458C80.0071 49.458 79.7701 49.5947 79.7428 49.8682C79.7428 49.9137 79.7496 49.9616 79.7633 50.0117C79.7769 50.0618 79.7883 50.1006 79.7974 50.1279L79.9342 50.4766L80.064 50.8047L80.9732 53.2656L81.9781 50.5791C82.0738 50.3467 82.1217 50.1462 82.1217 49.9775C82.1217 49.6312 81.912 49.458 81.4928 49.458V49.1094H84.3297V49.458C84.1155 49.458 83.8967 49.5651 83.6734 49.7793C83.4501 49.9935 83.2769 50.2419 83.1539 50.5244L80.2008 57.3467C79.9866 57.8617 79.6653 58.2627 79.2369 58.5498C78.8131 58.8369 78.3505 58.9805 77.8492 58.9805C77.2476 58.9805 76.6734 58.7913 76.1265 58.4131L76.9537 56.5742Z" fill="#A43434"/>
</g>
<defs>
<filter id="filter0_i_1685_11459" x="17.8344" y="11.5108" width="76.3312" height="80.4236" filterUnits="userSpaceOnUse" color-interpolation-filters="sRGB">
<feFlood flood-opacity="0" result="BackgroundImageFix"/>
<feBlend mode="normal" in="SourceGraphic" in2="BackgroundImageFix" result="shape"/>
<feColorMatrix in="SourceAlpha" type="matrix" values="0 0 0 0 0 0 0 0 0 0 0 0 0 0 0 0 0 0 127 0" result="hardAlpha"/>
<feOffset dy="3.44516"/>
<feGaussianBlur stdDeviation="1.72258"/>
<feComposite in2="hardAlpha" operator="arithmetic" k2="-1" k3="1"/>
<feColorMatrix type="matrix" values="0 0 0 0 1 0 0 0 0 0.981333 0 0 0 0 0.883333 0 0 0 1 0"/>
<feBlend mode="normal" in2="shape" result="effect1_innerShadow_1685_11459"/>
</filter>
<radialGradient id="paint0_radial_1685_11459" cx="0" cy="0" r="1" gradientUnits="userSpaceOnUse" gradientTransform="translate(56.287 25.4016) rotate(90.2606) scale(63.0882 62.5578)">
<stop stop-color="#FEE5A2"/>
<stop offset="0.585" stop-color="#FC8F60"/>
<stop offset="1" stop-color="#FCF5B2"/>
</radialGradient>
<linearGradient id="paint1_linear_1685_11459" x1="56" y1="96.6221" x2="56" y2="3.39551" gradientUnits="userSpaceOnUse">
<stop stop-color="#ED480B"/>
<stop offset="0.99" stop-color="#F2B100"/>
</linearGradient>
<radialGradient id="paint2_radial_1685_11459" cx="0" cy="0" r="1" gradientUnits="userSpaceOnUse" gradientTransform="translate(55.0454 90.19) scale(26.0274 26.3719)">
<stop stop-color="#691C00"/>
<stop offset="1" stop-color="#FFF1CC"/>
</radialGradient>
<linearGradient id="paint3_linear_1685_11459" x1="9.24012" y1="52.5977" x2="9.70194" y2="59.4639" gradientUnits="userSpaceOnUse">
<stop stop-color="#FFF1CC"/>
<stop offset="1" stop-color="#691C00"/>
</linearGradient>
<linearGradient id="paint4_linear_1685_11459" x1="9.46503" y1="56.5601" x2="9.46503" y2="41.4938" gradientUnits="userSpaceOnUse">
<stop offset="0.01" stop-color="#F2B100"/>
<stop offset="1" stop-color="#ED480B"/>
</linearGradient>
<linearGradient id="paint5_linear_1685_11459" x1="16.1096" y1="59.4413" x2="16.1096" y2="54.1289" gradientUnits="userSpaceOnUse">
<stop stop-color="#7A1C0B"/>
<stop offset="0.94" stop-color="#BC4408"/>
</linearGradient>
<linearGradient id="paint6_linear_1685_11459" x1="12.4643" y1="50.2543" x2="12.92" y2="53.5137" gradientUnits="userSpaceOnUse">
<stop stop-color="#691C00"/>
<stop offset="1" stop-color="#FFF1CC"/>
</linearGradient>
<linearGradient id="paint7_linear_1685_11459" x1="15.0079" y1="43.662" x2="9.32635" y2="43.4286" gradientUnits="userSpaceOnUse">
<stop stop-color="#691C00"/>
<stop offset="1" stop-color="#FFF1CC"/>
</linearGradient>
<linearGradient id="paint8_linear_1685_11459" x1="13.2133" y1="45.1047" x2="12.8604" y2="45.6999" gradientUnits="userSpaceOnUse">
<stop stop-color="white"/>
<stop offset="1" stop-color="#FFF7C4"/>
</linearGradient>
<linearGradient id="paint9_linear_1685_11459" x1="102.754" y1="52.5977" x2="102.292" y2="59.4639" gradientUnits="userSpaceOnUse">
<stop stop-color="#FFF1CC"/>
<stop offset="1" stop-color="#691C00"/>
</linearGradient>
<linearGradient id="paint10_linear_1685_11459" x1="102.529" y1="56.5601" x2="102.529" y2="41.4938" gradientUnits="userSpaceOnUse">
<stop offset="0.01" stop-color="#F2B100"/>
<stop offset="1" stop-color="#ED480B"/>
</linearGradient>
<linearGradient id="paint11_linear_1685_11459" x1="95.8904" y1="-1.48486e-05" x2="95.8904" y2="-1.48486e-05" gradientUnits="userSpaceOnUse">
<stop stop-color="#7A1C0B"/>
<stop offset="0.94" stop-color="#BC4408"/>
</linearGradient>
<linearGradient id="paint12_linear_1685_11459" x1="99.5357" y1="50.2543" x2="99.08" y2="53.5137" gradientUnits="userSpaceOnUse">
<stop stop-color="#691C00"/>
<stop offset="1" stop-color="#FFF1CC"/>
</linearGradient>
<linearGradient id="paint13_linear_1685_11459" x1="96.9863" y1="43.662" x2="102.674" y2="43.4286" gradientUnits="userSpaceOnUse">
<stop stop-color="#691C00"/>
<stop offset="1" stop-color="#FFF1CC"/>
</linearGradient>
<linearGradient id="paint14_linear_1685_11459" x1="99.2945" y1="47.8128" x2="99.6474" y2="48.4081" gradientUnits="userSpaceOnUse">
<stop stop-color="white"/>
<stop offset="1" stop-color="#FFF7C4"/>
</linearGradient>
<linearGradient id="paint15_linear_1685_11459" x1="13.8082" y1="60.318" x2="17.7112" y2="71.4369" gradientUnits="userSpaceOnUse">
<stop stop-color="#691C00"/>
<stop offset="1" stop-color="#FFF1CC"/>
</linearGradient>
<linearGradient id="paint16_linear_1685_11459" x1="98.2668" y1="60.318" x2="94.3696" y2="71.437" gradientUnits="userSpaceOnUse">
<stop stop-color="#691C00"/>
<stop offset="1" stop-color="#FFF1CC"/>
</linearGradient>
<linearGradient id="paint17_linear_1685_11459" x1="56" y1="43.6152" x2="56" y2="6.10716" gradientUnits="userSpaceOnUse">
<stop offset="0.01" stop-color="#F2B100"/>
<stop offset="1" stop-color="#ED480B"/>
</linearGradient>
<linearGradient id="paint18_linear_1685_11459" x1="56" y1="93.9162" x2="56" y2="59.3478" gradientUnits="userSpaceOnUse">
<stop offset="0.01" stop-color="#F2B100"/>
<stop offset="1" stop-color="#ED480B"/>
</linearGradient>
<linearGradient id="paint19_linear_1685_11459" x1="14.9618" y1="59.4355" x2="17.9976" y2="68.5931" gradientUnits="userSpaceOnUse">
<stop stop-color="#691C00"/>
<stop offset="1" stop-color="#FFF1CC"/>
</linearGradient>
<linearGradient id="paint20_linear_1685_11459" x1="97.0325" y1="59.4355" x2="94.0025" y2="68.5932" gradientUnits="userSpaceOnUse">
<stop stop-color="#691C00"/>
<stop offset="1" stop-color="#FFF1CC"/>
</linearGradient>
<radialGradient id="paint21_radial_1685_11459" cx="0" cy="0" r="1" gradientUnits="userSpaceOnUse" gradientTransform="translate(56.0317 8.47581) scale(14.0932 14.2797)">
<stop stop-color="#691C00"/>
<stop offset="1" stop-color="#FFF1CC"/>
</radialGradient>
<linearGradient id="paint22_linear_1685_11459" x1="56" y1="2.05716" x2="56" y2="10.2624" gradientUnits="userSpaceOnUse">
<stop offset="0.01" stop-color="#F2B100"/>
<stop offset="1" stop-color="#ED480B"/>
</linearGradient>
<linearGradient id="paint23_linear_1685_11459" x1="56" y1="1.77663" x2="59.7837" y2="1.77663" gradientUnits="userSpaceOnUse">
<stop offset="0.01" stop-color="#F2B100"/>
<stop offset="1" stop-color="#ED480B"/>
</linearGradient>
<linearGradient id="paint24_linear_1685_11459" x1="56" y1="1.77663" x2="52.2163" y2="1.77663" gradientUnits="userSpaceOnUse">
<stop offset="0.01" stop-color="#F2B100"/>
<stop offset="1" stop-color="#ED480B"/>
</linearGradient>
<linearGradient id="paint25_linear_1685_11459" x1="56" y1="9.73053" x2="50.1975" y2="9.73053" gradientUnits="userSpaceOnUse">
<stop offset="0.06" stop-color="#BC4408"/>
<stop offset="1" stop-color="#7A1C0B"/>
</linearGradient>
<linearGradient id="paint26_linear_1685_11459" x1="56" y1="554.234" x2="61.8024" y2="554.234" gradientUnits="userSpaceOnUse">
<stop offset="0.06" stop-color="#BC4408"/>
<stop offset="1" stop-color="#7A1C0B"/>
</linearGradient>
<linearGradient id="paint27_linear_1685_11459" x1="55.9423" y1="2.86953" x2="58.5643" y2="5.32472" gradientUnits="userSpaceOnUse">
<stop stop-color="#7A1C0B"/>
<stop offset="0.94" stop-color="#BC4408"/>
</linearGradient>
<radialGradient id="paint28_radial_1685_11459" cx="0" cy="0" r="1" gradientUnits="userSpaceOnUse" gradientTransform="translate(57.7482 2.33574) scale(3.9253 4.83391)">
<stop stop-color="#33FF33"/>
<stop offset="1" stop-color="#00DE00"/>
</radialGradient>
<radialGradient id="paint29_radial_1685_11459" cx="0" cy="0" r="1" gradientUnits="userSpaceOnUse" gradientTransform="translate(55.8287 4.75971) scale(1.99452 2.4562)">
<stop stop-color="#33FF33"/>
<stop offset="1" stop-color="#00DE00"/>
</radialGradient>
<linearGradient id="paint30_linear_1685_11459" x1="56" y1="4.69866" x2="59.1954" y2="4.69866" gradientUnits="userSpaceOnUse">
<stop stop-color="#400900"/>
<stop offset="1" stop-color="#FB8A77"/>
</linearGradient>
<linearGradient id="paint31_linear_1685_11459" x1="56" y1="89.083" x2="56" y2="97.2824" gradientUnits="userSpaceOnUse">
<stop offset="0.01" stop-color="#F2B100"/>
<stop offset="1" stop-color="#ED480B"/>
</linearGradient>
<linearGradient id="paint32_linear_1685_11459" x1="56" y1="89.2642" x2="60.6892" y2="89.2642" gradientUnits="userSpaceOnUse">
<stop offset="0.01" stop-color="#F2B100"/>
<stop offset="1" stop-color="#ED480B"/>
</linearGradient>
<linearGradient id="paint33_linear_1685_11459" x1="56" y1="89.2642" x2="51.3107" y2="89.2642" gradientUnits="userSpaceOnUse">
<stop offset="0.01" stop-color="#F2B100"/>
<stop offset="1" stop-color="#ED480B"/>
</linearGradient>
<linearGradient id="paint34_linear_1685_11459" x1="-543.931" y1="96.7506" x2="-544.507" y2="96.7506" gradientUnits="userSpaceOnUse">
<stop offset="0.06" stop-color="#BC4408"/>
<stop offset="1" stop-color="#7A1C0B"/>
</linearGradient>
<linearGradient id="paint35_linear_1685_11459" x1="56" y1="96.7506" x2="61.8024" y2="96.7506" gradientUnits="userSpaceOnUse">
<stop offset="0.06" stop-color="#BC4408"/>
<stop offset="1" stop-color="#7A1C0B"/>
</linearGradient>
<linearGradient id="paint36_linear_1685_11459" x1="55.9423" y1="89.8896" x2="58.5644" y2="92.3506" gradientUnits="userSpaceOnUse">
<stop stop-color="#7A1C0B"/>
<stop offset="0.94" stop-color="#BC4408"/>
</linearGradient>
<radialGradient id="paint37_radial_1685_11459" cx="0" cy="0" r="1" gradientUnits="userSpaceOnUse" gradientTransform="translate(211.296 89.6231) scale(0.187455 0.230846)">
<stop stop-color="#33FF33"/>
<stop offset="1" stop-color="#00DE00"/>
</radialGradient>
<radialGradient id="paint38_radial_1685_11459" cx="0" cy="0" r="1" gradientUnits="userSpaceOnUse" gradientTransform="translate(55.8287 92.0471) scale(1.99452 2.4562)">
<stop stop-color="#33FF33"/>
<stop offset="1" stop-color="#00DE00"/>
</radialGradient>
<linearGradient id="paint39_linear_1685_11459" x1="308.724" y1="91.7246" x2="309.301" y2="91.7246" gradientUnits="userSpaceOnUse">
<stop stop-color="#400900"/>
<stop offset="1" stop-color="#FB8A77"/>
</linearGradient>
<linearGradient id="paint40_linear_1685_11459" x1="70.5984" y1="88.0896" x2="70.5984" y2="96.137" gradientUnits="userSpaceOnUse">
<stop stop-color="#F2B100"/>
<stop offset="1" stop-color="#ED480B"/>
</linearGradient>
<linearGradient id="paint41_linear_1685_11459" x1="70.6215" y1="88.5746" x2="70.6215" y2="97.4286" gradientUnits="userSpaceOnUse">
<stop stop-color="#A32100"/>
<stop offset="1" stop-color="#D36C05"/>
</linearGradient>
<linearGradient id="paint42_linear_1685_11459" x1="60.026" y1="90.4974" x2="61.0119" y2="89.6395" gradientUnits="userSpaceOnUse">
<stop offset="0.06" stop-color="#BC4408"/>
<stop offset="1" stop-color="#7A1C0B"/>
</linearGradient>
<linearGradient id="paint43_linear_1685_11459" x1="67.2588" y1="96.2306" x2="62.1996" y2="91.7557" gradientUnits="userSpaceOnUse">
<stop stop-color="#7A1C0B"/>
<stop offset="0.94" stop-color="#BC4408"/>
</linearGradient>
<linearGradient id="paint44_linear_1685_11459" x1="74.6071" y1="89.422" x2="78.3242" y2="90.0316" gradientUnits="userSpaceOnUse">
<stop stop-color="#7A1C0B"/>
<stop offset="0.94" stop-color="#BC4408"/>
</linearGradient>
<linearGradient id="paint45_linear_1685_11459" x1="55.7795" y1="177.593" x2="55.66" y2="178.564" gradientUnits="userSpaceOnUse">
<stop stop-color="#FFF7C4"/>
<stop offset="1" stop-color="white"/>
</linearGradient>
<linearGradient id="paint46_linear_1685_11459" x1="-53.7902" y1="-619.047" x2="-53.6836" y2="-618.498" gradientUnits="userSpaceOnUse">
<stop stop-color="#FFF7C4"/>
<stop offset="1" stop-color="white"/>
</linearGradient>
<linearGradient id="paint47_linear_1685_11459" x1="81.9784" y1="88.3759" x2="72.9344" y2="88.3759" gradientUnits="userSpaceOnUse">
<stop stop-color="#7A1C0B"/>
<stop offset="0.94" stop-color="#BC4408"/>
</linearGradient>
<linearGradient id="paint48_linear_1685_11459" x1="41.4823" y1="-1.16241e-05" x2="41.4823" y2="-1.16241e-05" gradientUnits="userSpaceOnUse">
<stop stop-color="#F2B100"/>
<stop offset="1" stop-color="#ED480B"/>
</linearGradient>
<linearGradient id="paint49_linear_1685_11459" x1="41.4593" y1="88.5746" x2="41.4593" y2="2012.78" gradientUnits="userSpaceOnUse">
<stop stop-color="#A32100"/>
<stop offset="1" stop-color="#D36C05"/>
</linearGradient>
<linearGradient id="paint50_linear_1685_11459" x1="52.049" y1="90.4974" x2="51.0631" y2="89.6395" gradientUnits="userSpaceOnUse">
<stop offset="0.06" stop-color="#BC4408"/>
<stop offset="1" stop-color="#7A1C0B"/>
</linearGradient>
<linearGradient id="paint51_linear_1685_11459" x1="44.8219" y1="96.2306" x2="49.8754" y2="91.7557" gradientUnits="userSpaceOnUse">
<stop stop-color="#7A1C0B"/>
<stop offset="0.94" stop-color="#BC4408"/>
</linearGradient>
<linearGradient id="paint52_linear_1685_11459" x1="37.4679" y1="89.422" x2="33.7508" y2="90.0316" gradientUnits="userSpaceOnUse">
<stop stop-color="#7A1C0B"/>
<stop offset="0.94" stop-color="#BC4408"/>
</linearGradient>
<linearGradient id="paint53_linear_1685_11459" x1="42.4198" y1="138.853" x2="42.5384" y2="139.816" gradientUnits="userSpaceOnUse">
<stop stop-color="#FFF7C4"/>
<stop offset="1" stop-color="white"/>
</linearGradient>
<linearGradient id="paint54_linear_1685_11459" x1="94.5443" y1="-213.377" x2="94.4384" y2="-212.831" gradientUnits="userSpaceOnUse">
<stop stop-color="#FFF7C4"/>
<stop offset="1" stop-color="white"/>
</linearGradient>
<linearGradient id="paint55_linear_1685_11459" x1="30.1024" y1="88.3759" x2="39.1406" y2="88.3759" gradientUnits="userSpaceOnUse">
<stop stop-color="#7A1C0B"/>
<stop offset="0.94" stop-color="#BC4408"/>
</linearGradient>
<radialGradient id="paint56_radial_1685_11459" cx="0" cy="0" r="1" gradientUnits="userSpaceOnUse" gradientTransform="translate(66.2812 6.60487) rotate(-180) scale(11.9178 12.0756)">
<stop offset="0.01" stop-color="#F2B100"/>
<stop offset="1" stop-color="#ED480B"/>
</radialGradient>
<linearGradient id="paint57_linear_1685_11459" x1="70.9676" y1="12.7579" x2="70.9676" y2="5.21307" gradientUnits="userSpaceOnUse">
<stop stop-color="#A32100"/>
<stop offset="1" stop-color="#D36C05"/>
</linearGradient>
<linearGradient id="paint58_linear_1685_11459" x1="59.9452" y1="10.5313" x2="61.5496" y2="11.9247" gradientUnits="userSpaceOnUse">
<stop offset="0.06" stop-color="#BC4408"/>
<stop offset="1" stop-color="#7A1C0B"/>
</linearGradient>
<linearGradient id="paint59_linear_1685_11459" x1="68.2682" y1="6.15983" x2="63.3606" y2="10.508" gradientUnits="userSpaceOnUse">
<stop stop-color="#7A1C0B"/>
<stop offset="0.94" stop-color="#BC4408"/>
</linearGradient>
<linearGradient id="paint60_linear_1685_11459" x1="61.1276" y1="8.46825" x2="62.7611" y2="9.88462" gradientUnits="userSpaceOnUse">
<stop stop-color="#7A1C0B"/>
<stop offset="0.94" stop-color="#BC4408"/>
</linearGradient>
<linearGradient id="paint61_linear_1685_11459" x1="74.6186" y1="11.8287" x2="78.8782" y2="11.1337" gradientUnits="userSpaceOnUse">
<stop stop-color="#7A1C0B"/>
<stop offset="0.94" stop-color="#BC4408"/>
</linearGradient>
<linearGradient id="paint62_linear_1685_11459" x1="79.944" y1="4.25437" x2="80.906" y2="4.11485" gradientUnits="userSpaceOnUse">
<stop stop-color="white"/>
<stop offset="1" stop-color="#FFF7C4"/>
</linearGradient>
<radialGradient id="paint63_radial_1685_11459" cx="0" cy="0" r="1" gradientUnits="userSpaceOnUse" gradientTransform="translate(45.726 92.2886) scale(11.9178 12.0756)">
<stop offset="0.01" stop-color="#F2B100"/>
<stop offset="1" stop-color="#ED480B"/>
</radialGradient>
<linearGradient id="paint64_linear_1685_11459" x1="41.0267" y1="12.7579" x2="41.0267" y2="5.21307" gradientUnits="userSpaceOnUse">
<stop stop-color="#A32100"/>
<stop offset="1" stop-color="#D36C05"/>
</linearGradient>
<linearGradient id="paint65_linear_1685_11459" x1="52.049" y1="10.5313" x2="50.4447" y2="11.9247" gradientUnits="userSpaceOnUse">
<stop offset="0.06" stop-color="#BC4408"/>
<stop offset="1" stop-color="#7A1C0B"/>
</linearGradient>
<linearGradient id="paint66_linear_1685_11459" x1="43.726" y1="6.15983" x2="48.6394" y2="10.508" gradientUnits="userSpaceOnUse">
<stop stop-color="#7A1C0B"/>
<stop offset="0.94" stop-color="#BC4408"/>
</linearGradient>
<linearGradient id="paint67_linear_1685_11459" x1="50.8666" y1="8.46825" x2="49.2332" y2="9.88462" gradientUnits="userSpaceOnUse">
<stop stop-color="#7A1C0B"/>
<stop offset="0.94" stop-color="#BC4408"/>
</linearGradient>
<linearGradient id="paint68_linear_1685_11459" x1="37.3756" y1="11.8287" x2="33.116" y2="11.1337" gradientUnits="userSpaceOnUse">
<stop stop-color="#7A1C0B"/>
<stop offset="0.94" stop-color="#BC4408"/>
</linearGradient>
<linearGradient id="paint69_linear_1685_11459" x1="36.1724" y1="3.09216" x2="35.2104" y2="2.95265" gradientUnits="userSpaceOnUse">
<stop stop-color="white"/>
<stop offset="1" stop-color="#FFF7C4"/>
</linearGradient>
<linearGradient id="paint70_linear_1685_11459" x1="92.248" y1="21.4841" x2="91.8472" y2="21.7997" gradientUnits="userSpaceOnUse">
<stop stop-color="white"/>
<stop offset="1" stop-color="#FFF7C4"/>
</linearGradient>
<linearGradient id="paint71_linear_1685_11459" x1="39.6473" y1="89.4054" x2="39.3513" y2="89.8232" gradientUnits="userSpaceOnUse">
<stop stop-color="white"/>
<stop offset="1" stop-color="#FFF7C4"/>
</linearGradient>
<radialGradient id="paint72_radial_1685_11459" cx="0" cy="0" r="1" gradientUnits="userSpaceOnUse" gradientTransform="translate(46.997 6.24829) rotate(45.3767) scale(4.80935 1.4398)">
<stop stop-color="#F4A940"/>
<stop offset="0.09" stop-color="#E69F3C"/>
<stop offset="0.27" stop-color="#C28633"/>
<stop offset="0.51" stop-color="#885E23"/>
<stop offset="0.8" stop-color="#39270F"/>
<stop offset="1"/>
</radialGradient>
<radialGradient id="paint73_radial_1685_11459" cx="0" cy="0" r="1" gradientUnits="userSpaceOnUse" gradientTransform="translate(67.0485 4.17109) rotate(-45.3767) scale(4.80935 1.4398)">
<stop stop-color="#F4A940"/>
<stop offset="0.09" stop-color="#E69F3C"/>
<stop offset="0.27" stop-color="#C28633"/>
<stop offset="0.51" stop-color="#885E23"/>
<stop offset="0.8" stop-color="#39270F"/>
<stop offset="1"/>
</radialGradient>
<radialGradient id="paint74_radial_1685_11459" cx="0" cy="0" r="1" gradientUnits="userSpaceOnUse" gradientTransform="translate(93.0798 22.9131) rotate(45.3767) scale(4.80935 1.4398)">
<stop stop-color="#F4A940"/>
<stop offset="0.09" stop-color="#E69F3C"/>
<stop offset="0.27" stop-color="#C28633"/>
<stop offset="0.51" stop-color="#885E23"/>
<stop offset="0.8" stop-color="#39270F"/>
<stop offset="1"/>
</radialGradient>
<radialGradient id="paint75_radial_1685_11459" cx="0" cy="0" r="1" gradientUnits="userSpaceOnUse" gradientTransform="translate(34.6258 86.0299) rotate(30.3273) scale(4.79351 1.44456)">
<stop stop-color="#F4A940"/>
<stop offset="0.09" stop-color="#E69F3C"/>
<stop offset="0.27" stop-color="#C28633"/>
<stop offset="0.51" stop-color="#885E23"/>
<stop offset="0.8" stop-color="#39270F"/>
<stop offset="1"/>
</radialGradient>
<radialGradient id="paint76_radial_1685_11459" cx="0" cy="0" r="1" gradientUnits="userSpaceOnUse" gradientTransform="translate(41.7358 90.1945) rotate(39.9304) scale(4.80337 1.44159)">
<stop stop-color="#F4A940"/>
<stop offset="0.09" stop-color="#E69F3C"/>
<stop offset="0.27" stop-color="#C28633"/>
<stop offset="0.51" stop-color="#885E23"/>
<stop offset="0.8" stop-color="#39270F"/>
<stop offset="1"/>
</radialGradient>
<radialGradient id="paint77_radial_1685_11459" cx="0" cy="0" r="1" gradientUnits="userSpaceOnUse" gradientTransform="translate(72.333 87.8526) rotate(-39.9304) scale(4.80338 1.44159)">
<stop stop-color="#F4A940"/>
<stop offset="0.09" stop-color="#E69F3C"/>
<stop offset="0.27" stop-color="#C28633"/>
<stop offset="0.51" stop-color="#885E23"/>
<stop offset="0.8" stop-color="#39270F"/>
<stop offset="1"/>
</radialGradient>
<radialGradient id="paint78_radial_1685_11459" cx="0" cy="0" r="1" gradientUnits="userSpaceOnUse" gradientTransform="translate(10.036 47.5308) scale(2.69358 2.72924)">
<stop stop-color="#F4A940"/>
<stop offset="0.09" stop-color="#E69F3C"/>
<stop offset="0.27" stop-color="#C28633"/>
<stop offset="0.51" stop-color="#885E23"/>
<stop offset="0.8" stop-color="#39270F"/>
<stop offset="1"/>
</radialGradient>
<radialGradient id="paint79_radial_1685_11459" cx="0" cy="0" r="1" gradientUnits="userSpaceOnUse" gradientTransform="translate(101.964 47.5308) scale(2.69358 2.72924)">
<stop stop-color="#F4A940"/>
<stop offset="0.09" stop-color="#E69F3C"/>
<stop offset="0.27" stop-color="#C28633"/>
<stop offset="0.51" stop-color="#885E23"/>
<stop offset="0.8" stop-color="#39270F"/>
<stop offset="1"/>
</radialGradient>
<clipPath id="clip0_1685_11459">
<rect width="112" height="100" fill="white"/>
</clipPath>
</defs>
</svg>
