<svg width="157" height="139" viewBox="0 0 157 139" fill="none" xmlns="http://www.w3.org/2000/svg">
<g filter="url(#filter0_i_1685_11454)">
<circle cx="78.4962" cy="69.5" r="53.5" fill="url(#paint0_radial_1685_11454)"/>
</g>
<path d="M150.706 57.3271C148.183 55.2475 144.86 53.899 141.004 53.7284C141.004 53.7284 141.004 53.7284 140.995 53.7284C133.977 25.5888 108.662 4.75222 78.4962 4.71973C48.3301 4.7441 23.015 25.5888 15.997 53.7202C15.997 53.7202 15.997 53.7202 15.9889 53.7202C12.1323 53.8908 8.80921 55.2393 6.2866 57.3189C-1.88762 64.0614 -1.49144 73.7445 4.03889 80.1945C6.94959 83.5901 11.2833 85.0198 15.7949 84.6868C15.8111 84.6786 15.8272 84.6624 15.8434 84.6543C22.627 113.111 48.1037 134.272 78.5043 134.297C108.905 134.272 134.374 113.111 141.165 84.6543C141.181 84.6624 141.198 84.6786 141.214 84.6868C145.717 85.028 150.051 83.5901 152.97 80.1945C158.5 73.7445 158.896 64.0614 150.722 57.3189L150.706 57.3271ZM140.09 75.2392C138.934 73.8745 139.079 70.5764 140.745 70.5195C141.933 72.1361 146.065 71.5187 144.957 67.725C144.246 65.2799 140.591 63.9964 136.783 65.7836C130.177 68.8948 129.401 78.3667 134.665 82.4853C128.803 108.228 105.889 127.44 78.4962 127.465C51.1033 127.44 28.1896 108.228 22.3278 82.4853C27.5913 78.3667 26.8151 68.8948 20.2095 65.7836C16.4013 63.9883 12.7467 65.2799 12.0352 67.725C10.9276 71.5187 15.0591 72.1361 16.2477 70.5195C17.9051 70.5682 18.0507 73.8745 16.9026 75.2392C13.1672 79.6502 6.38362 74.6706 8.57473 66.6771C10.1271 61.0395 14.5578 59.6097 18.5277 60.0078C18.5762 59.7235 18.6328 59.4392 18.6813 59.163L21.5435 60.6252C25.7964 32.8593 49.6722 11.5921 78.4962 11.5597C107.32 11.584 131.196 32.8593 135.449 60.6252L138.311 59.163C138.36 59.4392 138.408 59.7153 138.465 60.0078C142.443 59.6016 146.865 61.0313 148.418 66.6771C150.617 74.6625 143.833 79.6502 140.09 75.2392Z" fill="url(#paint1_linear_1685_11454)"/>
<path style="mix-blend-mode:multiply" opacity="0.6" d="M78.4963 134.305C93.2196 134.288 106.795 129.317 117.645 120.958L109.891 118.098C100.86 124.012 90.0825 127.457 78.4963 127.465C65.867 127.457 54.1838 123.362 44.6917 116.425L36.6792 118.773C47.9339 128.44 62.5359 134.28 78.5043 134.297L78.4963 134.305Z" fill="url(#paint2_radial_1685_11454)"/>
<path style="mix-blend-mode:multiply" opacity="0.6" d="M4.03889 80.2026C0.562219 76.149 -0.885046 70.8119 0.554134 65.7347C2.26821 70.0077 5.33254 72.3066 8.71218 73.3301C10.3373 76.9613 14.3557 78.2367 16.8945 75.2392C17.2502 74.8167 17.4847 74.2156 17.5817 73.582C20.5895 72.9565 24.4866 69.8452 24.4866 69.8452C27.1062 74.8005 25.57 80.0888 22.3197 82.5015L15.7868 84.7029C11.2833 85.0441 6.94959 83.6063 4.0308 80.2107L4.03889 80.2026Z" fill="url(#paint3_linear_1685_11454)"/>
<path d="M18.9239 57.8307L21.5435 60.6251C18.5115 59.5122 10.6607 58.8867 8.47771 66.8314C6.27851 74.8168 13.2238 79.6502 16.9592 75.2392C18.1154 73.8745 17.9698 70.5763 16.3043 70.5195C16.4417 70.1702 16.563 69.7965 16.5387 69.2197C21.0746 69.8452 20.2256 77.2294 14.9944 78.4317C11.5501 79.2278 8.89814 77.4812 6.90108 75.1904C1.95289 69.5203 6.70703 56.0923 18.9077 57.8388L18.9239 57.8307Z" fill="url(#paint4_linear_1685_11454)"/>
<path d="M23.9772 69.0004C27.1143 73.2408 25.7964 80.3163 22.3197 82.4853C22.3197 82.4853 20.7835 83.0945 19.4009 83.4682C22.4086 81.7948 27.0739 74.5081 23.9772 69.0004Z" fill="url(#paint5_linear_1685_11454)"/>
<path style="mix-blend-mode:multiply" opacity="0.6" d="M16.6519 75.4992C16.7328 75.4099 16.8136 75.3205 16.8945 75.2311C18.0507 73.8664 17.9051 70.5683 16.2396 70.5114C16.377 70.1621 16.4983 69.7884 16.4741 69.2117C19.6597 69.6503 20.1852 73.4115 18.4145 76.0354L16.6519 75.4992Z" fill="url(#paint6_linear_1685_11454)"/>
<path style="mix-blend-mode:multiply" opacity="0.6" d="M10.2565 63.0865L8.42111 61.0638C11.3237 58.0906 15.9 57.3189 18.932 57.8307L21.5516 60.6251C19.7243 59.8453 13.5148 59.0817 10.2646 63.0865H10.2565Z" fill="url(#paint7_linear_1685_11454)"/>
<g style="mix-blend-mode:screen" opacity="0.5">
<path d="M2.07417 62.1686C3.08483 60.4545 4.46741 58.8136 6.27851 57.3189C7.20832 56.5553 8.24324 55.8973 9.37518 55.353C5.58318 58.8055 5.34871 62.0711 10.7254 59.2523C7.28109 61.1613 6.22192 64.1345 5.6236 65.7267C6.39171 59.1792 5.31636 57.4407 2.07417 62.1686Z" fill="#F9A346"/>
</g>
<g style="mix-blend-mode:screen" opacity="0.5">
<path d="M14.0727 68.1962C15.0187 67.2051 16.563 68.1962 16.4821 69.2116C16.5145 69.7071 16.4175 70.1539 16.28 70.5195C16.2719 70.5195 16.2558 70.5195 16.2477 70.5195C15.0591 72.136 10.9276 71.5187 12.0352 67.725C12.7467 65.2799 16.6762 63.8339 20.2095 65.7835C20.5005 65.946 20.7754 66.1166 21.0422 66.2953C18.3256 64.9549 14.2263 65.3448 14.0727 68.1962Z" fill="#F9A346"/>
</g>
<path d="M13.3208 66.4984C13.4016 66.6365 13.7978 66.5553 14.2102 66.3197C14.6225 66.0841 14.8893 65.7754 14.8085 65.6373C14.7276 65.4992 14.3315 65.5805 13.9191 65.8161C13.5068 66.0516 13.2399 66.3603 13.3208 66.4984Z" fill="url(#paint8_linear_1685_11454)"/>
<path style="mix-blend-mode:multiply" opacity="0.6" d="M152.954 80.2026C156.43 76.149 157.878 70.8119 156.438 65.7347C154.724 70.0077 151.66 72.3066 148.28 73.3301C146.655 76.9613 142.637 78.2367 140.098 75.2392C139.742 74.8167 139.508 74.2156 139.411 73.582C136.403 72.9565 132.506 69.8452 132.506 69.8452C129.886 74.8005 131.423 80.0888 134.673 82.5015L141.206 84.7029C145.709 85.0441 150.043 83.6063 152.962 80.2107L152.954 80.2026Z" fill="url(#paint9_linear_1685_11454)"/>
<path d="M138.061 57.8307L135.441 60.6251C138.473 59.5122 146.324 58.8867 148.507 66.8314C150.706 74.8168 143.761 79.6502 140.025 75.2392C138.869 73.8745 139.015 70.5763 140.68 70.5195C140.543 70.1702 140.421 69.7965 140.446 69.2197C135.91 69.8452 136.759 77.2294 141.99 78.4317C145.434 79.2278 148.086 77.4812 150.083 75.1904C155.032 69.5203 150.277 56.0923 138.077 57.8388L138.061 57.8307Z" fill="url(#paint10_linear_1685_11454)"/>
<path d="M133.015 69.0004C129.878 73.2408 131.196 80.3163 134.673 82.4853C134.673 82.4853 136.209 83.0945 137.592 83.4682C134.584 81.7948 129.919 74.5081 133.015 69.0004Z" fill="url(#paint11_linear_1685_11454)"/>
<path style="mix-blend-mode:multiply" opacity="0.6" d="M140.333 75.4992C140.252 75.4099 140.171 75.3205 140.09 75.2311C138.934 73.8664 139.079 70.5683 140.745 70.5114C140.607 70.1621 140.486 69.7884 140.51 69.2117C137.325 69.6503 136.799 73.4115 138.57 76.0354L140.333 75.4992Z" fill="url(#paint12_linear_1685_11454)"/>
<path style="mix-blend-mode:multiply" opacity="0.6" d="M146.736 63.0865L148.571 61.0638C145.669 58.0906 141.093 57.3189 138.061 57.8307L135.441 60.6251C137.268 59.8453 143.478 59.0817 146.728 63.0865H146.736Z" fill="url(#paint13_linear_1685_11454)"/>
<g style="mix-blend-mode:screen" opacity="0.5">
<path d="M154.91 62.1686C153.9 60.4545 152.517 58.8136 150.706 57.3189C149.776 56.5553 148.741 55.8973 147.609 55.353C151.401 58.8055 151.636 62.0711 146.259 59.2523C149.703 61.1613 150.763 64.1345 151.361 65.7267C150.593 59.1792 151.668 57.4407 154.91 62.1686Z" fill="#F9A346"/>
</g>
<g style="mix-blend-mode:screen" opacity="0.5">
<path d="M142.92 68.1962C141.974 67.2051 140.43 68.1962 140.51 69.2116C140.478 69.7071 140.575 70.1539 140.713 70.5195C140.721 70.5195 140.737 70.5195 140.745 70.5195C141.933 72.136 146.065 71.5187 144.957 67.725C144.246 65.2799 140.316 63.8339 136.783 65.7835C136.492 65.946 136.217 66.1166 135.95 66.2953C138.667 64.9549 142.766 65.3448 142.92 68.1962Z" fill="#F9A346"/>
</g>
<path d="M143.672 66.4984C143.591 66.6365 143.195 66.5553 142.782 66.3197C142.37 66.0841 142.103 65.7754 142.184 65.6373C142.265 65.4992 142.661 65.5805 143.073 65.8161C143.486 66.0516 143.753 66.3603 143.672 66.4984Z" fill="url(#paint14_linear_1685_11454)"/>
<path style="mix-blend-mode:multiply" opacity="0.8" d="M28.4322 98.2123C25.6751 93.3626 23.5972 88.0824 22.3278 82.4854L15.8434 84.6624C17.3392 90.9418 19.7486 96.8638 22.918 102.282L28.4403 98.2123H28.4322Z" fill="url(#paint15_linear_1685_11454)"/>
<path style="mix-blend-mode:multiply" opacity="0.8" d="M128.665 98.2123C131.423 93.3626 133.5 88.0824 134.77 82.4854L141.254 84.6624C139.758 90.9418 137.349 96.8638 134.18 102.282L128.657 98.2123H128.665Z" fill="url(#paint16_linear_1685_11454)"/>
<g style="mix-blend-mode:screen" opacity="0.5">
<path d="M118.51 18.7489C119.448 23.6311 126.984 35.8568 136.152 40.5928C131.916 32.0713 125.868 24.6221 118.51 18.7489Z" fill="#F9A346"/>
</g>
<path d="M78.4962 8.48896C48.9526 8.51333 24.3491 29.7398 18.9239 57.8388L21.5435 60.6333C25.7964 32.8592 49.6722 11.5921 78.4962 11.5596C107.32 11.584 131.196 32.8592 135.449 60.6251L138.069 57.8307C132.643 29.7317 108.04 8.50521 78.4962 8.48083V8.48896Z" fill="url(#paint17_linear_1685_11454)"/>
<path d="M78.4963 127.473C51.1033 127.448 28.1815 108.237 22.3197 82.4934C21.4384 82.8427 20.4439 83.2164 19.4009 83.4682C25.6751 110.438 49.745 130.519 78.4963 130.543C107.239 130.519 131.309 110.43 137.592 83.4682C136.549 83.2164 135.554 82.8427 134.673 82.4934C128.811 108.237 105.889 127.448 78.4963 127.473Z" fill="url(#paint18_linear_1685_11454)"/>
<path style="mix-blend-mode:multiply" opacity="0.6" d="M27.6964 96.8801C25.3032 92.4041 23.4759 87.5706 22.3197 82.4854C21.4384 82.8347 20.4439 83.2083 19.4009 83.4602C20.6056 88.6348 22.4652 93.5495 24.8827 98.123L27.6964 96.8801Z" fill="url(#paint19_linear_1685_11454)"/>
<path style="mix-blend-mode:multiply" opacity="0.6" d="M129.288 96.8801C131.681 92.4041 133.509 87.5706 134.665 82.4854C135.546 82.8347 136.541 83.2083 137.584 83.4602C136.379 88.6348 134.519 93.5495 132.102 98.123L129.288 96.8801Z" fill="url(#paint20_linear_1685_11454)"/>
<path style="mix-blend-mode:multiply" opacity="0.6" d="M100.415 12.5994C93.6157 9.95118 86.2258 8.48896 78.4962 8.48083C70.7991 8.48083 63.4415 9.93493 56.666 12.5669L58.7843 15.0527C64.9372 12.7944 71.5752 11.5596 78.5043 11.5515C85.4658 11.5515 92.128 12.8025 98.3052 15.0771L100.424 12.5913L100.415 12.5994Z" fill="url(#paint21_radial_1685_11454)"/>
<path d="M86.6137 9.01701L78.496 18.034L70.3784 9.01701L78.496 0L86.6137 9.01701Z" fill="url(#paint22_linear_1685_11454)"/>
<path d="M78.4962 0L83.8002 4.94717L82.8866 4.87406L78.4962 0Z" fill="url(#paint23_linear_1685_11454)"/>
<path d="M78.4962 0L73.1842 4.94717L74.1059 4.87406L78.4962 0Z" fill="url(#paint24_linear_1685_11454)"/>
<path d="M70.3625 12.1445L70.3786 9.01697L78.4962 18.034L70.3625 12.1445Z" fill="url(#paint25_linear_1685_11454)"/>
<path d="M86.63 12.1445L86.6139 9.01697L78.4962 18.034L86.63 12.1445Z" fill="url(#paint26_linear_1685_11454)"/>
<g style="mix-blend-mode:screen">
<path d="M75.626 3.18438L78.4962 0L83.8972 6.00321L78.4558 0.763602L75.626 3.18438Z" fill="#F9A346"/>
</g>
<path d="M83.5738 9.01706C83.5738 9.01706 79.9112 12.9163 78.4962 14.6547C77.0813 12.9163 75.4319 11.0885 73.4187 9.01706C75.4319 6.9537 78.4962 3.37939 78.4962 3.37939L83.5738 9.01706Z" fill="#BC4408"/>
<path d="M78.4962 3.37939V4.04552L82.9755 9.01706H83.5738L78.4962 3.37939Z" fill="url(#paint27_linear_1685_11454)"/>
<g style="mix-blend-mode:screen">
<path d="M73.4187 9.01697H74.017L78.4962 13.9885V14.6546L73.4187 9.01697Z" fill="#F9A346"/>
</g>
<path d="M82.9755 9.01695C82.9755 9.01695 79.7495 12.4532 78.4962 13.9885C77.2511 12.4532 75.7958 10.8366 74.017 9.01695C75.7877 7.1973 78.4962 4.04541 78.4962 4.04541L82.9755 9.01695Z" fill="url(#paint28_radial_1685_11454)"/>
<g style="mix-blend-mode:multiply" opacity="0.3">
<path d="M78.4962 13.9885L74.017 9.01695L77.0328 8.85448C77.0328 8.85448 79.2724 8.81386 80.6065 8.85448C82.2074 8.89509 82.9674 9.01695 82.9674 9.01695L78.4882 13.9885H78.4962Z" fill="#622170"/>
</g>
<path d="M80.6065 8.85455C79.895 9.58566 79.3209 10.2274 78.8197 10.8367C78.3184 10.2274 77.7362 9.57754 77.0328 8.85455C77.7443 8.12344 78.3184 7.48169 78.8197 6.87244C79.3209 7.48169 79.9031 8.13157 80.6065 8.85455Z" fill="url(#paint29_radial_1685_11454)"/>
<g style="mix-blend-mode:multiply" opacity="0.5">
<path d="M74.017 9.01696L77.0328 8.85449L78.8197 10.8366L78.4962 13.9885L74.017 9.01696Z" fill="#217021"/>
</g>
<g style="mix-blend-mode:screen">
<path d="M78.4962 4.04541L78.8197 6.86424L80.6065 8.85448L82.9755 9.01695L78.4962 4.04541Z" fill="url(#paint30_linear_1685_11454)"/>
</g>
<path d="M78.8197 6.86426L80.7359 8.39959L82.9755 9.01697L80.6065 8.8545L78.8197 6.86426Z" fill="#ECFC1D"/>
<path d="M86.6137 129.983L78.496 139L70.3784 129.983L78.496 120.966L86.6137 129.983Z" fill="url(#paint31_linear_1685_11454)"/>
<path d="M78.4962 120.966L85.0696 127.091L84.1074 127.197L78.4962 120.966Z" fill="url(#paint32_linear_1685_11454)"/>
<path d="M78.4962 120.966L71.9229 127.091L72.8851 127.197L78.4962 120.966Z" fill="url(#paint33_linear_1685_11454)"/>
<path d="M70.3625 133.793L70.3786 129.983L78.4962 139L70.3625 133.793Z" fill="url(#paint34_linear_1685_11454)"/>
<path d="M86.63 133.793L86.6139 129.983L78.4962 139L86.63 133.793Z" fill="url(#paint35_linear_1685_11454)"/>
<g style="mix-blend-mode:screen">
<path d="M75.626 124.142L78.4962 120.966L83.8972 126.961L78.4558 121.73L75.626 124.142Z" fill="#F9A346"/>
</g>
<path d="M83.5738 129.983C83.5738 129.983 79.9112 133.882 78.4962 135.621C77.0813 133.882 75.4319 132.054 73.4187 129.983C75.4319 127.92 78.4962 124.345 78.4962 124.345L83.5738 129.983Z" fill="#BC4408"/>
<path d="M78.4962 124.345V125.011L82.9755 129.983H83.5738L78.4962 124.345Z" fill="url(#paint36_linear_1685_11454)"/>
<g style="mix-blend-mode:screen">
<path d="M73.4187 129.983H74.017L78.4962 134.954V135.621L73.4187 129.983Z" fill="#F9A346"/>
</g>
<path d="M82.9755 129.983C82.9755 129.983 79.7495 133.419 78.4962 134.954C77.2511 133.419 75.7958 131.803 74.017 129.983C75.7877 128.163 78.4962 125.011 78.4962 125.011L82.9755 129.983Z" fill="url(#paint37_radial_1685_11454)"/>
<g style="mix-blend-mode:multiply" opacity="0.3">
<path d="M78.4962 134.954L74.017 129.983L77.0328 129.82C77.0328 129.82 79.2724 129.78 80.6065 129.82C82.2074 129.861 82.9674 129.983 82.9674 129.983L78.4882 134.954H78.4962Z" fill="#622170"/>
</g>
<path d="M80.6065 129.82C79.895 130.552 79.3209 131.193 78.8197 131.803C78.3184 131.193 77.7362 130.543 77.0328 129.82C77.7443 129.089 78.3184 128.448 78.8197 127.838C79.3209 128.448 79.9031 129.098 80.6065 129.82Z" fill="url(#paint38_radial_1685_11454)"/>
<g style="mix-blend-mode:multiply" opacity="0.5">
<path d="M74.017 129.983L77.0328 129.82L78.8197 131.803L78.4962 134.954L74.017 129.983Z" fill="#217021"/>
</g>
<g style="mix-blend-mode:screen">
<path d="M78.4962 125.011L78.8197 127.83L80.6065 129.82L82.9755 129.983L78.4962 125.011Z" fill="url(#paint39_linear_1685_11454)"/>
</g>
<path d="M78.8197 127.83L80.7359 129.366L82.9755 129.983L80.6065 129.82L78.8197 127.83Z" fill="#ECFC1D"/>
<g style="mix-blend-mode:screen" opacity="0.5">
<path d="M38.8218 111.535C41.3282 117.367 46.1551 122.03 57.4018 123.582C57.4018 123.533 57.4018 123.492 57.3937 123.444C50.4403 120.69 44.15 116.62 38.8299 111.535H38.8218Z" fill="#F9A346"/>
</g>
<path d="M114.904 124.532L103.747 125.637L93.8098 135.426L85.4253 126.173L84.1155 126.165L83.0078 125.158L85.0777 121.624L94.2302 128.797L102.235 121.153L114.904 124.532Z" fill="url(#paint40_linear_1685_11454)"/>
<path d="M114.904 124.532L103.35 123.111L94.1574 131.998L85.2879 123.582L83.0725 125.206L84.1155 126.165L85.4253 126.173L93.8098 135.426L103.747 125.637L114.904 124.532Z" fill="url(#paint41_linear_1685_11454)"/>
<path d="M85.2879 123.582L85.4253 126.173L84.0913 126.181L83.0725 125.206L85.2879 123.582Z" fill="url(#paint42_linear_1685_11454)"/>
<path d="M93.8098 135.426L94.1574 131.998L85.2879 123.582L85.4253 126.173L93.8098 135.426Z" fill="url(#paint43_linear_1685_11454)"/>
<path d="M103.35 123.111L103.747 125.637L114.904 124.532L103.35 123.111Z" fill="url(#paint44_linear_1685_11454)"/>
<g style="mix-blend-mode:screen" opacity="0.5">
<path d="M100.731 122.599C102.873 121.104 102.841 123.119 99.3725 126.295C96.7043 128.748 94.9175 128.155 95.9039 127.213C96.8903 126.271 100.739 122.599 100.739 122.599H100.731Z" fill="#F9A346"/>
</g>
<path d="M99.6393 123.988C99.7201 124.077 100.092 123.874 100.456 123.533C100.828 123.192 101.054 122.843 100.973 122.745C100.892 122.656 100.521 122.859 100.157 123.2C99.7929 123.541 99.5584 123.89 99.6393 123.988Z" fill="url(#paint45_linear_1685_11454)"/>
<path d="M99.0329 124.605C99.0975 124.67 99.2673 124.622 99.4129 124.483C99.5584 124.345 99.6231 124.183 99.5665 124.118C99.5018 124.053 99.332 124.102 99.1865 124.24C99.041 124.378 98.9763 124.54 99.0329 124.605Z" fill="url(#paint46_linear_1685_11454)"/>
<path style="mix-blend-mode:multiply" opacity="0.2" d="M102.235 121.153C103.868 121.795 103.811 122.461 103.35 123.111C106.714 123.549 114.904 124.532 114.904 124.532L102.235 121.153Z" fill="url(#paint47_linear_1685_11454)"/>
<g style="mix-blend-mode:screen">
<path d="M98.7418 127.57L94.1574 131.608C94.1574 131.608 89.848 127.912 89.9693 128.025C90.0905 128.139 94.1574 131.998 94.1574 131.998L98.7418 127.57Z" fill="#F9A346"/>
</g>
<g style="mix-blend-mode:screen" opacity="0.8">
<path d="M87.3011 123.37C89.185 125.637 88.9424 127.059 87.6084 125.791C89.0395 127.148 90.1067 128.155 90.1067 128.155C88.9829 126.238 88.7807 124.524 93.074 127.895C91.6672 126.774 87.3011 123.37 87.3011 123.37Z" fill="#F9A346"/>
</g>
<g style="mix-blend-mode:multiply" opacity="0.35">
<path d="M88.6595 133.5L88.0531 129.78L86.1368 126.961L91.5782 132.964L88.6595 133.5Z" fill="#7A1C0B"/>
</g>
<g style="mix-blend-mode:multiply" opacity="0.35">
<path d="M103.747 125.637L101.046 128.699L100.884 130.275L98.0384 131.258L103.747 125.637Z" fill="#7A1C0B"/>
</g>
<path d="M42.1933 124.532L53.3591 125.637L63.2878 135.426L71.6804 126.173L72.9902 126.165L74.0979 125.158L72.028 121.624L62.8674 128.797L54.863 121.153L42.1933 124.532Z" fill="url(#paint48_linear_1685_11454)"/>
<path d="M42.1933 124.532L53.7472 123.111L62.9402 131.998L71.8178 123.582L74.0332 125.206L72.9902 126.165L71.6804 126.173L63.2878 135.426L53.3591 125.637L42.1933 124.532Z" fill="url(#paint49_linear_1685_11454)"/>
<path d="M71.8178 123.582L71.6804 126.173L73.0144 126.181L74.0332 125.206L71.8178 123.582Z" fill="url(#paint50_linear_1685_11454)"/>
<path d="M63.2878 135.426L62.9402 131.998L71.8178 123.582L71.6804 126.173L63.2878 135.426Z" fill="url(#paint51_linear_1685_11454)"/>
<path d="M53.7472 123.111L53.3591 125.637L42.1933 124.532L53.7472 123.111Z" fill="url(#paint52_linear_1685_11454)"/>
<g style="mix-blend-mode:screen" opacity="0.5">
<path d="M56.3749 122.599C54.2323 121.104 54.2647 123.119 57.7333 126.295C60.4014 128.748 62.1882 128.155 61.2018 127.213C60.2154 126.271 56.3668 122.599 56.3668 122.599H56.3749Z" fill="#F9A346"/>
</g>
<path d="M57.4664 123.988C57.3856 124.077 57.0137 123.874 56.6498 123.533C56.2779 123.192 56.0515 122.843 56.1324 122.745C56.2132 122.648 56.5851 122.859 56.949 123.2C57.3209 123.541 57.5473 123.89 57.4664 123.988Z" fill="url(#paint53_linear_1685_11454)"/>
<path d="M58.0728 124.605C58.0081 124.67 57.8384 124.622 57.6928 124.483C57.5473 124.345 57.4826 124.183 57.5392 124.118C57.6039 124.053 57.7737 124.102 57.9192 124.24C58.0647 124.378 58.1294 124.54 58.0728 124.605Z" fill="url(#paint54_linear_1685_11454)"/>
<path style="mix-blend-mode:multiply" opacity="0.2" d="M54.863 121.153C53.2297 121.795 53.2863 122.461 53.7472 123.111C50.3837 123.549 42.1933 124.532 42.1933 124.532L54.863 121.153Z" fill="url(#paint55_linear_1685_11454)"/>
<g style="mix-blend-mode:screen">
<path d="M58.3558 127.57L62.9402 131.608C62.9402 131.608 67.2496 127.912 67.1283 128.025C67.0071 128.139 62.9402 131.998 62.9402 131.998L58.3558 127.57Z" fill="#F9A346"/>
</g>
<g style="mix-blend-mode:screen" opacity="0.8">
<path d="M69.7965 123.37C67.9126 125.637 68.1552 127.059 69.4893 125.791C68.0582 127.148 66.9909 128.155 66.9909 128.155C68.1148 126.238 68.3169 124.524 64.0236 127.895C65.4304 126.774 69.7965 123.37 69.7965 123.37Z" fill="#F9A346"/>
</g>
<g style="mix-blend-mode:multiply" opacity="0.35">
<path d="M68.4382 133.5L69.0446 129.78L70.9689 126.961L65.5194 132.964L68.4382 133.5Z" fill="#7A1C0B"/>
</g>
<g style="mix-blend-mode:multiply" opacity="0.35">
<path d="M53.3591 125.637L56.0596 128.699L56.2213 130.275L59.0592 131.258L53.3591 125.637Z" fill="#7A1C0B"/>
</g>
<g style="mix-blend-mode:multiply" opacity="0.35">
<path d="M65.0989 13.1762L61.404 10.1461L60.3286 11.2103L60.4014 11.259C60.0052 11.3809 59.6171 11.5109 59.229 11.6408L54.4668 16.7748L54.5557 16.7992C55.5745 16.328 56.6175 15.8894 57.6686 15.4751L61.2989 11.8845L63.6112 13.493L65.0989 13.168V13.1762Z" fill="#7A1C0B"/>
</g>
<g style="mix-blend-mode:multiply" opacity="0.35">
<path d="M91.9259 13.1599L95.5966 10.1461C95.5966 10.1461 97.3835 11.5109 97.7716 11.6408L102.534 16.7748L102.445 16.7992C101.426 16.328 100.383 15.8894 99.332 15.4751L95.7017 11.8845L93.357 13.5173L91.934 13.1518L91.9259 13.1599Z" fill="#7A1C0B"/>
</g>
<path d="M115.988 13.5011L104.709 13.1925L95.1681 3.78552L86.6867 13.1356L85.2717 13.1031L84.0832 14.0129L86.3309 17.7335L95.5885 10.1462L103.181 17.7335L115.988 13.5011Z" fill="url(#paint56_radial_1685_11454)"/>
<g style="mix-blend-mode:screen" opacity="0.8">
<path d="M98.6771 7.23804C99.9789 8.70838 101.03 10.4224 98.2648 9.90252C99.7282 11.2998 102.17 13.6718 102.17 13.6718C100.238 11.6166 100.108 8.64339 102.008 10.5118C100.998 9.52072 98.6852 7.23804 98.6852 7.23804H98.6771Z" fill="#F9A346"/>
</g>
<path d="M115.988 13.5011L104.304 15.7513L95.5158 7.24609L86.5411 15.7594L84.0832 14.0129L82.9674 14.809L86.3309 17.7334L95.5885 10.1462L103.181 17.7334L115.988 13.5011Z" fill="url(#paint57_linear_1685_11454)"/>
<path d="M86.5411 15.7595L86.3309 17.7335L82.9674 14.809L84.0832 14.0129L86.5411 15.7595Z" fill="url(#paint58_linear_1685_11454)"/>
<path d="M95.5886 10.1462L95.5158 7.24609L86.5411 15.7594L86.3309 17.7334L95.5886 10.1462Z" fill="url(#paint59_linear_1685_11454)"/>
<path style="mix-blend-mode:multiply" opacity="0.2" d="M90.3089 12.1932C88.2229 13.8667 87.6165 12.5182 88.5544 11.0803C86.816 13.0462 86.6867 13.1355 86.6867 13.1355L85.2717 13.1112L84.0832 14.0129L86.5492 15.7594L90.3089 12.1932Z" fill="url(#paint60_linear_1685_11454)"/>
<g style="mix-blend-mode:multiply" opacity="0.15">
<path d="M86.6867 13.1356L84.8836 14.5816L84.0832 14.013L85.2717 13.1031L86.6867 13.1356Z" fill="#7A1C0B"/>
</g>
<g style="mix-blend-mode:multiply" opacity="0.15">
<path d="M84.8836 14.5816L83.121 14.9634L82.9593 14.809C82.9593 14.809 83.8487 14.1998 84.0751 14.0129C84.164 14.0779 84.8755 14.5816 84.8755 14.5816H84.8836Z" fill="#7A1C0B"/>
</g>
<path d="M107.474 15.2802L104.304 15.7514L102.396 13.9073C103.819 15.2802 104.943 15.662 107.474 15.2802Z" fill="#F9A346"/>
<path d="M104.304 15.7513L103.181 17.7334L115.988 13.5011L104.304 15.7513Z" fill="url(#paint61_linear_1685_11454)"/>
<g style="mix-blend-mode:screen" opacity="0.5">
<path d="M95.1681 3.78552C95.0953 5.62142 93.8017 7.89598 91.4731 10.2843C90.0906 11.7059 87.8186 11.8927 89.282 10.2843C90.7455 8.67583 95.1681 3.79365 95.1681 3.79365V3.78552Z" fill="#F9A346"/>
</g>
<path d="M93.4136 6.27941C93.5106 6.36065 93.3085 6.74245 92.977 7.12425C92.6455 7.50605 92.2978 7.74975 92.2008 7.66852C92.1038 7.58728 92.3059 7.20548 92.6374 6.82368C92.9689 6.44188 93.3166 6.19818 93.4136 6.27941Z" fill="url(#paint62_linear_1685_11454)"/>
<path d="M40.9967 13.5011L52.2838 13.1925L61.8244 3.78552L70.3059 13.1356L71.7208 13.1031L72.9093 14.0129L70.6616 17.7335L61.404 10.1462L53.8119 17.7335L40.9967 13.5011Z" fill="url(#paint63_radial_1685_11454)"/>
<g style="mix-blend-mode:screen" opacity="0.8">
<path d="M58.3154 7.23804C57.0137 8.70838 55.9626 10.4224 58.7277 9.90252C57.2643 11.2998 54.8226 13.6718 54.8226 13.6718C56.7549 11.6166 56.8843 8.64339 54.9843 10.5118C55.9949 9.52072 58.3073 7.23804 58.3073 7.23804H58.3154Z" fill="#F9A346"/>
</g>
<path d="M40.9967 13.5011L52.68 15.7513L61.4767 7.24609L70.4514 15.7594L72.9093 14.0129L74.0251 14.809L70.6616 17.7334L61.404 10.1462L53.8119 17.7334L40.9967 13.5011Z" fill="url(#paint64_linear_1685_11454)"/>
<path d="M70.4514 15.7595L70.6616 17.7335L74.0251 14.809L72.9093 14.0129L70.4514 15.7595Z" fill="url(#paint65_linear_1685_11454)"/>
<path d="M61.404 10.1462L61.4767 7.24609L70.4514 15.7594L70.6616 17.7334L61.404 10.1462Z" fill="url(#paint66_linear_1685_11454)"/>
<path style="mix-blend-mode:multiply" opacity="0.2" d="M66.6837 12.1932C68.7697 13.8667 69.3761 12.5182 68.4382 11.0803C70.1765 13.0462 70.3059 13.1355 70.3059 13.1355L71.7208 13.1112L72.9093 14.0129L70.4433 15.7594L66.6837 12.1932Z" fill="url(#paint67_linear_1685_11454)"/>
<g style="mix-blend-mode:multiply" opacity="0.15">
<path d="M70.3059 13.1356L72.1089 14.5816L72.9093 14.013L71.7208 13.1031L70.3059 13.1356Z" fill="#7A1C0B"/>
</g>
<g style="mix-blend-mode:multiply" opacity="0.15">
<path d="M72.1089 14.5816L73.8715 14.9634L74.0332 14.809C74.0332 14.809 73.1438 14.1998 72.9174 14.0129C72.8285 14.0779 72.117 14.5816 72.117 14.5816H72.1089Z" fill="#7A1C0B"/>
</g>
<path d="M49.5186 15.2802L52.688 15.7514L54.5962 13.9073C53.1731 15.2802 52.0493 15.662 49.5186 15.2802Z" fill="#F9A346"/>
<path d="M52.68 15.7513L53.8119 17.7334L40.9967 13.5011L52.68 15.7513Z" fill="url(#paint68_linear_1685_11454)"/>
<g style="mix-blend-mode:screen" opacity="0.5">
<path d="M61.8244 3.78552C61.8972 5.62142 63.1908 7.89598 65.5194 10.2843C66.902 11.7059 69.1739 11.8927 67.7105 10.2843C66.2471 8.67583 61.8244 3.79365 61.8244 3.79365V3.78552Z" fill="#F9A346"/>
</g>
<path d="M63.5708 6.27941C63.4738 6.36065 63.6759 6.74245 64.0074 7.12425C64.3389 7.50605 64.6866 7.74975 64.7836 7.66852C64.8806 7.58728 64.6785 7.20548 64.347 6.82368C64.0155 6.44188 63.6679 6.19818 63.5708 6.27941Z" fill="url(#paint69_linear_1685_11454)"/>
<g style="mix-blend-mode:multiply" opacity="0.35">
<path d="M104.862 17.9852L107.943 16.1575L103.892 17.4978L104.862 17.9852Z" fill="#7A1C0B"/>
</g>
<g style="mix-blend-mode:multiply" opacity="0.35">
<path d="M52.1382 17.9852L49.0577 16.1575L53.1085 17.4978L52.1382 17.9852Z" fill="#7A1C0B"/>
</g>
<path d="M128.496 30.3573C127.631 29.2687 127.056 28.2939 127.21 28.1721C127.364 28.0502 128.188 28.8301 129.054 29.9186C129.919 31.0072 130.493 31.982 130.339 32.1038C130.185 32.2257 129.361 31.4458 128.496 30.3573Z" fill="url(#paint70_linear_1685_11454)"/>
<path d="M46.3977 118.724C45.7509 118.269 45.3143 117.765 45.4274 117.603C45.5406 117.44 46.1551 117.676 46.8019 118.139C47.4488 118.594 47.8854 119.098 47.7722 119.26C47.659 119.423 47.0445 119.187 46.3977 118.724Z" fill="url(#paint71_linear_1685_11454)"/>
<path style="mix-blend-mode:color-dodge" opacity="0.6" d="M59.4392 2.20958C58.655 2.99755 60.1427 5.76764 62.7623 8.39963C65.3819 11.0316 68.139 12.5263 68.9233 11.7384C69.7076 10.9504 68.2199 8.1803 65.6002 5.54831C62.9806 2.91632 60.2235 1.42161 59.4392 2.20958Z" fill="url(#paint72_radial_1685_11454)"/>
<path style="mix-blend-mode:color-dodge" opacity="0.6" d="M88.0692 11.7384C88.8535 12.5263 91.6106 11.0316 94.2302 8.39963C96.8498 5.76764 98.3375 2.99755 97.5533 2.20958C96.769 1.42161 94.0119 2.91632 91.3923 5.54831C88.7726 8.1803 87.2849 10.9504 88.0692 11.7384Z" fill="url(#paint73_radial_1685_11454)"/>
<path style="mix-blend-mode:color-dodge" opacity="0.6" d="M124.024 25.3695C123.24 26.1575 124.728 28.9276 127.348 31.5595C129.967 34.1915 132.724 35.6862 133.509 34.8983C134.293 34.1103 132.805 31.3402 130.185 28.7082C127.566 26.0762 124.809 24.5815 124.024 25.3695Z" fill="url(#paint74_radial_1685_11454)"/>
<path style="mix-blend-mode:color-dodge" opacity="0.6" d="M40.7946 115.06C40.2367 116.027 42.3955 118.318 45.5972 120.178C48.8071 122.038 51.8553 122.769 52.4131 121.803C52.971 120.836 50.8122 118.545 47.6105 116.685C44.4006 114.825 41.3525 114.094 40.7946 115.06Z" fill="url(#paint75_radial_1685_11454)"/>
<path style="mix-blend-mode:color-dodge" opacity="0.6" d="M51.8552 119.284C51.1518 120.146 52.8902 122.761 55.7443 125.133C58.5984 127.505 61.4848 128.732 62.1963 127.871C62.8997 127.01 61.1614 124.394 58.3073 122.022C55.4532 119.65 52.5668 118.423 51.8552 119.284Z" fill="url(#paint76_radial_1685_11454)"/>
<path style="mix-blend-mode:color-dodge" opacity="0.6" d="M95.1357 127.871C94.4323 127.01 96.1707 124.394 99.0248 122.022C101.879 119.65 104.765 118.423 105.477 119.284C106.188 120.146 104.442 122.761 101.588 125.133C98.7337 127.505 95.8473 128.732 95.1357 127.871Z" fill="url(#paint77_radial_1685_11454)"/>
<path style="mix-blend-mode:color-dodge" opacity="0.6" d="M14.0646 69.8615C16.15 69.8615 17.8405 68.163 17.8405 66.0678C17.8405 63.9726 16.15 62.2742 14.0646 62.2742C11.9793 62.2742 10.2888 63.9726 10.2888 66.0678C10.2888 68.163 11.9793 69.8615 14.0646 69.8615Z" fill="url(#paint78_radial_1685_11454)"/>
<path style="mix-blend-mode:color-dodge" opacity="0.6" d="M146.696 66.0678C146.696 68.1637 145.006 69.8615 142.92 69.8615C140.834 69.8615 139.144 68.1637 139.144 66.0678C139.144 63.972 140.834 62.2742 142.92 62.2742C145.006 62.2742 146.696 63.972 146.696 66.0678Z" fill="url(#paint79_radial_1685_11454)"/>
<path d="M48.0528 69.3779H51.6563V68.1914C51.6563 67.1309 51.3018 66.6006 50.5928 66.6006V66.1523H56.3145V66.6006C55.9805 66.6006 55.7344 66.7354 55.5762 67.0049C55.4239 67.2744 55.3477 67.5557 55.3477 67.8486V76.0752C55.3477 77.0596 55.67 77.5518 56.3145 77.5518V78H50.5928V77.5518C51.3018 77.5518 51.6563 76.998 51.6563 75.8906V70.582H48.0528V75.8906C48.0528 76.998 48.4073 77.5518 49.1162 77.5518V78H43.3946V77.5518C43.8282 77.5518 44.0977 77.3906 44.2032 77.0684C44.2559 76.9102 44.2969 76.7197 44.3262 76.4971C44.3555 76.2744 44.3702 76.0137 44.3702 75.7148V68.2617C44.3702 67.7695 44.3057 67.3711 44.1768 67.0664C44.0537 66.7559 43.793 66.6006 43.3946 66.6006V66.1523H49.1162V66.6006C48.7178 66.6006 48.4395 66.7617 48.2813 67.084C48.1289 67.4062 48.0528 67.7607 48.0528 68.1475V69.3779ZM57.9007 66.4248C57.9007 65.9268 58.0912 65.5371 58.472 65.2559C58.8587 64.9688 59.3099 64.8252 59.8255 64.8252C60.2416 64.8252 60.6312 64.9629 60.9945 65.2383C61.3636 65.5137 61.5482 65.8975 61.5482 66.3896C61.5482 66.9404 61.3578 67.3535 60.9769 67.6289C60.5961 67.9043 60.139 68.042 59.6058 68.042C59.1898 68.042 58.8002 67.9014 58.4369 67.6201C58.0795 67.333 57.9007 66.9346 57.9007 66.4248ZM57.1273 69.2461L61.4427 68.9648V75.8906C61.4427 76.3301 61.5043 76.7139 61.6273 77.042C61.6918 77.2119 61.7884 77.3467 61.9173 77.4463C62.0521 77.54 62.225 77.5869 62.4359 77.5869V78H57.1273V77.5869C57.7601 77.5869 58.0765 77.124 58.0765 76.1982V71.1357C58.0765 70.9072 58.0648 70.7197 58.0414 70.5732C58.0179 70.4268 57.9711 70.2773 57.9007 70.125C57.7777 69.8438 57.5199 69.7031 57.1273 69.7031V69.2461ZM71.4753 68.9648L71.5632 71.5752L71.2204 71.6104C71.0798 71.2588 70.8659 70.9688 70.5788 70.7402C70.2917 70.5117 69.9665 70.3418 69.6032 70.2305C69.2458 70.1191 68.8854 70.0635 68.5221 70.0635C68.153 70.0635 67.8337 70.1162 67.5641 70.2217C67.2946 70.3271 67.1393 70.4707 67.0983 70.6523C67.0983 70.9277 67.2624 71.1328 67.5905 71.2676C67.7956 71.3438 68.027 71.4229 68.2848 71.5049C68.5485 71.5869 68.9294 71.6982 69.4274 71.8389C70.3356 72.085 71.0505 72.3574 71.572 72.6562C72.0934 72.9551 72.4333 73.3623 72.5915 73.8779C72.6384 74.1299 72.6618 74.3438 72.6618 74.5195C72.6618 75.0703 72.4919 75.6357 72.152 76.2158C71.8122 76.7959 71.2585 77.2881 70.4909 77.6924C70.11 77.8916 69.6823 78.041 69.2077 78.1406C68.7331 78.2402 68.1999 78.29 67.6081 78.29C67.2272 78.29 66.6823 78.2168 65.9733 78.0703C65.2643 77.9238 64.7897 77.8506 64.5495 77.8506C64.1511 77.8506 63.8932 77.9619 63.7761 78.1846L63.5212 74.5986L63.8815 74.5195C64.0573 75.1113 64.3005 75.5947 64.611 75.9697C64.9274 76.3389 65.2819 76.6084 65.6745 76.7783C65.8854 76.8662 66.0876 76.9336 66.2809 76.9805C66.4802 77.0215 66.6882 77.042 66.905 77.042C67.1745 77.042 67.4235 77.0156 67.652 76.9629C67.8864 76.9043 68.1296 76.8135 68.3815 76.6904C68.8386 76.4736 69.0964 76.2422 69.155 75.9961L69.1901 75.7324C69.1901 75.3457 69.0202 75.0938 68.6804 74.9766C68.3405 74.8535 67.652 74.6748 66.6149 74.4404C65.5837 74.2002 64.8161 73.9043 64.3122 73.5527C63.8083 73.1953 63.5563 72.6504 63.5563 71.918C63.5798 71.8535 63.5915 71.7803 63.5915 71.6982C63.5915 71.4697 63.6354 71.2471 63.7233 71.0303C63.8171 70.8076 63.9577 70.5791 64.1452 70.3447C64.4909 69.9111 64.9948 69.5596 65.6569 69.29C66.3249 69.0205 67.1012 68.8857 67.986 68.8857C68.4548 68.8857 69.0114 68.9297 69.6559 69.0176L70.737 69.1406C71.0944 69.1055 71.3405 69.0469 71.4753 68.9648ZM73.3604 69.9492C73.7764 69.873 74.1309 69.6357 74.4238 69.2373C74.7227 68.8389 74.8721 68.3643 74.8721 67.8135C74.8721 67.6084 74.8223 67.2891 74.7227 66.8555C75.877 66.6445 76.9697 66.2139 78.001 65.5635V69.29H79.5127C79.958 69.29 80.2832 69.2285 80.4883 69.1055L79.9258 70.5117C79.7734 70.4121 79.5889 70.3623 79.3721 70.3623H78.001V74.9414C78.001 75.457 78.0977 75.8555 78.291 76.1367C78.4902 76.418 78.7422 76.5586 79.0469 76.5586C79.3809 76.5586 79.7266 76.4062 80.084 76.1016C80.4238 75.8262 80.6904 75.4395 80.8838 74.9414L81.2266 75.082L80.3213 77.6396C79.1904 78.0498 78.2119 78.2549 77.3857 78.2549C76.5537 78.2549 75.8828 78.0322 75.373 77.5869C74.8691 77.1357 74.6172 76.415 74.6172 75.4248V70.3623H73.3604V69.9492ZM85.4407 73.4648C85.4407 73.8281 85.4642 74.1533 85.5111 74.4404C85.5638 74.7217 85.6429 75.0088 85.7484 75.3018C85.93 75.8115 86.1644 76.2012 86.4515 76.4707C86.7445 76.7344 87.0433 76.8662 87.348 76.8662C87.8284 76.8662 88.2298 76.5674 88.5521 75.9697C88.8802 75.3721 89.0443 74.5488 89.0443 73.5C89.0443 73.1367 89.0208 72.8145 88.9739 72.5332C88.9271 72.252 88.8538 71.9795 88.7542 71.7158C88.5784 71.2354 88.347 70.8721 88.0599 70.626C87.7786 70.3799 87.4827 70.2568 87.1722 70.2568C86.8792 70.2568 86.598 70.377 86.3284 70.6172C86.0589 70.8574 85.8421 71.2266 85.678 71.7246C85.5198 72.2168 85.4407 72.7969 85.4407 73.4648ZM81.8636 73.79C81.8636 72.7295 82.1243 71.833 82.6458 71.1006C83.1673 70.3623 83.8529 69.8086 84.7025 69.4395C85.5521 69.0703 86.4456 68.8857 87.3831 68.8857C88.1448 68.8857 88.848 68.9883 89.4925 69.1934C90.137 69.3926 90.6907 69.6973 91.1536 70.1074C91.6224 70.5117 91.9827 71.0244 92.2347 71.6455C92.4925 72.2607 92.6214 72.9756 92.6214 73.79C92.6214 74.4932 92.4779 75.123 92.1907 75.6797C92.0501 75.9551 91.8802 76.21 91.681 76.4443C91.4818 76.6787 91.2503 76.8955 90.9866 77.0947C90.4886 77.4639 89.8968 77.751 89.2113 77.9561C88.8831 78.0498 88.5345 78.123 88.1654 78.1758C87.8021 78.2285 87.4359 78.2549 87.0667 78.2549C86.346 78.2549 85.6751 78.167 85.054 77.9912C84.4388 77.8096 83.888 77.5342 83.4017 77.165C82.9154 76.7959 82.5374 76.3301 82.2679 75.7676C81.9984 75.2051 81.8636 74.5459 81.8636 73.79ZM97.8288 70.96C98.0983 70.4326 98.4791 69.9756 98.9713 69.5889C99.4694 69.1963 100.038 69 100.676 69C100.975 69 101.256 69.0352 101.52 69.1055L100.887 71.5752C100.524 71.2119 100.093 71.0303 99.5954 71.0303C99.1207 71.0303 98.7077 71.2236 98.3561 71.6104C98.0045 71.9912 97.8288 72.5361 97.8288 73.2451V76.1279C97.8288 76.4678 97.902 76.7871 98.0485 77.0859C98.1188 77.2383 98.2272 77.3613 98.3737 77.4551C98.5202 77.543 98.693 77.5869 98.8922 77.5869V78.0352H93.4782V77.5869C94.1344 77.5869 94.4625 77.1006 94.4625 76.1279V71.1006C94.4625 70.6553 94.3776 70.3125 94.2077 70.0723C94.0436 69.8262 93.8004 69.7031 93.4782 69.7031V69.2461L97.275 69C97.4274 69.2109 97.5534 69.5098 97.653 69.8965C97.7116 70.1074 97.7555 70.2979 97.7848 70.4678C97.8141 70.6377 97.8288 70.8018 97.8288 70.96ZM102.518 78.7383L102.895 78.8877C102.895 79.7725 103.215 80.2148 103.853 80.2148C104.293 80.2148 104.688 80.0332 105.04 79.6699C105.397 79.3066 105.576 78.8115 105.576 78.1846C105.576 77.7158 105.456 77.2207 105.216 76.6992L102.685 71.0654C102.603 70.8779 102.515 70.7021 102.421 70.5381C102.333 70.374 102.257 70.2451 102.192 70.1514C102.046 69.9287 101.896 69.7793 101.744 69.7031C101.598 69.627 101.404 69.5889 101.164 69.5889V69.1406H107.018V69.5889C106.443 69.5889 106.139 69.7646 106.103 70.1162C106.103 70.1748 106.112 70.2363 106.13 70.3008C106.147 70.3652 106.162 70.415 106.174 70.4502L106.35 70.8984L106.517 71.3203L107.686 74.4844L108.978 71.0303C109.101 70.7314 109.162 70.4736 109.162 70.2568C109.162 69.8115 108.893 69.5889 108.353 69.5889V69.1406H112.001V69.5889C111.726 69.5889 111.444 69.7266 111.157 70.002C110.87 70.2773 110.647 70.5967 110.489 70.96L106.692 79.7314C106.417 80.3936 106.004 80.9092 105.453 81.2783C104.908 81.6475 104.313 81.832 103.669 81.832C102.895 81.832 102.157 81.5889 101.454 81.1025L102.518 78.7383Z" fill="#6B4A14"/>
<defs>
<filter id="filter0_i_1685_11454" x="24.9962" y="16" width="107" height="111" filterUnits="userSpaceOnUse" color-interpolation-filters="sRGB">
<feFlood flood-opacity="0" result="BackgroundImageFix"/>
<feBlend mode="normal" in="SourceGraphic" in2="BackgroundImageFix" result="shape"/>
<feColorMatrix in="SourceAlpha" type="matrix" values="0 0 0 0 0 0 0 0 0 0 0 0 0 0 0 0 0 0 127 0" result="hardAlpha"/>
<feOffset dy="4"/>
<feGaussianBlur stdDeviation="2"/>
<feComposite in2="hardAlpha" operator="arithmetic" k2="-1" k3="1"/>
<feColorMatrix type="matrix" values="0 0 0 0 1 0 0 0 0 0.981333 0 0 0 0 0.883333 0 0 0 1 0"/>
<feBlend mode="normal" in2="shape" result="effect1_innerShadow_1685_11454"/>
</filter>
<radialGradient id="paint0_radial_1685_11454" cx="0" cy="0" r="1" gradientUnits="userSpaceOnUse" gradientTransform="translate(78.8985 35.3083) rotate(90.2628) scale(87.6926)">
<stop stop-color="#FEE5A2"/>
<stop offset="0.585" stop-color="#FCC860"/>
<stop offset="1" stop-color="#FCF5B2"/>
</radialGradient>
<linearGradient id="paint1_linear_1685_11454" x1="78.4962" y1="134.305" x2="78.4962" y2="4.71973" gradientUnits="userSpaceOnUse">
<stop stop-color="#ED480B"/>
<stop offset="0.99" stop-color="#F2B100"/>
</linearGradient>
<radialGradient id="paint2_radial_1685_11454" cx="0" cy="0" r="1" gradientUnits="userSpaceOnUse" gradientTransform="translate(77.1581 125.364) scale(36.4848 36.657)">
<stop stop-color="#691C00"/>
<stop offset="1" stop-color="#FFF1CC"/>
</radialGradient>
<linearGradient id="paint3_linear_1685_11454" x1="12.9489" y1="73.1108" x2="13.5855" y2="82.6554" gradientUnits="userSpaceOnUse">
<stop stop-color="#FFF1CC"/>
<stop offset="1" stop-color="#691C00"/>
</linearGradient>
<linearGradient id="paint4_linear_1685_11454" x1="13.2642" y1="78.6185" x2="13.2642" y2="57.6763" gradientUnits="userSpaceOnUse">
<stop offset="0.01" stop-color="#F2B100"/>
<stop offset="1" stop-color="#ED480B"/>
</linearGradient>
<linearGradient id="paint5_linear_1685_11454" x1="22.5784" y1="82.6234" x2="22.5784" y2="75.2392" gradientUnits="userSpaceOnUse">
<stop stop-color="#7A1C0B"/>
<stop offset="0.94" stop-color="#BC4408"/>
</linearGradient>
<linearGradient id="paint6_linear_1685_11454" x1="17.4685" y1="69.8534" x2="18.0969" y2="74.3855" gradientUnits="userSpaceOnUse">
<stop stop-color="#691C00"/>
<stop offset="1" stop-color="#FFF1CC"/>
</linearGradient>
<linearGradient id="paint7_linear_1685_11454" x1="21.0342" y1="60.6901" x2="13.07" y2="60.3602" gradientUnits="userSpaceOnUse">
<stop stop-color="#691C00"/>
<stop offset="1" stop-color="#FFF1CC"/>
</linearGradient>
<linearGradient id="paint8_linear_1685_11454" x1="18.5185" y1="62.6955" x2="18.03" y2="63.5265" gradientUnits="userSpaceOnUse">
<stop stop-color="white"/>
<stop offset="1" stop-color="#FFF7C4"/>
</linearGradient>
<linearGradient id="paint9_linear_1685_11454" x1="144.036" y1="73.1108" x2="143.399" y2="82.6554" gradientUnits="userSpaceOnUse">
<stop stop-color="#FFF1CC"/>
<stop offset="1" stop-color="#691C00"/>
</linearGradient>
<linearGradient id="paint10_linear_1685_11454" x1="143.72" y1="78.6185" x2="143.72" y2="57.6763" gradientUnits="userSpaceOnUse">
<stop offset="0.01" stop-color="#F2B100"/>
<stop offset="1" stop-color="#ED480B"/>
</linearGradient>
<linearGradient id="paint11_linear_1685_11454" x1="134.414" y1="-3.52469e-05" x2="134.414" y2="-3.52469e-05" gradientUnits="userSpaceOnUse">
<stop stop-color="#7A1C0B"/>
<stop offset="0.94" stop-color="#BC4408"/>
</linearGradient>
<linearGradient id="paint12_linear_1685_11454" x1="139.524" y1="69.8534" x2="138.896" y2="74.3855" gradientUnits="userSpaceOnUse">
<stop stop-color="#691C00"/>
<stop offset="1" stop-color="#FFF1CC"/>
</linearGradient>
<linearGradient id="paint13_linear_1685_11454" x1="135.95" y1="60.6901" x2="143.922" y2="60.3602" gradientUnits="userSpaceOnUse">
<stop stop-color="#691C00"/>
<stop offset="1" stop-color="#FFF1CC"/>
</linearGradient>
<linearGradient id="paint14_linear_1685_11454" x1="139.186" y1="66.4599" x2="139.674" y2="67.2909" gradientUnits="userSpaceOnUse">
<stop stop-color="white"/>
<stop offset="1" stop-color="#FFF7C4"/>
</linearGradient>
<linearGradient id="paint15_linear_1685_11454" x1="19.3524" y1="83.842" x2="24.7419" y2="99.3258" gradientUnits="userSpaceOnUse">
<stop stop-color="#691C00"/>
<stop offset="1" stop-color="#FFF1CC"/>
</linearGradient>
<linearGradient id="paint16_linear_1685_11454" x1="137.745" y1="83.842" x2="132.364" y2="99.3258" gradientUnits="userSpaceOnUse">
<stop stop-color="#691C00"/>
<stop offset="1" stop-color="#FFF1CC"/>
</linearGradient>
<linearGradient id="paint17_linear_1685_11454" x1="78.4963" y1="60.6251" x2="78.4963" y2="8.48896" gradientUnits="userSpaceOnUse">
<stop offset="0.01" stop-color="#F2B100"/>
<stop offset="1" stop-color="#ED480B"/>
</linearGradient>
<linearGradient id="paint18_linear_1685_11454" x1="78.4963" y1="130.543" x2="78.4963" y2="82.4934" gradientUnits="userSpaceOnUse">
<stop offset="0.01" stop-color="#F2B100"/>
<stop offset="1" stop-color="#ED480B"/>
</linearGradient>
<linearGradient id="paint19_linear_1685_11454" x1="20.9695" y1="82.6153" x2="25.1608" y2="95.3656" gradientUnits="userSpaceOnUse">
<stop stop-color="#691C00"/>
<stop offset="1" stop-color="#FFF1CC"/>
</linearGradient>
<linearGradient id="paint20_linear_1685_11454" x1="136.015" y1="82.6153" x2="131.832" y2="95.3656" gradientUnits="userSpaceOnUse">
<stop stop-color="#691C00"/>
<stop offset="1" stop-color="#FFF1CC"/>
</linearGradient>
<radialGradient id="paint21_radial_1685_11454" cx="0" cy="0" r="1" gradientUnits="userSpaceOnUse" gradientTransform="translate(78.5407 11.7814) scale(19.7556 19.8488)">
<stop stop-color="#691C00"/>
<stop offset="1" stop-color="#FFF1CC"/>
</radialGradient>
<linearGradient id="paint22_linear_1685_11454" x1="78.496" y1="2.85945" x2="78.496" y2="14.2647" gradientUnits="userSpaceOnUse">
<stop offset="0.01" stop-color="#F2B100"/>
<stop offset="1" stop-color="#ED480B"/>
</linearGradient>
<linearGradient id="paint23_linear_1685_11454" x1="78.4962" y1="2.46952" x2="83.8002" y2="2.46952" gradientUnits="userSpaceOnUse">
<stop offset="0.01" stop-color="#F2B100"/>
<stop offset="1" stop-color="#ED480B"/>
</linearGradient>
<linearGradient id="paint24_linear_1685_11454" x1="78.4962" y1="2.46952" x2="73.1923" y2="2.46952" gradientUnits="userSpaceOnUse">
<stop offset="0.01" stop-color="#F2B100"/>
<stop offset="1" stop-color="#ED480B"/>
</linearGradient>
<linearGradient id="paint25_linear_1685_11454" x1="78.4962" y1="13.5255" x2="70.3625" y2="13.5255" gradientUnits="userSpaceOnUse">
<stop offset="0.06" stop-color="#BC4408"/>
<stop offset="1" stop-color="#7A1C0B"/>
</linearGradient>
<linearGradient id="paint26_linear_1685_11454" x1="78.4962" y1="770.385" x2="86.63" y2="770.385" gradientUnits="userSpaceOnUse">
<stop offset="0.06" stop-color="#BC4408"/>
<stop offset="1" stop-color="#7A1C0B"/>
</linearGradient>
<linearGradient id="paint27_linear_1685_11454" x1="78.4154" y1="3.98865" x2="82.0619" y2="7.4321" gradientUnits="userSpaceOnUse">
<stop stop-color="#7A1C0B"/>
<stop offset="0.94" stop-color="#BC4408"/>
</linearGradient>
<radialGradient id="paint28_radial_1685_11454" cx="0" cy="0" r="1" gradientUnits="userSpaceOnUse" gradientTransform="translate(80.9469 3.24671) scale(5.50244 6.71913)">
<stop stop-color="#33FF33"/>
<stop offset="1" stop-color="#00DE00"/>
</radialGradient>
<radialGradient id="paint29_radial_1685_11454" cx="0" cy="0" r="1" gradientUnits="userSpaceOnUse" gradientTransform="translate(78.2561 6.61598) scale(2.79589 3.41412)">
<stop stop-color="#33FF33"/>
<stop offset="1" stop-color="#00DE00"/>
</radialGradient>
<linearGradient id="paint30_linear_1685_11454" x1="78.4962" y1="6.53118" x2="82.9755" y2="6.53118" gradientUnits="userSpaceOnUse">
<stop stop-color="#400900"/>
<stop offset="1" stop-color="#FB8A77"/>
</linearGradient>
<linearGradient id="paint31_linear_1685_11454" x1="78.496" y1="123.825" x2="78.496" y2="135.223" gradientUnits="userSpaceOnUse">
<stop offset="0.01" stop-color="#F2B100"/>
<stop offset="1" stop-color="#ED480B"/>
</linearGradient>
<linearGradient id="paint32_linear_1685_11454" x1="78.4962" y1="124.077" x2="85.0696" y2="124.077" gradientUnits="userSpaceOnUse">
<stop offset="0.01" stop-color="#F2B100"/>
<stop offset="1" stop-color="#ED480B"/>
</linearGradient>
<linearGradient id="paint33_linear_1685_11454" x1="78.4962" y1="124.077" x2="71.9229" y2="124.077" gradientUnits="userSpaceOnUse">
<stop offset="0.01" stop-color="#F2B100"/>
<stop offset="1" stop-color="#ED480B"/>
</linearGradient>
<linearGradient id="paint34_linear_1685_11454" x1="-762.478" y1="134.483" x2="-763.286" y2="134.483" gradientUnits="userSpaceOnUse">
<stop offset="0.06" stop-color="#BC4408"/>
<stop offset="1" stop-color="#7A1C0B"/>
</linearGradient>
<linearGradient id="paint35_linear_1685_11454" x1="78.4962" y1="134.483" x2="86.63" y2="134.483" gradientUnits="userSpaceOnUse">
<stop offset="0.06" stop-color="#BC4408"/>
<stop offset="1" stop-color="#7A1C0B"/>
</linearGradient>
<linearGradient id="paint36_linear_1685_11454" x1="78.4154" y1="124.946" x2="82.0619" y2="128.398" gradientUnits="userSpaceOnUse">
<stop stop-color="#7A1C0B"/>
<stop offset="0.94" stop-color="#BC4408"/>
</linearGradient>
<radialGradient id="paint37_radial_1685_11454" cx="0" cy="0" r="1" gradientUnits="userSpaceOnUse" gradientTransform="translate(296.188 124.576) scale(0.262772 0.320876)">
<stop stop-color="#33FF33"/>
<stop offset="1" stop-color="#00DE00"/>
</radialGradient>
<radialGradient id="paint38_radial_1685_11454" cx="0" cy="0" r="1" gradientUnits="userSpaceOnUse" gradientTransform="translate(78.2561 127.945) scale(2.79589 3.41412)">
<stop stop-color="#33FF33"/>
<stop offset="1" stop-color="#00DE00"/>
</radialGradient>
<linearGradient id="paint39_linear_1685_11454" x1="432.761" y1="127.497" x2="433.57" y2="127.497" gradientUnits="userSpaceOnUse">
<stop stop-color="#400900"/>
<stop offset="1" stop-color="#FB8A77"/>
</linearGradient>
<linearGradient id="paint40_linear_1685_11454" x1="98.9601" y1="122.444" x2="98.9601" y2="133.63" gradientUnits="userSpaceOnUse">
<stop stop-color="#F2B100"/>
<stop offset="1" stop-color="#ED480B"/>
</linearGradient>
<linearGradient id="paint41_linear_1685_11454" x1="98.9924" y1="123.119" x2="98.9924" y2="135.426" gradientUnits="userSpaceOnUse">
<stop stop-color="#A32100"/>
<stop offset="1" stop-color="#D36C05"/>
</linearGradient>
<linearGradient id="paint42_linear_1685_11454" x1="84.1398" y1="125.791" x2="85.5118" y2="124.587" gradientUnits="userSpaceOnUse">
<stop offset="0.06" stop-color="#BC4408"/>
<stop offset="1" stop-color="#7A1C0B"/>
</linearGradient>
<linearGradient id="paint43_linear_1685_11454" x1="94.2787" y1="133.76" x2="87.2394" y2="127.481" gradientUnits="userSpaceOnUse">
<stop stop-color="#7A1C0B"/>
<stop offset="0.94" stop-color="#BC4408"/>
</linearGradient>
<linearGradient id="paint44_linear_1685_11454" x1="104.579" y1="124.297" x2="109.788" y2="125.158" gradientUnits="userSpaceOnUse">
<stop stop-color="#7A1C0B"/>
<stop offset="0.94" stop-color="#BC4408"/>
</linearGradient>
<linearGradient id="paint45_linear_1685_11454" x1="78.1872" y1="246.855" x2="78.0224" y2="248.204" gradientUnits="userSpaceOnUse">
<stop stop-color="#FFF7C4"/>
<stop offset="1" stop-color="white"/>
</linearGradient>
<linearGradient id="paint46_linear_1685_11454" x1="-75.406" y1="-860.476" x2="-75.259" y2="-859.711" gradientUnits="userSpaceOnUse">
<stop stop-color="#FFF7C4"/>
<stop offset="1" stop-color="white"/>
</linearGradient>
<linearGradient id="paint47_linear_1685_11454" x1="114.912" y1="122.843" x2="102.235" y2="122.843" gradientUnits="userSpaceOnUse">
<stop stop-color="#7A1C0B"/>
<stop offset="0.94" stop-color="#BC4408"/>
</linearGradient>
<linearGradient id="paint48_linear_1685_11454" x1="58.1456" y1="-4.64401e-05" x2="58.1456" y2="-4.64401e-05" gradientUnits="userSpaceOnUse">
<stop stop-color="#F2B100"/>
<stop offset="1" stop-color="#ED480B"/>
</linearGradient>
<linearGradient id="paint49_linear_1685_11454" x1="58.1133" y1="123.119" x2="58.1133" y2="2797.77" gradientUnits="userSpaceOnUse">
<stop stop-color="#A32100"/>
<stop offset="1" stop-color="#D36C05"/>
</linearGradient>
<linearGradient id="paint50_linear_1685_11454" x1="72.9578" y1="125.791" x2="71.5858" y2="124.587" gradientUnits="userSpaceOnUse">
<stop offset="0.06" stop-color="#BC4408"/>
<stop offset="1" stop-color="#7A1C0B"/>
</linearGradient>
<linearGradient id="paint51_linear_1685_11454" x1="62.827" y1="133.76" x2="69.8582" y2="127.481" gradientUnits="userSpaceOnUse">
<stop stop-color="#7A1C0B"/>
<stop offset="0.94" stop-color="#BC4408"/>
</linearGradient>
<linearGradient id="paint52_linear_1685_11454" x1="52.5182" y1="124.297" x2="47.31" y2="125.158" gradientUnits="userSpaceOnUse">
<stop stop-color="#7A1C0B"/>
<stop offset="0.94" stop-color="#BC4408"/>
</linearGradient>
<linearGradient id="paint53_linear_1685_11454" x1="59.4597" y1="193.005" x2="59.6233" y2="194.345" gradientUnits="userSpaceOnUse">
<stop stop-color="#FFF7C4"/>
<stop offset="1" stop-color="white"/>
</linearGradient>
<linearGradient id="paint54_linear_1685_11454" x1="132.527" y1="-296.594" x2="132.381" y2="-295.835" gradientUnits="userSpaceOnUse">
<stop stop-color="#FFF7C4"/>
<stop offset="1" stop-color="white"/>
</linearGradient>
<linearGradient id="paint55_linear_1685_11454" x1="42.1933" y1="122.843" x2="54.863" y2="122.843" gradientUnits="userSpaceOnUse">
<stop stop-color="#7A1C0B"/>
<stop offset="0.94" stop-color="#BC4408"/>
</linearGradient>
<radialGradient id="paint56_radial_1685_11454" cx="0" cy="0" r="1" gradientUnits="userSpaceOnUse" gradientTransform="translate(92.9083 9.1807) rotate(180) scale(16.7062 16.785)">
<stop offset="0.01" stop-color="#F2B100"/>
<stop offset="1" stop-color="#ED480B"/>
</radialGradient>
<linearGradient id="paint57_linear_1685_11454" x1="99.4776" y1="17.7334" x2="99.4776" y2="7.24609" gradientUnits="userSpaceOnUse">
<stop stop-color="#A32100"/>
<stop offset="1" stop-color="#D36C05"/>
</linearGradient>
<linearGradient id="paint58_linear_1685_11454" x1="84.0266" y1="14.6384" x2="86.2592" y2="16.5939" gradientUnits="userSpaceOnUse">
<stop offset="0.06" stop-color="#BC4408"/>
<stop offset="1" stop-color="#7A1C0B"/>
</linearGradient>
<linearGradient id="paint59_linear_1685_11454" x1="95.6937" y1="8.56209" x2="88.8654" y2="14.6633" gradientUnits="userSpaceOnUse">
<stop stop-color="#7A1C0B"/>
<stop offset="0.94" stop-color="#BC4408"/>
</linearGradient>
<linearGradient id="paint60_linear_1685_11454" x1="85.6841" y1="11.7708" x2="87.9572" y2="13.7586" gradientUnits="userSpaceOnUse">
<stop stop-color="#7A1C0B"/>
<stop offset="0.94" stop-color="#BC4408"/>
</linearGradient>
<linearGradient id="paint61_linear_1685_11454" x1="104.596" y1="16.4418" x2="110.564" y2="15.4598" gradientUnits="userSpaceOnUse">
<stop stop-color="#7A1C0B"/>
<stop offset="0.94" stop-color="#BC4408"/>
</linearGradient>
<linearGradient id="paint62_linear_1685_11454" x1="112.061" y1="5.91354" x2="113.409" y2="5.71638" gradientUnits="userSpaceOnUse">
<stop stop-color="white"/>
<stop offset="1" stop-color="#FFF7C4"/>
</linearGradient>
<radialGradient id="paint63_radial_1685_11454" cx="0" cy="0" r="1" gradientUnits="userSpaceOnUse" gradientTransform="translate(64.0944 128.281) scale(16.7062 16.785)">
<stop offset="0.01" stop-color="#F2B100"/>
<stop offset="1" stop-color="#ED480B"/>
</radialGradient>
<linearGradient id="paint64_linear_1685_11454" x1="57.5069" y1="17.7334" x2="57.5069" y2="7.24609" gradientUnits="userSpaceOnUse">
<stop stop-color="#A32100"/>
<stop offset="1" stop-color="#D36C05"/>
</linearGradient>
<linearGradient id="paint65_linear_1685_11454" x1="72.9578" y1="14.6384" x2="70.7253" y2="16.5939" gradientUnits="userSpaceOnUse">
<stop offset="0.06" stop-color="#BC4408"/>
<stop offset="1" stop-color="#7A1C0B"/>
</linearGradient>
<linearGradient id="paint66_linear_1685_11454" x1="61.2908" y1="8.56209" x2="68.1271" y2="14.6633" gradientUnits="userSpaceOnUse">
<stop stop-color="#7A1C0B"/>
<stop offset="0.94" stop-color="#BC4408"/>
</linearGradient>
<linearGradient id="paint67_linear_1685_11454" x1="71.3004" y1="11.7708" x2="69.0272" y2="13.7586" gradientUnits="userSpaceOnUse">
<stop stop-color="#7A1C0B"/>
<stop offset="0.94" stop-color="#BC4408"/>
</linearGradient>
<linearGradient id="paint68_linear_1685_11454" x1="52.3889" y1="16.4418" x2="46.4205" y2="15.4598" gradientUnits="userSpaceOnUse">
<stop stop-color="#7A1C0B"/>
<stop offset="0.94" stop-color="#BC4408"/>
</linearGradient>
<linearGradient id="paint69_linear_1685_11454" x1="50.7022" y1="4.29808" x2="49.3542" y2="4.10092" gradientUnits="userSpaceOnUse">
<stop stop-color="white"/>
<stop offset="1" stop-color="#FFF7C4"/>
</linearGradient>
<linearGradient id="paint70_linear_1685_11454" x1="129.308" y1="29.8629" x2="128.75" y2="30.3062" gradientUnits="userSpaceOnUse">
<stop stop-color="white"/>
<stop offset="1" stop-color="#FFF7C4"/>
</linearGradient>
<linearGradient id="paint71_linear_1685_11454" x1="55.5733" y1="124.274" x2="55.1629" y2="124.857" gradientUnits="userSpaceOnUse">
<stop stop-color="white"/>
<stop offset="1" stop-color="#FFF7C4"/>
</linearGradient>
<radialGradient id="paint72_radial_1685_11454" cx="0" cy="0" r="1" gradientUnits="userSpaceOnUse" gradientTransform="translate(65.876 8.68516) rotate(45.1348) scale(6.71302 2.00986)">
<stop stop-color="#F4A940"/>
<stop offset="0.09" stop-color="#E69F3C"/>
<stop offset="0.27" stop-color="#C28633"/>
<stop offset="0.51" stop-color="#885E23"/>
<stop offset="0.8" stop-color="#39270F"/>
<stop offset="1"/>
</radialGradient>
<radialGradient id="paint73_radial_1685_11454" cx="0" cy="0" r="1" gradientUnits="userSpaceOnUse" gradientTransform="translate(93.9839 5.79785) rotate(-45.1348) scale(6.71302 2.00986)">
<stop stop-color="#F4A940"/>
<stop offset="0.09" stop-color="#E69F3C"/>
<stop offset="0.27" stop-color="#C28633"/>
<stop offset="0.51" stop-color="#885E23"/>
<stop offset="0.8" stop-color="#39270F"/>
<stop offset="1"/>
</radialGradient>
<radialGradient id="paint74_radial_1685_11454" cx="0" cy="0" r="1" gradientUnits="userSpaceOnUse" gradientTransform="translate(130.474 31.8492) rotate(45.1348) scale(6.71302 2.00986)">
<stop stop-color="#F4A940"/>
<stop offset="0.09" stop-color="#E69F3C"/>
<stop offset="0.27" stop-color="#C28633"/>
<stop offset="0.51" stop-color="#885E23"/>
<stop offset="0.8" stop-color="#39270F"/>
<stop offset="1"/>
</radialGradient>
<radialGradient id="paint75_radial_1685_11454" cx="0" cy="0" r="1" gradientUnits="userSpaceOnUse" gradientTransform="translate(48.5343 119.582) rotate(30.1169) scale(6.70512 2.01223)">
<stop stop-color="#F4A940"/>
<stop offset="0.09" stop-color="#E69F3C"/>
<stop offset="0.27" stop-color="#C28633"/>
<stop offset="0.51" stop-color="#885E23"/>
<stop offset="0.8" stop-color="#39270F"/>
<stop offset="1"/>
</radialGradient>
<radialGradient id="paint76_radial_1685_11454" cx="0" cy="0" r="1" gradientUnits="userSpaceOnUse" gradientTransform="translate(58.5008 125.37) rotate(39.6925) scale(6.71004 2.01076)">
<stop stop-color="#F4A940"/>
<stop offset="0.09" stop-color="#E69F3C"/>
<stop offset="0.27" stop-color="#C28633"/>
<stop offset="0.51" stop-color="#885E23"/>
<stop offset="0.8" stop-color="#39270F"/>
<stop offset="1"/>
</radialGradient>
<radialGradient id="paint77_radial_1685_11454" cx="0" cy="0" r="1" gradientUnits="userSpaceOnUse" gradientTransform="translate(101.392 122.115) rotate(-39.6925) scale(6.71004 2.01076)">
<stop stop-color="#F4A940"/>
<stop offset="0.09" stop-color="#E69F3C"/>
<stop offset="0.27" stop-color="#C28633"/>
<stop offset="0.51" stop-color="#885E23"/>
<stop offset="0.8" stop-color="#39270F"/>
<stop offset="1"/>
</radialGradient>
<radialGradient id="paint78_radial_1685_11454" cx="0" cy="0" r="1" gradientUnits="userSpaceOnUse" gradientTransform="translate(14.0646 66.0678) scale(3.77583 3.79364)">
<stop stop-color="#F4A940"/>
<stop offset="0.09" stop-color="#E69F3C"/>
<stop offset="0.27" stop-color="#C28633"/>
<stop offset="0.51" stop-color="#885E23"/>
<stop offset="0.8" stop-color="#39270F"/>
<stop offset="1"/>
</radialGradient>
<radialGradient id="paint79_radial_1685_11454" cx="0" cy="0" r="1" gradientUnits="userSpaceOnUse" gradientTransform="translate(142.928 66.0678) scale(3.77583 3.79364)">
<stop stop-color="#F4A940"/>
<stop offset="0.09" stop-color="#E69F3C"/>
<stop offset="0.27" stop-color="#C28633"/>
<stop offset="0.51" stop-color="#885E23"/>
<stop offset="0.8" stop-color="#39270F"/>
<stop offset="1"/>
</radialGradient>
</defs>
</svg>
