<svg width="314" height="297" viewBox="0 0 314 297" fill="none" xmlns="http://www.w3.org/2000/svg">
<path d="M171.991 158.86L171.979 158.836C170.855 156.896 169.676 155.009 168.437 153.182L190.468 139.459L206.739 167.657C200.666 171.719 194.064 175.065 187.071 177.571L178.311 172.115C176.585 167.609 174.486 163.175 171.997 158.866L171.991 158.86ZM192.074 187.725C192.801 186.47 193.565 185.25 194.359 184.066L227.766 204.874H185.303C186.656 198.998 188.899 193.217 192.074 187.725ZM195.303 182.702C198.904 177.649 203.149 173.269 207.869 169.622L226.696 202.26L195.303 182.702ZM209.204 168.624C210.786 167.465 212.421 166.389 214.093 165.392L240.218 210.684L229.678 204.117L209.204 168.624ZM216.492 164.034C220.749 161.75 225.252 159.966 229.9 158.722C245.299 154.6 262.273 156.343 277.167 164.941C292.061 173.533 302.066 187.353 306.191 202.735C309.426 214.788 309.053 227.809 304.603 240.042C304.543 239.748 304.477 239.453 304.399 239.159C303.479 235.716 301.236 232.627 297.899 230.699C294.562 228.776 290.762 228.379 287.323 229.305C284.148 230.158 281.268 232.123 279.326 235.037L264.594 225.856C266.037 223.116 265.069 219.703 262.363 218.147C259.772 216.651 256.507 217.384 254.787 219.751L245.191 213.773L216.498 164.028L216.492 164.034ZM296.276 255.628C287.671 267.399 275.495 275.39 262.141 278.966C246.742 283.087 229.768 281.339 214.874 272.747C199.981 264.154 189.975 250.335 185.851 234.953C184.131 228.53 183.433 221.836 183.824 215.137H244.235L253.994 221.217C253.068 223.801 254.09 226.757 256.555 228.175C258.9 229.527 261.798 229.058 263.602 227.202L278.478 236.467C276.872 239.633 276.584 243.154 277.444 246.363C278.364 249.806 280.606 252.894 283.943 254.823C287.281 256.746 291.075 257.136 294.52 256.217C295.115 256.061 295.692 255.863 296.264 255.622L296.276 255.628ZM184.059 212.367C184.263 210.414 184.558 208.467 184.949 206.532H230.436L239.803 212.367H184.059ZM301.651 158.86L301.639 158.836C288.94 136.857 268.539 122.082 245.81 115.959C247.746 108.521 248.781 100.716 248.781 92.67C248.781 67.2358 238.469 44.211 221.789 27.5493C206.054 11.8248 184.654 1.76051 160.915 0.672959C159.563 0.234334 158.12 0 156.622 0C155.125 0 153.682 0.234334 152.329 0.672959C128.591 1.76051 107.185 11.8248 91.4555 27.5493C74.776 44.217 64.458 67.2418 64.458 92.6761C64.458 100.782 65.5103 108.647 67.4765 116.133C60.1589 118.17 52.9796 121.157 46.0949 125.128C24.052 137.842 9.25449 158.284 3.15149 181.05C-2.43441 201.894 -0.732783 224.696 9.36272 245.3C9.64532 246.82 10.1865 248.316 11.0042 249.728C11.7137 250.954 12.5796 252.035 13.5657 252.954C26.3549 273.864 46.2453 287.936 68.3243 293.849C91.0226 299.923 116.042 297.382 138.025 284.776H138.175L138.379 284.572C145.324 280.552 151.542 275.763 157.001 270.379C168.54 281.802 182.742 289.769 197.978 293.849C220.677 299.923 245.696 297.382 267.679 284.776H267.829L268.034 284.572C281.809 276.598 292.746 265.602 300.491 252.906C301.453 251.999 302.307 250.936 302.998 249.728C303.804 248.328 304.345 246.85 304.628 245.348C307.231 240.012 309.318 234.442 310.845 228.728C316.948 205.974 314.362 180.888 301.645 158.866L301.651 158.86ZM155.636 269.003C150.321 274.249 144.266 278.917 137.508 282.841L137.279 282.973C115.705 295.423 91.1188 297.953 68.8113 291.98C55.1623 288.327 42.367 281.483 31.6341 271.785C37.677 275.919 44.3512 278.966 51.3501 280.84C67.2239 285.088 84.7272 283.292 100.084 274.429C115.441 265.566 125.753 251.326 130.004 235.464C130.912 232.081 131.543 228.62 131.886 225.123C133.864 233.889 137.165 242.506 141.873 250.707L142.005 250.948C145.883 257.653 150.477 263.692 155.63 269.015L155.636 269.003ZM129.727 201.179C128.308 196.246 126.276 191.403 123.588 186.758C122.782 185.364 121.934 184.012 121.045 182.702L126.047 179.584C128.212 180.347 130.413 181.026 132.649 181.627C130.984 188.008 129.998 194.563 129.727 201.179ZM133.16 179.758C131.477 179.308 129.817 178.809 128.176 178.262L134.994 174.014C134.321 175.907 133.708 177.823 133.16 179.758ZM135.938 171.478L126.155 177.571C119.746 175.276 113.673 172.277 108.027 168.666C107.546 168.282 107.053 167.903 106.566 167.537L122.758 139.465L145.312 153.513C141.518 159.167 138.379 165.199 135.938 171.478ZM146.25 152.143L123.588 138.023L131.717 123.933C132.09 124.089 132.463 124.245 132.842 124.395C141.145 128.577 148.86 134.069 155.636 140.775C152.179 144.338 149.046 148.141 146.25 152.149V152.143ZM157.446 138.96V128.932C162.767 128.866 167.926 128.151 172.857 126.865C167.199 130.404 162.052 134.472 157.446 138.96ZM193.685 117.173C196.662 115.064 199.458 112.715 202.031 110.143C213.654 98.5284 220.845 82.4855 220.845 64.7603C220.845 47.035 213.654 30.9922 202.031 19.3776C196.92 14.2703 190.955 10.0223 184.365 6.86178C198.123 11.3021 210.437 18.945 220.418 28.9252C236.749 45.2445 246.85 67.7826 246.844 92.6821C246.844 100.559 245.834 108.202 243.934 115.485C227.652 111.459 210.251 111.849 193.691 117.173H193.685ZM218.662 160.783C219.727 159.816 220.767 158.824 221.783 157.803C232.744 146.849 240.958 133.156 245.299 117.834C267.553 123.824 287.527 138.287 299.962 159.81L300.01 159.906L300.028 159.924C311.578 179.986 314.549 202.645 310.069 223.639C310.604 216.404 309.907 209.164 308.049 202.236C303.798 186.374 293.486 172.127 278.123 163.271C262.766 154.408 245.263 152.605 229.389 156.86C225.709 157.845 222.114 159.155 218.65 160.783H218.662ZM243.423 117.347C239.166 132.333 231.133 145.726 220.418 156.433C218.68 158.169 216.871 159.84 214.995 161.432L191.142 120.081C208.266 113.868 226.461 113.165 243.429 117.347H243.423ZM188.526 121.073L196.012 134.051L191.046 137.145L183.133 123.428C184.919 122.581 186.716 121.794 188.526 121.073ZM181.642 124.149L189.639 138.017L167.493 151.812C164.704 147.847 161.643 144.163 158.354 140.763C163.729 135.457 169.863 130.746 176.705 126.793C178.335 125.855 179.982 124.972 181.642 124.143V124.149ZM155.781 143.412V153.831C154.337 154.035 153.069 154.775 152.179 155.838L147.886 153.164C150.273 149.757 152.906 146.495 155.781 143.412ZM146.948 154.534L151.301 157.244C150.988 157.953 150.82 158.74 150.82 159.563C150.82 160.387 150.994 161.186 151.313 161.901L138.728 169.742C140.965 164.448 143.713 159.353 146.954 154.54L146.948 154.534ZM137.67 172.35L152.191 163.307C153.087 164.364 154.349 165.091 155.781 165.296V182.835C148.631 182.768 141.687 181.873 135.03 180.245C135.788 177.577 136.666 174.939 137.67 172.35ZM134.519 182.113C141.338 183.79 148.457 184.709 155.781 184.775V204.88H131.579C131.585 197.177 132.583 189.522 134.519 182.12V182.113ZM131.591 206.538H155.781V212.373H131.88C131.717 210.426 131.621 208.479 131.585 206.538H131.591ZM132.156 215.143H181.816C181.305 219.565 180.475 223.939 179.321 228.229C175.4 242.842 167.83 256.475 156.995 267.639C151.956 262.436 147.465 256.536 143.677 249.974C137.291 238.918 133.509 227.07 132.156 215.143ZM158.354 269.009C169.436 257.599 177.186 243.665 181.191 228.728C181.515 227.508 181.816 226.288 182.093 225.057C182.435 228.578 183.073 232.057 183.981 235.464C188.232 251.326 198.544 265.572 213.9 274.429C229.257 283.292 246.76 285.094 262.634 280.84C269.615 278.972 276.283 275.931 282.32 271.803C277.75 275.919 272.688 279.632 267.162 282.841L266.933 282.973C245.359 295.423 220.773 297.953 198.465 291.98C183.548 287.984 169.646 280.185 158.348 269.003L158.354 269.009ZM155.781 52.659V61.6719L123.57 117.527C119.577 115.022 115.886 112.084 112.573 108.767C101.305 97.5069 94.3297 81.9448 94.3297 64.7543C94.3297 47.5638 101.305 32.0076 112.573 20.7416C121.886 11.4343 134.14 5.05921 147.82 3.12445C147.453 3.42488 147.098 3.74333 146.761 4.07981C144.236 6.60341 142.673 10.0884 142.673 13.9278C142.673 17.7673 144.236 21.2523 146.755 23.7819C149.094 26.1192 152.263 27.6334 155.787 27.8377V41.1887C152.979 41.5913 150.826 44.0007 150.826 46.9209C150.826 49.835 152.985 52.2505 155.787 52.653L155.781 52.659ZM157.44 41.1947V27.8437C160.958 27.6394 164.126 26.1252 166.465 23.7819C168.991 21.2583 170.554 17.7733 170.554 13.9339C170.554 10.0944 168.991 6.60942 166.471 4.07981C166.135 3.74333 165.786 3.42488 165.413 3.12445C179.092 5.05921 191.34 11.4283 200.654 20.7355C211.922 31.9956 218.897 47.5578 218.897 64.7483C218.897 81.9388 211.922 97.5009 200.654 108.761C197.341 112.072 193.649 115.016 189.657 117.515L157.801 62.2968L157.434 61.6659V52.647C160.242 52.2444 162.401 49.835 162.401 46.9149C162.401 43.9947 160.242 41.5853 157.434 41.1827L157.44 41.1947ZM59.8342 220.833L68.9797 215.137H130.16C130.557 221.842 129.859 228.536 128.134 234.953C124.009 250.341 114.01 264.154 99.1098 272.747C84.2161 281.339 67.242 283.087 51.8432 278.966C38.4887 275.39 26.3128 267.393 17.7085 255.622C18.2797 255.857 18.8629 256.055 19.4522 256.217C22.8915 257.136 26.6916 256.746 30.0287 254.823C33.3658 252.9 35.6086 249.806 36.5286 246.363C37.4245 243.028 37.0817 239.363 35.308 236.106L50.0995 226.895C51.8732 229.004 54.9578 229.599 57.4231 228.175C60.0086 226.685 61.0067 223.5 59.8342 220.833ZM49.2216 225.489L34.4361 234.7C32.506 231.973 29.7221 230.122 26.6736 229.305C23.2282 228.385 19.4282 228.776 16.0971 230.699C12.76 232.621 10.5232 235.716 9.59722 239.153C9.51905 239.447 9.45291 239.736 9.39278 240.036C4.94932 227.809 4.57051 214.788 7.8054 202.735C11.9302 187.347 21.9295 173.533 36.8292 164.935C51.7229 156.343 68.6971 154.6 84.0959 158.722C88.5333 159.912 92.8385 161.588 96.9212 163.727L68.0477 213.767L58.9563 219.433C57.1826 217.324 54.098 216.729 51.6267 218.153C49.0412 219.643 48.0431 222.828 49.2216 225.495V225.489ZM155.781 128.926V138.215C151.415 134.051 146.683 130.368 141.68 127.183C146.214 128.265 150.934 128.86 155.781 128.926ZM130.184 123.26L122.175 137.145L117.208 134.051L124.833 120.832C125.524 121.103 126.216 121.379 126.907 121.667C127.983 122.226 129.078 122.761 130.184 123.266V123.26ZM118.994 116.77C118.008 116.47 117.01 116.188 116.018 115.917C100.956 111.885 84.8775 111.651 69.3404 115.629C67.4164 108.298 66.3882 100.601 66.3882 92.67C66.3882 67.7706 76.4897 45.2264 92.8144 28.9132C102.802 18.933 115.122 11.2841 128.885 6.84375C122.289 10.0043 116.318 14.2523 111.202 19.3656C99.5788 30.9801 92.3935 47.023 92.3935 64.7483C92.3935 82.4735 99.5849 98.5164 111.208 110.131C113.625 112.546 116.228 114.764 119.006 116.77H118.994ZM125.933 118.927L155.781 67.1817V78.8924L131.224 121.463C130.082 120.928 128.927 120.418 127.761 119.931C127.142 119.606 126.534 119.276 125.927 118.933L125.933 118.927ZM133.593 122.599L132.727 122.172L155.787 82.1971V126.985C147.958 126.883 140.472 125.339 133.593 122.599ZM157.446 126.985V82.1971L180.541 122.232C173.416 125.194 165.623 126.877 157.446 126.985ZM182.069 121.571L157.446 78.8864V67.1757L187.294 118.921C185.598 119.883 183.854 120.766 182.069 121.565V121.571ZM189.158 178.863C192.976 177.421 196.674 175.738 200.233 173.822C197.87 176.225 195.669 178.845 193.667 181.669L189.158 178.863ZM124.075 178.863L120.095 181.338C118.381 178.953 116.529 176.718 114.551 174.633C117.629 176.213 120.804 177.625 124.075 178.857V178.863ZM106.933 170.253C111.226 173.69 115.116 177.739 118.453 182.366L86.5431 202.248L105.532 169.333C105.995 169.646 106.464 169.952 106.939 170.253H106.933ZM104.155 168.402L83.5607 204.099L73.0203 210.666L99.3323 165.049C99.7472 165.29 100.162 165.536 100.571 165.788C101.743 166.69 102.94 167.561 104.155 168.402ZM93.8306 160.092C90.8362 158.776 87.7456 157.695 84.5949 156.854C68.7211 152.605 51.2239 154.408 35.8611 163.265C20.5044 172.127 10.1925 186.368 5.94143 202.23C4.06543 209.218 3.36795 216.525 3.93315 223.819C0.890675 209.681 1.35967 195.182 5.02147 181.543C10.9982 159.251 25.483 139.242 47.057 126.793C53.7913 122.905 60.8203 119.985 67.9816 117.99C72.3348 133.24 80.5303 146.879 91.4495 157.791C92.2312 158.572 93.0249 159.335 93.8306 160.086V160.092ZM187.179 179.584L192.723 183.039C191.917 184.241 191.142 185.484 190.402 186.758C187.721 191.397 185.688 196.234 184.269 201.161C184.005 194.563 183.031 187.948 181.311 181.429C183.295 180.876 185.249 180.263 187.179 179.59V179.584ZM179.447 181.921C181.449 189.498 182.417 197.207 182.411 204.868H157.446V184.763C165.034 184.697 172.4 183.712 179.447 181.921ZM157.446 182.829V165.29C158.877 165.085 160.14 164.352 161.036 163.301L176.573 172.98C177.463 175.318 178.244 177.679 178.93 180.053C172.051 181.801 164.854 182.762 157.446 182.829ZM180.794 179.56C180.319 177.914 179.802 176.273 179.23 174.639L185.051 178.262C183.65 178.725 182.225 179.157 180.794 179.56ZM208.104 166.72L191.869 138.575L196.836 135.481L212.824 163.199C211.291 164.424 209.715 165.596 208.098 166.72H208.104ZM69.8455 117.497C85.0459 113.616 100.775 113.844 115.513 117.792C117.774 118.399 120.004 119.09 122.211 119.871L98.238 161.432C96.362 159.84 94.5461 158.169 92.8084 156.433C82.1297 145.762 74.1146 132.423 69.8455 117.503V117.497ZM100.391 163.199L116.379 135.487L121.345 138.581L105.213 166.545C104.058 165.728 102.88 164.947 101.677 164.208C101.244 163.878 100.817 163.541 100.391 163.199ZM157.44 25.0677V2.79999C160.194 3.00428 162.671 4.19998 164.517 6.0386C166.537 8.05748 167.782 10.8455 167.782 13.9339C167.782 17.0223 166.531 19.8162 164.511 21.8291C162.671 23.6677 160.194 24.8634 157.44 25.0677ZM155.781 2.79398V25.0677C153.027 24.8634 150.543 23.6677 148.703 21.8291C146.683 19.8102 145.439 17.0223 145.439 13.9339C145.439 10.8455 146.689 8.05147 148.709 6.0386C150.549 4.19998 153.027 3.00428 155.781 2.79999V2.79398ZM32.0911 236.167L13.1688 247.955C11.8159 245.384 11.5694 242.5 12.2729 239.874C13.0125 237.122 14.7923 234.652 17.4439 233.108L17.486 233.09C20.1557 231.552 23.2042 231.239 25.9641 231.979C28.3632 232.621 30.5458 234.058 32.0911 236.173V236.167ZM14.0467 249.361L32.969 237.573C34.3219 240.144 34.5684 243.028 33.8649 245.654C33.1253 248.418 31.3275 250.9 28.6638 252.438C25.9941 253.982 22.9456 254.294 20.1798 253.549C17.7806 252.906 15.598 251.47 14.0467 249.355V249.361ZM288.038 231.973C290.804 231.233 293.847 231.546 296.516 233.084L296.558 233.102C299.21 234.646 300.99 237.116 301.729 239.868C302.469 242.62 302.162 245.648 300.635 248.31L281.677 236.497C283.228 234.202 285.519 232.646 288.038 231.973ZM280.847 237.933L299.703 249.68C298.176 251.615 296.095 252.936 293.823 253.549C291.057 254.288 288.008 253.976 285.338 252.438C282.669 250.9 280.877 248.418 280.137 245.654C279.464 243.148 279.662 240.415 280.853 237.939L280.847 237.933ZM157.452 153.825V142.607C160.465 145.768 163.278 149.181 165.858 152.834L161.054 155.826C160.158 154.769 158.889 154.029 157.452 153.825ZM161.932 157.232L166.802 154.198C168.029 156.006 169.201 157.875 170.313 159.798L170.362 159.894L170.38 159.912C172.346 163.331 174.065 166.828 175.545 170.379L161.92 161.889C162.238 161.174 162.413 160.381 162.413 159.545C162.413 158.71 162.238 157.935 161.926 157.22L161.932 157.232ZM119.409 183.718C120.287 185.01 121.129 186.344 121.922 187.713C125.097 193.205 127.334 198.986 128.693 204.862H85.4608L119.409 183.718ZM82.7971 206.526H129.054C129.444 208.467 129.739 210.414 129.944 212.361H73.4292L82.7971 206.526ZM157.452 206.526H182.399C182.363 208.479 182.261 210.426 182.099 212.361H157.452V206.526Z" fill="#E6B862" fill-opacity="0.1"/>
</svg>
