<svg width="157" height="139" viewBox="0 0 157 139" fill="none" xmlns="http://www.w3.org/2000/svg">
<g filter="url(#filter0_i_1685_11455)">
<circle cx="78.4962" cy="69.5" r="53.5" fill="url(#paint0_radial_1685_11455)"/>
</g>
<path d="M150.706 57.3271C148.183 55.2475 144.86 53.899 141.004 53.7284C141.004 53.7284 141.004 53.7284 140.995 53.7284C133.977 25.5888 108.662 4.75222 78.4962 4.71973C48.3301 4.7441 23.015 25.5888 15.997 53.7202C15.997 53.7202 15.997 53.7202 15.9889 53.7202C12.1323 53.8908 8.80921 55.2393 6.2866 57.3189C-1.88762 64.0614 -1.49144 73.7445 4.03889 80.1945C6.94959 83.5901 11.2833 85.0198 15.7949 84.6868C15.8111 84.6786 15.8272 84.6624 15.8434 84.6543C22.627 113.111 48.1037 134.272 78.5043 134.297C108.905 134.272 134.374 113.111 141.165 84.6543C141.181 84.6624 141.198 84.6786 141.214 84.6868C145.717 85.028 150.051 83.5901 152.97 80.1945C158.5 73.7445 158.896 64.0614 150.722 57.3189L150.706 57.3271ZM140.09 75.2392C138.934 73.8745 139.079 70.5764 140.745 70.5195C141.933 72.1361 146.065 71.5187 144.957 67.725C144.246 65.2799 140.591 63.9964 136.783 65.7836C130.177 68.8948 129.401 78.3667 134.665 82.4853C128.803 108.228 105.889 127.44 78.4962 127.465C51.1033 127.44 28.1896 108.228 22.3278 82.4853C27.5913 78.3667 26.8151 68.8948 20.2095 65.7836C16.4013 63.9883 12.7467 65.2799 12.0352 67.725C10.9276 71.5187 15.0591 72.1361 16.2477 70.5195C17.9051 70.5682 18.0507 73.8745 16.9026 75.2392C13.1672 79.6502 6.38362 74.6706 8.57473 66.6771C10.1271 61.0395 14.5578 59.6097 18.5277 60.0078C18.5762 59.7235 18.6328 59.4392 18.6813 59.163L21.5435 60.6252C25.7964 32.8593 49.6722 11.5921 78.4962 11.5597C107.32 11.584 131.196 32.8593 135.449 60.6252L138.311 59.163C138.36 59.4392 138.408 59.7153 138.465 60.0078C142.443 59.6016 146.865 61.0313 148.418 66.6771C150.617 74.6625 143.833 79.6502 140.09 75.2392Z" fill="url(#paint1_linear_1685_11455)"/>
<path style="mix-blend-mode:multiply" opacity="0.6" d="M78.4963 134.305C93.2196 134.288 106.795 129.317 117.645 120.958L109.891 118.098C100.86 124.012 90.0825 127.457 78.4963 127.465C65.867 127.457 54.1838 123.362 44.6917 116.425L36.6792 118.773C47.9339 128.44 62.5359 134.28 78.5043 134.297L78.4963 134.305Z" fill="url(#paint2_radial_1685_11455)"/>
<path style="mix-blend-mode:multiply" opacity="0.6" d="M4.03889 80.2026C0.562219 76.149 -0.885046 70.8119 0.554134 65.7347C2.26821 70.0077 5.33254 72.3066 8.71218 73.3301C10.3373 76.9613 14.3557 78.2367 16.8945 75.2392C17.2502 74.8167 17.4847 74.2156 17.5817 73.582C20.5895 72.9565 24.4866 69.8452 24.4866 69.8452C27.1062 74.8005 25.57 80.0888 22.3197 82.5015L15.7868 84.7029C11.2833 85.0441 6.94959 83.6063 4.0308 80.2107L4.03889 80.2026Z" fill="url(#paint3_linear_1685_11455)"/>
<path d="M18.9239 57.8307L21.5435 60.6251C18.5115 59.5122 10.6607 58.8867 8.47771 66.8314C6.27851 74.8168 13.2238 79.6502 16.9592 75.2392C18.1154 73.8745 17.9698 70.5763 16.3043 70.5195C16.4417 70.1702 16.563 69.7965 16.5387 69.2197C21.0746 69.8452 20.2256 77.2294 14.9944 78.4317C11.5501 79.2278 8.89814 77.4812 6.90108 75.1904C1.95289 69.5203 6.70703 56.0923 18.9077 57.8388L18.9239 57.8307Z" fill="url(#paint4_linear_1685_11455)"/>
<path d="M23.9772 69.0004C27.1143 73.2408 25.7964 80.3163 22.3197 82.4853C22.3197 82.4853 20.7835 83.0945 19.4009 83.4682C22.4086 81.7948 27.0739 74.5081 23.9772 69.0004Z" fill="url(#paint5_linear_1685_11455)"/>
<path style="mix-blend-mode:multiply" opacity="0.6" d="M16.6519 75.4992C16.7328 75.4099 16.8136 75.3205 16.8945 75.2311C18.0507 73.8664 17.9051 70.5683 16.2396 70.5114C16.377 70.1621 16.4983 69.7884 16.4741 69.2117C19.6597 69.6503 20.1852 73.4115 18.4145 76.0354L16.6519 75.4992Z" fill="url(#paint6_linear_1685_11455)"/>
<path style="mix-blend-mode:multiply" opacity="0.6" d="M10.2565 63.0865L8.42111 61.0638C11.3237 58.0906 15.9 57.3189 18.932 57.8307L21.5516 60.6251C19.7243 59.8453 13.5148 59.0817 10.2646 63.0865H10.2565Z" fill="url(#paint7_linear_1685_11455)"/>
<g style="mix-blend-mode:screen" opacity="0.5">
<path d="M2.07417 62.1686C3.08483 60.4545 4.46741 58.8136 6.27851 57.3189C7.20832 56.5553 8.24324 55.8973 9.37518 55.353C5.58318 58.8055 5.34871 62.0711 10.7254 59.2523C7.28109 61.1613 6.22192 64.1345 5.6236 65.7267C6.39171 59.1792 5.31636 57.4407 2.07417 62.1686Z" fill="#F9A346"/>
</g>
<g style="mix-blend-mode:screen" opacity="0.5">
<path d="M14.0727 68.1962C15.0187 67.2051 16.563 68.1962 16.4821 69.2116C16.5145 69.7071 16.4175 70.1539 16.28 70.5195C16.2719 70.5195 16.2558 70.5195 16.2477 70.5195C15.0591 72.136 10.9276 71.5187 12.0352 67.725C12.7467 65.2799 16.6762 63.8339 20.2095 65.7835C20.5005 65.946 20.7754 66.1166 21.0422 66.2953C18.3256 64.9549 14.2263 65.3448 14.0727 68.1962Z" fill="#F9A346"/>
</g>
<path d="M13.3208 66.4984C13.4016 66.6365 13.7978 66.5553 14.2102 66.3197C14.6225 66.0841 14.8893 65.7754 14.8085 65.6373C14.7276 65.4992 14.3315 65.5805 13.9191 65.8161C13.5068 66.0516 13.2399 66.3603 13.3208 66.4984Z" fill="url(#paint8_linear_1685_11455)"/>
<path style="mix-blend-mode:multiply" opacity="0.6" d="M152.954 80.2026C156.43 76.149 157.878 70.8119 156.438 65.7347C154.724 70.0077 151.66 72.3066 148.28 73.3301C146.655 76.9613 142.637 78.2367 140.098 75.2392C139.742 74.8167 139.508 74.2156 139.411 73.582C136.403 72.9565 132.506 69.8452 132.506 69.8452C129.886 74.8005 131.423 80.0888 134.673 82.5015L141.206 84.7029C145.709 85.0441 150.043 83.6063 152.962 80.2107L152.954 80.2026Z" fill="url(#paint9_linear_1685_11455)"/>
<path d="M138.061 57.8307L135.441 60.6251C138.473 59.5122 146.324 58.8867 148.507 66.8314C150.706 74.8168 143.761 79.6502 140.025 75.2392C138.869 73.8745 139.015 70.5763 140.68 70.5195C140.543 70.1702 140.421 69.7965 140.446 69.2197C135.91 69.8452 136.759 77.2294 141.99 78.4317C145.434 79.2278 148.086 77.4812 150.083 75.1904C155.032 69.5203 150.277 56.0923 138.077 57.8388L138.061 57.8307Z" fill="url(#paint10_linear_1685_11455)"/>
<path d="M133.015 69.0004C129.878 73.2408 131.196 80.3163 134.673 82.4853C134.673 82.4853 136.209 83.0945 137.592 83.4682C134.584 81.7948 129.919 74.5081 133.015 69.0004Z" fill="url(#paint11_linear_1685_11455)"/>
<path style="mix-blend-mode:multiply" opacity="0.6" d="M140.333 75.4992C140.252 75.4099 140.171 75.3205 140.09 75.2311C138.934 73.8664 139.079 70.5683 140.745 70.5114C140.607 70.1621 140.486 69.7884 140.51 69.2117C137.325 69.6503 136.799 73.4115 138.57 76.0354L140.333 75.4992Z" fill="url(#paint12_linear_1685_11455)"/>
<path style="mix-blend-mode:multiply" opacity="0.6" d="M146.736 63.0865L148.571 61.0638C145.669 58.0906 141.093 57.3189 138.061 57.8307L135.441 60.6251C137.268 59.8453 143.478 59.0817 146.728 63.0865H146.736Z" fill="url(#paint13_linear_1685_11455)"/>
<g style="mix-blend-mode:screen" opacity="0.5">
<path d="M154.91 62.1686C153.9 60.4545 152.517 58.8136 150.706 57.3189C149.776 56.5553 148.741 55.8973 147.609 55.353C151.401 58.8055 151.636 62.0711 146.259 59.2523C149.703 61.1613 150.763 64.1345 151.361 65.7267C150.593 59.1792 151.668 57.4407 154.91 62.1686Z" fill="#F9A346"/>
</g>
<g style="mix-blend-mode:screen" opacity="0.5">
<path d="M142.92 68.1962C141.974 67.2051 140.43 68.1962 140.51 69.2116C140.478 69.7071 140.575 70.1539 140.713 70.5195C140.721 70.5195 140.737 70.5195 140.745 70.5195C141.933 72.136 146.065 71.5187 144.957 67.725C144.246 65.2799 140.316 63.8339 136.783 65.7835C136.492 65.946 136.217 66.1166 135.95 66.2953C138.667 64.9549 142.766 65.3448 142.92 68.1962Z" fill="#F9A346"/>
</g>
<path d="M143.672 66.4984C143.591 66.6365 143.195 66.5553 142.782 66.3197C142.37 66.0841 142.103 65.7754 142.184 65.6373C142.265 65.4992 142.661 65.5805 143.073 65.8161C143.486 66.0516 143.753 66.3603 143.672 66.4984Z" fill="url(#paint14_linear_1685_11455)"/>
<path style="mix-blend-mode:multiply" opacity="0.8" d="M28.4322 98.2123C25.6751 93.3626 23.5972 88.0824 22.3278 82.4854L15.8434 84.6624C17.3392 90.9418 19.7486 96.8638 22.918 102.282L28.4403 98.2123H28.4322Z" fill="url(#paint15_linear_1685_11455)"/>
<path style="mix-blend-mode:multiply" opacity="0.8" d="M128.665 98.2123C131.423 93.3626 133.5 88.0824 134.77 82.4854L141.254 84.6624C139.758 90.9418 137.349 96.8638 134.18 102.282L128.657 98.2123H128.665Z" fill="url(#paint16_linear_1685_11455)"/>
<g style="mix-blend-mode:screen" opacity="0.5">
<path d="M118.51 18.7489C119.448 23.6311 126.984 35.8568 136.152 40.5928C131.916 32.0713 125.868 24.6221 118.51 18.7489Z" fill="#F9A346"/>
</g>
<path d="M78.4962 8.48896C48.9526 8.51333 24.3491 29.7398 18.9239 57.8388L21.5435 60.6333C25.7964 32.8592 49.6722 11.5921 78.4962 11.5596C107.32 11.584 131.196 32.8592 135.449 60.6251L138.069 57.8307C132.643 29.7317 108.04 8.50521 78.4962 8.48083V8.48896Z" fill="url(#paint17_linear_1685_11455)"/>
<path d="M78.4963 127.473C51.1033 127.448 28.1815 108.237 22.3197 82.4934C21.4384 82.8427 20.4439 83.2164 19.4009 83.4682C25.6751 110.438 49.745 130.519 78.4963 130.543C107.239 130.519 131.309 110.43 137.592 83.4682C136.549 83.2164 135.554 82.8427 134.673 82.4934C128.811 108.237 105.889 127.448 78.4963 127.473Z" fill="url(#paint18_linear_1685_11455)"/>
<path style="mix-blend-mode:multiply" opacity="0.6" d="M27.6964 96.8801C25.3032 92.4041 23.4759 87.5706 22.3197 82.4854C21.4384 82.8347 20.4439 83.2083 19.4009 83.4602C20.6056 88.6348 22.4652 93.5495 24.8827 98.123L27.6964 96.8801Z" fill="url(#paint19_linear_1685_11455)"/>
<path style="mix-blend-mode:multiply" opacity="0.6" d="M129.288 96.8801C131.681 92.4041 133.509 87.5706 134.665 82.4854C135.546 82.8347 136.541 83.2083 137.584 83.4602C136.379 88.6348 134.519 93.5495 132.102 98.123L129.288 96.8801Z" fill="url(#paint20_linear_1685_11455)"/>
<path style="mix-blend-mode:multiply" opacity="0.6" d="M100.415 12.5994C93.6157 9.95118 86.2258 8.48896 78.4962 8.48083C70.7991 8.48083 63.4415 9.93493 56.666 12.5669L58.7843 15.0527C64.9372 12.7944 71.5752 11.5596 78.5043 11.5515C85.4658 11.5515 92.128 12.8025 98.3052 15.0771L100.424 12.5913L100.415 12.5994Z" fill="url(#paint21_radial_1685_11455)"/>
<path d="M86.6137 9.01701L78.496 18.034L70.3784 9.01701L78.496 0L86.6137 9.01701Z" fill="url(#paint22_linear_1685_11455)"/>
<path d="M78.4962 0L83.8002 4.94717L82.8866 4.87406L78.4962 0Z" fill="url(#paint23_linear_1685_11455)"/>
<path d="M78.4962 0L73.1842 4.94717L74.1059 4.87406L78.4962 0Z" fill="url(#paint24_linear_1685_11455)"/>
<path d="M70.3625 12.1445L70.3786 9.01697L78.4962 18.034L70.3625 12.1445Z" fill="url(#paint25_linear_1685_11455)"/>
<path d="M86.63 12.1445L86.6139 9.01697L78.4962 18.034L86.63 12.1445Z" fill="url(#paint26_linear_1685_11455)"/>
<g style="mix-blend-mode:screen">
<path d="M75.626 3.18438L78.4962 0L83.8972 6.00321L78.4558 0.763602L75.626 3.18438Z" fill="#F9A346"/>
</g>
<path d="M83.5738 9.01706C83.5738 9.01706 79.9112 12.9163 78.4962 14.6547C77.0813 12.9163 75.4319 11.0885 73.4187 9.01706C75.4319 6.9537 78.4962 3.37939 78.4962 3.37939L83.5738 9.01706Z" fill="#BC4408"/>
<path d="M78.4962 3.37939V4.04552L82.9755 9.01706H83.5738L78.4962 3.37939Z" fill="url(#paint27_linear_1685_11455)"/>
<g style="mix-blend-mode:screen">
<path d="M73.4187 9.01697H74.017L78.4962 13.9885V14.6546L73.4187 9.01697Z" fill="#F9A346"/>
</g>
<path d="M82.9755 9.01695C82.9755 9.01695 79.7495 12.4532 78.4962 13.9885C77.2511 12.4532 75.7958 10.8366 74.017 9.01695C75.7877 7.1973 78.4962 4.04541 78.4962 4.04541L82.9755 9.01695Z" fill="url(#paint28_radial_1685_11455)"/>
<g style="mix-blend-mode:multiply" opacity="0.3">
<path d="M78.4962 13.9885L74.017 9.01695L77.0328 8.85448C77.0328 8.85448 79.2724 8.81386 80.6065 8.85448C82.2074 8.89509 82.9674 9.01695 82.9674 9.01695L78.4882 13.9885H78.4962Z" fill="#622170"/>
</g>
<path d="M80.6065 8.85455C79.895 9.58566 79.3209 10.2274 78.8197 10.8367C78.3184 10.2274 77.7362 9.57754 77.0328 8.85455C77.7443 8.12344 78.3184 7.48169 78.8197 6.87244C79.3209 7.48169 79.9031 8.13157 80.6065 8.85455Z" fill="url(#paint29_radial_1685_11455)"/>
<g style="mix-blend-mode:multiply" opacity="0.5">
<path d="M74.017 9.01696L77.0328 8.85449L78.8197 10.8366L78.4962 13.9885L74.017 9.01696Z" fill="#217021"/>
</g>
<g style="mix-blend-mode:screen">
<path d="M78.4962 4.04541L78.8197 6.86424L80.6065 8.85448L82.9755 9.01695L78.4962 4.04541Z" fill="url(#paint30_linear_1685_11455)"/>
</g>
<path d="M78.8197 6.86426L80.7359 8.39959L82.9755 9.01697L80.6065 8.8545L78.8197 6.86426Z" fill="#ECFC1D"/>
<path d="M86.6137 129.983L78.496 139L70.3784 129.983L78.496 120.966L86.6137 129.983Z" fill="url(#paint31_linear_1685_11455)"/>
<path d="M78.4962 120.966L85.0696 127.091L84.1074 127.197L78.4962 120.966Z" fill="url(#paint32_linear_1685_11455)"/>
<path d="M78.4962 120.966L71.9229 127.091L72.8851 127.197L78.4962 120.966Z" fill="url(#paint33_linear_1685_11455)"/>
<path d="M70.3625 133.793L70.3786 129.983L78.4962 139L70.3625 133.793Z" fill="url(#paint34_linear_1685_11455)"/>
<path d="M86.63 133.793L86.6139 129.983L78.4962 139L86.63 133.793Z" fill="url(#paint35_linear_1685_11455)"/>
<g style="mix-blend-mode:screen">
<path d="M75.626 124.142L78.4962 120.966L83.8972 126.961L78.4558 121.73L75.626 124.142Z" fill="#F9A346"/>
</g>
<path d="M83.5738 129.983C83.5738 129.983 79.9112 133.882 78.4962 135.621C77.0813 133.882 75.4319 132.054 73.4187 129.983C75.4319 127.92 78.4962 124.345 78.4962 124.345L83.5738 129.983Z" fill="#BC4408"/>
<path d="M78.4962 124.345V125.011L82.9755 129.983H83.5738L78.4962 124.345Z" fill="url(#paint36_linear_1685_11455)"/>
<g style="mix-blend-mode:screen">
<path d="M73.4187 129.983H74.017L78.4962 134.954V135.621L73.4187 129.983Z" fill="#F9A346"/>
</g>
<path d="M82.9755 129.983C82.9755 129.983 79.7495 133.419 78.4962 134.954C77.2511 133.419 75.7958 131.803 74.017 129.983C75.7877 128.163 78.4962 125.011 78.4962 125.011L82.9755 129.983Z" fill="url(#paint37_radial_1685_11455)"/>
<g style="mix-blend-mode:multiply" opacity="0.3">
<path d="M78.4962 134.954L74.017 129.983L77.0328 129.82C77.0328 129.82 79.2724 129.78 80.6065 129.82C82.2074 129.861 82.9674 129.983 82.9674 129.983L78.4882 134.954H78.4962Z" fill="#622170"/>
</g>
<path d="M80.6065 129.82C79.895 130.552 79.3209 131.193 78.8197 131.803C78.3184 131.193 77.7362 130.543 77.0328 129.82C77.7443 129.089 78.3184 128.448 78.8197 127.838C79.3209 128.448 79.9031 129.098 80.6065 129.82Z" fill="url(#paint38_radial_1685_11455)"/>
<g style="mix-blend-mode:multiply" opacity="0.5">
<path d="M74.017 129.983L77.0328 129.82L78.8197 131.803L78.4962 134.954L74.017 129.983Z" fill="#217021"/>
</g>
<g style="mix-blend-mode:screen">
<path d="M78.4962 125.011L78.8197 127.83L80.6065 129.82L82.9755 129.983L78.4962 125.011Z" fill="url(#paint39_linear_1685_11455)"/>
</g>
<path d="M78.8197 127.83L80.7359 129.366L82.9755 129.983L80.6065 129.82L78.8197 127.83Z" fill="#ECFC1D"/>
<g style="mix-blend-mode:screen" opacity="0.5">
<path d="M38.8218 111.535C41.3282 117.367 46.1551 122.03 57.4018 123.582C57.4018 123.533 57.4018 123.492 57.3937 123.444C50.4403 120.69 44.15 116.62 38.8299 111.535H38.8218Z" fill="#F9A346"/>
</g>
<path d="M114.904 124.532L103.747 125.637L93.8098 135.426L85.4253 126.173L84.1155 126.165L83.0078 125.158L85.0777 121.624L94.2302 128.797L102.235 121.153L114.904 124.532Z" fill="url(#paint40_linear_1685_11455)"/>
<path d="M114.904 124.532L103.35 123.111L94.1574 131.998L85.2879 123.582L83.0725 125.206L84.1155 126.165L85.4253 126.173L93.8098 135.426L103.747 125.637L114.904 124.532Z" fill="url(#paint41_linear_1685_11455)"/>
<path d="M85.2879 123.582L85.4253 126.173L84.0913 126.181L83.0725 125.206L85.2879 123.582Z" fill="url(#paint42_linear_1685_11455)"/>
<path d="M93.8098 135.426L94.1574 131.998L85.2879 123.582L85.4253 126.173L93.8098 135.426Z" fill="url(#paint43_linear_1685_11455)"/>
<path d="M103.35 123.111L103.747 125.637L114.904 124.532L103.35 123.111Z" fill="url(#paint44_linear_1685_11455)"/>
<g style="mix-blend-mode:screen" opacity="0.5">
<path d="M100.731 122.599C102.873 121.104 102.841 123.119 99.3725 126.295C96.7043 128.748 94.9175 128.155 95.9039 127.213C96.8903 126.271 100.739 122.599 100.739 122.599H100.731Z" fill="#F9A346"/>
</g>
<path d="M99.6393 123.988C99.7201 124.077 100.092 123.874 100.456 123.533C100.828 123.192 101.054 122.843 100.973 122.745C100.892 122.656 100.521 122.859 100.157 123.2C99.7929 123.541 99.5584 123.89 99.6393 123.988Z" fill="url(#paint45_linear_1685_11455)"/>
<path d="M99.0329 124.605C99.0975 124.67 99.2673 124.622 99.4129 124.483C99.5584 124.345 99.6231 124.183 99.5665 124.118C99.5018 124.053 99.332 124.102 99.1865 124.24C99.041 124.378 98.9763 124.54 99.0329 124.605Z" fill="url(#paint46_linear_1685_11455)"/>
<path style="mix-blend-mode:multiply" opacity="0.2" d="M102.235 121.153C103.868 121.795 103.811 122.461 103.35 123.111C106.714 123.549 114.904 124.532 114.904 124.532L102.235 121.153Z" fill="url(#paint47_linear_1685_11455)"/>
<g style="mix-blend-mode:screen">
<path d="M98.7418 127.57L94.1574 131.608C94.1574 131.608 89.848 127.912 89.9693 128.025C90.0905 128.139 94.1574 131.998 94.1574 131.998L98.7418 127.57Z" fill="#F9A346"/>
</g>
<g style="mix-blend-mode:screen" opacity="0.8">
<path d="M87.3011 123.37C89.185 125.637 88.9424 127.059 87.6084 125.791C89.0395 127.148 90.1067 128.155 90.1067 128.155C88.9829 126.238 88.7807 124.524 93.074 127.895C91.6672 126.774 87.3011 123.37 87.3011 123.37Z" fill="#F9A346"/>
</g>
<g style="mix-blend-mode:multiply" opacity="0.35">
<path d="M88.6595 133.5L88.0531 129.78L86.1368 126.961L91.5782 132.964L88.6595 133.5Z" fill="#7A1C0B"/>
</g>
<g style="mix-blend-mode:multiply" opacity="0.35">
<path d="M103.747 125.637L101.046 128.699L100.884 130.275L98.0384 131.258L103.747 125.637Z" fill="#7A1C0B"/>
</g>
<path d="M42.1933 124.532L53.3591 125.637L63.2878 135.426L71.6804 126.173L72.9902 126.165L74.0979 125.158L72.028 121.624L62.8674 128.797L54.863 121.153L42.1933 124.532Z" fill="url(#paint48_linear_1685_11455)"/>
<path d="M42.1933 124.532L53.7472 123.111L62.9402 131.998L71.8178 123.582L74.0332 125.206L72.9902 126.165L71.6804 126.173L63.2878 135.426L53.3591 125.637L42.1933 124.532Z" fill="url(#paint49_linear_1685_11455)"/>
<path d="M71.8178 123.582L71.6804 126.173L73.0144 126.181L74.0332 125.206L71.8178 123.582Z" fill="url(#paint50_linear_1685_11455)"/>
<path d="M63.2878 135.426L62.9402 131.998L71.8178 123.582L71.6804 126.173L63.2878 135.426Z" fill="url(#paint51_linear_1685_11455)"/>
<path d="M53.7472 123.111L53.3591 125.637L42.1933 124.532L53.7472 123.111Z" fill="url(#paint52_linear_1685_11455)"/>
<g style="mix-blend-mode:screen" opacity="0.5">
<path d="M56.3749 122.599C54.2323 121.104 54.2647 123.119 57.7333 126.295C60.4014 128.748 62.1882 128.155 61.2018 127.213C60.2154 126.271 56.3668 122.599 56.3668 122.599H56.3749Z" fill="#F9A346"/>
</g>
<path d="M57.4664 123.988C57.3856 124.077 57.0137 123.874 56.6498 123.533C56.2779 123.192 56.0515 122.843 56.1324 122.745C56.2132 122.648 56.5851 122.859 56.949 123.2C57.3209 123.541 57.5473 123.89 57.4664 123.988Z" fill="url(#paint53_linear_1685_11455)"/>
<path d="M58.0728 124.605C58.0081 124.67 57.8384 124.622 57.6928 124.483C57.5473 124.345 57.4826 124.183 57.5392 124.118C57.6039 124.053 57.7737 124.102 57.9192 124.24C58.0647 124.378 58.1294 124.54 58.0728 124.605Z" fill="url(#paint54_linear_1685_11455)"/>
<path style="mix-blend-mode:multiply" opacity="0.2" d="M54.863 121.153C53.2297 121.795 53.2863 122.461 53.7472 123.111C50.3837 123.549 42.1933 124.532 42.1933 124.532L54.863 121.153Z" fill="url(#paint55_linear_1685_11455)"/>
<g style="mix-blend-mode:screen">
<path d="M58.3558 127.57L62.9402 131.608C62.9402 131.608 67.2496 127.912 67.1283 128.025C67.0071 128.139 62.9402 131.998 62.9402 131.998L58.3558 127.57Z" fill="#F9A346"/>
</g>
<g style="mix-blend-mode:screen" opacity="0.8">
<path d="M69.7965 123.37C67.9126 125.637 68.1552 127.059 69.4893 125.791C68.0582 127.148 66.9909 128.155 66.9909 128.155C68.1148 126.238 68.3169 124.524 64.0236 127.895C65.4304 126.774 69.7965 123.37 69.7965 123.37Z" fill="#F9A346"/>
</g>
<g style="mix-blend-mode:multiply" opacity="0.35">
<path d="M68.4382 133.5L69.0446 129.78L70.9689 126.961L65.5194 132.964L68.4382 133.5Z" fill="#7A1C0B"/>
</g>
<g style="mix-blend-mode:multiply" opacity="0.35">
<path d="M53.3591 125.637L56.0596 128.699L56.2213 130.275L59.0592 131.258L53.3591 125.637Z" fill="#7A1C0B"/>
</g>
<g style="mix-blend-mode:multiply" opacity="0.35">
<path d="M65.0989 13.1762L61.404 10.1461L60.3286 11.2103L60.4014 11.259C60.0052 11.3809 59.6171 11.5109 59.229 11.6408L54.4668 16.7748L54.5557 16.7992C55.5745 16.328 56.6175 15.8894 57.6686 15.4751L61.2989 11.8845L63.6112 13.493L65.0989 13.168V13.1762Z" fill="#7A1C0B"/>
</g>
<g style="mix-blend-mode:multiply" opacity="0.35">
<path d="M91.9259 13.1599L95.5966 10.1461C95.5966 10.1461 97.3835 11.5109 97.7716 11.6408L102.534 16.7748L102.445 16.7992C101.426 16.328 100.383 15.8894 99.332 15.4751L95.7017 11.8845L93.357 13.5173L91.934 13.1518L91.9259 13.1599Z" fill="#7A1C0B"/>
</g>
<path d="M115.988 13.5011L104.709 13.1925L95.1681 3.78552L86.6867 13.1356L85.2717 13.1031L84.0832 14.0129L86.3309 17.7335L95.5885 10.1462L103.181 17.7335L115.988 13.5011Z" fill="url(#paint56_radial_1685_11455)"/>
<g style="mix-blend-mode:screen" opacity="0.8">
<path d="M98.6771 7.23804C99.9789 8.70838 101.03 10.4224 98.2648 9.90252C99.7282 11.2998 102.17 13.6718 102.17 13.6718C100.238 11.6166 100.108 8.64339 102.008 10.5118C100.998 9.52072 98.6852 7.23804 98.6852 7.23804H98.6771Z" fill="#F9A346"/>
</g>
<path d="M115.988 13.5011L104.304 15.7513L95.5158 7.24609L86.5411 15.7594L84.0832 14.0129L82.9674 14.809L86.3309 17.7334L95.5885 10.1462L103.181 17.7334L115.988 13.5011Z" fill="url(#paint57_linear_1685_11455)"/>
<path d="M86.5411 15.7595L86.3309 17.7335L82.9674 14.809L84.0832 14.0129L86.5411 15.7595Z" fill="url(#paint58_linear_1685_11455)"/>
<path d="M95.5886 10.1462L95.5158 7.24609L86.5411 15.7594L86.3309 17.7334L95.5886 10.1462Z" fill="url(#paint59_linear_1685_11455)"/>
<path style="mix-blend-mode:multiply" opacity="0.2" d="M90.3089 12.1932C88.2229 13.8667 87.6165 12.5182 88.5544 11.0803C86.816 13.0462 86.6867 13.1355 86.6867 13.1355L85.2717 13.1112L84.0832 14.0129L86.5492 15.7594L90.3089 12.1932Z" fill="url(#paint60_linear_1685_11455)"/>
<g style="mix-blend-mode:multiply" opacity="0.15">
<path d="M86.6867 13.1356L84.8836 14.5816L84.0832 14.013L85.2717 13.1031L86.6867 13.1356Z" fill="#7A1C0B"/>
</g>
<g style="mix-blend-mode:multiply" opacity="0.15">
<path d="M84.8836 14.5816L83.121 14.9634L82.9593 14.809C82.9593 14.809 83.8487 14.1998 84.0751 14.0129C84.164 14.0779 84.8755 14.5816 84.8755 14.5816H84.8836Z" fill="#7A1C0B"/>
</g>
<path d="M107.474 15.2802L104.304 15.7514L102.396 13.9073C103.819 15.2802 104.943 15.662 107.474 15.2802Z" fill="#F9A346"/>
<path d="M104.304 15.7513L103.181 17.7334L115.988 13.5011L104.304 15.7513Z" fill="url(#paint61_linear_1685_11455)"/>
<g style="mix-blend-mode:screen" opacity="0.5">
<path d="M95.1681 3.78552C95.0953 5.62142 93.8017 7.89598 91.4731 10.2843C90.0906 11.7059 87.8186 11.8927 89.282 10.2843C90.7455 8.67583 95.1681 3.79365 95.1681 3.79365V3.78552Z" fill="#F9A346"/>
</g>
<path d="M93.4136 6.27941C93.5106 6.36065 93.3085 6.74245 92.977 7.12425C92.6455 7.50605 92.2978 7.74975 92.2008 7.66852C92.1038 7.58728 92.3059 7.20548 92.6374 6.82368C92.9689 6.44188 93.3166 6.19818 93.4136 6.27941Z" fill="url(#paint62_linear_1685_11455)"/>
<path d="M40.9967 13.5011L52.2838 13.1925L61.8244 3.78552L70.3059 13.1356L71.7208 13.1031L72.9093 14.0129L70.6616 17.7335L61.404 10.1462L53.8119 17.7335L40.9967 13.5011Z" fill="url(#paint63_radial_1685_11455)"/>
<g style="mix-blend-mode:screen" opacity="0.8">
<path d="M58.3154 7.23804C57.0137 8.70838 55.9626 10.4224 58.7277 9.90252C57.2643 11.2998 54.8226 13.6718 54.8226 13.6718C56.7549 11.6166 56.8843 8.64339 54.9843 10.5118C55.9949 9.52072 58.3073 7.23804 58.3073 7.23804H58.3154Z" fill="#F9A346"/>
</g>
<path d="M40.9967 13.5011L52.68 15.7513L61.4767 7.24609L70.4514 15.7594L72.9093 14.0129L74.0251 14.809L70.6616 17.7334L61.404 10.1462L53.8119 17.7334L40.9967 13.5011Z" fill="url(#paint64_linear_1685_11455)"/>
<path d="M70.4514 15.7595L70.6616 17.7335L74.0251 14.809L72.9093 14.0129L70.4514 15.7595Z" fill="url(#paint65_linear_1685_11455)"/>
<path d="M61.404 10.1462L61.4767 7.24609L70.4514 15.7594L70.6616 17.7334L61.404 10.1462Z" fill="url(#paint66_linear_1685_11455)"/>
<path style="mix-blend-mode:multiply" opacity="0.2" d="M66.6837 12.1932C68.7697 13.8667 69.3761 12.5182 68.4382 11.0803C70.1765 13.0462 70.3059 13.1355 70.3059 13.1355L71.7208 13.1112L72.9093 14.0129L70.4433 15.7594L66.6837 12.1932Z" fill="url(#paint67_linear_1685_11455)"/>
<g style="mix-blend-mode:multiply" opacity="0.15">
<path d="M70.3059 13.1356L72.1089 14.5816L72.9093 14.013L71.7208 13.1031L70.3059 13.1356Z" fill="#7A1C0B"/>
</g>
<g style="mix-blend-mode:multiply" opacity="0.15">
<path d="M72.1089 14.5816L73.8715 14.9634L74.0332 14.809C74.0332 14.809 73.1438 14.1998 72.9174 14.0129C72.8285 14.0779 72.117 14.5816 72.117 14.5816H72.1089Z" fill="#7A1C0B"/>
</g>
<path d="M49.5186 15.2802L52.688 15.7514L54.5962 13.9073C53.1731 15.2802 52.0493 15.662 49.5186 15.2802Z" fill="#F9A346"/>
<path d="M52.68 15.7513L53.8119 17.7334L40.9967 13.5011L52.68 15.7513Z" fill="url(#paint68_linear_1685_11455)"/>
<g style="mix-blend-mode:screen" opacity="0.5">
<path d="M61.8244 3.78552C61.8972 5.62142 63.1908 7.89598 65.5194 10.2843C66.902 11.7059 69.1739 11.8927 67.7105 10.2843C66.2471 8.67583 61.8244 3.79365 61.8244 3.79365V3.78552Z" fill="#F9A346"/>
</g>
<path d="M63.5708 6.27941C63.4738 6.36065 63.6759 6.74245 64.0074 7.12425C64.3389 7.50605 64.6866 7.74975 64.7836 7.66852C64.8806 7.58728 64.6785 7.20548 64.347 6.82368C64.0155 6.44188 63.6679 6.19818 63.5708 6.27941Z" fill="url(#paint69_linear_1685_11455)"/>
<g style="mix-blend-mode:multiply" opacity="0.35">
<path d="M104.862 17.9852L107.943 16.1575L103.892 17.4978L104.862 17.9852Z" fill="#7A1C0B"/>
</g>
<g style="mix-blend-mode:multiply" opacity="0.35">
<path d="M52.1382 17.9852L49.0577 16.1575L53.1085 17.4978L52.1382 17.9852Z" fill="#7A1C0B"/>
</g>
<path d="M128.496 30.3573C127.631 29.2687 127.056 28.2939 127.21 28.1721C127.364 28.0502 128.188 28.8301 129.054 29.9186C129.919 31.0072 130.493 31.982 130.339 32.1038C130.185 32.2257 129.361 31.4458 128.496 30.3573Z" fill="url(#paint70_linear_1685_11455)"/>
<path d="M46.3977 118.724C45.7509 118.269 45.3143 117.765 45.4274 117.603C45.5406 117.44 46.1551 117.676 46.8019 118.139C47.4488 118.594 47.8854 119.098 47.7722 119.26C47.659 119.423 47.0445 119.187 46.3977 118.724Z" fill="url(#paint71_linear_1685_11455)"/>
<path style="mix-blend-mode:color-dodge" opacity="0.6" d="M59.4392 2.20958C58.655 2.99755 60.1427 5.76764 62.7623 8.39963C65.3819 11.0316 68.139 12.5263 68.9233 11.7384C69.7076 10.9504 68.2199 8.1803 65.6002 5.54831C62.9806 2.91632 60.2235 1.42161 59.4392 2.20958Z" fill="url(#paint72_radial_1685_11455)"/>
<path style="mix-blend-mode:color-dodge" opacity="0.6" d="M88.0692 11.7384C88.8535 12.5263 91.6106 11.0316 94.2302 8.39963C96.8498 5.76764 98.3375 2.99755 97.5533 2.20958C96.769 1.42161 94.0119 2.91632 91.3923 5.54831C88.7726 8.1803 87.2849 10.9504 88.0692 11.7384Z" fill="url(#paint73_radial_1685_11455)"/>
<path style="mix-blend-mode:color-dodge" opacity="0.6" d="M124.024 25.3695C123.24 26.1575 124.728 28.9276 127.348 31.5595C129.967 34.1915 132.724 35.6862 133.509 34.8983C134.293 34.1103 132.805 31.3402 130.185 28.7082C127.566 26.0762 124.809 24.5815 124.024 25.3695Z" fill="url(#paint74_radial_1685_11455)"/>
<path style="mix-blend-mode:color-dodge" opacity="0.6" d="M40.7946 115.06C40.2367 116.027 42.3955 118.318 45.5972 120.178C48.8071 122.038 51.8553 122.769 52.4131 121.803C52.971 120.836 50.8122 118.545 47.6105 116.685C44.4006 114.825 41.3525 114.094 40.7946 115.06Z" fill="url(#paint75_radial_1685_11455)"/>
<path style="mix-blend-mode:color-dodge" opacity="0.6" d="M51.8552 119.284C51.1518 120.146 52.8902 122.761 55.7443 125.133C58.5984 127.505 61.4848 128.732 62.1963 127.871C62.8997 127.01 61.1614 124.394 58.3073 122.022C55.4532 119.65 52.5668 118.423 51.8552 119.284Z" fill="url(#paint76_radial_1685_11455)"/>
<path style="mix-blend-mode:color-dodge" opacity="0.6" d="M95.1357 127.871C94.4323 127.01 96.1707 124.394 99.0248 122.022C101.879 119.65 104.765 118.423 105.477 119.284C106.188 120.146 104.442 122.761 101.588 125.133C98.7337 127.505 95.8473 128.732 95.1357 127.871Z" fill="url(#paint77_radial_1685_11455)"/>
<path style="mix-blend-mode:color-dodge" opacity="0.6" d="M14.0646 69.8615C16.15 69.8615 17.8405 68.163 17.8405 66.0678C17.8405 63.9726 16.15 62.2742 14.0646 62.2742C11.9793 62.2742 10.2888 63.9726 10.2888 66.0678C10.2888 68.163 11.9793 69.8615 14.0646 69.8615Z" fill="url(#paint78_radial_1685_11455)"/>
<path style="mix-blend-mode:color-dodge" opacity="0.6" d="M146.696 66.0678C146.696 68.1637 145.006 69.8615 142.92 69.8615C140.834 69.8615 139.144 68.1637 139.144 66.0678C139.144 63.972 140.834 62.2742 142.92 62.2742C145.006 62.2742 146.696 63.972 146.696 66.0678Z" fill="url(#paint79_radial_1685_11455)"/>
<path d="M52.5549 76.5938C52.2795 76.166 51.9074 75.7969 51.4387 75.4863C50.9699 75.1699 50.4719 75.0117 49.9445 75.0117C49.8508 75.0117 49.7775 75.0146 49.7248 75.0205C49.6779 75.0264 49.5783 75.0469 49.426 75.082C49.59 75.4922 49.8889 75.876 50.3225 76.2334C50.7561 76.5908 51.2189 76.7695 51.7111 76.7695C52.0979 76.7227 52.3791 76.6641 52.5549 76.5938ZM53.8205 74.9414C53.9025 74.707 53.9641 74.417 54.0051 74.0713C54.0461 73.7197 54.0666 73.3184 54.0666 72.8672C54.0666 71.9824 53.9641 71.1211 53.759 70.2832C53.5539 69.4453 53.2229 68.751 52.7658 68.2002C52.3088 67.6494 51.7463 67.374 51.0783 67.374C50.7092 67.374 50.3781 67.4795 50.0852 67.6904C49.798 67.9014 49.5578 68.1973 49.3645 68.5781C49.1711 68.9531 49.0158 69.3955 48.8986 69.9053C48.8459 70.1396 48.802 70.4062 48.7668 70.7051C48.7375 71.0039 48.7229 71.2822 48.7229 71.54C48.7229 72.0908 48.7697 72.6299 48.8635 73.1572C48.9631 73.6787 49.1037 74.2119 49.2854 74.7568C50.1584 74.3115 50.9201 74.0889 51.5705 74.0889C52.3615 74.0889 53.1115 74.373 53.8205 74.9414ZM55.6223 77.042C55.8273 77.3232 56.0559 77.543 56.3078 77.7012C56.5656 77.8535 56.8527 77.9297 57.1691 77.9297C57.4621 77.9297 57.7082 77.8359 57.9074 77.6484C58.1066 77.4609 58.2062 77.2002 58.2062 76.8662V76.5938L58.5666 76.4531C58.6896 77.0625 58.7512 77.5781 58.7512 78C58.7512 78.6973 58.5461 79.2891 58.1359 79.7754C57.7316 80.2617 57.1984 80.5049 56.5363 80.5049C55.9445 80.5049 55.3879 80.291 54.8664 79.8633C54.3508 79.4414 53.9348 78.832 53.6184 78.0352C52.6633 78.2051 51.8898 78.29 51.298 78.29C50.2551 78.29 49.3264 78.1289 48.5119 77.8066C47.6975 77.4785 47.009 77.0186 46.4465 76.4268C45.884 75.835 45.4592 75.1582 45.1721 74.3965C44.8908 73.6289 44.7502 72.8145 44.7502 71.9531C44.7502 70.7988 45.0227 69.7617 45.5676 68.8418C46.1184 67.916 46.9123 67.1895 47.9494 66.6621C48.9865 66.1289 50.1936 65.8623 51.5705 65.8623C52.5607 65.8623 53.4572 66.0264 54.26 66.3545C55.0627 66.6826 55.7453 67.1367 56.3078 67.7168C56.8703 68.2969 57.301 68.9678 57.5998 69.7295C57.8986 70.4854 58.048 71.2852 58.048 72.1289C58.048 72.7852 57.9602 73.4209 57.7844 74.0361C57.6086 74.6455 57.3391 75.2021 56.9758 75.7061C56.6125 76.2041 56.1613 76.6494 55.6223 77.042ZM66.3667 76.374C65.9448 76.9189 65.3736 77.3643 64.6529 77.71C63.938 78.0498 63.2378 78.2197 62.5523 78.2197C61.9019 78.2197 61.3716 78.0352 60.9614 77.666C60.5571 77.291 60.355 76.7227 60.355 75.9609V71.1357C60.355 70.1807 60.0327 69.7031 59.3882 69.7031V69.2461L63.7388 68.9297V75.1875C63.7388 75.5215 63.812 75.7881 63.9585 75.9873C64.0347 76.0869 64.1226 76.166 64.2222 76.2246C64.3218 76.2773 64.4331 76.3037 64.5562 76.3037C65.1245 76.1748 65.5669 75.8643 65.8833 75.3721C66.2056 74.8799 66.3667 74.3145 66.3667 73.6758V71.4961C66.3667 70.9043 66.3081 70.459 66.1909 70.1602C66.0737 69.8555 65.772 69.7031 65.2857 69.7031V69.2461L69.7154 69V76.374C69.7154 76.667 69.8062 76.9424 69.9878 77.2002C70.1753 77.458 70.4155 77.5869 70.7085 77.5869V78H66.5864C66.44 77.6602 66.3667 77.1182 66.3667 76.374ZM81.9276 72.4717L75.4061 73.8252C75.5467 74.7803 75.8778 75.5098 76.3993 76.0137C76.9207 76.5176 77.5213 76.7695 78.201 76.7695C78.5174 76.7695 78.828 76.7168 79.1327 76.6113C79.4432 76.5059 79.7479 76.3506 80.0467 76.1455C80.6385 75.7471 81.0662 75.2314 81.3299 74.5986L81.6727 74.7217L80.5565 78.1846C80.3748 78.0381 80.158 77.9648 79.9061 77.9648C79.7537 77.9648 79.3963 78.0117 78.8338 78.1055C78.2713 78.2051 77.7528 78.2549 77.2782 78.2549C76.6395 78.2549 76.0594 78.1904 75.5379 78.0615C75.0164 77.9385 74.536 77.7539 74.0965 77.5078C73.2762 77.0449 72.6727 76.459 72.286 75.75C72.0926 75.3809 71.9432 75.0088 71.8377 74.6338C71.7323 74.2588 71.6795 73.8809 71.6795 73.5C71.6795 72.5332 71.9315 71.7012 72.4354 71.0039C72.9393 70.3066 73.6073 69.7793 74.4393 69.4219C75.2713 69.0645 76.1473 68.8857 77.0672 68.8857C77.8817 68.8857 78.6405 69.0205 79.3436 69.29C80.0526 69.5596 80.6385 69.9668 81.1014 70.5117C81.5643 71.0508 81.8397 71.7041 81.9276 72.4717ZM75.3182 72.6914L78.2713 72.0938C78.2713 71.5078 78.1336 71.0625 77.8582 70.7578C77.5829 70.4473 77.2518 70.292 76.8651 70.292C76.3143 70.292 75.9188 70.541 75.6786 71.0391C75.4383 71.5312 75.3182 72.082 75.3182 72.6914ZM90.8088 68.9648L90.8966 71.5752L90.5539 71.6104C90.4132 71.2588 90.1994 70.9688 89.9123 70.7402C89.6252 70.5117 89.3 70.3418 88.9367 70.2305C88.5793 70.1191 88.2189 70.0635 87.8556 70.0635C87.4865 70.0635 87.1671 70.1162 86.8976 70.2217C86.6281 70.3271 86.4728 70.4707 86.4318 70.6523C86.4318 70.9277 86.5959 71.1328 86.924 71.2676C87.1291 71.3438 87.3605 71.4229 87.6183 71.5049C87.882 71.5869 88.2629 71.6982 88.7609 71.8389C89.6691 72.085 90.3839 72.3574 90.9054 72.6562C91.4269 72.9551 91.7668 73.3623 91.925 73.8779C91.9718 74.1299 91.9953 74.3438 91.9953 74.5195C91.9953 75.0703 91.8254 75.6357 91.4855 76.2158C91.1457 76.7959 90.592 77.2881 89.8244 77.6924C89.4435 77.8916 89.0158 78.041 88.5412 78.1406C88.0666 78.2402 87.5334 78.29 86.9416 78.29C86.5607 78.29 86.0158 78.2168 85.3068 78.0703C84.5978 77.9238 84.1232 77.8506 83.883 77.8506C83.4845 77.8506 83.2267 77.9619 83.1095 78.1846L82.8546 74.5986L83.215 74.5195C83.3908 75.1113 83.6339 75.5947 83.9445 75.9697C84.2609 76.3389 84.6154 76.6084 85.008 76.7783C85.2189 76.8662 85.4211 76.9336 85.6144 76.9805C85.8136 77.0215 86.0216 77.042 86.2384 77.042C86.508 77.042 86.757 77.0156 86.9855 76.9629C87.2199 76.9043 87.463 76.8135 87.715 76.6904C88.172 76.4736 88.4298 76.2422 88.4884 75.9961L88.5236 75.7324C88.5236 75.3457 88.3537 75.0938 88.0138 74.9766C87.674 74.8535 86.9855 74.6748 85.9484 74.4404C84.9171 74.2002 84.1496 73.9043 83.6457 73.5527C83.1418 73.1953 82.8898 72.6504 82.8898 71.918C82.9132 71.8535 82.925 71.7803 82.925 71.6982C82.925 71.4697 82.9689 71.2471 83.0568 71.0303C83.1505 70.8076 83.2912 70.5791 83.4787 70.3447C83.8244 69.9111 84.3283 69.5596 84.9904 69.29C85.6584 69.0205 86.4347 68.8857 87.3195 68.8857C87.7882 68.8857 88.3449 68.9297 88.9894 69.0176L90.0705 69.1406C90.4279 69.1055 90.674 69.0469 90.8088 68.9648ZM92.6938 69.9492C93.1098 69.873 93.4643 69.6357 93.7573 69.2373C94.0561 68.8389 94.2055 68.3643 94.2055 67.8135C94.2055 67.6084 94.1557 67.2891 94.0561 66.8555C95.2104 66.6445 96.3032 66.2139 97.3345 65.5635V69.29H98.8462C99.2915 69.29 99.6167 69.2285 99.8218 69.1055L99.2593 70.5117C99.1069 70.4121 98.9223 70.3623 98.7055 70.3623H97.3345V74.9414C97.3345 75.457 97.4311 75.8555 97.6245 76.1367C97.8237 76.418 98.0757 76.5586 98.3804 76.5586C98.7143 76.5586 99.06 76.4062 99.4175 76.1016C99.7573 75.8262 100.024 75.4395 100.217 74.9414L100.56 75.082L99.6548 77.6396C98.5239 78.0498 97.5454 78.2549 96.7192 78.2549C95.8872 78.2549 95.2163 78.0322 94.7065 77.5869C94.2026 77.1357 93.9507 76.415 93.9507 75.4248V70.3623H92.6938V69.9492ZM109.186 68.9648L109.274 71.5752L108.931 71.6104C108.791 71.2588 108.577 70.9688 108.29 70.7402C108.003 70.5117 107.678 70.3418 107.314 70.2305C106.957 70.1191 106.596 70.0635 106.233 70.0635C105.864 70.0635 105.545 70.1162 105.275 70.2217C105.006 70.3271 104.85 70.4707 104.809 70.6523C104.809 70.9277 104.973 71.1328 105.302 71.2676C105.507 71.3438 105.738 71.4229 105.996 71.5049C106.26 71.5869 106.64 71.6982 107.138 71.8389C108.047 72.085 108.762 72.3574 109.283 72.6562C109.804 72.9551 110.144 73.3623 110.303 73.8779C110.349 74.1299 110.373 74.3438 110.373 74.5195C110.373 75.0703 110.203 75.6357 109.863 76.2158C109.523 76.7959 108.97 77.2881 108.202 77.6924C107.821 77.8916 107.393 78.041 106.919 78.1406C106.444 78.2402 105.911 78.29 105.319 78.29C104.938 78.29 104.393 78.2168 103.684 78.0703C102.975 77.9238 102.501 77.8506 102.261 77.8506C101.862 77.8506 101.604 77.9619 101.487 78.1846L101.232 74.5986L101.593 74.5195C101.768 75.1113 102.012 75.5947 102.322 75.9697C102.638 76.3389 102.993 76.6084 103.386 76.7783C103.596 76.8662 103.799 76.9336 103.992 76.9805C104.191 77.0215 104.399 77.042 104.616 77.042C104.886 77.042 105.135 77.0156 105.363 76.9629C105.597 76.9043 105.841 76.8135 106.093 76.6904C106.55 76.4736 106.807 76.2422 106.866 75.9961L106.901 75.7324C106.901 75.3457 106.731 75.0938 106.391 74.9766C106.052 74.8535 105.363 74.6748 104.326 74.4404C103.295 74.2002 102.527 73.9043 102.023 73.5527C101.519 73.1953 101.267 72.6504 101.267 71.918C101.291 71.8535 101.303 71.7803 101.303 71.6982C101.303 71.4697 101.346 71.2471 101.434 71.0303C101.528 70.8076 101.669 70.5791 101.856 70.3447C102.202 69.9111 102.706 69.5596 103.368 69.29C104.036 69.0205 104.812 68.8857 105.697 68.8857C106.166 68.8857 106.722 68.9297 107.367 69.0176L108.448 69.1406C108.805 69.1055 109.052 69.0469 109.186 68.9648Z" fill="#6B4A14"/>
<defs>
<filter id="filter0_i_1685_11455" x="24.9962" y="16" width="107" height="111" filterUnits="userSpaceOnUse" color-interpolation-filters="sRGB">
<feFlood flood-opacity="0" result="BackgroundImageFix"/>
<feBlend mode="normal" in="SourceGraphic" in2="BackgroundImageFix" result="shape"/>
<feColorMatrix in="SourceAlpha" type="matrix" values="0 0 0 0 0 0 0 0 0 0 0 0 0 0 0 0 0 0 127 0" result="hardAlpha"/>
<feOffset dy="4"/>
<feGaussianBlur stdDeviation="2"/>
<feComposite in2="hardAlpha" operator="arithmetic" k2="-1" k3="1"/>
<feColorMatrix type="matrix" values="0 0 0 0 1 0 0 0 0 0.981333 0 0 0 0 0.883333 0 0 0 1 0"/>
<feBlend mode="normal" in2="shape" result="effect1_innerShadow_1685_11455"/>
</filter>
<radialGradient id="paint0_radial_1685_11455" cx="0" cy="0" r="1" gradientUnits="userSpaceOnUse" gradientTransform="translate(78.8985 35.3083) rotate(90.2628) scale(87.6926)">
<stop stop-color="#FEE5A2"/>
<stop offset="0.585" stop-color="#FCC860"/>
<stop offset="1" stop-color="#FCF5B2"/>
</radialGradient>
<linearGradient id="paint1_linear_1685_11455" x1="78.4962" y1="134.305" x2="78.4962" y2="4.71973" gradientUnits="userSpaceOnUse">
<stop stop-color="#ED480B"/>
<stop offset="0.99" stop-color="#F2B100"/>
</linearGradient>
<radialGradient id="paint2_radial_1685_11455" cx="0" cy="0" r="1" gradientUnits="userSpaceOnUse" gradientTransform="translate(77.1581 125.364) scale(36.4848 36.657)">
<stop stop-color="#691C00"/>
<stop offset="1" stop-color="#FFF1CC"/>
</radialGradient>
<linearGradient id="paint3_linear_1685_11455" x1="12.9489" y1="73.1108" x2="13.5855" y2="82.6554" gradientUnits="userSpaceOnUse">
<stop stop-color="#FFF1CC"/>
<stop offset="1" stop-color="#691C00"/>
</linearGradient>
<linearGradient id="paint4_linear_1685_11455" x1="13.2642" y1="78.6185" x2="13.2642" y2="57.6763" gradientUnits="userSpaceOnUse">
<stop offset="0.01" stop-color="#F2B100"/>
<stop offset="1" stop-color="#ED480B"/>
</linearGradient>
<linearGradient id="paint5_linear_1685_11455" x1="22.5784" y1="82.6234" x2="22.5784" y2="75.2392" gradientUnits="userSpaceOnUse">
<stop stop-color="#7A1C0B"/>
<stop offset="0.94" stop-color="#BC4408"/>
</linearGradient>
<linearGradient id="paint6_linear_1685_11455" x1="17.4685" y1="69.8534" x2="18.0969" y2="74.3855" gradientUnits="userSpaceOnUse">
<stop stop-color="#691C00"/>
<stop offset="1" stop-color="#FFF1CC"/>
</linearGradient>
<linearGradient id="paint7_linear_1685_11455" x1="21.0342" y1="60.6901" x2="13.07" y2="60.3602" gradientUnits="userSpaceOnUse">
<stop stop-color="#691C00"/>
<stop offset="1" stop-color="#FFF1CC"/>
</linearGradient>
<linearGradient id="paint8_linear_1685_11455" x1="18.5185" y1="62.6955" x2="18.03" y2="63.5265" gradientUnits="userSpaceOnUse">
<stop stop-color="white"/>
<stop offset="1" stop-color="#FFF7C4"/>
</linearGradient>
<linearGradient id="paint9_linear_1685_11455" x1="144.036" y1="73.1108" x2="143.399" y2="82.6554" gradientUnits="userSpaceOnUse">
<stop stop-color="#FFF1CC"/>
<stop offset="1" stop-color="#691C00"/>
</linearGradient>
<linearGradient id="paint10_linear_1685_11455" x1="143.72" y1="78.6185" x2="143.72" y2="57.6763" gradientUnits="userSpaceOnUse">
<stop offset="0.01" stop-color="#F2B100"/>
<stop offset="1" stop-color="#ED480B"/>
</linearGradient>
<linearGradient id="paint11_linear_1685_11455" x1="134.414" y1="-3.52469e-05" x2="134.414" y2="-3.52469e-05" gradientUnits="userSpaceOnUse">
<stop stop-color="#7A1C0B"/>
<stop offset="0.94" stop-color="#BC4408"/>
</linearGradient>
<linearGradient id="paint12_linear_1685_11455" x1="139.524" y1="69.8534" x2="138.896" y2="74.3855" gradientUnits="userSpaceOnUse">
<stop stop-color="#691C00"/>
<stop offset="1" stop-color="#FFF1CC"/>
</linearGradient>
<linearGradient id="paint13_linear_1685_11455" x1="135.95" y1="60.6901" x2="143.922" y2="60.3602" gradientUnits="userSpaceOnUse">
<stop stop-color="#691C00"/>
<stop offset="1" stop-color="#FFF1CC"/>
</linearGradient>
<linearGradient id="paint14_linear_1685_11455" x1="139.186" y1="66.4599" x2="139.674" y2="67.2909" gradientUnits="userSpaceOnUse">
<stop stop-color="white"/>
<stop offset="1" stop-color="#FFF7C4"/>
</linearGradient>
<linearGradient id="paint15_linear_1685_11455" x1="19.3524" y1="83.842" x2="24.7419" y2="99.3258" gradientUnits="userSpaceOnUse">
<stop stop-color="#691C00"/>
<stop offset="1" stop-color="#FFF1CC"/>
</linearGradient>
<linearGradient id="paint16_linear_1685_11455" x1="137.745" y1="83.842" x2="132.364" y2="99.3258" gradientUnits="userSpaceOnUse">
<stop stop-color="#691C00"/>
<stop offset="1" stop-color="#FFF1CC"/>
</linearGradient>
<linearGradient id="paint17_linear_1685_11455" x1="78.4963" y1="60.6251" x2="78.4963" y2="8.48896" gradientUnits="userSpaceOnUse">
<stop offset="0.01" stop-color="#F2B100"/>
<stop offset="1" stop-color="#ED480B"/>
</linearGradient>
<linearGradient id="paint18_linear_1685_11455" x1="78.4963" y1="130.543" x2="78.4963" y2="82.4934" gradientUnits="userSpaceOnUse">
<stop offset="0.01" stop-color="#F2B100"/>
<stop offset="1" stop-color="#ED480B"/>
</linearGradient>
<linearGradient id="paint19_linear_1685_11455" x1="20.9695" y1="82.6153" x2="25.1608" y2="95.3656" gradientUnits="userSpaceOnUse">
<stop stop-color="#691C00"/>
<stop offset="1" stop-color="#FFF1CC"/>
</linearGradient>
<linearGradient id="paint20_linear_1685_11455" x1="136.015" y1="82.6153" x2="131.832" y2="95.3656" gradientUnits="userSpaceOnUse">
<stop stop-color="#691C00"/>
<stop offset="1" stop-color="#FFF1CC"/>
</linearGradient>
<radialGradient id="paint21_radial_1685_11455" cx="0" cy="0" r="1" gradientUnits="userSpaceOnUse" gradientTransform="translate(78.5407 11.7814) scale(19.7556 19.8488)">
<stop stop-color="#691C00"/>
<stop offset="1" stop-color="#FFF1CC"/>
</radialGradient>
<linearGradient id="paint22_linear_1685_11455" x1="78.496" y1="2.85945" x2="78.496" y2="14.2647" gradientUnits="userSpaceOnUse">
<stop offset="0.01" stop-color="#F2B100"/>
<stop offset="1" stop-color="#ED480B"/>
</linearGradient>
<linearGradient id="paint23_linear_1685_11455" x1="78.4962" y1="2.46952" x2="83.8002" y2="2.46952" gradientUnits="userSpaceOnUse">
<stop offset="0.01" stop-color="#F2B100"/>
<stop offset="1" stop-color="#ED480B"/>
</linearGradient>
<linearGradient id="paint24_linear_1685_11455" x1="78.4962" y1="2.46952" x2="73.1923" y2="2.46952" gradientUnits="userSpaceOnUse">
<stop offset="0.01" stop-color="#F2B100"/>
<stop offset="1" stop-color="#ED480B"/>
</linearGradient>
<linearGradient id="paint25_linear_1685_11455" x1="78.4962" y1="13.5255" x2="70.3625" y2="13.5255" gradientUnits="userSpaceOnUse">
<stop offset="0.06" stop-color="#BC4408"/>
<stop offset="1" stop-color="#7A1C0B"/>
</linearGradient>
<linearGradient id="paint26_linear_1685_11455" x1="78.4962" y1="770.385" x2="86.63" y2="770.385" gradientUnits="userSpaceOnUse">
<stop offset="0.06" stop-color="#BC4408"/>
<stop offset="1" stop-color="#7A1C0B"/>
</linearGradient>
<linearGradient id="paint27_linear_1685_11455" x1="78.4154" y1="3.98865" x2="82.0619" y2="7.4321" gradientUnits="userSpaceOnUse">
<stop stop-color="#7A1C0B"/>
<stop offset="0.94" stop-color="#BC4408"/>
</linearGradient>
<radialGradient id="paint28_radial_1685_11455" cx="0" cy="0" r="1" gradientUnits="userSpaceOnUse" gradientTransform="translate(80.9469 3.24671) scale(5.50244 6.71913)">
<stop stop-color="#33FF33"/>
<stop offset="1" stop-color="#00DE00"/>
</radialGradient>
<radialGradient id="paint29_radial_1685_11455" cx="0" cy="0" r="1" gradientUnits="userSpaceOnUse" gradientTransform="translate(78.2561 6.61598) scale(2.79589 3.41412)">
<stop stop-color="#33FF33"/>
<stop offset="1" stop-color="#00DE00"/>
</radialGradient>
<linearGradient id="paint30_linear_1685_11455" x1="78.4962" y1="6.53118" x2="82.9755" y2="6.53118" gradientUnits="userSpaceOnUse">
<stop stop-color="#400900"/>
<stop offset="1" stop-color="#FB8A77"/>
</linearGradient>
<linearGradient id="paint31_linear_1685_11455" x1="78.496" y1="123.825" x2="78.496" y2="135.223" gradientUnits="userSpaceOnUse">
<stop offset="0.01" stop-color="#F2B100"/>
<stop offset="1" stop-color="#ED480B"/>
</linearGradient>
<linearGradient id="paint32_linear_1685_11455" x1="78.4962" y1="124.077" x2="85.0696" y2="124.077" gradientUnits="userSpaceOnUse">
<stop offset="0.01" stop-color="#F2B100"/>
<stop offset="1" stop-color="#ED480B"/>
</linearGradient>
<linearGradient id="paint33_linear_1685_11455" x1="78.4962" y1="124.077" x2="71.9229" y2="124.077" gradientUnits="userSpaceOnUse">
<stop offset="0.01" stop-color="#F2B100"/>
<stop offset="1" stop-color="#ED480B"/>
</linearGradient>
<linearGradient id="paint34_linear_1685_11455" x1="-762.478" y1="134.483" x2="-763.286" y2="134.483" gradientUnits="userSpaceOnUse">
<stop offset="0.06" stop-color="#BC4408"/>
<stop offset="1" stop-color="#7A1C0B"/>
</linearGradient>
<linearGradient id="paint35_linear_1685_11455" x1="78.4962" y1="134.483" x2="86.63" y2="134.483" gradientUnits="userSpaceOnUse">
<stop offset="0.06" stop-color="#BC4408"/>
<stop offset="1" stop-color="#7A1C0B"/>
</linearGradient>
<linearGradient id="paint36_linear_1685_11455" x1="78.4154" y1="124.946" x2="82.0619" y2="128.398" gradientUnits="userSpaceOnUse">
<stop stop-color="#7A1C0B"/>
<stop offset="0.94" stop-color="#BC4408"/>
</linearGradient>
<radialGradient id="paint37_radial_1685_11455" cx="0" cy="0" r="1" gradientUnits="userSpaceOnUse" gradientTransform="translate(296.188 124.576) scale(0.262772 0.320876)">
<stop stop-color="#33FF33"/>
<stop offset="1" stop-color="#00DE00"/>
</radialGradient>
<radialGradient id="paint38_radial_1685_11455" cx="0" cy="0" r="1" gradientUnits="userSpaceOnUse" gradientTransform="translate(78.2561 127.945) scale(2.79589 3.41412)">
<stop stop-color="#33FF33"/>
<stop offset="1" stop-color="#00DE00"/>
</radialGradient>
<linearGradient id="paint39_linear_1685_11455" x1="432.761" y1="127.497" x2="433.57" y2="127.497" gradientUnits="userSpaceOnUse">
<stop stop-color="#400900"/>
<stop offset="1" stop-color="#FB8A77"/>
</linearGradient>
<linearGradient id="paint40_linear_1685_11455" x1="98.9601" y1="122.444" x2="98.9601" y2="133.63" gradientUnits="userSpaceOnUse">
<stop stop-color="#F2B100"/>
<stop offset="1" stop-color="#ED480B"/>
</linearGradient>
<linearGradient id="paint41_linear_1685_11455" x1="98.9924" y1="123.119" x2="98.9924" y2="135.426" gradientUnits="userSpaceOnUse">
<stop stop-color="#A32100"/>
<stop offset="1" stop-color="#D36C05"/>
</linearGradient>
<linearGradient id="paint42_linear_1685_11455" x1="84.1398" y1="125.791" x2="85.5118" y2="124.587" gradientUnits="userSpaceOnUse">
<stop offset="0.06" stop-color="#BC4408"/>
<stop offset="1" stop-color="#7A1C0B"/>
</linearGradient>
<linearGradient id="paint43_linear_1685_11455" x1="94.2787" y1="133.76" x2="87.2394" y2="127.481" gradientUnits="userSpaceOnUse">
<stop stop-color="#7A1C0B"/>
<stop offset="0.94" stop-color="#BC4408"/>
</linearGradient>
<linearGradient id="paint44_linear_1685_11455" x1="104.579" y1="124.297" x2="109.788" y2="125.158" gradientUnits="userSpaceOnUse">
<stop stop-color="#7A1C0B"/>
<stop offset="0.94" stop-color="#BC4408"/>
</linearGradient>
<linearGradient id="paint45_linear_1685_11455" x1="78.1872" y1="246.855" x2="78.0224" y2="248.204" gradientUnits="userSpaceOnUse">
<stop stop-color="#FFF7C4"/>
<stop offset="1" stop-color="white"/>
</linearGradient>
<linearGradient id="paint46_linear_1685_11455" x1="-75.406" y1="-860.476" x2="-75.259" y2="-859.711" gradientUnits="userSpaceOnUse">
<stop stop-color="#FFF7C4"/>
<stop offset="1" stop-color="white"/>
</linearGradient>
<linearGradient id="paint47_linear_1685_11455" x1="114.912" y1="122.843" x2="102.235" y2="122.843" gradientUnits="userSpaceOnUse">
<stop stop-color="#7A1C0B"/>
<stop offset="0.94" stop-color="#BC4408"/>
</linearGradient>
<linearGradient id="paint48_linear_1685_11455" x1="58.1456" y1="-4.64401e-05" x2="58.1456" y2="-4.64401e-05" gradientUnits="userSpaceOnUse">
<stop stop-color="#F2B100"/>
<stop offset="1" stop-color="#ED480B"/>
</linearGradient>
<linearGradient id="paint49_linear_1685_11455" x1="58.1133" y1="123.119" x2="58.1133" y2="2797.77" gradientUnits="userSpaceOnUse">
<stop stop-color="#A32100"/>
<stop offset="1" stop-color="#D36C05"/>
</linearGradient>
<linearGradient id="paint50_linear_1685_11455" x1="72.9578" y1="125.791" x2="71.5858" y2="124.587" gradientUnits="userSpaceOnUse">
<stop offset="0.06" stop-color="#BC4408"/>
<stop offset="1" stop-color="#7A1C0B"/>
</linearGradient>
<linearGradient id="paint51_linear_1685_11455" x1="62.827" y1="133.76" x2="69.8582" y2="127.481" gradientUnits="userSpaceOnUse">
<stop stop-color="#7A1C0B"/>
<stop offset="0.94" stop-color="#BC4408"/>
</linearGradient>
<linearGradient id="paint52_linear_1685_11455" x1="52.5182" y1="124.297" x2="47.31" y2="125.158" gradientUnits="userSpaceOnUse">
<stop stop-color="#7A1C0B"/>
<stop offset="0.94" stop-color="#BC4408"/>
</linearGradient>
<linearGradient id="paint53_linear_1685_11455" x1="59.4597" y1="193.005" x2="59.6233" y2="194.345" gradientUnits="userSpaceOnUse">
<stop stop-color="#FFF7C4"/>
<stop offset="1" stop-color="white"/>
</linearGradient>
<linearGradient id="paint54_linear_1685_11455" x1="132.527" y1="-296.594" x2="132.381" y2="-295.835" gradientUnits="userSpaceOnUse">
<stop stop-color="#FFF7C4"/>
<stop offset="1" stop-color="white"/>
</linearGradient>
<linearGradient id="paint55_linear_1685_11455" x1="42.1933" y1="122.843" x2="54.863" y2="122.843" gradientUnits="userSpaceOnUse">
<stop stop-color="#7A1C0B"/>
<stop offset="0.94" stop-color="#BC4408"/>
</linearGradient>
<radialGradient id="paint56_radial_1685_11455" cx="0" cy="0" r="1" gradientUnits="userSpaceOnUse" gradientTransform="translate(92.9083 9.1807) rotate(180) scale(16.7062 16.785)">
<stop offset="0.01" stop-color="#F2B100"/>
<stop offset="1" stop-color="#ED480B"/>
</radialGradient>
<linearGradient id="paint57_linear_1685_11455" x1="99.4776" y1="17.7334" x2="99.4776" y2="7.24609" gradientUnits="userSpaceOnUse">
<stop stop-color="#A32100"/>
<stop offset="1" stop-color="#D36C05"/>
</linearGradient>
<linearGradient id="paint58_linear_1685_11455" x1="84.0266" y1="14.6384" x2="86.2592" y2="16.5939" gradientUnits="userSpaceOnUse">
<stop offset="0.06" stop-color="#BC4408"/>
<stop offset="1" stop-color="#7A1C0B"/>
</linearGradient>
<linearGradient id="paint59_linear_1685_11455" x1="95.6937" y1="8.56209" x2="88.8654" y2="14.6633" gradientUnits="userSpaceOnUse">
<stop stop-color="#7A1C0B"/>
<stop offset="0.94" stop-color="#BC4408"/>
</linearGradient>
<linearGradient id="paint60_linear_1685_11455" x1="85.6841" y1="11.7708" x2="87.9572" y2="13.7586" gradientUnits="userSpaceOnUse">
<stop stop-color="#7A1C0B"/>
<stop offset="0.94" stop-color="#BC4408"/>
</linearGradient>
<linearGradient id="paint61_linear_1685_11455" x1="104.596" y1="16.4418" x2="110.564" y2="15.4598" gradientUnits="userSpaceOnUse">
<stop stop-color="#7A1C0B"/>
<stop offset="0.94" stop-color="#BC4408"/>
</linearGradient>
<linearGradient id="paint62_linear_1685_11455" x1="112.061" y1="5.91354" x2="113.409" y2="5.71638" gradientUnits="userSpaceOnUse">
<stop stop-color="white"/>
<stop offset="1" stop-color="#FFF7C4"/>
</linearGradient>
<radialGradient id="paint63_radial_1685_11455" cx="0" cy="0" r="1" gradientUnits="userSpaceOnUse" gradientTransform="translate(64.0944 128.281) scale(16.7062 16.785)">
<stop offset="0.01" stop-color="#F2B100"/>
<stop offset="1" stop-color="#ED480B"/>
</radialGradient>
<linearGradient id="paint64_linear_1685_11455" x1="57.5069" y1="17.7334" x2="57.5069" y2="7.24609" gradientUnits="userSpaceOnUse">
<stop stop-color="#A32100"/>
<stop offset="1" stop-color="#D36C05"/>
</linearGradient>
<linearGradient id="paint65_linear_1685_11455" x1="72.9578" y1="14.6384" x2="70.7253" y2="16.5939" gradientUnits="userSpaceOnUse">
<stop offset="0.06" stop-color="#BC4408"/>
<stop offset="1" stop-color="#7A1C0B"/>
</linearGradient>
<linearGradient id="paint66_linear_1685_11455" x1="61.2908" y1="8.56209" x2="68.1271" y2="14.6633" gradientUnits="userSpaceOnUse">
<stop stop-color="#7A1C0B"/>
<stop offset="0.94" stop-color="#BC4408"/>
</linearGradient>
<linearGradient id="paint67_linear_1685_11455" x1="71.3004" y1="11.7708" x2="69.0272" y2="13.7586" gradientUnits="userSpaceOnUse">
<stop stop-color="#7A1C0B"/>
<stop offset="0.94" stop-color="#BC4408"/>
</linearGradient>
<linearGradient id="paint68_linear_1685_11455" x1="52.3889" y1="16.4418" x2="46.4205" y2="15.4598" gradientUnits="userSpaceOnUse">
<stop stop-color="#7A1C0B"/>
<stop offset="0.94" stop-color="#BC4408"/>
</linearGradient>
<linearGradient id="paint69_linear_1685_11455" x1="50.7022" y1="4.29808" x2="49.3542" y2="4.10092" gradientUnits="userSpaceOnUse">
<stop stop-color="white"/>
<stop offset="1" stop-color="#FFF7C4"/>
</linearGradient>
<linearGradient id="paint70_linear_1685_11455" x1="129.308" y1="29.8629" x2="128.75" y2="30.3062" gradientUnits="userSpaceOnUse">
<stop stop-color="white"/>
<stop offset="1" stop-color="#FFF7C4"/>
</linearGradient>
<linearGradient id="paint71_linear_1685_11455" x1="55.5733" y1="124.274" x2="55.1629" y2="124.857" gradientUnits="userSpaceOnUse">
<stop stop-color="white"/>
<stop offset="1" stop-color="#FFF7C4"/>
</linearGradient>
<radialGradient id="paint72_radial_1685_11455" cx="0" cy="0" r="1" gradientUnits="userSpaceOnUse" gradientTransform="translate(65.876 8.68516) rotate(45.1348) scale(6.71302 2.00986)">
<stop stop-color="#F4A940"/>
<stop offset="0.09" stop-color="#E69F3C"/>
<stop offset="0.27" stop-color="#C28633"/>
<stop offset="0.51" stop-color="#885E23"/>
<stop offset="0.8" stop-color="#39270F"/>
<stop offset="1"/>
</radialGradient>
<radialGradient id="paint73_radial_1685_11455" cx="0" cy="0" r="1" gradientUnits="userSpaceOnUse" gradientTransform="translate(93.9839 5.79785) rotate(-45.1348) scale(6.71302 2.00986)">
<stop stop-color="#F4A940"/>
<stop offset="0.09" stop-color="#E69F3C"/>
<stop offset="0.27" stop-color="#C28633"/>
<stop offset="0.51" stop-color="#885E23"/>
<stop offset="0.8" stop-color="#39270F"/>
<stop offset="1"/>
</radialGradient>
<radialGradient id="paint74_radial_1685_11455" cx="0" cy="0" r="1" gradientUnits="userSpaceOnUse" gradientTransform="translate(130.474 31.8492) rotate(45.1348) scale(6.71302 2.00986)">
<stop stop-color="#F4A940"/>
<stop offset="0.09" stop-color="#E69F3C"/>
<stop offset="0.27" stop-color="#C28633"/>
<stop offset="0.51" stop-color="#885E23"/>
<stop offset="0.8" stop-color="#39270F"/>
<stop offset="1"/>
</radialGradient>
<radialGradient id="paint75_radial_1685_11455" cx="0" cy="0" r="1" gradientUnits="userSpaceOnUse" gradientTransform="translate(48.5343 119.582) rotate(30.1169) scale(6.70512 2.01223)">
<stop stop-color="#F4A940"/>
<stop offset="0.09" stop-color="#E69F3C"/>
<stop offset="0.27" stop-color="#C28633"/>
<stop offset="0.51" stop-color="#885E23"/>
<stop offset="0.8" stop-color="#39270F"/>
<stop offset="1"/>
</radialGradient>
<radialGradient id="paint76_radial_1685_11455" cx="0" cy="0" r="1" gradientUnits="userSpaceOnUse" gradientTransform="translate(58.5008 125.37) rotate(39.6925) scale(6.71004 2.01076)">
<stop stop-color="#F4A940"/>
<stop offset="0.09" stop-color="#E69F3C"/>
<stop offset="0.27" stop-color="#C28633"/>
<stop offset="0.51" stop-color="#885E23"/>
<stop offset="0.8" stop-color="#39270F"/>
<stop offset="1"/>
</radialGradient>
<radialGradient id="paint77_radial_1685_11455" cx="0" cy="0" r="1" gradientUnits="userSpaceOnUse" gradientTransform="translate(101.392 122.115) rotate(-39.6925) scale(6.71004 2.01076)">
<stop stop-color="#F4A940"/>
<stop offset="0.09" stop-color="#E69F3C"/>
<stop offset="0.27" stop-color="#C28633"/>
<stop offset="0.51" stop-color="#885E23"/>
<stop offset="0.8" stop-color="#39270F"/>
<stop offset="1"/>
</radialGradient>
<radialGradient id="paint78_radial_1685_11455" cx="0" cy="0" r="1" gradientUnits="userSpaceOnUse" gradientTransform="translate(14.0646 66.0678) scale(3.77583 3.79364)">
<stop stop-color="#F4A940"/>
<stop offset="0.09" stop-color="#E69F3C"/>
<stop offset="0.27" stop-color="#C28633"/>
<stop offset="0.51" stop-color="#885E23"/>
<stop offset="0.8" stop-color="#39270F"/>
<stop offset="1"/>
</radialGradient>
<radialGradient id="paint79_radial_1685_11455" cx="0" cy="0" r="1" gradientUnits="userSpaceOnUse" gradientTransform="translate(142.928 66.0678) scale(3.77583 3.79364)">
<stop stop-color="#F4A940"/>
<stop offset="0.09" stop-color="#E69F3C"/>
<stop offset="0.27" stop-color="#C28633"/>
<stop offset="0.51" stop-color="#885E23"/>
<stop offset="0.8" stop-color="#39270F"/>
<stop offset="1"/>
</radialGradient>
</defs>
</svg>
