<svg width="112" height="100" viewBox="0 0 112 100" fill="none" xmlns="http://www.w3.org/2000/svg">
<g clip-path="url(#clip0_1685_11458)">
<g filter="url(#filter0_i_1685_11458)">
<ellipse cx="56" cy="50" rx="38.1656" ry="38.4892" fill="url(#paint0_radial_1685_11458)"/>
</g>
<path d="M107.513 41.2425C105.713 39.7464 103.342 38.7763 100.591 38.6535C100.591 38.6535 100.591 38.6535 100.585 38.6535C95.579 18.4092 77.5198 3.41888 56 3.39551C34.4802 3.41304 16.4211 18.4092 11.4146 38.6477C11.4146 38.6477 11.4146 38.6477 11.4088 38.6477C8.65755 38.7704 6.28697 39.7405 4.4874 41.2367C-1.34389 46.0873 -1.06126 53.0536 2.88394 57.6939C4.96037 60.1368 8.05193 61.1654 11.2704 60.9258C11.2819 60.9199 11.2935 60.9082 11.305 60.9024C16.1442 81.3746 34.3187 96.5987 56.0058 96.6162C77.6929 96.5987 95.8616 81.3746 100.707 60.9024C100.718 60.9082 100.73 60.9199 100.741 60.9258C103.954 61.1712 107.045 60.1368 109.128 57.6939C113.073 53.0536 113.355 46.0873 107.524 41.2367L107.513 41.2425ZM99.9395 54.129C99.1147 53.1471 99.2185 50.7744 100.407 50.7335C101.255 51.8965 104.202 51.4523 103.412 48.7231C102.904 46.964 100.297 46.0406 97.5804 47.3263C92.8681 49.5646 92.3144 56.379 96.0692 59.342C91.8875 77.8622 75.5415 91.6837 56 91.7013C36.4586 91.6837 20.1125 77.8622 15.9308 59.342C19.6857 56.379 19.132 49.5646 14.4196 47.3263C11.703 46.0347 9.09591 46.964 8.58834 48.7231C7.79815 51.4523 10.7455 51.8965 11.5934 50.7335C12.7758 50.7685 12.8796 53.1471 12.0606 54.129C9.39584 57.3024 4.55662 53.7199 6.1197 47.9692C7.22713 43.9133 10.3879 42.8847 13.2199 43.1711C13.2545 42.9665 13.2949 42.762 13.3295 42.5633L15.3713 43.6152C18.4052 23.6398 35.4377 8.3397 56 8.31632C76.5624 8.33385 93.5948 23.6398 96.6287 43.6152L98.6705 42.5633C98.7051 42.762 98.7397 42.9607 98.7801 43.1711C101.618 42.8789 104.773 43.9075 105.88 47.9692C107.449 53.714 102.61 57.3024 99.9395 54.129Z" fill="url(#paint1_linear_1685_11458)"/>
<path style="mix-blend-mode:multiply" opacity="0.6" d="M56 96.6221C66.5033 96.6104 76.1875 93.0338 83.9279 87.0201L78.3966 84.9629C71.9539 89.2175 64.2653 91.6954 56 91.7013C46.9906 91.6954 38.6561 88.75 31.8847 83.759L26.1687 85.448C34.1976 92.4026 44.6143 96.6046 56.0058 96.6163L56 96.6221Z" fill="url(#paint2_radial_1685_11458)"/>
<path style="mix-blend-mode:multiply" opacity="0.6" d="M2.88395 57.6997C0.403778 54.7835 -0.628666 50.9438 0.39801 47.2912C1.62079 50.3652 3.80681 52.0192 6.21777 52.7555C7.3771 55.3679 10.2437 56.2854 12.0548 54.1289C12.3086 53.825 12.4759 53.3925 12.5451 52.9367C14.6907 52.4867 17.4708 50.2484 17.4708 50.2484C19.3396 53.8133 18.2437 57.6179 15.925 59.3536L11.2646 60.9374C8.05194 61.1828 4.96038 60.1484 2.87818 57.7056L2.88395 57.6997Z" fill="url(#paint3_linear_1685_11458)"/>
<path d="M13.5025 41.6048L15.3713 43.6152C13.2084 42.8146 7.60779 42.3646 6.05047 48.0802C4.48162 53.825 9.43619 57.3023 12.1009 54.1289C12.9257 53.1471 12.8219 50.7744 11.6337 50.7335C11.7318 50.4822 11.8183 50.2133 11.801 49.7984C15.0368 50.2484 14.4311 55.5608 10.6994 56.4257C8.24225 56.9984 6.3504 55.7419 4.92574 54.0939C1.39582 50.0146 4.78731 40.3542 13.491 41.6107L13.5025 41.6048Z" fill="url(#paint4_linear_1685_11458)"/>
<path d="M17.1074 49.6406C19.3454 52.6912 18.4052 57.7815 15.925 59.3419C15.925 59.3419 14.8291 59.7802 13.8428 60.0491C15.9885 58.8452 19.3165 53.6029 17.1074 49.6406Z" fill="url(#paint5_linear_1685_11458)"/>
<path style="mix-blend-mode:multiply" opacity="0.6" d="M11.8818 54.316C11.9394 54.2517 11.9971 54.1874 12.0548 54.1232C12.8796 53.1413 12.7758 50.7686 11.5876 50.7277C11.6856 50.4764 11.7722 50.2075 11.7549 49.7926C14.0274 50.1082 14.4023 52.8141 13.1391 54.7017L11.8818 54.316Z" fill="url(#paint6_linear_1685_11458)"/>
<path style="mix-blend-mode:multiply" opacity="0.6" d="M7.31939 45.386L6.01009 43.9308C8.08075 41.7918 11.3454 41.2366 13.5083 41.6048L15.3771 43.6152C14.0735 43.0542 9.64384 42.5048 7.32516 45.386H7.31939Z" fill="url(#paint7_linear_1685_11458)"/>
<g style="mix-blend-mode:screen" opacity="0.5">
<path d="M1.48233 44.7256C2.20331 43.4925 3.18961 42.312 4.48161 41.2366C5.14491 40.6873 5.8832 40.2139 6.69069 39.8223C3.98558 42.3061 3.81831 44.6555 7.65392 42.6275C5.19682 44.0009 4.44123 46.1399 4.01441 47.2854C4.56236 42.5749 3.79524 41.3243 1.48233 44.7256Z" fill="#F9A346"/>
</g>
<g style="mix-blend-mode:screen" opacity="0.5">
<path d="M10.0418 49.062C10.7167 48.349 11.8183 49.062 11.7606 49.7925C11.7837 50.149 11.7145 50.4705 11.6164 50.7334C11.6107 50.7334 11.5991 50.7334 11.5934 50.7334C10.7455 51.8964 7.79813 51.4523 8.58832 48.723C9.09589 46.9639 11.8991 45.9237 14.4196 47.3263C14.6273 47.4432 14.8234 47.5659 15.0137 47.6945C13.0757 46.7302 10.1514 47.0107 10.0418 49.062Z" fill="#F9A346"/>
</g>
<path d="M9.50541 47.8406C9.56309 47.9399 9.84571 47.8815 10.1399 47.712C10.434 47.5425 10.6244 47.3204 10.5667 47.2211C10.509 47.1217 10.2264 47.1802 9.93223 47.3497C9.63807 47.5191 9.44773 47.7412 9.50541 47.8406Z" fill="url(#paint8_linear_1685_11458)"/>
<path style="mix-blend-mode:multiply" opacity="0.6" d="M109.116 57.6997C111.596 54.7835 112.629 50.9438 111.602 47.2912C110.379 50.3652 108.193 52.0192 105.782 52.7555C104.623 55.3679 101.756 56.2854 99.9452 54.1289C99.6914 53.825 99.5241 53.3925 99.4549 52.9367C97.3093 52.4867 94.5292 50.2484 94.5292 50.2484C92.6604 53.8133 93.7563 57.6179 96.075 59.3536L100.735 60.9374C103.948 61.1828 107.04 60.1484 109.122 57.7056L109.116 57.6997Z" fill="url(#paint9_linear_1685_11458)"/>
<path d="M98.4917 41.6048L96.6229 43.6152C98.7859 42.8146 104.386 42.3646 105.944 48.0802C107.513 53.825 102.558 57.3023 99.8933 54.1289C99.0685 53.1471 99.1723 50.7744 100.36 50.7335C100.262 50.4822 100.176 50.2133 100.193 49.7984C96.9575 50.2484 97.5631 55.5608 101.295 56.4257C103.752 56.9984 105.644 55.7419 107.068 54.0939C110.598 50.0146 107.207 40.3542 98.5032 41.6107L98.4917 41.6048Z" fill="url(#paint10_linear_1685_11458)"/>
<path d="M94.8926 49.6406C92.6546 52.6912 93.5948 57.7815 96.075 59.3419C96.075 59.3419 97.1709 59.7802 98.1572 60.0491C96.0115 58.8452 92.6835 53.6029 94.8926 49.6406Z" fill="url(#paint11_linear_1685_11458)"/>
<path style="mix-blend-mode:multiply" opacity="0.6" d="M100.112 54.316C100.055 54.2517 99.9971 54.1874 99.9395 54.1232C99.1147 53.1413 99.2185 50.7686 100.407 50.7277C100.309 50.4764 100.222 50.2075 100.239 49.7926C97.9669 50.1082 97.5919 52.8141 98.8551 54.7017L100.112 54.316Z" fill="url(#paint12_linear_1685_11458)"/>
<path style="mix-blend-mode:multiply" opacity="0.6" d="M104.681 45.386L105.99 43.9308C103.919 41.7918 100.655 41.2366 98.4917 41.6048L96.6229 43.6152C97.9265 43.0542 102.356 42.5048 104.675 45.386H104.681Z" fill="url(#paint13_linear_1685_11458)"/>
<g style="mix-blend-mode:screen" opacity="0.5">
<path d="M110.512 44.7256C109.791 43.4925 108.805 42.312 107.513 41.2366C106.849 40.6873 106.111 40.2139 105.304 39.8223C108.009 42.3061 108.176 44.6555 104.34 42.6275C106.797 44.0009 107.553 46.1399 107.98 47.2854C107.432 42.5749 108.199 41.3243 110.512 44.7256Z" fill="#F9A346"/>
</g>
<g style="mix-blend-mode:screen" opacity="0.5">
<path d="M101.958 49.062C101.283 48.349 100.182 49.062 100.239 49.7925C100.216 50.149 100.286 50.4705 100.384 50.7334C100.389 50.7334 100.401 50.7334 100.407 50.7334C101.255 51.8964 104.202 51.4523 103.412 48.723C102.904 46.9639 100.101 45.9237 97.5804 47.3263C97.3727 47.4432 97.1766 47.5659 96.9863 47.6945C98.9243 46.7302 101.849 47.0107 101.958 49.062Z" fill="#F9A346"/>
</g>
<path d="M102.495 47.8406C102.437 47.9399 102.154 47.8815 101.86 47.712C101.566 47.5425 101.376 47.3204 101.433 47.2211C101.491 47.1217 101.774 47.1802 102.068 47.3497C102.362 47.5191 102.552 47.7412 102.495 47.8406Z" fill="url(#paint14_linear_1685_11458)"/>
<path style="mix-blend-mode:multiply" opacity="0.8" d="M20.2855 70.6563C18.3187 67.1674 16.8363 63.3686 15.9308 59.342L11.305 60.9082C12.372 65.4258 14.0908 69.6862 16.3518 73.5843L20.2913 70.6563H20.2855Z" fill="url(#paint15_linear_1685_11458)"/>
<path style="mix-blend-mode:multiply" opacity="0.8" d="M91.7895 70.6563C93.7563 67.1674 95.2386 63.3686 96.1442 59.342L100.77 60.9082C99.703 65.4258 97.9841 69.6862 95.7231 73.5843L91.7837 70.6563H91.7895Z" fill="url(#paint16_linear_1685_11458)"/>
<g style="mix-blend-mode:screen" opacity="0.5">
<path d="M84.5451 13.4884C85.2141 17.0008 90.5898 25.7963 97.1305 29.2034C94.1082 23.0729 89.7938 17.7138 84.5451 13.4884Z" fill="#F9A346"/>
</g>
<path d="M56 6.10716C34.9243 6.1247 17.3727 21.3956 13.5025 41.6106L15.3713 43.621C18.4052 23.6397 35.4376 8.33964 56 8.31627C76.5624 8.3338 93.5948 23.6397 96.6287 43.6152L98.4975 41.6048C94.6273 21.3897 77.0757 6.11885 56 6.10132V6.10716Z" fill="url(#paint17_linear_1685_11458)"/>
<path d="M56 91.7071C36.4585 91.6895 20.1067 77.868 15.925 59.3478C15.2963 59.5991 14.5869 59.8679 13.8428 60.0491C18.3187 79.4518 35.4895 93.8986 56 93.9162C76.5047 93.8986 93.6756 79.446 98.1572 60.0491C97.4131 59.8679 96.7037 59.5991 96.075 59.3478C91.8933 77.868 75.5415 91.6895 56 91.7071Z" fill="url(#paint18_linear_1685_11458)"/>
<path style="mix-blend-mode:multiply" opacity="0.6" d="M19.7606 69.6979C18.0534 66.4777 16.7498 63.0004 15.925 59.342C15.2963 59.5933 14.5869 59.8621 13.8428 60.0433C14.7022 63.766 16.0288 67.3018 17.7534 70.5921L19.7606 69.6979Z" fill="url(#paint19_linear_1685_11458)"/>
<path style="mix-blend-mode:multiply" opacity="0.6" d="M92.2336 69.6979C93.9409 66.4777 95.2444 63.0004 96.0692 59.342C96.6979 59.5933 97.4074 59.8621 98.1514 60.0433C97.292 63.766 95.9654 67.3018 94.2408 70.5921L92.2336 69.6979Z" fill="url(#paint20_linear_1685_11458)"/>
<path style="mix-blend-mode:multiply" opacity="0.6" d="M71.6366 9.06432C66.7859 7.15912 61.5141 6.10716 56 6.10132C50.509 6.10132 45.2603 7.14743 40.4268 9.04095L41.938 10.8293C46.3273 9.20459 51.0627 8.31627 56.0058 8.31042C60.9719 8.31042 65.7246 9.21043 70.1312 10.8468L71.6424 9.05848L71.6366 9.06432Z" fill="url(#paint21_radial_1685_11458)"/>
<path d="M61.7909 6.48706L56 12.9741L50.2091 6.48706L56 0L61.7909 6.48706Z" fill="url(#paint22_linear_1685_11458)"/>
<path d="M56 0L59.7837 3.55911L59.1319 3.50652L56 0Z" fill="url(#paint23_linear_1685_11458)"/>
<path d="M56 0L52.2105 3.55911L52.868 3.50652L56 0Z" fill="url(#paint24_linear_1685_11458)"/>
<path d="M50.1975 8.73701L50.2091 6.487L56 12.9741L50.1975 8.73701Z" fill="url(#paint25_linear_1685_11458)"/>
<path d="M61.8024 8.73701L61.7909 6.487L56 12.9741L61.8024 8.73701Z" fill="url(#paint26_linear_1685_11458)"/>
<g style="mix-blend-mode:screen">
<path d="M53.9524 2.29092L56 0L59.8529 4.31886L55.9712 0.549354L53.9524 2.29092Z" fill="#F9A346"/>
</g>
<path d="M59.6222 6.48708C59.6222 6.48708 57.0094 9.2923 56 10.543C54.9906 9.2923 53.814 7.97735 52.3778 6.48708C53.814 5.00266 56 2.43121 56 2.43121L59.6222 6.48708Z" fill="#BC4408"/>
<path d="M56 2.43121V2.91044L59.1954 6.48708H59.6222L56 2.43121Z" fill="url(#paint27_linear_1685_11458)"/>
<g style="mix-blend-mode:screen">
<path d="M52.3778 6.487H52.8046L56 10.0636V10.5429L52.3778 6.487Z" fill="#F9A346"/>
</g>
<path d="M59.1954 6.48699C59.1954 6.48699 56.894 8.95908 56 10.0636C55.1117 8.95908 54.0735 7.79609 52.8046 6.48699C54.0678 5.17789 56 2.91034 56 2.91034L59.1954 6.48699Z" fill="url(#paint28_radial_1685_11458)"/>
<g style="mix-blend-mode:multiply" opacity="0.3">
<path d="M56 10.0636L52.8046 6.48699L54.956 6.3701C54.956 6.3701 56.5537 6.34088 57.5054 6.3701C58.6474 6.39932 59.1896 6.48699 59.1896 6.48699L55.9942 10.0636H56Z" fill="#622170"/>
</g>
<path d="M57.5054 6.3702C56.9978 6.89617 56.5883 7.35787 56.2307 7.79618C55.8731 7.35787 55.4578 6.89033 54.956 6.3702C55.4636 5.84422 55.8731 5.38253 56.2307 4.94421C56.5883 5.38253 57.0036 5.85006 57.5054 6.3702Z" fill="url(#paint29_radial_1685_11458)"/>
<g style="mix-blend-mode:multiply" opacity="0.5">
<path d="M52.8046 6.487L54.956 6.37012L56.2307 7.7961L56 10.0636L52.8046 6.487Z" fill="#217021"/>
</g>
<g style="mix-blend-mode:screen">
<path d="M56 2.91034L56.2307 4.93827L57.5054 6.3701L59.1954 6.48699L56 2.91034Z" fill="url(#paint30_linear_1685_11458)"/>
</g>
<path d="M56.2307 4.93829L57.5977 6.04285L59.1954 6.48701L57.5054 6.37012L56.2307 4.93829Z" fill="#ECFC1D"/>
<path d="M61.7909 93.5129L56 99.9999L50.2091 93.5129L56 87.0258L61.7909 93.5129Z" fill="url(#paint31_linear_1685_11458)"/>
<path d="M56 87.0259L60.6892 91.4324L60.0029 91.5084L56 87.0259Z" fill="url(#paint32_linear_1685_11458)"/>
<path d="M56 87.0259L51.3107 91.4324L51.9971 91.5084L56 87.0259Z" fill="url(#paint33_linear_1685_11458)"/>
<path d="M50.1975 96.2539L50.2091 93.5129L56 100L50.1975 96.2539Z" fill="url(#paint34_linear_1685_11458)"/>
<path d="M61.8024 96.2539L61.7909 93.5129L56 100L61.8024 96.2539Z" fill="url(#paint35_linear_1685_11458)"/>
<g style="mix-blend-mode:screen">
<path d="M53.9524 89.311L56 87.0259L59.8529 91.3389L55.9712 87.5752L53.9524 89.311Z" fill="#F9A346"/>
</g>
<path d="M59.6222 93.513C59.6222 93.513 57.0094 96.3182 56 97.5688C54.9906 96.3182 53.814 95.0032 52.3778 93.513C53.814 92.0285 56 89.4571 56 89.4571L59.6222 93.513Z" fill="#BC4408"/>
<path d="M56 89.4571V89.9363L59.1954 93.513H59.6222L56 89.4571Z" fill="url(#paint36_linear_1685_11458)"/>
<g style="mix-blend-mode:screen">
<path d="M52.3778 93.5129H52.8046L56 97.0896V97.5688L52.3778 93.5129Z" fill="#F9A346"/>
</g>
<path d="M59.1954 93.5129C59.1954 93.5129 56.894 95.985 56 97.0896C55.1117 95.985 54.0735 94.822 52.8046 93.5129C54.0678 92.2038 56 89.9363 56 89.9363L59.1954 93.5129Z" fill="url(#paint37_radial_1685_11458)"/>
<g style="mix-blend-mode:multiply" opacity="0.3">
<path d="M56 97.0896L52.8046 93.5129L54.956 93.396C54.956 93.396 56.5537 93.3668 57.5054 93.396C58.6474 93.4253 59.1896 93.5129 59.1896 93.5129L55.9942 97.0896H56Z" fill="#622170"/>
</g>
<path d="M57.5054 93.3961C56.9978 93.9221 56.5883 94.3837 56.2307 94.8221C55.8731 94.3837 55.4578 93.9162 54.956 93.3961C55.4636 92.8701 55.8731 92.4084 56.2307 91.9701C56.5883 92.4084 57.0036 92.8759 57.5054 93.3961Z" fill="url(#paint38_radial_1685_11458)"/>
<g style="mix-blend-mode:multiply" opacity="0.5">
<path d="M52.8046 93.5129L54.956 93.3961L56.2307 94.822L56 97.0896L52.8046 93.5129Z" fill="#217021"/>
</g>
<g style="mix-blend-mode:screen">
<path d="M56 89.9363L56.2307 91.9642L57.5054 93.396L59.1954 93.5129L56 89.9363Z" fill="url(#paint39_linear_1685_11458)"/>
</g>
<path d="M56.2307 91.9642L57.5977 93.0688L59.1954 93.5129L57.5054 93.3961L56.2307 91.9642Z" fill="#ECFC1D"/>
<g style="mix-blend-mode:screen" opacity="0.5">
<path d="M27.6972 80.2408C29.4852 84.4369 32.9286 87.7915 40.9517 88.9077C40.9517 88.8727 40.9517 88.8434 40.9459 88.8084C35.9856 86.8272 31.4982 83.8992 27.703 80.2408H27.6972Z" fill="#F9A346"/>
</g>
<path d="M81.9726 89.5915L74.013 90.3863L66.9243 97.4286L60.943 90.7721L60.0087 90.7662L59.2185 90.0415L60.695 87.4993L67.2242 92.6597L72.9344 87.1603L81.9726 89.5915Z" fill="url(#paint40_linear_1685_11458)"/>
<path d="M81.9726 89.5915L73.7304 88.5688L67.1723 94.9623L60.845 88.9078L59.2646 90.0766L60.0087 90.7662L60.943 90.7721L66.9243 97.4286L74.013 90.3863L81.9726 89.5915Z" fill="url(#paint41_linear_1685_11458)"/>
<path d="M60.845 88.9078L60.943 90.7721L59.9914 90.7779L59.2646 90.0766L60.845 88.9078Z" fill="url(#paint42_linear_1685_11458)"/>
<path d="M66.9243 97.4286L67.1723 94.9624L60.845 88.9078L60.943 90.7721L66.9243 97.4286Z" fill="url(#paint43_linear_1685_11458)"/>
<path d="M73.7304 88.5688L74.013 90.3863L81.9726 89.5915L73.7304 88.5688Z" fill="url(#paint44_linear_1685_11458)"/>
<g style="mix-blend-mode:screen" opacity="0.5">
<path d="M71.8616 88.2006C73.3901 87.1253 73.367 88.5746 70.8926 90.8597C68.9892 92.6247 67.7145 92.198 68.4182 91.5201C69.1218 90.8422 71.8673 88.2006 71.8673 88.2006H71.8616Z" fill="#F9A346"/>
</g>
<path d="M71.0829 89.2C71.1406 89.2643 71.4059 89.1181 71.6655 88.8727C71.9308 88.6272 72.0923 88.3759 72.0346 88.3058C71.9769 88.2415 71.7116 88.3876 71.4521 88.6331C71.1925 88.8785 71.0252 89.1298 71.0829 89.2Z" fill="url(#paint45_linear_1685_11458)"/>
<path d="M70.6503 89.6441C70.6965 89.6909 70.8176 89.6558 70.9214 89.5565C71.0252 89.4571 71.0714 89.3402 71.031 89.2935C70.9849 89.2467 70.8637 89.2818 70.7599 89.3811C70.6561 89.4805 70.6099 89.5974 70.6503 89.6441Z" fill="url(#paint46_linear_1685_11458)"/>
<path style="mix-blend-mode:multiply" opacity="0.2" d="M72.9344 87.1603C74.0995 87.622 74.0591 88.1013 73.7304 88.5688C76.1298 88.8844 81.9726 89.5915 81.9726 89.5915L72.9344 87.1603Z" fill="url(#paint47_linear_1685_11458)"/>
<g style="mix-blend-mode:screen">
<path d="M70.4427 91.7772L67.1723 94.6818C67.1723 94.6818 64.098 92.0227 64.1846 92.1045C64.2711 92.1863 67.1723 94.9623 67.1723 94.9623L70.4427 91.7772Z" fill="#F9A346"/>
</g>
<g style="mix-blend-mode:screen" opacity="0.8">
<path d="M62.2812 88.7557C63.6251 90.3863 63.4521 91.409 62.5004 90.4973C63.5213 91.4733 64.2826 92.198 64.2826 92.198C63.4809 90.8187 63.3367 89.5856 66.3994 92.011C65.3958 91.2045 62.2812 88.7557 62.2812 88.7557Z" fill="#F9A346"/>
</g>
<g style="mix-blend-mode:multiply" opacity="0.35">
<path d="M63.2502 96.0435L62.8176 93.3669L61.4506 91.3389L65.3324 95.6578L63.2502 96.0435Z" fill="#7A1C0B"/>
</g>
<g style="mix-blend-mode:multiply" opacity="0.35">
<path d="M74.013 90.3863L72.0865 92.5895L71.9712 93.7233L69.9409 94.4305L74.013 90.3863Z" fill="#7A1C0B"/>
</g>
<path d="M30.1024 89.5915L38.0678 90.3863L45.1507 97.4286L51.1377 90.7721L52.0721 90.7662L52.8623 90.0415L51.3857 87.4993L44.8508 92.6597L39.1406 87.1603L30.1024 89.5915Z" fill="url(#paint48_linear_1685_11458)"/>
<path d="M30.1024 89.5915L38.3446 88.5688L44.9027 94.9623L51.2358 88.9078L52.8162 90.0766L52.0721 90.7662L51.1377 90.7721L45.1507 97.4286L38.0678 90.3863L30.1024 89.5915Z" fill="url(#paint49_linear_1685_11458)"/>
<path d="M51.2358 88.9078L51.1377 90.7721L52.0894 90.7779L52.8162 90.0766L51.2358 88.9078Z" fill="url(#paint50_linear_1685_11458)"/>
<path d="M45.1507 97.4286L44.9027 94.9624L51.2358 88.9078L51.1377 90.7721L45.1507 97.4286Z" fill="url(#paint51_linear_1685_11458)"/>
<path d="M38.3446 88.5688L38.0678 90.3863L30.1024 89.5915L38.3446 88.5688Z" fill="url(#paint52_linear_1685_11458)"/>
<g style="mix-blend-mode:screen" opacity="0.5">
<path d="M40.2192 88.2006C38.6907 87.1253 38.7138 88.5746 41.1882 90.8597C43.0916 92.6247 44.3663 92.198 43.6626 91.5201C42.9589 90.8422 40.2134 88.2006 40.2134 88.2006H40.2192Z" fill="#F9A346"/>
</g>
<path d="M40.9978 89.2C40.9402 89.2642 40.6748 89.1181 40.4153 88.8727C40.15 88.6272 39.9885 88.3759 40.0461 88.3058C40.1038 88.2357 40.3691 88.3876 40.6287 88.6331C40.894 88.8785 41.0555 89.1298 40.9978 89.2Z" fill="url(#paint53_linear_1685_11458)"/>
<path d="M41.4304 89.6441C41.3843 89.6909 41.2632 89.6558 41.1593 89.5565C41.0555 89.4571 41.0094 89.3402 41.0498 89.2935C41.0959 89.2467 41.217 89.2818 41.3208 89.3811C41.4247 89.4805 41.4708 89.5974 41.4304 89.6441Z" fill="url(#paint54_linear_1685_11458)"/>
<path style="mix-blend-mode:multiply" opacity="0.2" d="M39.1406 87.1603C37.9755 87.622 38.0159 88.1013 38.3446 88.5688C35.9452 88.8844 30.1024 89.5915 30.1024 89.5915L39.1406 87.1603Z" fill="url(#paint55_linear_1685_11458)"/>
<g style="mix-blend-mode:screen">
<path d="M41.6323 91.7772L44.9027 94.6818C44.9027 94.6818 47.9769 92.0227 47.8904 92.1045C47.8039 92.1863 44.9027 94.9623 44.9027 94.9623L41.6323 91.7772Z" fill="#F9A346"/>
</g>
<g style="mix-blend-mode:screen" opacity="0.8">
<path d="M49.7938 88.7557C48.4499 90.3863 48.6229 91.409 49.5746 90.4973C48.5537 91.4733 47.7924 92.198 47.7924 92.198C48.5941 90.8187 48.7383 89.5856 45.6756 92.011C46.6792 91.2045 49.7938 88.7557 49.7938 88.7557Z" fill="#F9A346"/>
</g>
<g style="mix-blend-mode:multiply" opacity="0.35">
<path d="M48.8248 96.0435L49.2574 93.3669L50.6301 91.3389L46.7426 95.6578L48.8248 96.0435Z" fill="#7A1C0B"/>
</g>
<g style="mix-blend-mode:multiply" opacity="0.35">
<path d="M38.0678 90.3863L39.9942 92.5895L40.1096 93.7233L42.1341 94.4305L38.0678 90.3863Z" fill="#7A1C0B"/>
</g>
<g style="mix-blend-mode:multiply" opacity="0.35">
<path d="M46.4427 9.47926L43.8068 7.29938L43.0397 8.06497L43.0916 8.10003C42.8089 8.18769 42.5321 8.2812 42.2552 8.37471L38.858 12.0682L38.9214 12.0858C39.6482 11.7468 40.3922 11.4312 41.142 11.1332L43.7318 8.55004L45.3814 9.70719L46.4427 9.47342V9.47926Z" fill="#7A1C0B"/>
</g>
<g style="mix-blend-mode:multiply" opacity="0.35">
<path d="M65.5804 9.46757L68.199 7.29938C68.199 7.29938 69.4737 8.2812 69.7506 8.37471L73.1478 12.0682L73.0844 12.0858C72.3576 11.7468 71.6136 11.4312 70.8637 11.1332L68.274 8.55004L66.6013 9.72472L65.5862 9.46173L65.5804 9.46757Z" fill="#7A1C0B"/>
</g>
<path d="M82.7455 9.71311L74.6994 9.49103L67.8933 2.72345L61.8428 9.45012L60.8335 9.42674L59.9856 10.0813L61.5891 12.7579L68.1932 7.29945L73.6092 12.7579L82.7455 9.71311Z" fill="url(#paint56_radial_1685_11458)"/>
<g style="mix-blend-mode:screen" opacity="0.8">
<path d="M70.3965 5.20728C71.3252 6.26507 72.075 7.4982 70.1024 7.12417C71.1464 8.12937 72.8883 9.83588 72.8883 9.83588C71.5097 8.3573 71.4175 6.21832 72.7729 7.56249C72.0519 6.84949 70.4023 5.20728 70.4023 5.20728H70.3965Z" fill="#F9A346"/>
</g>
<path d="M82.7455 9.7131L74.411 11.3319L68.1413 5.21307L61.739 11.3378L59.9856 10.0813L59.1896 10.654L61.5891 12.7579L68.1932 7.29945L73.6092 12.7579L82.7455 9.7131Z" fill="url(#paint57_linear_1685_11458)"/>
<path d="M61.739 11.3378L61.5891 12.7579L59.1896 10.654L59.9856 10.0813L61.739 11.3378Z" fill="url(#paint58_linear_1685_11458)"/>
<path d="M68.1932 7.29945L68.1413 5.21307L61.739 11.3378L61.5891 12.7579L68.1932 7.29945Z" fill="url(#paint59_linear_1685_11458)"/>
<path style="mix-blend-mode:multiply" opacity="0.2" d="M64.4268 8.77215C62.9387 9.97605 62.5061 9.00592 63.1752 7.9715C61.9351 9.38579 61.8428 9.45008 61.8428 9.45008L60.8335 9.43254L59.9856 10.0813L61.7448 11.3378L64.4268 8.77215Z" fill="url(#paint60_linear_1685_11458)"/>
<g style="mix-blend-mode:multiply" opacity="0.15">
<path d="M61.8428 9.45014L60.5566 10.4904L59.9856 10.0813L60.8335 9.42676L61.8428 9.45014Z" fill="#7A1C0B"/>
</g>
<g style="mix-blend-mode:multiply" opacity="0.15">
<path d="M60.5566 10.4904L59.2992 10.7651L59.1839 10.654C59.1839 10.654 59.8183 10.2157 59.9798 10.0813C60.0433 10.1281 60.5508 10.4904 60.5508 10.4904H60.5566Z" fill="#7A1C0B"/>
</g>
<path d="M76.672 10.993L74.411 11.3319L73.0498 10.0053C74.0649 10.993 74.8666 11.2677 76.672 10.993Z" fill="#F9A346"/>
<path d="M74.411 11.3319L73.6093 12.7579L82.7455 9.71307L74.411 11.3319Z" fill="url(#paint61_linear_1685_11458)"/>
<g style="mix-blend-mode:screen" opacity="0.5">
<path d="M67.8933 2.72345C67.8414 4.04424 66.9185 5.68061 65.2574 7.39881C64.2711 8.42154 62.6503 8.55596 63.6943 7.39881C64.7383 6.24165 67.8933 2.72929 67.8933 2.72929V2.72345Z" fill="#F9A346"/>
</g>
<path d="M66.6417 4.51758C66.7109 4.57603 66.5667 4.8507 66.3302 5.12538C66.0937 5.40006 65.8457 5.57538 65.7765 5.51694C65.7073 5.4585 65.8515 5.18382 66.088 4.90914C66.3245 4.63447 66.5725 4.45914 66.6417 4.51758Z" fill="url(#paint62_linear_1685_11458)"/>
<path d="M29.2487 9.71305L37.3007 9.49096L44.1067 2.72339L50.1572 9.45006L51.1666 9.42668L52.0144 10.0812L50.411 12.7579L43.8068 7.29939L38.3908 12.7579L29.2487 9.71305Z" fill="url(#paint63_radial_1685_11458)"/>
<g style="mix-blend-mode:screen" opacity="0.8">
<path d="M41.6035 5.20728C40.6749 6.26507 39.925 7.4982 41.8976 7.12417C40.8537 8.12937 39.1118 9.83588 39.1118 9.83588C40.4903 8.3573 40.5826 6.21832 39.2271 7.56249C39.9481 6.84949 41.5977 5.20728 41.5977 5.20728H41.6035Z" fill="#F9A346"/>
</g>
<path d="M29.2487 9.7131L37.5833 11.3319L43.8587 5.21307L50.261 11.3378L52.0144 10.0813L52.8104 10.654L50.411 12.7579L43.8068 7.29945L38.3908 12.7579L29.2487 9.7131Z" fill="url(#paint64_linear_1685_11458)"/>
<path d="M50.261 11.3378L50.411 12.7579L52.8104 10.654L52.0144 10.0813L50.261 11.3378Z" fill="url(#paint65_linear_1685_11458)"/>
<path d="M43.8068 7.29945L43.8587 5.21307L50.261 11.3378L50.411 12.7579L43.8068 7.29945Z" fill="url(#paint66_linear_1685_11458)"/>
<path style="mix-blend-mode:multiply" opacity="0.2" d="M47.5732 8.77215C49.0613 9.97605 49.4939 9.00592 48.8248 7.9715C50.0649 9.38579 50.1572 9.45008 50.1572 9.45008L51.1666 9.43254L52.0144 10.0813L50.2552 11.3378L47.5732 8.77215Z" fill="url(#paint67_linear_1685_11458)"/>
<g style="mix-blend-mode:multiply" opacity="0.15">
<path d="M50.1572 9.45014L51.4434 10.4904L52.0144 10.0813L51.1666 9.42676L50.1572 9.45014Z" fill="#7A1C0B"/>
</g>
<g style="mix-blend-mode:multiply" opacity="0.15">
<path d="M51.4434 10.4904L52.7008 10.7651L52.8162 10.654C52.8162 10.654 52.1817 10.2157 52.0202 10.0813C51.9568 10.1281 51.4492 10.4904 51.4492 10.4904H51.4434Z" fill="#7A1C0B"/>
</g>
<path d="M35.3281 10.993L37.5891 11.3319L38.9503 10.0053C37.9351 10.993 37.1334 11.2677 35.3281 10.993Z" fill="#F9A346"/>
<path d="M37.5833 11.3319L38.3908 12.7579L29.2487 9.71307L37.5833 11.3319Z" fill="url(#paint68_linear_1685_11458)"/>
<g style="mix-blend-mode:screen" opacity="0.5">
<path d="M44.1067 2.72345C44.1586 4.04424 45.0815 5.68061 46.7426 7.39881C47.7289 8.42154 49.3497 8.55596 48.3057 7.39881C47.2617 6.24165 44.1067 2.72929 44.1067 2.72929V2.72345Z" fill="#F9A346"/>
</g>
<path d="M45.3526 4.51758C45.2834 4.57603 45.4275 4.8507 45.664 5.12538C45.9005 5.40006 46.1485 5.57538 46.2177 5.51694C46.287 5.4585 46.1428 5.18382 45.9063 4.90914C45.6698 4.63447 45.4218 4.45914 45.3526 4.51758Z" fill="url(#paint69_linear_1685_11458)"/>
<g style="mix-blend-mode:multiply" opacity="0.35">
<path d="M74.809 12.9391L77.0065 11.6241L74.1168 12.5884L74.809 12.9391Z" fill="#7A1C0B"/>
</g>
<g style="mix-blend-mode:multiply" opacity="0.35">
<path d="M37.1968 12.9391L34.9993 11.6241L37.889 12.5884L37.1968 12.9391Z" fill="#7A1C0B"/>
</g>
<path d="M91.6683 21.8398C91.0512 21.0567 90.6417 20.3554 90.7513 20.2677C90.8608 20.18 91.4492 20.7411 92.0663 21.5242C92.6835 22.3073 93.093 23.0086 92.9834 23.0963C92.8738 23.1839 92.2855 22.6229 91.6683 21.8398Z" fill="url(#paint70_linear_1685_11458)"/>
<path d="M33.1017 85.4129C32.6402 85.0856 32.3288 84.7233 32.4095 84.6064C32.4903 84.4895 32.9286 84.659 33.3901 84.9921C33.8515 85.3194 34.1629 85.6817 34.0822 85.7986C34.0014 85.9155 33.5631 85.746 33.1017 85.4129Z" fill="url(#paint71_linear_1685_11458)"/>
<path style="mix-blend-mode:color-dodge" opacity="0.6" d="M42.4052 1.5896C41.8457 2.15648 42.907 4.14935 44.7758 6.04287C46.6446 7.93639 48.6114 9.01172 49.1709 8.44484C49.7304 7.87795 48.6691 5.88508 46.8003 3.99156C44.9315 2.09804 42.9647 1.02271 42.4052 1.5896Z" fill="url(#paint72_radial_1685_11458)"/>
<path style="mix-blend-mode:color-dodge" opacity="0.6" d="M62.8291 8.44484C63.3886 9.01172 65.3554 7.93639 67.2242 6.04287C69.093 4.14935 70.1543 2.15648 69.5948 1.5896C69.0353 1.02271 67.0685 2.09804 65.1997 3.99156C63.3309 5.88508 62.2696 7.87795 62.8291 8.44484Z" fill="url(#paint73_radial_1685_11458)"/>
<path style="mix-blend-mode:color-dodge" opacity="0.6" d="M88.4787 18.2514C87.9192 18.8183 88.9805 20.8112 90.8493 22.7047C92.7181 24.5982 94.6849 25.6735 95.2444 25.1066C95.8039 24.5398 94.7426 22.5469 92.8738 20.6534C91.005 18.7598 89.0382 17.6845 88.4787 18.2514Z" fill="url(#paint74_radial_1685_11458)"/>
<path style="mix-blend-mode:color-dodge" opacity="0.6" d="M29.1045 82.7771C28.7066 83.4726 30.2466 85.1207 32.5306 86.459C34.8205 87.7973 36.995 88.3233 37.3929 87.6278C37.7909 86.9324 36.2509 85.2843 33.9668 83.946C31.677 82.6077 29.5025 82.0817 29.1045 82.7771Z" fill="url(#paint75_radial_1685_11458)"/>
<path style="mix-blend-mode:color-dodge" opacity="0.6" d="M36.995 85.8161C36.4932 86.4356 37.7332 88.3175 39.7693 90.024C41.8053 91.7305 43.8645 92.6129 44.372 91.9935C44.8738 91.374 43.6337 89.4921 41.5977 87.7856C39.5616 86.0791 37.5025 85.1967 36.995 85.8161Z" fill="url(#paint76_radial_1685_11458)"/>
<path style="mix-blend-mode:color-dodge" opacity="0.6" d="M67.8702 91.9935C67.3684 91.374 68.6085 89.4921 70.6446 87.7856C72.6806 86.0791 74.7397 85.1967 75.2473 85.8161C75.7549 86.4356 74.509 88.3175 72.473 90.024C70.4369 91.7305 68.3778 92.6129 67.8702 91.9935Z" fill="url(#paint77_radial_1685_11458)"/>
<path style="mix-blend-mode:color-dodge" opacity="0.6" d="M10.036 50.26C11.5237 50.26 12.7296 49.0381 12.7296 47.5308C12.7296 46.0235 11.5237 44.8016 10.036 44.8016C8.54842 44.8016 7.34246 46.0235 7.34246 47.5308C7.34246 49.0381 8.54842 50.26 10.036 50.26Z" fill="url(#paint78_radial_1685_11458)"/>
<path style="mix-blend-mode:color-dodge" opacity="0.6" d="M104.652 47.5308C104.652 49.0386 103.446 50.26 101.958 50.26C100.47 50.26 99.2646 49.0386 99.2646 47.5308C99.2646 46.023 100.47 44.8016 101.958 44.8016C103.446 44.8016 104.652 46.023 104.652 47.5308Z" fill="url(#paint79_radial_1685_11458)"/>
<path d="M36.3563 52.9062C36.1421 52.5736 35.8527 52.2865 35.4881 52.0449C35.1236 51.7988 34.7362 51.6758 34.326 51.6758C34.2531 51.6758 34.1961 51.6781 34.1551 51.6826C34.1187 51.6872 34.0412 51.7031 33.9227 51.7305C34.0503 52.0495 34.2827 52.348 34.62 52.626C34.9572 52.904 35.3172 53.043 35.7 53.043C36.0008 53.0065 36.2196 52.9609 36.3563 52.9062ZM37.3407 51.6211C37.4045 51.4388 37.4523 51.2132 37.4842 50.9443C37.5161 50.6709 37.5321 50.3587 37.5321 50.0078C37.5321 49.3197 37.4523 48.6497 37.2928 47.998C37.1333 47.3464 36.8758 46.8063 36.5204 46.3779C36.1649 45.9495 35.7274 45.7354 35.2079 45.7354C34.9208 45.7354 34.6633 45.8174 34.4354 45.9814C34.2121 46.1455 34.0252 46.3757 33.8749 46.6719C33.7245 46.9635 33.6037 47.3076 33.5125 47.7041C33.4715 47.8864 33.4374 48.0938 33.41 48.3262C33.3872 48.5586 33.3758 48.7751 33.3758 48.9756C33.3758 49.404 33.4123 49.8232 33.4852 50.2334C33.5627 50.639 33.6721 51.0537 33.8133 51.4775C34.4924 51.1312 35.0848 50.958 35.5907 50.958C36.2059 50.958 36.7892 51.179 37.3407 51.6211ZM38.742 53.2549C38.9015 53.4736 39.0793 53.6445 39.2752 53.7676C39.4758 53.8861 39.6991 53.9453 39.9452 53.9453C40.173 53.9453 40.3644 53.8724 40.5194 53.7266C40.6743 53.5807 40.7518 53.3779 40.7518 53.1182V52.9062L41.0321 52.7969C41.1278 53.2708 41.1756 53.6719 41.1756 54C41.1756 54.5423 41.0161 55.0026 40.6971 55.3809C40.3827 55.7591 39.968 55.9482 39.453 55.9482C38.9927 55.9482 38.5597 55.7819 38.1542 55.4492C37.7531 55.1211 37.4295 54.6471 37.1834 54.0273C36.4406 54.1595 35.839 54.2256 35.3788 54.2256C34.5676 54.2256 33.8452 54.1003 33.2118 53.8496C32.5783 53.5944 32.0428 53.2367 31.6053 52.7764C31.1678 52.3161 30.8374 51.7897 30.6141 51.1973C30.3954 50.6003 30.286 49.9668 30.286 49.2969C30.286 48.3991 30.4979 47.5924 30.9217 46.877C31.3501 46.1569 31.9676 45.5918 32.7743 45.1816C33.5809 44.7669 34.5197 44.5596 35.5907 44.5596C36.3609 44.5596 37.0581 44.6872 37.6825 44.9424C38.3068 45.1976 38.8377 45.5508 39.2752 46.002C39.7127 46.4531 40.0477 46.9749 40.2801 47.5674C40.5125 48.1553 40.6288 48.7773 40.6288 49.4336C40.6288 49.944 40.5604 50.4385 40.4237 50.917C40.287 51.391 40.0773 51.8239 39.7948 52.2158C39.5122 52.6032 39.1613 52.9495 38.742 53.2549ZM47.0988 52.7354C46.7707 53.1592 46.3264 53.5055 45.7658 53.7744C45.2098 54.0387 44.6652 54.1709 44.132 54.1709C43.6262 54.1709 43.2137 54.0273 42.8947 53.7402C42.5803 53.4486 42.4231 53.0065 42.4231 52.4141V48.6611C42.4231 47.9183 42.1724 47.5469 41.6711 47.5469V47.1914L45.0549 46.9453V51.8125C45.0549 52.0723 45.1119 52.2796 45.2258 52.4346C45.285 52.512 45.3534 52.5736 45.4309 52.6191C45.5083 52.6602 45.5949 52.6807 45.6906 52.6807C46.1327 52.5804 46.4768 52.3389 46.7229 51.9561C46.9735 51.5732 47.0988 51.1335 47.0988 50.6367V48.9414C47.0988 48.4811 47.0533 48.1348 46.9621 47.9023C46.871 47.6654 46.6363 47.5469 46.258 47.5469V47.1914L49.7033 47V52.7354C49.7033 52.9632 49.774 53.1774 49.9152 53.3779C50.0611 53.5785 50.2479 53.6787 50.4758 53.6787V54H47.2697C47.1558 53.7357 47.0988 53.3141 47.0988 52.7354ZM59.2017 49.7002L54.1295 50.7529C54.2388 51.4958 54.4963 52.0632 54.9019 52.4551C55.3075 52.847 55.7746 53.043 56.3033 53.043C56.5494 53.043 56.7909 53.002 57.0279 52.9199C57.2694 52.8379 57.5064 52.7171 57.7388 52.5576C58.1991 52.2477 58.5318 51.8467 58.7369 51.3545L59.0035 51.4502L58.1353 54.1436C57.994 54.0296 57.8254 53.9727 57.6295 53.9727C57.511 53.9727 57.233 54.0091 56.7955 54.082C56.358 54.1595 55.9547 54.1982 55.5855 54.1982C55.0888 54.1982 54.6376 54.1481 54.232 54.0479C53.8264 53.9521 53.4527 53.8086 53.1109 53.6172C52.4729 53.2572 52.0035 52.8014 51.7027 52.25C51.5523 51.9629 51.4361 51.6735 51.3541 51.3818C51.272 51.0902 51.231 50.7962 51.231 50.5C51.231 49.748 51.427 49.1009 51.8189 48.5586C52.2108 48.0163 52.7304 47.6061 53.3775 47.3281C54.0246 47.0501 54.706 46.9111 55.4215 46.9111C56.0549 46.9111 56.6451 47.016 57.192 47.2256C57.7434 47.4352 58.1991 47.752 58.5592 48.1758C58.9192 48.5951 59.1334 49.1032 59.2017 49.7002ZM54.0611 49.8711L56.358 49.4062C56.358 48.9505 56.2509 48.6042 56.0367 48.3672C55.8225 48.1257 55.565 48.0049 55.2642 48.0049C54.8358 48.0049 54.5282 48.1986 54.3414 48.5859C54.1545 48.9688 54.0611 49.3971 54.0611 49.8711ZM66.1093 46.9727L66.1777 49.0029L65.9111 49.0303C65.8017 48.7568 65.6353 48.5312 65.412 48.3535C65.1887 48.1758 64.9358 48.0436 64.6533 47.957C64.3753 47.8704 64.095 47.8271 63.8124 47.8271C63.5253 47.8271 63.2769 47.8682 63.0673 47.9502C62.8577 48.0322 62.7369 48.1439 62.705 48.2852C62.705 48.4993 62.8326 48.6589 63.0878 48.7637C63.2473 48.8229 63.4273 48.8844 63.6279 48.9482C63.8329 49.012 64.1292 49.0986 64.5165 49.208C65.2229 49.3994 65.7789 49.6113 66.1845 49.8438C66.5901 50.0762 66.8544 50.3929 66.9775 50.7939C67.0139 50.9899 67.0322 51.1562 67.0322 51.293C67.0322 51.7214 66.9 52.1611 66.6357 52.6123C66.3714 53.0635 65.9407 53.4463 65.3437 53.7607C65.0475 53.9157 64.7148 54.0319 64.3456 54.1094C63.9765 54.1868 63.5618 54.2256 63.1015 54.2256C62.8053 54.2256 62.3814 54.1686 61.83 54.0547C61.2786 53.9408 60.9094 53.8838 60.7226 53.8838C60.4127 53.8838 60.2122 53.9704 60.121 54.1436L59.9228 51.3545L60.2031 51.293C60.3398 51.7533 60.5289 52.1292 60.7704 52.4209C61.0165 52.708 61.2922 52.9176 61.5976 53.0498C61.7617 53.1182 61.9189 53.1706 62.0693 53.207C62.2242 53.2389 62.386 53.2549 62.5546 53.2549C62.7643 53.2549 62.9579 53.2344 63.1357 53.1934C63.318 53.1478 63.5071 53.0771 63.7031 52.9814C64.0585 52.8128 64.259 52.6328 64.3046 52.4414L64.332 52.2363C64.332 51.9355 64.1998 51.7396 63.9355 51.6484C63.6712 51.5527 63.1357 51.4137 62.329 51.2314C61.5269 51.0446 60.9299 50.8145 60.538 50.541C60.1461 50.263 59.9501 49.8392 59.9501 49.2695C59.9684 49.2194 59.9775 49.1624 59.9775 49.0986C59.9775 48.9209 60.0117 48.7477 60.08 48.5791C60.1529 48.4059 60.2623 48.2282 60.4081 48.0459C60.677 47.7087 61.0689 47.4352 61.5839 47.2256C62.1034 47.016 62.7073 46.9111 63.3954 46.9111C63.76 46.9111 64.193 46.9453 64.6943 47.0137L65.5351 47.1094C65.8131 47.082 66.0045 47.0365 66.1093 46.9727ZM67.5755 47.7383C67.899 47.679 68.1748 47.4945 68.4026 47.1846C68.635 46.8747 68.7513 46.5055 68.7513 46.0771C68.7513 45.9176 68.7125 45.6693 68.635 45.332C69.5328 45.168 70.3828 44.833 71.1849 44.3271V47.2256H72.3606C72.707 47.2256 72.9599 47.1777 73.1194 47.082L72.6819 48.1758C72.5634 48.0983 72.4199 48.0596 72.2513 48.0596H71.1849V51.6211C71.1849 52.0221 71.26 52.332 71.4104 52.5508C71.5654 52.7695 71.7613 52.8789 71.9983 52.8789C72.2581 52.8789 72.527 52.7604 72.805 52.5234C73.0693 52.3092 73.2766 52.0085 73.427 51.6211L73.6936 51.7305L72.9895 53.7197C72.11 54.0387 71.3489 54.1982 70.7063 54.1982C70.0592 54.1982 69.5374 54.0251 69.1409 53.6787C68.749 53.3278 68.553 52.7673 68.553 51.9971V48.0596H67.5755V47.7383ZM80.403 46.9727L80.4713 49.0029L80.2047 49.0303C80.0954 48.7568 79.929 48.5312 79.7057 48.3535C79.4824 48.1758 79.2295 48.0436 78.9469 47.957C78.6689 47.8704 78.3887 47.8271 78.1061 47.8271C77.819 47.8271 77.5706 47.8682 77.361 47.9502C77.1513 48.0322 77.0306 48.1439 76.9987 48.2852C76.9987 48.4993 77.1263 48.6589 77.3815 48.7637C77.541 48.8229 77.721 48.8844 77.9215 48.9482C78.1266 49.012 78.4228 49.0986 78.8102 49.208C79.5166 49.3994 80.0726 49.6113 80.4782 49.8438C80.8838 50.0762 81.1481 50.3929 81.2711 50.7939C81.3076 50.9899 81.3258 51.1562 81.3258 51.293C81.3258 51.7214 81.1937 52.1611 80.9293 52.6123C80.665 53.0635 80.2344 53.4463 79.6374 53.7607C79.3411 53.9157 79.0084 54.0319 78.6393 54.1094C78.2702 54.1868 77.8555 54.2256 77.3952 54.2256C77.0989 54.2256 76.6751 54.1686 76.1237 54.0547C75.5722 53.9408 75.2031 53.8838 75.0163 53.8838C74.7064 53.8838 74.5058 53.9704 74.4147 54.1436L74.2165 51.3545L74.4967 51.293C74.6334 51.7533 74.8226 52.1292 75.0641 52.4209C75.3102 52.708 75.5859 52.9176 75.8913 53.0498C76.0553 53.1182 76.2125 53.1706 76.3629 53.207C76.5179 53.2389 76.6797 53.2549 76.8483 53.2549C77.0579 53.2549 77.2516 53.2344 77.4293 53.1934C77.6116 53.1478 77.8008 53.0771 77.9967 52.9814C78.3522 52.8128 78.5527 52.6328 78.5983 52.4414L78.6256 52.2363C78.6256 51.9355 78.4935 51.7396 78.2291 51.6484C77.9648 51.5527 77.4293 51.4137 76.6227 51.2314C75.8206 51.0446 75.2236 50.8145 74.8317 50.541C74.4398 50.263 74.2438 49.8392 74.2438 49.2695C74.262 49.2194 74.2711 49.1624 74.2711 49.0986C74.2711 48.9209 74.3053 48.7477 74.3737 48.5791C74.4466 48.4059 74.556 48.2282 74.7018 48.0459C74.9707 47.7087 75.3626 47.4352 75.8776 47.2256C76.3971 47.016 77.001 46.9111 77.6891 46.9111C78.0537 46.9111 78.4866 46.9453 78.9879 47.0137L79.8288 47.1094C80.1068 47.082 80.2982 47.0365 80.403 46.9727Z" fill="#A43434"/>
</g>
<defs>
<filter id="filter0_i_1685_11458" x="17.8344" y="11.5108" width="76.3312" height="80.4236" filterUnits="userSpaceOnUse" color-interpolation-filters="sRGB">
<feFlood flood-opacity="0" result="BackgroundImageFix"/>
<feBlend mode="normal" in="SourceGraphic" in2="BackgroundImageFix" result="shape"/>
<feColorMatrix in="SourceAlpha" type="matrix" values="0 0 0 0 0 0 0 0 0 0 0 0 0 0 0 0 0 0 127 0" result="hardAlpha"/>
<feOffset dy="3.44516"/>
<feGaussianBlur stdDeviation="1.72258"/>
<feComposite in2="hardAlpha" operator="arithmetic" k2="-1" k3="1"/>
<feColorMatrix type="matrix" values="0 0 0 0 1 0 0 0 0 0.981333 0 0 0 0 0.883333 0 0 0 1 0"/>
<feBlend mode="normal" in2="shape" result="effect1_innerShadow_1685_11458"/>
</filter>
<radialGradient id="paint0_radial_1685_11458" cx="0" cy="0" r="1" gradientUnits="userSpaceOnUse" gradientTransform="translate(56.287 25.4016) rotate(90.2606) scale(63.0882 62.5578)">
<stop stop-color="#FEE5A2"/>
<stop offset="0.585" stop-color="#FC8F60"/>
<stop offset="1" stop-color="#FCF5B2"/>
</radialGradient>
<linearGradient id="paint1_linear_1685_11458" x1="56" y1="96.6221" x2="56" y2="3.39551" gradientUnits="userSpaceOnUse">
<stop stop-color="#ED480B"/>
<stop offset="0.99" stop-color="#F2B100"/>
</linearGradient>
<radialGradient id="paint2_radial_1685_11458" cx="0" cy="0" r="1" gradientUnits="userSpaceOnUse" gradientTransform="translate(55.0454 90.19) scale(26.0274 26.3719)">
<stop stop-color="#691C00"/>
<stop offset="1" stop-color="#FFF1CC"/>
</radialGradient>
<linearGradient id="paint3_linear_1685_11458" x1="9.24012" y1="52.5977" x2="9.70194" y2="59.4639" gradientUnits="userSpaceOnUse">
<stop stop-color="#FFF1CC"/>
<stop offset="1" stop-color="#691C00"/>
</linearGradient>
<linearGradient id="paint4_linear_1685_11458" x1="9.46503" y1="56.5601" x2="9.46503" y2="41.4938" gradientUnits="userSpaceOnUse">
<stop offset="0.01" stop-color="#F2B100"/>
<stop offset="1" stop-color="#ED480B"/>
</linearGradient>
<linearGradient id="paint5_linear_1685_11458" x1="16.1096" y1="59.4413" x2="16.1096" y2="54.1289" gradientUnits="userSpaceOnUse">
<stop stop-color="#7A1C0B"/>
<stop offset="0.94" stop-color="#BC4408"/>
</linearGradient>
<linearGradient id="paint6_linear_1685_11458" x1="12.4643" y1="50.2543" x2="12.92" y2="53.5137" gradientUnits="userSpaceOnUse">
<stop stop-color="#691C00"/>
<stop offset="1" stop-color="#FFF1CC"/>
</linearGradient>
<linearGradient id="paint7_linear_1685_11458" x1="15.0079" y1="43.662" x2="9.32635" y2="43.4286" gradientUnits="userSpaceOnUse">
<stop stop-color="#691C00"/>
<stop offset="1" stop-color="#FFF1CC"/>
</linearGradient>
<linearGradient id="paint8_linear_1685_11458" x1="13.2133" y1="45.1047" x2="12.8604" y2="45.6999" gradientUnits="userSpaceOnUse">
<stop stop-color="white"/>
<stop offset="1" stop-color="#FFF7C4"/>
</linearGradient>
<linearGradient id="paint9_linear_1685_11458" x1="102.754" y1="52.5977" x2="102.292" y2="59.4639" gradientUnits="userSpaceOnUse">
<stop stop-color="#FFF1CC"/>
<stop offset="1" stop-color="#691C00"/>
</linearGradient>
<linearGradient id="paint10_linear_1685_11458" x1="102.529" y1="56.5601" x2="102.529" y2="41.4938" gradientUnits="userSpaceOnUse">
<stop offset="0.01" stop-color="#F2B100"/>
<stop offset="1" stop-color="#ED480B"/>
</linearGradient>
<linearGradient id="paint11_linear_1685_11458" x1="95.8904" y1="-1.48486e-05" x2="95.8904" y2="-1.48486e-05" gradientUnits="userSpaceOnUse">
<stop stop-color="#7A1C0B"/>
<stop offset="0.94" stop-color="#BC4408"/>
</linearGradient>
<linearGradient id="paint12_linear_1685_11458" x1="99.5357" y1="50.2543" x2="99.08" y2="53.5137" gradientUnits="userSpaceOnUse">
<stop stop-color="#691C00"/>
<stop offset="1" stop-color="#FFF1CC"/>
</linearGradient>
<linearGradient id="paint13_linear_1685_11458" x1="96.9863" y1="43.662" x2="102.674" y2="43.4286" gradientUnits="userSpaceOnUse">
<stop stop-color="#691C00"/>
<stop offset="1" stop-color="#FFF1CC"/>
</linearGradient>
<linearGradient id="paint14_linear_1685_11458" x1="99.2945" y1="47.8128" x2="99.6474" y2="48.4081" gradientUnits="userSpaceOnUse">
<stop stop-color="white"/>
<stop offset="1" stop-color="#FFF7C4"/>
</linearGradient>
<linearGradient id="paint15_linear_1685_11458" x1="13.8082" y1="60.318" x2="17.7112" y2="71.4369" gradientUnits="userSpaceOnUse">
<stop stop-color="#691C00"/>
<stop offset="1" stop-color="#FFF1CC"/>
</linearGradient>
<linearGradient id="paint16_linear_1685_11458" x1="98.2668" y1="60.318" x2="94.3696" y2="71.437" gradientUnits="userSpaceOnUse">
<stop stop-color="#691C00"/>
<stop offset="1" stop-color="#FFF1CC"/>
</linearGradient>
<linearGradient id="paint17_linear_1685_11458" x1="56" y1="43.6152" x2="56" y2="6.10716" gradientUnits="userSpaceOnUse">
<stop offset="0.01" stop-color="#F2B100"/>
<stop offset="1" stop-color="#ED480B"/>
</linearGradient>
<linearGradient id="paint18_linear_1685_11458" x1="56" y1="93.9162" x2="56" y2="59.3478" gradientUnits="userSpaceOnUse">
<stop offset="0.01" stop-color="#F2B100"/>
<stop offset="1" stop-color="#ED480B"/>
</linearGradient>
<linearGradient id="paint19_linear_1685_11458" x1="14.9618" y1="59.4355" x2="17.9976" y2="68.5931" gradientUnits="userSpaceOnUse">
<stop stop-color="#691C00"/>
<stop offset="1" stop-color="#FFF1CC"/>
</linearGradient>
<linearGradient id="paint20_linear_1685_11458" x1="97.0325" y1="59.4355" x2="94.0025" y2="68.5932" gradientUnits="userSpaceOnUse">
<stop stop-color="#691C00"/>
<stop offset="1" stop-color="#FFF1CC"/>
</linearGradient>
<radialGradient id="paint21_radial_1685_11458" cx="0" cy="0" r="1" gradientUnits="userSpaceOnUse" gradientTransform="translate(56.0317 8.47581) scale(14.0932 14.2797)">
<stop stop-color="#691C00"/>
<stop offset="1" stop-color="#FFF1CC"/>
</radialGradient>
<linearGradient id="paint22_linear_1685_11458" x1="56" y1="2.05716" x2="56" y2="10.2624" gradientUnits="userSpaceOnUse">
<stop offset="0.01" stop-color="#F2B100"/>
<stop offset="1" stop-color="#ED480B"/>
</linearGradient>
<linearGradient id="paint23_linear_1685_11458" x1="56" y1="1.77663" x2="59.7837" y2="1.77663" gradientUnits="userSpaceOnUse">
<stop offset="0.01" stop-color="#F2B100"/>
<stop offset="1" stop-color="#ED480B"/>
</linearGradient>
<linearGradient id="paint24_linear_1685_11458" x1="56" y1="1.77663" x2="52.2163" y2="1.77663" gradientUnits="userSpaceOnUse">
<stop offset="0.01" stop-color="#F2B100"/>
<stop offset="1" stop-color="#ED480B"/>
</linearGradient>
<linearGradient id="paint25_linear_1685_11458" x1="56" y1="9.73053" x2="50.1975" y2="9.73053" gradientUnits="userSpaceOnUse">
<stop offset="0.06" stop-color="#BC4408"/>
<stop offset="1" stop-color="#7A1C0B"/>
</linearGradient>
<linearGradient id="paint26_linear_1685_11458" x1="56" y1="554.234" x2="61.8024" y2="554.234" gradientUnits="userSpaceOnUse">
<stop offset="0.06" stop-color="#BC4408"/>
<stop offset="1" stop-color="#7A1C0B"/>
</linearGradient>
<linearGradient id="paint27_linear_1685_11458" x1="55.9423" y1="2.86953" x2="58.5643" y2="5.32472" gradientUnits="userSpaceOnUse">
<stop stop-color="#7A1C0B"/>
<stop offset="0.94" stop-color="#BC4408"/>
</linearGradient>
<radialGradient id="paint28_radial_1685_11458" cx="0" cy="0" r="1" gradientUnits="userSpaceOnUse" gradientTransform="translate(57.7482 2.33574) scale(3.9253 4.83391)">
<stop stop-color="#33FF33"/>
<stop offset="1" stop-color="#00DE00"/>
</radialGradient>
<radialGradient id="paint29_radial_1685_11458" cx="0" cy="0" r="1" gradientUnits="userSpaceOnUse" gradientTransform="translate(55.8287 4.75971) scale(1.99452 2.4562)">
<stop stop-color="#33FF33"/>
<stop offset="1" stop-color="#00DE00"/>
</radialGradient>
<linearGradient id="paint30_linear_1685_11458" x1="56" y1="4.69866" x2="59.1954" y2="4.69866" gradientUnits="userSpaceOnUse">
<stop stop-color="#400900"/>
<stop offset="1" stop-color="#FB8A77"/>
</linearGradient>
<linearGradient id="paint31_linear_1685_11458" x1="56" y1="89.083" x2="56" y2="97.2824" gradientUnits="userSpaceOnUse">
<stop offset="0.01" stop-color="#F2B100"/>
<stop offset="1" stop-color="#ED480B"/>
</linearGradient>
<linearGradient id="paint32_linear_1685_11458" x1="56" y1="89.2642" x2="60.6892" y2="89.2642" gradientUnits="userSpaceOnUse">
<stop offset="0.01" stop-color="#F2B100"/>
<stop offset="1" stop-color="#ED480B"/>
</linearGradient>
<linearGradient id="paint33_linear_1685_11458" x1="56" y1="89.2642" x2="51.3107" y2="89.2642" gradientUnits="userSpaceOnUse">
<stop offset="0.01" stop-color="#F2B100"/>
<stop offset="1" stop-color="#ED480B"/>
</linearGradient>
<linearGradient id="paint34_linear_1685_11458" x1="-543.931" y1="96.7506" x2="-544.507" y2="96.7506" gradientUnits="userSpaceOnUse">
<stop offset="0.06" stop-color="#BC4408"/>
<stop offset="1" stop-color="#7A1C0B"/>
</linearGradient>
<linearGradient id="paint35_linear_1685_11458" x1="56" y1="96.7506" x2="61.8024" y2="96.7506" gradientUnits="userSpaceOnUse">
<stop offset="0.06" stop-color="#BC4408"/>
<stop offset="1" stop-color="#7A1C0B"/>
</linearGradient>
<linearGradient id="paint36_linear_1685_11458" x1="55.9423" y1="89.8896" x2="58.5644" y2="92.3506" gradientUnits="userSpaceOnUse">
<stop stop-color="#7A1C0B"/>
<stop offset="0.94" stop-color="#BC4408"/>
</linearGradient>
<radialGradient id="paint37_radial_1685_11458" cx="0" cy="0" r="1" gradientUnits="userSpaceOnUse" gradientTransform="translate(211.296 89.6231) scale(0.187455 0.230846)">
<stop stop-color="#33FF33"/>
<stop offset="1" stop-color="#00DE00"/>
</radialGradient>
<radialGradient id="paint38_radial_1685_11458" cx="0" cy="0" r="1" gradientUnits="userSpaceOnUse" gradientTransform="translate(55.8287 92.0471) scale(1.99452 2.4562)">
<stop stop-color="#33FF33"/>
<stop offset="1" stop-color="#00DE00"/>
</radialGradient>
<linearGradient id="paint39_linear_1685_11458" x1="308.724" y1="91.7246" x2="309.301" y2="91.7246" gradientUnits="userSpaceOnUse">
<stop stop-color="#400900"/>
<stop offset="1" stop-color="#FB8A77"/>
</linearGradient>
<linearGradient id="paint40_linear_1685_11458" x1="70.5984" y1="88.0896" x2="70.5984" y2="96.137" gradientUnits="userSpaceOnUse">
<stop stop-color="#F2B100"/>
<stop offset="1" stop-color="#ED480B"/>
</linearGradient>
<linearGradient id="paint41_linear_1685_11458" x1="70.6215" y1="88.5746" x2="70.6215" y2="97.4286" gradientUnits="userSpaceOnUse">
<stop stop-color="#A32100"/>
<stop offset="1" stop-color="#D36C05"/>
</linearGradient>
<linearGradient id="paint42_linear_1685_11458" x1="60.026" y1="90.4974" x2="61.0119" y2="89.6395" gradientUnits="userSpaceOnUse">
<stop offset="0.06" stop-color="#BC4408"/>
<stop offset="1" stop-color="#7A1C0B"/>
</linearGradient>
<linearGradient id="paint43_linear_1685_11458" x1="67.2588" y1="96.2306" x2="62.1996" y2="91.7557" gradientUnits="userSpaceOnUse">
<stop stop-color="#7A1C0B"/>
<stop offset="0.94" stop-color="#BC4408"/>
</linearGradient>
<linearGradient id="paint44_linear_1685_11458" x1="74.6071" y1="89.422" x2="78.3242" y2="90.0316" gradientUnits="userSpaceOnUse">
<stop stop-color="#7A1C0B"/>
<stop offset="0.94" stop-color="#BC4408"/>
</linearGradient>
<linearGradient id="paint45_linear_1685_11458" x1="55.7795" y1="177.593" x2="55.66" y2="178.564" gradientUnits="userSpaceOnUse">
<stop stop-color="#FFF7C4"/>
<stop offset="1" stop-color="white"/>
</linearGradient>
<linearGradient id="paint46_linear_1685_11458" x1="-53.7902" y1="-619.047" x2="-53.6836" y2="-618.498" gradientUnits="userSpaceOnUse">
<stop stop-color="#FFF7C4"/>
<stop offset="1" stop-color="white"/>
</linearGradient>
<linearGradient id="paint47_linear_1685_11458" x1="81.9784" y1="88.3759" x2="72.9344" y2="88.3759" gradientUnits="userSpaceOnUse">
<stop stop-color="#7A1C0B"/>
<stop offset="0.94" stop-color="#BC4408"/>
</linearGradient>
<linearGradient id="paint48_linear_1685_11458" x1="41.4823" y1="-1.16241e-05" x2="41.4823" y2="-1.16241e-05" gradientUnits="userSpaceOnUse">
<stop stop-color="#F2B100"/>
<stop offset="1" stop-color="#ED480B"/>
</linearGradient>
<linearGradient id="paint49_linear_1685_11458" x1="41.4593" y1="88.5746" x2="41.4593" y2="2012.78" gradientUnits="userSpaceOnUse">
<stop stop-color="#A32100"/>
<stop offset="1" stop-color="#D36C05"/>
</linearGradient>
<linearGradient id="paint50_linear_1685_11458" x1="52.049" y1="90.4974" x2="51.0631" y2="89.6395" gradientUnits="userSpaceOnUse">
<stop offset="0.06" stop-color="#BC4408"/>
<stop offset="1" stop-color="#7A1C0B"/>
</linearGradient>
<linearGradient id="paint51_linear_1685_11458" x1="44.8219" y1="96.2306" x2="49.8754" y2="91.7557" gradientUnits="userSpaceOnUse">
<stop stop-color="#7A1C0B"/>
<stop offset="0.94" stop-color="#BC4408"/>
</linearGradient>
<linearGradient id="paint52_linear_1685_11458" x1="37.4679" y1="89.422" x2="33.7508" y2="90.0316" gradientUnits="userSpaceOnUse">
<stop stop-color="#7A1C0B"/>
<stop offset="0.94" stop-color="#BC4408"/>
</linearGradient>
<linearGradient id="paint53_linear_1685_11458" x1="42.4198" y1="138.853" x2="42.5384" y2="139.816" gradientUnits="userSpaceOnUse">
<stop stop-color="#FFF7C4"/>
<stop offset="1" stop-color="white"/>
</linearGradient>
<linearGradient id="paint54_linear_1685_11458" x1="94.5443" y1="-213.377" x2="94.4384" y2="-212.831" gradientUnits="userSpaceOnUse">
<stop stop-color="#FFF7C4"/>
<stop offset="1" stop-color="white"/>
</linearGradient>
<linearGradient id="paint55_linear_1685_11458" x1="30.1024" y1="88.3759" x2="39.1406" y2="88.3759" gradientUnits="userSpaceOnUse">
<stop stop-color="#7A1C0B"/>
<stop offset="0.94" stop-color="#BC4408"/>
</linearGradient>
<radialGradient id="paint56_radial_1685_11458" cx="0" cy="0" r="1" gradientUnits="userSpaceOnUse" gradientTransform="translate(66.2812 6.60487) rotate(-180) scale(11.9178 12.0756)">
<stop offset="0.01" stop-color="#F2B100"/>
<stop offset="1" stop-color="#ED480B"/>
</radialGradient>
<linearGradient id="paint57_linear_1685_11458" x1="70.9676" y1="12.7579" x2="70.9676" y2="5.21307" gradientUnits="userSpaceOnUse">
<stop stop-color="#A32100"/>
<stop offset="1" stop-color="#D36C05"/>
</linearGradient>
<linearGradient id="paint58_linear_1685_11458" x1="59.9452" y1="10.5313" x2="61.5496" y2="11.9247" gradientUnits="userSpaceOnUse">
<stop offset="0.06" stop-color="#BC4408"/>
<stop offset="1" stop-color="#7A1C0B"/>
</linearGradient>
<linearGradient id="paint59_linear_1685_11458" x1="68.2682" y1="6.15983" x2="63.3606" y2="10.508" gradientUnits="userSpaceOnUse">
<stop stop-color="#7A1C0B"/>
<stop offset="0.94" stop-color="#BC4408"/>
</linearGradient>
<linearGradient id="paint60_linear_1685_11458" x1="61.1276" y1="8.46825" x2="62.7611" y2="9.88462" gradientUnits="userSpaceOnUse">
<stop stop-color="#7A1C0B"/>
<stop offset="0.94" stop-color="#BC4408"/>
</linearGradient>
<linearGradient id="paint61_linear_1685_11458" x1="74.6186" y1="11.8287" x2="78.8782" y2="11.1337" gradientUnits="userSpaceOnUse">
<stop stop-color="#7A1C0B"/>
<stop offset="0.94" stop-color="#BC4408"/>
</linearGradient>
<linearGradient id="paint62_linear_1685_11458" x1="79.944" y1="4.25437" x2="80.906" y2="4.11485" gradientUnits="userSpaceOnUse">
<stop stop-color="white"/>
<stop offset="1" stop-color="#FFF7C4"/>
</linearGradient>
<radialGradient id="paint63_radial_1685_11458" cx="0" cy="0" r="1" gradientUnits="userSpaceOnUse" gradientTransform="translate(45.726 92.2886) scale(11.9178 12.0756)">
<stop offset="0.01" stop-color="#F2B100"/>
<stop offset="1" stop-color="#ED480B"/>
</radialGradient>
<linearGradient id="paint64_linear_1685_11458" x1="41.0267" y1="12.7579" x2="41.0267" y2="5.21307" gradientUnits="userSpaceOnUse">
<stop stop-color="#A32100"/>
<stop offset="1" stop-color="#D36C05"/>
</linearGradient>
<linearGradient id="paint65_linear_1685_11458" x1="52.049" y1="10.5313" x2="50.4447" y2="11.9247" gradientUnits="userSpaceOnUse">
<stop offset="0.06" stop-color="#BC4408"/>
<stop offset="1" stop-color="#7A1C0B"/>
</linearGradient>
<linearGradient id="paint66_linear_1685_11458" x1="43.726" y1="6.15983" x2="48.6394" y2="10.508" gradientUnits="userSpaceOnUse">
<stop stop-color="#7A1C0B"/>
<stop offset="0.94" stop-color="#BC4408"/>
</linearGradient>
<linearGradient id="paint67_linear_1685_11458" x1="50.8666" y1="8.46825" x2="49.2332" y2="9.88462" gradientUnits="userSpaceOnUse">
<stop stop-color="#7A1C0B"/>
<stop offset="0.94" stop-color="#BC4408"/>
</linearGradient>
<linearGradient id="paint68_linear_1685_11458" x1="37.3756" y1="11.8287" x2="33.116" y2="11.1337" gradientUnits="userSpaceOnUse">
<stop stop-color="#7A1C0B"/>
<stop offset="0.94" stop-color="#BC4408"/>
</linearGradient>
<linearGradient id="paint69_linear_1685_11458" x1="36.1724" y1="3.09216" x2="35.2104" y2="2.95265" gradientUnits="userSpaceOnUse">
<stop stop-color="white"/>
<stop offset="1" stop-color="#FFF7C4"/>
</linearGradient>
<linearGradient id="paint70_linear_1685_11458" x1="92.248" y1="21.4841" x2="91.8472" y2="21.7997" gradientUnits="userSpaceOnUse">
<stop stop-color="white"/>
<stop offset="1" stop-color="#FFF7C4"/>
</linearGradient>
<linearGradient id="paint71_linear_1685_11458" x1="39.6473" y1="89.4054" x2="39.3513" y2="89.8232" gradientUnits="userSpaceOnUse">
<stop stop-color="white"/>
<stop offset="1" stop-color="#FFF7C4"/>
</linearGradient>
<radialGradient id="paint72_radial_1685_11458" cx="0" cy="0" r="1" gradientUnits="userSpaceOnUse" gradientTransform="translate(46.997 6.24829) rotate(45.3767) scale(4.80935 1.4398)">
<stop stop-color="#F4A940"/>
<stop offset="0.09" stop-color="#E69F3C"/>
<stop offset="0.27" stop-color="#C28633"/>
<stop offset="0.51" stop-color="#885E23"/>
<stop offset="0.8" stop-color="#39270F"/>
<stop offset="1"/>
</radialGradient>
<radialGradient id="paint73_radial_1685_11458" cx="0" cy="0" r="1" gradientUnits="userSpaceOnUse" gradientTransform="translate(67.0485 4.17109) rotate(-45.3767) scale(4.80935 1.4398)">
<stop stop-color="#F4A940"/>
<stop offset="0.09" stop-color="#E69F3C"/>
<stop offset="0.27" stop-color="#C28633"/>
<stop offset="0.51" stop-color="#885E23"/>
<stop offset="0.8" stop-color="#39270F"/>
<stop offset="1"/>
</radialGradient>
<radialGradient id="paint74_radial_1685_11458" cx="0" cy="0" r="1" gradientUnits="userSpaceOnUse" gradientTransform="translate(93.0798 22.9131) rotate(45.3767) scale(4.80935 1.4398)">
<stop stop-color="#F4A940"/>
<stop offset="0.09" stop-color="#E69F3C"/>
<stop offset="0.27" stop-color="#C28633"/>
<stop offset="0.51" stop-color="#885E23"/>
<stop offset="0.8" stop-color="#39270F"/>
<stop offset="1"/>
</radialGradient>
<radialGradient id="paint75_radial_1685_11458" cx="0" cy="0" r="1" gradientUnits="userSpaceOnUse" gradientTransform="translate(34.6258 86.0299) rotate(30.3273) scale(4.79351 1.44456)">
<stop stop-color="#F4A940"/>
<stop offset="0.09" stop-color="#E69F3C"/>
<stop offset="0.27" stop-color="#C28633"/>
<stop offset="0.51" stop-color="#885E23"/>
<stop offset="0.8" stop-color="#39270F"/>
<stop offset="1"/>
</radialGradient>
<radialGradient id="paint76_radial_1685_11458" cx="0" cy="0" r="1" gradientUnits="userSpaceOnUse" gradientTransform="translate(41.7358 90.1945) rotate(39.9304) scale(4.80337 1.44159)">
<stop stop-color="#F4A940"/>
<stop offset="0.09" stop-color="#E69F3C"/>
<stop offset="0.27" stop-color="#C28633"/>
<stop offset="0.51" stop-color="#885E23"/>
<stop offset="0.8" stop-color="#39270F"/>
<stop offset="1"/>
</radialGradient>
<radialGradient id="paint77_radial_1685_11458" cx="0" cy="0" r="1" gradientUnits="userSpaceOnUse" gradientTransform="translate(72.333 87.8526) rotate(-39.9304) scale(4.80338 1.44159)">
<stop stop-color="#F4A940"/>
<stop offset="0.09" stop-color="#E69F3C"/>
<stop offset="0.27" stop-color="#C28633"/>
<stop offset="0.51" stop-color="#885E23"/>
<stop offset="0.8" stop-color="#39270F"/>
<stop offset="1"/>
</radialGradient>
<radialGradient id="paint78_radial_1685_11458" cx="0" cy="0" r="1" gradientUnits="userSpaceOnUse" gradientTransform="translate(10.036 47.5308) scale(2.69358 2.72924)">
<stop stop-color="#F4A940"/>
<stop offset="0.09" stop-color="#E69F3C"/>
<stop offset="0.27" stop-color="#C28633"/>
<stop offset="0.51" stop-color="#885E23"/>
<stop offset="0.8" stop-color="#39270F"/>
<stop offset="1"/>
</radialGradient>
<radialGradient id="paint79_radial_1685_11458" cx="0" cy="0" r="1" gradientUnits="userSpaceOnUse" gradientTransform="translate(101.964 47.5308) scale(2.69358 2.72924)">
<stop stop-color="#F4A940"/>
<stop offset="0.09" stop-color="#E69F3C"/>
<stop offset="0.27" stop-color="#C28633"/>
<stop offset="0.51" stop-color="#885E23"/>
<stop offset="0.8" stop-color="#39270F"/>
<stop offset="1"/>
</radialGradient>
<clipPath id="clip0_1685_11458">
<rect width="112" height="100" fill="white"/>
</clipPath>
</defs>
</svg>
