<svg width="595" height="26" viewBox="0 0 595 26" fill="none" xmlns="http://www.w3.org/2000/svg">
<rect x="15" y="7" width="566" height="12" rx="3" fill="url(#paint0_angular_1753_17700)"/>
<g clip-path="url(#clip0_1753_17700)">
<path d="M1.10204 15.1304L4.74149 21.2816C5.89796 21.7195 16.4218 22.3832 18.3197 21.6853C19.2653 20.3305 21.068 15.5067 21.068 13.7551C19.9728 12.6534 17.7211 10.7923 16.5238 8.17859C17.0748 7.02225 17.8231 5.818 18.1701 5.01746C19.1701 5.12009 21.068 6.1738 21.068 6.1738L20.517 7.07698L20.3197 6.37223L19.6531 6.13275L18.585 6.67329C18.585 6.67329 17.8775 8.40439 18 8.76019L20.4082 10.156C20.8844 10.0739 21.1973 10.026 21.6735 9.9439C22.4422 8.4865 23.4014 6.56381 24.0068 5.26378C23.2177 4.3127 19.3673 1.63052 17.4762 2.04106C15.6803 2.95793 12.2857 6.82382 10.585 9.98496C11.7823 11.3876 13.8775 13.5019 13.8775 13.5019L13.0272 16.3551H6.62585C3.55782 13.9808 2.82313 13.584 2.82313 13.584L0.911562 13.6866C0.911562 13.6866 0.523807 14.5351 -0.00680542 15.7119C0.537412 15.4246 1.09524 15.1372 1.09524 15.1372L1.10204 15.1304Z" fill="url(#paint1_linear_1753_17700)"/>
<path d="M15.6667 19.181C16.1088 18.7978 16.7279 17.9015 16.9388 17.3883C16.4966 18.7568 15.8775 19.5299 15.8775 19.5299C15.8775 19.5299 13.4218 19.8857 9.12924 19.4957C11.0748 19.5299 13.5442 19.5436 15.6667 19.181Z" fill="#FFE346"/>
<path d="M21.3401 8.60284L19.2925 7.62439L19.6463 6.12593L18.5782 6.66647C18.5782 6.66647 17.8707 8.39757 17.9932 8.75337L20.4014 10.1492C20.8776 10.0671 21.1905 10.0192 21.6667 9.93708C22.6395 8.11703 23.415 6.56383 24 5.25696L22.9864 5.73592L21.3401 8.59599V8.60284Z" fill="url(#paint2_linear_1753_17700)"/>
<g style="mix-blend-mode:multiply" opacity="0.15">
<path d="M13.8775 13.5018L13.0272 16.3551C13.0272 16.3551 14.8503 17.7577 15.8707 19.5299C16.6463 18.7499 17.966 15.6024 17.966 13.7413C17.3605 13.7071 13.8707 13.5087 13.8707 13.5087L13.8775 13.5018Z" fill="#7A1C0B"/>
</g>
<path d="M15.8775 19.5299C12.619 19.7625 7.78911 19.4273 5.69387 19.2973C0.99999 15.6845 4.74829 21.2884 4.74829 21.2884C6.10203 21.651 16.4286 22.39 18.3265 21.6921C19.2721 20.3373 21.0748 15.5135 21.0748 13.7619L17.9796 13.7482C17.8775 15.4587 16.6803 18.2025 15.8843 19.5367L15.8775 19.5299Z" fill="url(#paint3_linear_1753_17700)"/>
<path d="M5.69387 19.2904L4.74829 21.2815C5.97958 21.7468 16.068 22.3694 18.2245 21.7194L18.3265 21.6852L15.8775 19.523C12.619 19.7557 7.78911 19.4204 5.69387 19.2904Z" fill="url(#paint4_linear_1753_17700)"/>
<path opacity="0.5" d="M17.9728 13.7346C16.4762 12.3319 14.5782 9.41707 14.2789 8.28125L10.585 9.99182C11.7823 11.3945 13.8776 13.5088 13.8776 13.5088L17.9728 13.7414V13.7346Z" fill="url(#paint5_linear_1753_17700)"/>
<path d="M21.068 6.16694L21.7347 5.33218C21.7347 5.33218 19.7075 4.12794 17.9728 3.59424C17.0748 4.19636 15.2449 6.87169 14.2789 8.2812L16.5238 8.17857C17.0748 7.02222 17.8231 5.81798 18.1701 5.01743C19.1701 5.12007 21.068 6.17378 21.068 6.17378V6.16694Z" fill="url(#paint6_linear_1753_17700)"/>
<path d="M17.9932 8.76021L19.2925 7.62439L21.3401 8.60284L21.6667 9.94392L20.4082 10.156L17.9932 8.76021Z" fill="url(#paint7_linear_1753_17700)"/>
<path d="M21.7347 5.33218C21.7347 5.33218 19.7075 4.12794 17.9728 3.59424L18.1701 5.01743C19.1701 5.12007 21.068 6.17378 21.068 6.17378L21.7347 5.33902V5.33218Z" fill="url(#paint8_linear_1753_17700)"/>
<g style="mix-blend-mode:screen" opacity="0.5">
<path d="M23.9116 5.16797C23.1157 4.30584 20.4218 2.41737 18.4898 2.06157C18.483 2.06157 18.4694 2.06157 18.4626 2.06157C18.4354 2.06157 18.4082 2.05473 18.381 2.04789C17.9864 2.01368 17.0408 2.52001 17.966 3.60109C18.898 3.93636 21.3265 4.99007 21.7279 5.33903C22.2449 5.45535 22.8435 5.64009 23.9048 5.17481L23.9116 5.16797Z" fill="#F9A346"/>
</g>
<path d="M20.3605 3.01261C20.3197 3.1084 20.0068 3.06051 19.6531 2.91682C19.2993 2.76629 19.0476 2.57471 19.0884 2.47891C19.1292 2.38312 19.4422 2.43102 19.7959 2.57471C20.1497 2.72524 20.4014 2.91682 20.3605 3.01261Z" fill="url(#paint9_linear_1753_17700)"/>
<path d="M16.0884 11.5039C15.3129 10.3134 14.7347 9.17754 14.4354 8.2812C15.068 7.28907 16.5646 5.06533 16.9252 4.64795C15.5102 5.92061 14.4082 7.81593 14.1088 8.35647C14.3605 9.08175 15.4966 10.8744 16.0884 11.4971V11.5039Z" fill="#FFE346"/>
<g style="mix-blend-mode:multiply" opacity="0.35">
<path d="M0.693878 15.3152L1.69388 18.3873L2.27211 21.0421L4.02041 20.05L2.85034 16.1978L1.09524 15.0894L0.693878 15.3152Z" fill="#7A1C0B"/>
</g>
<path style="mix-blend-mode:multiply" opacity="0.35" d="M2.82993 13.584L0.918365 13.6866C0.918365 13.6866 4.80272 18.2573 5.69388 19.2973C5.53741 17.0188 6.63265 16.362 6.63265 16.362C3.71428 14.1519 2.82993 13.5908 2.82993 13.5908V13.584Z" fill="url(#paint10_linear_1753_17700)"/>
<path d="M0.918367 13.6866L0 15.712L1.10204 15.1372L4.7415 21.2884L5.68707 19.2973C2.17007 15.1988 0.918367 13.6866 0.918367 13.6866Z" fill="url(#paint11_linear_1753_17700)"/>
<g style="mix-blend-mode:screen" opacity="0.5">
<path d="M4.06122 17.3883C3.10884 16.0062 3.40136 13.8166 4.27211 14.5761C3.19047 13.8029 2.82313 13.584 2.82313 13.584L0.918365 13.6866C2.06122 15.0619 4.05442 17.3883 4.05442 17.3883H4.06122Z" fill="#F9A346"/>
</g>
<path d="M2.54422 13.5977C2.14286 13.6182 1.17687 13.6798 0.918365 13.6866C1.16326 13.9877 1.59864 14.5008 1.59864 14.5008C1.38775 14.0835 0.993195 13.7413 2.54422 13.5977Z" fill="#FFE346"/>
<path d="M4.59183 14.8087L6.63264 16.3551H12.0068L6.36734 16.5261L4.59183 14.8087Z" fill="#FFE346"/>
<g style="mix-blend-mode:multiply" opacity="0.35">
<path d="M13.8776 13.5019L13.0272 16.3551H12.5918L13.3673 13.5019L12.1973 11.7639L13.7687 13.3924L13.8776 13.5019Z" fill="#7A1C0B"/>
</g>
<g style="mix-blend-mode:screen" opacity="0.5">
<path d="M16.5238 8.17859L14.2993 8.34281C14.6463 9.51968 16.5034 12.3524 17.9728 13.7345C18.6939 13.7345 21.068 13.7482 21.068 13.7482C19.9728 12.6466 17.7211 10.7855 16.5238 8.17175V8.17859Z" fill="#F9A346"/>
</g>
</g>
<g clip-path="url(#clip1_1753_17700)">
<path d="M593.898 15.1304L590.258 21.2816C589.102 21.7195 578.578 22.3832 576.68 21.6853C575.735 20.3305 573.932 15.5067 573.932 13.7551C575.027 12.6534 577.279 10.7923 578.476 8.17859C577.925 7.02225 577.177 5.818 576.83 5.01746C575.83 5.12009 573.932 6.1738 573.932 6.1738L574.483 7.07698L574.68 6.37223L575.347 6.13275L576.415 6.67329C576.415 6.67329 577.122 8.40439 577 8.76019L574.592 10.156C574.116 10.0739 573.803 10.026 573.327 9.9439C572.558 8.4865 571.599 6.56381 570.993 5.26378C571.782 4.3127 575.633 1.63052 577.524 2.04106C579.32 2.95793 582.714 6.82382 584.415 9.98496C583.218 11.3876 581.122 13.5019 581.122 13.5019L581.973 16.3551H588.374C591.442 13.9808 592.177 13.584 592.177 13.584L594.088 13.6866C594.088 13.6866 594.476 14.5351 595.007 15.7119C594.463 15.4246 593.905 15.1372 593.905 15.1372L593.898 15.1304Z" fill="url(#paint12_linear_1753_17700)"/>
<path d="M579.333 19.181C578.891 18.7978 578.272 17.9015 578.061 17.3883C578.503 18.7568 579.122 19.5299 579.122 19.5299C579.122 19.5299 581.578 19.8857 585.871 19.4957C583.925 19.5299 581.456 19.5436 579.333 19.181Z" fill="#FFE346"/>
<path d="M573.66 8.60284L575.707 7.62439L575.354 6.12593L576.422 6.66647C576.422 6.66647 577.129 8.39757 577.007 8.75337L574.599 10.1492C574.122 10.0671 573.809 10.0192 573.333 9.93708C572.36 8.11703 571.585 6.56383 571 5.25696L572.014 5.73592L573.66 8.59599V8.60284Z" fill="url(#paint13_linear_1753_17700)"/>
<g style="mix-blend-mode:multiply" opacity="0.15">
<path d="M581.122 13.5018L581.973 16.3551C581.973 16.3551 580.15 17.7577 579.129 19.5299C578.354 18.7499 577.034 15.6024 577.034 13.7413C577.639 13.7071 581.129 13.5087 581.129 13.5087L581.122 13.5018Z" fill="#7A1C0B"/>
</g>
<path d="M579.122 19.5299C582.381 19.7625 587.211 19.4273 589.306 19.2973C594 15.6845 590.252 21.2884 590.252 21.2884C588.898 21.651 578.571 22.39 576.673 21.6921C575.728 20.3373 573.925 15.5135 573.925 13.7619L577.02 13.7482C577.122 15.4587 578.32 18.2025 579.116 19.5367L579.122 19.5299Z" fill="url(#paint14_linear_1753_17700)"/>
<path d="M589.306 19.2904L590.252 21.2815C589.02 21.7468 578.932 22.3694 576.775 21.7194L576.673 21.6852L579.122 19.523C582.381 19.7557 587.211 19.4204 589.306 19.2904Z" fill="url(#paint15_linear_1753_17700)"/>
<path opacity="0.5" d="M577.027 13.7346C578.524 12.3319 580.422 9.41707 580.721 8.28125L584.415 9.99182C583.218 11.3945 581.122 13.5088 581.122 13.5088L577.027 13.7414V13.7346Z" fill="url(#paint16_linear_1753_17700)"/>
<path d="M573.932 6.16694L573.265 5.33218C573.265 5.33218 575.292 4.12794 577.027 3.59424C577.925 4.19636 579.755 6.87169 580.721 8.2812L578.476 8.17857C577.925 7.02222 577.177 5.81798 576.83 5.01743C575.83 5.12007 573.932 6.17378 573.932 6.17378V6.16694Z" fill="url(#paint17_linear_1753_17700)"/>
<path d="M577.007 8.76021L575.707 7.62439L573.66 8.60284L573.333 9.94392L574.592 10.156L577.007 8.76021Z" fill="url(#paint18_linear_1753_17700)"/>
<path d="M573.265 5.33218C573.265 5.33218 575.292 4.12794 577.027 3.59424L576.83 5.01743C575.83 5.12007 573.932 6.17378 573.932 6.17378L573.265 5.33902V5.33218Z" fill="url(#paint19_linear_1753_17700)"/>
<g style="mix-blend-mode:screen" opacity="0.5">
<path d="M571.088 5.16797C571.884 4.30584 574.578 2.41737 576.51 2.06157C576.517 2.06157 576.531 2.06157 576.537 2.06157C576.565 2.06157 576.592 2.05473 576.619 2.04789C577.014 2.01368 577.959 2.52001 577.034 3.60109C576.102 3.93636 573.673 4.99007 573.272 5.33903C572.755 5.45535 572.156 5.64009 571.095 5.17481L571.088 5.16797Z" fill="#F9A346"/>
</g>
<path d="M574.639 3.01261C574.68 3.1084 574.993 3.06051 575.347 2.91682C575.701 2.76629 575.952 2.57471 575.912 2.47891C575.871 2.38312 575.558 2.43102 575.204 2.57471C574.85 2.72524 574.599 2.91682 574.639 3.01261Z" fill="url(#paint20_linear_1753_17700)"/>
<path d="M578.912 11.5039C579.687 10.3134 580.265 9.17754 580.565 8.2812C579.932 7.28907 578.435 5.06533 578.075 4.64795C579.49 5.92061 580.592 7.81593 580.891 8.35647C580.639 9.08175 579.503 10.8744 578.912 11.4971V11.5039Z" fill="#FFE346"/>
<g style="mix-blend-mode:multiply" opacity="0.35">
<path d="M594.306 15.3152L593.306 18.3873L592.728 21.0421L590.98 20.05L592.15 16.1978L593.905 15.0894L594.306 15.3152Z" fill="#7A1C0B"/>
</g>
<path style="mix-blend-mode:multiply" opacity="0.35" d="M592.17 13.584L594.082 13.6866C594.082 13.6866 590.197 18.2573 589.306 19.2973C589.463 17.0188 588.367 16.362 588.367 16.362C591.286 14.1519 592.17 13.5908 592.17 13.5908V13.584Z" fill="url(#paint21_linear_1753_17700)"/>
<path d="M594.082 13.6866L595 15.712L593.898 15.1372L590.259 21.2884L589.313 19.2973C592.83 15.1988 594.082 13.6866 594.082 13.6866Z" fill="url(#paint22_linear_1753_17700)"/>
<g style="mix-blend-mode:screen" opacity="0.5">
<path d="M590.939 17.3883C591.891 16.0062 591.599 13.8166 590.728 14.5761C591.809 13.8029 592.177 13.584 592.177 13.584L594.082 13.6866C592.939 15.0619 590.946 17.3883 590.946 17.3883H590.939Z" fill="#F9A346"/>
</g>
<path d="M592.456 13.5977C592.857 13.6182 593.823 13.6798 594.082 13.6866C593.837 13.9877 593.401 14.5008 593.401 14.5008C593.612 14.0835 594.007 13.7413 592.456 13.5977Z" fill="#FFE346"/>
<path d="M590.408 14.8087L588.367 16.3551H582.993L588.633 16.5261L590.408 14.8087Z" fill="#FFE346"/>
<g style="mix-blend-mode:multiply" opacity="0.35">
<path d="M581.122 13.5019L581.973 16.3551H582.408L581.633 13.5019L582.803 11.7639L581.231 13.3924L581.122 13.5019Z" fill="#7A1C0B"/>
</g>
<g style="mix-blend-mode:screen" opacity="0.5">
<path d="M578.476 8.17859L580.701 8.34281C580.354 9.51968 578.497 12.3524 577.027 13.7345C576.306 13.7345 573.932 13.7482 573.932 13.7482C575.027 12.6466 577.279 10.7855 578.476 8.17175V8.17859Z" fill="#F9A346"/>
</g>
</g>
<g clip-path="url(#clip2_1753_17700)">
<g style="mix-blend-mode:multiply" opacity="0.35">
<path d="M308.25 18.59L305.32 23.72L297.77 24.2L292.01 19.5L308.25 18.59Z" fill="#7A1C0B"/>
</g>
<path d="M284 12.95C291.44 17.95 295.08 20.66 300.98 25.9C305.42 21.91 313.84 15.73 318.3 12.95C313.83 10.17 305.42 3.99 300.98 0C295.08 5.24 291.44 7.96 284 12.95Z" fill="url(#paint23_linear_1753_17700)"/>
<path d="M298.77 15.55L288.62 12.96H284C291.44 17.96 295.08 20.67 300.98 25.91V22.46L298.78 15.55H298.77Z" fill="url(#paint24_linear_1753_17700)"/>
<path d="M318.3 12.95H313.58C307.1 16.12 300.99 22.46 300.99 22.46V25.91C305.42 21.92 313.83 15.74 318.3 12.96V12.95Z" fill="url(#paint25_linear_1753_17700)"/>
<g style="mix-blend-mode:screen" opacity="0.5">
<path d="M301.44 0.410034C300.69 0.600034 300.5 2.53003 300.99 3.45003C305.81 8.18003 313.58 12.96 313.58 12.96H318.3C313.98 10.27 305.98 4.41003 301.44 0.410034Z" fill="#F9A346"/>
</g>
<path d="M300.99 22.4599C296.69 18.7199 293.42 16.2499 288.63 12.9499C293.43 9.65994 296.69 7.17994 300.99 3.43994C304.62 6.48994 309.62 10.2299 313.58 12.9499C309.62 15.6699 304.62 19.3999 300.99 22.4599Z" fill="url(#paint26_linear_1753_17700)"/>
<g style="mix-blend-mode:screen">
<path d="M288.63 12.95H291.98L301.09 19.54C301.09 19.54 301.01 21.8 300.99 22.46C294.54 16.9 288.63 12.95 288.63 12.95Z" fill="#F9A346"/>
</g>
<path d="M300.99 3.44995L301.01 5.87995L304.5 10.27L310.34 12.95H313.58L300.99 3.44995Z" fill="url(#paint27_linear_1753_17700)"/>
<path d="M297.6 10.13L301.01 5.87995L300.99 3.44995C296.69 7.18995 293.42 9.65995 288.63 12.96H291.69L297.61 10.13H297.6Z" fill="url(#paint28_linear_1753_17700)"/>
<path d="M310.34 12.95L301.01 20.03L291.68 12.95L301.01 5.88L310.34 12.95Z" fill="url(#paint29_radial_1753_17700)"/>
<g style="mix-blend-mode:multiply" opacity="0.3">
<path d="M301.01 20.03L291.68 12.95L297.96 12.72C297.96 12.72 302.62 12.67 305.41 12.72C308.75 12.78 310.33 12.95 310.33 12.95L301 20.03H301.01Z" fill="#215870"/>
</g>
<path d="M305.42 12.72C303.94 13.76 302.73 14.67 301.69 15.55C300.65 14.68 299.44 13.76 297.96 12.72C299.44 11.68 300.65 10.76 301.69 9.89001C302.73 10.76 303.94 11.68 305.42 12.72Z" fill="url(#paint30_radial_1753_17700)"/>
<g style="mix-blend-mode:multiply" opacity="0.5">
<path d="M291.68 12.95L297.96 12.72L301.69 15.55L301.01 20.03L291.68 12.95Z" fill="#215B70"/>
</g>
<g style="mix-blend-mode:screen">
<path d="M301.01 5.88L301.69 9.9L305.42 12.72L310.34 12.95L301.01 5.88Z" fill="url(#paint31_linear_1753_17700)"/>
</g>
<path d="M301.69 9.90002L305.68 12.08L310.34 12.95L305.42 12.72L301.69 9.90002Z" fill="#DCFFF2"/>
<g style="mix-blend-mode:screen">
<path d="M302.59 4.65002L308.07 8.10002L311.55 11.42L302.59 4.65002Z" fill="#F9A346"/>
</g>
<g style="mix-blend-mode:screen">
<path d="M294.45 17.12L299.53 20.62L300.99 22.46L294.45 17.12Z" fill="#F9A346"/>
</g>
<path d="M303.69 3.37002C303.56 3.52002 302.98 3.25002 302.39 2.75002C301.81 2.26002 301.44 1.73002 301.57 1.57002C301.7 1.42002 302.28 1.69002 302.87 2.19002C303.45 2.68002 303.82 3.21002 303.69 3.37002Z" fill="url(#paint32_linear_1753_17700)"/>
<g style="mix-blend-mode:multiply" opacity="0.2">
<path d="M291.98 7.38C289.53 9.15 292.57 9.84 296.26 7.38C293.34 9.61 288.63 12.95 288.63 12.95H284L291.98 7.38Z" fill="#BC4408"/>
</g>
</g>
<defs>
<radialGradient id="paint0_angular_1753_17700" cx="0" cy="0" r="1" gradientUnits="userSpaceOnUse" gradientTransform="translate(298 13) rotate(90) scale(6 283)">
<stop offset="0.168023" stop-color="#EF6608"/>
<stop offset="0.509" stop-color="#F8BD25"/>
<stop offset="0.941528" stop-color="#AF3006"/>
</radialGradient>
<linearGradient id="paint1_linear_1753_17700" x1="12" y1="25.4827" x2="12" y2="13.0161" gradientUnits="userSpaceOnUse">
<stop stop-color="#ED480B"/>
<stop offset="0.99" stop-color="#F2B100"/>
</linearGradient>
<linearGradient id="paint2_linear_1753_17700" x1="20.8231" y1="10.0055" x2="21.0021" y2="6.84448" gradientUnits="userSpaceOnUse">
<stop stop-color="#A32100"/>
<stop offset="1" stop-color="#D36C05"/>
</linearGradient>
<linearGradient id="paint3_linear_1753_17700" x1="12.0068" y1="22.301" x2="12.2339" y2="15.0278" gradientUnits="userSpaceOnUse">
<stop stop-color="#A32100"/>
<stop offset="1" stop-color="#D36C05"/>
</linearGradient>
<linearGradient id="paint4_linear_1753_17700" x1="1.25169" y1="20.6452" x2="14.8299" y2="20.6452" gradientUnits="userSpaceOnUse">
<stop offset="0.06" stop-color="#BC4408"/>
<stop offset="1" stop-color="#7A1C0B"/>
</linearGradient>
<linearGradient id="paint5_linear_1753_17700" x1="15.4762" y1="13.9809" x2="13.3694" y2="10.2965" gradientUnits="userSpaceOnUse">
<stop stop-color="#A32100"/>
<stop offset="1" stop-color="#D36C05"/>
</linearGradient>
<linearGradient id="paint6_linear_1753_17700" x1="18.966" y1="5.22954" x2="17.3332" y2="7.88276" gradientUnits="userSpaceOnUse">
<stop stop-color="#A32100"/>
<stop offset="1" stop-color="#D36C05"/>
</linearGradient>
<linearGradient id="paint7_linear_1753_17700" x1="19.0544" y1="8.19914" x2="21.4253" y2="10.0401" gradientUnits="userSpaceOnUse">
<stop stop-color="#7A1C0B"/>
<stop offset="0.94" stop-color="#BC4408"/>
</linearGradient>
<linearGradient id="paint8_linear_1753_17700" x1="19.8503" y1="6.19431" x2="19.8503" y2="4.70269" gradientUnits="userSpaceOnUse">
<stop stop-color="#7A1C0B"/>
<stop offset="0.94" stop-color="#BC4408"/>
</linearGradient>
<linearGradient id="paint9_linear_1753_17700" x1="19.1044" y1="2.79273" x2="20.3384" y2="2.69101" gradientUnits="userSpaceOnUse">
<stop stop-color="white"/>
<stop offset="1" stop-color="#FFF7C4"/>
</linearGradient>
<linearGradient id="paint10_linear_1753_17700" x1="6.02041" y1="17.7099" x2="3.45068" y2="15.6171" gradientUnits="userSpaceOnUse">
<stop stop-color="#A32100"/>
<stop offset="1" stop-color="white"/>
</linearGradient>
<linearGradient id="paint11_linear_1753_17700" x1="0" y1="17.4841" x2="5.69388" y2="17.4841" gradientUnits="userSpaceOnUse">
<stop stop-color="#D36C05"/>
<stop offset="1" stop-color="#A32100"/>
</linearGradient>
<linearGradient id="paint12_linear_1753_17700" x1="583" y1="25.4827" x2="583" y2="13.0161" gradientUnits="userSpaceOnUse">
<stop stop-color="#ED480B"/>
<stop offset="0.99" stop-color="#F2B100"/>
</linearGradient>
<linearGradient id="paint13_linear_1753_17700" x1="574.177" y1="10.0055" x2="573.998" y2="6.84448" gradientUnits="userSpaceOnUse">
<stop stop-color="#A32100"/>
<stop offset="1" stop-color="#D36C05"/>
</linearGradient>
<linearGradient id="paint14_linear_1753_17700" x1="582.993" y1="22.301" x2="582.766" y2="15.0278" gradientUnits="userSpaceOnUse">
<stop stop-color="#A32100"/>
<stop offset="1" stop-color="#D36C05"/>
</linearGradient>
<linearGradient id="paint15_linear_1753_17700" x1="593.748" y1="20.6452" x2="580.17" y2="20.6452" gradientUnits="userSpaceOnUse">
<stop offset="0.06" stop-color="#BC4408"/>
<stop offset="1" stop-color="#7A1C0B"/>
</linearGradient>
<linearGradient id="paint16_linear_1753_17700" x1="579.524" y1="13.9809" x2="581.631" y2="10.2965" gradientUnits="userSpaceOnUse">
<stop stop-color="#A32100"/>
<stop offset="1" stop-color="#D36C05"/>
</linearGradient>
<linearGradient id="paint17_linear_1753_17700" x1="576.034" y1="5.22954" x2="577.667" y2="7.88276" gradientUnits="userSpaceOnUse">
<stop stop-color="#A32100"/>
<stop offset="1" stop-color="#D36C05"/>
</linearGradient>
<linearGradient id="paint18_linear_1753_17700" x1="575.946" y1="8.19914" x2="573.575" y2="10.0401" gradientUnits="userSpaceOnUse">
<stop stop-color="#7A1C0B"/>
<stop offset="0.94" stop-color="#BC4408"/>
</linearGradient>
<linearGradient id="paint19_linear_1753_17700" x1="575.15" y1="6.19431" x2="575.15" y2="4.70269" gradientUnits="userSpaceOnUse">
<stop stop-color="#7A1C0B"/>
<stop offset="0.94" stop-color="#BC4408"/>
</linearGradient>
<linearGradient id="paint20_linear_1753_17700" x1="575.896" y1="2.79273" x2="574.662" y2="2.69101" gradientUnits="userSpaceOnUse">
<stop stop-color="white"/>
<stop offset="1" stop-color="#FFF7C4"/>
</linearGradient>
<linearGradient id="paint21_linear_1753_17700" x1="588.98" y1="17.7099" x2="591.549" y2="15.6171" gradientUnits="userSpaceOnUse">
<stop stop-color="#A32100"/>
<stop offset="1" stop-color="white"/>
</linearGradient>
<linearGradient id="paint22_linear_1753_17700" x1="595" y1="17.4841" x2="589.306" y2="17.4841" gradientUnits="userSpaceOnUse">
<stop stop-color="#D36C05"/>
<stop offset="1" stop-color="#A32100"/>
</linearGradient>
<linearGradient id="paint23_linear_1753_17700" x1="301.15" y1="25.49" x2="301.15" y2="7.94" gradientUnits="userSpaceOnUse">
<stop stop-color="#ED480B"/>
<stop offset="0.99" stop-color="#F2B100"/>
</linearGradient>
<linearGradient id="paint24_linear_1753_17700" x1="290.42" y1="9.70996" x2="294.33" y2="24.78" gradientUnits="userSpaceOnUse">
<stop stop-color="#A32100"/>
<stop offset="1" stop-color="#D36C05"/>
</linearGradient>
<linearGradient id="paint25_linear_1753_17700" x1="302.21" y1="22.64" x2="312.09" y2="16.08" gradientUnits="userSpaceOnUse">
<stop stop-color="#7A1C0B"/>
<stop offset="0.94" stop-color="#BC4408"/>
</linearGradient>
<linearGradient id="paint26_linear_1753_17700" x1="301.1" y1="3.95994" x2="301.1" y2="15.9999" gradientUnits="userSpaceOnUse">
<stop stop-color="#ED480B"/>
<stop offset="0.99" stop-color="#F2B100"/>
</linearGradient>
<linearGradient id="paint27_linear_1753_17700" x1="300.99" y1="8.19995" x2="313.58" y2="8.19995" gradientUnits="userSpaceOnUse">
<stop stop-color="#7A1C0B"/>
<stop offset="0.94" stop-color="#BC4408"/>
</linearGradient>
<linearGradient id="paint28_linear_1753_17700" x1="300.56" y1="5.98995" x2="293.14" y2="10.68" gradientUnits="userSpaceOnUse">
<stop stop-color="#A32100"/>
<stop offset="1" stop-color="#D36C05"/>
</linearGradient>
<radialGradient id="paint29_radial_1753_17700" cx="0" cy="0" r="1" gradientUnits="userSpaceOnUse" gradientTransform="translate(303.575 9.84) scale(11.5192 9.52)">
<stop stop-color="#33FFA7"/>
<stop offset="1" stop-color="#00CED1"/>
</radialGradient>
<radialGradient id="paint30_radial_1753_17700" cx="0" cy="0" r="1" gradientUnits="userSpaceOnUse" gradientTransform="translate(297.936 14.61) scale(5.8564 4.84)">
<stop stop-color="#33FFA7"/>
<stop offset="1" stop-color="#00CED1"/>
</radialGradient>
<linearGradient id="paint31_linear_1753_17700" x1="301.01" y1="9.41" x2="310.34" y2="9.41" gradientUnits="userSpaceOnUse">
<stop stop-color="#400900"/>
<stop offset="1" stop-color="#ABFBD3"/>
</linearGradient>
<linearGradient id="paint32_linear_1753_17700" x1="302.18" y1="2.0685" x2="304.297" y2="3.8591" gradientUnits="userSpaceOnUse">
<stop stop-color="white"/>
<stop offset="1" stop-color="#FFF7C4"/>
</linearGradient>
<clipPath id="clip0_1753_17700">
<rect width="24" height="20" fill="white" transform="translate(0 2)"/>
</clipPath>
<clipPath id="clip1_1753_17700">
<rect width="24" height="20" fill="white" transform="matrix(-1 0 0 1 595 2)"/>
</clipPath>
<clipPath id="clip2_1753_17700">
<rect width="34.3" height="25.91" fill="white" transform="translate(284)"/>
</clipPath>
</defs>
</svg>
