<svg width="372" height="24" viewBox="0 0 372 24" fill="none" xmlns="http://www.w3.org/2000/svg">
<rect x="10" y="6.67517" width="352" height="11.4432" rx="3" fill="url(#paint0_angular_1859_23395)"/>
<g clip-path="url(#clip0_1859_23395)">
<path d="M0.741132 14.4282L3.1865 20.294C3.96354 20.7116 11.0345 21.3445 12.3098 20.679C12.9451 19.3871 14.1564 14.7871 14.1564 13.1167C13.4205 12.0662 11.9076 10.2915 11.1031 7.79901C11.4733 6.69632 11.9761 5.54795 12.2092 4.78455C12.8811 4.88242 14.1564 5.88724 14.1564 5.88724L13.7862 6.74852L13.6536 6.07646L13.2057 5.84809L12.4881 6.36355C12.4881 6.36355 12.0127 8.01433 12.095 8.35362L13.713 9.68468C14.033 9.60638 14.2432 9.56071 14.5632 9.48241C15.0797 8.09263 15.7242 6.25916 16.131 5.01944C15.6008 4.11249 13.0137 1.55477 11.743 1.94626C10.5363 2.82058 8.25551 6.5071 7.11281 9.52156C7.91727 10.8591 9.32507 12.8753 9.32507 12.8753L8.75372 15.5961H4.45261C2.39119 13.332 1.89754 12.9536 1.89754 12.9536L0.61315 13.0515C0.61315 13.0515 0.352615 13.8606 -0.00390625 14.9828C0.361757 14.7088 0.736561 14.4347 0.736561 14.4347L0.741132 14.4282Z" fill="url(#paint1_linear_1859_23395)"/>
<path d="M10.5273 18.291C10.8244 17.9256 11.2403 17.0708 11.382 16.5815C11.0849 17.8864 10.669 18.6237 10.669 18.6237C10.669 18.6237 9.01893 18.963 6.13477 18.5911C7.44201 18.6237 9.10121 18.6368 10.5273 18.291Z" fill="#FFE346"/>
<path d="M14.3385 8.20363L12.9627 7.27058L13.2003 5.84165L12.4827 6.35711C12.4827 6.35711 12.0074 8.00788 12.0896 8.34717L13.7077 9.67823C14.0277 9.59994 14.2379 9.55426 14.5579 9.47597C15.2115 7.74037 15.7326 6.25924 16.1256 5.013L15.4446 5.46974L14.3385 8.1971V8.20363Z" fill="url(#paint2_linear_1859_23395)"/>
<g style="mix-blend-mode:multiply" opacity="0.15">
<path d="M9.32428 12.8754L8.75293 15.5962C8.75293 15.5962 9.9779 16.9338 10.6635 18.6237C11.1846 17.8799 12.0713 14.8785 12.0713 13.1037C11.6645 13.0711 9.31971 12.8819 9.31971 12.8819L9.32428 12.8754Z" fill="#7A1C0B"/>
</g>
<path d="M10.6685 18.6237C8.4791 18.8456 5.23385 18.5259 3.82604 18.4019C0.6722 14.9568 3.1907 20.3006 3.1907 20.3006C4.10029 20.6464 11.0387 21.3511 12.314 20.6856C12.9493 19.3937 14.1606 14.7937 14.1606 13.1233L12.0809 13.1103C12.0123 14.7415 11.2079 17.3579 10.6731 18.6303L10.6685 18.6237Z" fill="url(#paint3_linear_1859_23395)"/>
<path d="M3.82577 18.3953L3.19043 20.294C4.01774 20.7377 10.7962 21.3315 12.2452 20.7116L12.3137 20.679L10.6682 18.6172C8.47883 18.839 5.23357 18.5193 3.82577 18.3953Z" fill="url(#paint4_linear_1859_23395)"/>
<path opacity="0.5" d="M12.0762 13.0972C11.0706 11.7597 9.79536 8.98009 9.59424 7.89697L7.1123 9.52817C7.91676 10.8658 9.32457 12.8819 9.32457 12.8819L12.0762 13.1038V13.0972Z" fill="url(#paint5_linear_1859_23395)"/>
<path d="M14.1564 5.88076L14.6043 5.08473C14.6043 5.08473 13.2422 3.93636 12.0767 3.42743C11.4733 4.00161 10.2438 6.55281 9.59473 7.89692L11.1031 7.79905C11.4733 6.69636 11.9761 5.54799 12.2092 4.78459C12.8811 4.88246 14.1564 5.88728 14.1564 5.88728V5.88076Z" fill="url(#paint6_linear_1859_23395)"/>
<path d="M12.0898 8.35369L12.9629 7.27057L14.3387 8.20362L14.5581 9.48248L13.7125 9.68475L12.0898 8.35369Z" fill="url(#paint7_linear_1859_23395)"/>
<path d="M14.6038 5.08473C14.6038 5.08473 13.2417 3.93636 12.0762 3.42743L12.2087 4.78459C12.8806 4.88246 14.1559 5.88728 14.1559 5.88728L14.6038 5.09125V5.08473Z" fill="url(#paint8_linear_1859_23395)"/>
<g style="mix-blend-mode:screen" opacity="0.5">
<path d="M16.0667 4.92815C15.5319 4.10603 13.7219 2.30518 12.4238 1.96589C12.4192 1.96589 12.4101 1.96589 12.4055 1.96589C12.3872 1.96589 12.3689 1.95937 12.3506 1.95284C12.0855 1.92022 11.4502 2.40305 12.0718 3.43397C12.698 3.75369 14.3298 4.75851 14.5995 5.09127C14.9468 5.20219 15.3491 5.37836 16.0621 4.93468L16.0667 4.92815Z" fill="#F9A346"/>
</g>
<path d="M13.6809 2.87287C13.6535 2.96421 13.4432 2.91854 13.2055 2.78152C12.9679 2.63797 12.7987 2.45528 12.8262 2.36393C12.8536 2.27258 13.0638 2.31826 13.3015 2.45528C13.5392 2.59882 13.7083 2.78152 13.6809 2.87287Z" fill="url(#paint9_linear_1859_23395)"/>
<path d="M10.8106 10.9701C10.2895 9.83479 9.90098 8.75167 9.69987 7.89692C10.1249 6.95083 11.1305 4.83026 11.3728 4.43225C10.4221 5.64586 9.68158 7.45324 9.48047 7.96869C9.64959 8.66032 10.4129 10.3698 10.8106 10.9636V10.9701Z" fill="#FFE346"/>
<g style="mix-blend-mode:multiply" opacity="0.35">
<path d="M0.466797 14.6044L1.1387 17.5341L1.52722 20.0657L2.70191 19.1196L1.91574 15.4461L0.736473 14.3891L0.466797 14.6044Z" fill="#7A1C0B"/>
</g>
<path style="mix-blend-mode:multiply" opacity="0.35" d="M1.90158 12.9537L0.617188 13.0515C0.617188 13.0515 3.22711 17.4101 3.82588 18.4019C3.72075 16.2291 4.45665 15.6027 4.45665 15.6027C2.49578 13.4952 1.90158 12.9602 1.90158 12.9602V12.9537Z" fill="url(#paint10_linear_1859_23395)"/>
<path d="M0.617056 13.0515L0 14.9829L0.740467 14.4348L3.18584 20.3006L3.82118 18.4019C1.45808 14.4935 0.617056 13.0515 0.617056 13.0515Z" fill="url(#paint11_linear_1859_23395)"/>
<g style="mix-blend-mode:screen" opacity="0.5">
<path d="M2.72889 16.5815C2.08898 15.2635 2.28552 13.1755 2.87059 13.8998C2.14383 13.1625 1.89701 12.9537 1.89701 12.9537L0.617188 13.0515C1.38508 14.363 2.72432 16.5815 2.72432 16.5815H2.72889Z" fill="#F9A346"/>
</g>
<path d="M1.70961 12.9667C1.43993 12.9863 0.790877 13.045 0.617188 13.0516C0.781736 13.3386 1.07427 13.828 1.07427 13.828C0.932572 13.43 0.667466 13.1038 1.70961 12.9667Z" fill="#FFE346"/>
<path d="M3.08594 14.1216L4.45717 15.5962H8.06809L4.27891 15.7593L3.08594 14.1216Z" fill="#FFE346"/>
<g style="mix-blend-mode:multiply" opacity="0.35">
<path d="M9.3243 12.8754L8.75295 15.5962H8.46042L8.98149 12.8754L8.19531 11.2181L9.25116 12.771L9.3243 12.8754Z" fill="#7A1C0B"/>
</g>
<g style="mix-blend-mode:screen" opacity="0.5">
<path d="M11.103 7.79907L9.6084 7.95566C9.84151 9.07793 11.0893 11.7792 12.0766 13.0972C12.5611 13.0972 14.1563 13.1103 14.1563 13.1103C13.4204 12.0598 11.9075 10.285 11.103 7.79254V7.79907Z" fill="#F9A346"/>
</g>
</g>
<g clip-path="url(#clip1_1859_23395)">
<path d="M371.259 14.4282L368.813 20.294C368.036 20.7116 360.965 21.3445 359.69 20.679C359.055 19.3871 357.844 14.7871 357.844 13.1167C358.58 12.0662 360.092 10.2915 360.897 7.79901C360.527 6.69632 360.024 5.54795 359.791 4.78455C359.119 4.88242 357.844 5.88724 357.844 5.88724L358.214 6.74852L358.346 6.07646L358.794 5.84809L359.512 6.36355C359.512 6.36355 359.987 8.01433 359.905 8.35362L358.287 9.68468C357.967 9.60638 357.757 9.56071 357.437 9.48241C356.92 8.09263 356.276 6.25916 355.869 5.01944C356.399 4.11249 358.986 1.55477 360.257 1.94626C361.464 2.82058 363.744 6.5071 364.887 9.52156C364.083 10.8591 362.675 12.8753 362.675 12.8753L363.246 15.5961H367.547C369.609 13.332 370.102 12.9536 370.102 12.9536L371.387 13.0515C371.387 13.0515 371.647 13.8606 372.004 14.9828C371.638 14.7088 371.263 14.4347 371.263 14.4347L371.259 14.4282Z" fill="url(#paint12_linear_1859_23395)"/>
<path d="M361.473 18.291C361.176 17.9256 360.76 17.0708 360.618 16.5815C360.915 17.8864 361.331 18.6237 361.331 18.6237C361.331 18.6237 362.981 18.963 365.865 18.5911C364.558 18.6237 362.899 18.6368 361.473 18.291Z" fill="#FFE346"/>
<path d="M357.662 8.20363L359.037 7.27058L358.8 5.84165L359.517 6.35711C359.517 6.35711 359.993 8.00788 359.91 8.34717L358.292 9.67823C357.972 9.59994 357.762 9.55426 357.442 9.47597C356.789 7.74037 356.267 6.25924 355.874 5.013L356.555 5.46974L357.662 8.1971V8.20363Z" fill="url(#paint13_linear_1859_23395)"/>
<g style="mix-blend-mode:multiply" opacity="0.15">
<path d="M362.676 12.8754L363.247 15.5962C363.247 15.5962 362.022 16.9338 361.336 18.6237C360.815 17.8799 359.929 14.8785 359.929 13.1037C360.335 13.0711 362.68 12.8819 362.68 12.8819L362.676 12.8754Z" fill="#7A1C0B"/>
</g>
<path d="M361.331 18.6237C363.521 18.8456 366.766 18.5259 368.174 18.4019C371.328 14.9568 368.809 20.3006 368.809 20.3006C367.9 20.6464 360.961 21.3511 359.686 20.6856C359.051 19.3937 357.839 14.7937 357.839 13.1233L359.919 13.1103C359.988 14.7415 360.792 17.3579 361.327 18.6303L361.331 18.6237Z" fill="url(#paint14_linear_1859_23395)"/>
<path d="M368.174 18.3953L368.81 20.294C367.982 20.7377 361.204 21.3315 359.755 20.7116L359.686 20.679L361.332 18.6172C363.521 18.839 366.766 18.5193 368.174 18.3953Z" fill="url(#paint15_linear_1859_23395)"/>
<path opacity="0.5" d="M359.924 13.0972C360.929 11.7597 362.205 8.98009 362.406 7.89697L364.888 9.52817C364.083 10.8658 362.675 12.8819 362.675 12.8819L359.924 13.1038V13.0972Z" fill="url(#paint16_linear_1859_23395)"/>
<path d="M357.844 5.88076L357.396 5.08473C357.396 5.08473 358.758 3.93636 359.923 3.42743C360.527 4.00161 361.756 6.55281 362.405 7.89692L360.897 7.79905C360.527 6.69636 360.024 5.54799 359.791 4.78459C359.119 4.88246 357.844 5.88728 357.844 5.88728V5.88076Z" fill="url(#paint17_linear_1859_23395)"/>
<path d="M359.91 8.35369L359.037 7.27057L357.661 8.20362L357.442 9.48248L358.288 9.68475L359.91 8.35369Z" fill="url(#paint18_linear_1859_23395)"/>
<path d="M357.396 5.08473C357.396 5.08473 358.758 3.93636 359.924 3.42743L359.791 4.78459C359.119 4.88246 357.844 5.88728 357.844 5.88728L357.396 5.09125V5.08473Z" fill="url(#paint19_linear_1859_23395)"/>
<g style="mix-blend-mode:screen" opacity="0.5">
<path d="M355.933 4.92815C356.468 4.10603 358.278 2.30518 359.576 1.96589C359.581 1.96589 359.59 1.96589 359.595 1.96589C359.613 1.96589 359.631 1.95937 359.649 1.95284C359.914 1.92022 360.55 2.40305 359.928 3.43397C359.302 3.75369 357.67 4.75851 357.401 5.09127C357.053 5.20219 356.651 5.37836 355.938 4.93468L355.933 4.92815Z" fill="#F9A346"/>
</g>
<path d="M358.319 2.87287C358.347 2.96421 358.557 2.91854 358.794 2.78152C359.032 2.63797 359.201 2.45528 359.174 2.36393C359.146 2.27258 358.936 2.31826 358.698 2.45528C358.461 2.59882 358.292 2.78152 358.319 2.87287Z" fill="url(#paint20_linear_1859_23395)"/>
<path d="M361.189 10.9701C361.711 9.83479 362.099 8.75167 362.3 7.89692C361.875 6.95083 360.869 4.83026 360.627 4.43225C361.578 5.64586 362.318 7.45324 362.52 7.96869C362.35 8.66032 361.587 10.3698 361.189 10.9636V10.9701Z" fill="#FFE346"/>
<g style="mix-blend-mode:multiply" opacity="0.35">
<path d="M371.533 14.6044L370.861 17.5341L370.473 20.0657L369.298 19.1196L370.084 15.4461L371.264 14.3891L371.533 14.6044Z" fill="#7A1C0B"/>
</g>
<path style="mix-blend-mode:multiply" opacity="0.35" d="M370.098 12.9537L371.383 13.0515C371.383 13.0515 368.773 17.4101 368.174 18.4019C368.279 16.2291 367.543 15.6027 367.543 15.6027C369.504 13.4952 370.098 12.9602 370.098 12.9602V12.9537Z" fill="url(#paint21_linear_1859_23395)"/>
<path d="M371.383 13.0515L372 14.9829L371.26 14.4348L368.814 20.3006L368.179 18.4019C370.542 14.4935 371.383 13.0515 371.383 13.0515Z" fill="url(#paint22_linear_1859_23395)"/>
<g style="mix-blend-mode:screen" opacity="0.5">
<path d="M369.271 16.5815C369.911 15.2635 369.714 13.1755 369.129 13.8998C369.856 13.1625 370.103 12.9537 370.103 12.9537L371.383 13.0515C370.615 14.363 369.276 16.5815 369.276 16.5815H369.271Z" fill="#F9A346"/>
</g>
<path d="M370.29 12.9667C370.56 12.9863 371.209 13.045 371.383 13.0516C371.218 13.3386 370.926 13.828 370.926 13.828C371.067 13.43 371.333 13.1038 370.29 12.9667Z" fill="#FFE346"/>
<path d="M368.914 14.1216L367.543 15.5962H363.932L367.721 15.7593L368.914 14.1216Z" fill="#FFE346"/>
<g style="mix-blend-mode:multiply" opacity="0.35">
<path d="M362.676 12.8754L363.247 15.5962H363.54L363.019 12.8754L363.805 11.2181L362.749 12.771L362.676 12.8754Z" fill="#7A1C0B"/>
</g>
<g style="mix-blend-mode:screen" opacity="0.5">
<path d="M360.897 7.79907L362.392 7.95566C362.158 9.07793 360.911 11.7792 359.923 13.0972C359.439 13.0972 357.844 13.1103 357.844 13.1103C358.58 12.0598 360.092 10.285 360.897 7.79254V7.79907Z" fill="#F9A346"/>
</g>
</g>
<g clip-path="url(#clip2_1859_23395)">
<g style="mix-blend-mode:multiply" opacity="0.35">
<path d="M193.25 17.2196L190.32 21.9714L182.77 22.4161L177.01 18.0625L193.25 17.2196Z" fill="#7A1C0B"/>
</g>
<path d="M169 11.9954C176.44 16.6268 180.08 19.137 185.98 23.9907C190.42 20.2949 198.84 14.5704 203.3 11.9954C198.83 9.4203 190.42 3.69587 185.98 0C180.08 4.85372 176.44 7.37321 169 11.9954Z" fill="url(#paint23_linear_1859_23395)"/>
<path d="M183.77 14.4037L173.62 12.0046H169C176.44 16.6361 180.08 19.1463 185.98 24V20.8043L183.78 14.4037H183.77Z" fill="url(#paint24_linear_1859_23395)"/>
<path d="M203.3 11.9954H198.58C192.1 14.9317 185.99 20.8043 185.99 20.8043V24C190.42 20.3041 198.83 14.5797 203.3 12.0046V11.9954Z" fill="url(#paint25_linear_1859_23395)"/>
<g style="mix-blend-mode:screen" opacity="0.5">
<path d="M186.44 0.379761C185.69 0.555755 185.5 2.34348 185.99 3.19566C190.81 7.57698 198.58 12.0046 198.58 12.0046H203.3C198.98 9.51291 190.98 4.08489 186.44 0.379761Z" fill="#F9A346"/>
</g>
<path d="M185.99 20.8043C181.69 17.34 178.42 15.0521 173.63 11.9954C178.43 8.94788 181.69 6.6507 185.99 3.1864C189.62 6.01157 194.62 9.47587 198.58 11.9954C194.62 14.5148 189.62 17.9699 185.99 20.8043Z" fill="url(#paint26_linear_1859_23395)"/>
<g style="mix-blend-mode:screen">
<path d="M173.63 11.9954H176.98L186.09 18.0996C186.09 18.0996 186.01 20.193 185.99 20.8043C179.54 15.6542 173.63 11.9954 173.63 11.9954Z" fill="#F9A346"/>
</g>
<path d="M185.99 3.19568L186.01 5.44655L189.5 9.51293L195.34 11.9954H198.58L185.99 3.19568Z" fill="url(#paint27_linear_1859_23395)"/>
<path d="M182.6 9.38325L186.01 5.44655L185.99 3.19568C181.69 6.65998 178.42 8.9479 173.63 12.0046H176.69L182.61 9.38325H182.6Z" fill="url(#paint28_linear_1859_23395)"/>
<path d="M195.34 11.9954L186.01 18.5534L176.68 11.9954L186.01 5.44653L195.34 11.9954Z" fill="url(#paint29_radial_1859_23395)"/>
<g style="mix-blend-mode:multiply" opacity="0.3">
<path d="M186.01 18.5534L176.68 11.9953L182.96 11.7823C182.96 11.7823 187.62 11.736 190.41 11.7823C193.75 11.8379 195.33 11.9953 195.33 11.9953L186 18.5534H186.01Z" fill="#215870"/>
</g>
<path d="M190.42 11.7823C188.94 12.7457 187.73 13.5886 186.69 14.4037C185.65 13.5978 184.44 12.7457 182.96 11.7823C184.44 10.819 185.65 9.96682 186.69 9.16095C187.73 9.96682 188.94 10.819 190.42 11.7823Z" fill="url(#paint30_radial_1859_23395)"/>
<g style="mix-blend-mode:multiply" opacity="0.5">
<path d="M176.68 11.9953L182.96 11.7823L186.69 14.4037L186.01 18.5534L176.68 11.9953Z" fill="#215B70"/>
</g>
<g style="mix-blend-mode:screen">
<path d="M186.01 5.44653L186.69 9.17019L190.42 11.7823L195.34 11.9954L186.01 5.44653Z" fill="url(#paint31_linear_1859_23395)"/>
</g>
<path d="M186.689 9.17017L190.679 11.1895L195.339 11.9953L190.419 11.7823L186.689 9.17017Z" fill="#DCFFF2"/>
<g style="mix-blend-mode:screen">
<path d="M187.59 4.30719L193.07 7.50287L196.55 10.5781L187.59 4.30719Z" fill="#F9A346"/>
</g>
<g style="mix-blend-mode:screen">
<path d="M179.45 15.858L184.53 19.1L185.99 20.8043L179.45 15.858Z" fill="#F9A346"/>
</g>
<path d="M188.69 3.12155C188.56 3.26049 187.98 3.0104 187.39 2.54725C186.81 2.09338 186.44 1.60244 186.57 1.45424C186.7 1.3153 187.28 1.56539 187.87 2.02854C188.45 2.48241 188.82 2.97334 188.69 3.12155Z" fill="url(#paint32_linear_1859_23395)"/>
<g style="mix-blend-mode:multiply" opacity="0.2">
<path d="M176.98 6.836C174.53 8.47552 177.57 9.11466 181.26 6.836C178.34 8.90161 173.63 11.9954 173.63 11.9954H169L176.98 6.836Z" fill="#BC4408"/>
</g>
</g>
<defs>
<radialGradient id="paint0_angular_1859_23395" cx="0" cy="0" r="1" gradientUnits="userSpaceOnUse" gradientTransform="translate(186 12.3968) rotate(90) scale(5.7216 176)">
<stop offset="0.168023" stop-color="#EF6608"/>
<stop offset="0.509" stop-color="#F8BD25"/>
<stop offset="0.941528" stop-color="#AF3006"/>
</radialGradient>
<linearGradient id="paint1_linear_1859_23395" x1="8.06353" y1="24.3002" x2="8.06353" y2="12.412" gradientUnits="userSpaceOnUse">
<stop stop-color="#ED480B"/>
<stop offset="0.99" stop-color="#F2B100"/>
</linearGradient>
<linearGradient id="paint2_linear_1859_23395" x1="13.9911" y1="9.54121" x2="14.2325" y2="6.5366" gradientUnits="userSpaceOnUse">
<stop stop-color="#A32100"/>
<stop offset="1" stop-color="#D36C05"/>
</linearGradient>
<linearGradient id="paint3_linear_1859_23395" x1="8.06773" y1="21.2663" x2="8.37479" y2="14.3374" gradientUnits="userSpaceOnUse">
<stop stop-color="#A32100"/>
<stop offset="1" stop-color="#D36C05"/>
</linearGradient>
<linearGradient id="paint4_linear_1859_23395" x1="0.841045" y1="19.6872" x2="9.96434" y2="19.6872" gradientUnits="userSpaceOnUse">
<stop offset="0.06" stop-color="#BC4408"/>
<stop offset="1" stop-color="#7A1C0B"/>
</linearGradient>
<linearGradient id="paint5_linear_1859_23395" x1="10.3987" y1="13.3321" x2="8.11751" y2="10.5213" gradientUnits="userSpaceOnUse">
<stop stop-color="#A32100"/>
<stop offset="1" stop-color="#D36C05"/>
</linearGradient>
<linearGradient id="paint6_linear_1859_23395" x1="12.744" y1="4.98686" x2="11.0157" y2="6.96568" gradientUnits="userSpaceOnUse">
<stop stop-color="#A32100"/>
<stop offset="1" stop-color="#D36C05"/>
</linearGradient>
<linearGradient id="paint7_linear_1859_23395" x1="12.8029" y1="7.81865" x2="14.7681" y2="8.89382" gradientUnits="userSpaceOnUse">
<stop stop-color="#7A1C0B"/>
<stop offset="0.94" stop-color="#BC4408"/>
</linearGradient>
<linearGradient id="paint8_linear_1859_23395" x1="13.3377" y1="5.90685" x2="13.3377" y2="4.48445" gradientUnits="userSpaceOnUse">
<stop stop-color="#7A1C0B"/>
<stop offset="0.94" stop-color="#BC4408"/>
</linearGradient>
<linearGradient id="paint9_linear_1859_23395" x1="12.8369" y1="2.66319" x2="13.6688" y2="2.61486" gradientUnits="userSpaceOnUse">
<stop stop-color="white"/>
<stop offset="1" stop-color="#FFF7C4"/>
</linearGradient>
<linearGradient id="paint10_linear_1859_23395" x1="4.04528" y1="16.8881" x2="1.88486" y2="15.6484" gradientUnits="userSpaceOnUse">
<stop stop-color="#A32100"/>
<stop offset="1" stop-color="white"/>
</linearGradient>
<linearGradient id="paint11_linear_1859_23395" x1="0" y1="16.6728" x2="3.82575" y2="16.6728" gradientUnits="userSpaceOnUse">
<stop stop-color="#D36C05"/>
<stop offset="1" stop-color="#A32100"/>
</linearGradient>
<linearGradient id="paint12_linear_1859_23395" x1="363.936" y1="24.3002" x2="363.936" y2="12.412" gradientUnits="userSpaceOnUse">
<stop stop-color="#ED480B"/>
<stop offset="0.99" stop-color="#F2B100"/>
</linearGradient>
<linearGradient id="paint13_linear_1859_23395" x1="358.009" y1="9.54121" x2="357.768" y2="6.5366" gradientUnits="userSpaceOnUse">
<stop stop-color="#A32100"/>
<stop offset="1" stop-color="#D36C05"/>
</linearGradient>
<linearGradient id="paint14_linear_1859_23395" x1="363.932" y1="21.2663" x2="363.625" y2="14.3374" gradientUnits="userSpaceOnUse">
<stop stop-color="#A32100"/>
<stop offset="1" stop-color="#D36C05"/>
</linearGradient>
<linearGradient id="paint15_linear_1859_23395" x1="371.159" y1="19.6872" x2="362.036" y2="19.6872" gradientUnits="userSpaceOnUse">
<stop offset="0.06" stop-color="#BC4408"/>
<stop offset="1" stop-color="#7A1C0B"/>
</linearGradient>
<linearGradient id="paint16_linear_1859_23395" x1="361.601" y1="13.3321" x2="363.882" y2="10.5213" gradientUnits="userSpaceOnUse">
<stop stop-color="#A32100"/>
<stop offset="1" stop-color="#D36C05"/>
</linearGradient>
<linearGradient id="paint17_linear_1859_23395" x1="359.256" y1="4.98686" x2="360.984" y2="6.96568" gradientUnits="userSpaceOnUse">
<stop stop-color="#A32100"/>
<stop offset="1" stop-color="#D36C05"/>
</linearGradient>
<linearGradient id="paint18_linear_1859_23395" x1="359.197" y1="7.81865" x2="357.232" y2="8.89382" gradientUnits="userSpaceOnUse">
<stop stop-color="#7A1C0B"/>
<stop offset="0.94" stop-color="#BC4408"/>
</linearGradient>
<linearGradient id="paint19_linear_1859_23395" x1="358.662" y1="5.90685" x2="358.662" y2="4.48445" gradientUnits="userSpaceOnUse">
<stop stop-color="#7A1C0B"/>
<stop offset="0.94" stop-color="#BC4408"/>
</linearGradient>
<linearGradient id="paint20_linear_1859_23395" x1="359.163" y1="2.66319" x2="358.331" y2="2.61486" gradientUnits="userSpaceOnUse">
<stop stop-color="white"/>
<stop offset="1" stop-color="#FFF7C4"/>
</linearGradient>
<linearGradient id="paint21_linear_1859_23395" x1="367.955" y1="16.8881" x2="370.115" y2="15.6484" gradientUnits="userSpaceOnUse">
<stop stop-color="#A32100"/>
<stop offset="1" stop-color="white"/>
</linearGradient>
<linearGradient id="paint22_linear_1859_23395" x1="372" y1="16.6728" x2="368.174" y2="16.6728" gradientUnits="userSpaceOnUse">
<stop stop-color="#D36C05"/>
<stop offset="1" stop-color="#A32100"/>
</linearGradient>
<linearGradient id="paint23_linear_1859_23395" x1="186.15" y1="23.611" x2="186.15" y2="7.35469" gradientUnits="userSpaceOnUse">
<stop stop-color="#ED480B"/>
<stop offset="0.99" stop-color="#F2B100"/>
</linearGradient>
<linearGradient id="paint24_linear_1859_23395" x1="175.42" y1="8.99422" x2="178.805" y2="23.0795" gradientUnits="userSpaceOnUse">
<stop stop-color="#A32100"/>
<stop offset="1" stop-color="#D36C05"/>
</linearGradient>
<linearGradient id="paint25_linear_1859_23395" x1="187.21" y1="20.971" x2="196.614" y2="14.2303" gradientUnits="userSpaceOnUse">
<stop stop-color="#7A1C0B"/>
<stop offset="0.94" stop-color="#BC4408"/>
</linearGradient>
<linearGradient id="paint26_linear_1859_23395" x1="186.1" y1="3.66807" x2="186.1" y2="14.8205" gradientUnits="userSpaceOnUse">
<stop stop-color="#ED480B"/>
<stop offset="0.99" stop-color="#F2B100"/>
</linearGradient>
<linearGradient id="paint27_linear_1859_23395" x1="185.99" y1="7.59552" x2="198.58" y2="7.59552" gradientUnits="userSpaceOnUse">
<stop stop-color="#7A1C0B"/>
<stop offset="0.94" stop-color="#BC4408"/>
</linearGradient>
<linearGradient id="paint28_linear_1859_23395" x1="185.56" y1="5.54844" x2="178.475" y2="10.3833" gradientUnits="userSpaceOnUse">
<stop stop-color="#A32100"/>
<stop offset="1" stop-color="#D36C05"/>
</linearGradient>
<radialGradient id="paint29_radial_1859_23395" cx="0" cy="0" r="1" gradientUnits="userSpaceOnUse" gradientTransform="translate(188.574 9.11462) scale(11.5192 8.81822)">
<stop stop-color="#33FFA7"/>
<stop offset="1" stop-color="#00CED1"/>
</radialGradient>
<radialGradient id="paint30_radial_1859_23395" cx="0" cy="0" r="1" gradientUnits="userSpaceOnUse" gradientTransform="translate(182.936 13.533) scale(5.8564 4.48321)">
<stop stop-color="#33FFA7"/>
<stop offset="1" stop-color="#00CED1"/>
</radialGradient>
<linearGradient id="paint31_linear_1859_23395" x1="186.01" y1="8.71631" x2="195.34" y2="8.71631" gradientUnits="userSpaceOnUse">
<stop stop-color="#400900"/>
<stop offset="1" stop-color="#ABFBD3"/>
</linearGradient>
<linearGradient id="paint32_linear_1859_23395" x1="187.18" y1="1.91598" x2="189.16" y2="3.72429" gradientUnits="userSpaceOnUse">
<stop stop-color="white"/>
<stop offset="1" stop-color="#FFF7C4"/>
</linearGradient>
<clipPath id="clip0_1859_23395">
<rect width="16.1257" height="19.072" fill="white" transform="translate(0 1.90717)"/>
</clipPath>
<clipPath id="clip1_1859_23395">
<rect width="16.1257" height="19.072" fill="white" transform="matrix(-1 0 0 1 372 1.90717)"/>
</clipPath>
<clipPath id="clip2_1859_23395">
<rect width="34.3" height="24" fill="white" transform="translate(169)"/>
</clipPath>
</defs>
</svg>
