<svg width="110" height="119" viewBox="0 0 110 119" fill="none" xmlns="http://www.w3.org/2000/svg">
<g clip-path="url(#clip0_1765_46742)">
<path d="M54.9627 5.20618C25.538 5.20618 1.68182 29.2247 1.68182 58.8497C1.68182 88.4747 25.538 112.499 54.9627 112.499C84.3874 112.499 108.25 88.4809 108.25 58.8497C108.25 29.2185 84.3936 5.20618 54.9627 5.20618ZM54.9627 107.57C28.2413 107.57 6.57763 85.7593 6.57763 58.856C6.57763 31.9527 28.2413 10.1353 54.9627 10.1353C81.6841 10.1353 103.348 31.9464 103.348 58.856C103.348 85.7655 81.6841 107.57 54.9627 107.57Z" fill="url(#paint0_linear_1765_46742)"/>
<path d="M54.9999 3.84473C24.6222 3.84473 -6.10352e-05 28.6346 -6.10352e-05 59.2191C-6.10352e-05 89.8035 24.6222 114.593 54.9999 114.593C85.3776 114.593 110 89.8035 110 59.2191C110 28.6346 85.3714 3.84473 54.9999 3.84473ZM54.9999 111.489C41.1347 111.489 28.0979 106.052 18.2876 96.1813C8.48352 86.3105 3.08318 73.1787 3.08318 59.2191C3.08318 45.2595 8.48352 32.1339 18.2876 22.2569C28.0917 12.386 41.1285 6.94895 54.9999 6.94895C68.8714 6.94895 81.902 12.386 91.7123 22.2569C101.516 32.1277 106.917 45.2532 106.917 59.2191C106.917 73.185 101.516 86.3105 91.7123 96.1813C81.9082 106.052 68.8714 111.489 54.9999 111.489Z" fill="url(#paint1_linear_1765_46742)"/>
<path style="mix-blend-mode:multiply" opacity="0.5" d="M54.9999 113.077C30.1658 113.077 9.14374 96.7842 2.0741 74.3271C8.60184 97.5681 29.8295 114.594 54.9999 114.594C80.1703 114.594 101.392 97.5681 107.926 74.3271C100.856 96.7904 79.834 113.077 54.9999 113.077Z" fill="url(#paint2_linear_1765_46742)"/>
<path d="M92.7525 21.2097C82.6681 11.0566 69.2576 5.46277 55 5.46277C40.7423 5.46277 27.3318 11.0566 17.2474 21.2097C7.16305 31.3627 1.60699 44.8645 1.60699 59.2192C1.60699 73.5739 7.16305 87.0757 17.2412 97.2287C27.3256 107.382 40.7361 112.969 54.9937 112.969C69.2514 112.969 82.6619 107.375 92.7463 97.2287C102.831 87.0757 108.38 73.5801 108.38 59.2192C108.38 44.8582 102.824 31.3627 92.7463 21.2097H92.7525ZM91.7123 96.1814C81.9082 106.052 68.8714 111.489 55 111.489C41.1285 111.489 28.0979 106.052 18.2876 96.1814C8.48355 86.3106 3.08321 73.1788 3.08321 59.2192C3.08321 45.2596 8.48355 32.134 18.2876 22.2569C28.0917 12.3861 41.1285 6.94903 55 6.94903C68.8714 6.94903 81.902 12.3861 91.7123 22.2569C101.516 32.1277 106.917 45.2533 106.917 59.2192C106.917 73.185 101.516 86.3106 91.7123 96.1814Z" fill="url(#paint3_linear_1765_46742)"/>
<path style="mix-blend-mode:color-dodge" opacity="0.5" d="M107.926 44.1119C101.392 20.8709 80.1704 3.84473 55 3.84473C29.8295 3.84473 8.6019 20.8709 2.07416 44.1119C9.14381 21.6486 30.1659 5.51913 55 5.51913C79.8341 5.51913 100.856 21.6548 107.926 44.1119Z" fill="url(#paint4_linear_1765_46742)"/>
<path d="M90.317 23.6614C80.8804 14.1606 68.3357 8.93042 54.9999 8.93042C41.6641 8.93042 29.1132 14.1606 19.6828 23.6614C10.2462 33.1622 5.05145 45.786 5.05145 59.2189C5.05145 72.6517 10.2462 85.2818 19.6828 94.7764C29.1132 104.271 41.6579 109.501 54.9999 109.501C68.3419 109.501 80.8867 104.271 90.317 94.7764C99.7474 85.2755 104.942 72.6454 104.942 59.2189C104.942 45.7923 99.7474 33.1559 90.317 23.6614ZM54.9999 106.434C42.4739 106.434 30.6953 101.524 21.838 92.6065C12.9807 83.6889 8.10355 71.8364 8.10355 59.2251C8.10355 46.6138 12.9807 34.7551 21.838 25.8437C30.6953 16.9262 42.4739 12.0158 54.9999 12.0158C67.526 12.0158 79.3046 16.9262 88.1619 25.8437C97.0192 34.7613 101.896 46.6201 101.896 59.2251C101.896 71.8302 97.0192 83.6952 88.1619 92.6065C79.3046 101.524 67.526 106.434 54.9999 106.434Z" fill="url(#paint5_linear_1765_46742)"/>
<path style="mix-blend-mode:multiply" opacity="0.5" d="M91.0207 93.1399C81.3973 102.634 68.6034 107.865 54.9998 107.865C41.3962 107.865 28.6023 102.634 18.9788 93.1399C15.5966 89.7973 12.7438 86.0723 10.4766 82.0587C12.831 86.6994 15.9205 90.9889 19.6827 94.7766C29.113 104.277 41.6578 109.508 54.9998 109.508C68.3418 109.508 80.8865 104.277 90.3169 94.7766C94.0791 90.9889 97.1685 86.6931 99.523 82.0587C97.2495 86.0723 94.403 89.8036 91.0207 93.1399Z" fill="url(#paint6_linear_1765_46742)"/>
<path style="mix-blend-mode:color-dodge" opacity="0.5" d="M99.5293 36.3791C97.1748 31.7385 94.0853 27.449 90.3232 23.6612C80.8866 14.1604 68.3419 8.93652 55.0061 8.93652C41.6703 8.93652 29.1193 14.1667 19.689 23.6612C15.9268 27.4553 12.8373 31.7447 10.4828 36.3791C12.7563 32.3656 15.6029 28.6405 18.9851 25.298C28.6086 15.8034 41.4024 10.5733 55.0061 10.5733C68.6097 10.5733 81.4036 15.8034 91.027 25.298C94.4092 28.6405 97.2558 32.3656 99.5293 36.3791Z" fill="url(#paint7_linear_1765_46742)"/>
<path d="M89.1895 24.797C80.0582 15.6035 67.9121 10.5364 54.9998 10.5364C42.0876 10.5364 29.9415 15.5972 20.8101 24.797C11.6788 33.9905 6.64594 46.2193 6.64594 59.2194C6.64594 72.2195 11.6788 84.4483 20.8101 93.6418C29.9415 102.835 42.0876 107.902 54.9998 107.902C67.9121 107.902 80.0582 102.835 89.1895 93.6418C98.3209 84.4483 103.354 72.2258 103.354 59.2194C103.354 46.213 98.3209 33.9905 89.1895 24.797ZM88.1556 92.6071C79.2983 101.525 67.5197 106.435 54.9936 106.435C42.4676 106.435 30.689 101.525 21.8317 92.6071C12.9744 83.6895 8.09724 71.837 8.09724 59.2257C8.09724 46.6144 12.9744 34.7556 21.8317 25.8443C30.689 16.9267 42.4676 12.0164 54.9936 12.0164C67.5197 12.0164 79.2983 16.9267 88.1556 25.8443C97.0129 34.7619 101.89 46.6206 101.89 59.2257C101.89 71.8307 97.0129 83.6958 88.1556 92.6071Z" fill="url(#paint8_linear_1765_46742)"/>
<path style="mix-blend-mode:multiply" opacity="0.5" d="M92.9269 19.1213C90.0305 19.8049 86.3991 18.0364 86.3991 18.0364L84.9977 18.9959C83.1975 19.2467 83.0543 21.3727 83.0543 21.3727C75.0005 15.2896 65.2462 12.0036 54.9999 12.0036C44.7536 12.0036 34.881 15.3335 26.7961 21.4855C25.868 19.4161 23.1086 20.501 23.1086 20.501L21.9688 19.0273C20.1998 17.98 17.2972 18.9771 17.1602 19.0273C17.2038 18.9834 17.2474 18.9395 17.291 18.8956C17.3346 18.8517 17.3782 18.814 17.4218 18.7701C17.6522 18.5506 17.8827 18.3374 18.1194 18.1242C18.163 18.0866 18.2128 18.0427 18.2564 17.9988C18.4931 17.7793 18.736 17.5661 18.979 17.3529C18.979 17.3529 18.9852 17.3466 18.9914 17.3403C19.2406 17.1271 19.4835 16.9139 19.7389 16.7007C19.7887 16.6568 19.8385 16.6191 19.8821 16.5752C20.125 16.3746 20.368 16.1739 20.6171 15.9732C20.667 15.9356 20.7106 15.8979 20.7604 15.8603C21.0033 15.6596 21.2525 15.4652 21.5016 15.2771C21.5141 15.2646 21.5265 15.2583 21.539 15.2457C21.7944 15.0451 22.056 14.8507 22.3176 14.6563C22.3674 14.6186 22.4235 14.581 22.4733 14.5434C22.7287 14.3552 22.9841 14.1671 23.2394 13.9852C23.2893 13.9476 23.3329 13.9163 23.3827 13.8849C23.6381 13.703 23.8872 13.5274 24.1426 13.3519C24.1613 13.3393 24.1862 13.3205 24.2049 13.308C24.4727 13.1261 24.7406 12.9442 25.0146 12.7686C25.0707 12.731 25.1267 12.6934 25.1828 12.6558C25.4506 12.4864 25.7185 12.3108 25.9863 12.1415C26.0361 12.1102 26.0798 12.0788 26.1296 12.0537C26.3912 11.8907 26.6528 11.7276 26.9206 11.5708C26.9455 11.5583 26.9705 11.5395 27.0016 11.5207C27.2757 11.3576 27.556 11.1946 27.8425 11.0315C27.8985 11.0002 27.9546 10.9625 28.0169 10.9312C28.2972 10.7744 28.5713 10.6176 28.8578 10.4671C28.9014 10.442 28.9512 10.4169 28.9948 10.3919C29.2626 10.2414 29.5367 10.1034 29.8108 9.95916C29.8419 9.94661 29.8731 9.9278 29.9042 9.90899C30.1907 9.75848 30.4835 9.61424 30.77 9.47C30.8261 9.43865 30.8884 9.41356 30.9506 9.38221C31.2434 9.23797 31.5299 9.10001 31.8227 8.96831C31.8663 8.9495 31.9099 8.92441 31.9535 8.9056C32.2338 8.77391 32.5141 8.64848 32.7944 8.52306C32.8317 8.51052 32.8691 8.4917 32.9065 8.47289C33.2055 8.3412 33.5044 8.21577 33.8034 8.08408C33.8657 8.05899 33.9218 8.03391 33.9841 8.00882C34.283 7.8834 34.5882 7.75798 34.8935 7.63883C34.9308 7.62628 34.9744 7.60747 35.0118 7.59493C35.3046 7.48205 35.5911 7.36917 35.8838 7.26256C35.9212 7.24374 35.9648 7.2312 36.0022 7.21866C36.3074 7.10578 36.6188 6.9929 36.9303 6.88629C36.9925 6.86747 37.0486 6.84239 37.1109 6.82357C37.4223 6.71696 37.7338 6.61035 38.0514 6.50374C38.0826 6.4912 38.1137 6.48493 38.1511 6.47239C38.4501 6.37205 38.7553 6.27798 39.0605 6.18392C39.1041 6.17137 39.1477 6.15883 39.1913 6.14629C39.509 6.05222 39.8266 5.95815 40.1443 5.87036C40.2066 5.85154 40.2626 5.83273 40.3249 5.82019C40.6488 5.73239 40.9727 5.6446 41.2966 5.5568C41.3215 5.55053 41.3527 5.54426 41.3776 5.53799C41.689 5.45646 42.0067 5.38121 42.3244 5.30595C42.3742 5.29341 42.4178 5.28714 42.4614 5.2746C42.7853 5.19934 43.1092 5.12409 43.4393 5.05511C43.5016 5.04256 43.5577 5.03002 43.62 5.01748C43.9501 4.9485 44.2864 4.87951 44.6228 4.8168C44.6415 4.8168 44.6602 4.81053 44.6788 4.80426C45.0027 4.74155 45.3329 4.68511 45.663 4.62867C45.7128 4.6224 45.7627 4.60985 45.8125 4.60358C46.1426 4.54714 46.479 4.49697 46.8091 4.4468C46.8714 4.43426 46.9274 4.42799 46.9897 4.42172C47.3323 4.37155 47.6749 4.32138 48.0175 4.27748C48.0237 4.27748 48.0361 4.27748 48.0486 4.27748C48.385 4.23358 48.7275 4.19596 49.0701 4.15833C49.12 4.15206 49.176 4.14579 49.2258 4.13952C49.5622 4.10189 49.9048 4.07053 50.2411 4.03918C50.3034 4.03918 50.3595 4.03291 50.4155 4.02664C51.1194 3.9702 51.8232 3.92003 52.5333 3.88867C52.5894 3.88867 52.6454 3.88867 52.7015 3.8824C53.0441 3.86986 53.3929 3.85731 53.7417 3.85104C53.7978 3.85104 53.8538 3.85104 53.9161 3.85104C54.2711 3.85104 54.6324 3.8385 54.9874 3.8385C55.3425 3.8385 55.7038 3.8385 56.0588 3.85104C56.1149 3.85104 56.1709 3.85104 56.2332 3.85104C56.582 3.85731 56.9246 3.86986 57.2672 3.8824C57.3232 3.8824 57.3793 3.88867 57.4354 3.88867C58.1454 3.92003 58.8493 3.96392 59.5531 4.02664C59.6092 4.02664 59.6715 4.03918 59.7338 4.03918C60.0701 4.07053 60.4127 4.10189 60.7491 4.13952C60.7989 4.14579 60.8549 4.15206 60.9048 4.15833C61.2474 4.19596 61.5899 4.23358 61.9263 4.27748C61.9388 4.27748 61.945 4.27748 61.9574 4.27748C62.3 4.32138 62.6426 4.37155 62.9852 4.42172C63.0412 4.42799 63.1035 4.44053 63.1658 4.4468C63.5022 4.49697 63.8323 4.54714 64.1624 4.60358C64.2123 4.60985 64.2621 4.6224 64.3119 4.62867C64.642 4.68511 64.9722 4.74155 65.2961 4.80426C65.3147 4.80426 65.3334 4.81053 65.3521 4.8168C65.6885 4.87951 66.0186 4.9485 66.3549 5.01748C66.4172 5.03002 66.4733 5.04256 66.5356 5.05511C66.8595 5.12409 67.1896 5.19934 67.5135 5.2746C67.5571 5.28714 67.6069 5.29341 67.6505 5.30595C67.9682 5.38121 68.2859 5.46273 68.5973 5.53799C68.6222 5.54426 68.6471 5.55053 68.672 5.5568C68.9959 5.63832 69.3198 5.72612 69.6437 5.82019C69.706 5.839 69.7621 5.85154 69.8244 5.87036C70.142 5.95815 70.4659 6.05222 70.7774 6.14629C70.821 6.15883 70.8646 6.17137 70.9019 6.18392C71.2072 6.27798 71.5124 6.37205 71.8176 6.47239C71.8487 6.48493 71.8799 6.4912 71.911 6.50374C72.2287 6.60408 72.5401 6.71069 72.8516 6.82357C72.9076 6.84239 72.9699 6.8612 73.026 6.88629C73.3374 6.9929 73.6488 7.10578 73.954 7.21866C73.9914 7.2312 74.0288 7.24374 74.0662 7.26256C74.3589 7.37544 74.6579 7.48205 74.9506 7.6012C74.988 7.61374 75.0254 7.63255 75.0565 7.6451C75.3617 7.76425 75.667 7.88967 75.9722 8.01509C76.0282 8.04018 76.0843 8.06526 76.1466 8.08408C76.4455 8.2095 76.7508 8.3412 77.0497 8.47289C77.0809 8.4917 77.1183 8.50425 77.1494 8.51679C77.4359 8.64221 77.7162 8.77391 78.0027 8.9056C78.0463 8.92441 78.0837 8.94323 78.1211 8.96204C78.4138 9.10001 78.7066 9.23797 78.9993 9.38221C79.0554 9.40729 79.1115 9.43865 79.1675 9.46373C79.4603 9.60797 79.753 9.75848 80.0458 9.90271C80.0707 9.92153 80.1018 9.93407 80.1267 9.94661C80.407 10.0908 80.6811 10.2351 80.9552 10.3856C80.9988 10.4107 81.0424 10.4295 81.086 10.4546C81.3663 10.6114 81.6528 10.7681 81.9269 10.9249C81.9829 10.9563 82.039 10.9876 82.095 11.019C82.3753 11.182 82.6619 11.3451 82.9422 11.5144C82.9671 11.5269 82.9858 11.5458 83.0107 11.5583C83.2785 11.7214 83.5463 11.8844 83.8142 12.0475C83.8578 12.0788 83.9014 12.1039 83.945 12.129C84.219 12.2983 84.4869 12.4739 84.7547 12.6495C84.8046 12.6871 84.8606 12.7185 84.9104 12.7561C85.1845 12.9317 85.4586 13.1135 85.7264 13.3017C85.7451 13.3142 85.7576 13.3205 85.7762 13.333C86.0378 13.5086 86.2932 13.6968 86.5548 13.8786C86.5984 13.91 86.642 13.9413 86.6856 13.9727C86.9472 14.1608 87.2026 14.349 87.4642 14.5371C87.5141 14.5747 87.5639 14.6124 87.6137 14.65C87.8753 14.8444 88.1369 15.0451 88.3986 15.2457C88.4048 15.252 88.411 15.2583 88.4235 15.2646C88.6788 15.4652 88.9342 15.6659 89.1834 15.8666C89.227 15.9042 89.2706 15.9356 89.3142 15.9732C89.5633 16.1739 89.8125 16.3746 90.0554 16.5815C90.099 16.6191 90.1488 16.6568 90.1924 16.6944C90.697 17.1208 91.1953 17.5598 91.6873 17.9988C91.7309 18.0364 91.7745 18.074 91.8119 18.1117C92.0486 18.3249 92.2853 18.5444 92.5158 18.7639C92.5594 18.8015 92.5967 18.8391 92.6403 18.883C92.7151 18.9583 92.7961 19.0335 92.8708 19.1025L92.9269 19.1213Z" fill="url(#paint9_linear_1765_46742)"/>
<path d="M57.211 13.0625C57.0989 13.376 56.9432 13.5955 56.7812 13.746C56.4698 14.0345 56.1521 14.0659 56.1521 14.0659C55.6538 15.295 54.9936 15.4643 54.9936 15.4643C54.9936 15.4643 54.3333 15.295 53.835 14.0659C53.835 14.0659 53.5173 14.0345 53.2059 13.746C53.044 13.5955 52.8882 13.3823 52.7761 13.0625C52.7761 13.0625 53.1062 11.9337 53.5859 10.9052C53.9907 10.0335 54.4953 9.23706 54.9936 9.23706C55.523 9.23706 56.0587 10.1338 56.4698 11.062C56.9058 12.0465 57.211 13.0687 57.211 13.0687V13.0625Z" fill="url(#paint10_linear_1765_46742)"/>
<path d="M53.8413 14.0598C53.8413 14.0598 53.5236 14.0285 53.2122 13.74C53.6233 13.7588 53.8973 12.8244 53.9222 12.7491C53.9098 12.8181 53.779 13.4766 53.8413 14.0598Z" fill="url(#paint11_linear_1765_46742)"/>
<path d="M56.1583 14.0598C56.2206 13.4766 56.0898 12.8181 56.0773 12.7491C56.1022 12.8244 56.3763 13.7588 56.7874 13.74C56.476 14.0285 56.1583 14.0598 56.1583 14.0598Z" fill="url(#paint12_linear_1765_46742)"/>
<path style="mix-blend-mode:multiply" opacity="0.5" d="M56.4761 11.0557C55.9529 11.7079 55.1743 12.2472 54.9999 12.197C54.8068 12.1406 54.4144 12.2096 53.5922 10.9052C53.997 10.0335 54.5016 9.23706 54.9999 9.23706C55.5293 9.23706 56.065 10.1338 56.4761 11.062V11.0557Z" fill="url(#paint13_linear_1765_46742)"/>
<path d="M59.7586 5.61899C59.6901 4.46509 57.2111 4.22052 57.2111 4.22052C57.2111 4.22052 57.3792 3.55577 57.0678 2.89103C56.7564 2.22629 55.2615 0.802734 54.9936 0.802734C54.7258 0.802734 53.2309 2.22002 52.9194 2.89103C52.608 3.55577 52.7762 4.22052 52.7762 4.22052C52.7762 4.22052 50.2971 4.46509 50.2286 5.61899C50.1601 6.77288 53.206 9.45694 53.206 9.45694L54.9936 9.43185L56.7813 9.45694C56.7813 9.45694 59.8209 6.77288 59.7586 5.61899Z" fill="url(#paint14_linear_1765_46742)"/>
<path d="M50.7393 6.80376C50.4279 6.35223 50.2161 5.92579 50.2348 5.61851C50.241 5.48054 50.2846 5.35512 50.3531 5.24224C50.5089 5.13563 50.7331 5.09173 51.0258 5.12935C51.9352 5.25478 53.1063 7.02952 53.6855 9.45018H53.2059C53.2059 9.45018 51.5864 8.02663 50.7331 6.80376H50.7393Z" fill="url(#paint15_linear_1765_46742)"/>
<path d="M53.6917 9.45028H53.2121C53.2121 9.45028 51.5926 8.02672 50.7393 6.80385C50.733 6.72232 50.2659 5.67504 50.7393 5.40538C51.2126 5.14199 52.8446 6.30215 53.6917 9.45028Z" fill="url(#paint16_linear_1765_46742)"/>
<path d="M59.7585 5.7252C59.7273 6.08892 59.4471 6.56553 59.0733 7.05468C58.1951 8.21485 56.7874 9.45654 56.7874 9.45654H56.152C56.7313 7.0296 57.9023 5.25486 58.8117 5.12944C59.4159 5.04791 59.7273 5.33011 59.7647 5.7252H59.7585Z" fill="url(#paint17_linear_1765_46742)"/>
<path d="M59.0921 6.8039C59.0921 6.8039 59.0859 6.89797 59.0672 7.06102C58.1889 8.22118 56.7812 9.46287 56.7812 9.46287H56.1459C56.9868 6.30221 58.6249 5.14204 59.0921 5.4117C59.5655 5.67509 59.0983 6.72864 59.0921 6.81017V6.8039Z" fill="url(#paint18_linear_1765_46742)"/>
<path style="mix-blend-mode:multiply" opacity="0.5" d="M55.959 8.80494C56.8684 7.05529 57.3355 6.008 56.9493 5.57529C56.5694 5.14258 53.5173 5.04224 52.9692 5.50631C52.421 5.97038 53.9222 8.80494 53.9222 8.80494H55.9527H55.959Z" fill="url(#paint19_linear_1765_46742)"/>
<path d="M57.211 4.22117C57.211 4.22117 57.211 4.22117 57.1985 4.23371C57.1985 4.23371 57.1985 4.23371 57.1923 4.23998C57.1923 4.23998 57.1861 4.24625 57.1798 4.25252C57.049 4.37168 56.5632 4.81693 56.0213 5.22455C56.0213 5.22455 56.0088 5.23082 56.0026 5.2371C55.6663 5.48794 55.305 5.73252 54.9998 5.87048C54.9998 5.87048 54.9998 5.87048 54.9935 5.87048C54.9935 5.87048 54.9935 5.87048 54.9873 5.87048C54.8316 5.78896 53.7852 5.20574 52.7948 4.22744C52.7948 4.22744 52.6266 3.5627 52.9381 2.89795C52.963 2.84778 52.9941 2.79134 53.0315 2.72863C53.1187 2.59067 53.237 2.43389 53.3741 2.27084C53.5547 3.40592 55.3112 3.75083 55.7908 3.53761C56.2704 3.32439 56.7251 2.4966 56.4635 2.05762C56.7438 2.3649 56.9805 2.67846 57.0802 2.89795C57.3916 3.5627 57.2234 4.22744 57.2234 4.22744L57.211 4.22117Z" fill="url(#paint20_linear_1765_46742)"/>
<path style="mix-blend-mode:multiply" opacity="0.5" d="M57.211 4.22056C57.211 4.22056 57.211 4.22056 57.1985 4.23311C57.1985 4.23311 57.1985 4.23311 57.1923 4.23938C57.1923 4.23938 57.1861 4.24565 57.1798 4.25192C57.0553 4.37107 56.6006 4.79751 56.0213 5.22395C56.0213 5.22395 56.0088 5.23022 56.0026 5.23649C55.6974 5.46225 55.3486 5.68802 54.9998 5.86988C54.9998 5.86988 54.9998 5.86988 54.9935 5.86988C54.9935 5.86988 54.9935 5.86988 54.9873 5.86988C54.8316 5.78835 53.7665 5.23649 52.7948 4.22684C52.7948 4.22684 52.6266 3.56209 52.9381 2.89735C52.963 2.84718 52.9941 2.79074 53.0315 2.72803C52.9443 4.17039 55.0122 5.73191 55.0122 5.73191C55.0122 5.73191 56.4137 4.67209 57.0864 2.89735C57.3979 3.56209 57.2297 4.22684 57.2297 4.22684L57.211 4.22056Z" fill="url(#paint21_linear_1765_46742)"/>
<path d="M54.9686 1.25999C54.8628 1.39169 55.1555 2.05643 55.4171 2.03135C55.6725 2.00626 55.7971 1.79304 55.7161 1.64253C55.6351 1.4983 55.0994 1.10321 54.9749 1.25372L54.9686 1.25999Z" fill="url(#paint22_linear_1765_46742)"/>
<path d="M57.211 4.75993C57.3978 5.04214 58.2387 5.11112 58.1515 4.84146C58.0706 4.57807 57.5909 4.49027 57.4228 4.54044C57.2546 4.59061 57.1487 4.66587 57.2048 4.75993H57.211Z" fill="url(#paint23_linear_1765_46742)"/>
<path style="mix-blend-mode:multiply" opacity="0.5" d="M57.211 13.0629C57.0989 13.3765 56.9432 13.596 56.7812 13.7465C56.4698 14.0349 56.1521 14.0663 56.1521 14.0663C55.6538 15.2955 54.9936 15.4648 54.9936 15.4648C54.9936 15.4648 54.3333 15.2955 53.835 14.0663C53.835 14.0663 53.5173 14.0349 53.2059 13.7465C53.044 13.596 52.8882 13.3827 52.7761 13.0629C52.7761 13.0629 53.0004 12.3041 53.3429 11.4575C53.3118 11.8839 53.2495 13.0253 53.3554 13.2385C53.48 13.5019 53.8288 13.458 53.8288 13.458C54.1153 14.2105 54.9313 14.9443 55.0995 14.9004C55.2676 14.8565 56.0089 13.6461 56.1334 13.1319C56.1334 13.1319 56.2954 13.458 56.6629 13.3451C57.0241 13.2322 56.613 11.376 56.613 11.376C56.9743 12.2477 57.211 13.0566 57.211 13.0566V13.0629Z" fill="url(#paint24_linear_1765_46742)"/>
<path d="M56.8436 9.23793C56.8436 10.2288 56.0463 11.0378 55.0559 11.0378C54.0655 11.0378 53.2682 10.235 53.2682 9.23793C53.2682 8.24082 54.0655 7.43811 55.0559 7.43811C56.0463 7.43811 56.8436 8.24082 56.8436 9.23793Z" fill="url(#paint25_radial_1765_46742)"/>
<path style="mix-blend-mode:multiply" opacity="0.5" d="M56.8436 9.23776C56.8436 10.2286 56.0463 11.0376 55.0559 11.0376C54.0655 11.0376 53.2682 10.2349 53.2682 9.23776C53.2682 8.7737 53.4427 8.35353 53.7292 8.0337C53.6171 8.24065 53.5548 8.48523 53.5548 8.73607C53.5548 9.55132 54.215 10.2161 55.0248 10.2161C55.8345 10.2161 56.4948 9.55132 56.4948 8.73607C56.4948 8.40997 56.3889 8.10896 56.2145 7.86438C56.6006 8.19048 56.8436 8.6859 56.8436 9.23149V9.23776Z" fill="url(#paint26_linear_1765_46742)"/>
<path d="M55.2428 7.8649C54.7694 8.07812 54.7818 8.59862 54.8005 8.68642C54.8254 8.77421 55.8469 9.07523 55.9466 8.86201C56.0463 8.64879 55.9715 8.06557 55.8719 7.98405C55.7722 7.90879 55.3362 7.81473 55.2428 7.85862V7.8649Z" fill="url(#paint27_linear_1765_46742)"/>
<path d="M51.2688 10.367C50.8452 9.80264 49.886 10.5113 49.8549 11.3453C49.8237 12.1794 51.0009 13.2581 51.8294 13.5653C52.0411 13.6406 53.2371 13.2204 53.8101 11.9662C54.3832 10.712 53.835 9.65213 53.1312 9.45773C52.4273 9.26959 51.2688 10.367 51.2688 10.367Z" fill="url(#paint28_linear_1765_46742)"/>
<path d="M50.8392 11.0321C50.8392 11.0321 51.2814 11.0008 51.2814 10.5304C51.2814 10.0601 51.0509 8.33553 47.8431 8.36689C47.8431 8.36689 44.9032 9.00027 39.4779 12.5309C39.4779 12.5309 36.6999 14.1614 34.09 13.6284C31.4802 13.0953 29.0323 9.96603 29.0945 5.56995C29.0945 5.56995 30.2157 1.93894 32.9315 0.40878C32.9315 0.40878 35.7406 -0.625961 39.0481 0.578102C39.0481 0.578102 42.2559 3.57572 38.1885 6.70503C38.1885 6.70503 36.5691 7.63943 35.2486 7.6018C35.2486 7.6018 34.6506 9.00027 35.2486 10.0664C35.2486 10.0664 37.1359 10.4991 38.1885 10.1354C38.1885 10.1354 41.197 7.07503 44.8658 6.24096C48.5345 5.4069 52.5832 6.82418 53.2186 9.79671C53.4739 10.9882 52.9196 12.2926 51.5991 12.1359C50.671 12.023 50.8392 11.0384 50.8392 11.0384V11.0321Z" fill="url(#paint29_linear_1765_46742)"/>
<path d="M38.1821 6.70559C38.1821 6.70559 36.5627 7.64 35.2422 7.60237C35.2422 7.60237 34.6442 9.00084 35.2422 10.0669C35.2422 10.0669 37.1295 10.4996 38.1821 10.1359C36.762 11.0703 35.6657 11.9671 33.8656 12.1678C33.8656 12.1678 32.9188 12.2556 31.6918 12.3559C30.1595 10.9574 29.0445 8.55558 29.0944 5.57678C29.0944 5.57678 30.2156 1.94578 32.9313 0.415616C32.9313 0.415616 35.7405 -0.619125 39.0479 0.584938C39.0479 0.584938 42.2558 3.58255 38.1884 6.71186L38.1821 6.70559Z" fill="url(#paint30_linear_1765_46742)"/>
<path d="M38.1823 6.70503C38.1823 6.70503 36.5628 7.63943 35.2423 7.6018C35.2423 7.6018 34.6443 9.00027 35.2423 10.0664C33.0249 10.1354 32.4767 11.3206 32.9813 11.8725C33.0871 11.9853 33.0498 12.1108 32.9377 12.2425C32.5888 12.2738 32.1591 12.3114 31.6919 12.3491C30.1596 10.9506 29.0447 8.54875 29.0945 5.56995C29.0945 5.56995 30.2157 1.93894 32.9314 0.40878C32.9314 0.40878 35.7406 -0.625961 39.0481 0.578102C39.0481 0.578102 42.2559 3.57572 38.1885 6.70503H38.1823Z" fill="url(#paint31_linear_1765_46742)"/>
<path style="mix-blend-mode:multiply" opacity="0.5" d="M35.8277 4.80453C35.8277 4.80453 35.3107 6.66707 34.1895 7.4635C31.997 7.38198 30.5083 5.79537 30.5083 5.79537C30.0661 6.21554 29.7297 7.07469 29.7297 7.07469C29.7297 7.07469 29.4868 6.86774 29.1131 6.54791C29.0882 6.22808 29.082 5.90198 29.0882 5.56961C29.0882 5.56961 30.2094 1.93861 32.9251 0.408447C32.9251 0.408447 36.1142 1.832 35.8277 4.79826V4.80453Z" fill="url(#paint32_linear_1765_46742)"/>
<path d="M33.7534 4.9495C33.7534 4.9495 33.3984 4.6234 32.9437 4.9495C32.489 5.2756 32.9001 6.44831 33.5105 6.80576C33.7347 6.93746 34.6317 6.24136 34.8746 5.42611L33.7534 4.9495Z" fill="url(#paint33_linear_1765_46742)"/>
<path d="M34.8747 4.52864C34.8747 4.59762 34.8623 4.67914 34.8436 4.77321C34.8436 4.78575 34.8436 4.7983 34.8373 4.81084C34.8062 4.92999 34.7626 5.06168 34.7065 5.19965C34.7003 5.22473 34.6879 5.24355 34.6754 5.26863C34.6692 5.28745 34.6567 5.30626 34.6505 5.32507C34.6505 5.33762 34.638 5.35016 34.6318 5.36897C34.6007 5.43795 34.5633 5.50694 34.5321 5.57592C34.5197 5.601 34.501 5.63236 34.4885 5.65745C34.4823 5.66999 34.4761 5.68253 34.4636 5.69507C34.4574 5.70761 34.4512 5.72016 34.4387 5.7327C34.4076 5.78287 34.3764 5.83931 34.3453 5.88948C34.0588 5.93338 33.5106 5.80795 33.5106 5.80795C33.5106 5.80795 34.065 5.05541 33.5355 4.43457L34.8747 4.3844C34.8747 4.3844 34.8747 4.39694 34.8747 4.40321C34.8747 4.42203 34.8747 4.44084 34.8747 4.45965C34.8747 4.47847 34.8747 4.49728 34.8747 4.51609V4.52864Z" fill="url(#paint34_linear_1765_46742)"/>
<path d="M51.2688 10.3671C51.2065 9.75248 50.7393 8.42926 47.8367 8.46062C47.8367 8.46062 44.8967 8.99994 39.4715 12.5306C39.4715 12.5306 36.6935 14.1611 34.0836 13.6281C31.4738 13.095 29.0259 9.9657 29.0881 5.56961C29.0881 5.56961 30.2093 1.93861 32.9251 0.408447C35.1612 0.464888 36.4194 2.84166 36.4381 3.99555C36.463 5.14945 34.3203 7.36944 33.8781 7.38198C33.4358 7.39452 32.271 5.70758 32.514 5.08673C32.7569 4.46589 33.5292 4.4408 33.5292 4.4408C34.0587 5.06165 33.5043 5.81419 33.5043 5.81419C33.5043 5.81419 33.5729 5.35012 33.5292 5.12436C33.4856 4.90487 33.1555 4.99267 32.9749 5.28114C32.8005 5.56961 33.2365 6.47893 33.6601 6.52283C34.0774 6.56673 34.8747 5.10555 34.8747 4.52233C34.8747 3.93911 34.476 2.7664 33.3735 2.50302C32.271 2.23963 30.0225 4.14606 29.6238 5.43165C29.2252 6.71724 30.8135 10.8938 32.9749 11.8659C35.1363 12.8442 37.6465 11.7342 37.6465 11.7342C42.2744 8.71774 46.6844 6.62944 49.0202 7.20639C51.356 7.78333 51.2625 10.3545 51.2625 10.3545L51.2688 10.3671Z" fill="url(#paint35_linear_1765_46742)"/>
<path d="M38.1822 6.70548C38.1822 6.70548 36.5628 7.63988 35.2423 7.60225C35.2423 7.60225 34.7253 7.6148 33.8844 7.38276C34.3266 7.37022 36.4631 5.15023 36.4444 3.99634C36.4382 3.55108 36.2451 2.93024 35.8838 2.32194C35.8838 2.32194 36.5129 2.85498 36.9926 4.30362C37.1047 4.63599 38.9422 4.43532 39.5962 3.83956C40.2502 3.2438 39.7706 1.54431 39.7706 1.54431C40.3997 2.67939 40.8357 4.66108 38.1885 6.69921L38.1822 6.70548Z" fill="url(#paint36_linear_1765_46742)"/>
<path style="mix-blend-mode:color-dodge" opacity="0.5" d="M38.5435 0.414906C38.5435 0.414906 38.3504 1.86354 37.4098 2.11439C36.4693 2.36524 35.8838 2.32761 35.8838 2.32761L35.6284 1.9388C36.924 2.42795 38.1698 1.31168 36.843 0.0637207C37.3787 0.126432 37.9517 0.233042 38.5435 0.414906Z" fill="url(#paint37_linear_1765_46742)"/>
<path d="M34.5445 0.0700018C35.1113 0.00101903 35.8027 -0.0303368 36.5751 0.038646C36.6934 0.552881 34.8559 0.521525 34.5445 0.0700018Z" fill="url(#paint38_linear_1765_46742)"/>
<path d="M37.4036 4.29697C37.3288 4.47257 38.1572 4.39104 38.3815 4.25308C38.5995 4.12138 38.2818 4.06494 37.9828 4.06494C37.6839 4.06494 37.4596 4.16528 37.4036 4.29697Z" fill="url(#paint39_linear_1765_46742)"/>
<path style="mix-blend-mode:color-dodge" opacity="0.5" d="M43.5887 7.95274C43.707 7.62037 42.8288 7.23783 40.5864 8.19104C40.9664 7.93393 41.3775 7.68308 41.8135 7.4385C42.8537 7.25664 43.5015 7.45732 43.8316 7.82105C44.1244 8.14715 44.6227 7.96528 44.7286 7.91511L42.8599 8.73664C42.8973 8.71155 43.4703 8.27884 43.5825 7.95274H43.5887Z" fill="url(#paint40_linear_1765_46742)"/>
<path d="M47.1765 7.20679C47.1765 7.20679 44.7286 7.27577 41.091 9.65881C41.091 9.65881 43.9375 7.99695 47.1765 7.20679Z" fill="url(#paint41_linear_1765_46742)"/>
<path d="M45.6629 7.11292C45.4822 7.17563 45.0898 7.43902 45.3577 7.41393C45.6691 7.38885 46.2172 7.30105 46.2172 7.20699C46.2172 7.08156 45.8124 7.05648 45.6629 7.11292Z" fill="url(#paint42_linear_1765_46742)"/>
<path style="mix-blend-mode:multiply" opacity="0.5" d="M51.5988 12.129C50.6707 12.0161 50.8389 11.0316 50.8389 11.0316C50.8389 11.0316 51.2812 11.0002 51.2812 10.5299C51.2812 10.486 51.2812 10.4295 51.2749 10.3605C51.2749 10.3605 51.3061 9.51394 50.895 8.68614C51.63 10.0783 52.5768 9.38224 52.5768 9.15021C52.5768 8.73631 52.1345 7.84581 52.122 7.81445C52.6764 8.36004 53.0688 9.02479 53.2308 9.78987C53.4861 10.9814 52.9318 12.2858 51.6113 12.129H51.5988Z" fill="url(#paint43_linear_1765_46742)"/>
<path d="M58.7311 10.367C59.1546 9.80264 60.1139 10.5113 60.145 11.3453C60.1762 12.1794 58.9989 13.2581 58.1705 13.5653C57.9587 13.6406 56.7628 13.2204 56.1897 11.9662C55.6229 10.712 56.1648 9.65213 56.8687 9.45773C57.5725 9.26959 58.7311 10.367 58.7311 10.367Z" fill="url(#paint44_linear_1765_46742)"/>
<path d="M59.1608 11.0321C59.1608 11.0321 58.7185 11.0008 58.7185 10.5304C58.7185 10.0601 58.949 8.33553 62.1568 8.36689C62.1568 8.36689 65.0968 9.00027 70.5221 12.5309C70.5221 12.5309 73.3001 14.1614 75.9099 13.6284C78.5198 13.0953 80.9677 9.96603 80.9054 5.56995C80.9054 5.56995 79.7842 1.93894 77.0685 0.40878C77.0685 0.40878 74.2593 -0.625961 70.9518 0.578102C70.9518 0.578102 67.744 3.57572 71.8114 6.70503C71.8114 6.70503 73.4309 7.63943 74.7514 7.6018C74.7514 7.6018 75.3494 9.00027 74.7514 10.0664C74.7514 10.0664 72.8641 10.4991 71.8114 10.1354C71.8114 10.1354 68.8029 7.07503 65.1342 6.24096C61.4654 5.4069 57.4167 6.82418 56.7814 9.79671C56.526 10.9882 57.0804 12.2926 58.4009 12.1359C59.329 12.023 59.1608 11.0384 59.1608 11.0384V11.0321Z" fill="url(#paint45_linear_1765_46742)"/>
<path d="M71.8115 6.70559C71.8115 6.70559 73.431 7.63999 74.7515 7.60237C74.7515 7.60237 75.3494 9.00084 74.7515 10.0669C74.7515 10.0669 72.8641 10.4996 71.8115 10.1359C73.2316 11.0703 74.3279 11.9671 76.128 12.1678C76.128 12.1678 77.0748 12.2556 78.3018 12.3559C79.8341 10.9574 80.9491 8.55558 80.8992 5.57678C80.8992 5.57678 79.7781 1.94578 77.0623 0.415616C77.0623 0.415616 74.2532 -0.619125 70.9457 0.584938C70.9457 0.584938 67.7379 3.58255 71.8052 6.71186L71.8115 6.70559Z" fill="url(#paint46_linear_1765_46742)"/>
<path d="M71.8115 6.70503C71.8115 6.70503 73.431 7.63943 74.7515 7.6018C74.7515 7.6018 75.3494 9.00027 74.7515 10.0664C76.9689 10.1354 77.517 11.3206 77.0125 11.8725C76.9066 11.9853 76.944 12.1108 77.0561 12.2425C77.4049 12.2738 77.8347 12.3114 78.3018 12.3491C79.8341 10.9506 80.9491 8.54875 80.8992 5.56995C80.8992 5.56995 79.7781 1.93894 77.0623 0.40878C77.0623 0.40878 74.2532 -0.625961 70.9457 0.578102C70.9457 0.578102 67.7379 3.57572 71.8052 6.70503H71.8115Z" fill="url(#paint47_linear_1765_46742)"/>
<path style="mix-blend-mode:multiply" opacity="0.5" d="M74.6578 4.7669C74.6578 4.7669 74.77 6.2469 76.1154 7.07469C78.6505 5.67622 79.4851 5.79538 79.4851 5.79538C79.9274 6.21554 80.2637 7.07469 80.2637 7.07469C80.2637 7.07469 80.5067 6.86774 80.8804 6.54791C80.9053 6.22809 80.9115 5.90199 80.9053 5.56961C80.9053 5.56961 79.7841 1.93861 77.0684 0.408447C77.0684 0.408447 74.4336 2.32115 74.6516 4.76063L74.6578 4.7669Z" fill="url(#paint48_linear_1765_46742)"/>
<path d="M76.2402 4.9495C76.2402 4.9495 76.5952 4.6234 77.0499 4.9495C77.5046 5.2756 77.0935 6.44831 76.4831 6.80576C76.2589 6.93746 75.3619 6.24136 75.119 5.42611L76.2402 4.9495Z" fill="url(#paint49_linear_1765_46742)"/>
<path d="M75.119 4.52864C75.119 4.59762 75.1315 4.67914 75.1502 4.77321C75.1502 4.78575 75.1502 4.7983 75.1564 4.81084C75.1875 4.92999 75.2311 5.06168 75.2872 5.19965C75.2934 5.22474 75.3059 5.24355 75.3183 5.26863C75.3246 5.28745 75.337 5.30626 75.3433 5.32507C75.3433 5.33762 75.3557 5.35016 75.3619 5.36897C75.3931 5.43795 75.4305 5.50694 75.4616 5.57592C75.4741 5.601 75.4927 5.63236 75.5052 5.65745C75.5114 5.66999 75.5177 5.68253 75.5301 5.69507C75.5363 5.70761 75.5426 5.72016 75.555 5.7327C75.5862 5.78287 75.6173 5.83931 75.6485 5.88948C75.935 5.93338 76.4831 5.80795 76.4831 5.80795C76.4831 5.80795 75.9288 5.05541 76.4582 4.43457L75.119 4.3844C75.119 4.3844 75.119 4.39694 75.119 4.40321C75.119 4.42203 75.119 4.44084 75.119 4.45965C75.119 4.47847 75.119 4.49728 75.119 4.51609V4.52864Z" fill="url(#paint50_linear_1765_46742)"/>
<path d="M58.7311 10.3671C58.7934 9.75248 59.2605 8.42926 62.1631 8.46062C62.1631 8.46062 65.1031 8.99994 70.5284 12.5306C70.5284 12.5306 73.3064 14.1611 75.9162 13.6281C78.5261 13.095 80.974 9.9657 80.9117 5.56961C80.9117 5.56961 79.7905 1.93861 77.0748 0.408447C74.8387 0.464888 73.5805 2.84166 73.5618 3.99555C73.5369 5.14945 75.6795 7.36944 76.1218 7.38198C76.564 7.39452 77.7288 5.70758 77.4859 5.08673C77.243 4.46589 76.4706 4.4408 76.4706 4.4408C75.9412 5.06165 76.4955 5.81419 76.4955 5.81419C76.4955 5.81419 76.427 5.35012 76.4706 5.12436C76.5142 4.90487 76.8443 4.99267 77.025 5.28114C77.1994 5.56961 76.7634 6.47893 76.3398 6.52283C75.9225 6.56673 75.1252 5.10555 75.1252 4.52233C75.1252 3.93911 75.5238 2.7664 76.6263 2.50302C77.7288 2.23963 79.9774 4.14606 80.376 5.43165C80.7747 6.71724 79.1863 10.8938 77.025 11.8659C74.8636 12.8442 72.3534 11.7342 72.3534 11.7342C67.7254 8.71774 63.3155 6.62944 60.9797 7.20639C58.6439 7.78333 58.7373 10.3545 58.7373 10.3545L58.7311 10.3671Z" fill="url(#paint51_linear_1765_46742)"/>
<path d="M71.8115 6.70548C71.8115 6.70548 73.431 7.63988 74.7515 7.60225C74.7515 7.60225 75.2685 7.6148 76.1094 7.38276C75.6671 7.37022 73.5307 5.15023 73.5494 3.99634C73.5556 3.55108 73.7487 2.93024 74.11 2.32194C74.11 2.32194 73.4808 2.85498 73.0012 4.30362C72.8891 4.63599 71.0516 4.43532 70.3976 3.83956C69.7498 3.23753 70.2232 1.54431 70.2232 1.54431C69.5941 2.67939 69.1581 4.66108 71.8053 6.69921L71.8115 6.70548Z" fill="url(#paint52_linear_1765_46742)"/>
<path style="mix-blend-mode:color-dodge" opacity="0.5" d="M71.4564 0.414906C71.4564 0.414906 71.6495 1.86354 72.59 2.11439C73.5305 2.36524 74.116 2.32761 74.116 2.32761L74.3714 1.9388C73.0758 2.42795 71.8301 1.31168 73.1568 0.0637207C72.6211 0.126432 72.0481 0.233042 71.4564 0.414906Z" fill="url(#paint53_linear_1765_46742)"/>
<path d="M75.4554 0.0700018C74.8886 0.00101903 74.1972 -0.0303368 73.4248 0.038646C73.3065 0.552881 75.144 0.521525 75.4554 0.0700018Z" fill="url(#paint54_linear_1765_46742)"/>
<path d="M72.5901 4.29697C72.6649 4.47257 71.8364 4.39104 71.6122 4.25308C71.388 4.11511 71.7119 4.06494 72.0108 4.06494C72.3098 4.06494 72.5341 4.16528 72.5901 4.29697Z" fill="url(#paint55_linear_1765_46742)"/>
<path style="mix-blend-mode:color-dodge" opacity="0.5" d="M66.4112 7.95274C66.2928 7.62037 67.1711 7.23783 69.4134 8.19104C69.0335 7.93393 68.6224 7.68308 68.1864 7.4385C67.1462 7.25664 66.4984 7.45732 66.1682 7.82105C65.8755 8.14715 65.3772 7.96528 65.2713 7.91511L67.1399 8.73664C67.1026 8.71155 66.5295 8.27884 66.4174 7.95274H66.4112Z" fill="url(#paint56_linear_1765_46742)"/>
<path d="M62.8234 7.20679C62.8234 7.20679 65.2713 7.27577 68.9089 9.65881C68.9089 9.65881 66.0623 7.99695 62.8234 7.20679Z" fill="url(#paint57_linear_1765_46742)"/>
<path d="M64.3307 7.11292C64.5113 7.17563 64.9037 7.43902 64.6359 7.41393C64.3244 7.38885 63.7763 7.30105 63.7763 7.20699C63.7763 7.08156 64.1812 7.05648 64.3307 7.11292Z" fill="url(#paint58_linear_1765_46742)"/>
<path style="mix-blend-mode:multiply" opacity="0.5" d="M58.4008 12.129C59.3289 12.0161 59.1607 11.0316 59.1607 11.0316C59.1607 11.0316 58.7185 11.0002 58.7185 10.5299C58.7185 10.486 58.7185 10.4295 58.7247 10.3605C58.7247 10.3605 58.6936 9.51394 59.1047 8.68614C58.3697 10.0783 57.4229 9.38224 57.4229 9.15021C57.4229 8.73631 57.8652 7.84581 57.8776 7.81445C57.3233 8.36004 56.9308 9.02479 56.7689 9.78987C56.5135 10.9814 57.0679 12.2858 58.3884 12.129H58.4008Z" fill="url(#paint59_linear_1765_46742)"/>
<path d="M31.4804 108.24C32.8009 108.296 33.1186 111.319 32.8508 111.902C32.8508 111.902 34.7505 113.313 36.015 112.924C36.015 112.924 37.4538 111.877 38.2698 110.516L41.5773 112.259C40.6305 113.984 39.3474 115.878 38.1639 116.718C35.9215 118.305 32.9255 118.474 31.3808 117.822C29.836 117.163 27.0144 114.285 26.9459 112.309C26.8774 110.334 30.1537 108.196 31.4742 108.252L31.4804 108.24Z" fill="url(#paint60_linear_1765_46742)"/>
<path d="M30.8637 110.177C30.8637 110.177 30.2658 110.352 30.2596 110.616C30.2471 110.879 30.7143 112.215 31.1004 112.428C31.4866 112.641 32.2216 112.936 32.857 111.908C32.857 111.908 34.7567 113.319 36.0212 112.93C36.0212 112.93 37.46 111.882 38.276 110.522L39.7771 111.312C39.2165 112.359 38.55 113.394 38.0642 113.902C37.0427 114.98 35.3671 115.401 34.9436 115.281C29.9917 113.896 29.4685 110.647 29.4685 110.647C29.8858 110.07 30.8575 110.177 30.8575 110.177H30.8637Z" fill="url(#paint61_linear_1765_46742)"/>
<path d="M29.5433 108.929C28.2353 109.707 26.9148 111.036 26.9521 112.303C27.0206 114.279 29.8423 117.163 31.387 117.816C32.3089 118.211 33.7539 118.305 35.2426 117.979C33.0688 118.01 30.3904 116.273 28.1605 112.24C27.6996 111.413 27.9923 109.995 29.5371 108.929H29.5433Z" fill="url(#paint62_linear_1765_46742)"/>
<path style="mix-blend-mode:multiply" opacity="0.5" d="M27.3631 113.715C27.3631 113.715 27.3818 113.752 27.388 113.771C27.3942 113.784 27.4005 113.802 27.4129 113.815C27.4627 113.903 27.5313 114.028 27.6185 114.185C28.559 115.772 30.2968 117.346 31.3869 117.816C32.3087 118.211 33.7538 118.305 35.2425 117.979C33.0686 118.01 30.3903 116.273 28.1604 112.241C27.5063 112.015 27.0267 113.006 27.3569 113.721L27.3631 113.715Z" fill="url(#paint63_linear_1765_46742)"/>
<path d="M30.8636 110.178C30.8636 110.178 30.2657 110.354 30.2595 110.617C30.247 110.88 30.7142 112.216 31.1003 112.429C30.9509 111.163 30.8886 110.473 31.4678 110.297C31.4678 110.297 31.2187 110.184 30.8636 110.184V110.178Z" fill="url(#paint64_linear_1765_46742)"/>
<path style="mix-blend-mode:color-dodge" opacity="0.5" d="M37.4413 114.429C37.0675 114.718 36.1457 115.081 36.1457 115.081C37.2918 115.132 40.6802 113.507 39.4407 115.476C39.8643 114.975 40.2754 114.392 40.6678 113.783C39.6899 113.175 37.4413 114.423 37.4413 114.423V114.429Z" fill="url(#paint65_linear_1765_46742)"/>
<path style="mix-blend-mode:multiply" opacity="0.5" d="M36.0212 112.868C35.6101 112.993 35.1429 112.931 34.682 112.793C35.2675 114.172 34.9436 115.22 34.9436 115.22C33.9968 116.336 33.6792 117.653 33.6792 117.653L33.0376 118.104C34.601 118.192 36.5693 117.784 38.1639 116.656C39.3473 115.815 40.6305 113.921 41.5772 112.197L38.2698 110.453C37.4538 111.821 36.0149 112.862 36.0149 112.862L36.0212 112.868Z" fill="url(#paint66_linear_1765_46742)"/>
<path d="M41.4214 113.074C41.3716 113.005 41.3218 112.943 41.272 112.874C41.272 112.874 40.2567 114.435 38.4628 114.58C38.4628 114.58 37.7465 114.385 36.9492 114.021C36.4509 113.796 35.9214 113.507 35.5166 113.162C34.4764 112.265 35.1615 105.812 36.3699 104.822C36.7 104.552 38.6123 106.552 41.328 109.801C41.3965 109.964 41.4526 110.133 41.4962 110.303C41.7142 111.174 41.6457 112.171 41.4152 113.068L41.4214 113.074Z" fill="url(#paint67_linear_1765_46742)"/>
<path d="M35.3423 107.424C34.8938 109.675 34.844 112.585 35.5167 113.162C36.5569 114.058 38.4629 114.573 38.4629 114.573C40.2194 114.428 41.2285 112.93 41.2721 112.867C39.8021 113.469 36.9369 112.509 36.2081 111.939C35.7534 111.581 35.199 110.296 35.3423 107.417V107.424Z" fill="url(#paint68_linear_1765_46742)"/>
<path d="M41.2721 112.873C41.2098 112.767 41.5337 111.864 41.3904 111.462C41.2471 111.061 38.22 108.026 37.8774 108.019C37.84 108.019 37.8089 108.038 37.7777 108.082C37.4912 108.439 37.3106 110.283 37.2856 110.49C37.2607 110.722 38.3445 111.694 38.6124 111.456C38.8802 111.218 38.7058 109.681 38.7058 109.681C38.7058 109.681 39.2788 111.199 39.0982 111.506C38.9176 111.807 38.4006 111.976 38.139 111.97C37.8774 111.958 36.9929 111.092 36.7562 110.697C36.6378 110.503 36.7188 109.575 36.8559 108.678V108.646C36.9991 107.756 37.1984 106.897 37.3292 106.834C37.5846 106.702 41.2845 110.616 41.5399 111.042C41.7953 111.468 41.2721 112.879 41.2721 112.879V112.873Z" fill="url(#paint69_linear_1765_46742)"/>
<path d="M38.139 111.965C37.8774 111.952 36.9929 111.087 36.7562 110.692C36.6378 110.497 36.7188 109.569 36.8559 108.672V108.641L37.7777 108.083C37.4912 108.44 37.3106 110.284 37.2856 110.491C37.2607 110.723 38.3445 111.695 38.6124 111.457C38.8802 111.218 38.7058 109.682 38.7058 109.682C38.7058 109.682 39.2788 111.2 39.0982 111.507C38.9176 111.808 38.4006 111.977 38.139 111.971V111.965Z" fill="url(#paint70_linear_1765_46742)"/>
<path style="mix-blend-mode:multiply" opacity="0.5" d="M41.4216 113.074C41.3718 113.005 41.322 112.943 41.2721 112.874C41.2721 112.874 40.2569 114.435 38.463 114.58C38.463 114.58 37.7467 114.385 36.9494 114.021C34.5264 113.332 35.0309 111.444 35.0309 111.444C38.245 110.76 40.6991 110.616 40.6991 110.616L40.8237 110.19L41.5026 110.309C41.7206 111.181 41.6521 112.171 41.4216 113.074Z" fill="url(#paint71_linear_1765_46742)"/>
<path d="M79.9652 108.24C78.6447 108.296 78.3271 111.319 78.5949 111.902C78.5949 111.902 76.6951 113.313 75.4307 112.924C75.4307 112.924 73.9919 111.877 73.1759 110.516L69.8684 112.259C70.8152 113.984 72.0983 115.878 73.2818 116.718C75.5241 118.305 78.5202 118.474 80.0649 117.822C81.6096 117.163 84.4313 114.285 84.4998 112.31C84.5683 110.334 81.292 108.196 79.9715 108.252L79.9652 108.24Z" fill="url(#paint72_linear_1765_46742)"/>
<path d="M80.5819 110.177C80.5819 110.177 81.1798 110.352 81.1861 110.616C81.1923 110.879 80.7314 112.215 80.3452 112.428C79.959 112.641 79.224 112.936 78.5887 111.908C78.5887 111.908 76.6889 113.319 75.4245 112.93C75.4245 112.93 73.9856 111.883 73.1697 110.522L71.6685 111.312C72.2291 112.359 72.8956 113.394 73.3814 113.902C74.4029 114.981 76.0785 115.401 76.502 115.282C81.4539 113.896 81.9771 110.647 81.9771 110.647C81.5598 110.07 80.5881 110.177 80.5881 110.177H80.5819Z" fill="url(#paint73_linear_1765_46742)"/>
<path d="M81.9087 108.929C83.2167 109.707 84.5372 111.037 84.4998 112.303C84.4313 114.279 81.6097 117.163 80.065 117.816C79.1431 118.211 77.698 118.305 76.2094 117.979C78.3832 118.01 81.0616 116.273 83.2915 112.241C83.7524 111.413 83.4596 109.996 81.9149 108.929H81.9087Z" fill="url(#paint74_linear_1765_46742)"/>
<path style="mix-blend-mode:multiply" opacity="0.5" d="M84.0887 113.715C84.0887 113.715 84.0701 113.752 84.0638 113.771C84.0576 113.784 84.0514 113.803 84.0389 113.815C83.9891 113.903 83.9206 114.028 83.8334 114.185C82.8928 115.772 81.155 117.346 80.065 117.816C79.1431 118.211 77.698 118.305 76.2094 117.979C78.3832 118.01 81.0616 116.273 83.2915 112.241C83.9455 112.015 84.4251 113.006 84.095 113.721L84.0887 113.715Z" fill="url(#paint75_linear_1765_46742)"/>
<path d="M80.5819 110.178C80.5819 110.178 81.1799 110.354 81.1861 110.617C81.1923 110.88 80.7314 112.216 80.3452 112.429C80.4947 111.163 80.557 110.473 79.9777 110.297C79.9777 110.297 80.2269 110.184 80.5819 110.184V110.178Z" fill="url(#paint76_linear_1765_46742)"/>
<path style="mix-blend-mode:color-dodge" opacity="0.5" d="M74.0042 114.429C74.3779 114.718 75.2998 115.081 75.2998 115.081C74.1537 115.132 70.7653 113.507 72.0048 115.477C71.5812 114.975 71.1701 114.392 70.7777 113.783C71.7556 113.175 74.0042 114.423 74.0042 114.423V114.429Z" fill="url(#paint77_linear_1765_46742)"/>
<path style="mix-blend-mode:multiply" opacity="0.5" d="M75.4306 112.868C75.8417 112.993 76.3089 112.931 76.7698 112.793C76.1843 114.172 76.5082 115.22 76.5082 115.22C77.455 116.336 77.7726 117.653 77.7726 117.653L78.4142 118.104C76.8508 118.192 74.8825 117.784 73.2879 116.656C72.1045 115.815 70.8213 113.921 69.8746 112.197L73.182 110.453C73.998 111.821 75.4369 112.862 75.4369 112.862L75.4306 112.868Z" fill="url(#paint78_linear_1765_46742)"/>
<path d="M70.0303 113.074C70.0801 113.005 70.1299 112.943 70.1798 112.874C70.1798 112.874 71.1951 114.435 72.9889 114.58C72.9889 114.58 73.7053 114.385 74.5025 114.021C75.0008 113.796 75.5303 113.507 75.9352 113.162C76.9754 112.265 76.2902 105.812 75.0818 104.822C74.7517 104.552 72.8395 106.552 70.1237 109.801C70.0552 109.964 69.9991 110.133 69.9555 110.303C69.7375 111.174 69.806 112.171 70.0365 113.068L70.0303 113.074Z" fill="url(#paint79_linear_1765_46742)"/>
<path d="M76.1095 107.424C76.558 109.675 76.6078 112.585 75.9351 113.162C74.8949 114.058 72.9889 114.573 72.9889 114.573C71.2324 114.428 70.2233 112.93 70.1797 112.867C71.6497 113.469 74.515 112.509 75.2437 111.939C75.6984 111.581 76.2528 110.296 76.1095 107.417V107.424Z" fill="url(#paint80_linear_1765_46742)"/>
<path d="M70.1795 112.873C70.2418 112.767 69.9179 111.864 70.0612 111.462C70.2044 111.061 73.2316 108.026 73.5742 108.019C73.6116 108.019 73.6427 108.038 73.6738 108.082C73.9604 108.439 74.141 110.283 74.1659 110.49C74.1908 110.722 73.107 111.694 72.8392 111.456C72.5713 111.218 72.7458 109.681 72.7458 109.681C72.7458 109.681 72.1727 111.199 72.3533 111.506C72.534 111.807 73.051 111.976 73.3126 111.97C73.5742 111.958 74.4587 111.092 74.6954 110.697C74.8137 110.503 74.7327 109.575 74.5957 108.678V108.646C74.4524 107.756 74.2531 106.897 74.1223 106.834C73.8669 106.702 70.167 110.616 69.9117 111.042C69.6563 111.468 70.1795 112.879 70.1795 112.879V112.873Z" fill="url(#paint81_linear_1765_46742)"/>
<path d="M73.3126 111.965C73.5742 111.952 74.4587 111.087 74.6954 110.692C74.8138 110.497 74.7328 109.569 74.5957 108.672V108.641L73.6739 108.083C73.9604 108.44 74.141 110.284 74.166 110.491C74.1909 110.723 73.1071 111.695 72.8392 111.457C72.5714 111.218 72.7458 109.682 72.7458 109.682C72.7458 109.682 72.1728 111.2 72.3534 111.507C72.534 111.808 73.051 111.977 73.3126 111.971V111.965Z" fill="url(#paint82_linear_1765_46742)"/>
<path style="mix-blend-mode:multiply" opacity="0.5" d="M70.0301 113.074C70.0799 113.005 70.1298 112.943 70.1796 112.874C70.1796 112.874 71.1949 114.435 72.9888 114.58C72.9888 114.58 73.7051 114.385 74.5024 114.021C76.9253 113.332 76.4208 111.444 76.4208 111.444C73.2068 110.76 70.7526 110.616 70.7526 110.616L70.6281 110.19L69.9491 110.309C69.7311 111.181 69.7996 112.171 70.0301 113.074Z" fill="url(#paint83_linear_1765_46742)"/>
<g filter="url(#filter0_d_1765_46742)">
<path d="M94.8446 59.5902C94.8446 60.8601 94.7889 62.1136 94.6732 63.3584C90.486 58.3508 90.9302 54.6643 94.5116 54.3319C94.7332 56.0552 94.8446 57.808 94.8446 59.5913V59.5902ZM21.7394 61.1369C21.7198 60.0687 23.2982 59.3286 25.1997 60.5222C22.6476 56.9556 19.696 57.8167 21.7394 61.1369ZM98.557 55.0164C97.4021 52.8658 95.7724 51.6711 93.9309 50.9157C91.1365 49.7723 87.852 49.6415 84.9921 48.7139C77.3141 46.2406 78.207 41.3595 84.0436 41.2385C77.6416 39.0475 71.5834 39.4399 66.1201 44.0791C68.3851 36.7192 76.5675 34.7397 81.9903 29.5163C84.3012 27.2894 86.1121 24.4738 86.7528 20.4037C87.2669 24.8466 86.6317 28.7958 84.4977 32.1008L84.478 32.1204C88.4273 36.6189 91.4247 41.9688 93.1548 47.8528L93.1647 47.8473C96.3629 49.2578 98.0832 51.706 98.557 55.0153V55.0164ZM68.8905 65.0152C71.5539 63.1764 73.6934 60.8088 75.0906 57.6957C75.2674 57.3077 75.429 56.9043 75.5796 56.4912C75.0404 56.8041 74.4804 57.0809 73.9051 57.3175C72.1292 58.0423 70.1873 58.3759 68.0336 58.1993C70.5006 56.8891 71.9938 54.7886 72.6793 52.0385C72.9773 50.8896 73.1236 49.6251 73.1487 48.2604C68.2661 52.2804 59.9222 48.3509 56.3605 52.0886C61.4199 51.0563 65.6169 54.2392 69.9657 52.7535C67.0807 58.1884 62.2582 56.0073 58.9682 57.6292C63.1445 57.9159 65.9095 61.7244 69.874 60.6115C65.4346 65.9668 62.4481 62.6314 57.9181 63.1655C53.8826 63.6494 53.8728 66.9435 57.7773 67.5681C55.2907 69.0135 52.385 69.3361 50.0993 70.9831C47.0123 73.1948 47.8539 75.4468 50.6243 75.2452C48.8232 77.9953 46.3563 79.4058 43.4156 79.8843C44.3238 80.3781 45.3881 80.5896 46.4982 80.6898C43.2148 82.1254 40.1169 82.0655 37.2057 80.5896C37.4273 80.4686 37.65 80.3378 37.8716 80.2168C36.2321 78.7812 35.778 77.7838 35.5968 76.9423C37.7002 78.3986 39.8539 78.5588 42.0894 77.2345C40.2534 76.6197 38.9119 75.461 37.8214 74.0156C42.5577 75.0838 44.4395 73.2951 45.494 70.63C46.8661 67.1648 46.8464 62.2073 49.8973 60.0861C47.7633 60.3325 45.5485 59.1999 43.5062 58.6702C41.0644 58.0456 39.3299 59.733 37.3979 60.4687C35.8795 61.0432 34.169 60.1559 32.5601 60.0458C27.2332 59.673 28.4743 63.8238 30.6586 66.8617C28.5704 66.5598 26.7944 65.7837 25.2859 64.6054L25.2804 64.6108C25.3612 65.7543 25.6341 66.8825 26.0576 67.9965C24.7106 67.5888 23.4193 66.9533 22.3147 65.5385C18.5913 64.4408 16.6898 60.8938 19.6665 61.7953C18.885 58.9645 17.2804 58.7323 16.9529 59.9968C15.6005 56.5108 18.1689 54.9946 20.4634 55.5484C22.688 56.0868 24.8929 56.1479 27.0062 55.4481C29.9425 54.491 33.2914 55.4175 36.2124 56.3997C35.8893 55.387 34.8054 54.4398 32.4596 53.5591C35.4865 52.1584 39.1585 52.8538 42.5129 52.6118C43.718 52.5257 44.6819 52.1529 45.5093 51.6297C47.6029 50.3151 48.8483 48.0686 51.1188 47.202C47.0527 46.0738 43.8446 46.9655 41.4334 48.8447C37.0999 52.2303 33.5839 50.0786 36.5552 46.2602C39.8037 42.0691 44.5563 43.0359 46.841 37.818C47.0833 39.2993 46.9119 40.6945 46.2755 41.9884C49.7565 40.8951 51.9713 38.4425 53.8117 35.5954C54.3564 37.746 54.1642 39.6459 53.5693 41.4085C59.6777 33.2224 72.0277 31.5699 79.8913 27.636C77.2431 25.4091 74.3167 23.5048 71.1697 21.9842L71.1751 21.969C71.0845 19.7377 70.2768 18.0296 68.789 16.8153C69.3795 18.5125 69.5149 19.9284 69.3686 21.1678C68.9091 25.0058 65.701 27.127 64.6618 30.5933C61.7812 31.7062 59.2084 33.1167 56.8931 34.7648C58.3711 27.7832 65.6551 25.3502 68.0467 20.6348C63.3803 18.8264 58.3155 17.8388 53.029 17.8388C29.9905 17.8388 11.2102 36.5928 11.2102 59.5891C11.2102 78.3888 23.7457 94.3479 40.8974 99.556C63.8999 104.523 76.4004 84.1921 64.4304 73.875C68.5565 73.7093 72.3802 74.9934 75.6189 79.1246C74.8373 73.488 72.8343 68.632 68.8894 65.0152H68.8905ZM35.6372 44.5532C34.6133 45.4503 33.0644 47.4898 33.4835 50.2105C30.6989 48.0086 32.3581 45.8678 35.6372 44.5532ZM28.5038 68.9546C30.4359 69.6697 32.7915 70.098 35.0466 68.7737C38.1336 66.9446 40.0656 63.9176 44.4548 63.7966C41.8776 64.431 39.4205 66.3004 37.9425 69.6904C36.5956 72.7632 35.1427 73.6199 32.8428 73.9066C33.716 73.1261 34.4419 72.2498 34.5533 70.9047C31.1028 72.5615 29.6707 70.9755 28.5049 68.9557L28.5038 68.9546Z" fill="url(#paint84_radial_1765_46742)"/>
</g>
</g>
<defs>
<filter id="filter0_d_1765_46742" x="8.40766" y="16.8153" width="92.9518" height="89.1147" filterUnits="userSpaceOnUse" color-interpolation-filters="sRGB">
<feFlood flood-opacity="0" result="BackgroundImageFix"/>
<feColorMatrix in="SourceAlpha" type="matrix" values="0 0 0 0 0 0 0 0 0 0 0 0 0 0 0 0 0 0 127 0" result="hardAlpha"/>
<feOffset dy="2.80255"/>
<feGaussianBlur stdDeviation="1.40127"/>
<feComposite in2="hardAlpha" operator="out"/>
<feColorMatrix type="matrix" values="0 0 0 0 0 0 0 0 0 0 0 0 0 0 0 0 0 0 0.25 0"/>
<feBlend mode="normal" in2="BackgroundImageFix" result="effect1_dropShadow_1765_46742"/>
<feBlend mode="normal" in="SourceGraphic" in2="effect1_dropShadow_1765_46742" result="shape"/>
</filter>
<linearGradient id="paint0_linear_1765_46742" x1="54.9627" y1="112.499" x2="54.9627" y2="5.20618" gradientUnits="userSpaceOnUse">
<stop stop-color="#D16509"/>
<stop offset="1" stop-color="#8D2C1B"/>
</linearGradient>
<linearGradient id="paint1_linear_1765_46742" x1="54.9999" y1="114.587" x2="54.9999" y2="3.84473" gradientUnits="userSpaceOnUse">
<stop stop-color="#CA6B34"/>
<stop offset="0.74" stop-color="#FFBD2B"/>
<stop offset="1" stop-color="#FFA933"/>
</linearGradient>
<linearGradient id="paint2_linear_1765_46742" x1="54.9999" y1="74.3271" x2="54.9999" y2="114.588" gradientUnits="userSpaceOnUse">
<stop stop-color="#F08D1D"/>
<stop offset="1" stop-color="#8D2C1B"/>
</linearGradient>
<linearGradient id="paint3_linear_1765_46742" x1="55" y1="5.46277" x2="55" y2="112.969" gradientUnits="userSpaceOnUse">
<stop stop-color="#CA6B34"/>
<stop offset="0.17" stop-color="#CB6D33"/>
<stop offset="0.29" stop-color="#D17632"/>
<stop offset="0.39" stop-color="#DB8531"/>
<stop offset="0.48" stop-color="#E99B2E"/>
<stop offset="0.57" stop-color="#FBB62B"/>
<stop offset="0.59" stop-color="#FFBD2B"/>
<stop offset="1" stop-color="#FFA933"/>
</linearGradient>
<linearGradient id="paint4_linear_1765_46742" x1="55" y1="44.1119" x2="55" y2="3.84473" gradientUnits="userSpaceOnUse">
<stop stop-color="#EBBD38"/>
<stop offset="1" stop-color="#FFF29E"/>
</linearGradient>
<linearGradient id="paint5_linear_1765_46742" x1="54.9999" y1="73.1346" x2="54.9999" y2="-27.4423" gradientUnits="userSpaceOnUse">
<stop stop-color="#CA6B34"/>
<stop offset="0.74" stop-color="#FFBD2B"/>
<stop offset="1" stop-color="#FFA933"/>
</linearGradient>
<linearGradient id="paint6_linear_1765_46742" x1="54.9998" y1="79.3182" x2="54.9998" y2="110.241" gradientUnits="userSpaceOnUse">
<stop stop-color="#F08D1D"/>
<stop offset="1" stop-color="#8D2C1B"/>
</linearGradient>
<linearGradient id="paint7_linear_1765_46742" x1="54.9998" y1="36.3791" x2="54.9998" y2="8.93025" gradientUnits="userSpaceOnUse">
<stop stop-color="#EBBD38"/>
<stop offset="1" stop-color="#FFF29E"/>
</linearGradient>
<linearGradient id="paint8_linear_1765_46742" x1="54.9998" y1="10.5364" x2="54.9998" y2="107.902" gradientUnits="userSpaceOnUse">
<stop stop-color="#CA6B34"/>
<stop offset="0.17" stop-color="#CB6D33"/>
<stop offset="0.29" stop-color="#D17632"/>
<stop offset="0.39" stop-color="#DB8531"/>
<stop offset="0.48" stop-color="#E99B2E"/>
<stop offset="0.57" stop-color="#FBB62B"/>
<stop offset="0.59" stop-color="#FFBD2B"/>
<stop offset="1" stop-color="#FFA933"/>
</linearGradient>
<linearGradient id="paint9_linear_1765_46742" x1="55.0435" y1="24.1696" x2="55.0435" y2="12.9191" gradientUnits="userSpaceOnUse">
<stop stop-color="#F08D1D"/>
<stop offset="1" stop-color="#8D2C1B"/>
</linearGradient>
<linearGradient id="paint10_linear_1765_46742" x1="54.9998" y1="15.9221" x2="54.9998" y2="10.786" gradientUnits="userSpaceOnUse">
<stop stop-color="#CA6B34"/>
<stop offset="0.74" stop-color="#FFBD2B"/>
<stop offset="1" stop-color="#FFA933"/>
</linearGradient>
<linearGradient id="paint11_linear_1765_46742" x1="53.5672" y1="14.4486" x2="53.5672" y2="12.6864" gradientUnits="userSpaceOnUse">
<stop stop-color="#B75014"/>
<stop offset="0.39" stop-color="#CA6B34"/>
<stop offset="1" stop-color="#FFA933"/>
</linearGradient>
<linearGradient id="paint12_linear_1765_46742" x1="56.4261" y1="-0.000126226" x2="56.4261" y2="-0.000126226" gradientUnits="userSpaceOnUse">
<stop stop-color="#B75014"/>
<stop offset="0.39" stop-color="#CA6B34"/>
<stop offset="1" stop-color="#FFA933"/>
</linearGradient>
<linearGradient id="paint13_linear_1765_46742" x1="53.5922" y1="10.7171" x2="56.4761" y2="10.7171" gradientUnits="userSpaceOnUse">
<stop stop-color="#F08D1D"/>
<stop offset="1" stop-color="#8D2C1B"/>
</linearGradient>
<linearGradient id="paint14_linear_1765_46742" x1="55.4359" y1="14.4362" x2="54.8613" y2="3.01057" gradientUnits="userSpaceOnUse">
<stop stop-color="#CA6B34"/>
<stop offset="0.74" stop-color="#FFBD2B"/>
<stop offset="1" stop-color="#FFA933"/>
</linearGradient>
<linearGradient id="paint15_linear_1765_46742" x1="50.2348" y1="7.28663" x2="53.6918" y2="7.28663" gradientUnits="userSpaceOnUse">
<stop stop-color="#D16509"/>
<stop offset="1" stop-color="#8D2C1B"/>
</linearGradient>
<linearGradient id="paint16_linear_1765_46742" x1="52.1096" y1="9.2935" x2="52.1096" y2="7.05469" gradientUnits="userSpaceOnUse">
<stop stop-color="#B53E1C"/>
<stop offset="1" stop-color="#440000"/>
</linearGradient>
<linearGradient id="paint17_linear_1765_46742" x1="56.1458" y1="7.28672" x2="59.7585" y2="7.28672" gradientUnits="userSpaceOnUse">
<stop stop-color="#D16509"/>
<stop offset="1" stop-color="#8D2C1B"/>
</linearGradient>
<linearGradient id="paint18_linear_1765_46742" x1="57.728" y1="9.29355" x2="57.728" y2="7.05474" gradientUnits="userSpaceOnUse">
<stop stop-color="#B53E1C"/>
<stop offset="1" stop-color="#440000"/>
</linearGradient>
<linearGradient id="paint19_linear_1765_46742" x1="55.0807" y1="9.18121" x2="54.8787" y2="3.43692" gradientUnits="userSpaceOnUse">
<stop stop-color="#D33A22"/>
<stop offset="1" stop-color="white"/>
</linearGradient>
<linearGradient id="paint20_linear_1765_46742" x1="55.0558" y1="5.69489" x2="54.9548" y2="2.23952" gradientUnits="userSpaceOnUse">
<stop stop-color="#B75014"/>
<stop offset="0.39" stop-color="#CA6B34"/>
<stop offset="1" stop-color="#FFA933"/>
</linearGradient>
<linearGradient id="paint21_linear_1765_46742" x1="54.7133" y1="5.93886" x2="55.1741" y2="2.47799" gradientUnits="userSpaceOnUse">
<stop stop-color="#D33A22"/>
<stop offset="1" stop-color="white"/>
</linearGradient>
<linearGradient id="paint22_linear_1765_46742" x1="54.9437" y1="1.62999" x2="55.7348" y2="1.62999" gradientUnits="userSpaceOnUse">
<stop stop-color="white"/>
<stop offset="1" stop-color="#FFF7C4"/>
</linearGradient>
<linearGradient id="paint23_linear_1765_46742" x1="57.1985" y1="4.7662" x2="58.164" y2="4.7662" gradientUnits="userSpaceOnUse">
<stop stop-color="white"/>
<stop offset="1" stop-color="#FFF7C4"/>
</linearGradient>
<linearGradient id="paint24_linear_1765_46742" x1="52.7824" y1="13.4204" x2="57.211" y2="13.4204" gradientUnits="userSpaceOnUse">
<stop stop-color="#F08D1D"/>
<stop offset="1" stop-color="#8D2C1B"/>
</linearGradient>
<radialGradient id="paint25_radial_1765_46742" cx="0" cy="0" r="1" gradientUnits="userSpaceOnUse" gradientTransform="translate(55.1929 8.18438) scale(1.78766 1.79982)">
<stop stop-color="#FFA933"/>
<stop offset="0.26" stop-color="#FFBD2B"/>
<stop offset="1" stop-color="#CA6B34"/>
</radialGradient>
<linearGradient id="paint26_linear_1765_46742" x1="55.0559" y1="10.7178" x2="55.0559" y2="6.74811" gradientUnits="userSpaceOnUse">
<stop stop-color="#D33A22"/>
<stop offset="1" stop-color="white"/>
</linearGradient>
<linearGradient id="paint27_linear_1765_46742" x1="54.7943" y1="8.39794" x2="55.9964" y2="8.39794" gradientUnits="userSpaceOnUse">
<stop stop-color="white"/>
<stop offset="1" stop-color="#FFF7C4"/>
</linearGradient>
<linearGradient id="paint28_linear_1765_46742" x1="51.9477" y1="13.603" x2="51.9477" y2="9.82773" gradientUnits="userSpaceOnUse">
<stop stop-color="#CA6B34"/>
<stop offset="0.74" stop-color="#FFBD2B"/>
<stop offset="1" stop-color="#FFA933"/>
</linearGradient>
<linearGradient id="paint29_linear_1765_46742" x1="40.6925" y1="11.007" x2="41.4625" y2="6.48098" gradientUnits="userSpaceOnUse">
<stop stop-color="#CA6B34"/>
<stop offset="0.74" stop-color="#FFBD2B"/>
<stop offset="1" stop-color="#FFA933"/>
</linearGradient>
<linearGradient id="paint30_linear_1765_46742" x1="33.9466" y1="4.92458" x2="37.862" y2="9.16878" gradientUnits="userSpaceOnUse">
<stop stop-color="#CA6B34"/>
<stop offset="0.74" stop-color="#FFBD2B"/>
<stop offset="1" stop-color="#FFA933"/>
</linearGradient>
<linearGradient id="paint31_linear_1765_46742" x1="29.9977" y1="7.84638" x2="42.6902" y2="1.37551" gradientUnits="userSpaceOnUse">
<stop stop-color="#CE5719"/>
<stop offset="0.74" stop-color="#FFBD2B"/>
<stop offset="1" stop-color="#FFA933"/>
</linearGradient>
<linearGradient id="paint32_linear_1765_46742" x1="29.5989" y1="5.1369" x2="34.1822" y2="3.76812" gradientUnits="userSpaceOnUse">
<stop stop-color="#D33A22"/>
<stop offset="1" stop-color="white"/>
</linearGradient>
<linearGradient id="paint33_linear_1765_46742" x1="34.3015" y1="7.59593" x2="33.7842" y2="5.41513" gradientUnits="userSpaceOnUse">
<stop stop-color="#B53E1C"/>
<stop offset="1" stop-color="#440000"/>
</linearGradient>
<linearGradient id="paint34_linear_1765_46742" x1="33.6414" y1="5.14948" x2="35.5661" y2="5.14948" gradientUnits="userSpaceOnUse">
<stop stop-color="#D16509"/>
<stop offset="1" stop-color="#8D2C1B"/>
</linearGradient>
<linearGradient id="paint35_linear_1765_46742" x1="42.044" y1="18.2687" x2="39.2798" y2="3.83311" gradientUnits="userSpaceOnUse">
<stop stop-color="#D16509"/>
<stop offset="1" stop-color="#8D2C1B"/>
</linearGradient>
<linearGradient id="paint36_linear_1765_46742" x1="38.0577" y1="0.823128" x2="35.805" y2="11.2897" gradientUnits="userSpaceOnUse">
<stop stop-color="#B75014"/>
<stop offset="0.39" stop-color="#CA6B34"/>
<stop offset="1" stop-color="#FFA933"/>
</linearGradient>
<linearGradient id="paint37_linear_1765_46742" x1="35.6222" y1="1.1988" x2="38.5435" y2="1.1988" gradientUnits="userSpaceOnUse">
<stop stop-color="#EBBD38"/>
<stop offset="1" stop-color="#FFF29E"/>
</linearGradient>
<linearGradient id="paint38_linear_1765_46742" x1="34.5445" y1="0.207967" x2="36.5813" y2="0.207967" gradientUnits="userSpaceOnUse">
<stop stop-color="white"/>
<stop offset="1" stop-color="#FFF7C4"/>
</linearGradient>
<linearGradient id="paint39_linear_1765_46742" x1="37.4036" y1="4.22799" x2="38.4562" y2="4.22799" gradientUnits="userSpaceOnUse">
<stop stop-color="white"/>
<stop offset="1" stop-color="#FFF7C4"/>
</linearGradient>
<linearGradient id="paint40_linear_1765_46742" x1="40.5864" y1="8.05308" x2="44.7348" y2="8.05308" gradientUnits="userSpaceOnUse">
<stop stop-color="#EBBD38"/>
<stop offset="1" stop-color="#FFF29E"/>
</linearGradient>
<linearGradient id="paint41_linear_1765_46742" x1="44.1306" y1="11.2956" x2="44.1306" y2="8.26034" gradientUnits="userSpaceOnUse">
<stop stop-color="#E39330"/>
<stop offset="1" stop-color="#FFCD61"/>
</linearGradient>
<linearGradient id="paint42_linear_1765_46742" x1="45.2705" y1="7.25088" x2="46.2172" y2="7.25088" gradientUnits="userSpaceOnUse">
<stop stop-color="white"/>
<stop offset="1" stop-color="#FFF7C4"/>
</linearGradient>
<linearGradient id="paint43_linear_1765_46742" x1="52.0535" y1="11.6336" x2="52.0535" y2="7.75801" gradientUnits="userSpaceOnUse">
<stop stop-color="#D33A22"/>
<stop offset="1" stop-color="white"/>
</linearGradient>
<linearGradient id="paint44_linear_1765_46742" x1="58.0459" y1="13.603" x2="58.0459" y2="9.82773" gradientUnits="userSpaceOnUse">
<stop stop-color="#CA6B34"/>
<stop offset="0.74" stop-color="#FFBD2B"/>
<stop offset="1" stop-color="#FFA933"/>
</linearGradient>
<linearGradient id="paint45_linear_1765_46742" x1="56.7191" y1="6.86808" x2="80.9054" y2="6.86808" gradientUnits="userSpaceOnUse">
<stop stop-color="#CA6B34"/>
<stop offset="0.74" stop-color="#FFBD2B"/>
<stop offset="1" stop-color="#FFA933"/>
</linearGradient>
<linearGradient id="paint46_linear_1765_46742" x1="69.756" y1="6.17881" x2="80.9055" y2="6.17881" gradientUnits="userSpaceOnUse">
<stop stop-color="#CA6B34"/>
<stop offset="0.74" stop-color="#FFBD2B"/>
<stop offset="1" stop-color="#FFA933"/>
</linearGradient>
<linearGradient id="paint47_linear_1765_46742" x1="80.2888" y1="10.6433" x2="72.0935" y2="0.576021" gradientUnits="userSpaceOnUse">
<stop stop-color="#CE5719"/>
<stop offset="0.74" stop-color="#FFBD2B"/>
<stop offset="1" stop-color="#FFA933"/>
</linearGradient>
<linearGradient id="paint48_linear_1765_46742" x1="80.1392" y1="7.313" x2="76.8838" y2="3.97373" gradientUnits="userSpaceOnUse">
<stop stop-color="#D33A22"/>
<stop offset="1" stop-color="white"/>
</linearGradient>
<linearGradient id="paint49_linear_1765_46742" x1="75.9474" y1="7.20085" x2="76.1494" y2="5.72749" gradientUnits="userSpaceOnUse">
<stop stop-color="#B53E1C"/>
<stop offset="1" stop-color="#440000"/>
</linearGradient>
<linearGradient id="paint50_linear_1765_46742" x1="76.4893" y1="5.23728" x2="74.265" y2="4.9031" gradientUnits="userSpaceOnUse">
<stop stop-color="#D16509"/>
<stop offset="1" stop-color="#8D2C1B"/>
</linearGradient>
<linearGradient id="paint51_linear_1765_46742" x1="68.1677" y1="17.5475" x2="70.73" y2="3.51878" gradientUnits="userSpaceOnUse">
<stop stop-color="#D16509"/>
<stop offset="1" stop-color="#8D2C1B"/>
</linearGradient>
<linearGradient id="paint52_linear_1765_46742" x1="69.756" y1="4.57955" x2="76.1156" y2="4.57955" gradientUnits="userSpaceOnUse">
<stop stop-color="#B75014"/>
<stop offset="0.39" stop-color="#CA6B34"/>
<stop offset="1" stop-color="#FFA933"/>
</linearGradient>
<linearGradient id="paint53_linear_1765_46742" x1="71.4564" y1="1.1988" x2="74.3714" y2="1.1988" gradientUnits="userSpaceOnUse">
<stop stop-color="#EBBD38"/>
<stop offset="1" stop-color="#FFF29E"/>
</linearGradient>
<linearGradient id="paint54_linear_1765_46742" x1="73.4186" y1="0.207967" x2="75.4554" y2="0.207967" gradientUnits="userSpaceOnUse">
<stop stop-color="white"/>
<stop offset="1" stop-color="#FFF7C4"/>
</linearGradient>
<linearGradient id="paint55_linear_1765_46742" x1="71.5437" y1="4.22799" x2="72.5963" y2="4.22799" gradientUnits="userSpaceOnUse">
<stop stop-color="white"/>
<stop offset="1" stop-color="#FFF7C4"/>
</linearGradient>
<linearGradient id="paint56_linear_1765_46742" x1="65.2588" y1="8.05308" x2="69.4072" y2="8.05308" gradientUnits="userSpaceOnUse">
<stop stop-color="#EBBD38"/>
<stop offset="1" stop-color="#FFF29E"/>
</linearGradient>
<linearGradient id="paint57_linear_1765_46742" x1="65.863" y1="0.00122449" x2="65.863" y2="0.00122449" gradientUnits="userSpaceOnUse">
<stop stop-color="#E39330"/>
<stop offset="1" stop-color="#FFCD61"/>
</linearGradient>
<linearGradient id="paint58_linear_1765_46742" x1="63.7763" y1="7.25088" x2="64.7293" y2="7.25088" gradientUnits="userSpaceOnUse">
<stop stop-color="white"/>
<stop offset="1" stop-color="#FFF7C4"/>
</linearGradient>
<linearGradient id="paint59_linear_1765_46742" x1="57.9461" y1="11.6336" x2="57.9461" y2="7.75801" gradientUnits="userSpaceOnUse">
<stop stop-color="#D33A22"/>
<stop offset="1" stop-color="white"/>
</linearGradient>
<linearGradient id="paint60_linear_1765_46742" x1="35.4068" y1="113.214" x2="29.2279" y2="113.235" gradientUnits="userSpaceOnUse">
<stop stop-color="#CA6B34"/>
<stop offset="0.74" stop-color="#FFBD2B"/>
<stop offset="1" stop-color="#FFA933"/>
</linearGradient>
<linearGradient id="paint61_linear_1765_46742" x1="22.1637" y1="109.724" x2="42.6606" y2="114.283" gradientUnits="userSpaceOnUse">
<stop stop-color="#D16509"/>
<stop offset="1" stop-color="#8D2C1B"/>
</linearGradient>
<linearGradient id="paint62_linear_1765_46742" x1="31.1929" y1="109.056" x2="30.8181" y2="118.128" gradientUnits="userSpaceOnUse">
<stop stop-color="#D16509"/>
<stop offset="1" stop-color="#8D2C1B"/>
</linearGradient>
<linearGradient id="paint63_linear_1765_46742" x1="31.2249" y1="112.396" x2="30.9878" y2="118.136" gradientUnits="userSpaceOnUse">
<stop stop-color="#D33A22"/>
<stop offset="1" stop-color="white"/>
</linearGradient>
<linearGradient id="paint64_linear_1765_46742" x1="29.729" y1="111.626" x2="31.5443" y2="111.179" gradientUnits="userSpaceOnUse">
<stop stop-color="#B53E1C"/>
<stop offset="1" stop-color="#440000"/>
</linearGradient>
<linearGradient id="paint65_linear_1765_46742" x1="38.295" y1="113.604" x2="38.2173" y2="115.484" gradientUnits="userSpaceOnUse">
<stop stop-color="#EBBD38"/>
<stop offset="1" stop-color="#FFF29E"/>
</linearGradient>
<linearGradient id="paint66_linear_1765_46742" x1="31.686" y1="114.309" x2="37.1424" y2="114.29" gradientUnits="userSpaceOnUse">
<stop stop-color="#F08D1D"/>
<stop offset="1" stop-color="#8D2C1B"/>
</linearGradient>
<linearGradient id="paint67_linear_1765_46742" x1="36.6577" y1="112.946" x2="39.9807" y2="107.108" gradientUnits="userSpaceOnUse">
<stop stop-color="#CA6B34"/>
<stop offset="0.74" stop-color="#FFBD2B"/>
<stop offset="1" stop-color="#FFA933"/>
</linearGradient>
<linearGradient id="paint68_linear_1765_46742" x1="35.0957" y1="107.573" x2="39.2984" y2="114.49" gradientUnits="userSpaceOnUse">
<stop stop-color="#D16509"/>
<stop offset="1" stop-color="#8D2C1B"/>
</linearGradient>
<linearGradient id="paint69_linear_1765_46742" x1="39.9576" y1="109.446" x2="36.6339" y2="111.438" gradientUnits="userSpaceOnUse">
<stop stop-color="#D16509"/>
<stop offset="1" stop-color="#8D2C1B"/>
</linearGradient>
<linearGradient id="paint70_linear_1765_46742" x1="36.8247" y1="108.662" x2="38.7359" y2="111.808" gradientUnits="userSpaceOnUse">
<stop stop-color="#D16509"/>
<stop offset="1" stop-color="#8D2C1B"/>
</linearGradient>
<linearGradient id="paint71_linear_1765_46742" x1="35.7662" y1="110.227" x2="41.3205" y2="113.346" gradientUnits="userSpaceOnUse">
<stop stop-color="#F08D1D"/>
<stop offset="1" stop-color="#8D2C1B"/>
</linearGradient>
<linearGradient id="paint72_linear_1765_46742" x1="76.0315" y1="113.194" x2="82.2104" y2="113.216" gradientUnits="userSpaceOnUse">
<stop stop-color="#CA6B34"/>
<stop offset="0.74" stop-color="#FFBD2B"/>
<stop offset="1" stop-color="#FFA933"/>
</linearGradient>
<linearGradient id="paint73_linear_1765_46742" x1="89.2072" y1="109.713" x2="68.7103" y2="114.272" gradientUnits="userSpaceOnUse">
<stop stop-color="#D16509"/>
<stop offset="1" stop-color="#8D2C1B"/>
</linearGradient>
<linearGradient id="paint74_linear_1765_46742" x1="80.1781" y1="109.044" x2="80.5532" y2="118.124" gradientUnits="userSpaceOnUse">
<stop stop-color="#D16509"/>
<stop offset="1" stop-color="#8D2C1B"/>
</linearGradient>
<linearGradient id="paint75_linear_1765_46742" x1="80.1459" y1="112.385" x2="80.3833" y2="118.131" gradientUnits="userSpaceOnUse">
<stop stop-color="#D33A22"/>
<stop offset="1" stop-color="white"/>
</linearGradient>
<linearGradient id="paint76_linear_1765_46742" x1="81.6418" y1="111.615" x2="79.8266" y2="111.168" gradientUnits="userSpaceOnUse">
<stop stop-color="#B53E1C"/>
<stop offset="1" stop-color="#440000"/>
</linearGradient>
<linearGradient id="paint77_linear_1765_46742" x1="73.082" y1="113.593" x2="73.1597" y2="115.473" gradientUnits="userSpaceOnUse">
<stop stop-color="#EBBD38"/>
<stop offset="1" stop-color="#FFF29E"/>
</linearGradient>
<linearGradient id="paint78_linear_1765_46742" x1="79.7522" y1="114.296" x2="74.2958" y2="114.277" gradientUnits="userSpaceOnUse">
<stop stop-color="#F08D1D"/>
<stop offset="1" stop-color="#8D2C1B"/>
</linearGradient>
<linearGradient id="paint79_linear_1765_46742" x1="74.6866" y1="112.849" x2="71.3636" y2="107.01" gradientUnits="userSpaceOnUse">
<stop stop-color="#CA6B34"/>
<stop offset="0.74" stop-color="#FFBD2B"/>
<stop offset="1" stop-color="#FFA933"/>
</linearGradient>
<linearGradient id="paint80_linear_1765_46742" x1="76.3002" y1="107.569" x2="72.0975" y2="114.486" gradientUnits="userSpaceOnUse">
<stop stop-color="#D16509"/>
<stop offset="1" stop-color="#8D2C1B"/>
</linearGradient>
<linearGradient id="paint81_linear_1765_46742" x1="71.4327" y1="109.438" x2="74.7617" y2="111.434" gradientUnits="userSpaceOnUse">
<stop stop-color="#D16509"/>
<stop offset="1" stop-color="#8D2C1B"/>
</linearGradient>
<linearGradient id="paint82_linear_1765_46742" x1="74.571" y1="108.658" x2="72.6598" y2="111.804" gradientUnits="userSpaceOnUse">
<stop stop-color="#D16509"/>
<stop offset="1" stop-color="#8D2C1B"/>
</linearGradient>
<linearGradient id="paint83_linear_1765_46742" x1="75.5866" y1="110.132" x2="70.0323" y2="113.25" gradientUnits="userSpaceOnUse">
<stop stop-color="#F08D1D"/>
<stop offset="1" stop-color="#8D2C1B"/>
</linearGradient>
<radialGradient id="paint84_radial_1765_46742" cx="0" cy="0" r="1" gradientUnits="userSpaceOnUse" gradientTransform="translate(-102.443 -90.305) scale(424.054 423.458)">
<stop offset="0.209796" stop-color="#88F9D0"/>
<stop offset="0.374" stop-color="#FFD569"/>
<stop offset="0.545419" stop-color="#ED1C24"/>
<stop offset="1" stop-color="#812326"/>
</radialGradient>
<clipPath id="clip0_1765_46742">
<rect width="110" height="118.174" fill="white"/>
</clipPath>
</defs>
</svg>
